<svg width="49" height="49" viewBox="0 0 49 49" fill="none" xmlns="http://www.w3.org/2000/svg">
<path d="M0.307617 8.76172C0.307617 4.34344 3.88934 0.761719 8.30762 0.761719H40.3076C44.7259 0.761719 48.3076 4.34344 48.3076 8.76172V40.7617C48.3076 45.18 44.7259 48.7617 40.3076 48.7617H8.30762C3.88934 48.7617 0.307617 45.18 0.307617 40.7617V8.76172Z" fill="#F0FDF4"/>
<path d="M34.3076 23.8416V24.7616C34.3064 26.918 33.6081 29.0163 32.317 30.7434C31.0258 32.4706 29.2109 33.7341 27.143 34.3455C25.075 34.9569 22.8649 34.8835 20.8421 34.1362C18.8193 33.3889 17.0923 32.0077 15.9186 30.1987C14.7449 28.3896 14.1874 26.2496 14.3293 24.0979C14.4712 21.9461 15.3048 19.8979 16.7059 18.2587C18.107 16.6194 20.0004 15.477 22.1038 15.0017C24.2072 14.5265 26.4079 14.7439 28.3776 15.6216" stroke="#16A34A" stroke-width="2" stroke-linecap="round" stroke-linejoin="round"/>
<path d="M21.3076 23.7617L24.3076 26.7617L34.3076 16.7617" stroke="#16A34A" stroke-width="2" stroke-linecap="round" stroke-linejoin="round"/>
</svg>
