<svg width="49" height="49" viewBox="0 0 49 49" fill="none" xmlns="http://www.w3.org/2000/svg">
<path d="M0.114258 8.76172C0.114258 4.34344 3.69598 0.761719 8.11426 0.761719H40.1143C44.5325 0.761719 48.1143 4.34344 48.1143 8.76172V40.7617C48.1143 45.18 44.5325 48.7617 40.1143 48.7617H8.11426C3.69598 48.7617 0.114258 45.18 0.114258 40.7617V8.76172Z" fill="#FEFCE8"/>
<path d="M24.1143 34.7617C29.6371 34.7617 34.1143 30.2846 34.1143 24.7617C34.1143 19.2389 29.6371 14.7617 24.1143 14.7617C18.5914 14.7617 14.1143 19.2389 14.1143 24.7617C14.1143 30.2846 18.5914 34.7617 24.1143 34.7617Z" stroke="#CA8A04" stroke-width="2" stroke-linecap="round" stroke-linejoin="round"/>
<path d="M24.1143 18.7617V24.7617L28.1143 26.7617" stroke="#CA8A04" stroke-width="2" stroke-linecap="round" stroke-linejoin="round"/>
</svg>
