<svg width="28" height="24" viewBox="0 0 28 24" fill="none" xmlns="http://www.w3.org/2000/svg">
<path d="M17.25 15.4277C18.4926 15.4277 19.5 16.2912 19.5 17.3563V18.6437L19.4921 18.7367C19.1814 20.5591 17.2715 21.4355 14.0668 21.4355C10.8736 21.4355 8.9333 20.5692 8.51446 18.7677L8.5 18.642V17.3563C8.5 16.2912 9.50736 15.4277 10.75 15.4277H17.25ZM17.25 16.7134H10.75C10.3358 16.7134 10 17.0013 10 17.3563V18.5738C10.2798 19.6027 11.5506 20.1498 14.0668 20.1498C16.5829 20.1498 17.7966 19.6086 18 18.5933V17.3563C18 17.0013 17.6642 16.7134 17.25 16.7134ZM18.2436 10.2839L23.75 10.2849C24.9926 10.2849 26 11.1483 26 12.2134V13.5009L25.9921 13.5938C25.6814 15.4163 23.7715 16.2926 20.5668 16.2926L20.2519 16.2897C19.9569 15.6781 19.4151 15.1773 18.7334 14.877C19.2482 14.9635 19.8581 15.0069 20.5668 15.0069C23.0829 15.0069 24.2966 14.4658 24.5 13.4504V12.2134C24.5 11.8584 24.1642 11.5706 23.75 11.5706H18.5C18.5 11.1194 18.4096 10.6864 18.2436 10.2839ZM4.25 10.2849L9.75645 10.2839C9.61805 10.6193 9.53223 10.9759 9.50746 11.3466L9.5 11.5706H4.25C3.83579 11.5706 3.5 11.8584 3.5 12.2134V13.4309C3.77979 14.4598 5.05063 15.0069 7.56679 15.0069C8.18886 15.0069 8.73133 14.9738 9.1986 14.9087C8.54784 15.2116 8.03196 15.6998 7.74635 16.2905L7.56679 16.2926C4.37361 16.2926 2.4333 15.4263 2.01446 13.6248L2 13.4992V12.2134C2 11.1483 3.00736 10.2849 4.25 10.2849ZM14 8.57059C15.933 8.57059 17.5 9.91374 17.5 11.5706C17.5 13.2274 15.933 14.5706 14 14.5706C12.067 14.5706 10.5 13.2274 10.5 11.5706C10.5 9.91374 12.067 8.57059 14 8.57059ZM14 9.85631C12.8954 9.85631 12 10.6238 12 11.5706C12 12.5174 12.8954 13.2849 14 13.2849C15.1046 13.2849 16 12.5174 16 11.5706C16 10.6238 15.1046 9.85631 14 9.85631ZM20.5 3.42773C22.433 3.42773 24 4.77088 24 6.42773C24 8.08459 22.433 9.42773 20.5 9.42773C18.567 9.42773 17 8.08459 17 6.42773C17 4.77088 18.567 3.42773 20.5 3.42773ZM7.5 3.42773C9.433 3.42773 11 4.77088 11 6.42773C11 8.08459 9.433 9.42773 7.5 9.42773C5.567 9.42773 4 8.08459 4 6.42773C4 4.77088 5.567 3.42773 7.5 3.42773ZM20.5 4.71345C19.3954 4.71345 18.5 5.48096 18.5 6.42773C18.5 7.37451 19.3954 8.14202 20.5 8.14202C21.6046 8.14202 22.5 7.37451 22.5 6.42773C22.5 5.48096 21.6046 4.71345 20.5 4.71345ZM7.5 4.71345C6.39543 4.71345 5.5 5.48096 5.5 6.42773C5.5 7.37451 6.39543 8.14202 7.5 8.14202C8.60457 8.14202 9.5 7.37451 9.5 6.42773C9.5 5.48096 8.60457 4.71345 7.5 4.71345Z" fill="black"/>
</svg>
