<svg width="24" height="24" viewBox="0 0 24 24" fill="none" xmlns="http://www.w3.org/2000/svg">
<path d="M19 9V17C19 18.8856 19 19.8284 18.4142 20.4142C17.8284 21 16.8856 21 15 21H14H10H9C7.11438 21 6.17157 21 5.58579 20.4142C5 19.8284 5 18.8856 5 17V9" stroke="black" stroke-width="1.2" stroke-linejoin="round"/>
<path d="M3 10.9999L7.5 6.99987L10.6713 4.18096C11.429 3.50739 12.571 3.50739 13.3287 4.18096L16.5 6.99987L21 10.9999" stroke="black" stroke-width="1.2" stroke-linecap="round" stroke-linejoin="round"/>
<path d="M10 21V17C10 15.8954 10.8954 15 12 15C13.1046 15 14 15.8954 14 17V21" stroke="black" stroke-width="1.2" stroke-linecap="round" stroke-linejoin="round"/>
</svg>
