<svg width="24" height="24" viewBox="0 0 24 24" fill="none" xmlns="http://www.w3.org/2000/svg">
<path d="M12 0C5.37281 0 0 5.37281 0 12C0 18.6272 5.37281 24 12 24C18.6272 24 24 18.6272 24 12C24 5.37281 18.6272 0 12 0Z" fill="white"/>
<path d="M12.6825 5.33008C13.4325 5.33208 13.8131 5.33608 14.1418 5.34541L14.2711 5.35008C14.4205 5.35541 14.5678 5.36208 14.7458 5.37008C15.4551 5.40341 15.9391 5.51541 16.3638 5.68008C16.8038 5.84941 17.1745 6.07874 17.5451 6.44874C17.8841 6.78201 18.1464 7.18514 18.3138 7.63008C18.4785 8.05474 18.5905 8.53874 18.6238 9.24874C18.6318 9.42608 18.6385 9.57341 18.6438 9.72341L18.6478 9.85274C18.6578 10.1807 18.6618 10.5614 18.6631 11.3114L18.6638 11.8087V12.6821C18.6654 13.1683 18.6603 13.6546 18.6485 14.1407L18.6445 14.2701C18.6391 14.4201 18.6325 14.5674 18.6245 14.7447C18.5911 15.4547 18.4778 15.9381 18.3138 16.3634C18.1469 16.8086 17.8845 17.2118 17.5451 17.5447C17.2118 17.8836 16.8087 18.1459 16.3638 18.3134C15.9391 18.4781 15.4551 18.5901 14.7458 18.6234C14.5876 18.6309 14.4294 18.6375 14.2711 18.6434L14.1418 18.6474C13.8131 18.6567 13.4325 18.6614 12.6825 18.6627L12.1851 18.6634H11.3125C10.826 18.6651 10.3395 18.66 9.85313 18.6481L9.7238 18.6441C9.56554 18.6381 9.40731 18.6312 9.24913 18.6234C8.5398 18.5901 8.0558 18.4781 7.63046 18.3134C7.18558 18.1463 6.78261 17.884 6.4498 17.5447C6.11049 17.2116 5.84795 16.8085 5.68046 16.3634C5.5158 15.9387 5.4038 15.4547 5.37046 14.7447C5.36304 14.5866 5.35637 14.4283 5.35046 14.2701L5.34713 14.1407C5.33484 13.6546 5.32929 13.1684 5.33046 12.6821V11.3114C5.3286 10.8251 5.33349 10.3389 5.34513 9.85274L5.3498 9.72341C5.35513 9.57341 5.3618 9.42608 5.3698 9.24874C5.40313 8.53874 5.51513 8.05541 5.6798 7.63008C5.84721 7.18468 6.11028 6.78143 6.45046 6.44874C6.78319 6.10973 7.18589 5.8474 7.63046 5.68008C8.0558 5.51541 8.53913 5.40341 9.24913 5.37008C9.42646 5.36208 9.57446 5.35541 9.7238 5.35008L9.85313 5.34608C10.3393 5.33423 10.8255 5.32912 11.3118 5.33074L12.6825 5.33008ZM11.9971 8.66341C11.1131 8.66341 10.2652 9.0146 9.64011 9.63972C9.01499 10.2648 8.6638 11.1127 8.6638 11.9967C8.6638 12.8808 9.01499 13.7286 9.64011 14.3538C10.2652 14.9789 11.1131 15.3301 11.9971 15.3301C12.8812 15.3301 13.729 14.9789 14.3542 14.3538C14.9793 13.7286 15.3305 12.8808 15.3305 11.9967C15.3305 11.1127 14.9793 10.2648 14.3542 9.63972C13.729 9.0146 12.8812 8.66341 11.9971 8.66341ZM11.9971 9.99674C12.2598 9.9967 12.5199 10.0484 12.7625 10.1489C13.0052 10.2493 13.2257 10.3966 13.4114 10.5823C13.5972 10.768 13.7445 10.9884 13.8451 11.2311C13.9456 11.4737 13.9974 11.7338 13.9975 11.9964C13.9975 12.2591 13.9458 12.5191 13.8453 12.7618C13.7449 13.0045 13.5976 13.225 13.4119 13.4107C13.2262 13.5965 13.0058 13.7438 12.7631 13.8444C12.5205 13.9449 12.2604 13.9967 11.9978 13.9967C11.4674 13.9967 10.9587 13.786 10.5836 13.411C10.2085 13.0359 9.9978 12.5272 9.9978 11.9967C9.9978 11.4663 10.2085 10.9576 10.5836 10.5825C10.9587 10.2075 11.4667 9.99674 11.9971 9.99674ZM15.4978 7.66341C15.2768 7.66341 15.0648 7.75121 14.9085 7.90749C14.7523 8.06377 14.6645 8.27573 14.6645 8.49674C14.6645 8.71776 14.7523 8.92972 14.9085 9.086C15.0648 9.24228 15.2768 9.33008 15.4978 9.33008C15.7188 9.33008 15.9308 9.24228 16.0871 9.086C16.2433 8.92972 16.3311 8.71776 16.3311 8.49674C16.3311 8.27573 16.2433 8.06377 16.0871 7.90749C15.9308 7.75121 15.7188 7.66341 15.4978 7.66341Z" fill="#10313E"/>
</svg>
