<svg width="24" height="24" viewBox="0 0 24 24" fill="none" xmlns="http://www.w3.org/2000/svg">
<rect width="24" height="24" rx="12" fill="black" fill-opacity="0.4"/>
<path d="M18 11.25C18.4142 11.25 18.75 11.5858 18.75 12C18.75 12.4142 18.4142 12.75 18 12.75V11.25ZM5.46967 12.5303C5.17678 12.2374 5.17678 11.7626 5.46967 11.4697L10.2426 6.6967C10.5355 6.40381 11.0104 6.40381 11.3033 6.6967C11.5962 6.98959 11.5962 7.46447 11.3033 7.75736L7.06066 12L11.3033 16.2426C11.5962 16.5355 11.5962 17.0104 11.3033 17.3033C11.0104 17.5962 10.5355 17.5962 10.2426 17.3033L5.46967 12.5303ZM18 12.75H6V11.25H18V12.75Z" fill="white"/>
</svg>
