<svg width="340" height="284" viewBox="0 0 340 284" fill="none" xmlns="http://www.w3.org/2000/svg">
<path d="M58.657 44.4909C62.105 45.1406 64.9034 46.4148 67.0521 48.3137C69.2508 50.2126 70.3502 53.061 70.3502 56.8588C70.3502 62.4056 68.3514 66.3283 64.3537 68.627C60.406 70.8757 54.8592 72 47.7133 72H30.998V20.0551H45.6895C52.9853 20.0551 58.557 21.1045 62.4048 23.2033C66.2526 25.2521 68.1765 28.6251 68.1765 33.3224C68.1765 36.3706 67.252 38.8442 65.4031 40.7431C63.6041 42.592 61.3554 43.8413 58.657 44.4909ZM43.2909 28.7501V40.8181H47.8632C53.0602 40.8181 55.6587 38.7193 55.6587 34.5217C55.6587 32.4229 54.9591 30.9488 53.5599 30.0993C52.1607 29.1998 49.937 28.7501 46.8888 28.7501H43.2909ZM47.7883 63.0802C51.0364 63.0802 53.485 62.6054 55.134 61.656C56.833 60.6566 57.6825 58.8326 57.6825 56.1842C57.6825 51.3869 54.6843 48.9883 48.6878 48.9883H43.2909V63.0802H47.7883ZM98.6229 31.0737C100.072 31.0737 101.396 31.2486 102.596 31.5984L100.722 43.0668C99.2225 42.717 98.0232 42.5421 97.1238 42.5421C94.7751 42.5421 92.9762 43.3666 91.7269 45.0156C90.5276 46.6147 89.5781 49.0383 88.8785 52.2864V72H77.0354V32.1981H87.3794L88.3538 39.9186C89.2533 37.1702 90.6025 35.0214 92.4015 33.4723C94.2504 31.8732 96.3242 31.0737 98.6229 31.0737ZM118.964 32.1981V72H107.121V32.1981H118.964ZM112.967 11.2102C115.016 11.2102 116.69 11.8598 117.989 13.1591C119.338 14.4084 120.013 16.0074 120.013 17.9563C120.013 19.9052 119.338 21.5292 117.989 22.8285C116.69 24.0778 115.016 24.7024 112.967 24.7024C110.918 24.7024 109.244 24.0778 107.945 22.8285C106.646 21.5292 105.996 19.9052 105.996 17.9563C105.996 16.0074 106.646 14.4084 107.945 13.1591C109.244 11.8598 110.918 11.2102 112.967 11.2102ZM151.587 30.9238C155.035 30.9238 157.733 31.9732 159.682 34.072C161.631 36.1708 162.605 39.119 162.605 42.9168V72H150.762V44.9407C150.762 42.9418 150.437 41.5676 149.788 40.8181C149.188 40.0185 148.264 39.6188 147.014 39.6188C144.616 39.6188 142.317 41.3428 140.118 44.7908V72H128.275V32.1981H138.619L139.444 36.9203C141.143 34.9215 142.967 33.4223 144.916 32.4229C146.914 31.4235 149.138 30.9238 151.587 30.9238ZM208.19 34.5217C205.592 35.5711 201.769 36.0958 196.722 36.0958C199.32 37.1952 201.219 38.5444 202.418 40.1435C203.618 41.7425 204.217 43.8163 204.217 46.3648C204.217 48.9134 203.543 51.212 202.194 53.2609C200.844 55.2597 198.895 56.8338 196.347 57.9831C193.848 59.1325 190.9 59.7071 187.502 59.7071C185.903 59.7071 184.379 59.5572 182.93 59.2574C182.53 59.4573 182.205 59.7821 181.955 60.2318C181.755 60.6316 181.655 61.0563 181.655 61.5061C181.655 62.2556 181.93 62.8553 182.48 63.305C183.08 63.7048 184.254 63.9047 186.003 63.9047H191.999C195.048 63.9047 197.721 64.4044 200.02 65.4038C202.318 66.4032 204.092 67.7774 205.342 69.5264C206.591 71.2754 207.216 73.2493 207.216 75.448C207.216 79.5956 205.417 82.8187 201.819 85.1174C198.271 87.466 193.124 88.6404 186.378 88.6404C181.531 88.6404 177.708 88.1157 174.909 87.0663C172.111 86.0669 170.137 84.6427 168.988 82.7937C167.888 80.9448 167.339 78.6212 167.339 75.8228H177.983C177.983 77.0221 178.207 77.9715 178.657 78.6711C179.157 79.3707 180.031 79.8954 181.281 80.2452C182.53 80.595 184.329 80.7699 186.678 80.7699C189.926 80.7699 192.174 80.3702 193.424 79.5706C194.673 78.821 195.298 77.7217 195.298 76.2725C195.298 75.0732 194.823 74.1238 193.873 73.4242C192.924 72.7246 191.5 72.3748 189.601 72.3748H183.829C179.732 72.3748 176.658 71.6502 174.61 70.201C172.611 68.7019 171.611 66.803 171.611 64.5043C171.611 63.0552 172.036 61.656 172.886 60.3068C173.735 58.9076 174.884 57.7582 176.334 56.8588C173.835 55.5096 172.011 53.9355 170.862 52.1365C169.762 50.2876 169.213 48.0639 169.213 45.4654C169.213 41.0179 170.812 37.495 174.01 34.8965C177.208 32.248 181.431 30.9238 186.678 30.9238C190.675 31.0237 194.048 30.624 196.797 29.7245C199.595 28.825 202.468 27.5008 205.417 25.7518L208.19 34.5217ZM186.977 38.7193C185.128 38.7193 183.654 39.3189 182.555 40.5182C181.506 41.6676 180.981 43.2666 180.981 45.3155C180.981 47.4642 181.506 49.1382 182.555 50.3375C183.654 51.4869 185.128 52.0615 186.977 52.0615C188.926 52.0615 190.4 51.4869 191.4 50.3375C192.449 49.1882 192.974 47.4642 192.974 45.1655C192.974 40.868 190.975 38.7193 186.977 38.7193ZM224.664 32.1981V72H212.821V32.1981H224.664ZM218.668 11.2102C220.716 11.2102 222.39 11.8598 223.69 13.1591C225.039 14.4084 225.714 16.0074 225.714 17.9563C225.714 19.9052 225.039 21.5292 223.69 22.8285C222.39 24.0778 220.716 24.7024 218.668 24.7024C216.619 24.7024 214.945 24.0778 213.646 22.8285C212.346 21.5292 211.697 19.9052 211.697 17.9563C211.697 16.0074 212.346 14.4084 213.646 13.1591C214.945 11.8598 216.619 11.2102 218.668 11.2102ZM257.287 30.9238C260.735 30.9238 263.434 31.9732 265.383 34.072C267.331 36.1708 268.306 39.119 268.306 42.9168V72H256.463V44.9407C256.463 42.9418 256.138 41.5676 255.488 40.8181C254.889 40.0185 253.964 39.6188 252.715 39.6188C250.316 39.6188 248.018 41.3428 245.819 44.7908V72H233.976V32.1981H244.32L245.144 36.9203C246.843 34.9215 248.667 33.4223 250.616 32.4229C252.615 31.4235 254.839 30.9238 257.287 30.9238ZM313.891 34.5217C311.292 35.5711 307.469 36.0958 302.422 36.0958C305.021 37.1952 306.92 38.5444 308.119 40.1435C309.318 41.7425 309.918 43.8163 309.918 46.3648C309.918 48.9134 309.243 51.212 307.894 53.2609C306.545 55.2597 304.596 56.8338 302.047 57.9831C299.549 59.1325 296.601 59.7071 293.203 59.7071C291.603 59.7071 290.079 59.5572 288.63 59.2574C288.23 59.4573 287.906 59.7821 287.656 60.2318C287.456 60.6316 287.356 61.0563 287.356 61.5061C287.356 62.2556 287.631 62.8553 288.18 63.305C288.78 63.7048 289.954 63.9047 291.703 63.9047H297.7C300.748 63.9047 303.422 64.4044 305.72 65.4038C308.019 66.4032 309.793 67.7774 311.042 69.5264C312.292 71.2754 312.916 73.2493 312.916 75.448C312.916 79.5956 311.117 82.8187 307.519 85.1174C303.971 87.466 298.824 88.6404 292.078 88.6404C287.231 88.6404 283.408 88.1157 280.61 87.0663C277.811 86.0669 275.838 84.6427 274.688 82.7937C273.589 80.9448 273.039 78.6212 273.039 75.8228H283.683C283.683 77.0221 283.908 77.9715 284.358 78.6711C284.857 79.3707 285.732 79.8954 286.981 80.2452C288.23 80.595 290.029 80.7699 292.378 80.7699C295.626 80.7699 297.875 80.3702 299.124 79.5706C300.373 78.821 300.998 77.7217 300.998 76.2725C300.998 75.0732 300.523 74.1238 299.574 73.4242C298.624 72.7246 297.2 72.3748 295.301 72.3748H289.53C285.432 72.3748 282.359 71.6502 280.31 70.201C278.311 68.7019 277.312 66.803 277.312 64.5043C277.312 63.0552 277.737 61.656 278.586 60.3068C279.436 58.9076 280.585 57.7582 282.034 56.8588C279.535 55.5096 277.712 53.9355 276.562 52.1365C275.463 50.2876 274.913 48.0639 274.913 45.4654C274.913 41.0179 276.512 37.495 279.71 34.8965C282.909 32.248 287.131 30.9238 292.378 30.9238C296.376 31.0237 299.749 30.624 302.497 29.7245C305.296 28.825 308.169 27.5008 311.117 25.7518L313.891 34.5217ZM292.678 38.7193C290.829 38.7193 289.355 39.3189 288.255 40.5182C287.206 41.6676 286.681 43.2666 286.681 45.3155C286.681 47.4642 287.206 49.1382 288.255 50.3375C289.355 51.4869 290.829 52.0615 292.678 52.0615C294.627 52.0615 296.101 51.4869 297.1 50.3375C298.15 49.1882 298.674 47.4642 298.674 45.1655C298.674 40.868 296.676 38.7193 292.678 38.7193Z" fill="white"/>
<g filter="url(#filter0_dd_1407_11482)">
<path d="M68.2227 103.845C68.2227 101.493 70.1294 99.5862 72.4816 99.5862H246.223C260.335 99.5862 271.776 111.027 271.776 125.14V152.033C271.776 166.146 260.335 177.586 246.223 177.586H93.776C79.6633 177.586 68.2227 166.146 68.2227 152.033V103.845Z" fill="black" shape-rendering="crispEdges"/>
<path d="M72.4814 100.012H246.223C260.1 100.012 271.351 111.262 271.351 125.14V152.032C271.351 165.91 260.1 177.16 246.223 177.16H93.7764C79.8988 177.16 68.6484 165.91 68.6484 152.032V103.845C68.6485 101.728 70.3646 100.012 72.4814 100.012Z" stroke="url(#paint0_linear_1407_11482)" stroke-width="0.851779" shape-rendering="crispEdges"/>
<path d="M100.221 160.445C97.2771 160.445 94.5991 159.791 92.1868 158.482C89.8155 157.133 87.9143 155.191 86.4833 152.656C85.0932 150.08 84.3982 146.953 84.3982 143.273V132.97C84.3982 127.45 85.9518 123.219 89.0591 120.275C92.1664 117.29 96.3776 115.798 101.693 115.798C106.967 115.798 111.035 117.208 113.897 120.03C116.8 122.81 118.251 126.592 118.251 131.375V131.621H110.279V131.13C110.279 129.617 109.952 128.248 109.297 127.021C108.684 125.794 107.744 124.834 106.476 124.139C105.209 123.403 103.614 123.035 101.693 123.035C98.8307 123.035 96.582 123.914 94.9466 125.672C93.3112 127.43 92.4935 129.822 92.4935 132.847V143.396C92.4935 146.38 93.3112 148.792 94.9466 150.632C96.582 152.431 98.8716 153.331 101.815 153.331C104.759 153.331 106.906 152.554 108.255 151C109.604 149.447 110.279 147.484 110.279 145.113V144.499H100.098V137.631H118.251V159.586H110.769V155.477H109.665C109.379 156.172 108.909 156.908 108.255 157.685C107.642 158.462 106.701 159.116 105.434 159.648C104.166 160.179 102.429 160.445 100.221 160.445ZM140.091 160.445C137.065 160.445 134.387 159.811 132.057 158.544C129.767 157.235 127.968 155.416 126.66 153.085C125.393 150.714 124.759 147.934 124.759 144.745V144.009C124.759 140.82 125.393 138.06 126.66 135.73C127.927 133.358 129.706 131.539 131.996 130.271C134.285 128.963 136.943 128.309 139.968 128.309C142.953 128.309 145.549 128.983 147.757 130.333C149.965 131.641 151.682 133.481 152.908 135.852C154.135 138.183 154.748 140.902 154.748 144.009V146.646H132.609C132.691 148.731 133.467 150.428 134.939 151.736C136.411 153.045 138.21 153.699 140.336 153.699C142.503 153.699 144.098 153.229 145.12 152.288C146.142 151.348 146.919 150.305 147.45 149.16L153.767 152.472C153.195 153.535 152.356 154.7 151.253 155.968C150.19 157.194 148.759 158.257 146.96 159.157C145.161 160.015 142.871 160.445 140.091 160.445ZM132.67 140.881H146.898C146.735 139.123 146.019 137.712 144.752 136.649C143.525 135.586 141.91 135.055 139.907 135.055C137.822 135.055 136.166 135.586 134.939 136.649C133.713 137.712 132.956 139.123 132.67 140.881ZM175.486 160.445C172.461 160.445 169.783 159.811 167.452 158.544C165.163 157.235 163.364 155.416 162.055 153.085C160.788 150.714 160.154 147.934 160.154 144.745V144.009C160.154 140.82 160.788 138.06 162.055 135.73C163.323 133.358 165.101 131.539 167.391 130.271C169.681 128.963 172.338 128.309 175.364 128.309C178.348 128.309 180.944 128.983 183.152 130.333C185.36 131.641 187.077 133.481 188.304 135.852C189.53 138.183 190.144 140.902 190.144 144.009V146.646H168.004C168.086 148.731 168.863 150.428 170.335 151.736C171.807 153.045 173.606 153.699 175.732 153.699C177.898 153.699 179.493 153.229 180.515 152.288C181.537 151.348 182.314 150.305 182.846 149.16L189.162 152.472C188.59 153.535 187.752 154.7 186.648 155.968C185.585 157.194 184.154 158.257 182.355 159.157C180.556 160.015 178.266 160.445 175.486 160.445ZM168.066 140.881H182.294C182.13 139.123 181.415 137.712 180.147 136.649C178.921 135.586 177.306 135.055 175.302 135.055C173.217 135.055 171.561 135.586 170.335 136.649C169.108 137.712 168.352 139.123 168.066 140.881ZM197.022 159.586V116.656H204.749V140.39H205.853L215.911 129.167H225.968L211.924 143.886L226.459 159.586H216.524L205.853 147.505H204.749V159.586H197.022ZM243.433 160.445C239.468 160.445 236.217 159.586 233.682 157.869C231.147 156.152 229.614 153.699 229.083 150.51L236.197 148.67C236.483 150.101 236.953 151.225 237.607 152.043C238.302 152.861 239.141 153.453 240.122 153.821C241.144 154.148 242.248 154.312 243.433 154.312C245.232 154.312 246.561 154.005 247.42 153.392C248.278 152.738 248.708 151.941 248.708 151C248.708 150.06 248.299 149.344 247.481 148.854C246.663 148.322 245.355 147.893 243.556 147.566L241.839 147.259C239.713 146.85 237.771 146.298 236.013 145.603C234.255 144.867 232.844 143.866 231.781 142.598C230.718 141.331 230.187 139.695 230.187 137.692C230.187 134.667 231.291 132.356 233.498 130.762C235.706 129.127 238.609 128.309 242.207 128.309C245.6 128.309 248.421 129.065 250.67 130.578C252.919 132.091 254.391 134.074 255.086 136.527L247.91 138.735C247.583 137.181 246.909 136.077 245.887 135.423C244.905 134.769 243.679 134.442 242.207 134.442C240.735 134.442 239.611 134.707 238.834 135.239C238.057 135.73 237.669 136.425 237.669 137.324C237.669 138.305 238.077 139.041 238.895 139.532C239.713 139.982 240.817 140.329 242.207 140.574L243.924 140.881C246.214 141.29 248.278 141.842 250.118 142.537C251.999 143.191 253.471 144.152 254.534 145.419C255.638 146.646 256.19 148.322 256.19 150.448C256.19 153.637 255.024 156.111 252.694 157.869C250.404 159.586 247.318 160.445 243.433 160.445Z" fill="white"/>
</g>
<path fill-rule="evenodd" clip-rule="evenodd" d="M181.849 12.5685C182.555 9.70486 182.509 6.94719 182.593 4.04257C182.61 3.47531 182.163 3.0037 181.596 2.98662C181.029 2.96953 180.556 3.4172 180.539 3.98446C180.459 6.73873 180.524 9.3597 179.854 12.0798C179.718 12.63 180.056 13.187 180.606 13.3202C181.157 13.4569 181.714 13.1187 181.849 12.5685Z" fill="white"/>
<path fill-rule="evenodd" clip-rule="evenodd" d="M187.847 18.1192C192.635 13.752 197.147 8.13416 200.301 2.46159C200.576 1.9661 200.397 1.34072 199.901 1.06735C199.405 0.79397 198.779 0.97168 198.504 1.46717C195.454 6.95179 191.091 12.3852 186.46 16.6054C186.042 16.9881 186.013 17.6374 186.395 18.0543C186.778 18.4712 187.428 18.5019 187.847 18.1192Z" fill="white"/>
<path fill-rule="evenodd" clip-rule="evenodd" d="M189.059 22.8886C193.439 23.6097 197.953 22.3795 201.935 20.6401C202.455 20.4112 202.692 19.8063 202.465 19.2903C202.237 18.7709 201.631 18.5351 201.111 18.7607C197.484 20.3462 193.382 21.5218 189.393 20.8657C188.834 20.7734 188.305 21.1527 188.213 21.7097C188.12 22.2667 188.5 22.7964 189.059 22.8886Z" fill="white"/>
<path d="M12 215.236C12 208.801 12 205.584 13.999 203.585C15.998 201.586 19.2153 201.586 25.65 201.586H327.997V276.661H25.65C19.2153 276.661 15.998 276.661 13.999 274.662C12 272.663 12 269.446 12 263.011V215.236Z" fill="#FDBE3E" fill-opacity="0.2"/>
<path d="M80.9596 217.33L79.9986 224.898H69.7284V258.952H59.8786V224.898H49.1279V217.33H80.9596ZM95.2749 226.039C100.16 226.039 103.984 227.54 106.746 230.543C109.509 233.506 110.891 237.67 110.891 243.036C110.891 246.439 110.25 249.422 108.969 251.985C107.727 254.507 105.926 256.469 103.563 257.871C101.241 259.272 98.4781 259.973 95.2749 259.973C90.4301 259.973 86.6063 258.491 83.8035 255.528C81.0408 252.525 79.6594 248.341 79.6594 242.976C79.6594 239.572 80.28 236.609 81.5212 234.087C82.8025 231.524 84.6043 229.542 86.9266 228.141C89.289 226.74 92.0718 226.039 95.2749 226.039ZM95.2749 233.006C93.353 233.006 91.9116 233.827 90.9506 235.468C89.9897 237.07 89.5092 239.572 89.5092 242.976C89.5092 246.459 89.9697 249.002 90.8906 250.603C91.8515 252.205 93.313 253.006 95.2749 253.006C97.1969 253.006 98.6383 252.205 99.5993 250.603C100.56 248.962 101.041 246.439 101.041 243.036C101.041 239.552 100.56 237.01 99.5993 235.408C98.6783 233.807 97.2369 233.006 95.2749 233.006ZM145.904 228.922C143.822 229.763 140.759 230.183 136.715 230.183C138.797 231.064 140.319 232.145 141.28 233.426C142.241 234.708 142.721 236.369 142.721 238.411C142.721 240.453 142.181 242.295 141.1 243.937C140.019 245.538 138.457 246.8 136.415 247.72C134.413 248.641 132.051 249.102 129.328 249.102C128.047 249.102 126.825 248.982 125.664 248.741C125.344 248.902 125.084 249.162 124.884 249.522C124.723 249.843 124.643 250.183 124.643 250.543C124.643 251.144 124.863 251.624 125.304 251.985C125.784 252.305 126.725 252.465 128.127 252.465H132.932C135.374 252.465 137.516 252.866 139.358 253.666C141.2 254.467 142.621 255.568 143.622 256.97C144.623 258.371 145.124 259.953 145.124 261.714C145.124 265.038 143.682 267.62 140.799 269.462C137.957 271.344 133.832 272.285 128.427 272.285C124.543 272.285 121.48 271.865 119.238 271.024C116.996 270.223 115.414 269.082 114.493 267.6C113.612 266.119 113.172 264.257 113.172 262.015H121.7C121.7 262.976 121.881 263.736 122.241 264.297C122.641 264.858 123.342 265.278 124.343 265.558C125.344 265.839 126.785 265.979 128.667 265.979C131.27 265.979 133.072 265.658 134.073 265.018C135.074 264.417 135.574 263.536 135.574 262.375C135.574 261.414 135.194 260.653 134.433 260.093C133.672 259.532 132.531 259.252 131.01 259.252H126.385C123.102 259.252 120.639 258.671 118.998 257.51C117.396 256.309 116.595 254.788 116.595 252.946C116.595 251.785 116.936 250.663 117.616 249.582C118.297 248.461 119.218 247.54 120.379 246.82C118.377 245.738 116.916 244.477 115.995 243.036C115.114 241.554 114.673 239.773 114.673 237.69C114.673 234.127 115.955 231.304 118.517 229.222C121.08 227.1 124.463 226.039 128.667 226.039C131.87 226.119 134.573 225.799 136.775 225.078C139.018 224.357 141.32 223.296 143.682 221.895L145.904 228.922ZM128.908 232.285C127.426 232.285 126.245 232.766 125.364 233.727C124.523 234.647 124.103 235.929 124.103 237.57C124.103 239.292 124.523 240.633 125.364 241.594C126.245 242.515 127.426 242.976 128.908 242.976C130.469 242.976 131.65 242.515 132.451 241.594C133.292 240.673 133.712 239.292 133.712 237.45C133.712 234.007 132.111 232.285 128.908 232.285ZM176.074 242.375C176.074 243.696 176.014 244.838 175.894 245.799H156.134C156.454 248.481 157.215 250.363 158.416 251.444C159.617 252.525 161.279 253.066 163.401 253.066C164.682 253.066 165.924 252.846 167.125 252.405C168.326 251.925 169.627 251.204 171.029 250.243L174.933 255.528C171.209 258.491 167.065 259.973 162.5 259.973C157.335 259.973 153.371 258.451 150.608 255.408C147.846 252.365 146.464 248.281 146.464 243.156C146.464 239.913 147.045 237.01 148.206 234.447C149.367 231.845 151.069 229.803 153.311 228.321C155.553 226.8 158.236 226.039 161.359 226.039C165.964 226.039 169.567 227.48 172.17 230.363C174.772 233.246 176.074 237.25 176.074 242.375ZM166.764 239.672C166.684 234.788 164.963 232.345 161.599 232.345C159.958 232.345 158.676 232.946 157.755 234.147C156.875 235.348 156.334 237.33 156.134 240.093H166.764V239.672ZM201.404 257.45C200.243 258.251 198.882 258.872 197.32 259.312C195.799 259.752 194.277 259.973 192.756 259.973C185.789 259.933 182.305 256.089 182.305 248.441V233.666H177.801V227.06H182.305V220.153L191.795 219.072V227.06H199.122L198.101 233.666H191.795V248.321C191.795 249.803 192.035 250.864 192.516 251.504C192.996 252.145 193.757 252.465 194.798 252.465C195.879 252.465 197.02 252.125 198.221 251.444L201.404 257.45ZM223.251 226.039C226.014 226.039 228.176 226.88 229.737 228.561C231.299 230.243 232.08 232.605 232.08 235.648V258.952H222.59V237.27C222.59 235.668 222.33 234.567 221.809 233.967C221.289 233.326 220.548 233.006 219.587 233.006C217.665 233.006 215.823 234.367 214.062 237.09V258.952H204.572V214.387L214.062 213.426V230.483C215.383 229.002 216.784 227.901 218.266 227.18C219.747 226.419 221.409 226.039 223.251 226.039ZM267.043 242.375C267.043 243.696 266.983 244.838 266.863 245.799H247.103C247.424 248.481 248.184 250.363 249.386 251.444C250.587 252.525 252.249 253.066 254.371 253.066C255.652 253.066 256.893 252.846 258.094 252.405C259.296 251.925 260.597 251.204 261.998 250.243L265.902 255.528C262.178 258.491 258.034 259.973 253.47 259.973C248.305 259.973 244.341 258.451 241.578 255.408C238.815 252.365 237.434 248.281 237.434 243.156C237.434 239.913 238.014 237.01 239.176 234.447C240.337 231.845 242.038 229.803 244.281 228.321C246.523 226.8 249.206 226.039 252.329 226.039C256.933 226.039 260.537 227.48 263.139 230.363C265.742 233.246 267.043 237.25 267.043 242.375ZM257.734 239.672C257.654 234.788 255.932 232.345 252.569 232.345C250.927 232.345 249.646 232.946 248.725 234.147C247.844 235.348 247.304 237.33 247.103 240.093H257.734V239.672ZM289.671 226.159C290.832 226.159 291.894 226.299 292.854 226.579L291.353 235.769C290.152 235.488 289.191 235.348 288.47 235.348C286.588 235.348 285.147 236.009 284.146 237.33C283.185 238.611 282.424 240.553 281.864 243.156V258.952H272.374V227.06H280.662L281.443 233.246C282.164 231.044 283.245 229.322 284.686 228.081C286.168 226.8 287.829 226.159 289.671 226.159Z" fill="white"/>
<ellipse cx="95.3448" cy="242.942" rx="6.90342" ry="10.4422" fill="#272934"/>
<path d="M93.3359 244.25C93.3 244.88 93.482 246.311 94.4965 246.997C95.7645 247.855 97.8116 246.88 97.5369 243.461" stroke="white" stroke-width="0.136211"/>
<path d="M91.4933 244.847C91.4265 246.021 91.7656 248.688 93.6561 249.967C96.0194 251.565 99.8342 249.749 99.3223 243.377" stroke="white" stroke-width="0.136211"/>
<path d="M99.3351 239.924C99.3245 239.555 99.1478 238.746 98.5258 238.464C97.7484 238.112 96.6109 238.91 96.9403 240.86" stroke="white" stroke-width="0.136211"/>
<path d="M96.6333 239.871C96.655 239.489 96.5447 238.622 95.93 238.206C95.1616 237.686 93.9212 238.277 94.0877 240.349" stroke="white" stroke-width="0.136211"/>
<path d="M94.0866 242.125C94.1758 241.753 94.2191 240.843 93.6791 240.18C93.0042 239.35 91.6619 239.438 91.4618 241.573" stroke="white" stroke-width="0.136211"/>
<path d="M94.3263 238.23C94.2824 238 94.0898 237.533 93.6704 237.499C93.1462 237.457 92.5118 238.222 92.9157 239.371" stroke="white" stroke-width="0.136211"/>
<path d="M96.0887 237.87C96.0684 237.633 96.1219 237.088 96.4976 236.805C96.9672 236.45 97.7505 236.768 97.6832 238.066" stroke="white" stroke-width="0.136211"/>
<path d="M91.4727 244.592V241.747" stroke="white" stroke-width="0.136211"/>
<path d="M99.3438 243.096V240.251" stroke="white" stroke-width="0.136211"/>
<path d="M95.7664 237.373C95.766 237.182 95.686 236.76 95.3693 236.595C94.9733 236.389 94.376 236.764 94.5191 237.78" stroke="white" stroke-width="0.136211"/>
<path d="M99.6494 245.137C99.7745 245.159 100.061 245.088 100.206 244.631C100.388 244.06 100.211 243.119 99.5275 243.216" stroke="white" stroke-width="0.136211"/>
<path d="M91.1866 245.119C91.0628 245.154 90.7735 245.114 90.6072 244.674C90.3992 244.124 90.5314 243.166 91.2176 243.189" stroke="white" stroke-width="0.136211"/>
<path d="M94.8675 242.092C94.7518 242.082 94.6336 242.124 94.5191 242.22C94.4043 242.316 94.2953 242.463 94.1999 242.653C94.009 243.033 93.8777 243.575 93.8542 244.188C93.8307 244.801 93.9197 245.363 94.0804 245.775C94.1606 245.98 94.2576 246.145 94.3643 246.261C94.4708 246.376 94.585 246.439 94.7007 246.449C94.8162 246.459 94.9337 246.417 95.0481 246.322C95.163 246.226 95.2719 246.079 95.3673 245.889C95.5583 245.508 95.6896 244.966 95.7131 244.353C95.7365 243.74 95.6474 243.178 95.4868 242.767C95.4066 242.561 95.3096 242.396 95.2029 242.281C95.0965 242.166 94.9831 242.103 94.8675 242.092Z" fill="white" stroke="white" stroke-width="0.136211"/>
<path d="M94.9253 243.142C94.8204 243.132 94.6988 243.22 94.5953 243.425C94.4949 243.623 94.4245 243.909 94.4121 244.233C94.3997 244.557 94.4479 244.852 94.5324 245.067C94.6195 245.289 94.7336 245.397 94.8385 245.406C94.9434 245.416 95.0651 245.328 95.1686 245.123C95.2688 244.925 95.3383 244.64 95.3508 244.316C95.3632 243.992 95.3159 243.696 95.2314 243.481C95.1443 243.26 95.0301 243.151 94.9253 243.142Z" fill="white" stroke="white" stroke-width="0.136211"/>
<path d="M96.3089 242.077C96.1932 242.066 96.075 242.109 95.9605 242.204C95.8457 242.3 95.7367 242.447 95.6413 242.637C95.4504 243.017 95.3191 243.559 95.2956 244.172C95.2721 244.785 95.3612 245.347 95.5218 245.759C95.602 245.965 95.699 246.13 95.8057 246.245C95.9122 246.36 96.0264 246.423 96.1421 246.434C96.2576 246.444 96.3751 246.401 96.4896 246.306C96.6044 246.21 96.7133 246.063 96.8087 245.873C96.9997 245.493 97.131 244.95 97.1545 244.337C97.1779 243.724 97.0888 243.163 96.9282 242.751C96.848 242.546 96.751 242.38 96.6443 242.265C96.5379 242.15 96.4245 242.087 96.3089 242.077Z" fill="white" stroke="white" stroke-width="0.136211"/>
<path d="M96.3667 243.126C96.2618 243.117 96.1402 243.204 96.0367 243.409C95.9363 243.607 95.8659 243.893 95.8535 244.217C95.8411 244.541 95.8893 244.837 95.9738 245.051C96.061 245.273 96.1751 245.382 96.2799 245.391C96.3848 245.4 96.5065 245.312 96.61 245.108C96.7102 244.909 96.7797 244.624 96.7922 244.3C96.8046 243.976 96.7573 243.68 96.6728 243.465C96.5857 243.244 96.4715 243.135 96.3667 243.126Z" fill="white" stroke="white" stroke-width="0.136211"/>
<line x1="326.292" y1="196.775" x2="326.292" y2="283.609" stroke="#FDBE3E" stroke-width="3.41249"/>
<defs>
<filter id="filter0_dd_1407_11482" x="59.7049" y="91.0684" width="222.294" height="96.7391" filterUnits="userSpaceOnUse" color-interpolation-filters="sRGB">
<feFlood flood-opacity="0" result="BackgroundImageFix"/>
<feColorMatrix in="SourceAlpha" type="matrix" values="0 0 0 0 0 0 0 0 0 0 0 0 0 0 0 0 0 0 127 0" result="hardAlpha"/>
<feOffset dy="1.70356"/>
<feGaussianBlur stdDeviation="4.2589"/>
<feComposite in2="hardAlpha" operator="out"/>
<feColorMatrix type="matrix" values="0 0 0 0 0.9375 0 0 0 0 0.574219 0 0 0 0 0.574219 0 0 0 1 0"/>
<feBlend mode="normal" in2="BackgroundImageFix" result="effect1_dropShadow_1407_11482"/>
<feColorMatrix in="SourceAlpha" type="matrix" values="0 0 0 0 0 0 0 0 0 0 0 0 0 0 0 0 0 0 127 0" result="hardAlpha"/>
<feOffset dx="1.70356"/>
<feGaussianBlur stdDeviation="4.2589"/>
<feComposite in2="hardAlpha" operator="out"/>
<feColorMatrix type="matrix" values="0 0 0 0 0.487985 0 0 0 0 0.53827 0 0 0 0 0.990833 0 0 0 1 0"/>
<feBlend mode="normal" in2="effect1_dropShadow_1407_11482" result="effect2_dropShadow_1407_11482"/>
<feBlend mode="normal" in="SourceGraphic" in2="effect2_dropShadow_1407_11482" result="shape"/>
</filter>
<linearGradient id="paint0_linear_1407_11482" x1="73.494" y1="105.862" x2="268.537" y2="165.667" gradientUnits="userSpaceOnUse">
<stop stop-color="#E88484"/>
<stop offset="1" stop-color="#656DE1"/>
</linearGradient>
</defs>
</svg>
