<svg width="960" height="315" viewBox="0 0 960 315" fill="none" xmlns="http://www.w3.org/2000/svg">
<path d="M137.059 66.4717C142.139 67.4288 146.262 69.3061 149.428 72.1037C152.667 74.9013 154.286 79.0977 154.286 84.6929C154.286 92.8648 151.342 98.644 145.452 102.031C139.636 105.344 131.464 107 120.936 107H96.31V30.4711H117.955C128.703 30.4711 136.912 32.0171 142.581 35.1092C148.25 38.1276 151.084 43.097 151.084 50.0174C151.084 54.5083 149.722 58.1525 146.998 60.9501C144.348 63.6741 141.035 65.5146 137.059 66.4717ZM114.421 43.2811V61.0606H121.157C128.814 61.0606 132.642 57.9685 132.642 51.7843C132.642 48.6922 131.611 46.5204 129.55 45.2689C127.488 43.9437 124.212 43.2811 119.721 43.2811H114.421ZM121.047 93.8587C125.832 93.8587 129.439 93.1593 131.869 91.7605C134.372 90.2881 135.624 87.6009 135.624 83.699C135.624 76.6314 131.206 73.0976 122.372 73.0976H114.421V93.8587H121.047ZM195.94 46.7045C198.075 46.7045 200.026 46.9621 201.793 47.4775L199.032 64.3735C196.823 63.8581 195.056 63.6005 193.731 63.6005C190.271 63.6005 187.621 64.8152 185.78 67.2447C184.013 69.6006 182.614 73.1712 181.584 77.9565V107H164.136V48.3609H179.375L180.811 59.7354C182.136 55.6862 184.124 52.5205 186.774 50.2383C189.498 47.8824 192.553 46.7045 195.94 46.7045ZM225.907 48.3609V107H208.459V48.3609H225.907ZM217.073 17.4402C220.091 17.4402 222.558 18.3972 224.472 20.3114C226.459 22.1519 227.453 24.5078 227.453 27.379C227.453 30.2502 226.459 32.6429 224.472 34.557C222.558 36.3975 220.091 37.3178 217.073 37.3178C214.054 37.3178 211.588 36.3975 209.674 34.557C207.76 32.6429 206.803 30.2502 206.803 27.379C206.803 24.5078 207.76 22.1519 209.674 20.3114C211.588 18.3972 214.054 17.4402 217.073 17.4402ZM273.97 46.4836C279.05 46.4836 283.025 48.0296 285.897 51.1217C288.768 54.2138 290.203 58.5574 290.203 64.1526V107H272.755V67.1343C272.755 64.1894 272.277 62.1649 271.32 61.0606C270.436 59.8826 269.074 59.2936 267.234 59.2936C263.7 59.2936 260.313 61.8336 257.074 66.9134V107H239.626V48.3609H254.865L256.08 55.3181C258.583 52.3733 261.27 50.1647 264.142 48.6922C267.086 47.2198 270.363 46.4836 273.97 46.4836ZM357.362 51.7843C353.534 53.3304 347.902 54.1034 340.466 54.1034C344.294 55.723 347.092 57.7108 348.859 60.0667C350.626 62.4225 351.509 65.4778 351.509 69.2325C351.509 72.9871 350.515 76.3737 348.528 79.3922C346.54 82.337 343.669 84.6561 339.914 86.3493C336.233 88.0426 331.889 88.8893 326.883 88.8893C324.527 88.8893 322.282 88.6684 320.147 88.2267C319.558 88.5212 319.079 88.9997 318.711 89.6623C318.417 90.2512 318.269 90.877 318.269 91.5396C318.269 92.6439 318.674 93.5274 319.484 94.19C320.368 94.7789 322.098 95.0734 324.674 95.0734H333.509C338 95.0734 341.938 95.8096 345.325 97.282C348.712 98.7545 351.325 100.779 353.166 103.356C355.006 105.932 355.926 108.841 355.926 112.08C355.926 118.19 353.276 122.939 347.975 126.325C342.748 129.786 335.165 131.516 325.226 131.516C318.085 131.516 312.453 130.743 308.33 129.197C304.208 127.724 301.3 125.626 299.606 122.902C297.987 120.178 297.177 116.755 297.177 112.632H312.858C312.858 114.399 313.189 115.798 313.852 116.828C314.588 117.859 315.877 118.632 317.717 119.147C319.558 119.663 322.208 119.92 325.668 119.92C330.454 119.92 333.767 119.332 335.607 118.154C337.448 117.049 338.368 115.43 338.368 113.295C338.368 111.528 337.668 110.129 336.27 109.098C334.871 108.068 332.773 107.552 329.975 107.552H321.472C315.435 107.552 310.907 106.485 307.889 104.35C304.944 102.141 303.472 99.3434 303.472 95.9569C303.472 93.8219 304.097 91.7605 305.349 89.7727C306.6 87.7113 308.294 86.018 310.429 84.6929C306.748 82.7051 304.06 80.386 302.367 77.7357C300.748 75.0117 299.938 71.7356 299.938 67.9073C299.938 61.355 302.294 56.1648 307.005 52.3365C311.717 48.4346 317.938 46.4836 325.668 46.4836C331.558 46.6309 336.527 46.0419 340.576 44.7167C344.699 43.3915 348.932 41.4406 353.276 38.8638L357.362 51.7843ZM326.11 57.9685C323.386 57.9685 321.214 58.8519 319.594 60.6188C318.048 62.3121 317.275 64.668 317.275 67.6864C317.275 70.8521 318.048 73.3184 319.594 75.0853C321.214 76.7786 323.386 77.6253 326.11 77.6253C328.981 77.6253 331.153 76.7786 332.625 75.0853C334.171 73.3921 334.944 70.8521 334.944 67.4656C334.944 61.1342 332 57.9685 326.11 57.9685ZM381.633 48.3609V107H364.185V48.3609H381.633ZM372.798 17.4402C375.817 17.4402 378.283 18.3972 380.197 20.3114C382.185 22.1519 383.179 24.5078 383.179 27.379C383.179 30.2502 382.185 32.6429 380.197 34.557C378.283 36.3975 375.817 37.3178 372.798 37.3178C369.78 37.3178 367.313 36.3975 365.399 34.557C363.485 32.6429 362.528 30.2502 362.528 27.379C362.528 24.5078 363.485 22.1519 365.399 20.3114C367.313 18.3972 369.78 17.4402 372.798 17.4402ZM429.695 46.4836C434.775 46.4836 438.751 48.0296 441.622 51.1217C444.493 54.2138 445.929 58.5574 445.929 64.1526V107H428.481V67.1343C428.481 64.1894 428.002 62.1649 427.045 61.0606C426.162 59.8826 424.8 59.2936 422.959 59.2936C419.425 59.2936 416.039 61.8336 412.799 66.9134V107H395.351V48.3609H410.591L411.806 55.3181C414.309 52.3733 416.996 50.1647 419.867 48.6922C422.812 47.2198 426.088 46.4836 429.695 46.4836ZM513.087 51.7843C509.259 53.3304 503.627 54.1034 496.191 54.1034C500.02 55.723 502.817 57.7108 504.584 60.0667C506.351 62.4225 507.235 65.4778 507.235 69.2325C507.235 72.9871 506.241 76.3737 504.253 79.3922C502.265 82.337 499.394 84.6561 495.639 86.3493C491.958 88.0426 487.615 88.8893 482.608 88.8893C480.253 88.8893 478.007 88.6684 475.872 88.2267C475.283 88.5212 474.805 88.9997 474.437 89.6623C474.142 90.2512 473.995 90.877 473.995 91.5396C473.995 92.6439 474.4 93.5274 475.21 94.19C476.093 94.7789 477.823 95.0734 480.4 95.0734H489.234C493.725 95.0734 497.664 95.8096 501.05 97.282C504.437 98.7545 507.051 100.779 508.891 103.356C510.732 105.932 511.652 108.841 511.652 112.08C511.652 118.19 509.002 122.939 503.701 126.325C498.474 129.786 490.891 131.516 480.952 131.516C473.811 131.516 468.179 130.743 464.056 129.197C459.933 127.724 457.025 125.626 455.332 122.902C453.712 120.178 452.902 116.755 452.902 112.632H468.584C468.584 114.399 468.915 115.798 469.578 116.828C470.314 117.859 471.602 118.632 473.443 119.147C475.283 119.663 477.934 119.92 481.394 119.92C486.179 119.92 489.492 119.332 491.333 118.154C493.173 117.049 494.093 115.43 494.093 113.295C494.093 111.528 493.394 110.129 491.995 109.098C490.596 108.068 488.498 107.552 485.701 107.552H477.197C471.16 107.552 466.633 106.485 463.614 104.35C460.669 102.141 459.197 99.3434 459.197 95.9569C459.197 93.8219 459.823 91.7605 461.074 89.7727C462.326 87.7113 464.019 86.018 466.154 84.6929C462.473 82.7051 459.786 80.386 458.093 77.7357C456.473 75.0117 455.663 71.7356 455.663 67.9073C455.663 61.355 458.019 56.1648 462.731 52.3365C467.443 48.4346 473.663 46.4836 481.394 46.4836C487.283 46.6309 492.253 46.0419 496.302 44.7167C500.425 43.3915 504.658 41.4406 509.002 38.8638L513.087 51.7843ZM481.835 57.9685C479.111 57.9685 476.94 58.8519 475.32 60.6188C473.774 62.3121 473.001 64.668 473.001 67.6864C473.001 70.8521 473.774 73.3184 475.32 75.0853C476.94 76.7786 479.111 77.6253 481.835 77.6253C484.707 77.6253 486.878 76.7786 488.351 75.0853C489.897 73.3921 490.67 70.8521 490.67 67.4656C490.67 61.1342 487.725 57.9685 481.835 57.9685Z" fill="white"/>
<g filter="url(#filter0_dd_843_6658)">
<path d="M571.254 19.2745C571.254 15.8092 574.063 13 577.528 13H833.254C854.046 13 870.901 29.8552 870.901 50.6471V90.3529C870.901 111.145 854.046 128 833.254 128H608.901C588.109 128 571.254 111.145 571.254 90.3529V19.2745Z" fill="black" shape-rendering="crispEdges"/>
<path d="M571.881 19.2745C571.881 16.1557 574.41 13.6275 577.528 13.6275H833.254C853.699 13.6275 870.274 30.2017 870.274 50.6471V90.3529C870.274 110.798 853.699 127.373 833.254 127.373H608.901C588.456 127.373 571.881 110.798 571.881 90.3529V19.2745Z" stroke="url(#paint0_linear_843_6658)" stroke-width="1.2549" shape-rendering="crispEdges"/>
<path d="M618.274 103.265C613.938 103.265 609.992 102.301 606.438 100.374C602.945 98.3859 600.144 95.5247 598.035 91.7901C595.987 87.9953 594.963 83.3873 594.963 77.9661V62.7868C594.963 54.6551 597.252 48.4207 601.83 44.0838C606.408 39.6866 612.612 37.488 620.443 37.488C628.213 37.488 634.207 39.5661 638.423 43.7224C642.7 47.8184 644.838 53.3901 644.838 60.4376V60.7991H633.092V60.0762C633.092 57.8475 632.61 55.8296 631.647 54.0226C630.743 52.2155 629.358 50.8 627.49 49.776C625.623 48.6918 623.274 48.1496 620.443 48.1496C616.226 48.1496 612.914 49.4447 610.504 52.0348C608.095 54.6249 606.89 58.1487 606.89 62.6061V78.1468C606.89 82.544 608.095 86.0979 610.504 88.8085C612.914 91.4588 616.287 92.784 620.624 92.784C624.961 92.784 628.123 91.6395 630.111 89.3506C632.098 87.0616 633.092 84.1704 633.092 80.6767V79.7732H618.094V69.6536H644.838V102H633.815V95.9464H632.189C631.767 96.9704 631.074 98.0546 630.111 99.1991C629.207 100.344 627.822 101.307 625.954 102.09C624.087 102.873 621.527 103.265 618.274 103.265ZM677.014 103.265C672.556 103.265 668.611 102.331 665.178 100.464C661.804 98.5365 659.154 95.856 657.226 92.4226C655.359 88.9289 654.426 84.8329 654.426 80.1346V79.0504C654.426 74.352 655.359 70.2861 657.226 66.8527C659.094 63.3591 661.714 60.6786 665.087 58.8113C668.46 56.8838 672.376 55.92 676.833 55.92C681.23 55.92 685.055 56.9139 688.308 58.9016C691.561 60.8292 694.09 63.5398 695.898 67.0334C697.705 70.4668 698.608 74.4725 698.608 79.0504V82.9355H665.991C666.111 86.0075 667.256 88.5073 669.424 90.4348C671.593 92.3624 674.243 93.3261 677.375 93.3261C680.568 93.3261 682.917 92.6334 684.423 91.248C685.929 89.8626 687.073 88.3266 687.856 86.64L697.162 91.5191C696.319 93.0852 695.084 94.8019 693.458 96.6692C691.892 98.4762 689.784 100.042 687.133 101.368C684.483 102.632 681.11 103.265 677.014 103.265ZM666.081 74.4424H687.043C686.802 71.8522 685.748 69.7741 683.881 68.208C682.074 66.6419 679.694 65.8588 676.743 65.8588C673.671 65.8588 671.231 66.6419 669.424 68.208C667.617 69.7741 666.503 71.8522 666.081 74.4424ZM729.161 103.265C724.703 103.265 720.758 102.331 717.325 100.464C713.951 98.5365 711.301 95.856 709.374 92.4226C707.506 88.9289 706.573 84.8329 706.573 80.1346V79.0504C706.573 74.352 707.506 70.2861 709.374 66.8527C711.241 63.3591 713.861 60.6786 717.234 58.8113C720.607 56.8838 724.523 55.92 728.98 55.92C733.377 55.92 737.202 56.9139 740.455 58.9016C743.708 60.8292 746.238 63.5398 748.045 67.0334C749.852 70.4668 750.755 74.4725 750.755 79.0504V82.9355H718.138C718.258 86.0075 719.403 88.5073 721.571 90.4348C723.74 92.3624 726.39 93.3261 729.522 93.3261C732.715 93.3261 735.064 92.6334 736.57 91.248C738.076 89.8626 739.22 88.3266 740.003 86.64L749.31 91.5191C748.466 93.0852 747.231 94.8019 745.605 96.6692C744.039 98.4762 741.931 100.042 739.28 101.368C736.63 102.632 733.257 103.265 729.161 103.265ZM718.228 74.4424H739.19C738.949 71.8522 737.895 69.7741 736.028 68.208C734.221 66.6419 731.841 65.8588 728.89 65.8588C725.818 65.8588 723.378 66.6419 721.571 68.208C719.764 69.7741 718.65 71.8522 718.228 74.4424ZM760.888 102V38.7529H772.273V73.7195H773.899L788.717 57.1849H803.535L782.844 78.8696L804.258 102H789.62L773.899 84.2005H772.273V102H760.888ZM829.266 103.265C823.423 103.265 818.634 102 814.899 99.4701C811.165 96.9402 808.906 93.3261 808.123 88.6278L818.604 85.9172C819.026 88.0254 819.718 89.6819 820.682 90.8866C821.706 92.0913 822.941 92.9647 824.386 93.5068C825.892 93.9887 827.519 94.2296 829.266 94.2296C831.916 94.2296 833.874 93.7779 835.138 92.8744C836.403 91.9106 837.036 90.736 837.036 89.3506C837.036 87.9652 836.434 86.9111 835.229 86.1882C834.024 85.4052 832.097 84.7727 829.446 84.2908L826.916 83.8391C823.784 83.2367 820.923 82.4235 818.333 81.3995C815.743 80.3153 813.665 78.8395 812.098 76.9722C810.532 75.1049 809.749 72.6955 809.749 69.744C809.749 65.2866 811.376 61.8833 814.628 59.5341C817.881 57.1247 822.158 55.92 827.458 55.92C832.458 55.92 836.614 57.0344 839.927 59.2631C843.24 61.4918 845.409 64.4132 846.433 68.0273L835.861 71.28C835.379 68.9911 834.386 67.3647 832.88 66.4009C831.434 65.4372 829.627 64.9553 827.458 64.9553C825.29 64.9553 823.634 65.3468 822.489 66.1299C821.345 66.8527 820.772 67.8767 820.772 69.2019C820.772 70.6475 821.375 71.7318 822.579 72.4546C823.784 73.1172 825.41 73.6292 827.458 73.9906L829.988 74.4424C833.362 75.0447 836.403 75.8579 839.114 76.8819C841.885 77.8456 844.053 79.2612 845.619 81.1285C847.246 82.9355 848.059 85.4052 848.059 88.5374C848.059 93.2358 846.342 96.88 842.909 99.4701C839.536 102 834.988 103.265 829.266 103.265Z" fill="white"/>
</g>
<path fill-rule="evenodd" clip-rule="evenodd" d="M509.394 30.2237C511.146 23.1182 511.031 16.2756 511.241 9.06833C511.282 7.6608 510.174 6.4906 508.767 6.44821C507.36 6.40581 506.186 7.51662 506.144 8.92415C505.945 15.7583 506.106 22.2617 504.444 29.0111C504.107 30.3762 504.944 31.7583 506.311 32.089C507.676 32.4282 509.059 31.5888 509.394 30.2237Z" fill="white"/>
<path fill-rule="evenodd" clip-rule="evenodd" d="M524.282 43.9967C536.164 33.1604 547.359 19.2208 555.184 5.14543C555.866 3.91595 555.422 2.36421 554.191 1.68588C552.961 1.00755 551.407 1.44851 550.725 2.67798C543.158 16.2869 532.331 29.7688 520.842 40.2405C519.803 41.1901 519.731 42.8012 520.68 43.8356C521.63 44.8701 523.243 44.9463 524.282 43.9967Z" fill="white"/>
<path fill-rule="evenodd" clip-rule="evenodd" d="M527.288 55.831C538.155 57.62 549.357 54.5676 559.238 50.2517C560.527 49.6836 561.115 48.1829 560.552 46.9025C559.987 45.6137 558.482 45.0286 557.193 45.5882C548.194 49.5225 538.016 52.4394 528.118 50.8114C526.73 50.5825 525.417 51.5236 525.188 52.9057C524.959 54.2878 525.9 55.602 527.288 55.831Z" fill="white"/>
<path d="M189.488 188.85C189.488 177.019 189.488 171.103 193.164 167.428C196.839 163.752 202.755 163.752 214.586 163.752H770.508V301.791H214.586C202.755 301.791 196.839 301.791 193.164 298.116C189.488 294.44 189.488 288.525 189.488 276.693V188.85Z" fill="#FDBE3E" fill-opacity="0.2"/>
<path d="M315.547 192.734L313.78 206.648H294.896V269.263H276.786V206.648H257.018V192.734H315.547ZM341.869 208.747C350.85 208.747 357.881 211.507 362.961 217.029C368.041 222.477 370.581 230.133 370.581 239.999C370.581 246.256 369.403 251.741 367.047 256.453C364.765 261.091 361.452 264.698 357.108 267.275C352.838 269.852 347.758 271.14 341.869 271.14C332.96 271.14 325.93 268.416 320.776 262.968C315.696 257.447 313.156 249.753 313.156 239.888C313.156 233.63 314.297 228.182 316.58 223.544C318.936 218.833 322.249 215.188 326.519 212.612C330.862 210.035 335.979 208.747 341.869 208.747ZM341.869 221.557C338.335 221.557 335.684 223.066 333.917 226.084C332.151 229.029 331.267 233.63 331.267 239.888C331.267 246.293 332.114 250.968 333.807 253.913C335.574 256.858 338.261 258.33 341.869 258.33C345.402 258.33 348.053 256.858 349.82 253.913C351.586 250.895 352.47 246.256 352.47 239.999C352.47 233.594 351.586 228.919 349.82 225.974C348.126 223.029 345.476 221.557 341.869 221.557ZM434.96 214.047C431.132 215.593 425.5 216.366 418.064 216.366C421.893 217.986 424.69 219.974 426.457 222.33C428.224 224.685 429.108 227.741 429.108 231.495C429.108 235.25 428.114 238.637 426.126 241.655C424.138 244.6 421.267 246.919 417.512 248.612C413.831 250.306 409.488 251.152 404.481 251.152C402.126 251.152 399.88 250.931 397.745 250.49C397.156 250.784 396.678 251.263 396.309 251.925C396.015 252.514 395.868 253.14 395.868 253.803C395.868 254.907 396.273 255.79 397.082 256.453C397.966 257.042 399.696 257.336 402.273 257.336H411.107C415.598 257.336 419.537 258.073 422.923 259.545C426.31 261.017 428.924 263.042 430.764 265.619C432.605 268.195 433.525 271.103 433.525 274.343C433.525 280.453 430.874 285.202 425.574 288.588C420.347 292.049 412.764 293.779 402.825 293.779C395.684 293.779 390.052 293.006 385.929 291.46C381.806 289.987 378.898 287.889 377.205 285.165C375.585 282.441 374.775 279.018 374.775 274.895H390.457C390.457 276.662 390.788 278.061 391.45 279.091C392.187 280.122 393.475 280.895 395.316 281.41C397.156 281.926 399.806 282.183 403.267 282.183C408.052 282.183 411.365 281.594 413.205 280.417C415.046 279.312 415.966 277.693 415.966 275.558C415.966 273.791 415.267 272.392 413.868 271.361C412.469 270.33 410.371 269.815 407.573 269.815H399.07C393.033 269.815 388.506 268.748 385.487 266.613C382.542 264.404 381.07 261.606 381.07 258.22C381.07 256.085 381.696 254.023 382.947 252.036C384.199 249.974 385.892 248.281 388.027 246.956C384.346 244.968 381.659 242.649 379.966 239.999C378.346 237.275 377.536 233.999 377.536 230.17C377.536 223.618 379.892 218.428 384.604 214.599C389.315 210.698 395.536 208.747 403.267 208.747C409.156 208.894 414.126 208.305 418.175 206.98C422.298 205.654 426.531 203.704 430.874 201.127L434.96 214.047ZM403.708 220.231C400.984 220.231 398.813 221.115 397.193 222.882C395.647 224.575 394.874 226.931 394.874 229.949C394.874 233.115 395.647 235.581 397.193 237.348C398.813 239.042 400.984 239.888 403.708 239.888C406.58 239.888 408.751 239.042 410.224 237.348C411.77 235.655 412.543 233.115 412.543 229.729C412.543 223.397 409.598 220.231 403.708 220.231ZM490.432 238.784C490.432 241.213 490.322 243.312 490.101 245.078H453.769C454.358 250.011 455.757 253.471 457.966 255.459C460.174 257.447 463.229 258.441 467.131 258.441C469.487 258.441 471.769 258.036 473.978 257.226C476.187 256.342 478.579 255.017 481.156 253.25L488.334 262.968C481.487 268.416 473.868 271.14 465.475 271.14C455.978 271.14 448.689 268.343 443.609 262.747C438.53 257.152 435.99 249.643 435.99 240.219C435.99 234.256 437.057 228.919 439.192 224.207C441.327 219.422 444.456 215.667 448.579 212.943C452.702 210.145 457.634 208.747 463.377 208.747C471.843 208.747 478.469 211.397 483.254 216.698C488.04 221.998 490.432 229.36 490.432 238.784ZM473.315 233.814C473.168 224.833 470.003 220.342 463.818 220.342C460.8 220.342 458.444 221.446 456.751 223.655C455.131 225.863 454.137 229.508 453.769 234.587H473.315V233.814ZM537.008 266.502C534.873 267.975 532.37 269.116 529.498 269.926C526.701 270.735 523.903 271.14 521.106 271.14C508.295 271.067 501.89 263.999 501.89 249.937V222.771H493.608V210.624H501.89V197.924L519.339 195.937V210.624H532.811L530.934 222.771H519.339V249.717C519.339 252.441 519.78 254.392 520.664 255.569C521.547 256.747 522.946 257.336 524.86 257.336C526.848 257.336 528.946 256.711 531.155 255.459L537.008 266.502ZM577.176 208.747C582.256 208.747 586.232 210.293 589.103 213.385C591.974 216.477 593.41 220.82 593.41 226.416V269.263H575.961V229.397C575.961 226.452 575.483 224.428 574.526 223.323C573.569 222.146 572.207 221.557 570.44 221.557C566.906 221.557 563.52 224.06 560.28 229.066V269.263H542.832V187.323L560.28 185.556V216.918C562.71 214.194 565.286 212.17 568.01 210.845C570.734 209.446 573.79 208.747 577.176 208.747ZM657.697 238.784C657.697 241.213 657.587 243.312 657.366 245.078H621.034C621.623 250.011 623.022 253.471 625.23 255.459C627.439 257.447 630.494 258.441 634.396 258.441C636.752 258.441 639.034 258.036 641.243 257.226C643.451 256.342 645.844 255.017 648.421 253.25L655.599 262.968C648.752 268.416 641.132 271.14 632.74 271.14C623.242 271.14 615.954 268.343 610.874 262.747C605.794 257.152 603.254 249.643 603.254 240.219C603.254 234.256 604.322 228.919 606.457 224.207C608.592 219.422 611.721 215.667 615.844 212.943C619.966 210.145 624.899 208.747 630.641 208.747C639.108 208.747 645.734 211.397 650.519 216.698C655.304 221.998 657.697 229.36 657.697 238.784ZM640.58 233.814C640.433 224.833 637.267 220.342 631.083 220.342C628.065 220.342 625.709 221.446 624.015 223.655C622.396 225.863 621.402 229.508 621.034 234.587H640.58V233.814ZM699.303 208.967C701.438 208.967 703.389 209.225 705.156 209.74L702.395 226.636C700.186 226.121 698.42 225.863 697.094 225.863C693.634 225.863 690.984 227.078 689.143 229.508C687.376 231.864 685.978 235.434 684.947 240.219V269.263H667.499V210.624H682.738L684.174 221.998C685.499 217.949 687.487 214.783 690.137 212.501C692.861 210.145 695.916 208.967 699.303 208.967Z" fill="white"/>
<ellipse cx="342.728" cy="239.794" rx="12.6932" ry="19.2" fill="#272934"/>
<path d="M339.037 242.198C338.971 243.356 339.305 245.987 341.17 247.249C343.502 248.826 347.266 247.034 346.761 240.747" stroke="white" stroke-width="0.25045"/>
<path d="M335.64 243.295C335.518 245.453 336.141 250.358 339.617 252.709C343.962 255.647 350.977 252.308 350.035 240.592" stroke="white" stroke-width="0.25045"/>
<path d="M350.063 234.244C350.044 233.565 349.719 232.079 348.575 231.56C347.146 230.912 345.054 232.379 345.66 235.964" stroke="white" stroke-width="0.25045"/>
<path d="M345.104 234.146C345.144 233.444 344.942 231.85 343.811 231.085C342.398 230.13 340.118 231.215 340.424 235.025" stroke="white" stroke-width="0.25045"/>
<path d="M340.417 238.292C340.581 237.608 340.661 235.934 339.668 234.714C338.427 233.189 335.959 233.351 335.591 237.276" stroke="white" stroke-width="0.25045"/>
<path d="M340.853 231.129C340.772 230.707 340.418 229.847 339.647 229.786C338.683 229.708 337.517 231.113 338.259 233.227" stroke="white" stroke-width="0.25045"/>
<path d="M344.09 230.467C344.053 230.031 344.151 229.03 344.842 228.508C345.706 227.856 347.146 228.441 347.022 230.826" stroke="white" stroke-width="0.25045"/>
<path d="M335.605 242.826V237.596" stroke="white" stroke-width="0.25045"/>
<path d="M350.086 240.075V234.845" stroke="white" stroke-width="0.25045"/>
<path d="M343.515 229.553C343.514 229.202 343.367 228.426 342.785 228.123C342.057 227.744 340.958 228.435 341.221 230.302" stroke="white" stroke-width="0.25045"/>
<path d="M350.644 243.829C350.874 243.869 351.401 243.738 351.668 242.899C352.002 241.849 351.676 240.119 350.42 240.296" stroke="white" stroke-width="0.25045"/>
<path d="M335.078 243.795C334.851 243.86 334.319 243.787 334.013 242.978C333.631 241.967 333.874 240.206 335.135 240.247" stroke="white" stroke-width="0.25045"/>
<path d="M339.962 242.083C339.919 243.211 340.083 244.244 340.379 245C340.527 245.379 340.705 245.683 340.901 245.895C341.097 246.107 341.306 246.222 341.518 246.241C341.731 246.26 341.947 246.182 342.157 246.007C342.369 245.83 342.569 245.56 342.745 245.21C343.096 244.511 343.338 243.514 343.381 242.387C343.424 241.259 343.26 240.227 342.965 239.47C342.817 239.091 342.639 238.787 342.442 238.575C342.246 238.363 342.038 238.248 341.825 238.229C341.612 238.21 341.397 238.288 341.186 238.464C340.975 238.64 340.774 238.91 340.599 239.26C340.248 239.959 340.006 240.956 339.962 242.083Z" fill="white" stroke="white" stroke-width="0.25045"/>
<path d="M340.995 242.165C340.972 242.761 341.06 243.304 341.215 243.7C341.375 244.107 341.585 244.307 341.778 244.324C341.971 244.341 342.194 244.18 342.384 243.803C342.569 243.438 342.698 242.914 342.72 242.318C342.743 241.722 342.655 241.178 342.5 240.783C342.34 240.376 342.13 240.175 341.937 240.158C341.744 240.141 341.521 240.303 341.331 240.679C341.146 241.044 341.018 241.568 340.995 242.165Z" fill="white" stroke="white" stroke-width="0.25045"/>
<path d="M342.626 242.056C342.583 243.183 342.748 244.216 343.043 244.973C343.191 245.351 343.369 245.655 343.566 245.867C343.761 246.079 343.97 246.194 344.182 246.213C344.395 246.232 344.611 246.154 344.822 245.979C345.033 245.803 345.233 245.532 345.409 245.182C345.76 244.483 346.002 243.486 346.045 242.359C346.088 241.231 345.924 240.199 345.629 239.442C345.481 239.063 345.303 238.76 345.106 238.547C344.91 238.335 344.702 238.22 344.489 238.201C344.276 238.182 344.061 238.26 343.85 238.436C343.639 238.612 343.438 238.882 343.263 239.232C342.912 239.932 342.67 240.928 342.626 242.056Z" fill="white" stroke="white" stroke-width="0.25045"/>
<path d="M343.659 242.137C343.636 242.733 343.724 243.277 343.879 243.672C344.04 244.079 344.249 244.279 344.442 244.296C344.635 244.313 344.858 244.152 345.048 243.775C345.233 243.41 345.362 242.886 345.384 242.29C345.407 241.694 345.319 241.15 345.164 240.755C345.004 240.348 344.794 240.148 344.601 240.131C344.408 240.113 344.185 240.275 343.995 240.652C343.81 241.016 343.682 241.541 343.659 242.137Z" fill="white" stroke="white" stroke-width="0.25045"/>
<line x1="767.372" y1="154.907" x2="767.372" y2="314.567" stroke="#FDBE3E" stroke-width="6.27451"/>
<defs>
<filter id="filter0_dd_843_6658" x="558.705" y="0.450982" width="327.256" height="142.608" filterUnits="userSpaceOnUse" color-interpolation-filters="sRGB">
<feFlood flood-opacity="0" result="BackgroundImageFix"/>
<feColorMatrix in="SourceAlpha" type="matrix" values="0 0 0 0 0 0 0 0 0 0 0 0 0 0 0 0 0 0 127 0" result="hardAlpha"/>
<feOffset dy="2.5098"/>
<feGaussianBlur stdDeviation="6.27451"/>
<feComposite in2="hardAlpha" operator="out"/>
<feColorMatrix type="matrix" values="0 0 0 0 0.9375 0 0 0 0 0.574219 0 0 0 0 0.574219 0 0 0 1 0"/>
<feBlend mode="normal" in2="BackgroundImageFix" result="effect1_dropShadow_843_6658"/>
<feColorMatrix in="SourceAlpha" type="matrix" values="0 0 0 0 0 0 0 0 0 0 0 0 0 0 0 0 0 0 127 0" result="hardAlpha"/>
<feOffset dx="2.5098"/>
<feGaussianBlur stdDeviation="6.27451"/>
<feComposite in2="hardAlpha" operator="out"/>
<feColorMatrix type="matrix" values="0 0 0 0 0.487985 0 0 0 0 0.53827 0 0 0 0 0.990833 0 0 0 1 0"/>
<feBlend mode="normal" in2="effect1_dropShadow_843_6658" result="effect2_dropShadow_843_6658"/>
<feBlend mode="normal" in="SourceGraphic" in2="effect2_dropShadow_843_6658" result="shape"/>
</filter>
<linearGradient id="paint0_linear_843_6658" x1="579.014" y1="22.2529" x2="866.21" y2="110.178" gradientUnits="userSpaceOnUse">
<stop stop-color="#E88484"/>
<stop offset="1" stop-color="#656DE1"/>
</linearGradient>
</defs>
</svg>
