<svg width="36" height="36" viewBox="0 0 36 36" fill="none" xmlns="http://www.w3.org/2000/svg">
<path d="M21.8888 15.3602C25.674 15.3602 28.7594 11.9886 28.7594 7.88537C28.7594 3.81394 25.7058 0.617188 21.8888 0.617188C18.1196 0.617188 15.0183 3.87752 15.0183 7.91712C15.0342 12.0045 18.1196 15.3602 21.8888 15.3602ZM21.8888 12.9588C19.5668 12.9588 17.5788 10.7322 17.5788 7.91712C17.5788 5.14984 19.535 3.01872 21.8888 3.01872C24.2744 3.01872 26.1988 5.11808 26.1988 7.88537C26.1988 10.7004 24.2426 12.9588 21.8888 12.9588ZM21.8888 17.3324C19.0102 17.3324 16.4974 18.0003 14.4617 19.0818C15.1296 19.6066 15.7339 20.2109 16.2588 20.9107C17.8174 20.1951 19.7099 19.7338 21.8888 19.7338C29.1728 19.7338 33.2124 24.6164 33.2124 27.2246C33.2124 27.5586 33.0534 27.6699 32.6398 27.6699H18.5648C18.549 28.497 18.4058 29.3081 18.1673 30.0715H31.8767C34.5166 30.0715 35.7731 29.2762 35.7731 27.5268C35.7731 23.36 30.5087 17.3324 21.8888 17.3324ZM8.30675 35.3675C12.744 35.3675 16.386 31.7255 16.386 27.2882C16.386 22.851 12.744 19.209 8.30675 19.209C3.88545 19.209 0.227539 22.851 0.227539 27.2882C0.227539 31.7255 3.88545 35.3675 8.30675 35.3675ZM4.21944 28.2584C3.69456 28.2584 3.24929 27.7972 3.24929 27.2882C3.24929 26.7634 3.69456 26.3181 4.21944 26.3181H12.3941C12.9349 26.3181 13.3802 26.7634 13.3802 27.2882C13.3802 27.7972 12.9349 28.2584 12.3941 28.2584H4.21944Z" fill="black"/>
</svg>
