<svg width="50" height="50" viewBox="0 0 50 50" fill="none" xmlns="http://www.w3.org/2000/svg">
<rect width="50.002" height="50.002" rx="7.57605" fill="#FFECDE"/>
<path d="M36.25 15H32.5V13.75C32.5 13.4185 32.3683 13.1005 32.1339 12.8661C31.8995 12.6317 31.5815 12.5 31.25 12.5H18.75C18.4185 12.5 18.1005 12.6317 17.8661 12.8661C17.6317 13.1005 17.5 13.4185 17.5 13.75V15H13.75C13.4185 15 13.1005 15.1317 12.8661 15.3661C12.6317 15.6005 12.5 15.9185 12.5 16.25V20C12.5 21.3261 13.0268 22.5979 13.9645 23.5355C14.9021 24.4732 16.1739 25 17.5 25H19.425C20.5557 26.2614 22.0801 27.1029 23.75 27.3875V30H22.5C21.5054 30 20.5516 30.3951 19.8483 31.0983C19.1451 31.8016 18.75 32.7554 18.75 33.75V36.25C18.75 36.5815 18.8817 36.8995 19.1161 37.1339C19.3505 37.3683 19.6685 37.5 20 37.5H30C30.3315 37.5 30.6495 37.3683 30.8839 37.1339C31.1183 36.8995 31.25 36.5815 31.25 36.25V33.75C31.25 32.7554 30.8549 31.8016 30.1516 31.0983C29.4484 30.3951 28.4946 30 27.5 30H26.25V27.3875C27.9199 27.1029 29.4443 26.2614 30.575 25H32.5C33.8261 25 35.0978 24.4732 36.0355 23.5355C36.9732 22.5979 37.5 21.3261 37.5 20V16.25C37.5 15.9185 37.3683 15.6005 37.1339 15.3661C36.8995 15.1317 36.5815 15 36.25 15ZM17.5 22.5C16.837 22.5 16.2011 22.2366 15.7322 21.7678C15.2634 21.2989 15 20.663 15 20V17.5H17.5V20C17.5028 20.8521 17.6507 21.6976 17.9375 22.5H17.5ZM27.5 32.5C27.8315 32.5 28.1495 32.6317 28.3839 32.8661C28.6183 33.1005 28.75 33.4185 28.75 33.75V35H21.25V33.75C21.25 33.4185 21.3817 33.1005 21.6161 32.8661C21.8505 32.6317 22.1685 32.5 22.5 32.5H27.5ZM30 20C30 21.3261 29.4732 22.5979 28.5355 23.5355C27.5979 24.4732 26.3261 25 25 25C23.6739 25 22.4021 24.4732 21.4645 23.5355C20.5268 22.5979 20 21.3261 20 20V15H30V20ZM35 20C35 20.663 34.7366 21.2989 34.2678 21.7678C33.7989 22.2366 33.163 22.5 32.5 22.5H32.0625C32.3493 21.6976 32.4972 20.8521 32.5 20V17.5H35V20Z" fill="#D17838"/>
</svg>
