<svg width="16" height="16" viewBox="0 0 16 16" fill="none" xmlns="http://www.w3.org/2000/svg">
<path d="M6.07353 8.39999C6.4221 8.39999 6.70468 8.11742 6.70468 7.76884C6.70468 7.42027 6.4221 7.1377 6.07353 7.1377C5.72496 7.1377 5.44238 7.42027 5.44238 7.76884C5.44238 8.11742 5.72496 8.39999 6.07353 8.39999Z" stroke="#9CA3AF" stroke-width="1.26229" stroke-linecap="round" stroke-linejoin="round"/>
<path d="M6.07353 3.983C6.4221 3.983 6.70468 3.70042 6.70468 3.35185C6.70468 3.00328 6.4221 2.7207 6.07353 2.7207C5.72496 2.7207 5.44238 3.00328 5.44238 3.35185C5.44238 3.70042 5.72496 3.983 6.07353 3.983Z" stroke="#9CA3AF" stroke-width="1.26229" stroke-linecap="round" stroke-linejoin="round"/>
<path d="M6.07353 12.8189C6.4221 12.8189 6.70468 12.5364 6.70468 12.1878C6.70468 11.8392 6.4221 11.5566 6.07353 11.5566C5.72496 11.5566 5.44238 11.8392 5.44238 12.1878C5.44238 12.5364 5.72496 12.8189 6.07353 12.8189Z" stroke="#9CA3AF" stroke-width="1.26229" stroke-linecap="round" stroke-linejoin="round"/>
<path d="M9.85966 8.39999C10.2082 8.39999 10.4908 8.11742 10.4908 7.76884C10.4908 7.42027 10.2082 7.1377 9.85966 7.1377C9.51109 7.1377 9.22852 7.42027 9.22852 7.76884C9.22852 8.11742 9.51109 8.39999 9.85966 8.39999Z" stroke="#9CA3AF" stroke-width="1.26229" stroke-linecap="round" stroke-linejoin="round"/>
<path d="M9.85966 3.983C10.2082 3.983 10.4908 3.70042 10.4908 3.35185C10.4908 3.00328 10.2082 2.7207 9.85966 2.7207C9.51109 2.7207 9.22852 3.00328 9.22852 3.35185C9.22852 3.70042 9.51109 3.983 9.85966 3.983Z" stroke="#9CA3AF" stroke-width="1.26229" stroke-linecap="round" stroke-linejoin="round"/>
<path d="M9.85966 12.8189C10.2082 12.8189 10.4908 12.5364 10.4908 12.1878C10.4908 11.8392 10.2082 11.5566 9.85966 11.5566C9.51109 11.5566 9.22852 11.8392 9.22852 12.1878C9.22852 12.5364 9.51109 12.8189 9.85966 12.8189Z" stroke="#9CA3AF" stroke-width="1.26229" stroke-linecap="round" stroke-linejoin="round"/>
</svg>
