<svg xml:space="preserve" viewBox="110.16 105.84 864 861.84" version="1.1" xmlns:xlink="http://www.w3.org/1999/xlink" xmlns="http://www.w3.org/2000/svg" style="max-height: 500px" width="864" height="861.84">
<desc>Created with Fabric.js 5.2.4</desc>
<defs>
</defs>
<rect fill="transparent" height="100%" width="100%" y="0" x="0"/>
<g id="dc69759c-d24f-434b-924d-35f82953d2c3" transform="matrix(1 0 0 1 540 540)">
<rect height="1080" width="1080" ry="0" rx="0" y="-540" x="-540" style="stroke: none; stroke-width: 1; stroke-dasharray: none; stroke-linecap: butt; stroke-dashoffset: 0; stroke-linejoin: miter; stroke-miterlimit: 4; fill: rgb(255,255,255); fill-rule: nonzero; opacity: 1; visibility: hidden;"/>
</g>
<g id="d2ace274-9d08-4a1a-8330-9e4997e5b6a7" transform="matrix(1 0 0 1 540 540)">
</g>
<g transform="matrix(NaN NaN NaN NaN 0 0)">
<g style="">
</g>
</g>
<g transform="matrix(1 0 0 1 993.71 1015.55)">
<g style="">
		<g transform="matrix(1 0 0 1 0 0)">
<rect height="2200" width="2200" ry="0" rx="0" y="-1100" x="-1100" style="stroke: none; stroke-width: 1; stroke-dasharray: none; stroke-linecap: butt; stroke-dashoffset: 0; stroke-linejoin: miter; stroke-miterlimit: 4; fill: rgb(255,255,255); fill-rule: nonzero; opacity: 1;"/>
</g>
		<g transform="matrix(1 0 0 1 -451.12 723.56)">
<path stroke-linecap="round" d="M 895.083 1864.079 L 895.083 1915.542 C 870.355 1932.933 843.8349999999999 1947.636 815.746 1959.512 C 762.89 1981.8719999999998 706.741 1993.213 648.8779999999999 1993.213 C 591.0139999999999 1993.213 534.8649999999999 1981.872 482.0089999999999 1959.512 C 453.9199999999999 1947.635 427.3989999999999 1932.933 402.6809999999999 1915.542 L 402.6809999999999 1864.079 C 402.6809999999999 1807.94 424.5349999999999 1755.162 464.2369999999999 1715.4589999999998 C 503.9299999999999 1675.7659999999998 556.7079999999999 1653.9029999999998 612.847 1653.9029999999998 L 684.906 1653.9029999999998 C 741.045 1653.9029999999998 793.823 1675.7659999999998 833.526 1715.4589999999998 C 873.22 1755.161 895.083 1807.939 895.083 1864.079 z" transform="translate(-648.88, -1823.56)" style="stroke: none; stroke-width: 1; stroke-dasharray: none; stroke-linecap: butt; stroke-dashoffset: 0; stroke-linejoin: miter; stroke-miterlimit: 4; fill: rgb(174,182,186); fill-rule: nonzero; opacity: 1;"/>
</g>
		<g transform="matrix(1 0 0 1 -451.12 341.39)">
<path stroke-linecap="round" d="M 772.37 1441.388 C 772.37 1509.482 716.971 1564.8809999999999 648.877 1564.8809999999999 C 580.7829999999999 1564.8809999999999 525.394 1509.482 525.394 1441.388 C 525.394 1373.2939999999999 580.783 1317.905 648.877 1317.905 C 716.9709999999999 1317.905 772.37 1373.294 772.37 1441.388 z" transform="translate(-648.88, -1441.39)" style="stroke: none; stroke-width: 1; stroke-dasharray: none; stroke-linecap: butt; stroke-dashoffset: 0; stroke-linejoin: miter; stroke-miterlimit: 4; fill: rgb(174,182,186); fill-rule: nonzero; opacity: 1;"/>
</g>
		<g transform="matrix(1 0 0 1 -451.12 414.8)">
<path stroke-linecap="round" d="M 1043.878 1397.651 C 1022.2879999999999 1346.598 991.3729999999999 1300.747 952.011 1261.385 C 912.639 1222.023 866.799 1191.109 815.745 1169.518 C 762.889 1147.1580000000001 706.74 1135.827 648.877 1135.827 C 591.0129999999999 1135.827 534.8639999999999 1147.158 482.0079999999999 1169.518 C 430.9549999999999 1191.108 385.1139999999999 1222.0230000000001 345.75199999999995 1261.385 C 306.37999999999994 1300.747 275.47599999999994 1346.597 253.88499999999993 1397.651 C 231.52499999999992 1450.507 220.18399999999994 1506.656 220.18399999999994 1564.52 C 220.18399999999994 1622.384 231.52499999999995 1678.533 253.88499999999993 1731.389 C 275.47599999999994 1782.442 306.37999999999994 1828.283 345.75199999999995 1867.645 C 354.91999999999996 1876.8129999999999 364.429 1885.523 374.28899999999993 1893.756 L 374.28899999999993 1864.0790000000002 C 374.28899999999993 1800.3600000000001 399.1039999999999 1740.4500000000003 444.15599999999995 1695.3890000000001 C 489.2169999999999 1650.3270000000002 549.127 1625.5120000000002 612.846 1625.5120000000002 L 684.905 1625.5120000000002 C 748.634 1625.5120000000002 808.534 1650.3270000000002 853.595 1695.3890000000001 C 898.647 1740.45 923.462 1800.3600000000001 923.462 1864.0790000000002 L 923.462 1893.766 C 933.322 1885.5330000000001 942.841 1876.813 952.009 1867.645 C 991.371 1828.283 1022.285 1782.442 1043.876 1731.389 C 1066.2359999999999 1678.533 1077.567 1622.384 1077.567 1564.52 C 1077.567 1506.656 1066.238 1450.507 1043.878 1397.651 z M 648.877 1593.262 C 565.136 1593.262 497.00299999999993 1525.139 497.00299999999993 1441.388 C 497.00299999999993 1357.647 565.136 1289.514 648.877 1289.514 C 732.6279999999999 1289.514 800.751 1357.647 800.751 1441.388 C 800.751 1525.139 732.628 1593.262 648.877 1593.262 z" transform="translate(-648.88, -1514.8)" style="stroke: none; stroke-width: 1; stroke-dasharray: none; stroke-linecap: butt; stroke-dashoffset: 0; stroke-linejoin: miter; stroke-miterlimit: 4; fill: rgb(174,182,186); fill-rule: nonzero; opacity: 1;"/>
</g>
		<g transform="matrix(1 0 0 1 465.32 464.52)">
<circle r="414.498" cy="0" cx="0" style="stroke: none; stroke-width: 1; stroke-dasharray: none; stroke-linecap: butt; stroke-dashoffset: 0; stroke-linejoin: miter; stroke-miterlimit: 4; fill: rgb(223,229,232); fill-rule: nonzero; opacity: 1;"/>
</g>
		<g transform="matrix(1 0 0 1 465.32 709.36)">
<path stroke-linecap="round" d="M 1825.716 1864.077 L 1825.716 1887.012 C 1754.5529999999999 1944.5539999999999 1663.962 1979.0149999999999 1565.3149999999998 1979.0149999999999 C 1466.677 1979.0149999999999 1376.0759999999998 1944.5539999999999 1304.9229999999998 1887.031 L 1304.9229999999998 1864.077 C 1304.9229999999998 1740.165 1405.3739999999998 1639.705 1529.2849999999999 1639.705 L 1601.3539999999998 1639.705 C 1725.265 1639.705 1825.716 1740.165 1825.716 1864.077 z" transform="translate(-1565.32, -1809.36)" style="stroke: none; stroke-width: 1; stroke-dasharray: none; stroke-linecap: butt; stroke-dashoffset: 0; stroke-linejoin: miter; stroke-miterlimit: 4; fill: rgb(174,182,186); fill-rule: nonzero; opacity: 1;"/>
</g>
		<g transform="matrix(1 0 0 1 465.32 341.39)">
<circle r="137.681" cy="0" cx="0" style="stroke: none; stroke-width: 1; stroke-dasharray: none; stroke-linecap: butt; stroke-dashoffset: 0; stroke-linejoin: miter; stroke-miterlimit: 4; fill: rgb(174,182,186); fill-rule: nonzero; opacity: 1;"/>
</g>
		<g transform="matrix(1 0 0 1 -451.12 -478.71)">
<path stroke-linecap="round" d="M 1043.876 454.416 C 1022.283 403.366 991.375 357.521 952.01 318.155 C 912.644 278.789 866.8 247.88099999999997 815.749 226.289 C 762.889 203.93099999999998 706.746 192.59499999999997 648.879 192.59499999999997 C 591.0120000000001 192.59499999999997 534.868 203.93099999999998 482.00800000000004 226.289 C 430.958 247.88099999999997 385.11300000000006 278.789 345.74800000000005 318.155 C 306.38300000000004 357.52099999999996 275.47400000000005 403.36499999999995 253.88100000000003 454.41599999999994 C 231.52300000000002 507.27599999999995 220.187 563.42 220.187 621.2869999999999 C 220.187 679.1539999999999 231.52300000000002 735.2969999999999 253.88100000000003 788.1579999999999 C 275.473 839.2079999999999 306.382 885.0529999999999 345.74800000000005 924.4179999999999 C 356.48800000000006 935.1579999999999 367.72800000000007 945.2459999999999 379.40700000000004 954.709 C 379.45300000000003 954.747 379.50000000000006 954.7829999999999 379.54600000000005 954.8209999999999 C 410.63700000000006 979.9929999999999 444.94200000000006 1000.6059999999999 482.00800000000004 1016.2839999999999 C 534.868 1038.6419999999998 591.0120000000001 1049.9779999999998 648.879 1049.9779999999998 C 706.746 1049.9779999999998 762.889 1038.6419999999998 815.749 1016.2839999999999 C 852.815 1000.6069999999999 887.12 979.9939999999999 918.21 954.8229999999999 C 918.2570000000001 954.7839999999999 918.306 954.7469999999998 918.3530000000001 954.7079999999999 C 930.032 945.2449999999999 941.2700000000001 935.1579999999999 952.0100000000001 924.4179999999999 C 991.3750000000001 885.0519999999999 1022.2830000000001 839.2079999999999 1043.8760000000002 788.1579999999999 C 1066.2340000000002 735.2969999999999 1077.5700000000002 679.1539999999999 1077.5700000000002 621.2869999999999 C 1077.5700000000002 563.42 1066.234 507.276 1043.876 454.416 z M 804.691 990.139 C 755.3480000000001 1011.009 702.9250000000001 1021.591 648.878 1021.591 C 594.831 1021.591 542.408 1011.009 493.06500000000005 990.139 C 460.54900000000004 976.386 430.297 958.574 402.67600000000004 936.975 L 402.67600000000004 920.846 C 402.67600000000004 804.953 496.958 710.668 612.844 710.668 L 684.9090000000001 710.668 C 800.7970000000001 710.668 895.0780000000001 804.954 895.0780000000001 920.846 L 895.0780000000001 936.975 C 867.46 958.574 837.208 976.385 804.691 990.139 z M 1017.731 777.098 C 997.5699999999999 824.765 968.705 867.5759999999999 931.936 904.3439999999999 C 929.1020000000001 907.1779999999999 926.219 909.949 923.3140000000001 912.689 C 921.2890000000001 852.026 896.7250000000001 795.286 853.5970000000001 752.155 C 808.5390000000001 707.095 748.633 682.28 684.9110000000001 682.28 L 612.846 682.28 C 549.124 682.28 489.218 707.095 444.161 752.155 C 401.032 795.286 376.468 852.026 374.444 912.689 C 371.538 909.949 368.65500000000003 907.178 365.821 904.3439999999999 C 329.053 867.5759999999999 300.187 824.7639999999999 280.026 777.098 C 259.156 727.756 248.574 675.333 248.574 621.286 C 248.574 567.2389999999999 259.156 514.8159999999999 280.026 465.47299999999996 C 300.187 417.8059999999999 329.053 374.99499999999995 365.821 338.227 C 402.58900000000006 301.45899999999995 445.401 272.594 493.067 252.433 C 542.41 231.563 594.833 220.981 648.88 220.981 C 702.927 220.981 755.35 231.563 804.693 252.433 C 852.3589999999999 272.594 895.1709999999999 301.46 931.938 338.227 C 968.707 374.995 997.572 417.80699999999996 1017.733 465.47299999999996 C 1038.6029999999998 514.8149999999999 1049.185 567.2379999999999 1049.185 621.286 C 1049.184 675.333 1038.602 727.756 1017.731 777.098 z" transform="translate(-648.88, -621.29)" style="stroke: none; stroke-width: 1; stroke-dasharray: none; stroke-linecap: butt; stroke-dashoffset: 0; stroke-linejoin: miter; stroke-miterlimit: 4; fill: rgb(174,182,186); fill-rule: nonzero; opacity: 1;"/>
</g>
		<g transform="matrix(1 0 0 1 -451.12 -601.84)">
<path stroke-linecap="round" d="M 648.879 346.284 C 565.135 346.284 497.004 414.41499999999996 497.004 498.159 C 497.004 581.903 565.135 650.034 648.879 650.034 C 732.623 650.034 800.753 581.903 800.753 498.159 C 800.753 414.41499999999996 732.623 346.284 648.879 346.284 z M 648.879 621.647 C 580.787 621.647 525.3910000000001 566.2510000000001 525.3910000000001 498.15900000000005 C 525.3910000000001 430.067 580.787 374.67 648.879 374.67 C 716.97 374.67 772.366 430.06600000000003 772.366 498.158 C 772.366 566.25 716.97 621.647 648.879 621.647 z" transform="translate(-648.88, -498.16)" style="stroke: none; stroke-width: 1; stroke-dasharray: none; stroke-linecap: butt; stroke-dashoffset: 0; stroke-linejoin: miter; stroke-miterlimit: 4; fill: rgb(174,182,186); fill-rule: nonzero; opacity: 1;"/>
</g>
		<g transform="matrix(1 0 0 1 465.32 -478.71)">
<circle r="414.498" cy="0" cx="0" style="stroke: none; stroke-width: 1; stroke-dasharray: none; stroke-linecap: butt; stroke-dashoffset: 0; stroke-linejoin: miter; stroke-miterlimit: 4; fill: rgb(223,229,232); fill-rule: nonzero; opacity: 1;"/>
</g>
		<g transform="matrix(1 0 0 1 465.32 -233.87)">
<path stroke-linecap="round" d="M 1825.716 920.844 L 1825.716 943.779 C 1754.5529999999999 1001.321 1663.962 1035.782 1565.3149999999998 1035.782 C 1466.677 1035.782 1376.0759999999998 1001.3209999999999 1304.9229999999998 943.7979999999999 L 1304.9229999999998 920.8429999999998 C 1304.9229999999998 796.9309999999998 1405.3739999999998 696.4709999999998 1529.2849999999999 696.4709999999998 L 1601.3539999999998 696.4709999999998 C 1725.265 696.473 1825.716 796.933 1825.716 920.844 z" transform="translate(-1565.32, -866.13)" style="stroke: none; stroke-width: 1; stroke-dasharray: none; stroke-linecap: butt; stroke-dashoffset: 0; stroke-linejoin: miter; stroke-miterlimit: 4; fill: rgb(174,182,186); fill-rule: nonzero; opacity: 1;"/>
</g>
		<g transform="matrix(1 0 0 1 465.32 -601.84)">
<circle r="137.681" cy="0" cx="0" style="stroke: none; stroke-width: 1; stroke-dasharray: none; stroke-linecap: butt; stroke-dashoffset: 0; stroke-linejoin: miter; stroke-miterlimit: 4; fill: rgb(174,182,186); fill-rule: nonzero; opacity: 1;"/>
</g>
		<g transform="matrix(1 0 0 1 465.32 -478.71)">
<path stroke-linecap="round" d="M 1565.317 1049.978 C 1507.45 1049.978 1451.306 1038.642 1398.446 1016.2840000000001 C 1347.396 994.6920000000001 1301.551 963.7840000000001 1262.185 924.4180000000001 C 1222.82 885.0520000000001 1191.912 839.2080000000001 1170.319 788.1580000000001 C 1147.961 735.2980000000001 1136.625 679.1540000000001 1136.625 621.2870000000001 C 1136.625 563.4200000000002 1147.961 507.27700000000016 1170.319 454.41600000000017 C 1191.912 403.36600000000016 1222.82 357.5210000000002 1262.185 318.1550000000002 C 1301.551 278.7890000000002 1347.396 247.8810000000002 1398.446 226.28900000000021 C 1451.3059999999998 203.9310000000002 1507.4499999999998 192.5950000000002 1565.317 192.5950000000002 C 1623.1840000000002 192.5950000000002 1679.327 203.9310000000002 1732.187 226.28900000000021 C 1783.2379999999998 247.8810000000002 1829.0819999999999 278.7890000000002 1868.4479999999999 318.1550000000002 C 1907.8129999999999 357.5210000000002 1938.7209999999998 403.3650000000002 1960.3139999999999 454.41600000000017 C 1982.6719999999998 507.2760000000002 1994.0079999999998 563.4200000000002 1994.0079999999998 621.2870000000001 C 1994.0079999999998 679.1540000000001 1982.6719999999998 735.2970000000001 1960.3139999999999 788.1580000000001 C 1938.7209999999998 839.2080000000001 1907.8129999999999 885.0530000000001 1868.4479999999999 924.4180000000001 C 1829.0819999999999 963.7840000000001 1783.2379999999998 994.6920000000001 1732.187 1016.2840000000001 C 1679.327 1038.641 1623.185 1049.978 1565.317 1049.978 z M 1565.317 220.981 C 1511.27 220.981 1458.846 231.563 1409.504 252.433 C 1361.837 272.594 1319.0249999999999 301.46 1282.2579999999998 338.227 C 1245.4889999999998 374.995 1216.6239999999998 417.80699999999996 1196.4629999999997 465.47299999999996 C 1175.5929999999998 514.8149999999999 1165.0109999999997 567.2379999999999 1165.0109999999997 621.286 C 1165.0109999999997 675.333 1175.5929999999998 727.756 1196.4629999999997 777.098 C 1216.6239999999998 824.765 1245.4889999999998 867.5759999999999 1282.2579999999998 904.3439999999999 C 1319.0259999999998 941.112 1361.8369999999998 969.977 1409.504 990.1379999999999 C 1458.846 1011.0079999999999 1511.27 1021.5899999999999 1565.317 1021.5899999999999 C 1619.364 1021.5899999999999 1671.787 1011.0079999999999 1721.13 990.1379999999999 C 1768.796 969.9769999999999 1811.6080000000002 941.1109999999999 1848.375 904.3439999999999 C 1885.144 867.5759999999999 1914.009 824.7639999999999 1934.17 777.098 C 1955.04 727.756 1965.622 675.333 1965.622 621.286 C 1965.622 567.2389999999999 1955.04 514.8159999999999 1934.17 465.47299999999996 C 1914.009 417.8059999999999 1885.144 374.99499999999995 1848.375 338.227 C 1811.607 301.45899999999995 1768.796 272.594 1721.13 252.433 C 1671.787 231.563 1619.364 220.981 1565.317 220.981 z" transform="translate(-1565.32, -621.29)" style="stroke: none; stroke-width: 1; stroke-dasharray: none; stroke-linecap: butt; stroke-dashoffset: 0; stroke-linejoin: miter; stroke-miterlimit: 4; fill: rgb(174,182,186); fill-rule: nonzero; opacity: 1;"/>
</g>
</g>
</g>
</svg>