<svg width="24" height="24" viewBox="0 0 24 24" fill="none" xmlns="http://www.w3.org/2000/svg">
<path d="M6.33717 4.04688H17.6247C17.6529 4.04686 17.68 4.0578 17.7003 4.07739C17.7206 4.09698 17.7324 4.12369 17.7334 4.15187C17.7747 5.13062 17.9247 12.7281 12.8584 14.9406V17.7831H11.1372V14.9406C11.1372 14.9406 6.37467 13.2044 6.22467 4.16313C6.22417 4.14804 6.22671 4.13301 6.23213 4.11892C6.23756 4.10484 6.24577 4.09199 6.25627 4.08114C6.26676 4.07029 6.27934 4.06167 6.29324 4.05578C6.30714 4.0499 6.32208 4.04687 6.33717 4.04688Z" stroke="black" stroke-width="1.2"/>
<path d="M17.7484 5.35156H18.8322C19.0068 5.35156 19.1798 5.38602 19.3411 5.45297C19.5024 5.51992 19.6489 5.61804 19.7722 5.7417C19.8955 5.86537 19.9932 6.01216 20.0597 6.17365C20.1262 6.33514 20.1602 6.50817 20.1597 6.68281V8.18281C20.1603 8.6185 20.0535 9.04762 19.8488 9.43221C19.644 9.8168 19.3477 10.145 18.9859 10.3878L15.6484 12.6378" stroke="black" stroke-width="1.2"/>
<path d="M6.27282 5.35156H5.14782C4.97317 5.35156 4.80024 5.38602 4.63894 5.45297C4.47763 5.51992 4.33112 5.61804 4.20781 5.7417C4.08449 5.86537 3.98678 6.01216 3.92029 6.17365C3.8538 6.33514 3.81982 6.50817 3.82032 6.68281V8.18281C3.81972 8.6185 3.92651 9.04762 4.13124 9.43221C4.33596 9.8168 4.63231 10.145 4.99407 10.3878L8.62407 12.7728" stroke="black" stroke-width="1.2"/>
<path d="M14.8165 17.7832H9.33398V19.9545H14.8165V17.7832Z" stroke="black" stroke-width="1.2"/>
</svg>
