<svg width="24" height="28" viewBox="0 0 24 28" fill="none" xmlns="http://www.w3.org/2000/svg">
<path d="M15 24.5H9V14.7C9 14.3134 9.26863 14 9.6 14H14.4C14.7314 14 15 14.3134 15 14.7V24.5Z" stroke="black" stroke-width="1.2" stroke-linecap="round" stroke-linejoin="round"/>
<path d="M20.4 24.4993H15V21.116C15 20.7294 15.2686 20.416 15.6 20.416H20.4C20.7314 20.416 21 20.7294 21 21.116V23.7993C21 24.186 20.7314 24.4993 20.4 24.4993Z" stroke="black" stroke-width="1.2" stroke-linecap="round" stroke-linejoin="round"/>
<path d="M9 24.5007V18.784C9 18.3974 8.73137 18.084 8.4 18.084H3.6C3.26863 18.084 3 18.3974 3 18.784V23.8006C3 24.1873 3.26863 24.5007 3.6 24.5007H9Z" stroke="black" stroke-width="1.2" stroke-linecap="round" stroke-linejoin="round"/>
<path d="M10.8056 5.96546L11.7147 3.71654C11.8314 3.42782 12.1686 3.42782 12.2853 3.71654L13.1944 5.96546L15.2275 6.32832C15.4884 6.37488 15.5923 6.7664 15.4035 6.99101L13.9326 8.74032L14.2797 11.2117C14.3243 11.529 14.0515 11.7711 13.8181 11.6212L12 10.4537L10.1819 11.6212C9.94851 11.7711 9.67568 11.529 9.72026 11.2117L10.0674 8.74032L8.59651 6.99101C8.40766 6.7664 8.51163 6.37488 8.77248 6.32832L10.8056 5.96546Z" stroke="black" stroke-width="1.2" stroke-linecap="round" stroke-linejoin="round"/>
</svg>
