<svg width="16" height="12" viewBox="0 0 16 12" fill="none" xmlns="http://www.w3.org/2000/svg">
<path d="M11.1452 8.35375L9.99897 7.20687V11C9.99897 11.1326 9.94629 11.2598 9.85252 11.3536C9.75875 11.4473 9.63157 11.5 9.49897 11.5C9.36636 11.5 9.23918 11.4473 9.14541 11.3536C9.05164 11.2598 8.99897 11.1326 8.99897 11V7.20687L7.85272 8.35375C7.80626 8.40021 7.75111 8.43706 7.69041 8.4622C7.62972 8.48734 7.56466 8.50028 7.49897 8.50028C7.43327 8.50028 7.36821 8.48734 7.30752 8.4622C7.24682 8.43706 7.19167 8.40021 7.14522 8.35375C7.09876 8.3073 7.06191 8.25214 7.03677 8.19145C7.01163 8.13075 6.99869 8.0657 6.99869 8C6.99869 7.9343 7.01163 7.86925 7.03677 7.80855C7.06191 7.74786 7.09876 7.6927 7.14522 7.64625L9.14522 5.64625C9.19165 5.59976 9.2468 5.56288 9.3075 5.53772C9.3682 5.51256 9.43326 5.49961 9.49897 5.49961C9.56467 5.49961 9.62974 5.51256 9.69044 5.53772C9.75114 5.56288 9.80628 5.59976 9.85272 5.64625L11.8527 7.64625C11.8992 7.6927 11.936 7.74786 11.9612 7.80855C11.9863 7.86925 11.9992 7.9343 11.9992 8C11.9992 8.0657 11.9863 8.13075 11.9612 8.19145C11.936 8.25214 11.8992 8.3073 11.8527 8.35375C11.8063 8.40021 11.7511 8.43706 11.6904 8.4622C11.6297 8.48734 11.5647 8.50028 11.499 8.50028C11.4333 8.50028 11.3682 8.48734 11.3075 8.4622C11.2468 8.43706 11.1917 8.40021 11.1452 8.35375ZM9.99897 0.5C8.97744 0.500771 7.97627 0.78576 7.10748 1.32308C6.23869 1.86041 5.53654 2.62887 5.07959 3.5425C4.53554 3.46255 3.98085 3.49564 3.45017 3.6397C2.91948 3.78375 2.4242 4.03568 1.99525 4.37974C1.5663 4.72381 1.2129 5.15263 0.957117 5.63941C0.701336 6.12619 0.54867 6.66048 0.508653 7.20891C0.468636 7.75734 0.542128 8.30814 0.724539 8.82689C0.90695 9.34564 1.19436 9.82122 1.56882 10.2239C1.94329 10.6266 2.39676 10.9477 2.90091 11.1673C3.40506 11.3869 3.94908 11.5001 4.49897 11.5H6.99897C7.13157 11.5 7.25875 11.4473 7.35252 11.3536C7.44629 11.2598 7.49897 11.1326 7.49897 11C7.49897 10.8674 7.44629 10.7402 7.35252 10.6464C7.25875 10.5527 7.13157 10.5 6.99897 10.5H4.49897C3.70332 10.5 2.94025 10.1839 2.37765 9.62132C1.81504 9.05871 1.49897 8.29565 1.49897 7.5C1.49897 6.70435 1.81504 5.94129 2.37765 5.37868C2.94025 4.81607 3.70332 4.5 4.49897 4.5C4.56772 4.5 4.63647 4.5 4.70459 4.5075C4.56791 4.99321 4.49872 5.49542 4.49897 6C4.49897 6.13261 4.55164 6.25979 4.64541 6.35355C4.73918 6.44732 4.86636 6.5 4.99897 6.5C5.13157 6.5 5.25875 6.44732 5.35252 6.35355C5.44629 6.25979 5.49897 6.13261 5.49897 6C5.49909 5.18872 5.71853 4.39257 6.13406 3.69579C6.54959 2.99901 7.14577 2.42753 7.85948 2.04182C8.5732 1.6561 9.37792 1.47051 10.1885 1.50467C10.999 1.53884 11.7853 1.79149 12.464 2.2359C13.1427 2.6803 13.6887 3.29993 14.0441 4.0292C14.3995 4.75848 14.5512 5.57027 14.4831 6.37868C14.4149 7.18709 14.1295 7.96204 13.657 8.62152C13.1845 9.28101 12.5425 9.80049 11.799 10.125C11.6934 10.1708 11.6068 10.2516 11.5539 10.3537C11.5009 10.4559 11.4849 10.5732 11.5084 10.6859C11.5319 10.7985 11.5935 10.8996 11.6829 10.9721C11.7723 11.0446 11.8839 11.084 11.999 11.0837C12.0679 11.0837 12.136 11.0692 12.199 11.0413C13.3573 10.536 14.3063 9.64721 14.8863 8.52445C15.4664 7.40169 15.6421 6.11343 15.3839 4.87634C15.1257 3.63925 14.4494 2.52881 13.4687 1.73179C12.488 0.934763 11.2627 0.499781 9.99897 0.5Z" fill="black"/>
</svg>
