<svg width="24" height="25" viewBox="0 0 24 25" fill="none" xmlns="http://www.w3.org/2000/svg">
<path d="M18.6161 20.2249H19.1063C20.2561 20.2249 21.1707 19.7191 21.9919 19.0119C24.078 17.215 19.1741 15.3974 17.5 15.3974M15.5 5.80859C15.7271 5.7651 15.9629 5.74219 16.2048 5.74219C18.0247 5.74219 19.5 7.03902 19.5 8.63874C19.5 10.2385 18.0247 11.5353 16.2048 11.5353C15.9629 11.5353 15.7271 11.5124 15.5 11.4689" stroke="#24B2B4" stroke-width="2" stroke-linecap="round"/>
<path d="M4.48131 16.4694C3.30234 17.0794 0.211139 18.325 2.09388 19.8836C3.01359 20.645 4.03791 21.1896 5.32572 21.1896H12.6743C13.9621 21.1896 14.9864 20.645 15.9061 19.8836C17.7889 18.325 14.6977 17.0794 13.5187 16.4694C10.754 15.0389 7.24599 15.0389 4.48131 16.4694Z" stroke="#24B2B4" stroke-width="2"/>
<path d="M13 8.15504C13 10.288 11.2091 12.0171 9 12.0171C6.79086 12.0171 5 10.288 5 8.15504C5 6.02207 6.79086 4.29297 9 4.29297C11.2091 4.29297 13 6.02207 13 8.15504Z" stroke="#24B2B4" stroke-width="2"/>
</svg>
