<svg width="51" height="50" viewBox="0 0 51 50" fill="none" xmlns="http://www.w3.org/2000/svg">
<rect x="0.50293" width="50.002" height="50.002" rx="7.57605" fill="#9E20A0" fill-opacity="0.2"/>
<path d="M34.876 13.75H32.0635V12.8125C32.0635 12.5639 31.9647 12.3254 31.7889 12.1496C31.6131 11.9738 31.3746 11.875 31.126 11.875C30.8773 11.875 30.6389 11.9738 30.4631 12.1496C30.2872 12.3254 30.1885 12.5639 30.1885 12.8125V13.75H20.8135V12.8125C20.8135 12.5639 20.7147 12.3254 20.5389 12.1496C20.3631 11.9738 20.1246 11.875 19.876 11.875C19.6273 11.875 19.3889 11.9738 19.2131 12.1496C19.0372 12.3254 18.9385 12.5639 18.9385 12.8125V13.75H16.126C15.6287 13.75 15.1518 13.9475 14.8002 14.2992C14.4485 14.6508 14.251 15.1277 14.251 15.625V34.375C14.251 34.8723 14.4485 35.3492 14.8002 35.7008C15.1518 36.0525 15.6287 36.25 16.126 36.25H34.876C35.3733 36.25 35.8502 36.0525 36.2018 35.7008C36.5534 35.3492 36.751 34.8723 36.751 34.375V15.625C36.751 15.1277 36.5534 14.6508 36.2018 14.2992C35.8502 13.9475 35.3733 13.75 34.876 13.75ZM18.9385 15.625V16.5625C18.9385 16.8111 19.0372 17.0496 19.2131 17.2254C19.3889 17.4012 19.6273 17.5 19.876 17.5C20.1246 17.5 20.3631 17.4012 20.5389 17.2254C20.7147 17.0496 20.8135 16.8111 20.8135 16.5625V15.625H30.1885V16.5625C30.1885 16.8111 30.2872 17.0496 30.4631 17.2254C30.6389 17.4012 30.8773 17.5 31.126 17.5C31.3746 17.5 31.6131 17.4012 31.7889 17.2254C31.9647 17.0496 32.0635 16.8111 32.0635 16.5625V15.625H34.876V19.375H16.126V15.625H18.9385ZM34.876 34.375H16.126V21.25H34.876V34.375ZM26.9072 25.4688C26.9072 25.7469 26.8248 26.0188 26.6702 26.25C26.5157 26.4813 26.2961 26.6615 26.0391 26.768C25.7822 26.8744 25.4994 26.9022 25.2266 26.848C24.9538 26.7937 24.7033 26.6598 24.5066 26.4631C24.3099 26.2665 24.176 26.0159 24.1217 25.7431C24.0675 25.4703 24.0953 25.1876 24.2018 24.9306C24.3082 24.6736 24.4885 24.454 24.7197 24.2995C24.951 24.145 25.2228 24.0625 25.501 24.0625C25.8739 24.0625 26.2316 24.2107 26.4953 24.4744C26.7591 24.7381 26.9072 25.0958 26.9072 25.4688ZM32.0635 25.4688C32.0635 25.7469 31.981 26.0188 31.8265 26.25C31.672 26.4813 31.4523 26.6615 31.1954 26.768C30.9384 26.8744 30.6557 26.9022 30.3829 26.848C30.1101 26.7937 29.8595 26.6598 29.6629 26.4631C29.4662 26.2665 29.3323 26.0159 29.278 25.7431C29.2237 25.4703 29.2516 25.1876 29.358 24.9306C29.4645 24.6736 29.6447 24.454 29.876 24.2995C30.1072 24.145 30.3791 24.0625 30.6572 24.0625C31.0302 24.0625 31.3879 24.2107 31.6516 24.4744C31.9153 24.7381 32.0635 25.0958 32.0635 25.4688ZM21.751 30.1562C21.751 30.4344 21.6685 30.7063 21.514 30.9375C21.3595 31.1688 21.1398 31.349 20.8829 31.4555C20.6259 31.5619 20.3432 31.5897 20.0704 31.5355C19.7976 31.4812 19.547 31.3473 19.3504 31.1506C19.1537 30.954 19.0198 30.7034 18.9655 30.4306C18.9112 30.1578 18.9391 29.8751 19.0455 29.6181C19.152 29.3611 19.3322 29.1415 19.5635 28.987C19.7947 28.8325 20.0666 28.75 20.3447 28.75C20.7177 28.75 21.0754 28.8982 21.3391 29.1619C21.6028 29.4256 21.751 29.7833 21.751 30.1562ZM26.9072 30.1562C26.9072 30.4344 26.8248 30.7063 26.6702 30.9375C26.5157 31.1688 26.2961 31.349 26.0391 31.4555C25.7822 31.5619 25.4994 31.5897 25.2266 31.5355C24.9538 31.4812 24.7033 31.3473 24.5066 31.1506C24.3099 30.954 24.176 30.7034 24.1217 30.4306C24.0675 30.1578 24.0953 29.8751 24.2018 29.6181C24.3082 29.3611 24.4885 29.1415 24.7197 28.987C24.951 28.8325 25.2228 28.75 25.501 28.75C25.8739 28.75 26.2316 28.8982 26.4953 29.1619C26.7591 29.4256 26.9072 29.7833 26.9072 30.1562ZM32.0635 30.1562C32.0635 30.4344 31.981 30.7063 31.8265 30.9375C31.672 31.1688 31.4523 31.349 31.1954 31.4555C30.9384 31.5619 30.6557 31.5897 30.3829 31.5355C30.1101 31.4812 29.8595 31.3473 29.6629 31.1506C29.4662 30.954 29.3323 30.7034 29.278 30.4306C29.2237 30.1578 29.2516 29.8751 29.358 29.6181C29.4645 29.3611 29.6447 29.1415 29.876 28.987C30.1072 28.8325 30.3791 28.75 30.6572 28.75C31.0302 28.75 31.3879 28.8982 31.6516 29.1619C31.9153 29.4256 32.0635 29.7833 32.0635 30.1562Z" fill="#9E20A0"/>
</svg>
