<svg width="51" height="50" viewBox="0 0 51 50" fill="none" xmlns="http://www.w3.org/2000/svg">
<rect x="0.50293" width="50.002" height="50.002" rx="7.57605" fill="#CD5353" fill-opacity="0.2"/>
<path d="M25.5029 11.3477C25.2861 11.3477 25.0693 11.3535 24.8525 11.3635L24.8994 12.417C25.0986 12.4076 25.2979 12.4023 25.5029 12.4023C32.4639 12.4023 38.1006 18.0391 38.1006 25C38.1006 31.9609 32.4639 37.5977 25.5029 37.5977C20.2529 37.5977 15.7559 34.3926 13.8633 29.8281L15.4822 29.3418L12.6445 27.332L11.5283 30.5254L12.8496 30.1328C14.8787 35.125 19.7842 38.6523 25.5029 38.6523C33.0381 38.6523 39.1553 32.5352 39.1553 25C39.1553 17.4648 33.0381 11.3477 25.5029 11.3477ZM23.6982 11.4672C22.9189 11.5697 22.1689 11.7367 21.4365 11.9641L21.7646 12.9654C22.4326 12.758 23.1299 12.6051 23.8389 12.5113L23.6982 11.4672ZM20.3584 12.3531C19.6318 12.649 18.9404 13.0047 18.2842 13.4148L18.8408 14.3061C19.4443 13.9287 20.083 13.6012 20.751 13.3293L20.3584 12.3531ZM17.3232 14.0723C16.7081 14.5333 16.1329 15.0453 15.6035 15.6027L16.3682 16.3223C16.8545 15.8084 17.3877 15.3373 17.9502 14.9125L17.6689 14.5275L17.3232 14.0723ZM21.3955 14.575L21.1377 15.5969L33.8525 18.8477L34.1104 17.8281L21.3955 14.575ZM14.843 16.4746C14.3631 17.0723 13.9324 17.7168 13.5574 18.3906L14.4744 18.9062C14.8207 18.2793 15.218 17.6875 15.6615 17.1309L14.843 16.4746ZM22.3213 16.9902C22.0928 18.5137 22.4854 20.2246 23.1533 21.6309C23.5283 22.416 23.9854 23.1074 24.4365 23.6113C24.6826 23.8867 24.9287 24.0977 25.1514 24.25L24.835 25.4922C24.5654 25.5156 24.249 25.5859 23.8975 25.709C23.2588 25.9316 22.5264 26.3184 21.8232 26.8281C20.5576 27.7422 19.3975 29.0488 18.8701 30.4961L28.6846 33.0098C28.9131 31.4863 28.5205 29.7754 27.8525 28.3691C27.4775 27.584 27.0205 26.8926 26.5693 26.3887C26.3232 26.1133 26.0771 25.9023 25.8545 25.75L26.1709 24.5078C26.4346 24.4785 26.7568 24.4141 27.1084 24.291C27.7471 24.0684 28.4795 23.6816 29.1826 23.1719C30.4482 22.2578 31.6084 20.9512 32.1357 19.5039L22.3213 16.9902ZM13.0365 19.4277C12.7242 20.1309 12.4682 20.8574 12.2748 21.6133L13.299 21.8594C13.4766 21.168 13.7115 20.5 13.9992 19.8555L13.0365 19.4277ZM12.0381 22.7441C11.9156 23.4766 11.8506 24.2324 11.8506 25V25.0527L12.9053 25.041V25C12.9053 24.291 12.965 23.5938 13.0781 22.9141L12.0381 22.7441ZM17.1533 31.1523L16.8955 32.1719L29.6104 35.4238L29.8682 34.4043L17.1533 31.1523Z" fill="#CD5353"/>
</svg>
