<svg width="36" height="36" viewBox="0 0 36 36" fill="none" xmlns="http://www.w3.org/2000/svg">
<rect x="0.613281" y="0.52832" width="34" height="34" rx="17" stroke="#00C7BE" stroke-opacity="0.15"/>
<path d="M23.5473 9.81836H12.3473C11.7107 9.81836 11.1003 10.0679 10.6502 10.5121C10.2001 10.9562 9.94727 11.5586 9.94727 12.1868V24.0289C9.94751 24.1688 9.98542 24.3061 10.0571 24.4268C10.1288 24.5475 10.2317 24.6472 10.3553 24.7157C10.4748 24.7826 10.6098 24.8179 10.7473 24.8184C10.8909 24.8183 11.0318 24.7801 11.1553 24.7078L14.7473 22.5605C14.88 22.4825 15.0329 22.4441 15.1873 22.4499H23.5473C24.1838 22.4499 24.7942 22.2004 25.2443 21.7562C25.6944 21.3121 25.9473 20.7097 25.9473 20.0815V12.1868C25.9473 11.5586 25.6944 10.9562 25.2443 10.5121C24.7942 10.0679 24.1838 9.81836 23.5473 9.81836ZM14.7473 16.9236C14.589 16.9236 14.4344 16.8773 14.3028 16.7906C14.1713 16.7038 14.0687 16.5805 14.0082 16.4363C13.9476 16.292 13.9318 16.1333 13.9626 15.9801C13.9935 15.827 14.0697 15.6863 14.1816 15.5759C14.2935 15.4655 14.436 15.3903 14.5912 15.3598C14.7464 15.3294 14.9072 15.345 15.0534 15.4048C15.1996 15.4645 15.3245 15.5657 15.4124 15.6955C15.5003 15.8254 15.5473 15.978 15.5473 16.1341C15.5473 16.3435 15.463 16.5443 15.313 16.6924C15.1629 16.8404 14.9594 16.9236 14.7473 16.9236ZM17.9473 16.9236C17.789 16.9236 17.6344 16.8773 17.5028 16.7906C17.3712 16.7038 17.2687 16.5805 17.2082 16.4363C17.1476 16.292 17.1318 16.1333 17.1626 15.9801C17.1935 15.827 17.2697 15.6863 17.3816 15.5759C17.4935 15.4655 17.636 15.3903 17.7912 15.3598C17.9464 15.3294 18.1072 15.345 18.2534 15.4048C18.3996 15.4645 18.5245 15.5657 18.6124 15.6955C18.7003 15.8254 18.7473 15.978 18.7473 16.1341C18.7473 16.3435 18.663 16.5443 18.513 16.6924C18.3629 16.8404 18.1594 16.9236 17.9473 16.9236ZM21.1473 16.9236C20.989 16.9236 20.8344 16.8773 20.7028 16.7906C20.5712 16.7038 20.4687 16.5805 20.4082 16.4363C20.3476 16.292 20.3318 16.1333 20.3626 15.9801C20.3935 15.827 20.4697 15.6863 20.5816 15.5759C20.6935 15.4655 20.836 15.3903 20.9912 15.3598C21.1464 15.3294 21.3072 15.345 21.4534 15.4048C21.5996 15.4645 21.7245 15.5657 21.8124 15.6955C21.9003 15.8254 21.9473 15.978 21.9473 16.1341C21.9473 16.3435 21.863 16.5443 21.713 16.6924C21.5629 16.8404 21.3594 16.9236 21.1473 16.9236Z" fill="#08AAA2"/>
</svg>
