<svg width="60" height="60" viewBox="0 0 60 60" fill="none" xmlns="http://www.w3.org/2000/svg">
<g clip-path="url(#clip0_5906_12490)">
<path d="M43.7119 48.9419L31.9069 42.4019C36.2944 38.95 37.4869 32.1663 37.4869 28.3619V20.4438C37.4869 15.2013 30.5212 9.3625 23.5237 9.3625C16.53 9.3625 9.37875 15.2013 9.37875 20.4438V28.3619C9.37875 31.8213 10.8412 38.8169 15.2738 42.3719L3.165 48.94C3.165 48.94 0 50.35 0 52.1069V56.8581C0 58.6075 1.41937 60.025 3.165 60.025H43.7119C45.4575 60.025 46.8769 58.6056 46.8769 56.8581V52.1069C46.8769 50.2431 43.71 48.94 43.71 48.94L43.7119 48.9419ZM43.1269 56.2788H3.75V52.9263C4.01813 52.7294 4.395 52.5025 4.69125 52.3675C4.77938 52.3281 4.8675 52.285 4.95188 52.2363L17.0625 45.6681C18.1669 45.0681 18.8981 43.9581 19.0106 42.7075C19.1231 41.4569 18.6 40.2325 17.6213 39.4469C14.4769 36.925 13.1287 31.3431 13.1287 28.3638V20.4456C13.1287 17.7513 18.2062 13.1144 23.5237 13.1144C28.9406 13.1144 33.7369 17.6894 33.7369 20.4456V28.3638C33.7369 31.3 32.8256 36.9081 29.5894 39.4544C28.5994 40.2344 28.065 41.4606 28.17 42.715C28.275 43.9694 29.0063 45.0906 30.1106 45.6944L41.9156 52.2344C42.0187 52.2906 42.1519 52.3525 42.2606 52.4013C42.5381 52.5194 42.8775 52.7144 43.1269 52.8869V56.2788ZM56.835 39.6063L44.8538 33.0663C49.2413 29.6144 50.61 22.8306 50.61 19.0263V11.1081C50.61 5.86563 43.47 -0.03125 36.4725 -0.03125C31.9256 -0.03125 27.2775 2.44188 24.5719 5.60688C26.115 5.7025 27.8156 5.70438 29.2856 6.17313C31.2619 4.63375 33.7594 3.72063 36.4725 3.72063C41.8894 3.72063 46.86 8.35188 46.86 11.11V19.0281C46.86 21.9644 45.7725 27.5725 42.5381 30.1188C41.5462 30.8988 41.0138 32.125 41.1188 33.3794C41.2238 34.6356 41.9531 35.755 43.0594 36.3588L55.0406 42.8988C55.1437 42.955 55.2769 43.0169 55.3856 43.0656C55.6631 43.1838 56.0025 43.3788 56.2519 43.5513V46.8869H48.6825C49.8263 47.7494 50.1713 48.9831 50.6156 50.6369H56.8387C58.5844 50.6369 60.0037 49.2175 60.0037 47.47V42.7769C60.0019 40.9113 56.835 39.6063 56.835 39.6063Z" fill="#6A6A6A"/>
</g>
<defs>
<clipPath id="clip0_5906_12490">
<rect width="60" height="60" fill="white"/>
</clipPath>
</defs>
</svg>
