<svg width="24" height="24" viewBox="0 0 24 24" fill="none" xmlns="http://www.w3.org/2000/svg">
<path d="M11.9976 7.4976C11.1076 7.4976 10.2376 7.76152 9.49754 8.25599C8.75751 8.75046 8.18074 9.45326 7.84014 10.2755C7.49955 11.0978 7.41044 12.0026 7.58407 12.8755C7.7577 13.7484 8.18629 14.5502 8.81562 15.1796C9.44496 15.8089 10.2468 16.2375 11.1197 16.4111C11.9926 16.5848 12.8974 16.4957 13.7197 16.1551C14.5419 15.8145 15.2447 15.2377 15.7392 14.4977C16.2337 13.7576 16.4976 12.8876 16.4976 11.9976C16.4964 10.8045 16.0219 9.66064 15.1782 8.81699C14.3346 7.97335 13.1907 7.49884 11.9976 7.4976ZM11.9976 14.9976C11.4043 14.9976 10.8242 14.8217 10.3309 14.492C9.83754 14.1624 9.45303 13.6938 9.22596 13.1457C8.9989 12.5975 8.93949 11.9943 9.05525 11.4123C9.171 10.8304 9.45672 10.2958 9.87628 9.87628C10.2958 9.45672 10.8304 9.171 11.4123 9.05525C11.9943 8.93949 12.5975 8.9989 13.1457 9.22596C13.6938 9.45303 14.1624 9.83754 14.492 10.3309C14.8217 10.8242 14.9976 11.4043 14.9976 11.9976C14.9976 12.7933 14.6815 13.5563 14.1189 14.1189C13.5563 14.6815 12.7933 14.9976 11.9976 14.9976ZM20.2476 12.2001C20.2514 12.0651 20.2514 11.9301 20.2476 11.7951L21.6464 10.0476C21.7197 9.95585 21.7705 9.84815 21.7946 9.73319C21.8187 9.61823 21.8154 9.49921 21.7851 9.38573C21.5558 8.52379 21.2128 7.69621 20.7651 6.92479C20.7065 6.82384 20.6251 6.73796 20.5275 6.674C20.4298 6.61004 20.3186 6.56975 20.2026 6.55635L17.9789 6.30885C17.8864 6.21135 17.7926 6.1176 17.6976 6.0276L17.4351 3.79823C17.4216 3.68218 17.3812 3.57088 17.317 3.47322C17.2529 3.37556 17.1669 3.29424 17.0657 3.23573C16.294 2.78886 15.4665 2.4462 14.6048 2.21666C14.4912 2.18647 14.3722 2.18339 14.2572 2.20765C14.1422 2.23191 14.0346 2.28285 13.9429 2.35635L12.2001 3.7476C12.0651 3.7476 11.9301 3.7476 11.7951 3.7476L10.0476 2.35166C9.95585 2.27832 9.84815 2.22756 9.73319 2.20346C9.61823 2.17936 9.49921 2.1826 9.38573 2.21291C8.52393 2.44263 7.6964 2.78562 6.92479 3.23291C6.82384 3.29153 6.73796 3.37291 6.674 3.47056C6.61004 3.56821 6.56975 3.67945 6.55635 3.79541L6.30885 6.02291C6.21135 6.11604 6.1176 6.20979 6.0276 6.30416L3.79823 6.5601C3.68218 6.5736 3.57088 6.61403 3.47322 6.67816C3.37556 6.74229 3.29424 6.82835 3.23573 6.92948C2.78886 7.70119 2.4462 8.5287 2.21666 9.39041C2.18647 9.50397 2.18339 9.62303 2.20765 9.73799C2.23191 9.85296 2.28285 9.96062 2.35635 10.0523L3.7476 11.7951C3.7476 11.9301 3.7476 12.0651 3.7476 12.2001L2.35166 13.9476C2.27832 14.0394 2.22756 14.147 2.20346 14.262C2.17936 14.377 2.1826 14.496 2.21291 14.6095C2.44222 15.4714 2.78523 16.299 3.23291 17.0704C3.29153 17.1714 3.37291 17.2572 3.47056 17.3212C3.56821 17.3852 3.67945 17.4255 3.79541 17.4389L6.01916 17.6864C6.11229 17.7839 6.20604 17.8776 6.30041 17.9676L6.5601 20.197C6.5736 20.313 6.61403 20.4243 6.67816 20.522C6.74229 20.6196 6.82835 20.701 6.92948 20.7595C7.70119 21.2063 8.5287 21.549 9.39041 21.7785C9.50397 21.8087 9.62303 21.8118 9.73799 21.7876C9.85296 21.7633 9.96062 21.7124 10.0523 21.6389L11.7951 20.2476C11.9301 20.2514 12.0651 20.2514 12.2001 20.2476L13.9476 21.6464C14.0394 21.7197 14.147 21.7705 14.262 21.7946C14.377 21.8187 14.496 21.8154 14.6095 21.7851C15.4714 21.5558 16.299 21.2128 17.0704 20.7651C17.1714 20.7065 17.2572 20.6251 17.3212 20.5275C17.3852 20.4298 17.4255 20.3186 17.4389 20.2026L17.6864 17.9789C17.7839 17.8864 17.8776 17.7926 17.9676 17.6976L20.197 17.4351C20.313 17.4216 20.4243 17.3812 20.522 17.317C20.6196 17.2529 20.701 17.1669 20.7595 17.0657C21.2063 16.294 21.549 15.4665 21.7785 14.6048C21.8087 14.4912 21.8118 14.3722 21.7876 14.2572C21.7633 14.1422 21.7124 14.0346 21.6389 13.9429L20.2476 12.2001ZM18.7382 11.5907C18.7542 11.8617 18.7542 12.1335 18.7382 12.4045C18.7271 12.59 18.7852 12.7731 18.9014 12.9182L20.2317 14.5804C20.079 15.0655 19.8836 15.5361 19.6476 15.9867L17.5289 16.2267C17.3443 16.2471 17.174 16.3353 17.0507 16.4742C16.8703 16.6771 16.6781 16.8693 16.4751 17.0498C16.3363 17.173 16.2481 17.3434 16.2276 17.5279L15.9923 19.6448C15.5418 19.8809 15.0712 20.0763 14.586 20.2289L12.9229 18.8985C12.7898 18.7922 12.6245 18.7343 12.4542 18.7345H12.4092C12.1381 18.7504 11.8664 18.7504 11.5954 18.7345C11.4099 18.7233 11.2268 18.7814 11.0817 18.8976L9.41479 20.2289C8.92966 20.0762 8.45906 19.8807 8.00854 19.6448L7.76854 17.5289C7.74806 17.3443 7.65987 17.174 7.52104 17.0507C7.31808 16.8703 7.12587 16.6781 6.94541 16.4751C6.82216 16.3363 6.6518 16.2481 6.46729 16.2276L4.35041 15.9914C4.11434 15.5409 3.91888 15.0703 3.76635 14.5851L5.09666 12.922C5.21283 12.7769 5.27096 12.5938 5.25979 12.4082C5.24385 12.1372 5.24385 11.8655 5.25979 11.5945C5.27096 11.4089 5.21283 11.2258 5.09666 11.0807L3.76635 9.41479C3.919 8.92966 4.11446 8.45906 4.35041 8.00854L6.46635 7.76854C6.65087 7.74806 6.82123 7.65987 6.94448 7.52104C7.12494 7.31808 7.31714 7.12587 7.5201 6.94541C7.65949 6.82208 7.74804 6.65133 7.76854 6.46635L8.00385 4.35041C8.45432 4.11434 8.92493 3.91888 9.4101 3.76635L11.0732 5.09666C11.2183 5.21283 11.4014 5.27096 11.587 5.25979C11.858 5.24385 12.1297 5.24385 12.4007 5.25979C12.5863 5.27096 12.7694 5.21283 12.9145 5.09666L14.5804 3.76635C15.0655 3.919 15.5361 4.11446 15.9867 4.35041L16.2267 6.46635C16.2471 6.65087 16.3353 6.82123 16.4742 6.94448C16.6771 7.12494 16.8693 7.31714 17.0498 7.5201C17.173 7.65893 17.3434 7.74712 17.5279 7.7676L19.6448 8.00291C19.8809 8.45339 20.0763 8.924 20.2289 9.40916L18.8985 11.0723C18.7813 11.2186 18.7231 11.4036 18.7354 11.5907H18.7382Z" fill="#6A6A6A"/>
</svg>
