<svg width="40" height="39" viewBox="0 0 40 39" fill="none" xmlns="http://www.w3.org/2000/svg">
<rect x="0.613281" y="0.556641" width="37.9435" height="37.9435" rx="18.9717" stroke="#D3F0F0"/>
<path d="M22.2162 26.8433C20.5803 27.3939 18.8118 27.4114 17.1652 26.8932C15.5187 26.3749 14.079 25.3477 13.0533 23.9593C12.0276 22.571 11.4688 20.893 11.4572 19.1669C11.4457 17.4407 11.982 15.7554 12.989 14.3535C13.996 12.9515 15.4218 11.9051 17.0613 11.3649C18.7007 10.8246 20.4693 10.8184 22.1125 11.3471C23.7557 11.8757 25.1889 12.9121 26.2057 14.3069C27.2226 15.7018 27.7708 17.3832 27.7714 19.1094C27.745 19.7711 27.6649 20.4295 27.5319 21.0782" stroke="#24B2B4" stroke-width="0.984375"/>
<path d="M21.5361 25.3223C20.9493 25.989 20.3059 26.6038 19.6133 27.1598" stroke="#24B2B4" stroke-width="0.984375"/>
<path d="M19.6133 10.8535C21.8152 12.7773 23.1776 15.4857 23.4097 18.4004C23.4573 18.9295 23.4672 19.4613 23.4392 19.9918" stroke="#24B2B4" stroke-width="0.984375"/>
<path d="M19.6131 10.8535C18.4185 11.8948 17.4587 13.1781 16.7974 14.6183C16.1361 16.0585 15.7884 17.6228 15.7773 19.2076C15.7773 24.5232 18.1661 26.0982 19.6033 27.1613" stroke="#24B2B4" stroke-width="0.984375"/>
<path d="M12.5156 15.0879H26.7497" stroke="#24B2B4" stroke-width="0.984375"/>
<path d="M19.6133 10.8457V27.1568" stroke="#24B2B4" stroke-width="0.984375"/>
<path d="M12.7383 23.4785H21.2663" stroke="#24B2B4" stroke-width="0.984375"/>
<path d="M11.457 19.2099L27.7714 19.0098" stroke="#24B2B4" stroke-width="0.984375"/>
<path d="M26.693 27.2581L28.1466 25.8012L25.5216 23.1762L27.0146 22.2214C27.0364 22.2085 27.0537 22.1894 27.0643 22.1664C27.0749 22.1435 27.0783 22.1179 27.0741 22.093C27.0698 22.0681 27.0581 22.0451 27.0404 22.027C27.0228 22.0089 27 21.9966 26.9752 21.9917L21.9582 20.817C21.9375 20.8128 21.916 20.8138 21.8958 20.8199C21.8755 20.826 21.8571 20.837 21.8422 20.8519C21.8272 20.8669 21.8162 20.8853 21.8101 20.9056C21.804 20.9258 21.803 20.9472 21.8073 20.968L22.8966 26.0802C22.9019 26.105 22.9144 26.1277 22.9326 26.1455C22.9508 26.1632 22.9738 26.1751 22.9988 26.1796C23.0238 26.1842 23.0496 26.1813 23.0729 26.1711C23.0962 26.161 23.1159 26.1442 23.1296 26.1228L24.068 24.6331L26.693 27.2581Z" stroke="#24B2B4" stroke-width="0.984375"/>
</svg>
