<svg width="29" height="29" viewBox="0 0 29 29" fill="none" xmlns="http://www.w3.org/2000/svg">
<rect width="29" height="29" rx="4" fill="#ECD2EC"/>
<path d="M14.3816 7C13.1075 6.99972 11.855 7.32932 10.746 7.95672C9.63704 8.58412 8.7094 9.48795 8.05338 10.5802C7.39736 11.6725 7.0353 12.916 7.00245 14.1897C6.9696 15.4634 7.26708 16.724 7.86592 17.8486L7.06051 20.2648C6.99379 20.4649 6.98411 20.6796 7.03255 20.8848C7.08098 21.0901 7.18562 21.2778 7.33474 21.4269C7.48386 21.576 7.67156 21.6806 7.8768 21.7291C8.08204 21.7775 8.29672 21.7678 8.49677 21.7011L10.913 20.8957C11.9028 21.4221 12.9994 21.7161 14.1198 21.7555C15.2401 21.7948 16.3547 21.5783 17.3789 21.1226C18.4031 20.6668 19.3101 19.9837 20.0309 19.1251C20.7517 18.2665 21.2674 17.255 21.5389 16.1673C21.8104 15.0797 21.8305 13.9444 21.5978 12.8478C21.365 11.7512 20.8855 10.722 20.1957 9.8384C19.5058 8.95477 18.6237 8.23993 17.6163 7.74812C16.6089 7.2563 15.5027 7.00046 14.3816 7ZM14.3816 20.6246C13.2838 20.6254 12.2053 20.3363 11.255 19.7866C11.1855 19.7462 11.1081 19.7211 11.0281 19.7129C10.9481 19.7047 10.8673 19.7136 10.791 19.739L8.137 20.6246L9.02189 17.9707C9.04739 17.8944 9.05641 17.8136 9.04833 17.7336C9.04026 17.6536 9.01528 17.5762 8.97505 17.5066C8.2867 16.3165 8.01034 14.9325 8.18882 13.5693C8.3673 12.2061 8.99066 10.9399 9.96219 9.96718C10.9337 8.99442 12.1991 8.36947 13.5621 8.18926C14.925 8.00906 16.3094 8.28368 17.5003 8.97052C18.6913 9.65736 19.6223 10.718 20.1489 11.988C20.6755 13.258 20.7683 14.6662 20.4129 15.9943C20.0575 17.3224 19.2738 18.4961 18.1833 19.3333C17.0927 20.1705 15.7564 20.6244 14.3816 20.6246Z" fill="#AE0DAE"/>
</svg>
