<svg width="29" height="29" viewBox="0 0 29 29" fill="none" xmlns="http://www.w3.org/2000/svg">
<g clip-path="url(#clip0_1066_6564)">
<rect width="29" height="29" rx="4" fill="#004DFF" fill-opacity="0.2"/>
<path d="M14 9C7.57143 9 5 14.7857 5 14.7857C5 14.7857 7.57143 20.5714 14 20.5714C20.4286 20.5714 23 14.7857 23 14.7857C23 14.7857 20.4286 9 14 9Z" stroke="#004DFF" stroke-width="1.41872" stroke-linecap="round" stroke-linejoin="round"/>
<path d="M14.2143 17.6161C15.9895 17.6161 17.4286 16.177 17.4286 14.4018C17.4286 12.6266 15.9895 11.1875 14.2143 11.1875C12.4391 11.1875 11 12.6266 11 14.4018C11 16.177 12.4391 17.6161 14.2143 17.6161Z" stroke="#004DFF" stroke-width="1.41872" stroke-linecap="round" stroke-linejoin="round"/>
</g>
<defs>
<clipPath id="clip0_1066_6564">
<rect width="29" height="29" rx="4" fill="white"/>
</clipPath>
</defs>
</svg>
