<svg width="29" height="29" viewBox="0 0 29 29" fill="none" xmlns="http://www.w3.org/2000/svg">
<rect width="29" height="29" rx="4" fill="#FFC8C8"/>
<path d="M18.0179 7C16.3585 7 14.9056 7.71357 14 8.91973C13.0944 7.71357 11.6415 7 9.98214 7C8.66125 7.00149 7.39489 7.52687 6.46088 8.46088C5.52687 9.39489 5.00149 10.6613 5 11.9821C5 17.6071 13.3403 22.1602 13.6954 22.3482C13.7891 22.3986 13.8937 22.4249 14 22.4249C14.1063 22.4249 14.2109 22.3986 14.3046 22.3482C14.6597 22.1602 23 17.6071 23 11.9821C22.9985 10.6613 22.4731 9.39489 21.5391 8.46088C20.6051 7.52687 19.3387 7.00149 18.0179 7ZM14 21.0464C12.5327 20.1914 6.28571 16.2965 6.28571 11.9821C6.28699 11.0022 6.67684 10.0627 7.36978 9.36978C8.06272 8.67684 9.00218 8.28699 9.98214 8.28571C11.5451 8.28571 12.8573 9.11821 13.4054 10.4554C13.4538 10.5733 13.5362 10.6741 13.6421 10.7451C13.7479 10.8161 13.8725 10.854 14 10.854C14.1275 10.854 14.2521 10.8161 14.3579 10.7451C14.4638 10.6741 14.5462 10.5733 14.5946 10.4554C15.1427 9.1158 16.4549 8.28571 18.0179 8.28571C18.9978 8.28699 19.9373 8.67684 20.6302 9.36978C21.3232 10.0627 21.713 11.0022 21.7143 11.9821C21.7143 16.2901 15.4657 20.1906 14 21.0464Z" fill="#FB2424"/>
</svg>
