<svg width="121" height="121" viewBox="0 0 121 121" fill="none" xmlns="http://www.w3.org/2000/svg">
<path d="M2.56241 110.63L2.44141 110.42L65.4146 74.0625L65.4751 74.0976L117.575 104.178L117.454 104.387L65.4146 74.342L2.56241 110.63Z" fill="#E0E0E0"/>
<path d="M113.331 63.3627L112.744 63.5643L91.1152 51.0771L91.7014 50.875L113.331 63.3627Z" fill="#FAFAFA"/>
<path d="M91.7034 50.8766L112.746 63.0243L112.746 26.7461L91.7031 14.6016L91.7034 50.8766Z" fill="white"/>
<path d="M90.008 51.4351L113.85 65.2003V26.3746L90.0078 12.6094L90.008 51.4351ZM91.1147 14.2513L112.743 26.7385L112.743 63.5584L91.1147 51.0712V14.2513Z" fill="#F0F0F0"/>
<path d="M91.1155 51.074L91.7016 50.8719L91.7014 14.5968L91.1152 14.2539L91.1155 51.074Z" fill="#E0E0E0"/>
<path d="M112.744 52.1723V52.7127L91.1152 40.2253L91.7014 40.0234L112.744 52.1723Z" fill="#FAFAFA"/>
<path d="M112.744 36.0476V36.5877L91.1152 24.1005L91.7014 23.8984L112.744 36.0476Z" fill="#FAFAFA"/>
<path d="M90.0078 12.6118L90.6031 12.418L114.445 26.1832L113.85 26.3768L90.0078 12.6118Z" fill="#FAFAFA"/>
<path d="M114.445 26.1836L113.85 26.3772V65.2029L114.445 65.0094V26.1836Z" fill="#E0E0E0"/>
<path d="M103.099 21.1759L102.504 20.832V57.6535L103.099 57.4597V21.1759Z" fill="#E0E0E0"/>
<path d="M101.396 20.1914L102.503 20.8281V57.6496L101.397 57.009L101.396 20.1914Z" fill="#F0F0F0"/>
<path d="M90.0078 23.4648V24.4667L113.85 38.2317V37.23L90.0078 23.4648Z" fill="#F0F0F0"/>
<path d="M90.0078 39.5938V40.5956L113.85 54.3608V53.359L90.0078 39.5938Z" fill="#F0F0F0"/>
<path d="M102.504 30.6731L103.099 30.4766L112.744 36.0452V36.5854L102.504 30.6731Z" fill="#FAFAFA"/>
<path d="M102.504 46.7981L103.099 46.6016L112.744 52.1702V52.7104L102.504 46.7981Z" fill="#FAFAFA"/>
<path d="M85.4369 44.199L84.944 44.4913L74.8555 38.6405L75.3482 38.3477L85.4369 44.199Z" fill="#FAFAFA"/>
<path d="M75.3477 38.3505L84.9446 43.9153L84.964 33.8541L75.367 28.293L75.3477 38.3505Z" fill="white"/>
<path d="M73.9258 39.1755L85.8699 46.1027L85.8949 33.3179L73.9507 26.3906L73.9258 39.1755ZM74.8766 28.0011L84.9651 33.852L84.9445 44.4922L74.856 38.6411L74.8766 28.0011Z" fill="#F0F0F0"/>
<path d="M74.8555 38.6403L75.3482 38.3474L75.3675 28.2899L74.8763 28L74.8555 38.6403Z" fill="#E0E0E0"/>
<path d="M73.9512 26.3905L74.4516 26.1055L86.3958 33.0327L85.8953 33.3178L73.9512 26.3905Z" fill="#FAFAFA"/>
<path d="M86.3945 33.0352L85.8941 33.3202L85.8691 46.1051L86.3696 45.82L86.3945 33.0352Z" fill="#E0E0E0"/>
<path d="M75.7227 38.0497L84.5702 43.1811L84.5753 40.6238L82.3706 35.5058L80.9886 36.7814L81.4806 38.9257L78.435 32.3789L75.7275 35.4927L75.7227 38.0497Z" fill="#F0F0F0"/>
<path d="M81.0796 33.0353C81.441 33.2449 81.7333 33.7536 81.7326 34.1713C81.7318 34.589 81.4381 34.7579 81.0767 34.5483C80.7154 34.3387 80.4231 33.83 80.4238 33.4123C80.4246 32.9947 80.7183 32.8257 81.0796 33.0353Z" fill="#F0F0F0"/>
<path d="M85.4369 27.0308L84.944 27.3233L74.8555 21.4723L75.3482 21.1797L85.4369 27.0308Z" fill="#FAFAFA"/>
<path d="M75.3535 21.1789L84.9505 26.7434L84.9699 16.6823L75.3729 11.1211L75.3535 21.1789Z" fill="white"/>
<path d="M73.9258 22.0073L85.8702 28.9345L85.8951 16.1497L73.9507 9.22266L73.9258 22.0073ZM74.8768 10.8332L84.9653 16.684L84.9448 27.3243L74.8563 21.4732L74.8768 10.8332Z" fill="#F0F0F0"/>
<path d="M74.8555 21.472L75.3482 21.1795L75.3675 11.1217L74.8763 10.832L74.8555 21.472Z" fill="#E0E0E0"/>
<path d="M73.9512 9.22258L74.4516 8.9375L86.396 15.8645L85.8956 16.1496L73.9512 9.22258Z" fill="#FAFAFA"/>
<path d="M86.3965 15.8672L85.896 16.1523L85.8711 28.9371L86.3715 28.652L86.3965 15.8672Z" fill="#E0E0E0"/>
<path d="M75.7246 20.8815L84.5721 26.0128L84.5772 23.4559L82.3726 18.3376L80.9905 19.6134L81.4825 21.7578L78.4369 15.2109L75.7294 18.3248L75.7246 20.8815Z" fill="#F0F0F0"/>
<path d="M81.0816 15.8674C81.4431 16.077 81.7352 16.5856 81.7345 17.0033C81.7338 17.421 81.44 17.5899 81.0787 17.3804C80.7174 17.1708 80.4251 16.6621 80.4258 16.2444C80.4265 15.8265 80.7201 15.6578 81.0816 15.8674Z" fill="#F0F0F0"/>
<path d="M38.3893 91.2948L9.86523 107.745L10.9552 75.9062L38.3893 91.2948Z" fill="#E0E0E0"/>
<g opacity="0.15">
<path d="M38.3893 91.3152L9.86523 107.766L9.88653 74.8984L38.3893 91.3152Z" fill="black"/>
</g>
<path d="M8.56836 29.1763V107.023L37.0927 90.5758V12.7266L8.56836 29.1763ZM21.0817 56.4577L12.7784 61.2357V30.0262L21.0817 25.2481V56.4577ZM33.0721 49.519L24.7974 54.3019L24.7949 23.0924L33.0718 18.3095L33.0721 49.519Z" fill="#24B2B4"/>
<path opacity="0.4" d="M8.56836 29.1763V107.023L37.0927 90.5758V12.7266L8.56836 29.1763ZM21.0817 56.4577L12.7784 61.2357V30.0262L21.0817 25.2481V56.4577ZM33.0721 49.519L24.7974 54.3019L24.7949 23.0924L33.0718 18.3095L33.0721 49.519Z" fill="white"/>
<path opacity="0.4" d="M21.0796 56.4609L21.9767 56.9788L12.7773 62.2747V61.2385L21.0796 56.4609Z" fill="white"/>
<path opacity="0.4" d="M33.0732 49.5195L33.9705 50.0374L24.7997 55.3367L23.9023 54.8188L33.0732 49.5195Z" fill="white"/>
<path opacity="0.7" d="M33.0723 49.5229V18.3006L33.972 17.7812L33.9696 50.0408L33.0723 49.5229Z" fill="#24B2B4"/>
<path d="M21.9766 56.9825L24.798 55.3442V23.0977L21.9766 24.736V56.9825Z" fill="#24B2B4"/>
<path opacity="0.4" d="M21.9766 56.9825L24.798 55.3442V23.0977L21.9766 24.736V56.9825Z" fill="white"/>
<path opacity="0.7" d="M21.9772 56.9809L21.0801 56.463V25.2523L21.9772 24.7344V56.9809Z" fill="#24B2B4"/>
<path opacity="0.4" d="M21.9772 61.2891L12.7773 66.585L12.7778 99.831L21.9772 94.5353V61.2891Z" fill="white"/>
<path d="M21.3467 63.3828L14.2305 67.4758L14.2307 97.2645L21.3467 93.1716V63.3828Z" fill="#24B2B4"/>
<path opacity="0.4" d="M21.3467 63.3828L14.2305 67.4758L14.2307 97.2645L21.3467 93.1716V63.3828Z" fill="white"/>
<path opacity="0.7" d="M12.7773 66.582L14.2291 67.4723L14.2293 97.2611L12.7778 99.828L12.7773 66.582Z" fill="#24B2B4"/>
<path opacity="0.7" d="M21.9756 61.2891L21.3438 63.3824V93.1711L21.9756 94.5353V61.2891Z" fill="#24B2B4"/>
<path d="M21.9767 94.5321L21.3449 93.168L14.2289 97.2609L12.7773 99.8278L21.9767 94.5321Z" fill="#24B2B4"/>
<path opacity="0.4" d="M33.9723 54.3477L24.7988 59.6482L24.7993 92.8941L33.9723 87.5936V54.3477Z" fill="white"/>
<path d="M33.3396 56.4414L26.25 60.5392L26.2502 90.3277L33.3396 86.2302V56.4414Z" fill="#24B2B4"/>
<path opacity="0.4" d="M33.3396 56.4414L26.25 60.5392L26.2502 90.3277L33.3396 86.2302V56.4414Z" fill="white"/>
<path opacity="0.7" d="M24.7988 59.6484L26.2506 60.5388L26.2508 90.3273L24.7993 92.8944L24.7988 59.6484Z" fill="#24B2B4"/>
<path opacity="0.7" d="M33.972 54.3477L33.3398 56.4407V86.2295L33.972 87.5936V54.3477Z" fill="#24B2B4"/>
<path d="M33.9718 87.5907L33.3397 86.2266L26.2503 90.3241L24.7988 92.8912L33.9718 87.5907Z" fill="#24B2B4"/>
<path d="M10.1816 63.8984L10.6414 64.1639L10.6417 71.7959L10.1819 71.5304L10.1816 63.8984Z" fill="#E0E0E0"/>
<path d="M10.6426 64.1614L13.1214 62.7305V70.3624L10.6428 71.7934L10.6426 64.1614Z" fill="#FAFAFA"/>
<path opacity="0.05" d="M13.1222 64.832L12.0371 65.4586L12.0374 66.6991C12.0374 66.813 12.1608 66.8842 12.2593 66.8273L13.122 66.3293L13.1222 64.832Z" fill="black"/>
<path d="M13.1202 62.7301L12.6602 62.4648L10.1816 63.8956L10.6414 64.161L13.1202 62.7301Z" fill="#EBEBEB"/>
<path d="M11.5922 65.2003L12.7291 65.8565L13.1843 65.0684L12.0474 64.4121C11.9891 64.3784 11.9087 64.3833 11.8199 64.4346C11.6423 64.5372 11.498 64.7867 11.498 64.9919C11.498 65.0945 11.5341 65.1666 11.5922 65.2003Z" fill="#E0E0E0"/>
<path opacity="0.1" d="M12.0352 65.4612L12.4485 65.6998L12.4483 65.1568L12.8884 64.9027L12.4751 64.6641L12.0352 64.9182V65.4612Z" fill="black"/>
<path d="M12.5879 65.2405L12.5881 66.4328L17.1334 63.8098V62.6172L12.5879 65.2405Z" fill="#FAFAFA"/>
<path d="M12.5869 65.2428L12.1738 65.0039V66.1965L12.5872 66.4351L12.5869 65.2428Z" fill="#E0E0E0"/>
<path d="M17.1324 62.6178L16.7193 62.3789L12.1738 65.0022L12.5869 65.241L17.1324 62.6178Z" fill="#EBEBEB"/>
<path d="M11.4629 68.5655C11.4629 68.2993 11.65 67.9753 11.8803 67.8422C12.111 67.7091 12.298 67.817 12.298 68.0832C12.298 68.2814 12.194 68.511 12.0461 68.6708V69.45C12.0461 69.54 11.9829 69.6497 11.9048 69.6947L11.8559 69.7227C11.778 69.7678 11.7146 69.7312 11.7146 69.6412V68.8627C11.5667 68.874 11.4629 68.7639 11.4629 68.5655Z" fill="#455A64"/>
<path d="M7.26416 106.269L8.57047 107.023L8.56975 29.1762L7.26367 28.4219L7.26416 106.269Z" fill="#263238"/>
<path d="M35.7877 11.9727L7.26367 28.4231L8.56975 29.1774L37.0938 12.7267L35.7877 11.9727Z" fill="#37474F"/>
<path d="M37.0977 90.5748L38.3938 91.3032V11.9766L37.0977 12.7246V90.5748Z" fill="#E0E0E0"/>
<path d="M38.3905 91.3066L40.5438 90.0632V7.91797L7.70898 26.855L7.70947 108.993L9.86641 107.757V28.4304L38.39 11.9799L38.3905 91.3066Z" fill="#F0F0F0"/>
<path d="M40.545 7.91558L7.71016 26.8526L6.43555 26.1128L39.2713 7.17578L40.545 7.91558Z" fill="#FAFAFA"/>
<path d="M7.70992 108.991L7.71016 26.8531L6.43555 26.1133L6.43579 108.256L7.70992 108.991Z" fill="#E0E0E0"/>
<path d="M83.8206 67.2201C83.8206 66.6681 84.1853 66.1158 84.9149 65.6945L87.0665 64.4523C88.5258 63.6097 90.8918 63.6097 92.3511 64.4523L111.854 75.7123C112.584 76.1341 112.949 76.6871 112.948 77.2398L112.947 102.998C112.949 103.552 112.585 104.105 111.853 104.528L109.702 105.769C108.243 106.612 105.877 106.612 104.418 105.769L84.9146 94.5094C84.185 94.0881 83.8203 93.5361 83.8203 92.9841V67.2201H83.8206Z" fill="#24B2B4"/>
<path opacity="0.4" d="M83.8206 67.2201C83.8206 66.6681 84.1853 66.1158 84.9149 65.6945L87.0665 64.4523C88.5258 63.6097 90.8918 63.6097 92.3511 64.4523L111.854 75.7123C112.584 76.1341 112.949 76.6871 112.948 77.2398L112.947 102.998C112.949 103.552 112.585 104.105 111.853 104.528L109.702 105.769C108.243 106.612 105.877 106.612 104.418 105.769L84.9146 94.5094C84.185 94.0881 83.8203 93.5361 83.8203 92.9841V67.2201H83.8206Z" fill="white"/>
<path opacity="0.4" d="M109.703 80.0054L111.854 78.7634C113.313 77.9208 113.313 76.5547 111.854 75.7123L92.3512 64.4523C90.8919 63.6097 88.5259 63.6097 87.0664 64.4523L84.9148 65.6945C83.4555 66.5371 83.4555 67.903 84.9148 68.7456L104.418 80.0056C105.878 80.848 108.244 80.848 109.703 80.0054Z" fill="white"/>
<path opacity="0.3" d="M107.057 80.6372V106.401C108.015 106.401 108.973 106.194 109.699 105.773L111.853 104.528C112.585 104.107 112.952 103.551 112.945 102.996V77.2383C112.945 77.7937 112.585 78.3428 111.853 78.7639L109.699 80.0087C108.973 80.4298 108.015 80.6372 107.057 80.6372Z" fill="#24B2B4"/>
<path d="M92.8643 93.3784L97.5209 96.067L96.7994 87.6432C97.3563 87.3487 97.7113 86.6241 97.7113 85.5835C97.7113 83.7289 96.5836 81.5741 95.1923 80.7709C93.8016 79.9679 92.6738 80.8205 92.6738 82.6754C92.6738 83.7158 93.0288 84.8505 93.5857 85.788L92.8643 93.3784Z" fill="#455A64"/>
<path d="M92.8633 93.3806L97.0811 90.9453L97.5198 96.0692L92.8633 93.3806Z" fill="#37474F"/>
<path d="M95.1921 80.7709C96.1022 81.2965 96.8975 82.4012 97.3401 83.6214L93.5854 85.7892L93.5857 85.788C93.0286 84.8505 92.6738 83.7158 92.6738 82.6754C92.6736 80.8205 93.8013 79.9679 95.1921 80.7709Z" fill="#37474F"/>
<path d="M89.0903 67.7939C89.0903 67.793 89.0898 67.7917 89.0898 67.7905H89.0903V57.4903C89.0903 54.3 90.296 51.7742 92.3982 50.5606C94.4046 49.4022 96.8859 49.5592 99.386 51.0023C103.977 53.6531 107.574 60.1218 107.574 65.7282V76.0851H107.575C107.575 76.3963 107.367 76.7073 106.956 76.9447C106.134 77.4195 104.8 77.4195 103.978 76.9447C103.567 76.7073 103.359 76.3961 103.359 76.0851H103.359V65.7282C103.359 61.6278 100.574 56.5559 97.2786 54.6528C96.1548 54.004 95.1447 53.8429 94.5063 54.2109C93.7546 54.6449 93.306 55.8708 93.306 57.4903V67.7905H93.3062C93.3062 67.791 93.306 67.7915 93.306 67.792V67.7978H93.305C93.3016 68.1066 93.0954 68.4147 92.6874 68.6501C91.8651 69.1249 90.5314 69.1252 89.7091 68.6501C89.3011 68.4147 89.0947 68.1063 89.0915 67.7978H89.0908V67.7939H89.0903Z" fill="#455A64"/>
<path d="M80.6192 102.606V103.258C80.6165 104.024 81.1215 104.791 82.1343 105.376C83.6596 106.257 85.8998 106.472 87.7758 106.022L89.5182 107.028L90.857 106.726L91.7705 107.253L91.8204 108.357L92.3126 108.642L93.5487 108.75L94.4371 109.246V109.868L95.552 110.512H98.387L99.4032 109.926V109.267L90.3357 104.69C90.7534 104.247 90.9627 103.756 90.9637 103.265V102.606C90.8274 101.969 90.297 101.641 89.4505 101.152C87.4302 99.9857 84.1545 99.9857 82.1343 101.152C81.2261 101.677 80.7109 101.92 80.6192 102.606ZM83.3963 101.844C83.9687 101.513 84.8965 101.513 85.4688 101.844C86.0412 102.174 86.0412 102.71 85.4688 103.04C84.8965 103.371 83.9687 103.371 83.3963 103.04C82.824 102.71 82.824 102.174 83.3963 101.844Z" fill="#E0E0E0"/>
<path d="M82.1345 104.72C83.6598 105.6 85.9 105.815 87.776 105.366L89.5184 106.372L90.8571 106.069L91.7707 106.597L91.8205 107.701L92.3128 107.985L93.5489 108.094L94.5128 108.632L94.4373 109.212L95.5522 109.856H98.3872L99.4034 109.269L90.3359 104.034C91.4038 102.901 91.1107 101.454 89.4506 100.496C87.4304 99.3295 84.1547 99.3295 82.1345 100.496C80.114 101.662 80.114 103.553 82.1345 104.72ZM83.3963 101.187C83.9686 100.857 84.8964 100.857 85.4688 101.187C86.0411 101.517 86.0411 102.053 85.4688 102.384C84.8964 102.714 83.9686 102.714 83.3963 102.384C82.8239 102.053 82.8239 101.518 83.3963 101.187Z" fill="#F0F0F0"/>
<g opacity="0.1">
<path d="M82.4328 104.203C81.6587 103.756 81.2148 103.175 81.2148 102.607C81.2148 102.038 81.6587 101.457 82.4328 101.01C83.321 100.497 84.5145 100.215 85.7935 100.215C87.0725 100.215 88.266 100.497 89.1541 101.01C89.9283 101.457 90.3719 102.039 90.3719 102.607C90.3719 103.174 89.9281 103.757 89.1541 104.203C88.2658 104.716 87.0722 104.998 85.7935 104.998C84.5148 104.998 83.3215 104.716 82.4328 104.203ZM82.5258 101.171C81.8109 101.583 81.4009 102.107 81.4009 102.606C81.4009 103.106 81.8109 103.629 82.5258 104.042C83.3865 104.539 84.5467 104.812 85.7932 104.812C87.0398 104.812 88.2002 104.539 89.061 104.042C89.7758 103.629 90.1858 103.106 90.1858 102.606C90.1858 102.107 89.7758 101.583 89.061 101.171C88.2009 100.674 87.0403 100.4 85.7932 100.4C84.5465 100.4 83.3858 100.674 82.5258 101.171Z" fill="black"/>
</g>
<path opacity="0.1" d="M83.9316 105.391V106.049C85.1675 106.324 86.5501 106.315 87.777 106.021V105.363C86.5503 105.657 85.1675 105.666 83.9316 105.391Z" fill="black"/>
<path opacity="0.1" d="M89.5195 106.369V107.027L90.8583 106.725V106.066L89.5195 106.369Z" fill="black"/>
<path opacity="0.1" d="M91.7715 106.594V107.252L91.8213 108.356V107.698L91.7715 106.594Z" fill="black"/>
<path opacity="0.1" d="M92.3125 107.988V108.647L93.5486 108.755V108.097L92.3125 107.988Z" fill="black"/>
<path opacity="0.1" d="M98.3878 109.855H95.5527V110.514H98.3878V109.855Z" fill="black"/>
<path opacity="0.15" d="M99.4051 109.266V109.924L98.3887 110.51V109.852L98.8342 109.595V109.879L99.0798 109.737V109.45L99.4051 109.266Z" fill="black"/>
<path d="M99.0777 109.453L98.832 109.598V109.882L99.0777 109.74V109.453Z" fill="#24B2B4"/>
<path opacity="0.15" d="M99.0762 109.45V109.737L89.7773 104.367L90.0232 104.223L99.0762 109.45Z" fill="black"/>
<path opacity="0.15" d="M90.0232 104.223V104.51L89.7773 104.367L90.0232 104.223Z" fill="black"/>
<path d="M38.4535 99.6541L38.3235 99.7291L38.2013 99.6541L38.202 99.512L37.8826 99.3242L28.8151 104.559C26.8527 103.943 24.3466 104.112 22.6867 105.071C21.6683 105.658 21.1655 106.43 21.1739 107.201C21.1751 107.302 21.1737 107.722 21.1739 107.831C21.1754 108.594 21.6785 109.356 22.6867 109.938C24.7071 111.105 27.9826 111.105 30.0028 109.938C31.0153 109.353 31.5189 108.587 31.5158 107.821C31.5153 107.715 31.5156 107.29 31.5151 107.182C31.5144 106.963 31.4715 106.743 31.388 106.528L32.8647 105.675V105.031L32.6542 104.721L33.2541 104.375L35.1666 104.346L35.6588 104.062L35.8469 103.348L36.7783 102.792L37.7834 102.835L38.8983 102.192V101.548V100.555V99.9111L38.4535 99.6541ZM23.8848 108.566C23.7435 108.484 23.6375 108.39 23.5659 108.289C23.6375 108.189 23.7432 108.095 23.8848 108.013C24.4571 107.682 25.385 107.682 25.9573 108.013C26.0989 108.095 26.2046 108.189 26.2763 108.289C26.2046 108.39 26.0989 108.484 25.9573 108.566C25.385 108.897 24.4569 108.897 23.8848 108.566Z" fill="#E0E0E0"/>
<path opacity="0.1" d="M31.5056 107.355V107.922C31.4664 108.652 30.9689 109.379 29.9999 109.938C29.368 110.305 28.6086 110.554 27.8066 110.691V110.043C28.6086 109.909 29.3649 109.66 29.9999 109.293C30.9328 108.753 31.4369 108.063 31.5056 107.355Z" fill="black"/>
<path opacity="0.15" d="M29.2435 104.794L29.1445 104.738L38.1982 99.5117" fill="black"/>
<path opacity="0.15" d="M33.2514 104.374V103.73L32.3379 104.258L32.6515 104.72L33.2514 104.374Z" fill="black"/>
<path opacity="0.1" d="M35.1645 103.707V104.351L33.252 104.379V103.736L35.1645 103.707Z" fill="black"/>
<path opacity="0.1" d="M35.8465 102.703V103.347L35.6582 104.061V103.417L35.8465 102.703Z" fill="black"/>
<path opacity="0.15" d="M36.7772 102.792V102.148L35.8457 102.705V103.349L36.7772 102.792Z" fill="black"/>
<path opacity="0.1" d="M36.7773 102.148L37.7824 102.192V102.835L36.7773 102.792V102.148Z" fill="black"/>
<path d="M30.0017 109.295C31.527 108.414 31.899 107.12 31.1212 106.038L32.8634 105.032L32.3392 104.259L33.2527 103.731L35.1653 103.702L35.6575 103.418L35.8455 102.704L36.777 102.148L37.782 102.192L38.8969 101.548V99.9111L38.4519 99.6541L38.3219 99.7291L38.1997 99.6541L38.2004 99.512L37.881 99.3242L28.8135 104.559C26.8514 103.943 24.345 104.112 22.6851 105.071C20.6649 106.237 20.6649 108.128 22.6851 109.295C24.7058 110.461 27.9815 110.461 30.0017 109.295ZM23.8837 108.566C23.3114 108.236 23.3114 107.7 23.8837 107.369C24.456 107.039 25.3839 107.039 25.9562 107.369C26.5285 107.7 26.5285 108.235 25.9562 108.566C25.3839 108.897 24.456 108.897 23.8837 108.566Z" fill="#F0F0F0"/>
<g opacity="0.1">
<path d="M26.346 109.573C25.0672 109.573 23.8739 109.291 22.9853 108.778C22.2112 108.331 21.7676 107.749 21.7676 107.181C21.7676 106.613 22.2114 106.031 22.9853 105.584C23.8737 105.072 25.0672 104.789 26.346 104.789C27.6247 104.789 28.818 105.072 29.7066 105.584C30.4808 106.031 30.9244 106.613 30.9244 107.181C30.9244 107.749 30.4805 108.331 29.7066 108.778C28.8182 109.291 27.6247 109.573 26.346 109.573ZM26.346 104.975C25.0994 104.975 23.9388 105.248 23.0783 105.745C22.3634 106.158 21.9534 106.682 21.9534 107.181C21.9534 107.681 22.3634 108.204 23.0783 108.617C23.9386 109.114 25.0992 109.387 26.346 109.387C27.5925 109.387 28.7532 109.114 29.6137 108.617C30.3286 108.204 30.7385 107.681 30.7385 107.181C30.7385 106.681 30.3286 106.158 29.6137 105.745C28.7534 105.248 27.5928 104.975 26.346 104.975Z" fill="black"/>
</g>
<path opacity="0.15" d="M38.2002 99.5117L38.1992 99.6538L38.3214 99.7288L29.3974 104.88L29.1465 104.738L38.2002 99.5117Z" fill="black"/>
<path opacity="0.15" d="M38.2008 99.5117L38.1999 99.6538L29.2461 104.794" fill="black"/>
<path d="M72.0905 80.8788C69.8517 81.2607 67.7352 85.0756 67.3264 88.9382C67.0852 91.227 67.3204 93.6927 67.6139 95.3466L68.1088 95.7069L68.3874 95.9085L69.3585 96.6098L69.956 97.0437C69.9122 95.1367 70.0969 93.5841 70.4386 92.279L70.4388 92.2766C70.6854 91.3265 71.0131 90.5087 71.395 89.7794C72.2081 88.2187 73.4164 86.6965 73.9364 85.6189C75.2379 82.9337 74.1758 80.5226 72.0905 80.8788Z" fill="#24B2B4"/>
<path opacity="0.65" d="M72.0905 80.8788C69.8517 81.2607 67.7352 85.0756 67.3264 88.9382C67.0852 91.227 67.3204 93.6927 67.6139 95.3466L68.1088 95.7069L68.3874 95.9085L69.3585 96.6098L69.956 97.0437C69.9122 95.1367 70.0969 93.5841 70.4386 92.279L70.4388 92.2766C70.6854 91.3265 71.0131 90.5087 71.395 89.7794C72.2081 88.2187 73.4164 86.6965 73.9364 85.6189C75.2379 82.9337 74.1758 80.5226 72.0905 80.8788Z" fill="white"/>
<path d="M72.6494 82.4317C70.2263 84.646 68.0483 89.9727 68.3861 95.9121L68.1076 95.7105C67.8307 89.7699 70.032 84.4529 72.4684 82.2304C72.5246 82.1803 72.6095 82.1841 72.6596 82.2403C72.7099 82.2942 72.7058 82.3814 72.6494 82.4317Z" fill="white"/>
<path d="M74.0759 88.0879C72.6631 88.6237 71.6491 89.68 70.4338 92.2806L70.4336 92.283C69.8895 93.4748 69.468 94.8934 69.3535 96.6138L69.951 97.0477L70.2296 97.2493L70.4832 97.4313L70.836 97.6934C71.1206 96.8469 71.5891 96.1218 72.3282 95.2744C74.2874 93.0279 76.7776 91.5151 77.0929 90.1587C77.4707 88.5262 76.3551 87.2235 74.0759 88.0879Z" fill="#24B2B4"/>
<path opacity="0.3" d="M74.0759 88.0879C72.6631 88.6237 71.6491 89.68 70.4338 92.2806L70.4336 92.283C69.8895 93.4748 69.468 94.8934 69.3535 96.6138L69.951 97.0477L70.2296 97.2493L70.4832 97.4313L70.836 97.6934C71.1206 96.8469 71.5891 96.1218 72.3282 95.2744C74.2874 93.0279 76.7776 91.5151 77.0929 90.1587C77.4707 88.5262 76.3551 87.2235 74.0759 88.0879Z" fill="white"/>
<path d="M74.649 90.0603C74.7158 90.0259 74.7414 89.9434 74.7071 89.8766C74.6698 89.812 74.5924 89.7844 74.5232 89.8212C72.9865 90.6304 70.5965 92.9386 69.7988 96.9379L69.952 97.0492L70.0488 97.1191C70.8247 93.1182 73.2442 90.8 74.649 90.0603Z" fill="white"/>
<path d="M60.1127 113.681C69.4139 113.681 76.954 109.328 76.954 103.958C76.954 98.5876 69.4139 94.2344 60.1127 94.2344C50.8116 94.2344 43.2715 98.5876 43.2715 103.958C43.2715 109.328 50.8116 113.681 60.1127 113.681Z" fill="#E0E0E0"/>
<path d="M49.655 97.9893C49.9159 94.3992 49.5127 91.6474 49.8116 86.0418C49.8382 84.605 49.8902 83.0656 49.9866 81.6981C50.3106 77.0972 51.0201 75.5242 51.0857 74.6363C51.0857 74.6363 51.2072 67.4777 51.508 57.4105C51.6493 52.6745 53.0217 51.2405 54.1182 48.7266H67.1521C68.6082 54.9295 69.023 68.4563 68.9794 74.849C68.9574 78.1083 67.6417 95.5432 67.6153 95.9444C67.5221 97.3671 67.6463 97.9288 68.2038 98.527C69.3717 99.7801 71.0645 100.973 72.5279 102.065C72.3159 102.625 70.5561 102.604 69.6849 102.178C68.2931 101.498 66.9116 100.459 66.4365 100.108C65.234 99.2174 63.6976 98.5033 63.6777 97.1488C63.6743 96.9802 63.6286 96.9337 63.6373 96.9071C63.6143 96.1162 61.771 84.4533 61.6173 81.7467C61.4854 79.4199 61.7688 75.4707 61.7688 75.4707L60.2674 65.6136C60.2674 65.6136 59.342 71.4395 58.4055 75.4177C57.6434 78.6559 56.3862 84.1815 55.5284 88.1668C54.7046 92.7577 53.4941 96.0255 53.285 98.3237C53.2219 98.8724 52.6004 104.258 52.3439 105.492C52.0874 106.725 49.3985 106.758 49.2262 104.636C49.1115 103.224 49.6059 98.665 49.655 97.9893Z" fill="#FFBDA7"/>
<path d="M60.2695 65.6126L61.3672 58.502C61.3672 58.502 65.6107 57.9981 67.1539 56.5156C67.1539 56.5156 65.208 59.2614 62.3287 59.7091L61.1187 65.6035L61.7583 75.3856L60.2695 65.6126Z" fill="#F28F8F"/>
<path d="M75.0181 103.497C75.0924 103.496 75.2137 104.315 74.8132 104.668C74.3509 105.075 72.9885 105.751 71.1766 105.536C69.3645 105.322 68.3786 104.772 67.648 104.174C66.9174 103.576 65.8935 102.732 65.0729 102.56C64.3108 102.401 63.4813 102.065 63.2354 101.832C62.9895 101.6 63.0123 100.555 63.0123 100.555L75.0181 103.497Z" fill="#263238"/>
<path d="M63.5997 96.5234C63.5997 96.5234 63.4632 96.5292 63.4189 96.7717C63.3664 97.0602 63.3151 97.8982 63.2004 98.3723C63.0414 99.031 62.9446 100.378 63.0499 100.913C63.1554 101.447 64.3988 101.806 65.1942 102.099C66.0066 102.399 66.9492 103.024 67.7778 103.692C68.6355 104.384 70.4318 105.068 71.6116 105.073C73.4123 105.08 74.5732 104.579 74.9263 103.928C75.3631 103.123 75.009 102.663 72.9298 101.726C72.5363 101.549 71.1516 100.75 70.6797 100.46C70.1809 100.153 69.7022 99.8112 69.2606 99.4267C69.0372 99.2321 68.823 99.0264 68.6222 98.8084C68.4453 98.6165 68.197 98.3849 68.091 98.1448C68.067 98.0904 68.0501 98.0267 68.0285 97.9703C67.9663 97.8072 67.9233 97.657 67.8884 97.4868C67.8533 97.3153 67.8296 97.0645 67.6648 96.9634C67.4758 96.847 67.1368 96.8654 66.9243 96.8838C66.6569 96.907 66.3885 96.9438 66.1276 97.0053C65.8239 97.0769 65.4718 97.1076 65.2944 97.3956C65.1584 97.6163 65.1403 97.8934 65.132 98.147C65.1282 98.2678 65.132 98.3895 65.1323 98.5103C65.1323 98.5618 65.1555 98.6545 65.0829 98.6337C65.0139 98.6141 64.9351 98.4343 64.9084 98.373C64.8496 98.2385 64.8114 98.094 64.747 97.9619C64.6737 97.8106 64.5909 97.6555 64.4849 97.5265C64.386 97.4063 64.278 97.2911 64.1539 97.1964C64.0409 97.1105 63.8974 97.0684 63.7969 96.9707C63.6694 96.8465 63.6118 96.6258 63.5997 96.5234Z" fill="#37474F"/>
<path d="M73.2644 101.883C70.6595 102.09 69.856 103.709 69.7559 104.706C70.4042 104.928 71.0719 105.073 71.611 105.075C73.4118 105.082 74.6467 104.581 74.9998 103.93C75.4119 103.171 75.1198 102.565 73.2644 101.883Z" fill="#FAFAFA"/>
<path d="M69.3551 101.944C69.3268 101.945 69.2982 101.936 69.2743 101.917C69.2193 101.873 69.2106 101.793 69.2544 101.738C69.6126 101.29 70.6527 100.69 71.6014 100.783C71.6715 100.79 71.7228 100.852 71.7158 100.922C71.709 100.992 71.6485 101.043 71.5769 101.036C70.6914 100.952 69.7372 101.541 69.4531 101.897C69.4284 101.928 69.3921 101.944 69.3551 101.944Z" fill="#F0F0F0"/>
<path d="M68.2282 101.304C68.1998 101.305 68.1713 101.296 68.1473 101.277C68.0924 101.233 68.0837 101.153 68.1275 101.097C68.4859 100.649 69.5267 100.048 70.4744 100.143C70.5446 100.149 70.5959 100.212 70.5889 100.282C70.5823 100.352 70.5228 100.403 70.45 100.396C69.5647 100.311 68.6103 100.901 68.3264 101.257C68.3017 101.288 68.2652 101.304 68.2282 101.304Z" fill="#F0F0F0"/>
<path d="M67.1796 100.574C67.1513 100.574 67.1227 100.565 67.0985 100.546C67.0436 100.502 67.0349 100.422 67.0787 100.367C67.4368 99.9179 68.4813 99.3183 69.4256 99.4122C69.4958 99.4187 69.5471 99.4814 69.54 99.5511C69.5333 99.621 69.4735 99.6718 69.4011 99.6655C68.5171 99.5808 67.5615 100.17 67.2776 100.526C67.2529 100.557 67.2166 100.573 67.1796 100.574Z" fill="#F0F0F0"/>
<path d="M66.154 99.8325C66.1265 99.8327 66.0981 99.824 66.0747 99.8056C66.019 99.7625 66.0091 99.6824 66.0522 99.627C66.5446 98.9913 67.6685 98.5639 68.6157 98.6573C68.6858 98.6641 68.7372 98.7265 68.7301 98.7962C68.7236 98.8662 68.6633 98.9153 68.5912 98.9107C67.7382 98.8272 66.6903 99.2195 66.2533 99.7829C66.2286 99.8153 66.1913 99.832 66.154 99.8325Z" fill="#F0F0F0"/>
<path d="M53.1872 106.449C53.1155 107.679 52.9246 108.494 52.4883 109.215C52.0522 109.936 51.2291 110.162 50.3957 109.951C49.5622 109.74 48.4948 109.176 48.2557 108.115C48.0168 107.055 47.8774 106.328 48.0669 105.188L53.1872 106.449Z" fill="#263238"/>
<path d="M49.6843 97.5469C49.3409 97.5737 49.2395 99.2247 49.0416 100.878C48.8293 102.649 48.3003 103.382 48.1108 104.835C47.8942 106.494 48.1689 107.236 48.7504 108.239C49.3317 109.243 51.3904 110.227 52.4051 108.79C53.232 107.618 53.2664 106.319 53.1909 104.662C53.113 102.949 53.2316 101.763 53.3015 100.462C53.3683 99.2198 53.6434 97.9667 53.3451 97.8286C53.3221 98.011 53.2998 98.2426 53.2754 98.4219C53.2454 98.6424 53.2446 98.874 53.1645 99.0845C53.1294 99.177 53.053 99.2738 53.0217 99.1235C53.0007 99.0216 53.0106 98.9164 53.022 98.8145C53.0723 98.3569 52.8417 98.3196 52.7173 98.284C52.4475 98.2068 51.3815 98.0759 51.1242 98.0582C50.8619 98.0403 49.9561 98.0009 49.8385 98.1502C49.7589 98.2513 49.7475 98.4207 49.723 98.6301C49.6938 98.8798 49.6359 99.0628 49.6287 98.9844C49.6122 98.8055 49.6471 98.3406 49.6514 98.2283C49.6558 98.1207 49.6732 97.974 49.6746 97.8658C49.6763 97.7594 49.6773 97.6531 49.6843 97.5469Z" fill="#37474F"/>
<path d="M48.0146 105.797C47.9553 106.827 48.2016 107.533 48.6568 108.319C49.2384 109.322 51.4628 110.31 52.4773 108.873C52.9821 108.158 53.1174 107.312 53.1868 106.45C52.5787 105.342 48.9736 104.854 48.0146 105.797Z" fill="#FAFAFA"/>
<path d="M52.44 104.641C52.4257 104.64 52.4114 104.636 52.3976 104.63C52.3838 104.623 50.7949 103.966 49.248 104.324C49.1795 104.338 49.1113 104.297 49.0951 104.228C49.0793 104.16 49.1222 104.091 49.1906 104.076C50.8266 103.698 52.4467 104.371 52.5075 104.4C52.5709 104.43 52.5978 104.506 52.5675 104.57C52.544 104.619 52.492 104.646 52.44 104.641Z" fill="#F0F0F0"/>
<path d="M49.3238 103.09C49.2756 103.085 49.2323 103.053 49.2156 103.005C49.1934 102.938 49.2289 102.865 49.2952 102.843C50.8348 102.321 52.5436 103.104 52.608 103.138C52.6704 103.17 52.6944 103.247 52.6615 103.31C52.6285 103.372 52.5509 103.394 52.4896 103.363C52.4751 103.356 50.8099 102.597 49.3773 103.084C49.3599 103.09 49.3417 103.092 49.3238 103.09Z" fill="#F0F0F0"/>
<path d="M49.3762 101.924C49.329 101.919 49.2864 101.888 49.2692 101.841C49.2455 101.774 49.2797 101.701 49.346 101.678C51.0392 101.071 52.6611 101.927 52.7214 101.963C52.7816 102 52.8008 102.078 52.764 102.138C52.7274 102.198 52.6476 102.217 52.589 102.181C52.5757 102.172 51.008 101.353 49.4321 101.918C49.4132 101.924 49.3944 101.926 49.3762 101.924Z" fill="#F0F0F0"/>
<path d="M49.4623 100.776C49.4158 100.771 49.3735 100.741 49.3558 100.694C49.3311 100.628 49.3643 100.555 49.4301 100.53C51.0169 99.936 52.7627 100.813 52.8283 100.851C52.8893 100.886 52.9101 100.964 52.875 101.025C52.8404 101.086 52.7625 101.108 52.7012 101.071C52.686 101.063 50.993 100.216 49.5197 100.768C49.5008 100.775 49.4814 100.778 49.4623 100.776Z" fill="#EBEBEB"/>
<path d="M52.4333 48.7656C51.3542 51.8499 50.4992 53.8009 50.5626 62.1748C50.6309 71.215 50.7923 72.9736 50.7594 73.9832C50.7267 74.9929 50.1391 76.7972 49.6232 81.7705C49.1072 86.7437 49.7176 92.6695 49.7176 92.6695C49.7176 92.6695 50.0733 93.4698 51.9749 93.6402C53.7292 93.7975 54.598 93.139 54.598 93.139C54.598 93.139 57.0035 83.4546 57.6687 80.4592C58.334 77.4637 60.2673 67.6145 60.2673 67.6145L61.4144 75.6027C61.4144 75.6027 60.8793 78.3472 61.4144 82.7083C61.9494 87.0694 62.8923 91.5367 62.8923 91.5367C62.8923 91.5367 64.0853 91.9994 65.5862 91.9769C67.0871 91.9544 67.9508 91.3591 67.9508 91.3591C67.9508 91.3591 69.441 78.3833 69.441 73.4399C69.441 68.4968 69.0233 56.1389 67.4675 48.8203L52.4333 48.7656Z" fill="#37474F"/>
<path d="M61.8343 58.1108L60.268 67.6163L61.4154 75.6045L60.928 67.5093L62.3275 59.7097C63.5193 59.4239 66.2316 57.9944 66.9768 55.9531C65.1397 57.8746 61.8343 58.1108 61.8343 58.1108ZM54.074 83.695C53.6109 86.2694 53.1813 88.8499 52.7852 91.4354C53.3827 88.8871 53.947 86.3338 54.4777 83.7742C55.0159 81.2136 55.5227 78.6578 56.0253 76.0815C56.4953 73.4986 56.8135 70.8959 57.0657 68.2915C57.3236 65.6871 57.5117 63.0781 57.6694 60.4664C57.3091 63.058 56.9848 65.6534 56.6586 68.2455C56.3232 70.8364 55.9839 73.4253 55.5072 75.9861C55.0174 78.5436 54.5293 81.1218 54.074 83.695ZM67.5912 70.6916C67.643 71.8254 67.7105 72.9655 67.6916 74.0867C67.6684 75.2127 67.5994 76.3535 67.5421 77.4882L67.3703 80.8987C67.2539 83.1728 67.1626 85.4493 67.0992 87.7282C67.3669 85.4643 67.5953 83.1968 67.7804 80.9261C67.9668 78.653 68.141 76.3886 68.2182 74.0951C68.211 71.7906 68.0159 69.5267 67.8121 67.2533C67.6016 64.9834 67.3281 62.7187 66.977 60.4659L67.4037 67.2845C67.4663 68.421 67.5397 69.5562 67.5912 70.6916Z" fill="#263238"/>
<path d="M64.0898 33.7383C67.1421 33.9154 68.069 35.8074 69.519 37.6863C70.6726 39.1811 73.0341 42.6085 73.0341 42.6085C73.0341 42.6085 77.7768 40.3359 78.5534 39.592C79.0858 39.0821 78.9224 38.8585 79.7985 38.0006C80.4153 37.3966 81.1258 37.0278 81.478 36.4833C81.757 36.0518 82.4302 36.5128 82.0256 37.3951C81.886 37.6996 81.5527 38.1117 81.5527 38.1117C81.5527 38.1117 82.1977 37.8407 82.5183 37.4965C83.2032 36.7609 83.4094 35.9603 84.373 35.6428C84.7805 35.5085 84.9211 35.7808 84.8309 36.1334C84.9763 36.1525 85.3182 36.3466 85.2135 36.7938C85.469 36.8131 85.5852 37.2899 85.522 37.4469C85.6805 37.5996 85.9925 38.0783 85.2863 39.2709C84.9736 39.7989 84.2201 40.7088 83.9952 40.8819C83.9311 40.9312 83.0282 41.4053 81.8927 41.8702C80.8204 42.3092 80.5138 42.5084 79.6395 43.1022C78.6296 43.7883 76.1327 45.7928 73.847 47.2131C71.9448 48.395 71.1269 47.3387 69.7811 45.7081C68.892 44.6309 66.0004 41.0825 66.0004 41.0825C64.732 38.8377 63.6745 35.3609 64.0898 33.7383Z" fill="#FFBDA7"/>
<path d="M82.5399 39.5273C81.2285 39.3226 79.9965 40.1299 79.7942 41.1993C79.678 40.6274 79.8956 40.0711 80.4159 39.6725C80.865 39.3284 81.81 39.2045 82.5399 39.5273Z" fill="#F0997A"/>
<path d="M56.6829 20.282C55.5044 19.6881 54.0446 19.7152 53.05 20.2275C51.4894 21.0314 51.1927 21.9043 51.0392 23.7406C50.8089 26.4977 50.6128 27.33 50.2808 27.9546C49.9202 28.6331 49.3803 28.9463 48.9062 29.1019C49.2073 29.2972 49.8116 29.4973 50.4688 29.181C50.1789 30.5048 49.782 31.6165 50.1129 33.0218C50.3357 33.9687 50.8195 35.0432 51.5404 35.7271C52.1544 36.3096 53.0396 36.494 53.7818 36.8268C53.2891 35.7428 53.0282 34.7221 53.3869 33.5123C53.7825 32.1779 54.6901 31.0471 55.1005 29.7023C55.6685 27.842 56.3177 25.916 56.4913 23.9712C56.6384 22.3266 56.6851 21.4082 56.6829 20.282Z" fill="#263238"/>
<path d="M56.939 20.1594C56.766 19.8753 55.6896 19.7306 54.8578 20.3043C54.026 20.8784 53.3521 21.8614 53.952 22.653C54.5149 23.3957 58.0868 21.2552 56.939 20.1594Z" fill="#24B2B4"/>
<path d="M50.8164 54.4595C51.4679 49.717 52.3209 47.9816 52.471 47.4107C52.8497 45.9708 51.9357 43.4083 51.6791 41.9265C51.1206 38.6999 52.2565 34.848 52.9959 34.1932C52.9959 34.1932 53.8465 33.9613 54.5626 33.8156C55.1301 33.7002 55.5502 33.5429 56.3142 33.4236C58.3513 33.1051 60.1218 33.1264 60.7604 33.26C61.2667 33.3658 64.0874 33.7336 64.0891 33.7348C64.0891 33.7348 65.2604 34.6476 66.3809 36.5459C67.2359 37.9947 67.9556 38.9448 68.0129 42.3503C68.0807 46.3566 68.2213 50.2341 68.3575 54.3912C65.0893 56.5051 55.1533 56.8553 50.8164 54.4595Z" fill="#455A64"/>
<path d="M64.9197 20.0749C64.4763 19.8394 63.6284 19.7104 62.7988 19.8709C61.4305 19.1265 59.623 18.9029 57.8322 19.2608C56.4935 19.5284 54.7763 20.3374 54.6349 22.2575C52.8722 22.8555 52.0734 25.2525 53.2289 27.7642C54.0674 29.5867 55.678 30.4671 56.425 31.5805L62.1011 27.2686C62.7562 28.0192 63.6383 27.9621 64.8118 26.1996C66.9798 22.9433 65.9429 20.6184 64.9197 20.0749Z" fill="#37474F"/>
<path d="M54.6394 25.4779C55.7685 24.9533 56.2215 26.1342 56.2215 26.1342C56.9742 26.5798 57.4976 25.7429 57.4688 24.7452C57.4449 23.9122 57.6733 22.5657 58.5331 22.2209C59.172 21.9646 59.4469 22.1149 60.8936 22.399C61.5901 22.5357 61.8009 22.4079 62.7459 21.9839C63.5716 21.6134 64.5246 22.445 64.6337 23.5463C64.7095 24.3132 64.6281 24.9654 64.6867 25.4489C64.7455 25.9324 64.858 26.6066 64.8595 27.0647C64.8689 30.3816 64.1964 30.9967 63.5716 31.5083C63.0769 31.9132 62.3003 32.1816 61.1893 32.1158L61.2002 33.5002C61.2002 33.5002 62.4317 35.838 62.6007 37.9388C60.1403 37.191 57.7868 35.0669 56.2254 33.6454L56.1475 28.9894C55.8699 29.3497 54.9939 29.5038 54.3673 28.7389C53.5552 27.7479 53.5566 25.9808 54.6394 25.4779Z" fill="#FFBDA7"/>
<path d="M61.1897 32.1176C60.108 32.0317 59.0817 31.8166 58.3206 31.3602C57.7741 31.0323 57.2981 30.4911 57.1641 30.1523C57.1641 30.1523 57.2035 30.988 58.2371 31.7343C59.1836 32.4179 61.1897 32.568 61.1897 32.568V32.1176Z" fill="#F0997A"/>
<path d="M61.2031 25.0469L61.5165 28.113L63.1464 27.3214L61.2031 25.0469Z" fill="#F0997A"/>
<path d="M60.1207 28.6602L61.6898 29.0532C61.5891 29.4992 61.1564 29.7726 60.723 29.6642C60.2896 29.5558 60.02 29.1062 60.1207 28.6602Z" fill="#B16668"/>
<path d="M60.6341 29.0658C60.4674 28.9869 60.2866 28.9784 60.1211 29.0232C60.1864 29.3259 60.4108 29.5815 60.7227 29.6596C60.8345 29.6877 60.9461 29.6892 61.0523 29.6698C61.03 29.4171 60.881 29.1824 60.6341 29.0658Z" fill="#F28F8F"/>
<path d="M64.0222 25.6578C64.126 25.9165 63.9464 26.0116 63.6974 26.1108C63.4481 26.2103 63.2238 26.2759 63.1197 26.0172C63.0159 25.7585 63.1338 25.4686 63.383 25.3694C63.6323 25.2701 63.9183 25.3994 64.0222 25.6578Z" fill="#263238"/>
<path d="M63.1475 25.4758C63.2547 25.4049 63.3825 25.3611 63.5059 25.327C63.6269 25.2936 63.7559 25.2769 63.8805 25.2892C64.0901 25.31 64.2036 25.3546 64.2692 25.3834C64.2776 25.3872 64.2878 25.4151 64.2723 25.4141C64.1687 25.4073 64.0773 25.3945 63.9282 25.3967C63.8023 25.3984 63.6296 25.432 63.5093 25.4673C63.32 25.5232 63.2472 25.5515 63.0403 25.6679C62.9919 25.6951 62.8985 25.7524 62.8895 25.7601C62.8762 25.7718 62.8622 25.7343 62.8689 25.7222C62.9253 25.6193 63.0519 25.539 63.1475 25.4758Z" fill="#263238"/>
<path d="M63.1484 24.1393L64.2914 24.4577C64.3717 24.132 64.1808 23.7966 63.8652 23.7087C63.5497 23.6209 63.2288 23.8135 63.1484 24.1393Z" fill="#263238"/>
<path d="M59.2018 25.8994C59.1326 26.1692 59.3228 26.2406 59.5827 26.3064C59.8427 26.3725 60.0738 26.4083 60.1432 26.1382C60.2124 25.8684 60.058 25.5959 59.7981 25.5301C59.538 25.4643 59.271 25.6295 59.2018 25.8994Z" fill="#263238"/>
<path d="M60.0449 25.6049C59.9292 25.5485 59.7969 25.5217 59.6701 25.504C59.5457 25.4866 59.4157 25.4868 59.2935 25.5154C59.0883 25.5633 58.9816 25.6221 58.9206 25.6591C58.9126 25.664 58.9061 25.693 58.9213 25.6901C59.0232 25.6698 59.1123 25.6453 59.2601 25.6282C59.385 25.6136 59.5607 25.6243 59.6846 25.6439C59.8796 25.6746 59.9556 25.6933 60.1758 25.7818C60.2271 25.8026 60.3273 25.8472 60.3373 25.8535C60.352 25.8631 60.361 25.8242 60.3527 25.8131C60.2838 25.7184 60.148 25.6553 60.0449 25.6049Z" fill="#263238"/>
<path d="M59.5963 24.3364L58.554 24.9029C58.4028 24.6036 58.5134 24.2338 58.8014 24.0775C59.0893 23.9211 59.4453 24.0368 59.5963 24.3364Z" fill="#263238"/>
<path d="M81.4722 35.241C77.2048 33.3723 70.7039 34.0961 66.952 36.8573C65.3797 38.0143 64.3998 38.7834 64.2699 40.0766L64.4156 41.3849C64.5259 42.3594 65.0501 43.288 65.977 44.075L48.9922 55.1615L49.1376 56.468L51.2842 57.4072L56.9109 56.7809L58.9815 55.257L58.844 54.0219L60.4976 52.8419L62.927 52.3533L63.8411 51.6805L63.6961 49.4778L65.3928 48.2291L68.1165 48.534L71.352 46.1528C75.1744 46.6297 79.573 45.7085 82.4056 43.6236C84.2867 42.2391 85.1196 40.6056 84.9449 39.0849L84.8009 37.7905C84.4672 36.4507 83.3908 36.0812 81.4722 35.241ZM79.3847 39.2674C78.3219 40.0495 76.4802 40.2547 75.2715 39.7252C74.0627 39.196 73.9443 38.1326 75.0072 37.3505C76.0701 36.5684 77.9117 36.3631 79.1205 36.8926C80.3293 37.4221 80.4478 38.4852 79.3847 39.2674Z" fill="#24B2B4"/>
<path opacity="0.2" d="M81.4722 35.241C77.2048 33.3723 70.7039 34.0961 66.952 36.8573C65.3797 38.0143 64.3998 38.7834 64.2699 40.0766L64.4156 41.3849C64.5259 42.3594 65.0501 43.288 65.977 44.075L48.9922 55.1615L49.1376 56.468L51.2842 57.4072L56.9109 56.7809L58.9815 55.257L58.844 54.0219L60.4976 52.8419L62.927 52.3533L63.8411 51.6805L63.6961 49.4778L65.3928 48.2291L68.1165 48.534L71.352 46.1528C75.1744 46.6297 79.573 45.7085 82.4056 43.6236C84.2867 42.2391 85.1196 40.6056 84.9449 39.0849L84.8009 37.7905C84.4672 36.4507 83.3908 36.0812 81.4722 35.241ZM79.3847 39.2674C78.3219 40.0495 76.4802 40.2547 75.2715 39.7252C74.0627 39.196 73.9443 38.1326 75.0072 37.3505C76.0701 36.5684 77.9117 36.3631 79.1205 36.8926C80.3293 37.4221 80.4478 38.4852 79.3847 39.2674Z" fill="black"/>
<path d="M81.327 33.9363C77.0598 32.0676 70.5587 32.7914 66.8068 35.5526C63.7239 37.8214 63.4619 40.758 65.8315 42.7705L48.9922 55.1638L51.1387 56.103L56.7655 55.4767L58.836 53.9528L58.5582 52.8179L60.3522 51.5377L62.7816 51.0491L63.6956 50.3763L63.5507 48.1736L65.2473 46.9249L67.971 47.2298L71.2068 44.8486C75.0292 45.3255 79.4278 44.4042 82.2604 42.3194C86.0121 39.5582 85.5942 35.805 81.327 33.9363ZM79.2395 37.9627C78.1767 38.7448 76.335 38.9498 75.1262 38.4206C73.9175 37.8911 73.7989 36.828 74.862 36.0456C75.9249 35.2634 77.7665 35.0582 78.9753 35.5877C80.184 36.1172 80.3024 37.1806 79.2395 37.9627Z" fill="#24B2B4"/>
<path opacity="0.3" d="M81.327 33.9363C77.0598 32.0676 70.5587 32.7914 66.8068 35.5526C63.7239 37.8214 63.4619 40.758 65.8315 42.7705L48.9922 55.1638L51.1387 56.103L56.7655 55.4767L58.836 53.9528L58.5582 52.8179L60.3522 51.5377L62.7816 51.0491L63.6956 50.3763L63.5507 48.1736L65.2473 46.9249L67.971 47.2298L71.2068 44.8486C75.0292 45.3255 79.4278 44.4042 82.2604 42.3194C86.0121 39.5582 85.5942 35.805 81.327 33.9363ZM79.2395 37.9627C78.1767 38.7448 76.335 38.9498 75.1262 38.4206C73.9175 37.8911 73.7989 36.828 74.862 36.0456C75.9249 35.2634 77.7665 35.0582 78.9753 35.5877C80.184 36.1172 80.3024 37.1806 79.2395 37.9627Z" fill="white"/>
<g opacity="0.2">
<path d="M64.3422 40.4523L74.3007 37.7634C73.9672 37.2293 74.1439 36.5723 74.8627 36.0433C75.9255 35.2611 77.7671 35.0559 78.9759 35.5854C79.3837 35.764 79.6644 36.0041 79.8205 36.2729L83.4556 35.2914C82.9079 34.7769 82.1996 34.3154 81.3277 33.9337C81.2038 33.8795 81.0721 33.835 80.9446 33.7852L64.5614 38.2087C64.2471 38.963 64.1776 39.7238 64.3422 40.4523Z" fill="white"/>
<path d="M84.4419 39.8211C85.0598 38.492 84.9216 37.1296 84.0572 35.9609L79.9216 37.0775C79.8335 37.3827 79.6102 37.6879 79.2414 37.9594C78.1785 38.7415 76.3369 38.9465 75.1281 38.4172C75.107 38.408 75.0889 38.3974 75.0683 38.3877L64.6059 41.2126C64.8697 41.7677 65.2758 42.2936 65.8334 42.7669L61.373 46.0494L84.4419 39.8211Z" fill="white"/>
</g>
<path d="M75.0622 43.6808C72.5244 43.9632 70.093 43.6665 68.2168 42.8454C66.5821 42.1293 65.5727 41.072 65.4471 39.945C65.3217 38.8182 66.0739 37.5649 67.5111 36.5067C69.1611 35.2926 71.4676 34.4685 74.0052 34.1861C76.5428 33.9037 78.9742 34.2004 80.8506 35.0218C82.4853 35.7378 83.4952 36.7951 83.6206 37.9219C83.7462 39.0489 82.9935 40.3022 81.5563 41.3605C79.9066 42.5741 77.6001 43.3981 75.0622 43.6808ZM74.0463 34.5552C71.5724 34.8306 69.3295 35.6299 67.7313 36.8053C66.4037 37.7827 65.706 38.9121 65.8164 39.9036C65.9267 40.8953 66.8558 41.8435 68.3659 42.5051C70.1833 43.3006 72.5469 43.5866 75.0211 43.3112C77.4953 43.0358 79.7382 42.2367 81.3363 41.0611C82.6639 40.0837 83.3619 38.9543 83.2515 37.9625C83.1412 36.9711 82.2119 36.0229 80.7018 35.3613C78.8841 34.5663 76.5203 34.2798 74.0463 34.5552Z" fill="#24B2B4"/>
<path opacity="0.1" d="M78.8448 44.0547L78.9902 45.3608C76.5981 46.1799 73.8521 46.4672 71.3525 46.1557L71.207 44.8497C73.7066 45.1611 76.4529 44.8739 78.8448 44.0547Z" fill="black"/>
<path opacity="0.1" d="M67.9698 47.2305L68.1153 48.5373L65.3915 48.2323L65.2461 46.9258L67.9698 47.2305Z" fill="black"/>
<path opacity="0.1" d="M63.5508 48.1719L63.6965 49.4787L63.8414 51.6811L63.696 50.3746L63.5508 48.1719Z" fill="black"/>
<path opacity="0.1" d="M62.781 51.0469L62.9264 52.3534L60.497 52.842L60.3516 51.5355L62.781 51.0469Z" fill="black"/>
<path opacity="0.1" d="M56.7657 55.4832L51.1387 56.1094L51.2841 57.4161L56.9111 56.79L56.7657 55.4832Z" fill="black"/>
<path opacity="0.15" d="M48.9922 55.1641L49.1376 56.4706L51.2842 57.4098L51.1387 56.1033L50.1981 55.6914L50.2607 56.2552L49.7417 56.028L49.6783 55.4583L48.9922 55.1641Z" fill="black"/>
<path d="M49.6777 55.4609L50.1976 55.694L50.2602 56.2578L49.7411 56.0306L49.6777 55.4609Z" fill="#24B2B4"/>
<path opacity="0.3" d="M49.6777 55.4609L50.1976 55.694L50.2602 56.2578L49.7411 56.0306L49.6777 55.4609Z" fill="white"/>
<path d="M49.6777 55.4601L49.7411 56.0298L67.0103 43.3192L66.4902 43.0859L49.6777 55.4601Z" fill="#24B2B4"/>
<path opacity="0.15" d="M66.4902 43.0859L66.5536 43.6559L67.0103 43.3192L66.4902 43.0859Z" fill="black"/>
<path d="M48.7749 36.9303C50.2076 34.5246 51.5579 34.5324 52.9952 34.1875C54.27 35.928 54.5164 39.3978 51.9449 43.1236L49.197 47.6321C49.197 47.6321 53.3328 49.4996 54.7376 49.1271C55.2898 49.0383 55.6107 48.8583 55.9297 48.724C56.7762 48.3675 57.1036 48.3493 57.9066 48.0454C58.5353 47.8075 58.7993 47.4919 58.9191 47.6074C59.0733 47.7557 59.2443 48.1831 58.8654 48.6373C58.6744 48.8658 58.4985 49.0025 58.0484 49.3115C58.0484 49.3115 59.0643 49.2924 60.3225 49.0035C61.3367 48.7704 61.8468 48.4713 62.1292 48.8658C62.3081 49.1153 62.0852 49.3979 61.9893 49.6283C61.8773 49.8974 61.9526 50.2372 61.7957 50.4835C61.706 50.6244 61.5385 50.7079 61.4657 50.8582C61.3793 51.0363 61.4507 51.2541 61.3909 51.4426C61.348 51.5776 61.243 51.6829 61.1404 51.7811C60.8169 52.0902 60.4321 52.5386 60.0277 52.7402C59.7833 52.8619 59.4304 52.9098 59.1601 52.9614C58.3364 53.1184 57.4857 53.139 56.6487 53.139C55.0878 53.1388 54.2253 52.8571 52.7166 52.6611C49.8947 52.2942 46.5442 51.4089 45.2168 50.8961C43.7254 50.3199 43.6808 49.2005 43.8106 47.9082C44.0368 45.6522 47.6429 38.8315 48.7749 36.9303Z" fill="#FFBDA7"/>
<path d="M78.1117 14.6857L71.5431 18.4855C71.4136 18.5603 71.3086 18.7421 71.3086 19.0935V26.9168C71.3086 27.0732 71.4143 27.2498 71.5445 27.3234L72.4772 27.8536C72.6074 27.9272 72.8179 27.926 72.9474 27.8514L79.5163 24.0515C79.6457 23.9768 79.7508 23.795 79.7508 23.6455V15.6176C79.7508 15.468 79.6452 15.2873 79.5151 15.2137L78.5821 14.6832C78.4517 14.6099 78.2414 14.6109 78.1117 14.6857Z" fill="#37474F"/>
<path d="M72.9474 27.8513C72.8225 27.9236 72.5946 27.9263 72.4767 27.8539L71.5445 27.3228C71.4146 27.2502 71.3086 27.0781 71.3086 26.9167V19.0931C71.3086 18.8133 71.363 18.7218 71.3909 18.6562L72.7824 19.457C72.7553 19.5086 72.7122 19.5742 72.7132 19.6877V27.7158C72.7129 27.8559 72.8092 27.9314 72.9474 27.8513Z" fill="#263238"/>
<path d="M70.6667 24.8474C70.5193 24.7596 69.3964 24.127 69.3608 24.1064C69.2524 24.0404 69.2135 23.8799 69.3141 23.7718L71.3092 21.4844L72.7135 22.2898L70.627 24.5186C70.5295 24.6226 70.5682 24.7758 70.6667 24.8474Z" fill="#37474F"/>
<path d="M79.5161 15.4851L72.9473 19.285C72.8178 19.3598 72.7128 19.5415 72.7128 19.6911V22.2909L70.6255 24.519C70.4905 24.6639 70.5897 24.8629 70.7596 24.8784L72.7128 24.7356V27.719C72.7128 27.8685 72.8178 27.929 72.9473 27.8542L79.5161 24.0544C79.6456 23.9796 79.7506 23.7978 79.7506 23.6483V15.6206C79.7504 15.4711 79.6456 15.4104 79.5161 15.4851Z" fill="#455A64"/>
<path d="M78.2971 17.7212C78 17.5969 77.6571 17.7365 77.5329 18.0329L75.3273 23.281L74.8019 22.7701C74.5723 22.5462 74.2023 22.5513 73.977 22.7822C73.7531 23.0126 73.7584 23.3828 73.9888 23.6072L75.1274 24.7141C75.2368 24.8203 75.3813 24.8789 75.534 24.8789C75.5725 24.8789 75.611 24.8752 75.6504 24.8675C75.8399 24.8288 75.9977 24.6993 76.072 24.5219L78.6089 18.4857C78.7332 18.1885 78.5936 17.8459 78.2971 17.7212Z" fill="#FAFAFA"/>
</svg>
