<svg width="412" height="277" viewBox="0 0 412 277" fill="none" xmlns="http://www.w3.org/2000/svg">
<g clip-path="url(#clip0_1518_10623)">
<rect width="412" height="276" transform="translate(0 0.078125)" fill="#00181F"/>
<g clip-path="url(#clip1_1518_10623)">
<path fill-rule="evenodd" clip-rule="evenodd" d="M377.712 286.739C384.886 280.344 391.205 274.265 397.339 268.416C404.511 278.013 411.869 288.25 419.043 298.349C413.566 305.339 407.521 312.486 401.303 320.384C393.398 308.971 385.828 297.906 377.712 286.739Z" fill="#081F25"/>
<path fill-rule="evenodd" clip-rule="evenodd" d="M400.309 265.726C405.967 260.779 411.39 255.757 416.469 251.093C422.826 259.5 429.421 267.666 436.102 276.378C431.45 282.111 426.706 288.162 421.65 294.969C414.529 285.167 407.33 275.055 400.306 265.726H400.309Z" fill="#081F25"/>
<path fill-rule="evenodd" clip-rule="evenodd" d="M285.989 295.952C297.146 288.099 307.581 280.577 317.239 273.685C325.338 285.724 333.36 297.718 341.348 310.455C331.972 319.122 322.375 328.772 311.408 338.143C302.999 323.385 294.258 309.611 285.989 295.952Z" fill="#081F25"/>
<path fill-rule="evenodd" clip-rule="evenodd" d="M321.862 270.47C331.115 265.122 339.304 259.223 347.267 253.73C354.614 263.552 362.203 273.85 369.539 284.594C362.069 291.583 354.407 298.717 345.82 306.9C337.637 294.083 329.989 282.008 321.862 270.47Z" fill="#081F25"/>
<path fill-rule="evenodd" clip-rule="evenodd" d="M350.89 250.811C358.561 245.878 365.554 240.878 372.29 236.679C379.032 245.086 386.207 254.617 393.055 264.339C386.784 269.839 380.1 275.207 372.887 281.369C365.827 271.104 358.287 260.904 350.89 250.811Z" fill="#081F25"/>
<path fill-rule="evenodd" clip-rule="evenodd" d="M375.503 234.63C381.919 230.829 387.716 226.782 393.466 223.477C399.86 230.981 405.989 238.785 412.52 247.17C407.386 251.638 401.736 256.194 396.067 261.257C389.288 252.38 382.262 242.976 375.503 234.63Z" fill="#081F25"/>
<path fill-rule="evenodd" clip-rule="evenodd" d="M9.356 193.521C32.2443 188.71 53.2763 183.968 73.0847 179.456C80.7188 191.75 88.5118 203.49 95.8086 216.088C76.5938 221.428 55.3946 228.31 31.921 235.319C24.2841 220.811 16.8814 207.086 9.35321 193.521H9.356Z" fill="#081F25"/>
<path fill-rule="evenodd" clip-rule="evenodd" d="M141.354 179.639C157.333 176.101 171.392 172.613 185.383 169.975C192.245 179.254 199.718 188.865 207.168 198.941C193.516 203.083 179.188 207.528 163.788 212.448C156.614 201.397 148.805 190.047 141.354 179.636V179.639Z" fill="#081F25"/>
<path fill-rule="evenodd" clip-rule="evenodd" d="M160.155 107.418C172.881 106.909 184.788 106.139 196.276 105.53C202.74 112.578 209.067 119.452 215.148 126.594C204.005 127.604 192.171 128.889 179.581 130.727C173.299 122.677 167.028 114.881 160.155 107.418Z" fill="#081F25"/>
<path fill-rule="evenodd" clip-rule="evenodd" d="M207.108 277.366C221.726 270.202 235.222 263.547 247.619 256.95C255.607 269.061 264.117 282.061 271.801 295.473C259.724 303.827 246.733 312.401 232.449 321.636C224.196 306.167 215.581 291.797 207.108 277.366Z" fill="#081F25"/>
<path fill-rule="evenodd" clip-rule="evenodd" d="M254.406 255.112C266.483 248.945 277.489 243.552 287.924 238.4C295.118 248.61 302.707 259.173 310.336 269.917C300.316 276.732 289.346 284.245 277.793 292.148C269.866 278.817 262.221 267.024 254.406 255.109V255.112Z" fill="#081F25"/>
<path fill-rule="evenodd" clip-rule="evenodd" d="M294.358 234.644C304.002 230.203 313.108 225.874 321.731 221.566C328.613 230.372 335.525 239.665 342.445 249.213C334.282 254.857 325.739 260.25 316.413 265.634C309.186 255.425 301.714 244.977 294.358 234.646V234.644Z" fill="#081F25"/>
<path fill-rule="evenodd" clip-rule="evenodd" d="M326.72 219.045C334.557 214.621 342.06 211.357 349.505 208.124C355.982 216.357 362.63 224.769 369.461 233.271C362.421 237.215 355.06 241.794 347.64 246.879C340.767 237.47 333.587 228.039 326.72 219.045Z" fill="#081F25"/>
<path fill-rule="evenodd" clip-rule="evenodd" d="M352.764 207.218C359.378 204.021 365.908 201.015 372.266 198.354C377.896 205.447 383.852 212.514 389.73 219.584C383.958 223.152 377.846 226.995 371.647 231.114C365.27 223.019 358.832 214.92 352.767 207.218H352.764Z" fill="#081F25"/>
<path fill-rule="evenodd" clip-rule="evenodd" d="M394.78 187.767C400.034 185.862 404.621 183.728 409.178 181.627C414.081 187.141 419.179 192.932 423.875 198.389C419.736 201.054 415.711 203.925 410.772 206.452C405.594 200.232 400.243 193.948 394.78 187.764V187.767Z" fill="#081F25"/>
<path fill-rule="evenodd" clip-rule="evenodd" d="M411.598 180.641C416.024 178.548 420.021 176.464 423.954 174.922C428.519 179.869 432.744 184.685 437.469 190.034C433.868 192.373 430.161 194.632 426.328 197.22C421.309 191.603 416.593 186.075 411.598 180.641Z" fill="#081F25"/>
<path fill-rule="evenodd" clip-rule="evenodd" d="M222.316 140.723C232.968 139.261 243.119 138.013 252.972 136.474C259.118 143.834 265.308 150.932 271.824 158.321C262.434 160.297 252.439 162.163 241.792 164.787C235.254 156.554 228.698 148.629 222.313 140.723H222.316Z" fill="#081F25"/>
<path fill-rule="evenodd" clip-rule="evenodd" d="M228.031 71.2568C237.218 71.7357 245.942 72.1565 254.25 72.5496C259.373 77.621 264.443 82.7644 269.672 87.6752C261.361 87.7251 253.044 87.6088 244.097 87.487C238.907 81.9948 233.414 76.6244 228.034 71.2568H228.031Z" fill="#081F25"/>
<path fill-rule="evenodd" clip-rule="evenodd" d="M49.6483 282.697C73.0271 273.158 94.466 264.723 114.868 256.925C122.817 271.585 131.326 287.339 139.086 304.217C119.057 314.665 98.0782 325.273 74.6241 336.622C66.6946 318.283 58.1296 300.112 49.651 282.697H49.6483Z" fill="#081F25"/>
<path fill-rule="evenodd" clip-rule="evenodd" d="M182.016 230.721C196.808 225.234 210.889 220.354 223.944 215.551C231.547 226.405 239.296 237.913 246.832 249.547C234.354 255.92 220.61 262.392 206.566 268.939C198.383 256.122 190.216 242.929 182.019 230.723L182.016 230.721Z" fill="#081F25"/>
<path fill-rule="evenodd" clip-rule="evenodd" d="M271.779 199.944C281.999 196.492 291.325 193.339 300.205 190.092C306.644 198.003 313.38 206.599 319.844 215.435C311.387 219.51 302.131 223.834 292.786 228.302C286.03 218.486 278.752 208.866 271.776 199.944H271.779Z" fill="#081F25"/>
<path fill-rule="evenodd" clip-rule="evenodd" d="M305.278 188.522C313.742 185.687 321.672 183.182 329.273 180.893C335.639 188.392 341.818 196.004 348.184 203.575C340.954 206.657 333.587 209.751 325.619 213.602C318.715 204.76 312.101 196.245 305.278 188.522Z" fill="#081F25"/>
<path fill-rule="evenodd" clip-rule="evenodd" d="M332.547 180.06C339.593 177.792 346.429 175.561 353.138 173.294C358.726 179.904 364.318 186.402 370.031 193.142C363.852 195.902 357.327 199 350.688 201.984C344.473 194.507 338.335 187.119 332.549 180.057L332.547 180.06Z" fill="#081F25"/>
<path fill-rule="evenodd" clip-rule="evenodd" d="M357.57 171.951C363.582 170.143 369.471 168.405 374.851 166.675C380.47 172.923 385.804 178.736 391.066 184.984C386.022 186.969 380.592 189.219 374.647 192.054C369.039 184.942 363.131 178.279 357.57 171.951Z" fill="#081F25"/>
<path fill-rule="evenodd" clip-rule="evenodd" d="M377.488 166.116C382.954 164.613 387.851 162.891 392.773 161.479C397.595 166.675 402.512 172.262 407.094 177.674C402.648 179.614 398.077 181.771 392.77 183.567C387.843 177.95 382.611 171.869 377.491 166.116H377.488Z" fill="#081F25"/>
<path fill-rule="evenodd" clip-rule="evenodd" d="M395.393 160.638C400.104 159.373 404.538 158.276 408.725 157.056C413.142 161.864 417.688 166.595 421.883 171.304C418.05 172.757 413.85 174.471 409.681 176.527C405.018 171.077 400.218 165.892 395.393 160.638Z" fill="#081F25"/>
<path fill-rule="evenodd" clip-rule="evenodd" d="M410.654 156.452C414.645 155.356 418.463 154.193 422.117 152.92C426.201 157.308 430.323 161.681 434.172 165.947C430.955 167.486 427.405 169.014 423.759 170.446C419.397 165.839 415.085 161.103 410.651 156.452H410.654Z" fill="#081F25"/>
<path fill-rule="evenodd" clip-rule="evenodd" d="M290.773 132.601C298.756 131.787 306.44 131.17 313.809 130.364C319.258 136.219 324.816 142.215 330.359 148.128C323.249 149.318 316.15 150.744 308.179 152.355C302.365 145.642 296.612 138.965 290.773 132.601Z" fill="#081F25"/>
<path fill-rule="evenodd" clip-rule="evenodd" d="M317.158 129.833C324.106 128.961 330.896 128.372 336.994 127.561C342.334 133.031 347.616 138.625 352.574 144.104C346.537 145.272 340.308 146.451 333.58 147.525C328.239 141.786 322.609 135.669 317.158 129.833Z" fill="#081F25"/>
<path fill-rule="evenodd" clip-rule="evenodd" d="M340.018 127.225C346.356 126.616 352.039 126.077 357.553 125.548C362.327 130.387 367.335 135.574 372.102 140.543C366.8 141.54 361.318 142.548 355.546 143.768C350.523 138.116 345.225 132.535 340.018 127.225Z" fill="#081F25"/>
<path fill-rule="evenodd" clip-rule="evenodd" d="M360.153 125.249C365.549 124.734 370.672 124.421 375.564 123.97C380.043 128.482 384.806 133.473 389.129 137.913C384.472 138.697 379.588 139.278 374.585 140.064C370.017 135.306 364.925 130.118 360.151 125.249H360.153Z" fill="#081F25"/>
<path fill-rule="evenodd" clip-rule="evenodd" d="M377.957 123.795C382.679 123.272 387.091 122.632 391.52 122.458C395.681 126.591 399.943 130.893 404.148 135.339C400.18 136.022 395.954 136.806 391.397 137.65C387.013 132.977 382.364 128.299 377.957 123.795Z" fill="#081F25"/>
<path fill-rule="evenodd" clip-rule="evenodd" d="M393.572 122.386C397.697 121.993 401.501 121.631 405.361 121.376C409.422 125.293 413.503 129.324 417.031 133.066C413.648 133.742 410.024 134.439 406.022 134.94C401.95 130.603 397.897 126.506 393.574 122.386H393.572Z" fill="#081F25"/>
<path fill-rule="evenodd" clip-rule="evenodd" d="M407.097 121.245C410.795 120.869 414.399 120.628 417.627 120.279C421.359 123.906 425.032 127.646 428.664 131.258C425.623 131.97 422.137 132.332 418.862 132.814C415.032 129.03 411.239 125.162 407.097 121.248V121.245Z" fill="#081F25"/>
<path fill-rule="evenodd" clip-rule="evenodd" d="M412.758 98.9473C407.122 98.4601 401.42 98.4739 395.213 98.1915C394.048 98.0836 392.732 97.9867 391.372 97.5742C397.855 98.1915 403.794 98.0531 409.525 98.3964C410.874 98.8974 411.902 98.7175 412.758 98.95V98.9473Z" fill="#081F25"/>
<path fill-rule="evenodd" clip-rule="evenodd" d="M299.791 110.643C306.979 110.187 314.112 109.932 320.553 109.517C325.715 114.674 330.815 119.92 335.793 125.26C329.424 125.899 322.637 126.516 315.879 127.3C310.55 121.553 305.036 115.85 299.794 110.641L299.791 110.643Z" fill="#081F25"/>
<path fill-rule="evenodd" clip-rule="evenodd" d="M323.682 109.337C330.115 109.235 336.221 109.105 341.955 108.858C346.606 113.625 351.724 118.616 356.23 123.375C350.807 123.907 344.915 124.319 338.83 124.815C333.902 119.619 328.71 114.367 323.682 109.34V109.337Z" fill="#081F25"/>
<path fill-rule="evenodd" clip-rule="evenodd" d="M344.718 108.836C350.398 108.697 355.735 108.706 361 108.581C365.471 112.83 369.93 117.351 374.262 122.007C369.317 122.276 364.203 122.633 358.871 123.255C354.434 118.519 349.386 113.506 344.715 108.833L344.718 108.836Z" fill="#081F25"/>
<path fill-rule="evenodd" clip-rule="evenodd" d="M363.452 108.429C368.466 108.327 373.141 108.415 377.678 108.269C381.968 112.374 386.14 116.465 390.195 120.526C385.923 120.715 381.452 121.252 376.664 121.769C372.299 117.323 367.842 112.731 363.452 108.429Z" fill="#081F25"/>
<path fill-rule="evenodd" clip-rule="evenodd" d="M379.869 108.166C384.365 108.252 388.278 108.041 392.378 108.08C396.419 111.975 400.349 115.723 404.156 119.538C400.374 119.878 396.427 120.199 392.247 120.46C388.194 116.327 384.072 112.418 379.869 108.166Z" fill="#081F25"/>
<path fill-rule="evenodd" clip-rule="evenodd" d="M394.252 107.941C398.265 107.897 401.902 107.883 405.534 107.753C409.258 111.341 412.859 114.887 416.477 118.505C413.232 119.13 409.712 119.288 406.027 119.543C402.075 115.626 398.365 111.842 394.249 107.941H394.252Z" fill="#081F25"/>
<path fill-rule="evenodd" clip-rule="evenodd" d="M407.23 107.795C410.619 107.795 414.064 107.947 417.002 107.867C420.402 111.042 423.886 114.441 427.328 117.697C424.371 117.871 421.327 118.118 418.114 118.497C414.638 114.901 410.884 111.377 407.23 107.795Z" fill="#081F25"/>
<path fill-rule="evenodd" clip-rule="evenodd" d="M281.777 91.5146C289.339 91.5949 296.635 91.7029 303.453 91.8718C308.428 96.849 313.389 101.635 318.289 106.571C311.583 106.795 304.529 107.13 297.447 107.435C292.137 102.081 286.811 96.6525 281.777 91.5174V91.5146Z" fill="#081F25"/>
<path fill-rule="evenodd" clip-rule="evenodd" d="M306.638 92.0967C313.294 92.1188 319.735 92.4095 325.728 92.606C330.438 97.1764 335.182 101.747 339.75 106.287C333.922 106.229 327.676 106.323 321.383 106.613C316.572 101.564 311.655 96.8331 306.638 92.0967Z" fill="#081F25"/>
<path fill-rule="evenodd" clip-rule="evenodd" d="M328.754 92.6553C334.655 92.7715 340.369 93.0041 345.765 93.2449C350.065 97.3723 354.444 101.63 358.828 106.106C353.658 106.142 348.237 106.245 342.646 106.33C338.089 101.724 333.345 97.0678 328.757 92.6553H328.754Z" fill="#081F25"/>
<path fill-rule="evenodd" clip-rule="evenodd" d="M348.244 93.2725C353.612 93.577 358.248 93.6711 363.145 93.9479C367.493 97.9812 371.439 101.854 375.617 105.885C370.951 105.907 366.205 105.857 361.121 105.956C357.013 101.671 352.626 97.4137 348.244 93.2725Z" fill="#081F25"/>
<path fill-rule="evenodd" clip-rule="evenodd" d="M365.654 94.1582C370.113 94.244 374.481 94.3686 378.826 94.6233C382.851 98.496 386.703 102.172 390.438 105.79C386.544 105.987 382.355 106.015 377.795 105.915C373.762 101.868 369.726 98.0753 365.654 94.1582Z" fill="#081F25"/>
<path fill-rule="evenodd" clip-rule="evenodd" d="M380.963 94.6904C385.213 94.9811 388.951 95.1416 392.538 95.2856C396.337 98.7791 400.222 102.303 403.703 105.719C400.152 105.777 396.44 105.893 392.368 105.791C388.63 102.187 384.845 98.5189 380.963 94.6904Z" fill="#081F25"/>
<path fill-rule="evenodd" clip-rule="evenodd" d="M394.772 95.7061C398.551 96.0189 401.896 96.1933 405.305 96.3953C408.78 99.6785 412.415 103.064 415.773 106.452C412.565 106.206 409.19 106.162 405.667 106.018C402.175 102.74 398.702 99.4653 394.772 95.7088V95.7061Z" fill="#081F25"/>
<path fill-rule="evenodd" clip-rule="evenodd" d="M290.612 76.1318C297.533 76.5249 304.083 76.7934 310.415 77.3083C315.109 81.7763 319.641 86.1002 324.223 90.7564C317.974 90.3356 311.725 90.2913 304.952 90.0948C300.351 85.4303 295.545 80.7742 290.615 76.1318H290.612Z" fill="#081F25"/>
<path fill-rule="evenodd" clip-rule="evenodd" d="M313.584 77.7539C319.782 78.0363 325.479 78.5678 331.227 79.1712C335.594 83.1824 339.825 87.2711 344.156 91.4345C338.574 90.9695 333.139 90.9556 327.102 90.7674C322.553 86.3271 317.982 81.8094 313.584 77.7539Z" fill="#081F25"/>
<path fill-rule="evenodd" clip-rule="evenodd" d="M333.88 79.3955C339.337 79.8163 344.396 80.3533 349.519 80.907C353.666 84.6552 357.671 88.5584 361.844 92.4727C356.905 91.9716 352.055 91.8692 346.631 91.4706C342.565 87.548 338.242 83.5008 333.88 79.3955Z" fill="#081F25"/>
<path fill-rule="evenodd" clip-rule="evenodd" d="M352.011 81.0869C356.839 81.516 361.384 81.7762 365.897 82.2053C369.793 85.8372 373.576 89.4276 377.441 93.1094C373.099 92.8851 368.815 92.6941 364.007 92.4782C359.899 88.6137 356.092 84.8572 352.011 81.0869Z" fill="#081F25"/>
<path fill-rule="evenodd" clip-rule="evenodd" d="M368.143 82.4766C372.218 82.7451 376.276 83.1299 380.451 83.7195C384.116 87.0608 387.787 90.5432 391.352 93.8762C387.555 93.6935 383.62 93.317 379.573 93.2145C375.629 89.53 371.836 86.0365 368.143 82.4766Z" fill="#081F25"/>
<path fill-rule="evenodd" clip-rule="evenodd" d="M392.922 86.3193C396.507 86.7623 399.941 87.1692 403.093 87.446C406.332 90.4163 409.788 93.5638 413.121 96.6891C409.952 96.4068 406.688 96.332 403.433 96.1299C400.124 92.8883 396.549 89.6135 392.922 86.3221V86.3193Z" fill="#081F25"/>
<path fill-rule="evenodd" clip-rule="evenodd" d="M405.026 87.6113C408.098 87.8798 411.027 88.0764 413.87 88.4335C416.847 91.2958 419.849 93.97 422.711 96.7659C420.197 96.7299 417.326 96.525 414.586 96.4392C411.526 93.5907 408.206 90.4875 405.026 87.6113Z" fill="#081F25"/>
<path fill-rule="evenodd" clip-rule="evenodd" d="M298.099 63.4619C304.325 64.1955 310.329 64.9014 316.38 65.6211C320.667 69.6019 324.85 73.4608 329.254 77.5079C323.317 76.7384 317.746 76.4034 311.394 75.7197C307.054 71.5285 302.544 67.581 298.099 63.4619Z" fill="#081F25"/>
<path fill-rule="evenodd" clip-rule="evenodd" d="M319.16 65.912C324.703 66.5154 330.272 67.2988 335.565 67.9604C339.492 71.6588 343.584 75.3931 347.684 79.2216C342.499 78.6486 337.494 78.2472 331.9 77.7821C327.504 73.6713 323.307 69.8484 319.16 65.9092V65.912Z" fill="#081F25"/>
<path fill-rule="evenodd" clip-rule="evenodd" d="M338.101 68.2559C343.023 68.815 347.85 69.4766 352.8 70.2185C356.571 73.7508 360.175 76.9841 364.113 80.6022C359.606 80.1731 355.005 79.8105 350.163 79.4893C346.142 75.6387 341.983 71.8158 338.101 68.2559Z" fill="#081F25"/>
<path fill-rule="evenodd" clip-rule="evenodd" d="M354.954 70.5537C359.325 71.2209 363.692 71.7967 367.839 72.3558C371.443 75.6556 375.211 78.9664 378.793 82.2163C374.679 81.7955 370.629 81.3526 366.359 80.8709C362.41 77.3027 358.672 73.9254 354.954 70.5537Z" fill="#081F25"/>
<path fill-rule="evenodd" clip-rule="evenodd" d="M381.207 75.1963C384.967 75.7998 388.448 76.215 391.718 76.6358C395.096 79.7223 398.505 82.7619 401.707 85.8706C398.491 85.5356 395.199 85.2035 391.548 84.7384C388.15 81.5854 384.767 78.4905 381.207 75.1991V75.1963Z" fill="#081F25"/>
<path fill-rule="evenodd" clip-rule="evenodd" d="M394.143 77.5633C397.47 78.0062 400.436 78.4713 403.46 79.0305C406.604 81.8264 409.689 84.5946 412.992 87.5733C410.155 87.2023 407.086 86.9698 404.017 86.7151C400.804 83.6479 397.537 80.6111 394.14 77.5605L394.143 77.5633Z" fill="#081F25"/>
<path fill-rule="evenodd" clip-rule="evenodd" d="M284.739 48.7537C291.303 49.7808 297.502 50.697 303.461 51.7241C307.742 55.2785 311.803 58.9325 316.195 62.9354C310.189 62.0191 304.124 61.3658 297.928 60.5658C293.511 56.491 289.149 52.6237 284.742 48.751L284.739 48.7537Z" fill="#081F25"/>
<path fill-rule="evenodd" clip-rule="evenodd" d="M306.287 52.0205C312.154 53.0281 317.756 53.8143 323.253 54.7638C327.06 58.2878 331.048 61.6872 335.09 65.38C329.758 64.6104 324.253 63.935 318.687 63.0907C314.61 59.3923 310.535 55.7881 306.287 52.0205Z" fill="#081F25"/>
<path fill-rule="evenodd" clip-rule="evenodd" d="M291.095 38.9238C297.062 39.973 302.782 41.1246 308.373 42.1654C312.395 45.7171 316.327 49.1248 320.266 52.5435C314.99 51.6411 309.262 50.7691 303.253 49.7504C299.284 46.2264 295.142 42.5834 291.092 38.9238H291.095Z" fill="#081F25"/>
<path fill-rule="evenodd" clip-rule="evenodd" d="M226.185 42.6533C234.769 43.8354 242.763 44.9343 250.366 45.7233C255.425 50.0722 260.057 54.5346 264.539 58.7201C257.159 58.1028 249.299 57.217 240.965 56.3229C236.224 51.8079 231.294 47.232 226.188 42.6561L226.185 42.6533Z" fill="#081F25"/>
<path fill-rule="evenodd" clip-rule="evenodd" d="M409.39 136.778C413.251 136.183 416.796 135.513 420.18 134.802C424.405 139.081 428.363 143.192 432.059 147.087C428.954 147.973 425.592 149.078 422.142 150.116C417.808 145.545 413.8 141.346 409.39 136.776V136.778Z" fill="#081F25"/>
<path fill-rule="evenodd" clip-rule="evenodd" d="M395.215 139.749C399.604 139.001 403.682 138.157 407.659 137.352C411.913 141.864 416.144 146.207 420.402 150.697C416.757 151.882 412.863 153.036 408.875 154.199C404.365 149.294 399.669 144.377 395.215 139.749Z" fill="#081F25"/>
<path fill-rule="evenodd" clip-rule="evenodd" d="M377.285 142.342C382.324 141.34 387.149 140.59 391.636 139.937C396.24 144.515 400.912 149.526 405.488 154.417C401.243 155.428 396.661 156.515 392.09 158.021C387.057 152.507 382.266 147.386 377.282 142.342H377.285Z" fill="#081F25"/>
<path fill-rule="evenodd" clip-rule="evenodd" d="M358.849 145.598C364.526 144.494 370.117 143.245 375.023 142.279C380.051 147.547 385.14 152.74 389.945 158.125C385.104 159.6 379.981 161.211 374.39 162.529C369.267 156.846 364.103 151.331 358.849 145.601V145.598Z" fill="#081F25"/>
<path fill-rule="evenodd" clip-rule="evenodd" d="M336.932 149.501C343.507 148.361 350.029 147.372 355.662 145.753C360.966 151.588 366.387 157.474 371.418 163.204C365.827 164.818 359.954 166.459 353.736 168.021C348.05 161.656 342.607 155.633 336.929 149.501H336.932Z" fill="#081F25"/>
<path fill-rule="evenodd" clip-rule="evenodd" d="M312.101 154.739C319.827 153.147 326.932 151.724 333.61 150.213C339.343 156.497 345.135 162.775 350.793 169.322C343.825 171.246 337.398 173.646 330.023 175.526C323.93 168.536 317.907 161.576 312.101 154.739Z" fill="#081F25"/>
<path fill-rule="evenodd" clip-rule="evenodd" d="M283.402 161.291C292.438 159.525 300.446 157.856 308.52 156.104C314.546 163.005 320.558 170.03 326.578 176.898C319.039 179.384 311.054 181.818 302.675 184.309C296.047 176.251 289.748 168.674 283.402 161.291Z" fill="#081F25"/>
<path fill-rule="evenodd" clip-rule="evenodd" d="M-15.3146 121.398C-9.62597 116.864 -4.05719 112.288 1.0322 108.11C9.25436 112.753 17.4403 117.077 25.707 121.979C21.0943 126.782 16.5261 131.818 11.0047 136.969C2.0913 131.715 -6.81649 126.491 -15.3118 121.398H-15.3146Z" fill="#081F25"/>
<path fill-rule="evenodd" clip-rule="evenodd" d="M263.726 112.092C265.989 109.819 268.199 107.704 270.499 105.894C273.701 108.13 277.038 110.514 280.332 112.781C278.286 114.932 276.355 117.243 274.278 119.843C270.733 117.199 267.196 114.575 263.723 112.092H263.726Z" fill="#081F25"/>
<path fill-rule="evenodd" clip-rule="evenodd" d="M353.29 28.1281C354.17 26.7883 354.979 25.3931 355.723 23.9951C358.605 26.373 361.682 28.9475 364.703 31.4555C364.232 33.0639 363.566 34.5338 362.813 36.1089C359.653 33.4597 356.439 30.7662 353.292 28.1281H353.29Z" fill="#081F25"/>
<path fill-rule="evenodd" clip-rule="evenodd" d="M332.993 46.1324C333.693 45.3656 334.245 44.6182 334.794 43.8984C336.667 45.2549 338.551 46.5864 340.371 47.9151C339.95 48.7373 339.515 49.7034 339.028 50.5117C337.013 49.0584 335.073 47.6162 332.993 46.1296V46.1324Z" fill="#081F25"/>
<path fill-rule="evenodd" clip-rule="evenodd" d="M268.451 11.0502C270.14 10.3333 271.74 9.69933 273.323 9.11523C275.712 10.7347 278.097 12.4094 280.539 14.1756C279.207 14.9756 277.744 15.687 276.08 16.6061C273.593 14.6711 271.021 12.8634 268.451 11.053V11.0502Z" fill="#081F25"/>
<path fill-rule="evenodd" clip-rule="evenodd" d="M295.83 6.77109C296.85 6.29219 297.614 5.6638 298.422 5.19043C300.367 6.45828 302.221 7.88946 304.094 9.27081C303.408 9.87705 302.775 10.594 301.948 11.1477C300.083 9.72757 297.959 8.22442 295.83 6.77109Z" fill="#081F25"/>
<path fill-rule="evenodd" clip-rule="evenodd" d="M231.021 0.054994C232.693 -0.437752 234.402 -0.775478 235.848 -1.2793C238.176 0.234927 240.634 1.80728 242.836 3.26614C241.434 3.88069 240.121 4.40389 238.572 4.97968C236.255 3.39348 233.546 1.64396 231.021 0.054994Z" fill="#081F25"/>
<path fill-rule="evenodd" clip-rule="evenodd" d="M319.085 8.47922C320.05 8.17471 321 7.95879 321.889 7.6875C323.386 8.76157 325.08 9.94084 326.652 11.0038C325.758 11.3194 324.933 11.6129 324.032 11.934C322.338 10.7602 320.774 9.65571 319.082 8.47922H319.085Z" fill="#081F25"/>
<path fill-rule="evenodd" clip-rule="evenodd" d="M341.81 33.1774C342.774 32.8618 343.677 32.4991 344.563 32.2666C345.974 33.2216 347.523 34.2459 349.012 35.1982C348.117 35.5137 347.222 35.8459 346.389 36.2224C344.909 35.2175 343.357 34.2071 341.81 33.1774Z" fill="#081F25"/>
<path fill-rule="evenodd" clip-rule="evenodd" d="M191.774 46.3872C193.867 45.8418 195.874 45.2854 197.802 44.7705C200.341 46.1352 202.814 47.4335 205.492 48.862C203.511 49.3132 201.565 49.9305 199.622 50.5035C197.097 49.0973 194.332 47.7021 191.774 46.3872Z" fill="#081F25"/>
<path fill-rule="evenodd" clip-rule="evenodd" d="M365.159 54.794C366.054 54.4811 366.957 54.0687 367.779 53.7393C369.165 54.6611 370.413 55.5054 371.734 56.4051C370.982 56.7539 370.224 57.147 369.393 57.5677C368.005 56.6099 366.612 55.7739 365.159 54.7912V54.794Z" fill="#081F25"/>
<path fill-rule="evenodd" clip-rule="evenodd" d="M353.806 18.1511C354.589 17.949 355.356 17.8715 356.133 17.7275C357.273 18.5026 358.469 19.3691 359.617 20.0971C358.976 20.2356 358.196 20.4349 357.544 20.6563C356.278 19.7843 355.077 18.9428 353.806 18.1538V18.1511Z" fill="#081F25"/>
<path fill-rule="evenodd" clip-rule="evenodd" d="M93.1228 94.5741C96.2891 93.8046 99.6811 93.3451 102.911 92.6475C106.094 93.752 108.99 94.7181 111.836 95.8531C108.904 96.3901 105.729 97.1458 102.415 97.9016C99.3188 96.7611 96.1386 95.6648 93.1256 94.5741H93.1228Z" fill="#081F25"/>
<path fill-rule="evenodd" clip-rule="evenodd" d="M103.932 151.927C106.789 150.147 109.615 148.375 112.458 146.833C116.438 148.358 120.496 150.152 124.582 151.882C121.937 153.64 119.309 155.354 116.653 157.352C112.224 155.348 108.029 153.668 103.932 151.924V151.927Z" fill="#081F25"/>
<path fill-rule="evenodd" clip-rule="evenodd" d="M173.107 81.1035C175.683 79.6363 178.057 78.3269 180.262 77.0508C183.651 78.9249 187.182 80.9152 190.711 82.9416C188.492 84.3008 186.511 85.9341 184.038 87.3375C180.287 85.2365 176.705 83.1464 173.107 81.1035Z" fill="#081F25"/>
</g>
<g clip-path="url(#clip2_1518_10623)">
<path fill-rule="evenodd" clip-rule="evenodd" d="M29.6831 230.812C26.4475 225.434 23.8081 219.52 21.2187 214.244C19.8414 216.369 15.8943 239.621 10.4414 276.078H22.2392C25.8121 249.316 28.4689 232.72 29.6831 230.812Z" fill="#081F25"/>
<path fill-rule="evenodd" clip-rule="evenodd" d="M19.5805 215.387C16.9651 210.394 14.5346 205.64 12.0758 202.028C10.7376 203.965 5.96145 232.465 -0.605469 276.078H10.0587C14.8305 240.279 18.2989 217.436 19.5805 215.387Z" fill="#081F25"/>
<path fill-rule="evenodd" clip-rule="evenodd" d="M10.8997 200.578C8.69549 197.438 6.59138 194.456 4.51338 191.621C2.05241 205.849 -0.439013 219.889 -2.83035 233.843C-5.26302 248.013 -7.66306 262.111 -10 276.047L-9.84333 276.076H-0.256236C3.31662 251.278 7.11143 226.027 10.8997 200.576V200.578Z" fill="#081F25"/>
<path fill-rule="evenodd" clip-rule="evenodd" d="M3.64789 190.146C1.80706 187.209 0.0510921 184.597 -1.62001 182.137C-4.78815 197.756 -7.95194 213.205 -10.9982 228.358C-14.0728 243.664 -17.0908 258.794 -20 273.631V274.239C-17.2366 274.76 -14.397 275.277 -11.4813 275.749C-9.103 261.703 -6.58764 247.435 -4.05051 233.045C-1.55691 218.897 1.09771 204.612 3.64789 190.146Z" fill="#081F25"/>
<path fill-rule="evenodd" clip-rule="evenodd" d="M120.498 276.078C114.224 269.985 108.262 264.315 102.605 258.528C99.1235 264.248 95.4832 270.149 91.8516 276.078H120.498Z" fill="#081F25"/>
<path fill-rule="evenodd" clip-rule="evenodd" d="M99.3774 255.605C92.9019 248.801 86.8942 243.162 81.2411 237.953C74.8548 246.752 68.9363 255.293 62.6914 264.761C65.4831 268.18 68.3336 272.019 71.3168 276.081H86.5743C90.8739 269.054 95.1387 262.261 99.3774 255.605Z" fill="#081F25"/>
<path fill-rule="evenodd" clip-rule="evenodd" d="M78.5948 235.163C72.994 230.165 68.0612 225.412 63.272 220.84C57.6734 228.342 51.9289 236.345 46.3281 244.239C50.6038 249.703 55.3234 255.291 60.1778 261.465C66.3488 252.542 72.2585 243.893 78.5948 235.163Z" fill="#081F25"/>
<path fill-rule="evenodd" clip-rule="evenodd" d="M60.951 218.737C56.5338 214.87 52.2995 210.944 48.335 207.298C43.3717 213.87 38.2235 220.254 33.0078 227.064C36.6394 231.545 40.3428 236.276 44.2899 241.597C49.8494 233.935 55.4698 226.029 60.9531 218.737H60.951Z" fill="#081F25"/>
<path fill-rule="evenodd" clip-rule="evenodd" d="M34.5747 193.883C31.5349 190.873 28.543 188.188 25.6534 185.591C21.5562 190.44 17.0803 195.775 12.9961 200.931C15.3113 204.043 17.9985 207.367 20.6771 211.154C25.3292 205.065 29.8725 199.754 34.5747 193.883Z" fill="#081F25"/>
<path fill-rule="evenodd" clip-rule="evenodd" d="M23.975 184.699C21.3922 182.171 18.7789 179.878 16.5073 177.315C12.843 181.637 9.00037 186.09 5.42969 190.412C7.37713 193.331 9.5487 196.257 11.816 199.375C15.7784 194.519 20.0018 189.453 23.975 184.699Z" fill="#081F25"/>
<path fill-rule="evenodd" clip-rule="evenodd" d="M14.8607 175.839C12.7609 173.517 10.7482 171.403 8.82034 169.302C5.4716 173.113 2.01842 177.14 -1.15625 180.894C0.382125 183.303 2.19902 185.744 4.10295 188.432C7.67145 184.155 11.4467 179.873 14.8629 175.839H14.8607Z" fill="#081F25"/>
<path fill-rule="evenodd" clip-rule="evenodd" d="M7.609 168.131C5.7747 166.33 4.14276 164.456 2.39985 162.719C-0.500649 165.984 -3.55999 169.33 -6.46484 172.595C-5.24198 174.948 -3.8124 177.259 -2.49814 179.745C0.870179 175.962 4.38429 171.953 7.609 168.131Z" fill="#081F25"/>
<path fill-rule="evenodd" clip-rule="evenodd" d="M1.72397 161.811C0.189948 160.157 -1.20699 158.238 -2.41027 156.528C-5.11059 159.441 -7.64989 162.311 -10.5352 165.412C-9.34928 167.502 -8.15035 169.478 -6.88179 171.624C-4.04657 168.461 -1.1156 165.178 1.72615 161.811H1.72397Z" fill="#081F25"/>
<path fill-rule="evenodd" clip-rule="evenodd" d="M6.45215 100.316C8.2277 99.3619 9.89446 98.4639 11.7222 97.7324C11.7201 97.9943 11.7744 98.1522 11.9398 98.1349C9.9989 99.0438 7.94266 100.247 6.32812 101.11C6.33465 100.758 6.33465 100.656 6.45215 100.316Z" fill="#081F25"/>
<path fill-rule="evenodd" clip-rule="evenodd" d="M184.989 265.998C174.029 258.621 164.54 251.634 154.637 245.211C148.732 255.23 142.594 265.135 136.395 276.08H179.595C181.377 272.683 183.175 269.322 184.989 265.998Z" fill="#081F25"/>
<path fill-rule="evenodd" clip-rule="evenodd" d="M150.199 242.365C141.488 236.226 133.342 230.346 125.802 224.958C119.479 234.369 113.217 243.746 106.98 253.702C114.3 260.478 121.792 268.022 130.354 275.347C136.919 263.81 143.743 253.042 150.199 242.365Z" fill="#081F25"/>
<path fill-rule="evenodd" clip-rule="evenodd" d="M122.194 222.445C114.97 218.264 108.577 213.653 102.36 209.359C96.6247 217.037 90.6997 225.087 84.9727 233.486C90.8041 238.95 96.7857 244.527 103.49 250.923C109.878 240.904 115.849 231.465 122.194 222.445Z" fill="#081F25"/>
<path fill-rule="evenodd" clip-rule="evenodd" d="M99.5306 207.077C93.5425 203.22 88.0831 199.312 82.8239 196.029C77.5603 202.601 71.9595 210.052 66.6133 217.652C71.5091 221.952 76.727 226.148 82.3582 230.965C87.8698 222.941 93.7557 214.966 99.5306 207.077Z" fill="#081F25"/>
<path fill-rule="evenodd" clip-rule="evenodd" d="M80.3163 194.428C75.3074 191.457 70.7815 188.293 66.2925 185.709C61.301 191.576 56.5161 197.676 51.418 204.231C55.426 207.723 59.8366 211.285 64.2624 215.243C69.5543 208.303 75.0397 200.952 80.3163 194.428Z" fill="#081F25"/>
<path fill-rule="evenodd" clip-rule="evenodd" d="M20.6178 94.3863C19.4537 94.2672 18.4006 94.1417 17.4606 93.96C15.5327 95.8578 13.7637 97.6279 11.875 99.4284C12.8172 99.5582 13.7049 99.8655 14.7059 100.099C16.6511 98.2642 18.529 96.3555 20.6178 94.3863Z" fill="#081F25"/>
<path fill-rule="evenodd" clip-rule="evenodd" d="M50.5944 175.123C47.0499 173.004 43.8404 170.76 40.5417 168.7C36.4553 173.556 32.2471 178.436 28.1172 183.398C31.0612 185.768 34.114 188.39 37.3997 191.026C41.7493 185.677 46.112 180.444 50.5944 175.123Z" fill="#081F25"/>
<path fill-rule="evenodd" clip-rule="evenodd" d="M38.7022 168.04C35.7625 165.978 32.7968 164.121 29.9768 162.224C26.467 166.268 22.7963 170.499 19.2734 174.771C21.6713 177.162 24.2193 179.427 26.8696 181.892C30.7623 177.393 34.7268 172.708 38.7022 168.04Z" fill="#081F25"/>
<path fill-rule="evenodd" clip-rule="evenodd" d="M28.221 161.101C25.5729 159.493 23.4405 157.612 21.0862 156.08C17.7418 159.811 14.3669 163.503 11.2031 167.184C13.131 169.2 15.2699 171.17 17.5633 173.379C21.208 168.939 24.7656 164.944 28.2188 161.101H28.221Z" fill="#081F25"/>
<path fill-rule="evenodd" clip-rule="evenodd" d="M19.7541 155.057C17.5477 153.512 15.5436 151.945 13.4374 150.735C10.5151 153.899 7.44488 157.193 4.33984 160.895C6.01965 162.64 7.77997 164.343 9.74482 166.325C12.9717 162.672 16.4097 158.703 19.7541 155.057Z" fill="#081F25"/>
<path fill-rule="evenodd" clip-rule="evenodd" d="M12.6914 150.07C10.8462 148.605 9.07504 147.372 7.55625 145.952C4.87987 148.85 2.11863 151.853 -0.546875 154.675C0.843537 156.316 2.24483 158.129 3.90723 159.906C6.82078 156.497 9.76698 153.284 12.6914 150.068V150.07Z" fill="#081F25"/>
<path fill-rule="evenodd" clip-rule="evenodd" d="M6.47388 144.981C4.85282 143.925 3.54509 142.516 2.24389 141.307C-0.308465 143.964 -2.88475 146.76 -5.42188 149.606C-4.06193 150.839 -3.00443 152.486 -1.75328 153.986C0.914401 151.027 3.79967 147.903 6.47388 144.983V144.981Z" fill="#081F25"/>
<path fill-rule="evenodd" clip-rule="evenodd" d="M1.52708 140.925C0.114909 139.897 -0.807681 138.528 -1.96527 137.353C-4.14989 139.625 -6.41067 142.044 -8.50391 144.351C-7.47252 145.641 -6.56081 147.082 -5.52072 148.571C-3.1729 146.015 -0.842495 143.453 1.52708 140.925Z" fill="#081F25"/>
<path fill-rule="evenodd" clip-rule="evenodd" d="M366.161 162.293C348.292 158.532 331.872 154.825 316.408 151.298C310.448 160.908 304.365 170.086 298.668 179.934C313.669 184.108 330.219 189.488 348.544 194.967C354.506 183.626 360.286 172.897 366.163 162.293H366.161Z" fill="#081F25"/>
<path fill-rule="evenodd" clip-rule="evenodd" d="M263.114 151.44C250.64 148.675 239.664 145.948 228.741 143.886C223.384 151.139 217.551 158.653 211.734 166.53C222.392 169.767 233.578 173.243 245.6 177.088C251.201 168.449 257.298 159.577 263.114 151.438V151.44Z" fill="#081F25"/>
<path fill-rule="evenodd" clip-rule="evenodd" d="M248.437 94.9837C238.502 94.5855 229.206 93.9839 220.237 93.5078C215.191 99.0174 210.252 104.391 205.504 109.974C214.203 110.764 223.442 111.768 233.271 113.205C238.175 106.912 243.071 100.818 248.437 94.9837Z" fill="#081F25"/>
<path fill-rule="evenodd" clip-rule="evenodd" d="M301.225 276.078C288.489 269.324 276.571 262.936 265.348 256.779C262.141 263.083 258.927 269.512 255.75 276.078H301.222H301.225Z" fill="#081F25"/>
<path fill-rule="evenodd" clip-rule="evenodd" d="M257.722 252.825C243.1 245.05 230.217 237.554 217.612 230.846C210.999 242.285 204.225 254.587 197.484 266.865C201.61 269.917 205.809 272.977 210.116 276.078H246.373C250.213 268.131 253.989 260.408 257.722 252.825Z" fill="#081F25"/>
<path fill-rule="evenodd" clip-rule="evenodd" d="M211.783 227.836C200.37 222.236 189.834 217.034 180.156 211.877C173.919 221.344 167.276 231.507 161.277 241.991C170.706 248.522 180.848 255.224 191.999 262.443C198.442 250.351 205.168 239.117 211.783 227.836Z" fill="#081F25"/>
<path fill-rule="evenodd" clip-rule="evenodd" d="M174.856 210.44C165.427 205.619 156.835 201.403 148.688 197.376C143.072 205.357 137.147 213.615 131.191 222.013C139.014 227.341 147.578 233.214 156.597 239.392C162.786 228.97 168.754 219.752 174.856 210.438V210.44Z" fill="#081F25"/>
<path fill-rule="evenodd" clip-rule="evenodd" d="M143.662 194.44C136.134 190.968 129.025 187.584 122.293 184.217C116.92 191.1 111.524 198.365 106.121 205.829C112.494 210.241 119.164 214.457 126.444 218.666C132.086 210.685 137.92 202.518 143.662 194.442V194.44Z" fill="#081F25"/>
<path fill-rule="evenodd" clip-rule="evenodd" d="M118.403 182.245C112.284 178.787 106.427 176.236 100.615 173.708C95.5579 180.144 90.3683 186.72 85.0352 193.366C90.5315 196.449 96.2781 200.029 102.07 204.004C107.436 196.649 113.041 189.276 118.403 182.245Z" fill="#081F25"/>
<path fill-rule="evenodd" clip-rule="evenodd" d="M98.0702 173C92.9067 170.501 87.8085 168.151 82.8452 166.071C78.4499 171.615 73.8 177.14 69.2109 182.667C73.7173 185.456 78.4891 188.46 83.3283 191.68C88.3068 185.353 93.3332 179.021 98.068 173H98.0702Z" fill="#081F25"/>
<path fill-rule="evenodd" clip-rule="evenodd" d="M65.2691 157.794C61.1675 156.305 57.5859 154.637 54.0283 152.994C50.2009 157.305 46.2211 161.832 42.5547 166.097C45.7859 168.181 48.9279 170.425 52.7837 172.401C56.8265 167.538 61.0043 162.626 65.2691 157.792V157.794Z" fill="#081F25"/>
<path fill-rule="evenodd" clip-rule="evenodd" d="M52.1344 152.224C48.679 150.588 45.5588 148.958 42.4885 147.753C38.9244 151.62 35.6257 155.385 31.9375 159.566C34.7488 161.395 37.6428 163.161 40.6347 165.184C44.5535 160.793 48.2351 156.472 52.1344 152.224Z" fill="#081F25"/>
<path fill-rule="evenodd" clip-rule="evenodd" d="M40.9618 147.151C38.1614 145.833 35.6199 144.466 32.9827 143.323C29.6339 146.907 26.307 150.423 23.3281 153.972C25.5019 155.574 28.0586 157.108 30.5783 158.755C34.1555 154.797 37.5782 150.962 40.9596 147.151H40.9618Z" fill="#081F25"/>
<path fill-rule="evenodd" clip-rule="evenodd" d="M31.0587 142.823C28.5042 141.676 26.2129 140.596 23.9935 139.358C21.3389 142.226 18.1882 145.595 15.4922 148.679C17.4157 150.07 19.6003 151.455 21.8089 153.024C24.7942 149.56 28.0015 146.147 31.0587 142.823Z" fill="#081F25"/>
<path fill-rule="evenodd" clip-rule="evenodd" d="M22.7668 138.734C20.6343 137.786 18.5085 136.849 16.6372 135.895C14.0348 138.656 11.5325 141.387 8.94531 144.085C10.5838 145.323 12.4747 146.466 14.2589 147.993C17.0767 144.812 19.8119 141.774 22.7668 138.736V138.734Z" fill="#081F25"/>
<path fill-rule="evenodd" clip-rule="evenodd" d="M16.0921 135.366C14.2317 134.481 12.6215 133.492 10.8438 132.691C8.59171 134.998 6.2069 137.537 3.80469 140.03C5.28866 141.142 6.72259 142.397 8.34365 143.676C10.8677 140.899 13.4897 138.184 16.0921 135.366Z" fill="#081F25"/>
<path fill-rule="evenodd" clip-rule="evenodd" d="M10.0753 131.912C8.66098 130.867 7.25751 129.884 5.8584 129.146C3.55192 131.566 1.46522 133.764 -0.636719 136.006C0.46212 137.188 1.68716 138.285 2.97966 139.454C5.38187 136.874 7.7645 134.416 10.0753 131.91V131.912Z" fill="#081F25"/>
<path fill-rule="evenodd" clip-rule="evenodd" d="M5.04479 128.619C3.77188 127.926 2.56424 127.199 1.53503 126.29C-0.418942 128.357 -2.2032 130.226 -4.30078 132.464C-3.3956 133.47 -2.48389 134.453 -1.45033 135.468C0.649434 133.286 2.73396 131.14 5.04479 128.619Z" fill="#081F25"/>
<path fill-rule="evenodd" clip-rule="evenodd" d="M199.909 121.019C191.592 119.876 183.668 118.9 175.976 117.697C171.178 123.451 166.345 129 161.258 134.776C168.588 136.321 176.391 137.779 184.703 139.831C189.808 133.395 194.926 127.199 199.911 121.019H199.909Z" fill="#081F25"/>
<path fill-rule="evenodd" clip-rule="evenodd" d="M45.5811 91.3938C43.3182 91.4111 41.1727 91.4154 39.1448 91.45C36.7687 93.8304 34.3186 96.1524 32.0273 98.4636C34.0074 98.4289 35.7242 98.76 37.8914 98.8379C40.3937 96.3385 42.9374 93.8456 45.5833 91.3916L45.5811 91.3938Z" fill="#081F25"/>
<path fill-rule="evenodd" clip-rule="evenodd" d="M45.2226 83.999C43.1707 84.2479 41.2254 84.4361 39.3411 84.5898C37.0346 86.7538 34.8304 88.8334 32.6719 90.8762C34.4061 90.887 36.1969 90.8654 38.0442 90.7918C40.3594 88.5889 42.8204 86.2647 45.2226 83.999Z" fill="#081F25"/>
<path fill-rule="evenodd" clip-rule="evenodd" d="M195.446 66.7158C188.274 67.0902 181.463 67.4191 174.977 67.7264C170.978 71.6909 167.02 75.7116 162.938 79.5505C169.426 79.5895 175.919 79.4986 182.904 79.4034C186.955 75.11 191.244 70.9118 195.444 66.7158H195.446Z" fill="#081F25"/>
<path fill-rule="evenodd" clip-rule="evenodd" d="M334.706 232.004C316.454 224.547 299.717 217.953 283.789 211.857C277.584 223.318 270.941 235.633 264.883 248.827C280.519 256.994 296.897 265.287 315.207 274.159C321.398 259.822 328.085 245.618 334.704 232.004H334.706Z" fill="#081F25"/>
<path fill-rule="evenodd" clip-rule="evenodd" d="M231.371 191.372C219.823 187.083 208.83 183.268 198.638 179.514C192.702 187.999 186.653 196.994 180.77 206.09C190.511 211.071 201.241 216.131 212.205 221.249C218.594 211.229 224.969 200.916 231.368 191.375L231.371 191.372Z" fill="#081F25"/>
<path fill-rule="evenodd" clip-rule="evenodd" d="M161.293 167.313C153.314 164.614 146.034 162.15 139.101 159.611C134.075 165.796 128.815 172.515 123.77 179.423C130.371 182.608 137.597 185.988 144.893 189.481C150.168 181.807 155.849 174.288 161.295 167.313H161.293Z" fill="#081F25"/>
<path fill-rule="evenodd" clip-rule="evenodd" d="M135.141 158.385C128.532 156.169 122.342 154.211 116.408 152.421C111.438 158.283 106.614 164.234 101.645 170.153C107.289 172.561 113.04 174.981 119.261 177.991C124.651 171.079 129.814 164.422 135.141 158.385Z" fill="#081F25"/>
<path fill-rule="evenodd" clip-rule="evenodd" d="M113.85 151.769C108.349 149.997 103.012 148.253 97.7742 146.48C93.4115 151.648 89.0466 156.727 84.5859 161.996C89.4099 164.154 94.5038 166.575 99.6868 168.908C104.539 163.063 109.33 157.287 113.848 151.767L113.85 151.769Z" fill="#081F25"/>
<path fill-rule="evenodd" clip-rule="evenodd" d="M94.3182 145.431C89.6247 144.018 85.027 142.659 80.8275 141.307C76.4408 146.191 72.2761 150.735 68.168 155.619C72.1064 157.171 76.3451 158.93 80.9863 161.146C85.3643 155.587 89.9772 150.378 94.3182 145.431Z" fill="#081F25"/>
<path fill-rule="evenodd" clip-rule="evenodd" d="M78.7689 140.869C74.5019 139.694 70.6788 138.348 66.8361 137.244C63.0718 141.306 59.2335 145.673 55.6562 149.904C59.1268 151.421 62.6953 153.106 66.8383 154.511C70.6853 150.12 74.7695 145.366 78.7667 140.869H78.7689Z" fill="#081F25"/>
<path fill-rule="evenodd" clip-rule="evenodd" d="M64.7893 136.586C61.112 135.597 57.6501 134.74 54.3819 133.786C50.9331 137.545 47.3841 141.243 44.1094 144.924C47.1013 146.06 50.3804 147.4 53.6355 149.008C57.2759 144.747 61.0228 140.694 64.7893 136.586Z" fill="#081F25"/>
<path fill-rule="evenodd" clip-rule="evenodd" d="M52.876 133.315C49.7601 132.458 46.7791 131.549 43.9265 130.554C40.7388 133.984 37.5206 137.403 34.5156 140.737C37.0266 141.941 39.7988 143.135 42.6449 144.254C46.0502 140.653 49.4163 136.95 52.8782 133.315H52.876Z" fill="#081F25"/>
<path fill-rule="evenodd" clip-rule="evenodd" d="M41.972 130.21C39.2129 129.374 36.7628 128.433 34.3954 127.688C31.4645 130.625 28.5792 133.635 25.7266 136.554C27.8263 137.855 30.2329 139.03 32.8375 140.082C35.9077 136.719 38.893 133.477 41.9741 130.21H41.972Z" fill="#081F25"/>
<path fill-rule="evenodd" clip-rule="evenodd" d="M32.6539 127.546C30.3605 126.756 28.0801 126.091 25.8694 125.483C23.452 128.011 20.7843 130.772 18.332 133.458C20.3186 134.276 22.2574 135.206 24.3854 136.115C27.0618 133.308 29.8383 130.487 32.6539 127.544V127.546Z" fill="#081F25"/>
<path fill-rule="evenodd" clip-rule="evenodd" d="M25.2672 125.022C23.3589 124.243 21.4658 123.522 19.5206 122.882C17.2097 125.273 14.714 127.948 12.4336 130.363C14.1526 131.226 15.8193 132.146 17.6145 133.033C20.1255 130.376 22.7387 127.762 25.2693 125.024L25.2672 125.022Z" fill="#081F25"/>
<path fill-rule="evenodd" clip-rule="evenodd" d="M18.6324 122.343C16.8764 121.69 15.301 121.112 13.6734 120.616C11.417 122.847 9.20628 125.029 7.03906 127.353C8.49258 128.052 9.89604 128.898 11.3648 129.824C13.7648 127.366 16.1475 124.821 18.6302 122.343H18.6324Z" fill="#081F25"/>
<path fill-rule="evenodd" clip-rule="evenodd" d="M146.463 114.669C140.231 114.033 134.232 113.551 128.479 112.921C124.225 117.498 119.886 122.185 115.559 126.807C121.109 127.738 126.651 128.852 132.875 130.112C137.414 124.864 141.905 119.644 146.463 114.669Z" fill="#081F25"/>
<path fill-rule="evenodd" clip-rule="evenodd" d="M125.868 112.506C120.444 111.824 115.143 111.364 110.382 110.729C106.213 115.006 102.09 119.379 98.2188 123.662C102.932 124.575 107.795 125.497 113.048 126.336C117.217 121.85 121.612 117.068 125.868 112.506Z" fill="#081F25"/>
<path fill-rule="evenodd" clip-rule="evenodd" d="M108.02 110.468C103.072 109.992 98.6349 109.57 94.3309 109.156C90.6036 112.939 86.6935 116.994 82.9727 120.879C87.1113 121.658 91.3913 122.445 95.8976 123.4C99.8186 118.981 103.955 114.618 108.02 110.468Z" fill="#081F25"/>
<path fill-rule="evenodd" clip-rule="evenodd" d="M92.3005 108.922C88.088 108.519 84.0886 108.275 80.2699 107.922C76.7732 111.449 73.0545 115.351 69.6797 118.822C73.3156 119.434 77.1279 119.889 81.0336 120.503C84.6 116.783 88.5754 112.728 92.3027 108.922H92.3005Z" fill="#081F25"/>
<path fill-rule="evenodd" clip-rule="evenodd" d="M78.4002 107.786C74.7142 107.377 71.2697 106.878 67.8122 106.741C64.5636 109.972 61.2366 113.335 57.9531 116.81C61.0516 117.345 64.3503 117.957 67.908 118.617C71.3307 114.964 74.9601 111.307 78.4002 107.786Z" fill="#081F25"/>
<path fill-rule="evenodd" clip-rule="evenodd" d="M66.2092 106.684C62.9889 106.377 60.0187 106.094 57.0051 105.895C53.8348 108.957 50.6492 112.107 47.8945 115.033C50.5361 115.561 53.3648 116.106 56.4894 116.498C59.6684 113.107 62.8322 109.904 66.2071 106.684H66.2092Z" fill="#081F25"/>
<path fill-rule="evenodd" clip-rule="evenodd" d="M55.6498 105.793C52.7623 105.499 49.9489 105.311 47.4291 105.038C44.5156 107.873 41.6477 110.796 38.8125 113.621C41.1864 114.177 43.9085 114.46 46.4652 114.837C49.4549 111.878 52.4163 108.855 55.6498 105.795V105.793Z" fill="#081F25"/>
<path fill-rule="evenodd" clip-rule="evenodd" d="M45.9789 105.083C43.4178 104.856 41.033 104.629 38.7722 104.419C36.296 106.981 33.6871 109.558 31.0586 112.069C33.2193 112.432 35.5105 112.984 37.693 113.471C40.415 110.643 43.1241 107.957 45.9789 105.083Z" fill="#081F25"/>
<path fill-rule="evenodd" clip-rule="evenodd" d="M37.3857 104.269C35.1967 104.115 33.2406 103.86 31.2366 103.763C28.8496 106.028 26.4517 108.385 24.043 110.776C25.8925 111.118 27.6332 111.531 29.6046 111.856C32.1766 109.339 34.8464 106.766 37.3857 104.267V104.269Z" fill="#081F25"/>
<path fill-rule="evenodd" clip-rule="evenodd" d="M30.0891 103.56C28.2047 103.333 26.551 103.129 24.7929 102.976C22.5103 105.202 20.2147 107.36 17.9648 109.678C19.5097 110.052 21.1721 110.325 22.8977 110.762C25.252 108.353 27.7064 105.927 30.0912 103.56H30.0891Z" fill="#081F25"/>
<path fill-rule="evenodd" clip-rule="evenodd" d="M24.0499 102.935C22.4615 102.673 21.1037 102.337 19.6937 102.071C17.631 104.134 15.5029 106.224 13.5859 108.161C14.8306 108.531 16.2493 108.888 17.5592 109.325C19.6959 107.189 21.9349 105.021 24.0499 102.935Z" fill="#081F25"/>
<path fill-rule="evenodd" clip-rule="evenodd" d="M18.795 101.889C17.5591 101.645 16.2144 101.571 15.0959 101.271C13.142 103.196 11.1749 105.105 9.37109 106.945C10.3785 107.284 11.3903 107.654 12.574 107.972C14.5454 106.042 16.6778 104.043 18.7972 101.889H18.795Z" fill="#081F25"/>
<path fill-rule="evenodd" clip-rule="evenodd" d="M4.74541 103.049C4.36462 102.725 4.04476 102.221 3.77277 101.861C2.47375 103.235 1.17472 104.445 0.0911167 105.661C0.0715335 106.259 0.280422 106.787 0.543708 107.297C1.96676 105.889 3.27449 104.543 4.74323 103.049H4.74541Z" fill="#081F25"/>
<path fill-rule="evenodd" clip-rule="evenodd" d="M30.0781 91.8307C33.1853 91.1729 36.2382 90.5128 39.7436 89.8204C40.5682 89.4005 41.345 89.2079 42.3373 88.8379C38.6164 89.7468 35.2307 90.4674 31.9581 91.2399C31.1922 91.7571 30.6809 91.5191 30.0781 91.8307Z" fill="#081F25"/>
<path fill-rule="evenodd" clip-rule="evenodd" d="M51.2344 88.3624C55.6341 87.9815 60.086 87.9924 64.9318 87.7716C65.8413 87.6872 66.8684 87.6115 67.9302 87.2891C62.869 87.7716 58.2321 87.6634 53.7584 87.9318C52.7053 88.3234 51.9024 88.1828 51.2344 88.3646V88.3624Z" fill="#081F25"/>
<path fill-rule="evenodd" clip-rule="evenodd" d="M139.427 97.5048C133.815 97.1477 128.247 96.9486 123.218 96.624C119.188 100.656 115.207 104.756 111.32 108.931C116.292 109.431 121.591 109.913 126.867 110.526C131.028 106.033 135.332 101.575 139.424 97.5026L139.427 97.5048Z" fill="#081F25"/>
<path fill-rule="evenodd" clip-rule="evenodd" d="M120.77 96.4837C115.748 96.4037 110.98 96.302 106.504 96.1094C102.873 99.8358 98.8778 103.737 95.3594 107.457C99.5937 107.873 104.194 108.195 108.944 108.583C112.791 104.521 116.844 100.416 120.77 96.4859V96.4837Z" fill="#081F25"/>
<path fill-rule="evenodd" clip-rule="evenodd" d="M104.35 96.0917C99.9154 95.9835 95.7485 95.99 91.6382 95.8926C88.148 99.2143 84.6665 102.748 81.2852 106.388C85.1452 106.598 89.138 106.877 93.3006 107.364C96.7646 103.661 100.705 99.7423 104.352 96.0895L104.35 96.0917Z" fill="#081F25"/>
<path fill-rule="evenodd" clip-rule="evenodd" d="M89.7217 95.774C85.8072 95.6939 82.1582 95.7631 78.6158 95.6484C75.2671 98.8576 72.0097 102.056 68.8438 105.231C72.1794 105.378 75.6696 105.798 79.4078 106.202C82.8153 102.727 86.2946 99.1368 89.7217 95.774Z" fill="#081F25"/>
<path fill-rule="evenodd" clip-rule="evenodd" d="M76.9102 95.5679C73.4004 95.635 70.3454 95.4705 67.1446 95.5008C63.9896 98.5456 60.9215 101.476 57.9492 104.458C60.9019 104.724 63.983 104.975 67.2469 105.178C70.4107 101.947 73.6289 98.8918 76.9102 95.5679Z" fill="#081F25"/>
<path fill-rule="evenodd" clip-rule="evenodd" d="M65.6789 95.3923C62.5456 95.3576 59.706 95.3468 56.8708 95.2451C53.9638 98.0497 51.1525 100.822 48.3281 103.65C50.8609 104.139 53.6091 104.262 56.4856 104.462C59.5711 101.4 62.4672 98.4413 65.6811 95.3923H65.6789Z" fill="#081F25"/>
<path fill-rule="evenodd" clip-rule="evenodd" d="M55.546 95.2783C52.9001 95.2783 50.2107 95.3973 47.9173 95.3346C45.2626 97.8167 42.5427 100.474 39.8555 103.019C42.1641 103.155 44.5402 103.348 47.0491 103.644C49.7624 100.833 52.6934 98.0785 55.546 95.2783Z" fill="#081F25"/>
<path fill-rule="evenodd" clip-rule="evenodd" d="M153.485 82.5518C147.582 82.6145 141.885 82.6989 136.563 82.8309C132.679 86.7218 128.806 90.4633 124.98 94.3218C130.216 94.497 135.723 94.7589 141.252 94.9969C145.397 90.8117 149.555 86.5681 153.485 82.5539V82.5518Z" fill="#081F25"/>
<path fill-rule="evenodd" clip-rule="evenodd" d="M134.08 83.0059C128.884 83.0232 123.856 83.2504 119.178 83.404C115.5 86.9768 111.797 90.5496 108.23 94.0985C112.78 94.0531 117.657 94.1267 122.57 94.3539C126.325 90.4067 130.164 86.7085 134.08 83.0059Z" fill="#081F25"/>
<path fill-rule="evenodd" clip-rule="evenodd" d="M116.81 83.4434C112.204 83.5342 107.743 83.716 103.531 83.9043C100.173 87.1308 96.7548 90.4591 93.332 93.9582C97.3684 93.9864 101.601 94.0664 105.965 94.1335C109.523 90.5326 113.226 86.8928 116.808 83.4434H116.81Z" fill="#081F25"/>
<path fill-rule="evenodd" clip-rule="evenodd" d="M101.596 83.9258C97.4054 84.1638 93.7869 84.2374 89.9638 84.4538C86.5694 87.6067 83.4883 90.6342 80.2266 93.785C83.8691 93.8023 87.5746 93.7633 91.5435 93.8412C94.7508 90.4913 98.1757 87.1631 101.596 83.9258Z" fill="#081F25"/>
<path fill-rule="evenodd" clip-rule="evenodd" d="M88.0045 84.6182C84.523 84.6852 81.1134 84.7826 77.7211 84.9817C74.5791 88.0092 71.572 90.8829 68.6562 93.7113C71.696 93.8649 74.9664 93.8866 78.5262 93.8087C81.6748 90.6449 84.8255 87.6802 88.0045 84.6182Z" fill="#081F25"/>
<path fill-rule="evenodd" clip-rule="evenodd" d="M76.0541 85.0332C72.7358 85.2604 69.8179 85.3859 67.0175 85.4985C64.0517 88.2294 61.0185 90.9842 58.3008 93.6546C61.0729 93.7 63.9712 93.7909 67.1502 93.7108C70.0681 90.8933 73.023 88.026 76.0541 85.0332Z" fill="#081F25"/>
<path fill-rule="evenodd" clip-rule="evenodd" d="M65.2706 85.8281C62.32 86.0727 59.7089 86.209 57.0478 86.367C54.3344 88.9335 51.497 91.58 48.875 94.2288C51.3795 94.0362 54.0145 94.0016 56.7649 93.889C59.4913 91.3268 62.2025 88.7668 65.2706 85.8303V85.8281Z" fill="#081F25"/>
<path fill-rule="evenodd" clip-rule="evenodd" d="M146.591 70.5264C141.188 70.8337 136.075 71.0436 131.131 71.4461C127.467 74.9388 123.929 78.3189 120.352 81.9588C125.23 81.6299 130.108 81.5952 135.396 81.4416C138.988 77.7952 142.74 74.1554 146.589 70.5264H146.591Z" fill="#081F25"/>
<path fill-rule="evenodd" clip-rule="evenodd" d="M128.657 71.7939C123.817 72.0147 119.37 72.4302 114.883 72.9019C111.473 76.0375 108.17 79.2338 104.789 82.4884C109.147 82.1249 113.39 82.1141 118.104 81.9669C121.655 78.4958 125.223 74.9642 128.657 71.7939Z" fill="#081F25"/>
<path fill-rule="evenodd" clip-rule="evenodd" d="M112.811 73.0771C108.551 73.4061 104.602 73.8259 100.602 74.2587C97.3646 77.1888 94.2378 80.24 90.9805 83.2999C94.8362 82.9082 98.6223 82.8281 102.857 82.5165C106.031 79.4501 109.406 76.2864 112.811 73.0771Z" fill="#081F25"/>
<path fill-rule="evenodd" clip-rule="evenodd" d="M98.6539 74.3994C94.8852 74.7348 91.3362 74.9382 87.8134 75.2737C84.7715 78.1128 81.8188 80.9195 78.8008 83.7977C82.1909 83.6224 85.5352 83.4731 89.2887 83.3043C92.496 80.2833 95.4683 77.3468 98.6539 74.3994Z" fill="#081F25"/>
<path fill-rule="evenodd" clip-rule="evenodd" d="M86.0642 75.4863C82.883 75.6962 79.7149 75.997 76.4553 76.458C73.594 79.0699 70.7283 81.7922 67.9453 84.3977C70.9089 84.2549 73.9813 83.9606 77.1407 83.8805C80.2197 81.0002 83.1811 78.2692 86.0642 75.4863Z" fill="#081F25"/>
<path fill-rule="evenodd" clip-rule="evenodd" d="M66.7181 78.4902C63.9199 78.8365 61.2391 79.1546 58.7782 79.371C56.2498 81.6929 53.5516 84.1534 50.9492 86.5966C53.4232 86.3758 55.9712 86.3174 58.5127 86.1594C61.0955 83.6254 63.8872 81.0654 66.7181 78.4924V78.4902Z" fill="#081F25"/>
<path fill-rule="evenodd" clip-rule="evenodd" d="M57.2671 79.5C54.8693 79.7099 52.5824 79.8635 50.363 80.1427C48.0391 82.3803 45.6956 84.4707 43.4609 86.6564C45.4236 86.6282 47.6648 86.4681 49.8037 86.401C52.1929 84.1742 54.7844 81.7484 57.2671 79.5Z" fill="#081F25"/>
<path fill-rule="evenodd" clip-rule="evenodd" d="M140.744 60.6211C135.883 61.1946 131.196 61.7464 126.472 62.309C123.126 65.4209 119.86 68.4375 116.422 71.6012C121.057 70.9996 125.406 70.7378 130.365 70.2033C133.753 66.927 137.274 63.8411 140.744 60.6211Z" fill="#081F25"/>
<path fill-rule="evenodd" clip-rule="evenodd" d="M124.304 62.5363C119.976 63.0081 115.628 63.6205 111.496 64.1377C108.43 67.0288 105.236 69.948 102.035 72.9409C106.082 72.4929 109.99 72.1791 114.357 71.8156C117.789 68.602 121.066 65.6136 124.304 62.5342V62.5363Z" fill="#081F25"/>
<path fill-rule="evenodd" clip-rule="evenodd" d="M109.519 64.3701C105.676 64.8072 101.907 65.3244 98.043 65.9044C95.099 68.6657 92.2855 71.1932 89.2109 74.0216C92.7294 73.6861 96.3218 73.4027 100.101 73.1516C103.241 70.1415 106.488 67.153 109.519 64.3701Z" fill="#081F25"/>
<path fill-rule="evenodd" clip-rule="evenodd" d="M96.3606 66.166C92.9488 66.6875 89.5391 67.1377 86.3014 67.5748C83.4879 70.1543 80.5461 72.7424 77.75 75.2829C80.9617 74.954 84.1233 74.6078 87.4568 74.2312C90.54 71.4419 93.458 68.8018 96.3606 66.166Z" fill="#081F25"/>
<path fill-rule="evenodd" clip-rule="evenodd" d="M75.8633 69.7949C72.9279 70.2667 70.2102 70.5913 67.6579 70.9202C65.0207 73.3331 62.3595 75.7091 59.8594 78.1393C62.3704 77.8775 64.9401 77.6178 67.7906 77.2542C70.443 74.7894 73.0846 72.3701 75.8633 69.7971V69.7949Z" fill="#081F25"/>
<path fill-rule="evenodd" clip-rule="evenodd" d="M65.7665 71.6447C63.1685 71.991 60.8533 72.3545 58.4924 72.7917C56.038 74.9773 53.6292 77.1413 51.0508 79.4698C53.2659 79.1798 55.6616 78.998 58.0572 78.7989C60.5661 76.4012 63.1163 74.0273 65.7687 71.6426L65.7665 71.6447Z" fill="#081F25"/>
<path fill-rule="evenodd" clip-rule="evenodd" d="M151.175 49.1242C146.05 49.9271 141.211 50.6434 136.559 51.4462C133.217 54.2248 130.046 57.0813 126.617 60.2104C131.306 59.4941 136.041 58.9834 140.878 58.358C144.327 55.1726 147.732 52.1495 151.172 49.1221L151.175 49.1242Z" fill="#081F25"/>
<path fill-rule="evenodd" clip-rule="evenodd" d="M134.349 51.6777C129.769 52.4654 125.395 53.08 121.104 53.8223C118.132 56.577 115.018 59.2344 111.863 62.1212C116.026 61.5196 120.323 60.9916 124.669 60.3316C127.852 57.4405 131.033 54.6229 134.349 51.6777Z" fill="#081F25"/>
<path fill-rule="evenodd" clip-rule="evenodd" d="M146.215 41.4395C141.556 42.2596 137.091 43.1598 132.726 43.9735C129.586 46.7499 126.516 49.4138 123.441 52.0863C127.56 51.3809 132.032 50.6992 136.723 49.9029C139.822 47.1481 143.055 44.3003 146.217 41.4395H146.215Z" fill="#081F25"/>
<path fill-rule="evenodd" clip-rule="evenodd" d="M196.888 44.3545C190.186 45.2785 183.946 46.1376 178.01 46.7544C174.061 50.154 170.444 53.6424 166.945 56.9143C172.707 56.4318 178.843 55.7393 185.349 55.0403C189.05 51.5108 192.9 47.9337 196.886 44.3567L196.888 44.3545Z" fill="#081F25"/>
<path fill-rule="evenodd" clip-rule="evenodd" d="M16.0321 110.317C14.609 109.926 13.3057 109.51 12.061 109.175C10.1288 111.083 8.13133 113.031 6.23828 115.173C7.20004 115.673 8.33369 116.275 9.53045 116.82C11.5976 114.736 13.8214 112.458 16.0321 110.317Z" fill="#081F25"/>
<path fill-rule="evenodd" clip-rule="evenodd" d="M21.364 111.664C19.695 111.272 18.148 110.846 16.6618 110.461C14.3923 112.755 12.2251 114.96 10.1602 117.055C11.3613 117.712 12.6842 118.327 14.129 118.957C16.479 116.52 18.9291 114.027 21.364 111.664Z" fill="#081F25"/>
<path fill-rule="evenodd" clip-rule="evenodd" d="M27.5596 113.068C25.6448 112.728 23.904 112.257 22.2264 111.778C19.6806 114.351 17.2305 116.788 14.9414 119.168C16.5081 119.675 18.0834 120.27 19.9525 120.742C22.4657 118.175 25.079 115.596 27.5617 113.068H27.5596Z" fill="#081F25"/>
<path fill-rule="evenodd" clip-rule="evenodd" d="M35.4704 114.646C33.2314 114.163 31.0576 113.652 28.8991 113.311C26.3598 115.827 23.6987 118.649 21.1289 121.313C23.072 121.841 24.9672 122.614 26.9277 123.38C29.7173 120.38 32.6635 117.53 35.4704 114.644V114.646Z" fill="#081F25"/>
<path fill-rule="evenodd" clip-rule="evenodd" d="M44.0613 116.065C41.4437 115.674 38.8391 115.282 36.6458 114.782C33.7823 117.621 30.8383 120.508 27.9922 123.484C30.2051 124.204 32.5399 124.83 34.9508 125.511C37.836 122.421 40.8736 119.298 44.0613 116.065Z" fill="#081F25"/>
<path fill-rule="evenodd" clip-rule="evenodd" d="M53.8608 117.935C50.8472 117.469 48.0794 116.946 45.4378 116.39C42.1391 119.735 39.0493 122.949 36.1641 125.993C38.588 126.686 41.2122 127.549 43.906 128.361C47.2895 124.788 50.4185 121.505 53.8608 117.933V117.935Z" fill="#081F25"/>
<path fill-rule="evenodd" clip-rule="evenodd" d="M64.9255 120.257C61.4984 119.673 58.3151 119.013 55.21 118.383C51.8896 121.91 48.5865 125.305 45.2617 128.815C48.1078 129.742 51.1476 130.644 54.2613 131.553C57.782 127.718 61.4484 123.875 64.9255 120.257Z" fill="#081F25"/>
<path fill-rule="evenodd" clip-rule="evenodd" d="M78.9244 122.285C74.9903 121.501 71.2238 120.915 67.7206 120.404C64.126 123.984 60.4791 127.9 56.9062 131.724C60.2202 132.514 63.7974 133.364 67.3659 134.542C71.2956 130.231 75.036 126.228 78.9266 122.285H78.9244Z" fill="#081F25"/>
<path fill-rule="evenodd" clip-rule="evenodd" d="M93.3158 124.83C88.8834 123.967 84.5186 122.991 80.6889 122.235C76.7636 126.353 72.7903 130.413 69.0391 134.622C72.8186 135.775 76.818 137.035 81.1829 138.065C85.1822 133.622 89.2142 129.312 93.3158 124.832V124.83Z" fill="#081F25"/>
<path fill-rule="evenodd" clip-rule="evenodd" d="M110.427 127.881C105.294 126.99 100.202 126.217 95.8044 124.951C91.6636 129.513 87.4314 134.114 83.5039 138.593C87.8688 139.855 92.4535 141.138 97.3079 142.358C101.747 137.383 105.996 132.674 110.429 127.881H110.427Z" fill="#081F25"/>
<path fill-rule="evenodd" clip-rule="evenodd" d="M129.812 131.976C123.78 130.731 118.234 129.619 113.02 128.438C108.544 133.35 104.023 138.258 99.6055 143.376C105.045 144.88 110.063 146.756 115.82 148.225C120.577 142.761 125.279 137.321 129.812 131.976Z" fill="#081F25"/>
<path fill-rule="evenodd" clip-rule="evenodd" d="M152.219 137.097C145.165 135.717 138.913 134.412 132.609 133.042C127.905 138.437 123.212 143.929 118.512 149.298C124.398 151.241 130.632 153.143 137.172 155.091C142.347 148.792 147.264 142.869 152.219 137.097Z" fill="#081F25"/>
<path fill-rule="evenodd" clip-rule="evenodd" d="M385.424 105.912C380.983 102.367 376.635 98.7899 372.662 95.5244C366.243 99.1534 359.852 102.534 353.398 106.366C357 110.121 360.566 114.057 364.876 118.084C371.835 113.977 378.789 109.893 385.421 105.912H385.424Z" fill="#081F25"/>
<path fill-rule="evenodd" clip-rule="evenodd" d="M167.581 98.6362C165.814 96.8596 164.089 95.2063 162.294 93.791C159.794 95.5395 157.189 97.4027 154.617 99.1751C156.214 100.856 157.722 102.663 159.343 104.695C162.111 102.629 164.872 100.577 167.583 98.6362H167.581Z" fill="#081F25"/>
<path fill-rule="evenodd" clip-rule="evenodd" d="M97.6604 33.0004C96.9728 31.953 96.3418 30.8624 95.7608 29.7695C93.5109 31.6284 91.1087 33.6409 88.75 35.6015C89.1177 36.8588 89.6378 38.0079 90.2253 39.2392C92.6928 37.1683 95.2016 35.0627 97.6582 33.0004H97.6604Z" fill="#081F25"/>
<path fill-rule="evenodd" clip-rule="evenodd" d="M113.502 47.0745C112.956 46.475 112.525 45.8908 112.096 45.3281C110.634 46.3885 109.163 47.4294 107.742 48.4681C108.071 49.1108 108.41 49.866 108.791 50.4979C110.364 49.3618 111.879 48.2344 113.502 47.0723V47.0745Z" fill="#081F25"/>
<path fill-rule="evenodd" clip-rule="evenodd" d="M163.89 19.6503C162.571 19.0899 161.323 18.5943 160.087 18.1377C158.222 19.4036 156.359 20.7129 154.453 22.0935C155.493 22.7189 156.636 23.275 157.935 23.9935C159.876 22.4808 161.884 21.0678 163.89 19.6525V19.6503Z" fill="#081F25"/>
<path fill-rule="evenodd" clip-rule="evenodd" d="M142.514 16.305C141.718 15.9306 141.122 15.4394 140.491 15.0693C138.972 16.0604 137.525 17.1792 136.062 18.2591C136.598 18.733 137.092 19.2935 137.738 19.7263C139.194 18.6161 140.852 17.4411 142.514 16.305Z" fill="#081F25"/>
<path fill-rule="evenodd" clip-rule="evenodd" d="M109.288 8.12938C108.866 7.8221 108.405 7.58622 107.989 7.30273C106.894 8.14886 105.696 9.02312 104.645 9.83029C105.008 10.1592 105.323 10.4925 105.648 10.8733C106.847 9.97095 108.091 9.05125 109.288 8.12938Z" fill="#081F25"/>
<path fill-rule="evenodd" clip-rule="evenodd" d="M29.0655 91.4564C28.8871 91.0019 28.6521 90.5475 28.5303 90.1104C27.6555 90.7076 26.8396 91.3893 25.9648 92.0125C26.0323 92.5405 26.1541 93.0404 26.276 93.5403C27.2617 92.8413 28.1386 92.1488 29.0655 91.4564Z" fill="#081F25"/>
<path fill-rule="evenodd" clip-rule="evenodd" d="M193.11 11.0548C191.805 10.6696 190.471 10.4056 189.342 10.0117C187.525 11.1954 185.606 12.4246 183.887 13.565C184.981 14.0454 186.006 14.4544 187.216 14.9045C189.024 13.6646 191.139 12.2969 193.11 11.0548Z" fill="#081F25"/>
<path fill-rule="evenodd" clip-rule="evenodd" d="M124.361 17.6404C123.608 17.4023 122.866 17.2336 122.172 17.0215C121.003 17.8611 119.68 18.783 118.453 19.614C119.152 19.8607 119.796 20.09 120.498 20.3411C121.821 19.4235 123.042 18.5601 124.363 17.6404H124.361Z" fill="#081F25"/>
<path fill-rule="evenodd" clip-rule="evenodd" d="M106.623 36.9473C105.87 36.7006 105.165 36.4171 104.473 36.2354C103.372 36.9819 102.162 37.7826 101 38.527C101.698 38.7737 102.397 39.0334 103.048 39.3277C104.203 38.5422 105.415 37.7523 106.623 36.9473Z" fill="#081F25"/>
<path fill-rule="evenodd" clip-rule="evenodd" d="M223.749 47.2745C222.115 46.8482 220.548 46.4132 219.042 46.0107C217.06 47.0776 215.13 48.0925 213.039 49.2091C214.586 49.5619 216.105 50.0444 217.622 50.4924C219.593 49.3931 221.751 48.3024 223.749 47.2745Z" fill="#081F25"/>
<path fill-rule="evenodd" clip-rule="evenodd" d="M88.3908 53.846C87.6923 53.6014 86.9873 53.279 86.3454 53.0215C85.264 53.7421 84.2892 54.4021 83.2578 55.1054C83.8453 55.3781 84.4372 55.6854 85.0856 56.0143C86.1692 55.2655 87.2572 54.612 88.3908 53.8438V53.846Z" fill="#081F25"/>
<path fill-rule="evenodd" clip-rule="evenodd" d="M97.2555 25.2012C96.6441 25.0432 96.0457 24.9826 95.4386 24.8701C94.5487 25.476 93.6152 26.1534 92.7188 26.7225C93.2192 26.8307 93.8285 26.9865 94.3376 27.1596C95.3255 26.478 96.2633 25.8201 97.2555 25.2034V25.2012Z" fill="#081F25"/>
<path fill-rule="evenodd" clip-rule="evenodd" d="M5.72089 111.467C5.3858 111.218 5.05071 110.961 4.83094 110.723C4.20646 111.121 3.52322 111.575 2.95312 111.939C3.17289 112.205 3.44924 112.432 3.72558 112.718C4.40882 112.257 5.03766 111.872 5.72089 111.469V111.467Z" fill="#081F25"/>
<path fill-rule="evenodd" clip-rule="evenodd" d="M300.769 84.9427C298.297 84.3411 295.649 83.9819 293.127 83.4365C290.643 84.3 288.382 85.0552 286.16 85.9424C288.449 86.3622 290.928 86.953 293.515 87.5438C295.932 86.6522 298.415 85.7953 300.767 84.9427H300.769Z" fill="#081F25"/>
<path fill-rule="evenodd" clip-rule="evenodd" d="M292.328 129.777C290.098 128.385 287.892 127 285.672 125.795C282.565 126.987 279.397 128.39 276.207 129.742C278.272 131.116 280.324 132.456 282.398 134.018C285.855 132.451 289.13 131.138 292.328 129.775V129.777Z" fill="#081F25"/>
<path fill-rule="evenodd" clip-rule="evenodd" d="M238.325 74.4132C236.315 73.2663 234.461 72.2427 232.74 71.2451C230.094 72.7101 227.337 74.2661 224.582 75.8501C226.314 76.9126 227.861 78.1894 229.791 79.2865C232.72 77.6441 235.516 76.0102 238.325 74.4132Z" fill="#081F25"/>
</g>
</g>
<defs>
<clipPath id="clip0_1518_10623">
<rect width="412" height="276" fill="white" transform="translate(0 0.078125)"/>
</clipPath>
<clipPath id="clip1_1518_10623">
<rect width="725" height="394" fill="white" transform="matrix(-1 0 0 1 504 -54.9219)"/>
</clipPath>
<clipPath id="clip2_1518_10623">
<rect width="566" height="308" fill="white" transform="translate(-20 -31.9219)"/>
</clipPath>
</defs>
</svg>
