<svg width="13" height="14" viewBox="0 0 13 14" fill="none" xmlns="http://www.w3.org/2000/svg">
<path d="M9.47091 11.103L6.91316 9.68603C7.86378 8.93813 8.12216 7.46831 8.12216 6.64403V4.92844C8.12216 3.79256 6.61294 2.5275 5.09681 2.5275C3.5815 2.5275 2.03206 3.79256 2.03206 4.92844V6.64403C2.03206 7.39356 2.34894 8.90928 3.30931 9.67953L0.68575 11.1026C0.68575 11.1026 0 11.4081 0 11.7888V12.8182C0 13.1972 0.307531 13.5044 0.68575 13.5044H9.47091C9.84912 13.5044 10.1567 13.1968 10.1567 12.8182V11.7888C10.1567 11.385 9.4705 11.1026 9.4705 11.1026L9.47091 11.103ZM9.34416 12.6927H0.8125V11.9663C0.870594 11.9237 0.95225 11.8745 1.01644 11.8453C1.03553 11.8367 1.05463 11.8274 1.07291 11.8168L3.69688 10.3937C3.93616 10.2637 4.09459 10.0232 4.11897 9.75225C4.14334 9.48128 4.03 9.216 3.81794 9.04578C3.13666 8.49938 2.84456 7.28997 2.84456 6.64444V4.92884C2.84456 4.34506 3.94469 3.34041 5.09681 3.34041C6.27047 3.34041 7.30966 4.33166 7.30966 4.92884V6.64444C7.30966 7.28062 7.11222 8.49572 6.41103 9.04741C6.19653 9.21641 6.08075 9.48209 6.1035 9.75387C6.12625 10.0257 6.28469 10.2686 6.52397 10.3994L9.08172 11.8164C9.10406 11.8286 9.13291 11.842 9.15647 11.8526C9.21659 11.8782 9.29012 11.9204 9.34416 11.9578V12.6927ZM12.3142 9.08031L9.71831 7.66331C10.6689 6.91541 10.9655 5.44559 10.9655 4.62131V2.90572C10.9655 1.76984 9.4185 0.492188 7.90237 0.492188C6.91722 0.492188 5.91012 1.02803 5.32391 1.71378C5.65825 1.7345 6.02672 1.73491 6.34522 1.83647C6.77341 1.50294 7.31453 1.30509 7.90237 1.30509C9.07603 1.30509 10.153 2.30853 10.153 2.90613V4.62172C10.153 5.25791 9.91738 6.473 9.21659 7.02469C9.00169 7.19369 8.88631 7.45937 8.90906 7.73116C8.93181 8.00334 9.08984 8.24588 9.32953 8.37669L11.9255 9.79369C11.9478 9.80587 11.9767 9.81928 12.0002 9.82984C12.0603 9.85544 12.1339 9.89769 12.1879 9.93506V10.6578H10.5479C10.7957 10.8447 10.8704 11.112 10.9667 11.4703H12.3151C12.6933 11.4703 13.0008 11.1628 13.0008 10.7841V9.76728C13.0004 9.36306 12.3142 9.08031 12.3142 9.08031Z" fill="#6A6A6A"/>
</svg>
