<svg width="234" height="63" viewBox="0 0 234 63" fill="none" xmlns="http://www.w3.org/2000/svg">
<path d="M51.5655 9.32653C48.8684 7.64538 40.7709 15.0866 39.9092 14.2647C39.1925 13.5801 45.0669 8.69338 43.9059 6.85811C42.8592 5.20393 36.2348 7.22413 23.0283 11.3326C16.9689 13.2205 13.8455 14.2608 11.1754 16.9566C10.2456 17.8967 7.28786 20.8865 6.79854 25.266C6.74973 25.6937 6.73561 26.0494 6.73047 26.2935V43.4351C6.73047 50.726 13.5244 56.6351 21.9045 56.6351H41.6134C42.8194 56.6428 47.8795 56.5504 52.1242 52.9671C52.5403 52.6152 56.9891 48.7521 57.0816 43.3811C57.0816 43.304 57.0816 43.2398 57.0816 43.1987C57.0816 38.2499 57.0816 33.301 57.0816 28.3522C57.0816 28.2058 57.106 27.8552 57.0816 27.3877C57.0225 26.2793 56.7669 25.3045 56.3572 24.2334C55.9295 23.1161 55.3298 22.0771 54.1302 19.9952C53.5973 19.0718 52.8459 17.8248 52.6764 17.5551C52.4324 17.1698 52.4272 17.1788 52.3373 16.9566C50.6986 12.9123 52.8138 10.1035 51.5655 9.32653Z" fill="#24B2B4" stroke="black" stroke-width="0.235419" stroke-miterlimit="10"/>
<path d="M50.7377 37.8549C49.1631 31.2048 42.6157 31.9047 42.6157 31.9047C42.6157 31.9047 39.405 32.0331 37.3681 34.5041C36.3008 35.8 36.0131 37.2461 35.8153 38.2633C35.0987 41.9544 36.6206 43.6933 35.4082 45.0457C34.5811 45.9678 33.1222 45.9974 31.9406 46.0205C30.759 46.0436 29.4003 46.0731 28.5411 45.2499C27.2349 43.9964 28.5064 42.1676 27.6356 38.2659C27.3595 37.0265 27.0769 35.7127 26.0842 34.5067C24.046 32.0331 20.8365 31.9073 20.8365 31.9073C20.8365 31.9073 14.2866 31.2073 12.7146 37.8575C12.1867 40.0896 11.8336 40.5404 11.045 41.3687C9.84931 42.6184 8.0911 42.9908 6.76184 43.1064C6.72358 44.1353 6.8238 45.1647 7.0598 46.1669C7.47431 47.7966 8.20716 49.3282 9.21615 50.6735C9.86729 51.5546 10.6199 52.356 11.4585 53.061C13.0173 54.3423 14.8188 55.2955 16.755 55.8634C18.1201 56.2745 19.528 56.527 20.9508 56.616C21.4645 56.6494 21.7368 56.6442 23.4334 56.6417C24.8333 56.6417 26.2319 56.6417 27.6305 56.6417C31.152 56.625 32.9141 56.616 33.8979 56.6224C36.3381 56.6391 38.7911 56.6224 41.2377 56.6417C42.1638 56.6558 43.0898 56.6013 44.0079 56.4786C45.016 56.3451 46.0096 56.1186 46.9759 55.8017L47.1737 55.735C48.6949 55.1935 50.1334 54.4431 51.4479 53.5054C52.3394 52.834 53.147 52.0578 53.8534 51.1937C54.5084 50.4154 55.6951 48.9834 56.4297 46.8129C56.8346 45.6126 57.0449 44.3552 57.0526 43.0884C56.2512 43.1167 54.0897 43.0884 52.5999 41.7682C52.2108 41.4188 51.5185 41.1543 50.7377 37.8549Z" fill="#FFFEFF" stroke="black" stroke-width="0.235419" stroke-miterlimit="10"/>
<path d="M20.643 41.6033C22.5751 41.6033 24.1414 40.037 24.1414 38.1049C24.1414 36.1727 22.5751 34.6064 20.643 34.6064C18.7108 34.6064 17.1445 36.1727 17.1445 38.1049C17.1445 40.037 18.7108 41.6033 20.643 41.6033Z" fill="black"/>
<path d="M43.1781 41.6033C45.1103 41.6033 46.6766 40.037 46.6766 38.1049C46.6766 36.1727 45.1103 34.6064 43.1781 34.6064C41.246 34.6064 39.6797 36.1727 39.6797 38.1049C39.6797 40.037 41.246 41.6033 43.1781 41.6033Z" fill="black"/>
<path d="M31.908 50.2494C31.376 50.2493 30.8612 50.0614 30.4541 49.719C28.7242 48.2677 27.2639 45.9354 26.5473 44.6742C26.3139 44.2673 26.2122 43.7982 26.2561 43.3311C26.3 42.8641 26.4874 42.4221 26.7926 42.0658C27.9984 40.6577 29.6154 39.6633 31.4161 39.2224C31.7432 39.1479 32.083 39.1479 32.4101 39.2224C34.2108 39.6633 35.8278 40.6577 37.0336 42.0658C37.3388 42.4221 37.526 42.8642 37.5697 43.3313C37.6134 43.7984 37.5114 44.2675 37.2776 44.6742C36.561 45.9354 35.102 48.2703 33.3708 49.719C32.9614 50.0634 32.443 50.2514 31.908 50.2494Z" fill="#FBCC18" stroke="black" stroke-width="0.224343" stroke-miterlimit="10"/>
<path d="M31.9076 44.5484C29.5149 44.1464 28.0547 43.3591 28.0547 43.3591C29.104 45.721 31.9076 47.7258 31.9076 47.7258C31.9076 47.7258 34.7177 45.7184 35.7682 43.3591C35.7682 43.3591 34.3015 44.1464 31.9076 44.5484Z" fill="black"/>
<path d="M88.3048 24.144L84.1513 44.9112H79.3147L72.4616 33.5195L70.1781 44.9112H64.4219L68.5753 24.144H73.4107L80.2946 35.5063L82.5485 24.144H88.3048Z" fill="white"/>
<path d="M105.927 38.2571H94.1189C94.327 40.0371 95.5432 40.868 97.7689 40.868C99.1919 40.868 100.587 40.4224 101.655 39.5619L103.999 43.0924C101.981 44.5758 99.5785 45.1692 97.1447 45.1692C91.9831 45.1692 88.6016 42.3219 88.6016 37.8409C88.6016 32.5008 92.5469 28.5554 98.3314 28.5554C103.227 28.5554 106.253 31.404 106.253 35.6191C106.241 36.5077 106.132 37.3924 105.927 38.2571ZM94.4451 35.2903H101.062C101.091 33.5693 99.8752 32.5612 98.0656 32.5612C96.1661 32.5612 94.9794 33.6875 94.4451 35.2903Z" fill="white"/>
<path d="M118.651 36.9251L123.011 44.9058H117.019L114.824 40.6933L110.938 44.9058H104.559L112.598 36.658L108.36 28.8237H114.268L116.404 32.9181L120.231 28.8237H126.432L118.651 36.9251Z" fill="white"/>
<path d="M134.284 28.6776L133.364 33.2472H142.532L141.612 37.7859H132.474L131.05 44.9061H125.176L129.327 24.144H145.585L144.665 28.6828L134.284 28.6776Z" fill="#24B2B4"/>
<path d="M161.459 38.2571H149.651C149.86 40.0371 151.076 40.868 153.3 40.868C154.724 40.868 156.119 40.4224 157.186 39.5619L159.53 43.0924C157.514 44.5758 155.11 45.1692 152.677 45.1692C147.516 45.1692 144.133 42.3219 144.133 37.8409C144.133 32.5008 148.079 28.5554 153.864 28.5554C158.76 28.5554 161.786 31.404 161.786 35.6191C161.773 36.5077 161.664 37.3923 161.459 38.2571ZM149.978 35.2903H156.593C156.624 33.5693 155.406 32.5612 153.597 32.5612C151.699 32.5612 150.517 33.6875 149.978 35.2903Z" fill="#24B2B4"/>
<path d="M166.922 22.8921H172.559L168.168 44.905H162.531L166.922 22.8921Z" fill="#24B2B4"/>
<path d="M176.204 22.8921H181.84L177.449 44.905H171.812L176.204 22.8921Z" fill="#24B2B4"/>
<path d="M181.602 37.8409C181.602 32.5303 185.725 28.5554 191.48 28.5554C196.618 28.5554 199.907 31.4335 199.907 35.8541C199.907 41.1942 195.783 45.1692 190.027 45.1692C184.9 45.1692 181.602 42.2615 181.602 37.8409ZM194.18 36.1508C194.18 34.2808 193.083 33.0685 191.154 33.0685C188.899 33.0685 187.327 34.878 187.327 37.5776C187.327 39.4476 188.425 40.6343 190.353 40.6343C192.613 40.6304 194.188 38.8209 194.188 36.1508H194.18Z" fill="#24B2B4"/>
<path d="M230.464 28.8237L221.683 44.9032H216.106L214.593 36.152L209.875 44.9032H204.353L201.633 28.8237H206.794L208.248 38.4958L213.559 28.8237H218.396L219.879 38.4958L225.19 28.8237H230.464Z" fill="#24B2B4"/>
</svg>
