<svg xmlns="http://www.w3.org/2000/svg" xmlns:xlink="http://www.w3.org/1999/xlink" viewBox="0 0 1695 1130"><defs><linearGradient id="a" x1="1011.09" y1="908.47" x2="1146.23" y2="908.47" gradientUnits="userSpaceOnUse"><stop offset="0" stop-color="#fff"/><stop offset="1" stop-color="#24b2b4"/></linearGradient><linearGradient id="b" x1="888.46" y1="979.44" x2="1058.87" y2="979.44" xlink:href="#a"/><linearGradient id="c" x1="1438.19" y1="855.16" x2="1505.03" y2="855.16" xlink:href="#a"/><linearGradient id="d" x1="498.75" y1="960.68" x2="586.94" y2="960.68" xlink:href="#a"/><linearGradient id="e" x1="643.48" y1="895.28" x2="731.67" y2="895.28" xlink:href="#a"/><linearGradient id="f" x1="893.73" y1="946.74" x2="981.93" y2="946.74" xlink:href="#a"/><linearGradient id="g" x1="1113.83" y1="948.62" x2="1220.12" y2="948.62" xlink:href="#a"/><linearGradient id="h" x1="253.02" y1="973.55" x2="341.21" y2="973.55" xlink:href="#a"/><linearGradient id="i" x1="1303.03" y1="871.52" x2="1443.52" y2="871.52" xlink:href="#a"/><clipPath id="k"><polygon points="1011.09 726.81 1011.09 1124.64 1146.23 1124.64 1128.48 692.3 1011.09 726.81" style="fill:url(#a)"/></clipPath><linearGradient id="l" x1="1011.08" y1="908.47" x2="1146.24" y2="908.47" xlink:href="#a"/><linearGradient id="m" x1="756.05" y1="891.26" x2="936.21" y2="891.26" xlink:href="#a"/><linearGradient id="n" x1="534.69" y1="961.35" x2="670.61" y2="961.35" xlink:href="#a"/><linearGradient id="o" x1="355.28" y1="966.44" x2="471.36" y2="966.44" xlink:href="#a"/><linearGradient id="p" x1="164.07" y1="994.07" x2="286.94" y2="994.07" xlink:href="#a"/><linearGradient id="q" x1="0" y1="963.19" x2="142.71" y2="963.19" xlink:href="#a"/><linearGradient id="r" x1="206.03" y1="1028.69" x2="319.79" y2="1028.69" xlink:href="#a"/><linearGradient id="s" x1="326.28" y1="1016.85" x2="439.91" y2="1016.85" xlink:href="#a"/><linearGradient id="t" x1="657.8" y1="1003.61" x2="785.19" y2="1003.61" xlink:href="#a"/><linearGradient id="u" x1="1108.56" y1="1006.75" x2="1255.54" y2="1006.75" xlink:href="#a"/><linearGradient id="v" x1="1515.52" y1="998.79" x2="1628.16" y2="998.79" xlink:href="#a"/><linearGradient id="w" x1="1549.67" y1="867.34" x2="1594.01" y2="867.34" xlink:href="#a"/><linearGradient id="x" x1="1566.1" y1="1022.61" x2="1695" y2="1022.61" xlink:href="#a"/><clipPath id="z"><polygon points="888.46 830.04 888.46 1128.85 1058.87 1128.85 1058.87 929.64 904.12 830.04 888.46 830.04" style="fill:url(#b)"/></clipPath><linearGradient id="aa" x1="888.45" y1="979.44" x2="1058.86" y2="979.44" xlink:href="#a"/><linearGradient id="ab" x1="1273.31" y1="985.88" x2="1428.16" y2="985.88" xlink:href="#a"/><linearGradient id="ac" x1="1442.97" y1="1003.39" x2="1541.6" y2="1003.39" xlink:href="#a"/><linearGradient id="ad" x1="462.07" y1="1020.28" x2="623.88" y2="1020.28" xlink:href="#a"/><linearGradient id="ae" x1="847.5" y1="1133.43" x2="847.5" y2="0.57" gradientTransform="matrix(1, 0, 0, -1, 0, 1132)" xlink:href="#a"/></defs><polygon points="0 0 1695 0 1695 0 1695 1130 0 1130 0 0" style="fill:#fff"/><rect x="1438.19" y="739.18" width="66.83" height="231.95" style="fill:url(#c)"/><rect x="498.75" y="810.3" width="88.19" height="300.75" style="fill:url(#d)"/><rect x="643.48" y="744.9" width="88.19" height="300.75" style="fill:url(#e)"/><rect x="893.73" y="796.36" width="88.19" height="300.75" style="fill:url(#f)"/><rect x="1113.83" y="780.28" width="106.28" height="336.67" style="fill:url(#g)"/><rect x="253.02" y="823.17" width="88.19" height="300.75" style="fill:url(#h)"/><polygon points="1411.41 661.91 1411.41 654.73 1381.14 630.9 1381.14 619.45 1365.42 619.45 1365.42 630.9 1335.14 654.73 1335.14 661.91 1303.03 661.91 1303.03 1122.85 1443.52 1123.6 1443.52 661.91 1411.41 661.91" style="fill:url(#i)"/><polygon points="1011.09 726.81 1011.09 1124.64 1146.23 1124.64 1128.48 692.3 1011.09 726.81" style="fill:url(#a)"/><g style="clip-path:url(#k)"><polygon points="1128.48 692.3 1011.09 726.81 1011.09 1124.64 1146.23 1124.64 1128.48 692.3" style="fill:url(#l)"/></g><path d="M870.49,655.53v82.39h14.73s-1.13,25.5,51,24.85V1127H756.05V690.84s22.66,5.23,35.12-7.84V656.19s78.19,0,79.32-.66" style="fill:url(#m)"/><rect x="534.69" y="797.42" width="135.93" height="327.87" style="fill:url(#n)"/><polygon points="454.78 843.13 454.78 832.96 448.25 832.96 431.66 820.52 429.65 810.35 427.64 819.67 414.58 819.67 412.07 819.67 399 819.67 396.99 810.35 394.98 820.52 378.4 832.96 371.87 832.96 371.87 843.13 355.28 843.13 355.28 884.68 355.28 1121.04 412.07 1121.04 414.58 1122.53 471.36 1122.53 471.36 884.68 471.36 843.13 454.78 843.13" style="fill:url(#o)"/><rect x="164.07" y="862.85" width="122.87" height="262.43" style="fill:url(#p)"/><polygon points="132.66 815.79 132.66 807.31 111.56 807.31 111.56 805.33 12.06 797.98 12.06 815.79 0 815.79 0 1128.39 142.71 1128.39 142.71 815.79 132.66 815.79" style="fill:url(#q)"/><polygon points="299.1 935.07 299.1 929.41 230.44 929.41 230.44 935.07 206.03 935.07 206.03 1127.97 319.79 1127.97 319.79 935.07 299.1 935.07" style="fill:url(#r)"/><polygon points="439.91 917.75 405.28 917.75 405.28 908 361.66 908 361.66 917.75 326.28 917.75 338.62 924.7 338.62 1125.71 427.56 1125.71 427.56 924.7 439.91 917.75" style="fill:url(#s)"/><path d="M785.19,1127.83H657.8c5.76-8.6,13.27-23.23,11.56-41.55-1.21-12.94-6.62-23.48-11.56-30.81V879.38H785.19v176.37a80.4,80.4,0,0,0-8.8,29.68c-1.53,17.68,3.66,32.34,8.8,42.4" style="fill:url(#t)"/><rect x="1108.56" y="885.11" width="146.99" height="243.28" style="fill:url(#u)"/><rect x="1515.52" y="873.15" width="112.65" height="251.29" style="fill:url(#v)"/><rect x="1549.67" y="858.75" width="44.35" height="17.19" style="fill:url(#w)"/><polygon points="1695 928.78 1667.46 920.08 1593.64 920.08 1566.1 928.78 1571.58 928.78 1571.58 1125.14 1688.63 1125.14 1688.63 928.78 1695 928.78" style="fill:url(#x)"/><polygon points="888.46 830.04 888.46 1128.85 1058.87 1128.85 1058.87 929.64 904.12 830.04 888.46 830.04" style="fill:url(#b)"/><g style="clip-path:url(#z)"><polygon points="904.13 830.03 888.45 830.03 888.45 1128.85 1058.86 1128.85 1058.86 929.64 904.13 830.03" style="fill:url(#aa)"/></g><polygon points="1414.31 872.57 1414.31 864.89 1412.86 864.44 1377.37 853.37 1377.37 845.69 1353.66 845.69 1347.81 845.69 1324.11 845.69 1324.11 853.37 1287.91 864.65 1287.16 864.89 1287.16 872.57 1273.31 872.57 1273.31 1126.07 1347.81 1126.07 1353.66 1126.07 1428.16 1126.07 1428.16 872.57 1414.31 872.57" style="fill:url(#ab)"/><path d="M1530.94,907c-.4-13.77-17.57-24.9-38.66-24.9S1454,893.27,1453.63,907H1443v217.6h98.63V907Z" style="fill:url(#ac)"/><polygon points="623.88 939.5 623.88 935.93 615.33 935.93 615.33 924.85 606.29 924.85 606.29 910.55 480.66 910.55 480.66 924.85 471.61 924.85 471.61 935.93 462.06 935.93 462.06 939.5 471.61 939.5 471.61 947.37 462.06 947.37 462.06 950.94 471.61 950.94 471.61 958.8 462.06 958.8 462.06 962.38 471.61 962.38 471.61 970.24 462.06 970.24 462.06 973.82 471.61 973.82 471.61 981.68 462.06 981.68 462.06 985.25 471.61 985.25 471.61 993.12 462.06 993.12 462.06 996.69 471.61 996.69 471.61 1004.55 462.06 1004.55 462.06 1008.13 471.61 1008.13 471.61 1015.99 462.06 1015.99 462.06 1019.56 471.61 1019.56 471.61 1027.42 462.06 1027.42 462.06 1031 471.61 1031 471.61 1038.86 462.06 1038.86 462.06 1042.44 471.61 1042.44 471.61 1050.3 462.06 1050.3 462.06 1053.87 471.61 1053.87 471.61 1061.73 462.06 1061.73 462.06 1065.31 471.61 1065.31 471.61 1073.17 462.06 1073.17 462.06 1076.75 471.61 1076.75 471.61 1084.61 462.06 1084.61 462.06 1088.18 471.61 1088.18 471.61 1096.05 462.06 1096.05 462.06 1099.62 471.61 1099.62 471.61 1130 615.33 1130 615.33 1099.62 623.88 1099.62 623.88 1096.05 615.33 1096.05 615.33 1088.18 623.88 1088.18 623.88 1084.61 615.33 1084.61 615.33 1076.75 623.88 1076.75 623.88 1073.17 615.33 1073.17 615.33 1065.31 623.88 1065.31 623.88 1061.73 615.33 1061.73 615.33 1053.87 623.88 1053.87 623.88 1050.3 615.33 1050.3 615.33 1042.44 623.88 1042.44 623.88 1038.86 615.33 1038.86 615.33 1031 623.88 1031 623.88 1027.42 615.33 1027.42 615.33 1019.56 623.88 1019.56 623.88 1015.99 615.33 1015.99 615.33 1008.13 623.88 1008.13 623.88 1004.55 615.33 1004.55 615.33 996.69 623.88 996.69 623.88 993.12 615.33 993.12 615.33 985.25 623.88 985.25 623.88 981.68 615.33 981.68 615.33 973.82 623.88 973.82 623.88 970.24 615.33 970.24 615.33 962.38 623.88 962.38 623.88 958.8 615.33 958.8 615.33 950.94 623.88 950.94 623.88 947.37 615.33 947.37 615.33 939.5 623.88 939.5" style="fill:url(#ad)"/><polygon points="0 0 1695 0 1695 0 1695 1130 0 1130 0 0" style="opacity:0.81;fill:url(#ae)"/><circle cx="179.75" cy="176.73" r="91.98" style="fill:#24b2b4"/><path d="M236.6,178.56c-6.06-8.87-16.79-9.55-18.16-9.59l-36.65.05,14.3-17.47H180.36a12.67,12.67,0,0,0-9.81,4.66l-16.72,20.54,16.72,20.51a12.67,12.67,0,0,0,9.81,4.66h15.73l-14.35-17.53c20.23,0,34.41.07,36.6.11a6.52,6.52,0,0,1,5.46,2.88,6.36,6.36,0,0,1,.73,5.94,46.43,46.43,0,1,1-14.5-53h0a13.6,13.6,0,0,0-5.49-21A61.93,61.93,0,1,0,239,198.88C240.29,195.63,242.06,186.55,236.6,178.56Z" style="fill:#fff"/><path d="M356,164.8a13.45,13.45,0,0,0-5.7-5.6,18.72,18.72,0,0,0-8.74-1.91q-8.67,0-13.91,5.7t-5.23,15.22q0,10.14,5.49,15.85t15.12,5.7a18.29,18.29,0,0,0,11.14-3.35,19,19,0,0,0,6.64-9.63h-22.7V173.61H377v16.62a35,35,0,0,1-6.74,12.45A35.77,35.77,0,0,1,358.19,212a37.42,37.42,0,0,1-16.53,3.55,39.19,39.19,0,0,1-19.4-4.76A33.88,33.88,0,0,1,309,197.53a41.83,41.83,0,0,1,0-38.76,34,34,0,0,1,13.26-13.29,38.92,38.92,0,0,1,19.34-4.74q13.19,0,22.23,6.39a30.29,30.29,0,0,1,12,17.68Z" style="fill:#24b2b4"/><path d="M441.69,190.11H401.21c.28,3.63,1.44,6.4,3.5,8.32a10.74,10.74,0,0,0,7.58,2.87q6.7,0,9.32-5.65h19.05a26.28,26.28,0,0,1-14.87,17.59,30.63,30.63,0,0,1-12.86,2.62,31.29,31.29,0,0,1-15.28-3.66,26.07,26.07,0,0,1-10.46-10.46,35.63,35.63,0,0,1-.05-31.8,25.64,25.64,0,0,1,10.41-10.46,33.88,33.88,0,0,1,30.44-.11,25.48,25.48,0,0,1,10.3,10.15A30.64,30.64,0,0,1,442,184.9,45.38,45.38,0,0,1,441.69,190.11Zm-18-9.94a9.21,9.21,0,0,0-3.14-7.32,11.56,11.56,0,0,0-7.84-2.71,11.29,11.29,0,0,0-7.59,2.61,11.71,11.71,0,0,0-3.83,7.42Z" style="fill:#24b2b4"/><path d="M506.13,190.11H465.64c.29,3.63,1.45,6.4,3.51,8.32a10.75,10.75,0,0,0,7.59,2.87q6.69,0,9.3-5.65h19A26.1,26.1,0,0,1,499.8,206a26.53,26.53,0,0,1-9.59,7.22,30.79,30.79,0,0,1-12.87,2.61,31.25,31.25,0,0,1-15.27-3.66,26,26,0,0,1-10.44-10.44,35.63,35.63,0,0,1-.05-31.8A25.64,25.64,0,0,1,462,159.48a33.86,33.86,0,0,1,30.43-.11,25.57,25.57,0,0,1,10.31,10.15,30.85,30.85,0,0,1,3.71,15.38A45.38,45.38,0,0,1,506.13,190.11Zm-18-9.94a9.2,9.2,0,0,0-3.13-7.32,11.59,11.59,0,0,0-7.85-2.71,11.26,11.26,0,0,0-7.58,2.61,11.67,11.67,0,0,0-3.84,7.42Z" style="fill:#24b2b4"/><path d="M551.53,215l-17.78-24.48V215h-17.9V137.6h17.9v42.78l17.67-23.74h22.07L549.2,185.93,573.68,215Z" style="fill:#24b2b4"/><path d="M604.35,158.78a33.66,33.66,0,0,1,13.13-13.3,38.14,38.14,0,0,1,19.09-4.76q13.06,0,22.38,6.91a33.23,33.23,0,0,1,12.45,18.82H651.74a15.94,15.94,0,0,0-6.22-7,17.55,17.55,0,0,0-9.16-2.41A17.08,17.08,0,0,0,623,162.77q-5.12,5.74-5.11,15.38T623,193.52a16.94,16.94,0,0,0,13.39,5.76,17.55,17.55,0,0,0,9.16-2.41,15.89,15.89,0,0,0,6.22-7h19.67A33,33,0,0,1,659,208.62q-9.3,6.84-22.37,6.85a38.11,38.11,0,0,1-19.09-4.76,33.7,33.7,0,0,1-13.14-13.23,42.22,42.22,0,0,1,0-38.7Z" style="fill:#24b2b4"/><path d="M700.28,137.6V215h-17.9V137.6Z" style="fill:#24b2b4"/><path d="M713.09,169.93a25.24,25.24,0,0,1,9.26-10.46,24.18,24.18,0,0,1,13.08-3.67,22.38,22.38,0,0,1,10.82,2.52,18.41,18.41,0,0,1,7.17,6.59v-8.27h17.9V215h-17.9v-8.26a19.34,19.34,0,0,1-7.27,6.58,22.41,22.41,0,0,1-10.83,2.52,23.73,23.73,0,0,1-13-3.72,25.63,25.63,0,0,1-9.26-10.56,38.5,38.5,0,0,1,0-31.64Zm36.61,5.33a12.57,12.57,0,0,0-17.78-.37c-.11.1-.21.21-.32.32q-3.71,3.82-3.71,10.51t3.71,10.62a12.48,12.48,0,0,0,17.63.53l.47-.48q3.7-3.87,3.72-10.57T749.7,175.26Z" style="fill:#24b2b4"/><path d="M794.42,213.24a23.17,23.17,0,0,1-9.42-7.16,18.76,18.76,0,0,1-3.86-10.23h17.67a6.82,6.82,0,0,0,2.83,4.92,9.94,9.94,0,0,0,6.17,1.87,9,9,0,0,0,5.18-1.27,4,4,0,0,0,1.83-3.4,3.93,3.93,0,0,0-2.61-3.72,54.89,54.89,0,0,0-8.48-2.67,77.87,77.87,0,0,1-10.46-3.08,18.1,18.1,0,0,1-7.22-5.12q-3-3.51-3-9.47a16,16,0,0,1,2.77-9.15,18.68,18.68,0,0,1,8.16-6.54,31.31,31.31,0,0,1,12.82-2.4q11,0,17.31,5.44a21.16,21.16,0,0,1,7.27,14.43H814.82a7.11,7.11,0,0,0-2.67-4.81,9.27,9.27,0,0,0-5.91-1.78,8.19,8.19,0,0,0-4.81,1.2,3.85,3.85,0,0,0-1.68,3.3,4,4,0,0,0,2.68,3.77,42.79,42.79,0,0,0,8.31,2.5,92.88,92.88,0,0,1,10.56,3.3,18.22,18.22,0,0,1,7.16,5.23q3.09,3.6,3.2,9.68a15.33,15.33,0,0,1-2.88,9.15,19,19,0,0,1-8.26,6.33,31.66,31.66,0,0,1-12.5,2.3A33.56,33.56,0,0,1,794.42,213.24Z" style="fill:#24b2b4"/><path d="M894.63,162.66q6.07,6.65,6.07,18.25V215H882.92v-31.7q0-5.85-3-9.09a11.86,11.86,0,0,0-16.31,0q-3,3.24-3,9.09V215h-17.9V137.6h17.9v26.89a19.18,19.18,0,0,1,7.43-6.17A23.82,23.82,0,0,1,878.53,156Q888.57,156,894.63,162.66Z" style="fill:#24b2b4"/><path d="M0,413.85H1004.94a110.3,110.3,0,0,1,110.3,110.3v0a110.3,110.3,0,0,1-110.3,110.3H0a0,0,0,0,1,0,0V413.85A0,0,0,0,1,0,413.85Z" style="fill:#0f8787"/><path d="M121.75,560.67a41.93,41.93,0,0,1-15.86-15.56,46,46,0,0,1,0-44.89,41.93,41.93,0,0,1,15.86-15.56,45.92,45.92,0,0,1,44,0,41.59,41.59,0,0,1,15.73,15.56,46.33,46.33,0,0,1,0,44.89,41.42,41.42,0,0,1-15.8,15.56,45.79,45.79,0,0,1-43.92,0Zm35.51-13.12a23.83,23.83,0,0,0,9.15-9.94,32.7,32.7,0,0,0,3.29-15,32.31,32.31,0,0,0-3.29-14.94,23.58,23.58,0,0,0-9.15-9.82,26.39,26.39,0,0,0-13.55-3.42,26.7,26.7,0,0,0-13.6,3.42,23.46,23.46,0,0,0-9.21,9.82,32.19,32.19,0,0,0-3.29,14.94,32.57,32.57,0,0,0,3.29,15,23.71,23.71,0,0,0,9.21,9.94,26.34,26.34,0,0,0,13.6,3.48A26,26,0,0,0,157.26,547.55Z" style="fill:#fff"/><path d="M256.93,504.49q7.44,7.62,7.44,21.29v39.65H247.29V528.09q0-8-4-12.38t-11-4.33q-7.08,0-11.17,4.33T217,528.09v37.34H200V497.84H217v8.42a23.53,23.53,0,0,1,8.72-6.9,27.09,27.09,0,0,1,11.65-2.5Q249.49,496.86,256.93,504.49Z" style="fill:#fff"/><path d="M297.68,475.15v90.28H280.6V475.15Z" style="fill:#fff"/><path d="M315.67,486.92a10,10,0,0,1,0-14.27,11.25,11.25,0,0,1,15,0,10,10,0,0,1,0,14.27,11.25,11.25,0,0,1-15,0Zm15.92,10.92v67.59H314.51V497.84Z" style="fill:#fff"/><path d="M405.4,504.49q7.44,7.62,7.44,21.29v39.65H395.76V528.09q0-8-4-12.38t-11-4.33q-7.08,0-11.16,4.33t-4.09,12.38v37.34H348.43V497.84h17.08v8.42a23.53,23.53,0,0,1,8.72-6.9,27.09,27.09,0,0,1,11.65-2.5Q398,496.86,405.4,504.49Z" style="fill:#fff"/><path d="M491.41,536.76H442q.62,7.32,5.13,11.46a15.76,15.76,0,0,0,11.1,4.15q9.51,0,13.54-8.17h18.42a30.76,30.76,0,0,1-11.22,16q-8.3,6.28-20.38,6.28a35.21,35.21,0,0,1-17.5-4.33A30.34,30.34,0,0,1,429,549.93a37.5,37.5,0,0,1-4.33-18.3A38.24,38.24,0,0,1,429,513.21,29.76,29.76,0,0,1,440.9,501a38.39,38.39,0,0,1,35-.12,29.21,29.21,0,0,1,11.83,11.77,35.61,35.61,0,0,1,4.21,17.51A39.88,39.88,0,0,1,491.41,536.76Zm-17.2-11.47a13.54,13.54,0,0,0-4.76-10.55,16.82,16.82,0,0,0-11.34-4,15.53,15.53,0,0,0-10.68,3.84,16.9,16.9,0,0,0-5.31,10.68Z" style="fill:#fff"/><path d="M534.9,500.22a40.56,40.56,0,0,1,15.5-15.5,43.93,43.93,0,0,1,22-5.55,43.34,43.34,0,0,1,25,7.32,38.32,38.32,0,0,1,15,20.25H592.79a20.45,20.45,0,0,0-8.23-9.15,24.23,24.23,0,0,0-12.27-3A25.18,25.18,0,0,0,559.06,498a23.66,23.66,0,0,0-9,9.82,35.77,35.77,0,0,0,0,29.71,23.58,23.58,0,0,0,9,9.88,25.18,25.18,0,0,0,13.23,3.48,23.86,23.86,0,0,0,12.27-3.11,20.82,20.82,0,0,0,8.23-9.21h19.64a38.11,38.11,0,0,1-14.94,20.31q-10.68,7.26-25.07,7.26a43.93,43.93,0,0,1-22-5.55,40.61,40.61,0,0,1-15.5-15.44,47.38,47.38,0,0,1,0-44.95Z" style="fill:#fff"/><path d="M639.52,562.19a31.12,31.12,0,0,1-12.27-12.26,36.79,36.79,0,0,1-4.45-18.3,36,36,0,0,1,4.58-18.3,31.82,31.82,0,0,1,12.5-12.26,38.3,38.3,0,0,1,35.38,0,31.84,31.84,0,0,1,12.51,12.26,36,36,0,0,1,4.57,18.3,35.2,35.2,0,0,1-4.69,18.3A32.56,32.56,0,0,1,675,562.19a36.89,36.89,0,0,1-17.88,4.33A35.54,35.54,0,0,1,639.52,562.19Zm26.29-12.81a16.34,16.34,0,0,0,6.52-6.77,22.78,22.78,0,0,0,2.44-11q0-9.63-5.06-14.82a16.64,16.64,0,0,0-12.38-5.19,16.24,16.24,0,0,0-12.26,5.19q-5,5.19-4.94,14.82T645,546.45a15.84,15.84,0,0,0,12.13,5.19A17.76,17.76,0,0,0,665.81,549.38Z" style="fill:#fff"/><path d="M761.88,504.49q7.44,7.62,7.44,21.29v39.65H752.24V528.09q0-8-4-12.38t-11-4.33q-7.08,0-11.17,4.33T722,528.09v37.34H704.91V497.84H722v8.42a23.53,23.53,0,0,1,8.72-6.9,27.09,27.09,0,0,1,11.65-2.5Q754.44,496.86,761.88,504.49Z" style="fill:#fff"/><path d="M805.43,511.87v32.69q0,3.42,1.65,5t5.55,1.52h7.93v14.4H809.83q-21.6,0-21.6-21V511.87h-8.05v-14h8.05V481.12h17.2v16.72h15.13v14Z" style="fill:#fff"/><path d="M895.22,536.76H845.81q.62,7.32,5.13,11.46a15.78,15.78,0,0,0,11.1,4.15q9.51,0,13.54-8.17H894a30.76,30.76,0,0,1-11.22,16q-8.29,6.28-20.37,6.28a35.22,35.22,0,0,1-17.51-4.33,30.4,30.4,0,0,1-12.08-12.26,37.5,37.5,0,0,1-4.33-18.3,38.24,38.24,0,0,1,4.27-18.42,29.79,29.79,0,0,1,12-12.2,38.37,38.37,0,0,1,34.95-.12,29.15,29.15,0,0,1,11.83,11.77,35.61,35.61,0,0,1,4.21,17.51A39.88,39.88,0,0,1,895.22,536.76ZM878,525.29a13.54,13.54,0,0,0-4.76-10.55,16.82,16.82,0,0,0-11.34-4,15.53,15.53,0,0,0-10.68,3.84,16.94,16.94,0,0,0-5.3,10.68Z" style="fill:#fff"/><path d="M919.13,563.54a26.41,26.41,0,0,1-10.43-8.12,20.52,20.52,0,0,1-4.2-11.34h17.2a9.33,9.33,0,0,0,3.84,6.46,13.36,13.36,0,0,0,8.36,2.56q4.88,0,7.62-2a5.91,5.91,0,0,0,2.75-5,5.27,5.27,0,0,0-3.36-4.94,62.83,62.83,0,0,0-10.67-3.6,90.82,90.82,0,0,1-12.39-3.78,21.54,21.54,0,0,1-8.29-6q-3.48-4-3.48-10.86a17.58,17.58,0,0,1,3.23-10.25,21.74,21.74,0,0,1,9.28-7.32,34.88,34.88,0,0,1,14.21-2.68q12.08,0,19.28,6T960,519.07H943.66a8.89,8.89,0,0,0-3.36-6.41,12.49,12.49,0,0,0-8-2.38q-4.63,0-7.14,1.71a5.47,5.47,0,0,0-2.5,4.76,5.57,5.57,0,0,0,3.42,5.18,53,53,0,0,0,10.61,3.6,90.26,90.26,0,0,1,12.08,3.78,21.52,21.52,0,0,1,8.24,6q3.47,4.1,3.6,10.8a17.88,17.88,0,0,1-3.24,10.49,21.25,21.25,0,0,1-9.27,7.26A35.11,35.11,0,0,1,934,566.52,35.74,35.74,0,0,1,919.13,563.54Z" style="fill:#fff"/><path d="M994.53,511.87v32.69q0,3.42,1.65,5c1.1,1,2.94,1.52,5.55,1.52h7.93v14.4H998.92q-21.58,0-21.59-21V511.87h-8.05v-14h8.05V481.12h17.2v16.72h15.13v14Z" style="fill:#fff"/><g style="opacity:0.54"><path d="M1695,238.76a58.07,58.07,0,0,0-25.83-25.16c-34.25-17.14-66.43,3.78-97.54,24-30.9,20.09-62.86,40.87-96.64,23.95s-36.3-54.94-38.74-91.72c-2.45-37-5-75.33-39.23-92.47s-66.43,3.77-97.54,24c-30.91,20.09-62.86,40.87-96.65,23.95s-36.31-54.94-38.74-91.73c-.75-11.29-1.51-22.7-3.17-33.59H1160c1.68,10.9,2.44,22.34,3.19,33.66,2.45,37,5,75.32,39.24,92.47s66.42-3.77,97.54-24c30.9-20.09,62.86-40.87,96.65-23.95s36.3,54.94,38.73,91.72c2.45,37,5,75.32,39.23,92.47s66.43-3.78,97.54-24c30.9-20.09,62.86-40.87,96.64-24A57.43,57.43,0,0,1,1695,240.74Z" style="fill:#24b2b4"/><path d="M1695,210.67a58.28,58.28,0,0,0-17.66-13.4c-34.25-17.15-66.42,3.77-97.53,24-30.91,20.1-62.86,40.87-96.65,24s-36.3-54.94-38.73-91.72c-2.45-37-5-75.33-39.23-92.47s-66.43,3.77-97.55,24c-30.9,20.09-62.85,40.87-96.64,23.95S1174.7,54,1172.26,17.26c-.38-5.75-.76-11.53-1.26-17.26h-.91c.51,5.75.89,11.55,1.27,17.32,2.45,37,5,75.33,39.24,92.48s66.43-3.77,97.55-24c30.9-20.1,62.86-40.87,96.65-24s36.3,55,38.73,91.73c2.45,37,5,75.32,39.23,92.47s66.42-3.78,97.54-24c30.9-20.09,62.85-40.87,96.64-24A57.24,57.24,0,0,1,1695,212Z" style="fill:#24b2b4"/><path d="M1695,186.81a60.74,60.74,0,0,0-9.48-5.87c-34.25-17.15-66.42,3.77-97.54,24-30.9,20.09-62.85,40.87-96.64,24s-36.3-55-38.73-91.73c-2.45-37-5-75.32-39.23-92.47s-66.43,3.78-97.55,24c-30.9,20.1-62.86,40.87-96.65,24S1182.87,37.71,1180.44.93l-.06-.93h-.91c0,.33,0,.66.07,1,2.45,37,5,75.33,39.24,92.47s66.43-3.77,97.54-24c30.91-20.09,62.86-40.87,96.65-23.95s36.3,54.94,38.74,91.72c2.44,37,5,75.33,39.22,92.47s66.43-3.77,97.54-24c30.91-20.1,62.86-40.87,96.65-24A59.48,59.48,0,0,1,1695,188Z" style="fill:#24b2b4"/><path d="M1695,165.3l-1.3-.7c-34.25-17.14-66.43,3.78-97.54,24-30.9,20.09-62.86,40.87-96.65,23.95s-36.3-54.94-38.73-91.72c-2.45-37-5-75.32-39.23-92.47s-66.43,3.77-97.54,24c-30.91,20.09-62.86,40.87-96.65,23.95-29.08-14.55-35-44.74-37.63-76.32h-.91c2.65,31.86,8.61,62.35,38.13,77.13,34.26,17.15,66.43-3.77,97.55-24,30.9-20.09,62.86-40.87,96.65-24s36.3,54.94,38.73,91.72c2.45,37,5,75.33,39.23,92.47s66.43-3.78,97.54-24c30.9-20.1,62.86-40.87,96.64-24,.59.29,1.14.61,1.71.91Z" style="fill:#24b2b4"/><path d="M1695,145.33c-31.69-11.39-61.64,8.07-90.67,26.94-30.9,20.1-62.85,40.87-96.64,24s-36.3-54.94-38.73-91.72c-2.45-37-5-75.33-39.23-92.47s-66.43,3.77-97.55,24c-30.9,20.09-62.86,40.87-96.65,24-24-12-32.22-34.68-35.84-60h-.91c3.64,25.6,11.93,48.57,36.35,60.8,34.25,17.15,66.43-3.77,97.54-24,30.91-20.1,62.86-40.87,96.66-24s36.3,55,38.73,91.73c2.45,37,5,75.32,39.23,92.47s66.42-3.78,97.54-24c28.92-18.8,58.76-38.2,90.17-26.74Z" style="fill:#24b2b4"/><path d="M1373.22,0c-11.11,5.57-22,12.68-32.86,19.71-30.9,20.09-62.86,40.86-96.65,23.95C1225,34.3,1215.91,18.49,1211.08,0h-.95c4.87,18.8,14.1,34.91,33.18,44.47,34.25,17.14,66.42-3.78,97.54-24,11.32-7.36,22.79-14.8,34.43-20.46Z" style="fill:#24b2b4"/><path d="M1695,126.72c-28.68-5.74-56,12-82.49,29.22-30.9,20.1-62.86,40.87-96.64,24s-36.3-54.95-38.74-91.73c-2.26-34.2-4.61-69.47-32-88.17h-1.59c28,18.27,30.37,53.8,32.64,88.24,2.45,37,5,75.32,39.23,92.46s66.43-3.77,97.54-24c26.4-17.17,53.57-34.81,82-29Z" style="fill:#24b2b4"/><path d="M1353.73,0l-5.19,3.37c-30.91,20.1-62.86,40.87-96.65,24A57.62,57.62,0,0,1,1225.15,0h-1a58.54,58.54,0,0,0,27.34,28.13c34.26,17.15,66.43-3.77,97.55-24q3.18-2.07,6.37-4.13Z" style="fill:#24b2b4"/><path d="M1695,109.37c-25.71-1.34-50.33,14.64-74.31,30.24-30.91,20.09-62.86,40.87-96.65,23.95s-36.3-54.94-38.73-91.72C1483.6,46,1481.83,19.46,1469.23,0h-1.09c12.78,19.34,14.55,45.93,16.27,71.9,2.45,37,5,75.33,39.23,92.47s66.42-3.77,97.54-24C1645,124.85,1669.53,109,1695,110.28Z" style="fill:#24b2b4"/><path d="M1336.14,0c-24.49,14.45-49.73,24.18-76.08,11a57.57,57.57,0,0,1-15.3-11h-1.3a58.78,58.78,0,0,0,16.2,11.8C1286.88,25.43,1312.79,15,1337.9,0Z" style="fill:#24b2b4"/><path d="M1695,93.16c-22.77,1.92-44.7,16.18-66.14,30.12-30.9,20.09-62.85,40.87-96.64,23.95s-36.3-54.94-38.73-91.72c-1.27-19.21-2.58-38.75-8.31-55.51h-1c5.79,16.73,7.09,36.32,8.37,55.57,2.44,37,5,75.32,39.22,92.47s66.43-3.78,97.54-24c21.3-13.84,43.1-28,65.65-29.95Z" style="fill:#24b2b4"/><path d="M1695,78c-19.86,4.15-39.11,16.64-58,28.9-30.9,20.1-62.86,40.87-96.65,24s-36.3-54.94-38.73-91.72c-.87-13.24-1.77-26.64-4.11-39.18h-.92c2.36,12.54,3.26,26,4.13,39.24,2.45,37,5,75.32,39.23,92.46s66.43-3.77,97.54-24C1656.24,95.53,1675.34,83.13,1695,79Z" style="fill:#24b2b4"/><path d="M1304.35,0a59,59,0,0,1-20.24,0h-4.21a60.56,60.56,0,0,0,29.19,0Z" style="fill:#24b2b4"/><path d="M1695,63.87c-17,5.42-33.53,16.17-49.79,26.74-30.9,20.09-62.85,40.87-96.64,24s-36.3-54.95-38.73-91.73c-.51-7.62-1-15.3-1.81-22.84h-.9c.79,7.56,1.3,15.26,1.81,22.9,2.45,37,5,75.33,39.23,92.47s66.42-3.77,97.54-24c16.1-10.48,32.5-21.12,49.29-26.53Z" style="fill:#24b2b4"/><path d="M1695,50.54c-14.13,5.87-28,14.87-41.61,23.74-30.9,20.09-62.86,40.87-96.64,24S1520.45,43.29,1518,6.51c-.15-2.17-.29-4.34-.44-6.51h-.91q.22,3.29.44,6.57c2.45,37,5,75.32,39.23,92.47s66.43-3.78,97.54-24c13.49-8.77,27.17-17.67,41.12-23.51Z" style="fill:#24b2b4"/><path d="M1695,38c-11.31,5.62-22.44,12.84-33.43,20-30.9,20.1-62.86,40.87-96.65,24-30.78-15.41-35.6-48.35-38.06-81.9h-.9c2.47,33.83,7.32,67.07,38.56,82.71,34.25,17.14,66.43-3.78,97.54-24C1672.9,51.65,1683.87,44.53,1695,39Z" style="fill:#24b2b4"/><path d="M1695,26c-8.51,4.78-16.92,10.24-25.26,15.66-30.9,20.1-62.85,40.87-96.64,24-25.75-12.89-33.33-38-36.56-65.57h-.91c3.25,27.81,10.89,53.27,37.06,66.37,34.25,17.15,66.43-3.77,97.54-24,8.18-5.32,16.43-10.68,24.77-15.38Z" style="fill:#24b2b4"/><path d="M1695,14.41c-5.73,3.49-11.42,7.19-17.08,10.87-30.9,20.09-62.86,40.87-96.65,23.95C1560.74,39,1551.76,20.86,1547.33,0h-.93c4.46,21.17,13.53,39.56,34.47,50,34.25,17.14,66.43-3.78,97.54-24,5.5-3.58,11-7.17,16.59-10.57Z" style="fill:#24b2b4"/><path d="M1695,3.21q-4.47,2.85-8.9,5.74c-30.91,20.09-62.86,40.87-96.65,24-14.94-7.48-23.76-19.09-29.17-32.9h-1c5.46,14.13,14.43,26,29.75,33.71,34.25,17.14,66.42-3.78,97.54-24,2.79-1.81,5.6-3.63,8.41-5.43Z" style="fill:#24b2b4"/><path d="M1682.8,0c-27.33,17.25-55.55,31.4-85.17,16.57A57,57,0,0,1,1577.46,0h-1.13a57.71,57.71,0,0,0,20.89,17.37c30.5,15.27,59.34.36,87.26-17.37Z" style="fill:#24b2b4"/><path d="M1660.8,0c-17.85,7.37-36.14,9.68-55,.24l-.44-.24h-1.91c.65.35,1.28.71,2,1,19.87,10,39,7.07,57.72-1Z" style="fill:#24b2b4"/></g><g style="opacity:0.72"><path d="M1021.59,363.23v8L1047.51,348l-25.92-23.31v8l16.24,14.6a.93.93,0,0,1,0,1.34Z" style="fill:#24b2b4"/><path d="M1052,363.23v8L1078,348,1052,324.64v8l16.24,14.6a.93.93,0,0,1,0,1.34Z" style="fill:#24b2b4"/><path d="M1082.48,363.23v8L1108.4,348l-25.92-23.31v8l16.24,14.6a.93.93,0,0,1,0,1.34Z" style="fill:#24b2b4"/><path d="M1112.93,363.23v8L1138.84,348l-25.91-23.31v8l16.24,14.6a.93.93,0,0,1,0,1.34Z" style="fill:#24b2b4"/><path d="M1143.37,363.23v8L1169.28,348l-25.91-23.31v8l16.24,14.6a.93.93,0,0,1,0,1.34Z" style="fill:#24b2b4"/></g><path d="M209.64,1040.84v-8l-25.91,23.32,25.91,23.31v-8l-16.24-14.6a.93.93,0,0,1,0-1.34Z" style="fill:#0f8787"/><path d="M179.2,1040.84v-8l-25.91,23.32,25.91,23.31v-8L163,1056.79a.91.91,0,0,1,0-1.34Z" style="fill:#0f8787"/><path d="M148.75,1040.84v-8l-25.91,23.32,25.91,23.31v-8l-16.24-14.6a.93.93,0,0,1,0-1.34Z" style="fill:#0f8787"/><path d="M118.31,1040.84v-8L92.4,1056.12l25.91,23.31v-8l-16.24-14.6a.93.93,0,0,1,0-1.34Z" style="fill:#0f8787"/><path d="M87.86,1040.84v-8L62,1056.12l25.9,23.31v-8l-16.24-14.6a.93.93,0,0,1,0-1.34Z" style="fill:#0f8787"/><path d="M1266.66,304c18.87,0,37.73-18.86,37.73-37.73,0,18.87,18.87,37.73,37.73,37.73-18.86,0-37.73,18.87-37.73,37.74C1304.39,322.91,1285.53,304,1266.66,304Z" style="fill:#24b2b4;fill-rule:evenodd"/><path d="M1458.15,506.53c9.54,0,19.07-9.54,19.07-19.07,0,9.53,9.54,19.07,19.08,19.07-9.54,0-19.08,9.54-19.08,19.07C1477.22,516.07,1467.69,506.53,1458.15,506.53Z" style="fill:#24b2b4;fill-rule:evenodd"/><path d="M1217.64,564.74c9.54,0,19.07-9.53,19.07-19.07,0,9.54,9.54,19.07,19.08,19.07-9.54,0-19.08,9.54-19.08,19.08C1236.71,574.28,1227.18,564.74,1217.64,564.74Z" style="fill:#24b2b4;fill-rule:evenodd"/><g style="opacity:0.81"><path d="M1476.58,385.05l-.24-.24-.73-.72.73.72.24.24" style="fill:#d4bac7"/><path d="M1332.75,549.85l-7.28-7-4-3.86,58.93-61a546.18,546.18,0,0,0,40.44-46.87c26-33.84,48.49-66.87,55.36-90,.25-.86.49-1.69.69-2.51,4.33,14.22,3,29-4.87,44.46q-10.21,18.15-22.66,36.09A534.24,534.24,0,0,1,1394,486.46l-61.24,63.39" style="fill:#fff"/><path d="M1334.85,544.68l-1.17-1.17,39.18-40.4.93,1.44Zm52.52-54.36-1.15-1.19,4.65-4.81A534.88,534.88,0,0,0,1446.23,417c8.27-12,15.86-24,22.66-36.09,5.66-11.06,7.93-21.8,7.18-32.22,0-.35.08-.71.11-1.06s.28-.74.41-1.11c1.84,11.67-.31,23.59-6.4,35.55-6.62,11.75-14.2,23.83-22.54,35.9a533.86,533.86,0,0,1-55.16,67l-5.12,5.3" style="fill:#f5f2f4"/><path d="M1325.47,542.82l-4-3.86,58.93-61a546.18,546.18,0,0,0,40.44-46.87c26-33.84,48.49-66.87,55.36-90,1.09,9.27-3.63,22.28-3.63,22.28-10.4,20.75-28.1,45.94-47.81,71.6a548,548,0,0,1-40.43,46.88l-58.86,60.92" style="fill:#fff"/><path d="M1324.42,538.91l8.27,8,59.8-61.89a533.86,533.86,0,0,0,55.16-67c8.34-12.07,15.92-24.15,22.54-35.9,6.09-12,8.24-23.88,6.4-35.55-7.21,19.84-24.64,47.44-54.1,85.8a552.06,552.06,0,0,1-40.59,47.06l-57.48,59.49m8.32,13a2.05,2.05,0,0,1-1.44-.58L1320,540.46a2.09,2.09,0,0,1,0-2.94l58.93-61a547,547,0,0,0,40.28-46.7c33-42.94,50.67-72.08,55.69-91.71a2.07,2.07,0,0,1,4-.09c4.58,15.05,2.9,30.53-5,46a.3.3,0,0,1,0,.08c-6.68,11.88-14.34,24.08-22.76,36.26a539.06,539.06,0,0,1-55.59,67.54l-1.49-1.44,1.49,1.44-61.24,63.38a2.05,2.05,0,0,1-1.5.64" style="fill:#24b2b4"/><path d="M1324.65,542.16c23.25-24.53,58.38-59.18,80.23-84.34,21.26-24.85,40.38-51.5,58.31-78.82l1.94-3.07c2.55-4.12,5-8.28,7.44-12.51-2,4.43-4.19,8.78-6.52,13.05-11.63,21.38-26.42,40.8-41.17,60.09-17,22.46-38.51,45-58.27,65.17l-40.46,41.88a1,1,0,0,1-1.5-1.45" style="fill:#24b2b4"/><path d="M1336.41,549.18l-73.87,73.87a7.1,7.1,0,0,1-10,0l-4.29-4.29a7.1,7.1,0,0,1,0-10l73.87-73.87,14.34,14.34" style="fill:#fff"/><polyline points="1336.41 549.18 1317.71 567.89 1303.36 553.54 1322.07 534.84 1336.41 549.18" style="fill:#fff"/><polyline points="1306.04 556.21 1304.83 555.01 1306.04 556.21" style="fill:#f6f5f6"/><path d="M1322.07,537.78l-72.4,72.4a5,5,0,0,0,0,7.11l4.29,4.29a5,5,0,0,0,7.11,0l72.4-72.4-11.4-11.4m-64.55,89.43a9.16,9.16,0,0,1-6.5-2.69l-4.29-4.29a9.2,9.2,0,0,1,0-13l73.87-73.87a2.08,2.08,0,0,1,2.94,0l14.34,14.34a2.08,2.08,0,0,1,0,2.94L1264,624.52a9.15,9.15,0,0,1-6.49,2.69" style="fill:#24b2b4"/><path d="M1331.73,568.51l-29-29a4,4,0,1,1,5.71-5.72l29,29a4,4,0,1,1-5.72,5.71" style="fill:#fff"/><path d="M1322,556.74a3.65,3.65,0,0,1-2.6-1.08l-3.8-3.79a3.68,3.68,0,1,1,5.21-5.21l3.79,3.79a3.68,3.68,0,0,1,0,5.21h0a3.67,3.67,0,0,1-2.6,1.08" style="fill:#fff"/><path d="M1302.74,539.52h0a4,4,0,0,1-.67-4.84,4,4,0,0,0,.67,4.84m7.09-4.34-1.38-1.38a4,4,0,0,0-2.82-1.18,4,4,0,0,1,2.82,1.18l1.38,1.38h0" style="fill:#f6f6fa"/><path d="M1312.19,537.53l-.1-.09-2.26-2.26h0l2.36,2.35" style="fill:#ece4ea"/><path d="M1306.47,543.25l-3.73-3.73a4,4,0,0,1-.67-4.84,4.27,4.27,0,0,1,.67-.88,4.06,4.06,0,0,1,2.86-1.18h0a4,4,0,0,1,2.82,1.18l1.38,1.38,2.26,2.26a4,4,0,0,0-2.76-1.09h0a4,4,0,0,0-2.86,6.9" style="fill:#fff"/><path d="M1333.82,569.63a4.06,4.06,0,0,1-2.09-1.12l-4.92-4.92,0,0,4.9,4.9a4,4,0,0,0,2.09,1.12m4.75-4.69a4,4,0,0,0-1.12-2.14l-4.82-4.82-.1-.1,4.92,4.92a4,4,0,0,1,1.12,2.14" style="fill:#a77b97"/><path d="M1334.57,569.7a4.76,4.76,0,0,1-.75-.07,4,4,0,0,1-2.09-1.12l-4.9-4.9a4,4,0,0,0,2.82,1.17h0a4,4,0,0,0,2.84-1.19,4,4,0,0,0,.1-5.61l4.82,4.82a4,4,0,0,1,1.12,2.14,4,4,0,0,1-1.12,3.57,4,4,0,0,1-2.84,1.19h0" style="fill:#fff"/><path d="M1305.6,534.7a1.94,1.94,0,0,0-1.39.57,2,2,0,0,0,0,2.78l29,29a2,2,0,0,0,2.78,0,2,2,0,0,0,0-2.77l-29-29a1.94,1.94,0,0,0-1.38-.57Zm29,37.08a6.09,6.09,0,0,1-4.33-1.8l-29-29a6.12,6.12,0,0,1,8.66-8.66l29,29a6.13,6.13,0,0,1-4.33,10.45Z" style="fill:#24b2b4"/><path d="M1306.51,570.29h-.15l-3.92-.5a1.11,1.11,0,0,1-1-1l-.51-3.93a1.12,1.12,0,0,1,1.1-1.26l.17,0,3.86.57a1.12,1.12,0,0,1,.94.94l.57,3.85a1.12,1.12,0,0,1-1.1,1.28" style="fill:#e1dee0"/><path d="M1300.22,576.58h-.15l-3.92-.5a1.11,1.11,0,0,1-1-1l-.51-3.92a1.12,1.12,0,0,1,1.1-1.26h.17l3.86.58a1.1,1.1,0,0,1,.94.94l.57,3.85a1.12,1.12,0,0,1-1.1,1.28" style="fill:#e1dee0"/><path d="M1293.93,582.87h-.14l-3.93-.51a1.1,1.1,0,0,1-1-1l-.51-3.92a1.12,1.12,0,0,1,1.11-1.26h.16l3.86.58a1.1,1.1,0,0,1,.94.94l.57,3.85a1.12,1.12,0,0,1-1.1,1.28" style="fill:#e1dee0"/><path d="M1287.64,589.16h-.14l-3.93-.51a1.11,1.11,0,0,1-1-1l-.51-3.92a1.12,1.12,0,0,1,1.11-1.26h.16l3.86.58a1.1,1.1,0,0,1,.94.93l.57,3.86a1.12,1.12,0,0,1-1.1,1.28" style="fill:#e1dee0"/><path d="M1281.35,595.45h-.14l-3.92-.51a1.11,1.11,0,0,1-1-1l-.5-3.93a1.11,1.11,0,0,1,1.1-1.25h.16l3.86.57a1.12,1.12,0,0,1,.94.94l.57,3.86a1.12,1.12,0,0,1-1.1,1.28" style="fill:#e1dee0"/><path d="M1275.06,601.73h-.14l-3.92-.5a1.11,1.11,0,0,1-1-1l-.5-3.93a1.11,1.11,0,0,1,1.1-1.25h.17l3.85.57a1.12,1.12,0,0,1,.94.94l.57,3.86a1.11,1.11,0,0,1-1.1,1.27" style="fill:#e1dee0"/><path d="M1268.78,608h-.15l-3.92-.5a1.1,1.1,0,0,1-1-1l-.51-3.93a1.11,1.11,0,0,1,1.1-1.25h.17l3.86.57a1.11,1.11,0,0,1,.93.94l.57,3.86a1.11,1.11,0,0,1-1.09,1.27" style="fill:#e1dee0"/><path d="M1262.49,614.31h-.15l-3.92-.5a1.11,1.11,0,0,1-1-1l-.51-3.93a1.11,1.11,0,0,1,1.1-1.26l.17,0,3.86.57a1.1,1.1,0,0,1,.93.94l.57,3.86a1.1,1.1,0,0,1-1.09,1.27" style="fill:#e1dee0"/><path d="M1306.92,569.73l-3.93-.5a1.12,1.12,0,0,1-1-1l-.51-3.92a1.13,1.13,0,0,1,1.27-1.25l3.86.58a1.1,1.1,0,0,1,.94.94l.57,3.85a1.11,1.11,0,0,1-1.24,1.27Z" style="fill:#24b2b4"/><path d="M1300.63,576l-3.93-.51a1.11,1.11,0,0,1-1-1l-.51-3.92a1.12,1.12,0,0,1,1.27-1.25l3.86.58a1.1,1.1,0,0,1,.94.94l.57,3.85a1.11,1.11,0,0,1-1.24,1.27Z" style="fill:#24b2b4"/><path d="M1294.34,582.31l-3.93-.51a1.11,1.11,0,0,1-1-1l-.5-3.92a1.11,1.11,0,0,1,1.26-1.25l3.86.58a1.1,1.1,0,0,1,.94.93l.57,3.86a1.11,1.11,0,0,1-1.24,1.27Z" style="fill:#24b2b4"/><path d="M1288.05,588.6l-3.92-.51a1.11,1.11,0,0,1-1-1l-.5-3.93a1.1,1.1,0,0,1,1.26-1.24l3.86.58a1.1,1.1,0,0,1,.94.93l.57,3.86a1.11,1.11,0,0,1-1.24,1.27Z" style="fill:#24b2b4"/><path d="M1281.76,594.88l-3.92-.5a1.11,1.11,0,0,1-1-1l-.5-3.93a1.11,1.11,0,0,1,1.27-1.24l3.85.57a1.12,1.12,0,0,1,.94.94l.57,3.86a1.1,1.1,0,0,1-1.24,1.26Z" style="fill:#24b2b4"/><path d="M1275.47,601.17l-3.92-.5a1.1,1.1,0,0,1-1-1l-.51-3.93a1.11,1.11,0,0,1,1.27-1.24l3.86.57a1.11,1.11,0,0,1,.93.94l.57,3.86a1.1,1.1,0,0,1-1.24,1.26Z" style="fill:#24b2b4"/><path d="M1269.18,607.46l-3.92-.5a1.11,1.11,0,0,1-1-1l-.51-3.93a1.11,1.11,0,0,1,1.27-1.24l3.86.57a1.1,1.1,0,0,1,.93.94l.57,3.85a1.11,1.11,0,0,1-1.24,1.27Z" style="fill:#24b2b4"/><path d="M1262.89,613.75l-3.92-.5a1.11,1.11,0,0,1-1-1l-.51-3.93a1.11,1.11,0,0,1,1.27-1.24l3.86.57a1.12,1.12,0,0,1,.94.94l.57,3.85a1.12,1.12,0,0,1-1.25,1.27Z" style="fill:#24b2b4"/><path d="M1420.21,549.85l7.28-7,4-3.86-58.93-61a549.73,549.73,0,0,1-40.44-46.87c-26-33.84-48.48-66.87-55.35-90-.26-.86-.49-1.69-.7-2.51-4.32,14.22-3,29,4.87,44.46q10.23,18.15,22.67,36.09A532.52,532.52,0,0,0,1359,486.46l61.24,63.39" style="fill:#fff"/><path d="M1418.11,544.68,1360.46,485a533.77,533.77,0,0,1-55.15-67c-8.34-12.07-15.93-24.15-22.54-35.9-6.1-12-8.24-23.88-6.41-35.55l.41,1.11.12,1.06c-.76,10.42,1.52,21.16,7.17,32.22q10.21,18.15,22.67,36.09a534,534,0,0,0,55.36,67.28l57.19,59.19-1.17,1.17" style="fill:#f5f2f4"/><path d="M1427.49,542.82l4-3.86-58.93-61a549.73,549.73,0,0,1-40.44-46.87c-26-33.84-48.48-66.87-55.35-90-1.09,9.27,3.63,22.28,3.63,22.28,10.4,20.75,28.09,45.94,47.8,71.6a548.09,548.09,0,0,0,40.44,46.88l58.86,60.92" style="fill:#fff"/><path d="M1282.77,382.11c6.61,11.75,14.2,23.83,22.54,35.9a533.77,533.77,0,0,0,55.15,67l59.8,61.89,8.28-8-57.48-59.49a548.75,548.75,0,0,1-40.59-47.06c-29.47-38.37-46.9-66-54.11-85.8-1.83,11.67.31,23.59,6.41,35.55m137.44,169.82a2,2,0,0,1-1.49-.64l-61.25-63.38a538.09,538.09,0,0,1-55.58-67.54c-8.42-12.18-16.08-24.38-22.77-36.26a.3.3,0,0,0,0-.08c-7.9-15.47-9.59-30.95-5-46a2.08,2.08,0,0,1,4,.09c5,19.63,22.71,48.77,55.69,91.71a547,547,0,0,0,40.28,46.7l58.92,61a2.06,2.06,0,0,1,.59,1.48,2.09,2.09,0,0,1-.64,1.46l-11.27,10.89a2.05,2.05,0,0,1-1.44.58" style="fill:#24b2b4"/><path d="M1426.81,543.61c-23.28-24.58-58.43-59.23-80.31-84.43-12.72-14.72-24.41-30.26-35.93-45.93a337.84,337.84,0,0,1-23.66-36.78c-2.34-4.27-4.54-8.62-6.52-13.05,2.38,4.23,4.89,8.39,7.43,12.51l2,3.07c23.24,35.4,48.45,69.75,77.84,100.34,13,13.45,47.31,49,60.69,62.82a1,1,0,0,1-1.49,1.45Z" style="fill:#24b2b4"/><path d="M1416.54,549.18l73.87,73.87a7.11,7.11,0,0,0,10.06,0l4.29-4.29a7.12,7.12,0,0,0,0-10l-73.87-73.87-14.35,14.34" style="fill:#fff"/><polyline points="1446.92 556.21 1446.92 556.21 1448.12 555.01 1448.12 555.01 1446.92 556.21" style="fill:#f6f5f6"/><path d="M1419.48,549.18l72.4,72.4a5,5,0,0,0,7.12,0l4.28-4.29a5,5,0,0,0,0-7.11l-72.39-72.4-11.41,11.4m76,78a9.13,9.13,0,0,1-6.5-2.69l-73.87-73.87a2.08,2.08,0,0,1,0-2.94l14.35-14.34a2.08,2.08,0,0,1,2.94,0l73.86,73.87a9.16,9.16,0,0,1,0,13l-4.28,4.29a9.13,9.13,0,0,1-6.5,2.69" style="fill:#24b2b4"/><path d="M1421.22,568.51l29-29a4,4,0,1,0-5.72-5.72l-29,29a4,4,0,0,0,5.71,5.71" style="fill:#fff"/><path d="M1431,556.74a3.67,3.67,0,0,1-2.61-1.08h0a3.68,3.68,0,0,1,0-5.21l3.79-3.79a3.68,3.68,0,1,1,5.21,5.21l-3.79,3.79a3.67,3.67,0,0,1-2.6,1.08" style="fill:#fff"/><path d="M1451.16,535.3a3.68,3.68,0,0,0-.32-.7,3.42,3.42,0,0,1,.32.7h0" style="fill:#f6f6fa"/><path d="M1446.48,543.25h0l3.74-3.73a4,4,0,0,0,.94-4.22h0a4,4,0,0,1-.94,4.22l-3.74,3.73" style="fill:#ece4ea"/><path d="M1440.77,537.53l3.73-3.73a4,4,0,0,1,2.83-1.18,4,4,0,0,0-2.83,1.18l-3.64,3.64-.09.09" style="fill:#f6f6fa"/><path d="M1446.48,543.25a4,4,0,0,0-2.85-6.9h0a4,4,0,0,0-2.77,1.09l3.64-3.64a4,4,0,0,1,2.83-1.18h0a4.06,4.06,0,0,1,2.86,1.18,4.29,4.29,0,0,1,.62.8,3.68,3.68,0,0,1,.32.7,4,4,0,0,1-.94,4.22l-3.74,3.73" style="fill:#fff"/><path d="M1419.13,569.63a4,4,0,0,0,2.09-1.12l4.92-4.92h0l-4.92,4.92a4,4,0,0,1-2.09,1.12" style="fill:#a77b97"/><path d="M1414.39,564.91a4.06,4.06,0,0,1,1.11-2.11l4.92-4.92-.09.1-4.82,4.82a4,4,0,0,0-1.12,2.11" style="fill:#bfa5bb"/><path d="M1418.39,569.7h0a4,4,0,0,1-2.84-1.19,4,4,0,0,1,0-5.71l4.82-4.82a4,4,0,0,0,.1,5.61,4,4,0,0,0,2.84,1.19h0a4,4,0,0,0,2.83-1.19l-4.92,4.92a4,4,0,0,1-2.09,1.12,4.74,4.74,0,0,1-.74.07" style="fill:#fff"/><path d="M1447.36,534.7a1.94,1.94,0,0,0-1.39.57l-29,29a2,2,0,0,0,0,2.77,2,2,0,0,0,2.77,0l29-29a2,2,0,0,0-1.39-3.35Zm-29,37.08a6.13,6.13,0,0,1-4.33-10.45l29-29a6.12,6.12,0,0,1,8.66,8.66l-29,29a6.05,6.05,0,0,1-4.32,1.8Z" style="fill:#24b2b4"/><path d="M1446.45,570.29a1.12,1.12,0,0,1-1.1-1.28l.57-3.85a1.1,1.1,0,0,1,.94-.94l3.86-.57.16,0a1.11,1.11,0,0,1,1.1,1.26l-.5,3.93a1.12,1.12,0,0,1-1,1l-3.92.5h-.14" style="fill:#e1dee0"/><path d="M1452.73,576.58a1.12,1.12,0,0,1-1.09-1.28l.57-3.85a1.1,1.1,0,0,1,.94-.94l3.85-.58h.17a1.11,1.11,0,0,1,1.1,1.26l-.5,3.92a1.12,1.12,0,0,1-1,1l-3.92.5h-.15" style="fill:#e1dee0"/><path d="M1459,582.87a1.12,1.12,0,0,1-1.09-1.28l.57-3.85a1.1,1.1,0,0,1,.93-.94l3.86-.58h.17a1.11,1.11,0,0,1,1.1,1.26l-.51,3.92a1.09,1.09,0,0,1-1,1l-3.92.51H1459" style="fill:#e1dee0"/><path d="M1465.31,589.16a1.11,1.11,0,0,1-1.09-1.28l.57-3.86a1.1,1.1,0,0,1,.93-.93l3.86-.58h.17a1.11,1.11,0,0,1,1.1,1.26l-.51,3.92a1.1,1.1,0,0,1-1,1l-3.92.51h-.15" style="fill:#e1dee0"/><path d="M1471.6,595.45a1.12,1.12,0,0,1-1.1-1.28l.57-3.86a1.15,1.15,0,0,1,.94-.94l3.86-.57h.17a1.11,1.11,0,0,1,1.1,1.25l-.51,3.93a1.1,1.1,0,0,1-1,1l-3.92.51h-.15" style="fill:#e1dee0"/><path d="M1477.89,601.73a1.11,1.11,0,0,1-1.1-1.27l.57-3.86a1.14,1.14,0,0,1,.94-.94l3.86-.57h.17a1.12,1.12,0,0,1,1.1,1.25l-.51,3.93a1.1,1.1,0,0,1-1,1l-3.92.5h-.15" style="fill:#e1dee0"/><path d="M1484.18,608a1.11,1.11,0,0,1-1.1-1.27l.57-3.86a1.11,1.11,0,0,1,.94-.94l3.86-.57h.16a1.12,1.12,0,0,1,1.11,1.25l-.51,3.93a1.11,1.11,0,0,1-1,1l-3.93.5h-.14" style="fill:#e1dee0"/><path d="M1490.47,614.31a1.11,1.11,0,0,1-1.1-1.27l.57-3.86a1.1,1.1,0,0,1,.94-.94l3.86-.57.16,0a1.12,1.12,0,0,1,1.11,1.26l-.51,3.93a1.12,1.12,0,0,1-1,1l-3.93.5h-.14" style="fill:#e1dee0"/><path d="M1446,569.73l3.92-.5a1.11,1.11,0,0,0,1-1l.51-3.92a1.12,1.12,0,0,0-1.27-1.25l-3.86.58a1.1,1.1,0,0,0-.93.94l-.57,3.85a1.11,1.11,0,0,0,1.24,1.27Z" style="fill:#24b2b4"/><path d="M1452.33,576l3.92-.51a1.1,1.1,0,0,0,1-1l.51-3.92a1.11,1.11,0,0,0-1.27-1.25l-3.86.58a1.1,1.1,0,0,0-.93.94l-.57,3.85a1.11,1.11,0,0,0,1.24,1.27Z" style="fill:#24b2b4"/><path d="M1458.62,582.31l3.92-.51a1.1,1.1,0,0,0,1-1l.51-3.92a1.12,1.12,0,0,0-1.27-1.25l-3.86.58a1.12,1.12,0,0,0-.94.93l-.57,3.86a1.13,1.13,0,0,0,1.25,1.27Z" style="fill:#24b2b4"/><path d="M1464.91,588.6l3.92-.51a1.1,1.1,0,0,0,1-1l.51-3.93A1.11,1.11,0,0,0,1469,582l-3.86.58a1.12,1.12,0,0,0-.94.93l-.57,3.86a1.12,1.12,0,0,0,1.25,1.27Z" style="fill:#24b2b4"/><path d="M1471.2,594.88l3.92-.5a1.1,1.1,0,0,0,1-1l.51-3.93a1.11,1.11,0,0,0-1.27-1.24l-3.86.57a1.14,1.14,0,0,0-.94.94l-.57,3.86a1.11,1.11,0,0,0,1.25,1.26Z" style="fill:#24b2b4"/><path d="M1477.48,601.17l3.93-.5a1.11,1.11,0,0,0,1-1l.51-3.93a1.11,1.11,0,0,0-1.27-1.24l-3.86.57a1.11,1.11,0,0,0-.94.94l-.57,3.86a1.1,1.1,0,0,0,1.24,1.26Z" style="fill:#24b2b4"/><path d="M1483.77,607.46l3.93-.5a1.12,1.12,0,0,0,1-1l.5-3.93a1.1,1.1,0,0,0-1.26-1.24l-3.86.57a1.1,1.1,0,0,0-.94.94l-.57,3.85a1.11,1.11,0,0,0,1.24,1.27Z" style="fill:#24b2b4"/><path d="M1490.06,613.75l3.92-.5a1.12,1.12,0,0,0,1-1l.5-3.93a1.1,1.1,0,0,0-1.26-1.24l-3.86.57a1.1,1.1,0,0,0-.94.94l-.57,3.85a1.11,1.11,0,0,0,1.24,1.27Z" style="fill:#24b2b4"/></g></svg>