<svg width="42" height="34" viewBox="0 0 42 34" fill="none" xmlns="http://www.w3.org/2000/svg">
<path d="M0.958807 31V22.2727H2.27557V29.8665H6.23011V31H0.958807ZM10.3871 31.1321C9.77344 31.1321 9.23793 30.9915 8.78054 30.7102C8.32315 30.429 7.96804 30.0355 7.7152 29.5298C7.46236 29.0241 7.33594 28.4332 7.33594 27.7571C7.33594 27.0781 7.46236 26.4844 7.7152 25.9759C7.96804 25.4673 8.32315 25.0724 8.78054 24.7912C9.23793 24.5099 9.77344 24.3693 10.3871 24.3693C11.0007 24.3693 11.5362 24.5099 11.9936 24.7912C12.451 25.0724 12.8061 25.4673 13.0589 25.9759C13.3118 26.4844 13.4382 27.0781 13.4382 27.7571C13.4382 28.4332 13.3118 29.0241 13.0589 29.5298C12.8061 30.0355 12.451 30.429 11.9936 30.7102C11.5362 30.9915 11.0007 31.1321 10.3871 31.1321ZM10.3913 30.0625C10.7891 30.0625 11.1186 29.9574 11.38 29.7472C11.6413 29.5369 11.8345 29.2571 11.9595 28.9077C12.0874 28.5582 12.1513 28.1733 12.1513 27.7528C12.1513 27.3352 12.0874 26.9517 11.9595 26.6023C11.8345 26.25 11.6413 25.9673 11.38 25.7543C11.1186 25.5412 10.7891 25.4347 10.3913 25.4347C9.99077 25.4347 9.65838 25.5412 9.39418 25.7543C9.13281 25.9673 8.93821 26.25 8.81037 26.6023C8.68537 26.9517 8.62287 27.3352 8.62287 27.7528C8.62287 28.1733 8.68537 28.5582 8.81037 28.9077C8.93821 29.2571 9.13281 29.5369 9.39418 29.7472C9.65838 29.9574 9.99077 30.0625 10.3913 30.0625ZM17.6175 31.1321C16.984 31.1321 16.4386 30.9886 15.9812 30.7017C15.5266 30.4119 15.1772 30.0128 14.9329 29.5043C14.6886 28.9957 14.5664 28.4134 14.5664 27.7571C14.5664 27.0923 14.6914 26.5057 14.9414 25.9972C15.1914 25.4858 15.5437 25.0866 15.9982 24.7997C16.4528 24.5128 16.9883 24.3693 17.6048 24.3693C18.1019 24.3693 18.5451 24.4616 18.9343 24.6463C19.3235 24.8281 19.6374 25.0838 19.8761 25.4134C20.1175 25.7429 20.261 26.1278 20.3065 26.5682H19.0664C18.9982 26.2614 18.842 25.9972 18.5977 25.7756C18.3562 25.554 18.0323 25.4432 17.6261 25.4432C17.271 25.4432 16.9599 25.5369 16.6928 25.7244C16.4286 25.9091 16.2227 26.1733 16.0749 26.517C15.9272 26.858 15.8533 27.2614 15.8533 27.7273C15.8533 28.2045 15.9258 28.6165 16.0707 28.9631C16.2156 29.3097 16.4201 29.5781 16.6843 29.7685C16.9513 29.9588 17.2653 30.054 17.6261 30.054C17.8675 30.054 18.0863 30.0099 18.2823 29.9219C18.4812 29.831 18.6474 29.7017 18.7809 29.5341C18.9173 29.3665 19.0124 29.1648 19.0664 28.929H20.3065C20.261 29.3523 20.1232 29.7301 19.8931 30.0625C19.663 30.3949 19.3548 30.6562 18.9684 30.8466C18.5849 31.0369 18.1346 31.1321 17.6175 31.1321ZM22.8409 28.7798L22.8324 27.2244H23.054L25.6619 24.4545H27.1875L24.2131 27.608H24.0128L22.8409 28.7798ZM21.669 31V22.2727H22.9432V31H21.669ZM25.8026 31L23.4588 27.8892L24.3366 26.9986L27.3665 31H25.8026ZM30.9002 31.1321C30.2553 31.1321 29.6999 30.9943 29.234 30.7188C28.771 30.4403 28.413 30.0497 28.1602 29.5469C27.9102 29.0412 27.7852 28.4489 27.7852 27.7699C27.7852 27.0994 27.9102 26.5085 28.1602 25.9972C28.413 25.4858 28.7653 25.0866 29.217 24.7997C29.6715 24.5128 30.2028 24.3693 30.8107 24.3693C31.18 24.3693 31.538 24.4304 31.8846 24.5526C32.2312 24.6747 32.5423 24.8665 32.8178 25.1278C33.0934 25.3892 33.3107 25.7287 33.4698 26.1463C33.6289 26.5611 33.7085 27.0653 33.7085 27.6591V28.1108H28.5053V27.1562H32.4599C32.4599 26.821 32.3917 26.5241 32.2553 26.2656C32.119 26.0043 31.9272 25.7983 31.68 25.6477C31.4357 25.4972 31.1488 25.4219 30.8192 25.4219C30.4613 25.4219 30.1488 25.5099 29.8817 25.6861C29.6175 25.8594 29.413 26.0866 29.2681 26.3679C29.1261 26.6463 29.055 26.9489 29.055 27.2756V28.0213C29.055 28.4588 29.1317 28.831 29.2852 29.1378C29.4414 29.4446 29.6587 29.679 29.9371 29.8409C30.2156 30 30.5408 30.0795 30.913 30.0795C31.1545 30.0795 31.3746 30.0455 31.5735 29.9773C31.7724 29.9062 31.9442 29.8011 32.0891 29.6619C32.234 29.5227 32.3448 29.3509 32.4215 29.1463L33.6275 29.3636C33.5309 29.7187 33.3576 30.0298 33.1076 30.2969C32.8604 30.5611 32.5494 30.767 32.1744 30.9148C31.8022 31.0597 31.3775 31.1321 30.9002 31.1321ZM37.5724 31.1278C37.044 31.1278 36.5724 30.9929 36.1577 30.723C35.7457 30.4503 35.4219 30.0625 35.1861 29.5597C34.9531 29.054 34.8366 28.4474 34.8366 27.7401C34.8366 27.0327 34.9545 26.4276 35.1903 25.9247C35.429 25.4219 35.7557 25.0369 36.1705 24.7699C36.5852 24.5028 37.0554 24.3693 37.581 24.3693C37.9872 24.3693 38.3139 24.4375 38.5611 24.5739C38.8111 24.7074 39.0043 24.8636 39.1406 25.0426C39.2798 25.2216 39.3878 25.3793 39.4645 25.5156H39.5412V22.2727H40.8153V31H39.571V29.9815H39.4645C39.3878 30.1207 39.277 30.2798 39.1321 30.4588C38.9901 30.6378 38.794 30.794 38.544 30.9276C38.294 31.0611 37.9702 31.1278 37.5724 31.1278ZM37.8537 30.0412C38.2202 30.0412 38.5298 29.9446 38.7827 29.7514C39.0384 29.5554 39.2315 29.2841 39.3622 28.9375C39.4957 28.5909 39.5625 28.1875 39.5625 27.7273C39.5625 27.2727 39.4972 26.875 39.3665 26.5341C39.2358 26.1932 39.044 25.9276 38.7912 25.7372C38.5384 25.5469 38.2259 25.4517 37.8537 25.4517C37.4702 25.4517 37.1506 25.5511 36.8949 25.75C36.6392 25.9489 36.446 26.2202 36.3153 26.5639C36.1875 26.9077 36.1236 27.2955 36.1236 27.7273C36.1236 28.1648 36.1889 28.5582 36.3196 28.9077C36.4503 29.2571 36.6435 29.5341 36.8991 29.7386C37.1577 29.9403 37.4759 30.0412 37.8537 30.0412Z" fill="#6A6A6A"/>
<g clip-path="url(#clip0_87_2463)">
<path d="M12.583 12.6668C12.583 10.4276 12.583 9.30805 13.2786 8.61242C13.9743 7.91678 15.0938 7.91678 17.333 7.91678H23.6663C25.9055 7.91678 27.0251 7.91678 27.7207 8.61242C28.4163 9.30805 28.4163 10.4276 28.4163 12.6668C28.4163 14.9059 28.4163 16.0255 27.7207 16.7211C27.0251 17.4168 25.9055 17.4168 23.6663 17.4168H17.333C15.0938 17.4168 13.9743 17.4168 13.2786 16.7211C12.583 16.0255 12.583 14.9059 12.583 12.6668Z" stroke="#6A6A6A" stroke-width="1.1875"/>
<path d="M20.5003 14.2499C21.3748 14.2499 22.0837 13.541 22.0837 12.6666C22.0837 11.7921 21.3748 11.0832 20.5003 11.0832C19.6259 11.0832 18.917 11.7921 18.917 12.6666C18.917 13.541 19.6259 14.2499 20.5003 14.2499Z" stroke="#6A6A6A" stroke-width="1.1875"/>
<path d="M15.75 7.91655V6.33322C15.75 3.70987 17.8766 1.58322 20.5 1.58322C23.1233 1.58322 25.25 3.70987 25.25 6.33322V7.91655" stroke="#6A6A6A" stroke-width="1.1875" stroke-linecap="round"/>
</g>
<defs>
<clipPath id="clip0_87_2463">
<rect width="19" height="19" fill="white" transform="translate(11)"/>
</clipPath>
</defs>
</svg>
