<svg width="24" height="25" viewBox="0 0 24 25" fill="none" xmlns="http://www.w3.org/2000/svg">
<path d="M8 14.3906C7.71667 14.3906 7.47933 14.2946 7.288 14.1026C7.09667 13.9106 7.00067 13.6733 7 13.3906C6.99933 13.108 7.09533 12.8706 7.288 12.6786C7.48067 12.4866 7.718 12.3906 8 12.3906C8.282 12.3906 8.51967 12.4866 8.713 12.6786C8.90633 12.8706 9.002 13.108 9 13.3906C8.998 13.6733 8.902 13.911 8.712 14.1036C8.522 14.2963 8.28467 14.392 8 14.3906ZM12 14.3906C11.7167 14.3906 11.4793 14.2946 11.288 14.1026C11.0967 13.9106 11.0007 13.6733 11 13.3906C10.9993 13.108 11.0953 12.8706 11.288 12.6786C11.4807 12.4866 11.718 12.3906 12 12.3906C12.282 12.3906 12.5197 12.4866 12.713 12.6786C12.9063 12.8706 13.002 13.108 13 13.3906C12.998 13.6733 12.902 13.911 12.712 14.1036C12.522 14.2963 12.2847 14.392 12 14.3906ZM16 14.3906C15.7167 14.3906 15.4793 14.2946 15.288 14.1026C15.0967 13.9106 15.0007 13.6733 15 13.3906C14.9993 13.108 15.0953 12.8706 15.288 12.6786C15.4807 12.4866 15.718 12.3906 16 12.3906C16.282 12.3906 16.5197 12.4866 16.713 12.6786C16.9063 12.8706 17.002 13.108 17 13.3906C16.998 13.6733 16.902 13.911 16.712 14.1036C16.522 14.2963 16.2847 14.392 16 14.3906ZM5 22.3906C4.45 22.3906 3.97933 22.195 3.588 21.8036C3.19667 21.4123 3.00067 20.9413 3 20.3906V6.39062C3 5.84063 3.196 5.36996 3.588 4.97862C3.98 4.58729 4.45067 4.39129 5 4.39062H6V2.39062H8V4.39062H16V2.39062H18V4.39062H19C19.55 4.39062 20.021 4.58662 20.413 4.97862C20.805 5.37062 21.0007 5.84129 21 6.39062V20.3906C21 20.9406 20.8043 21.4116 20.413 21.8036C20.0217 22.1956 19.5507 22.3913 19 22.3906H5ZM5 20.3906H19V10.3906H5V20.3906Z" fill="#24B2B5"/>
</svg>
