<svg width="22" height="23" viewBox="0 0 22 23" fill="none" xmlns="http://www.w3.org/2000/svg">
<path d="M3.66797 4.0599C3.66797 3.0424 4.4838 2.22656 5.5013 2.22656H12.8346L18.3346 7.72656V18.7266C18.3346 19.2124 18.1421 19.6799 17.7938 20.0191C17.4546 20.3674 16.9871 20.5599 16.5013 20.5599H5.5013C5.01547 20.5599 4.54797 20.3674 4.2088 20.0191C3.86047 19.6799 3.66797 19.2124 3.66797 18.7266V4.0599ZM11.918 3.60156V8.64323H16.9596L11.918 3.60156ZM11.0013 10.4766L9.8463 12.9974L7.33464 14.1432L9.8463 15.2982L11.0013 17.8099L12.1471 15.2982L14.668 14.1432L12.1471 12.9974L11.0013 10.4766Z" fill="#08AAA2"/>
</svg>
