<svg width="21" height="16" viewBox="0 0 21 16" fill="none" xmlns="http://www.w3.org/2000/svg">
<path fill-rule="evenodd" clip-rule="evenodd" d="M19.166 15.925H1.83397C1.33875 15.925 0.9375 15.5299 0.9375 15.0423V4.22338C0.9375 3.73606 1.33875 3.3407 1.83397 3.3407H5.66273L7.0985 0.976995C7.26223 0.764379 7.51873 0.625 7.81057 0.625H13.1894C13.4413 0.625 13.6677 0.72814 13.8309 0.892512L13.8315 0.891657L15.3539 3.3407H19.166C19.6613 3.3407 20.0625 3.73606 20.0625 4.22338V15.0423C20.0625 15.5299 19.6613 15.925 19.166 15.925ZM10.4982 5.15625C7.88277 5.15625 5.7627 7.24395 5.7627 9.81885C5.7627 12.394 7.88277 14.4815 10.4982 14.4815C13.1135 14.4815 15.2336 12.394 15.2336 9.81885C15.2336 7.24395 13.1135 5.15625 10.4982 5.15625ZM7.76221 9.81556C7.76221 11.3057 8.98928 12.514 10.5027 12.514C12.0164 12.514 13.2433 11.3057 13.2433 9.81556C13.2433 8.32516 12.0164 7.11719 10.5027 7.11719C8.98928 7.11719 7.76221 8.32516 7.76221 9.81556Z" fill="white"/>
</svg>
