<svg width="96" height="33" viewBox="0 0 96 33" fill="none" xmlns="http://www.w3.org/2000/svg">
<rect y="0.527344" width="96" height="32" rx="8" fill="#24B2B4"/>
<path d="M24.4976 22.0273V11.8455H30.6425V12.9393H25.7306V16.3796H30.3243V17.4734H25.7306V20.9336H30.722V22.0273H24.4976ZM35.5892 22.1864C34.9529 22.1864 34.3911 22.0257 33.9039 21.7042C33.4166 21.3794 33.0355 20.922 32.7604 20.332C32.4853 19.7388 32.3477 19.0378 32.3477 18.229C32.3477 17.427 32.4853 16.7309 32.7604 16.141C33.0355 15.551 33.4183 15.0953 33.9088 14.7738C34.3994 14.4523 34.9661 14.2915 35.6091 14.2915C36.1063 14.2915 36.499 14.3744 36.7874 14.5401C37.079 14.7025 37.3011 14.8881 37.4536 15.0969C37.6093 15.3024 37.7303 15.4715 37.8165 15.604H37.9159V11.8455H39.0892V22.0273H37.9557V20.854H37.8165C37.7303 20.9933 37.6077 21.1689 37.4486 21.381C37.2895 21.5898 37.0625 21.7771 36.7675 21.9428C36.4725 22.1052 36.0798 22.1864 35.5892 22.1864ZM35.7483 21.1325C36.219 21.1325 36.6167 21.0098 36.9415 20.7646C37.2663 20.516 37.5132 20.1729 37.6823 19.7354C37.8513 19.2946 37.9358 18.7859 37.9358 18.2092C37.9358 17.6391 37.853 17.1403 37.6872 16.7127C37.5215 16.2818 37.2762 15.9471 36.9514 15.7085C36.6266 15.4665 36.2256 15.3455 35.7483 15.3455C35.2512 15.3455 34.8369 15.4731 34.5054 15.7283C34.1773 15.9802 33.9304 16.3233 33.7646 16.7575C33.6022 17.1883 33.521 17.6722 33.521 18.2092C33.521 18.7527 33.6039 19.2466 33.7696 19.6907C33.9387 20.1315 34.1872 20.4828 34.5154 20.7447C34.8468 21.0032 35.2578 21.1325 35.7483 21.1325ZM41.401 22.0273V14.391H42.5743V22.0273H41.401ZM41.9976 13.1183C41.7689 13.1183 41.5717 13.0404 41.406 12.8846C41.2436 12.7288 41.1624 12.5415 41.1624 12.3228C41.1624 12.104 41.2436 11.9168 41.406 11.761C41.5717 11.6052 41.7689 11.5273 41.9976 11.5273C42.2263 11.5273 42.4218 11.6052 42.5843 11.761C42.75 11.9168 42.8328 12.104 42.8328 12.3228C42.8328 12.5415 42.75 12.7288 42.5843 12.8846C42.4218 13.0404 42.2263 13.1183 41.9976 13.1183ZM48.0443 14.391V15.3853H44.0869V14.391H48.0443ZM45.2403 12.5614H46.4136V19.8398C46.4136 20.1713 46.4617 20.4199 46.5578 20.5856C46.6572 20.748 46.7832 20.8574 46.9356 20.9137C47.0914 20.9667 47.2555 20.9933 47.4278 20.9933C47.5571 20.9933 47.6631 20.9866 47.746 20.9734C47.8289 20.9568 47.8952 20.9435 47.9449 20.9336L48.1835 21.9876C48.104 22.0174 47.9929 22.0472 47.8504 22.0771C47.7079 22.1102 47.5273 22.1268 47.3085 22.1268C46.9771 22.1268 46.6523 22.0555 46.3341 21.913C46.0192 21.7705 45.7574 21.5534 45.5486 21.2617C45.3431 20.9701 45.2403 20.6022 45.2403 20.158V12.5614Z" fill="white"/>
<path d="M71.2069 13.1134L68.4144 10.3203C68.3215 10.2274 68.2113 10.1538 68.0899 10.1035C67.9686 10.0532 67.8385 10.0273 67.7072 10.0273C67.5759 10.0273 67.4458 10.0532 67.3245 10.1035C67.2031 10.1538 67.0929 10.2274 67 10.3203L59.2931 18.0278C59.1999 18.1203 59.1259 18.2305 59.0756 18.3518C59.0253 18.4732 58.9996 18.6033 59 18.7347V21.5278C59 21.793 59.1054 22.0474 59.2929 22.2349C59.4804 22.4225 59.7348 22.5278 60 22.5278H62.7931C62.9245 22.5282 63.0546 22.5025 63.176 22.4522C63.2973 22.4019 63.4075 22.328 63.5 22.2347L67.3534 18.3813L71.2069 14.5278C71.2998 14.435 71.3734 14.3247 71.4237 14.2034C71.474 14.082 71.4999 13.952 71.4999 13.8206C71.4999 13.6893 71.474 13.5592 71.4237 13.4379C71.3734 13.3166 71.2998 13.2063 71.2069 13.1134ZM62.7931 21.5278H60V18.7347L65.5 13.2347L68.2931 16.0278L62.7931 21.5278ZM69 15.3203L66.2069 12.5278L67.7069 11.0278L70.5 13.8203L69 15.3203Z" fill="white"/>
</svg>
