<svg width="96" height="33" viewBox="0 0 96 33" fill="none" xmlns="http://www.w3.org/2000/svg">
<rect x="0.5" y="1.02734" width="95" height="31" rx="7.5" stroke="#24B2B4"/>
<path d="M20.5216 11.8455V22.0273H19.2886V11.8455H20.5216ZM24.0079 17.4336V22.0273H22.8346V14.391H23.9681V15.5842H24.0676C24.2465 15.1964 24.5183 14.8848 24.8829 14.6495C25.2475 14.4109 25.7181 14.2915 26.2948 14.2915C26.8119 14.2915 27.2643 14.3976 27.6521 14.6097C28.0399 14.8185 28.3415 15.1367 28.5569 15.5643C28.7723 15.9885 28.8801 16.5254 28.8801 17.1751V22.0273H27.7068V17.2546C27.7068 16.6547 27.551 16.1874 27.2394 15.8526C26.9279 15.5146 26.5003 15.3455 25.9568 15.3455C25.5822 15.3455 25.2475 15.4267 24.9525 15.5891C24.6608 15.7515 24.4305 15.9885 24.2615 16.3001C24.0924 16.6116 24.0079 16.9895 24.0079 17.4336ZM36.9949 14.391L34.1711 22.0273H32.9779L30.154 14.391H31.4268L33.5347 20.4762H33.6143L35.7222 14.391H36.9949ZM38.5436 22.0273V14.391H39.7169V22.0273H38.5436ZM39.1402 13.1183C38.9115 13.1183 38.7143 13.0404 38.5486 12.8846C38.3862 12.7288 38.305 12.5415 38.305 12.3228C38.305 12.104 38.3862 11.9168 38.5486 11.761C38.7143 11.6052 38.9115 11.5273 39.1402 11.5273C39.3689 11.5273 39.5644 11.6052 39.7268 11.761C39.8925 11.9168 39.9754 12.104 39.9754 12.3228C39.9754 12.5415 39.8925 12.7288 39.7268 12.8846C39.5644 13.0404 39.3689 13.1183 39.1402 13.1183ZM45.1869 14.391V15.3853H41.2295V14.391H45.1869ZM42.3829 12.5614H43.5562V19.8398C43.5562 20.1713 43.6043 20.4199 43.7004 20.5856C43.7998 20.748 43.9258 20.8574 44.0782 20.9137C44.234 20.9667 44.3981 20.9933 44.5704 20.9933C44.6997 20.9933 44.8057 20.9866 44.8886 20.9734C44.9714 20.9568 45.0377 20.9435 45.0874 20.9336L45.3261 21.9876C45.2465 22.0174 45.1355 22.0472 44.993 22.0771C44.8505 22.1102 44.6698 22.1268 44.4511 22.1268C44.1196 22.1268 43.7948 22.0555 43.4767 21.913C43.1618 21.7705 42.8999 21.5534 42.6911 21.2617C42.4856 20.9701 42.3829 20.6022 42.3829 20.158V12.5614ZM50.0715 22.1864C49.3357 22.1864 48.701 22.024 48.1673 21.6992C47.637 21.3711 47.2277 20.9137 46.9394 20.3271C46.6543 19.7371 46.5118 19.051 46.5118 18.2688C46.5118 17.4866 46.6543 16.7972 46.9394 16.2006C47.2277 15.6007 47.6288 15.1334 48.1425 14.7987C48.6595 14.4606 49.2628 14.2915 49.9521 14.2915C50.3499 14.2915 50.7426 14.3578 51.1304 14.4904C51.5182 14.623 51.8712 14.8384 52.1894 15.1367C52.5075 15.4317 52.7611 15.8228 52.95 16.31C53.1389 16.7972 53.2334 17.3971 53.2334 18.1097V18.6069H47.347V17.5927H52.0402C52.0402 17.1618 51.954 16.7773 51.7817 16.4393C51.6127 16.1012 51.3707 15.8344 51.0558 15.6388C50.7443 15.4433 50.3764 15.3455 49.9521 15.3455C49.4848 15.3455 49.0805 15.4615 48.7391 15.6935C48.401 15.9222 48.1408 16.2205 47.9585 16.5884C47.7762 16.9563 47.6851 17.3507 47.6851 17.7717V18.4478C47.6851 19.0245 47.7845 19.5134 47.9834 19.9144C48.1856 20.3121 48.4656 20.6154 48.8236 20.8242C49.1816 21.0297 49.5975 21.1325 50.0715 21.1325C50.3797 21.1325 50.6581 21.0894 50.9067 21.0032C51.1586 20.9137 51.3757 20.7811 51.558 20.6055C51.7403 20.4265 51.8811 20.2044 51.9806 19.9393L53.1141 20.2575C52.9948 20.6419 52.7942 20.98 52.5125 21.2717C52.2308 21.56 51.8828 21.7854 51.4685 21.9478C51.0542 22.1069 50.5885 22.1864 50.0715 22.1864Z" fill="#24B2B4"/>
<path d="M76 16.5273C76 16.66 75.9473 16.7871 75.8536 16.8809C75.7598 16.9747 75.6326 17.0273 75.5 17.0273H70.5V22.0273C70.5 22.16 70.4473 22.2871 70.3536 22.3809C70.2598 22.4747 70.1326 22.5273 70 22.5273C69.8674 22.5273 69.7402 22.4747 69.6464 22.3809C69.5527 22.2871 69.5 22.16 69.5 22.0273V17.0273H64.5C64.3674 17.0273 64.2402 16.9747 64.1464 16.8809C64.0527 16.7871 64 16.66 64 16.5273C64 16.3947 64.0527 16.2676 64.1464 16.1738C64.2402 16.08 64.3674 16.0273 64.5 16.0273H69.5V11.0273C69.5 10.8947 69.5527 10.7676 69.6464 10.6738C69.7402 10.58 69.8674 10.5273 70 10.5273C70.1326 10.5273 70.2598 10.58 70.3536 10.6738C70.4473 10.7676 70.5 10.8947 70.5 11.0273V16.0273H75.5C75.6326 16.0273 75.7598 16.08 75.8536 16.1738C75.9473 16.2676 76 16.3947 76 16.5273Z" fill="#24B2B4"/>
</svg>
