<svg width="24" height="25" viewBox="0 0 24 25" fill="none" xmlns="http://www.w3.org/2000/svg">
<path d="M21 15.5L18.17 12.67M13 17.5H7M9 13.5H7M13 10.5C13 11.0933 13.1759 11.6734 13.5056 12.1667C13.8352 12.6601 14.3038 13.0446 14.8519 13.2716C15.4001 13.4987 16.0033 13.5581 16.5853 13.4424C17.1672 13.3266 17.7018 13.0409 18.1213 12.6213C18.5409 12.2018 18.8266 11.6672 18.9424 11.0853C19.0581 10.5033 18.9987 9.90013 18.7716 9.35195C18.5446 8.80377 18.1601 8.33524 17.6667 8.00559C17.1734 7.67595 16.5933 7.5 16 7.5C15.2044 7.5 14.4413 7.81607 13.8787 8.37868C13.3161 8.94129 13 9.70435 13 10.5Z" stroke="#2CA9BC" stroke-width="2" stroke-linecap="round" stroke-linejoin="round"/>
<path d="M17 17.5V20.5C17 20.7652 16.8946 21.0196 16.7071 21.2071C16.5196 21.3946 16.2652 21.5 16 21.5H4C3.73478 21.5 3.48043 21.3946 3.29289 21.2071C3.10536 21.0196 3 20.7652 3 20.5V4.5C3 4.23478 3.10536 3.98043 3.29289 3.79289C3.48043 3.60536 3.73478 3.5 4 3.5H16" stroke="#2CA9BC" stroke-width="2" stroke-linecap="round" stroke-linejoin="round"/>
</svg>
