<svg width="50" height="50" viewBox="0 0 50 50" fill="none" xmlns="http://www.w3.org/2000/svg">
<rect width="50.002" height="50.002" rx="7.57605" fill="#D7FCE5"/>
<path d="M25.7058 17.9977H24.2967C24.1678 17.9977 24.0623 18.1031 24.0623 18.232V26.2969C24.0623 26.373 24.0975 26.4433 24.159 26.4873L29.0014 30.0232C29.1069 30.0993 29.2534 30.0788 29.3295 29.9734L30.1674 28.8309C30.2465 28.7225 30.223 28.576 30.1176 28.5028L25.9401 25.4825V18.232C25.9401 18.1031 25.8347 17.9977 25.7058 17.9977ZM32.1448 20.2006L36.7382 21.3226C36.8847 21.3578 37.0282 21.2464 37.0282 21.097L37.0517 16.3659C37.0517 16.1697 36.8261 16.0583 36.6737 16.1814L32.0569 19.7876C32.022 19.8146 31.9954 19.8508 31.9802 19.8923C31.9651 19.9337 31.9619 19.9786 31.9711 20.0217C31.9802 20.0648 32.0014 20.1045 32.0321 20.1362C32.0629 20.1678 32.1019 20.1902 32.1448 20.2006ZM37.0575 29.0213L35.3965 28.45C35.3386 28.4302 35.2752 28.4338 35.2199 28.4601C35.1646 28.4863 35.1218 28.5332 35.1006 28.5906C35.045 28.74 34.9864 28.8865 34.9248 29.033C34.4034 30.2663 33.6564 31.3766 32.7014 32.3287C31.757 33.276 30.6377 34.0311 29.4057 34.5521C28.1294 35.0917 26.7575 35.3687 25.3718 35.3665C23.9715 35.3665 22.6152 35.0941 21.3379 34.5521C20.1059 34.0311 18.9867 33.276 18.0423 32.3287C17.0902 31.3766 16.3432 30.2663 15.8188 29.033C15.2821 27.756 15.0072 26.3843 15.0103 24.9991C15.0103 23.5988 15.2827 22.2395 15.8247 20.9623C16.3461 19.729 17.0931 18.6187 18.0481 17.6666C18.9925 16.7193 20.1118 15.9642 21.3438 15.4431C22.6152 14.9012 23.9745 14.6288 25.3748 14.6288C26.775 14.6288 28.1314 14.9012 29.4086 15.4431C30.6407 15.9642 31.7599 16.7193 32.7043 17.6666C33.0031 17.9684 33.2843 18.2818 33.5421 18.6128L35.294 17.2418C32.9885 14.2948 29.3999 12.3994 25.3689 12.4023C18.3499 12.4053 12.7135 18.106 12.7839 25.128C12.8542 32.0269 18.4641 37.5959 25.3748 37.5959C30.8089 37.5959 35.4375 34.1508 37.2011 29.3259C37.245 29.2029 37.1805 29.0652 37.0575 29.0213Z" fill="#1C8083"/>
</svg>
