<svg width="345" height="297" viewBox="0 0 345 297" fill="none" xmlns="http://www.w3.org/2000/svg">
<path d="M58.9624 203.24C51.8863 180.183 46.0345 150.495 45.0486 126.389C44.6988 117.182 45.1282 106.989 51.4092 100.278C54.6213 96.8437 58.9783 94.7765 63.2399 92.8206C80.9541 84.7109 99.686 77.1418 119.149 77.8732C123.395 78.0323 127.736 78.6365 131.409 80.7514C135.083 82.8822 137.706 86.2692 139.98 89.7834C150.666 106.289 154.53 126.166 158.092 145.518C160.239 157.142 162.353 168.782 164.421 180.422C165.931 188.849 167.108 198.517 161.622 205.069C158.028 209.362 152.336 211.239 146.897 212.558C124.254 218.044 100.656 217.567 77.3762 217.043C73.6235 216.963 69.7754 216.852 66.3725 215.325C62.9537 213.783 60.5684 208.822 58.9465 203.24" fill="#FF7F00"/>
<path d="M109.576 214.309C115.062 207.758 113.886 198.09 112.375 189.662C110.308 178.022 108.193 166.398 106.046 154.758C102.484 135.422 98.6203 115.529 87.9345 99.0395C85.6606 95.5094 82.9892 92.1065 79.3796 90.0075L79.316 89.9757C77.9961 89.2124 76.5809 88.799 75.0703 88.7036C73.5437 88.6241 72.0967 88.8785 70.6974 89.4987C68.1691 90.58 65.7043 91.6931 63.2237 92.8221C58.9621 94.7779 54.6051 96.8451 51.4089 100.28C45.112 106.99 44.6667 117.183 45.0484 126.39C46.0184 150.497 51.886 180.2 58.9462 203.242C60.5682 208.807 62.9534 213.784 66.3563 215.327C69.7751 216.853 73.6232 216.965 77.3601 217.044C85.9468 217.235 94.5495 217.41 103.152 217.314C105.728 217.298 107.859 216.313 109.545 214.357L109.576 214.309Z" fill="white"/>
<path d="M109.957 214.69C116.587 206.676 113.916 195.195 112.246 185.877C110.052 173.633 107.873 161.389 105.552 149.161C103.469 138.3 101.163 127.439 97.3467 117.056C95.4862 111.935 93.2123 106.99 90.5091 102.251C87.9331 97.7989 84.9913 93.1716 80.682 90.2139C78.5989 88.7987 76.2137 87.9877 73.6854 88.2103C72.3815 88.3376 71.1571 88.6874 69.9644 89.228C68.5333 89.8641 67.0863 90.5002 65.6552 91.1362C60.7734 93.3306 55.5896 95.4455 51.6937 99.2141C44.4427 106.211 44.1246 117.199 44.5063 126.596C44.9515 137.314 46.2395 147.984 47.9887 158.558C49.8014 169.514 52.1071 180.359 54.9376 191.108C55.6055 193.669 56.321 196.229 57.0525 198.773C57.7681 201.301 58.4995 203.861 59.39 206.358C60.2169 208.632 61.2187 210.906 62.6657 212.862C63.9855 214.627 65.687 215.835 67.8019 216.471C70.5051 217.33 73.3833 217.489 76.1978 217.568C79.2827 217.664 82.3517 217.712 85.4365 217.759C88.5055 217.823 91.6699 217.871 94.8025 217.886C96.4085 217.886 97.9987 217.886 99.6047 217.886C101.115 217.934 102.626 217.902 104.137 217.791C106.474 217.521 108.43 216.487 109.957 214.69C110.402 214.166 109.654 213.418 109.209 213.943C107.587 215.883 105.25 216.757 102.785 216.773C99.7478 216.821 96.7106 216.821 93.6735 216.805C87.6309 216.757 81.5884 216.678 75.5459 216.471C72.779 216.376 69.9644 216.137 67.3566 215.151C65.3371 214.404 63.9219 212.909 62.7929 211.097C61.5049 208.918 60.5031 206.612 59.8034 204.179C59.0561 201.794 58.3564 199.393 57.6726 196.992C54.7468 186.736 52.3139 176.352 50.3739 165.841C48.3544 155.346 46.9233 144.772 46.0487 134.118C45.6671 129.236 45.349 124.322 45.5399 119.425C45.6989 114.734 46.3667 109.884 48.4339 105.607C49.4516 103.444 50.8191 101.552 52.5365 99.8979C54.4447 98.1328 56.5595 96.6858 58.8812 95.525C61.3141 94.237 63.8265 93.1239 66.323 92.0108C67.6746 91.3906 69.0422 90.7864 70.4097 90.198C71.65 89.6097 72.9698 89.2916 74.3373 89.228C79.553 89.1167 83.5602 93.6327 86.3111 97.5604C89.3006 101.901 91.8448 106.497 93.9279 111.347C98.2531 121.19 100.94 131.701 103.103 142.212C105.456 153.597 107.428 165.062 109.495 176.495C110.513 182.204 111.674 187.912 112.501 193.637C113.185 198.344 113.566 203.337 112.278 207.98C111.674 210.174 110.656 212.178 109.209 213.943C108.78 214.468 109.527 215.215 109.957 214.69Z" fill="white"/>
<path d="M59.473 203.091C55.4499 189.877 52.2378 176.488 49.8367 162.877C48.5805 155.928 47.5469 148.931 46.7837 141.887C46.0522 135.399 45.5116 128.848 45.4797 122.296C45.4638 116.19 46.0363 109.718 49.0894 104.312C50.759 101.433 52.9852 99.0959 55.7839 97.315C58.6461 95.4386 61.7946 94.0552 64.8954 92.6241C78.4593 86.4543 92.548 80.6662 107.448 78.9011C111.073 78.4559 114.715 78.281 118.372 78.3605C121.934 78.4559 125.559 78.8057 128.899 80.1255C135.386 82.6857 139.266 89.1735 142.478 95.0093C149.221 107.285 152.735 121.008 155.486 134.667C158.555 149.917 161.179 165.246 163.898 180.559C164.979 186.633 166.028 193.264 164.12 199.291C163.198 202.296 161.512 204.809 159.08 206.796C156.567 208.832 153.53 210.088 150.461 211.026C143.385 213.189 135.911 214.381 128.549 215.256C120.884 216.162 113.156 216.576 105.428 216.735C97.7 216.878 89.9083 216.766 82.1643 216.607C78.4593 216.528 74.6748 216.671 71.0015 216.083C69.316 215.828 67.5191 215.415 66.0403 214.556C64.8954 213.857 63.9572 212.934 63.2257 211.789C61.4289 209.182 60.3476 206.113 59.4412 203.091C59.2504 202.439 58.2168 202.726 58.4235 203.377C59.3458 206.542 60.4907 209.786 62.4307 212.489C63.1462 213.554 64.0367 214.461 65.1021 215.224C66.4537 216.13 68.1552 216.607 69.7453 216.941C73.3549 217.657 77.1236 217.562 80.8127 217.657C84.8199 217.736 88.827 217.816 92.8342 217.848C108.593 217.991 124.462 217.53 139.982 214.604C143.639 213.952 147.265 213.109 150.827 212.044C153.864 211.121 156.837 209.881 159.366 207.925C161.878 206.001 163.691 203.552 164.804 200.579C165.885 197.685 166.203 194.584 166.187 191.531C166.092 188.239 165.758 184.995 165.17 181.767C164.502 177.856 163.77 173.96 163.071 170.064C161.608 161.922 160.129 153.797 158.618 145.655C156.026 131.535 153.339 117.271 147.853 103.93C145.261 97.5217 142.033 91.0816 137.708 85.6751C135.545 82.9878 132.953 80.698 129.773 79.3305C126.609 77.9788 123.095 77.5177 119.644 77.3587C104.363 76.6431 89.3836 81.175 75.3903 86.9313C71.9397 88.3625 68.505 89.8572 65.1021 91.3996C61.8264 92.8785 58.503 94.3096 55.4817 96.2655C52.699 98.0146 50.4092 100.289 48.6441 103.071C47.054 105.727 45.9568 108.573 45.3684 111.626C44.0804 117.923 44.3825 124.459 44.7801 130.835C45.2253 137.768 45.9886 144.685 46.9745 151.555C49.0258 165.914 51.9675 180.066 55.7839 194.059C56.6266 197.176 57.533 200.293 58.4871 203.377C58.6779 204.029 59.6956 203.743 59.5048 203.091H59.473Z" fill="white"/>
<path d="M65.8777 168.557C57.3863 171.658 50.1035 176.587 44.0291 183.329C39.0361 188.927 35.3628 195.303 33.0094 202.443C30.6401 209.599 29.8132 216.913 30.4811 224.403C30.5447 225.071 31.6101 225.071 31.5465 224.403C30.656 214.687 32.3098 205.416 36.46 196.591C39.4654 190.326 43.5362 184.84 48.6723 180.165C53.8085 175.49 59.6443 171.96 66.1639 169.575C66.7999 169.352 66.5296 168.318 65.8777 168.557Z" fill="white"/>
<path d="M159.571 153.56C169.589 153.719 178.733 150.952 186.985 145.244C190.945 142.477 194.332 139.122 197.146 135.194C199.977 131.266 202.06 126.989 203.428 122.346C204.97 117.114 205.415 111.803 204.795 106.396C204.716 105.729 203.65 105.729 203.73 106.396C204.859 115.746 202.41 125.319 197.29 133.159C192.106 141.109 184.139 146.993 175.187 150.03C170.13 151.747 164.914 152.574 159.571 152.479C158.888 152.479 158.888 153.528 159.571 153.544V153.56Z" fill="white"/>
<mask id="mask0_1143_10587" style="mask-type:luminance" maskUnits="userSpaceOnUse" x="76" y="213" width="50" height="84">
<path d="M76.9609 213.161H125.81V296.803H76.9609V213.161Z" fill="white"/>
</mask>
<g mask="url(#mask0_1143_10587)">
<path d="M121.564 288.938C119.895 288.143 117.796 287.538 117.176 285.789C116.985 285.121 116.937 284.453 117.001 283.77L119.64 216.634C108.923 217.413 98.1257 217.429 87.3286 217.254L80.1094 217.524C80.5387 240.2 80.984 262.891 81.4133 285.566C81.4769 288.89 81.8585 292.786 84.689 294.535C86.1042 295.394 87.8534 295.505 89.5071 295.568C94.7546 295.807 100.002 295.982 105.25 296.109C110.958 296.268 116.826 296.332 122.169 294.312C122.821 294.121 123.361 293.772 123.806 293.263C124.888 291.768 123.25 289.733 121.564 288.938Z" fill="white"/>
<path d="M121.848 288.492C120.448 287.84 118.381 287.315 117.729 285.757C117.3 284.739 117.554 283.419 117.602 282.354L117.745 278.569C117.936 273.592 118.127 268.599 118.334 263.622C118.731 253.604 119.113 243.586 119.51 233.568L120.162 216.633C120.162 216.283 119.987 216.108 119.637 216.108C112.641 216.617 105.612 216.792 98.5999 216.824C95.1015 216.824 91.6191 216.808 88.1526 216.744C86.8487 216.744 85.5607 216.808 84.2727 216.856L80.1224 216.999C79.7726 217.015 79.5977 217.19 79.5977 217.54C79.7567 226.444 79.9316 235.349 80.1065 244.254C80.2814 253.175 80.4563 262.079 80.6153 270.984C80.6949 275.405 80.7903 279.825 80.8698 284.246C80.9334 287.315 80.838 290.893 82.762 293.485C83.8274 294.868 85.2268 295.679 86.9441 295.902C88.9636 296.252 91.0626 296.204 93.0821 296.267C97.455 296.442 101.844 296.586 106.233 296.697C110.287 296.792 114.374 296.776 118.365 295.965C119.351 295.775 120.337 295.504 121.291 295.202C122.134 294.916 123.072 294.646 123.772 294.073C125.139 292.944 124.726 291.179 123.708 289.955C123.183 289.35 122.563 288.857 121.832 288.508C121.228 288.221 120.687 289.128 121.291 289.43C122.357 289.939 124.153 291.402 123.486 292.785C123.136 293.548 122.134 293.803 121.403 294.057C120.464 294.375 119.526 294.646 118.556 294.852C114.74 295.711 110.796 295.743 106.885 295.663C102.734 295.568 98.5681 295.425 94.4178 295.266C92.3665 295.202 90.3152 295.154 88.2957 295.011C86.642 294.884 85.02 294.487 83.8751 293.199C82.9211 292.117 82.4917 290.702 82.2373 289.319C82.0147 287.728 81.9034 286.122 81.9193 284.516C81.8398 280.271 81.7603 276.041 81.6807 271.795L81.1878 246.258C81.0288 237.734 80.8698 229.227 80.6949 220.704L80.6472 217.555L80.1065 218.08C82.5076 218.001 84.9087 217.842 87.3098 217.81C90.6332 217.778 93.9407 217.905 97.2482 217.905C100.778 217.905 104.277 217.873 107.807 217.778C111.766 217.667 115.694 217.476 119.637 217.206L119.113 216.633C118.715 226.842 118.302 237.035 117.904 247.227C117.507 257.436 117.109 267.629 116.696 277.838L116.537 282.163C116.473 283.419 116.25 284.85 116.696 286.059C117.427 287.983 119.59 288.619 121.307 289.414C121.911 289.684 122.452 288.778 121.848 288.492Z" fill="white"/>
</g>
<path d="M180.35 268.751C179.078 267.844 177.328 268.226 175.786 267.956C172.272 267.336 170.395 263.567 169.076 260.275C162.588 244.135 156.339 227.932 150.312 211.633C149.167 211.999 148.022 212.269 146.893 212.555C137.4 214.861 127.716 216.101 117.984 216.737C118.748 221.046 120.226 225.213 121.674 229.347L140.739 283.332C141.391 285.177 142.123 287.149 143.681 288.325C145.017 289.343 146.766 289.629 148.436 289.709C159.296 290.218 168.948 283.396 177.662 276.892C178.998 275.875 180.397 274.809 181.129 273.314C181.876 271.804 181.733 269.705 180.35 268.751Z" fill="white"/>
<path d="M180.618 268.285C178.996 267.204 176.976 267.824 175.211 267.268C173.685 266.775 172.508 265.55 171.633 264.23C170.727 262.736 169.964 261.177 169.359 259.54C168.485 257.345 167.61 255.167 166.736 252.988C163.222 244.179 159.787 235.322 156.432 226.449C154.539 221.472 152.663 216.479 150.818 211.485C150.723 211.167 150.5 211.04 150.166 211.12C146.08 212.296 141.945 213.235 137.747 213.918C133.565 214.634 129.367 215.206 125.138 215.636C122.752 215.874 120.367 216.065 117.966 216.224C117.791 216.224 117.664 216.288 117.553 216.431C117.457 216.574 117.425 216.717 117.457 216.892C118.252 221.217 119.699 225.367 121.162 229.486L125.726 242.398C128.731 250.937 131.753 259.492 134.774 268.031C136.285 272.34 137.811 276.634 139.338 280.943C139.99 282.787 140.53 284.743 141.484 286.477C142.343 288.13 143.679 289.243 145.46 289.784C147.225 290.341 149.181 290.341 151.025 290.229C152.902 290.118 154.762 289.832 156.591 289.339C160.296 288.369 163.794 286.699 167.101 284.775C170.473 282.756 173.701 280.545 176.833 278.176C179.346 276.3 183.082 273.803 181.922 270.114C181.699 269.367 181.27 268.762 180.634 268.301C180.077 267.904 179.552 268.81 180.093 269.224C181.27 270.098 181.254 271.927 180.65 273.119C179.854 274.71 178.296 275.775 176.913 276.809C173.891 279.067 170.838 281.277 167.626 283.233C164.494 285.204 161.17 286.779 157.656 287.94C155.923 288.48 154.158 288.862 152.345 289.069C150.548 289.307 148.751 289.307 146.954 289.069C145.11 288.782 143.583 287.955 142.597 286.333C141.627 284.712 141.134 282.915 140.53 281.181C139.067 277.047 137.62 272.929 136.157 268.794L127.427 244.067C125.996 239.965 124.549 235.862 123.086 231.76C121.671 227.753 120.176 223.761 119.143 219.643C118.904 218.625 118.682 217.623 118.491 216.606L117.982 217.274C126.521 216.765 134.981 215.636 143.361 213.902C145.73 213.394 148.115 212.837 150.453 212.153L149.801 211.788C153.14 220.836 156.559 229.852 160.041 238.836C161.775 243.304 163.524 247.757 165.289 252.193C166.179 254.435 167.07 256.677 167.96 258.919C168.596 260.669 169.359 262.354 170.25 264.008C171.156 265.582 172.365 267.109 174.035 267.92C174.941 268.349 175.911 268.572 176.913 268.587C177.994 268.635 179.139 268.587 180.077 269.192C180.665 269.573 181.19 268.667 180.618 268.285Z" fill="white"/>
<path d="M214.433 102.774C219.235 98.4483 224.037 93.7415 226.152 87.6354L219.951 82.1812C219.823 82.054 219.664 81.9586 219.473 81.9268C219.092 81.9268 218.933 82.4038 218.853 82.7695C218.313 85.6636 217.184 88.3191 215.482 90.7202C213.781 93.1214 211.65 95.0454 209.09 96.5084" fill="white"/>
<path d="M214.791 103.133C218.56 99.7461 222.297 96.1524 224.841 91.7159C225.557 90.4596 226.161 89.1398 226.638 87.7723C226.701 87.5656 226.654 87.4066 226.495 87.2476L221.374 82.7475C220.993 82.3976 220.611 82.0319 220.198 81.7139C219.864 81.4117 219.498 81.3322 219.069 81.4912C218.353 81.8093 218.321 82.7793 218.178 83.4312C217.383 86.8818 215.777 89.8872 213.36 92.4632C212.024 93.8944 210.514 95.087 208.812 96.0569C208.542 96.2478 208.494 96.4863 208.653 96.7566C208.828 97.0428 209.051 97.1223 209.353 96.9792C213.774 94.435 216.827 90.7618 218.544 85.9595C218.814 85.1804 219.053 84.3853 219.228 83.5902C219.26 83.2245 219.339 82.8906 219.45 82.5566C219.45 82.5407 219.546 82.4294 219.482 82.4612C219.403 82.493 219.578 82.5884 219.625 82.6202C219.848 82.8111 220.071 83.0178 220.293 83.2086L225.747 87.9949L225.62 87.4861C223.489 93.5604 218.719 98.1718 214.076 102.386C213.567 102.847 214.314 103.594 214.823 103.133H214.791Z" fill="white"/>
<path d="M207.778 92.1642C210.624 88.8249 212.373 84.9927 213.041 80.6516C213.121 80.1586 213.153 79.6021 212.819 79.2523C212.596 79.0455 212.326 78.9024 212.039 78.8388L205.886 76.9147C205.663 76.8193 205.44 76.8034 205.218 76.8829C204.947 76.9942 204.852 77.3282 204.82 77.6303C204.423 80.3017 204.534 83.0368 203.898 85.6764C203.262 88.3002 201.592 90.9239 198.984 91.6395" fill="white"/>
<path d="M208.154 92.531C209.887 90.4956 211.254 88.2376 212.224 85.7411C212.717 84.4849 213.099 83.2127 213.353 81.9088C213.576 80.8275 214.005 79.2851 212.845 78.6013C212.193 78.2833 211.509 78.0607 210.809 77.9017L208.583 77.202L206.277 76.4864C205.705 76.3115 205.085 76.1525 204.639 76.6773C204.29 77.1384 204.29 77.8381 204.194 78.3946C204.115 79.1738 204.051 79.937 203.987 80.7162C203.924 82.2587 203.749 83.7693 203.447 85.2799C202.89 87.7605 201.443 90.3843 198.851 91.1317C198.533 91.2271 198.422 91.4497 198.517 91.7677C198.597 92.0857 198.804 92.2129 199.138 92.1493C201.221 91.5451 202.763 89.8754 203.654 87.9355C204.767 85.5662 204.894 82.9424 205.085 80.3505C205.132 79.6667 205.18 78.983 205.276 78.2992C205.291 78.0925 205.276 77.5836 205.419 77.4246C205.562 77.2497 206.055 77.5041 206.261 77.5677L210.364 78.8558C211.016 78.9989 211.636 79.2056 212.256 79.46C212.749 79.7462 212.542 80.4777 212.463 80.9388C212.256 82.1791 211.938 83.4036 211.525 84.5803C210.602 87.2358 209.219 89.6369 207.406 91.7677C206.961 92.2925 207.708 93.0398 208.154 92.531Z" fill="white"/>
<path d="M193.964 99.8481C192.342 100.214 190.752 100.15 189.178 99.689C187.587 99.2279 186.22 98.4169 185.043 97.2402C184.693 96.8745 184.073 96.4452 183.723 96.8268C183.628 96.9381 183.58 97.0494 183.549 97.1766C182.515 100.166 181.609 103.839 183.755 106.145C184.662 107.131 185.981 107.64 187.285 107.91C190.927 108.626 194.218 107.862 197.176 105.62" fill="white"/>
<path d="M193.82 99.3378C191.324 99.8784 189.002 99.4491 186.871 98.0498C186.363 97.7158 185.901 97.3342 185.472 96.9049C185.09 96.555 184.613 96.1416 184.057 96.1416C183.373 96.1416 183.135 96.73 182.944 97.2865C182.753 97.8272 182.578 98.4155 182.419 98.988C181.847 101.151 181.513 103.742 182.785 105.73C184.152 107.909 186.919 108.592 189.336 108.656C192.342 108.736 195.045 107.861 197.446 106.064C197.987 105.667 197.446 104.744 196.905 105.158C194.965 106.621 192.787 107.432 190.37 107.575C188.223 107.686 185.536 107.368 184.041 105.651C182.658 104.061 182.864 101.723 183.31 99.7989C183.437 99.2583 183.596 98.7176 183.755 98.2088C183.834 97.9862 183.898 97.7636 183.961 97.5568C184.089 97.1911 184.057 97.1116 184.391 97.3501C184.804 97.6363 185.122 98.0498 185.504 98.3519C185.965 98.7335 186.474 99.0675 186.999 99.3537C189.241 100.578 191.61 100.912 194.107 100.355C194.759 100.196 194.488 99.1788 193.82 99.3219V99.3378Z" fill="white"/>
<path d="M205.588 88.4297C206.526 88.5092 207.448 88.6842 208.339 88.9704C209.245 89.2407 210.088 89.6224 210.899 90.0994C211.726 90.5764 212.473 91.133 213.157 91.7849C213.841 92.4369 214.445 93.1366 214.97 93.9316C215.494 94.7108 215.924 95.5377 216.258 96.4282C216.592 97.3027 216.814 98.2091 216.957 99.1473C217.084 100.07 217.1 101.008 217.021 101.946C216.941 102.884 216.766 103.806 216.48 104.697C216.178 105.603 215.796 106.446 215.319 107.257C214.842 108.068 214.27 108.815 213.618 109.499C212.966 110.183 212.25 110.787 211.471 111.296C210.692 111.821 209.849 112.234 208.975 112.568C208.084 112.902 207.178 113.125 206.256 113.252C205.317 113.379 204.379 113.395 203.457 113.3C202.519 113.204 201.596 113.013 200.706 112.727C199.815 112.425 198.973 112.027 198.162 111.55C195.808 110.103 193.996 107.909 192.58 105.556C191.102 103.107 189.988 100.34 190.084 97.4777C190.116 96.6985 190.227 95.9193 190.434 95.156C190.64 94.3928 190.927 93.6772 191.308 92.9776C191.69 92.2938 192.135 91.6577 192.66 91.0694C193.185 90.481 193.757 89.9563 194.409 89.511C195.045 89.0658 195.745 88.6842 196.476 88.3979C197.208 88.1117 197.955 87.9209 198.734 87.7937C199.513 87.6824 200.293 87.6665 201.072 87.746C201.851 87.8096 202.614 87.9686 203.362 88.223" fill="#FF7F00"/>
<path d="M205.595 88.9695C207.997 89.208 210.143 90.0667 212.036 91.5773C213.928 93.072 215.264 94.9802 216.027 97.27C217.474 101.802 215.884 107.081 212.242 110.118C208.458 113.299 202.622 113.648 198.44 111.088C196.134 109.673 194.369 107.511 193.002 105.205C191.539 102.756 190.425 99.9573 190.648 97.0633C190.712 96.3318 190.855 95.6322 191.062 94.9325C191.284 94.2328 191.586 93.5809 191.952 92.9448C192.318 92.3247 192.763 91.7522 193.256 91.2275C193.765 90.6868 194.305 90.2257 194.926 89.8281C195.53 89.4306 196.166 89.0967 196.85 88.8422C197.533 88.5878 198.233 88.4129 198.949 88.3175C199.664 88.2221 200.396 88.2062 201.111 88.2698C201.827 88.3493 202.542 88.4924 203.226 88.715C203.878 88.9376 204.148 87.9041 203.512 87.6973C200.634 86.791 197.867 87.0295 195.196 88.4288C192.652 89.7963 190.934 91.8635 190.06 94.6304C189.122 97.5403 189.646 100.593 190.839 103.344C192.032 106.143 193.765 108.576 196.023 110.611C198.154 112.472 200.634 113.537 203.449 113.792C206.2 114.03 208.792 113.474 211.193 112.122C215.788 109.514 218.237 103.996 217.49 98.8124C216.726 93.6445 212.544 89.3829 207.535 88.2062C206.899 88.0631 206.263 87.9518 205.611 87.9041C204.944 87.8564 204.944 88.9058 205.611 88.9695H205.595Z" fill="white"/>
<path d="M223.213 88.1107C222.307 86.9976 221.305 86.0118 220.176 85.1213C219.922 84.8828 219.683 84.8828 219.429 85.1213C219.19 85.3757 219.19 85.6142 219.429 85.8686C220.558 86.7591 221.56 87.745 222.466 88.8581C222.72 89.1125 222.975 89.1125 223.213 88.8581C223.452 88.6037 223.452 88.3493 223.213 88.1107Z" fill="#EDEDED"/>
<path d="M210.896 79.924C209.56 79.4787 208.209 79.1607 206.825 78.9699C206.491 78.8904 206.269 79.0017 206.173 79.3356C206.078 79.6695 206.189 79.8763 206.523 79.9876C207.907 80.1784 209.274 80.4964 210.594 80.9417C210.944 81.053 211.182 80.9417 211.278 80.5759C211.373 80.2102 211.246 80.0035 210.88 79.924H210.896Z" fill="#EDEDED"/>
<path d="M184.618 98.8591C184.173 100.099 183.934 101.387 183.902 102.691C183.902 103.057 184.077 103.232 184.427 103.232C184.777 103.232 184.952 103.057 184.952 102.691C185 101.483 185.238 100.29 185.652 99.1454C185.715 98.8114 185.588 98.6047 185.27 98.5252C184.952 98.4298 184.729 98.5411 184.618 98.8591Z" fill="#EDEDED"/>
<path d="M184.806 105.567C185.156 105.567 185.331 105.377 185.331 105.027C185.331 104.677 185.156 104.502 184.806 104.502C184.456 104.502 184.281 104.677 184.281 105.027C184.281 105.377 184.456 105.567 184.806 105.567Z" fill="#EDEDED"/>
<path d="M208.676 92.4395C205.973 89.9271 202.173 89.8635 198.706 90.1815C198.038 90.2452 198.022 91.2946 198.706 91.231C201.855 90.9448 205.448 90.8812 207.929 93.1869C208.422 93.6481 209.169 92.9007 208.676 92.4395Z" fill="#EDEDED"/>
<path d="M197.103 91.0895L197.055 91.0418C197.007 90.9782 196.944 90.9464 196.88 90.9305C196.816 90.8987 196.753 90.8828 196.673 90.8828C196.61 90.8828 196.53 90.8987 196.466 90.9305C196.403 90.9464 196.355 90.9782 196.307 91.0418L196.212 91.1531C196.164 91.2326 196.148 91.3121 196.148 91.4076L196.164 91.5507C196.196 91.6461 196.228 91.7256 196.307 91.7892L196.355 91.8528C196.403 91.9005 196.466 91.9323 196.53 91.9482C196.594 91.9959 196.657 92.0118 196.737 91.9959C196.8 92.0118 196.88 91.9959 196.944 91.9482C197.007 91.9323 197.055 91.9005 197.103 91.8528L197.182 91.7415C197.246 91.662 197.262 91.5666 197.262 91.4712L197.246 91.3281C197.214 91.2326 197.182 91.169 197.103 91.0895Z" fill="#EDEDED"/>
<path d="M209.377 94.8105C209.726 94.8105 209.901 94.6356 209.901 94.2858C209.901 93.92 209.726 93.7451 209.377 93.7451C209.011 93.7451 208.836 93.92 208.836 94.2858C208.836 94.6356 209.011 94.8105 209.377 94.8105Z" fill="#EDEDED"/>
<path d="M211.216 96.5976C211.534 96.5658 211.693 96.3909 211.693 96.057C211.693 95.7389 211.534 95.564 211.216 95.5322C210.898 95.564 210.723 95.7389 210.723 96.057C210.723 96.3909 210.898 96.5658 211.216 96.5976Z" fill="#EDEDED"/>
<path d="M209.138 96.7783C209.488 96.7783 209.663 96.6034 209.663 96.2535C209.663 95.8878 209.488 95.7129 209.138 95.7129C208.788 95.7129 208.598 95.8878 208.598 96.2535C208.598 96.6034 208.788 96.7783 209.138 96.7783Z" fill="#EDEDED"/>
<path d="M194.675 92.5143C193.88 92.7846 193.499 93.3253 193.546 94.168C193.562 94.8518 194.023 96.0444 194.93 95.7423C195.248 95.6469 195.375 95.4242 195.28 95.0903C195.168 94.7246 194.914 94.5179 194.516 94.502C194.151 94.502 193.88 94.661 193.689 94.979C193.53 95.2334 193.451 95.5196 193.419 95.8059C193.355 96.1557 193.34 96.5055 193.371 96.8395C193.387 97.1893 193.562 97.3642 193.896 97.3801C194.246 97.3801 194.421 97.1893 194.437 96.8395C194.389 96.4896 194.405 96.1557 194.484 95.8059C194.484 95.7423 194.532 95.6787 194.548 95.5992C194.564 95.5355 194.58 95.5355 194.548 95.5833C194.58 95.5355 194.58 95.5196 194.548 95.5674C194.596 95.5196 194.596 95.5037 194.548 95.5355C194.516 95.5514 194.484 95.5674 194.453 95.5674C194.341 95.5515 194.278 95.4878 194.246 95.3765L194.596 94.7246C194.643 94.7246 194.675 94.7405 194.707 94.7405C194.787 94.7723 194.787 94.7723 194.755 94.7405C194.707 94.7246 194.723 94.7246 194.755 94.7405L194.723 94.7087C194.739 94.7564 194.723 94.6769 194.691 94.6451C194.643 94.5815 194.723 94.7405 194.659 94.5656C194.58 94.4065 194.548 94.2157 194.564 94.0408C194.564 93.8977 194.612 93.7864 194.691 93.6751C194.643 93.7546 194.834 93.5479 194.755 93.5956L194.85 93.5479C194.962 93.4684 194.787 93.5479 194.914 93.5161C195.248 93.4207 195.359 93.198 195.28 92.8641C195.184 92.5302 194.962 92.4189 194.628 92.5143H194.675Z" fill="#EDEDED"/>
<path d="M194.458 100.185C194.791 100.169 194.95 99.9785 194.95 99.6605C194.95 99.3266 194.791 99.1516 194.458 99.1357C194.139 99.1516 193.98 99.3266 193.98 99.6605C193.98 99.9785 194.139 100.169 194.458 100.185Z" fill="#EDEDED"/>
<path d="M40.0297 226.374C44.3549 231.176 48.6165 236.376 50.0953 242.657L43.3531 247.428C43.21 247.539 43.051 247.618 42.8602 247.618C42.4944 247.602 42.3672 247.109 42.3354 246.728C42.0969 243.786 41.2541 241.035 39.8071 238.459C38.3601 235.899 36.4519 233.752 34.0508 232.019" fill="white"/>
<path d="M39.6411 226.756C43.855 231.462 48.0847 236.535 49.5795 242.816L49.818 242.212L44.6182 245.885L43.362 246.76C43.3302 246.791 42.9168 247.078 42.9486 247.094C42.885 247.062 42.8691 246.776 42.8532 246.728C42.7578 245.901 42.6942 245.074 42.5192 244.247C41.8514 240.956 40.4521 237.998 38.3531 235.39C37.1923 233.927 35.8406 232.655 34.33 231.574C33.7735 231.176 33.2487 232.099 33.7894 232.496C36.6357 234.563 38.7824 237.219 40.1976 240.431C40.8973 242.021 41.3743 243.659 41.6447 245.376C41.756 246.092 41.6447 247.046 42.0422 247.682C42.233 248.016 42.5351 248.175 42.9168 248.175C43.3938 248.175 43.8073 247.761 44.1889 247.491L50.3427 243.166C50.5654 243.023 50.6449 242.816 50.5813 242.562C49.3887 237.569 46.4946 233.243 43.2507 229.332C42.3284 228.219 41.3584 227.121 40.3726 226.04C39.9114 225.531 39.164 226.295 39.6252 226.787L39.6411 226.756Z" fill="white"/>
<path d="M32.2974 236.232C34.778 239.841 36.1137 243.849 36.3205 248.237C36.3364 248.714 36.3205 249.271 35.9547 249.605C35.7162 249.78 35.4459 249.891 35.1278 249.923L28.815 251.195C28.5924 251.259 28.3697 251.243 28.1471 251.147C27.9086 250.941 27.8132 250.686 27.845 250.368C27.7178 247.665 28.1312 244.962 27.7655 242.258C27.3998 239.571 26.0322 236.804 23.5039 235.818" fill="white"/>
<path d="M31.834 236.489C34.0443 239.701 35.3482 243.247 35.714 247.143C35.8094 247.699 35.8253 248.272 35.7776 248.844C35.6663 249.432 34.9507 249.417 34.4578 249.512L30.069 250.387L29.1944 250.577C29.0195 250.609 28.8287 250.657 28.6696 250.673C28.4947 250.705 28.4788 250.736 28.3993 250.609C28.2562 250.418 28.3516 249.894 28.3357 249.671C28.3357 249.258 28.3357 248.844 28.3357 248.431C28.3993 245.823 28.6696 243.135 27.9382 240.591C27.2862 238.317 25.8869 236.218 23.613 235.312C22.9928 235.058 22.7066 236.075 23.3427 236.33C25.4417 237.172 26.5866 239.399 27.0636 241.514C27.7156 244.423 27.0954 247.429 27.2862 250.371C27.318 250.927 27.4929 251.547 28.1131 251.722C28.7173 251.897 29.5442 251.579 30.1485 251.452L34.7122 250.546C35.3005 250.418 35.9684 250.355 36.3977 249.894C36.7476 249.432 36.8907 248.924 36.8271 248.351C36.7953 247.015 36.6204 245.696 36.3341 244.392C35.6822 241.339 34.4896 238.54 32.7245 235.964C32.3429 235.407 31.4365 235.948 31.8181 236.505L31.834 236.489Z" fill="white"/>
<path d="M19.3655 227.123C17.7912 226.598 16.2011 226.487 14.5792 226.773C12.9572 227.075 11.5102 227.743 10.2222 228.776C9.82462 229.11 9.17267 229.476 8.85464 229.063C8.79103 228.951 8.74333 228.824 8.71153 228.697C7.99596 225.628 7.50302 221.875 9.87233 219.792C10.8741 218.918 12.2416 218.552 13.5774 218.425C17.2665 218.107 20.4627 219.204 23.1659 221.732" fill="white"/>
<path d="M19.5056 226.617C17.2794 225.886 15.0691 225.901 12.8747 226.681C11.8094 227.078 10.8394 227.619 9.96478 228.318C9.80577 228.477 9.61495 228.589 9.42414 228.684C9.15381 228.78 9.21742 228.573 9.16971 228.318C9.0584 227.81 8.94709 227.285 8.86759 226.776C8.54955 224.852 8.40644 222.578 9.58315 220.908C10.9189 219.016 13.6221 218.778 15.737 218.968C18.4402 219.223 20.7778 220.272 22.7813 222.117C23.2743 222.578 24.0216 221.831 23.5287 221.37C21.6046 219.557 19.3307 218.444 16.7388 218.014C14.29 217.633 11.3005 217.744 9.39233 219.509C7.69088 221.067 7.43646 223.532 7.64318 225.711C7.70678 226.299 7.80219 226.903 7.8976 227.507C7.97711 228.08 8.10432 228.621 8.29513 229.161C8.58136 229.797 9.0425 229.972 9.69446 229.702C10.251 229.511 10.6644 229.082 11.1256 228.748C13.638 227.062 16.3254 226.696 19.1876 227.666C19.8396 227.889 20.1099 226.855 19.4738 226.649L19.5056 226.617Z" fill="white"/>
<path d="M29.7326 239.697C30.6708 239.729 31.6089 239.649 32.5312 239.474C33.4535 239.283 34.344 238.997 35.2027 238.616C36.0613 238.234 36.8723 237.757 37.6197 237.185C38.367 236.612 39.0508 235.96 39.6551 235.245C40.2593 234.513 40.7682 233.734 41.1975 232.891C41.6268 232.048 41.9608 231.174 42.1834 230.267C42.4219 229.345 42.5332 228.407 42.565 227.469C42.5809 226.531 42.4855 225.592 42.2947 224.67C42.1039 223.748 41.8018 222.857 41.4201 221.999C41.0226 221.14 40.5296 220.345 39.9572 219.598C39.3847 218.85 38.7328 218.166 38.0013 217.578C37.2698 216.974 36.4907 216.465 35.6479 216.052C34.8051 215.622 33.9146 215.304 33.0083 215.082C32.086 214.875 31.1637 214.748 30.2096 214.748C29.2714 214.732 28.3491 214.843 27.4269 215.034C26.5046 215.241 25.6141 215.543 24.7713 215.956C22.2748 217.133 20.2553 219.12 18.5857 221.315C16.8524 223.605 15.469 226.244 15.2623 229.091C15.1987 229.87 15.2305 230.649 15.3577 231.428C15.4849 232.207 15.6916 232.955 15.9937 233.686C16.2959 234.418 16.6775 235.101 17.1386 235.737C17.5839 236.374 18.1245 236.946 18.7129 237.471C19.3012 237.98 19.9532 238.425 20.6529 238.791C21.3366 239.156 22.0681 239.427 22.8314 239.633C23.5946 239.824 24.3738 239.92 25.153 239.935C25.9321 239.951 26.7113 239.872 27.4905 239.697" fill="#FF7F00"/>
<path d="M29.7312 240.22C32.4185 240.251 34.8992 239.536 37.1572 238.057C39.4152 236.578 41.0689 234.606 42.1184 232.126C44.1061 227.276 42.7704 221.233 38.9222 217.671C36.8868 215.859 34.5175 214.761 31.8143 214.396C29.111 214.03 26.5509 214.459 24.1021 215.684C21.4943 217.035 19.4271 219.23 17.7097 221.599C16.0083 223.968 14.6566 226.894 14.7044 229.916C14.7203 231.331 15.0065 232.682 15.563 233.986C16.1196 235.29 16.8987 236.435 17.9164 237.421C18.9341 238.423 20.0949 239.17 21.4148 239.695C22.7346 240.22 24.1021 240.458 25.5173 240.442C26.217 240.426 26.9325 240.347 27.6163 240.188C28.2842 240.045 28.0138 239.027 27.346 239.17C24.6586 239.727 22.178 239.234 19.8882 237.691C17.6938 236.149 16.3581 234.05 15.9129 231.394C15.4199 228.659 16.2786 225.972 17.6779 223.634C19.0613 221.202 20.89 219.166 23.1321 217.528C25.2152 216.081 27.505 215.366 30.0333 215.35C32.5458 215.334 34.8515 216.034 36.9504 217.449C40.9417 220.168 42.7863 225.479 41.6573 230.154C40.5283 234.813 36.2508 238.47 31.4963 239.091C30.9079 239.154 30.3195 239.186 29.7312 239.17C29.0474 239.17 29.0474 240.204 29.7312 240.22Z" fill="white"/>
<path d="M46.5058 241.102C45.5199 242.088 44.4386 242.93 43.2619 243.678C42.9121 243.837 42.8485 244.091 43.0393 244.425C43.2301 244.743 43.4846 244.807 43.7867 244.584C45.0429 243.805 46.1878 242.883 47.2373 241.849C47.4758 241.611 47.4758 241.356 47.2373 241.102C46.9829 240.863 46.7443 240.863 46.4899 241.102H46.5058Z" fill="#EDEDED"/>
<path d="M33.8687 247.676C32.5489 247.962 31.2131 248.137 29.8774 248.185C29.4799 248.153 29.2891 248.328 29.2891 248.71C29.2891 249.091 29.4799 249.266 29.8774 249.235C31.3085 249.187 32.7397 249.012 34.1549 248.694C34.4888 248.598 34.6001 248.376 34.5206 248.042C34.4093 247.724 34.2026 247.597 33.8687 247.692V247.676Z" fill="#EDEDED"/>
<path d="M10.988 226.877C10.7017 225.701 10.6063 224.492 10.6858 223.268C10.6699 222.95 10.5109 222.775 10.177 222.759C9.82715 222.775 9.65223 222.95 9.63633 223.299C9.55682 224.603 9.68404 225.907 10.0021 227.179C10.0975 227.513 10.3201 227.625 10.654 227.545C10.972 227.434 11.0993 227.227 11.0198 226.893L10.988 226.877Z" fill="#EDEDED"/>
<path d="M10.7934 221.521C11.1274 221.505 11.2864 221.33 11.2864 220.996C11.2864 220.678 11.1274 220.503 10.7934 220.472C10.4754 220.503 10.3164 220.678 10.3164 220.996C10.3164 221.33 10.4754 221.505 10.7934 221.521Z" fill="#EDEDED"/>
<path d="M32.5948 235.184C29.8756 237.22 26.3614 236.838 23.2288 236.202C22.561 236.075 22.2748 237.093 22.9426 237.236C26.3296 237.904 30.1619 238.317 33.1036 236.091C33.6443 235.693 33.1036 234.771 32.5789 235.184H32.5948Z" fill="#EDEDED"/>
<path d="M34.0951 234.816C34.4449 234.816 34.6357 234.641 34.6357 234.291C34.6357 233.942 34.4449 233.767 34.0951 233.767C33.7452 233.767 33.5703 233.942 33.5703 234.291C33.5703 234.641 33.7452 234.816 34.0951 234.816Z" fill="#EDEDED"/>
<path d="M36.114 233.248C36.4321 233.216 36.5911 233.041 36.5911 232.707C36.5911 232.389 36.4321 232.214 36.114 232.183C35.796 232.214 35.6211 232.389 35.6211 232.707C35.6211 233.041 35.796 233.216 36.114 233.248Z" fill="#EDEDED"/>
<path d="M34.0638 232.841C34.4295 232.841 34.6045 232.65 34.6045 232.3C34.6045 231.95 34.4295 231.775 34.0638 231.775C33.714 231.775 33.5391 231.95 33.5391 232.3C33.5391 232.65 33.714 232.841 34.0638 232.841Z" fill="#EDEDED"/>
<path d="M83.7509 230.955C91.9243 232.163 100.145 232.513 108.382 232.004C110.736 231.861 113.073 231.639 115.427 231.352C116.094 231.273 116.094 230.207 115.427 230.287C107.269 231.289 99.1117 231.432 90.9225 230.732C88.6327 230.541 86.327 230.271 84.0531 229.921C83.3852 229.826 83.099 230.859 83.7668 230.955H83.7509Z" fill="#FF7F00"/>
<path d="M84.3941 247.572C92.2017 249.719 100.375 248.955 108.246 247.54C110.504 247.143 112.762 246.666 115.02 246.204C115.688 246.061 115.402 245.028 114.734 245.171C107.038 246.793 99.1347 248.367 91.2317 247.699C89.0055 247.524 86.827 247.143 84.6644 246.554C84.3464 246.475 84.1396 246.602 84.0442 246.92C83.9647 247.254 84.076 247.461 84.3941 247.572Z" fill="#FF7F00"/>
<path d="M128.944 230.572C135.002 229.681 140.87 228.059 146.515 225.706C148.121 225.054 149.695 224.323 151.237 223.543C151.842 223.241 151.317 222.319 150.713 222.637C145.29 225.324 139.614 227.328 133.714 228.616C132.044 228.982 130.359 229.284 128.657 229.538C127.99 229.634 128.276 230.651 128.944 230.556V230.572Z" fill="#FF7F00"/>
<path d="M131.3 247.874C138.853 247.111 145.929 244.869 152.544 241.132C154.405 240.099 156.186 238.938 157.887 237.682C158.428 237.3 157.903 236.378 157.362 236.775C151.336 241.18 144.689 244.201 137.422 245.823C135.402 246.284 133.351 246.602 131.3 246.825C130.632 246.889 130.616 247.938 131.3 247.874Z" fill="#FF7F00"/>
<path d="M139.487 265.228C149.361 263.861 157.948 259.758 165.231 252.92C165.724 252.459 164.977 251.712 164.484 252.173C157.328 258.884 148.9 262.891 139.2 264.21C138.533 264.306 138.819 265.324 139.487 265.228Z" fill="#FF7F00"/>
<path d="M55.3972 174.659C60.4539 172.258 65.7331 170.652 71.2668 169.857C71.9347 169.762 71.6644 168.728 70.9965 168.824C65.3674 169.65 59.9927 171.304 54.8725 173.753C54.2523 174.039 54.793 174.962 55.3972 174.659Z" fill="#FF7F00"/>
<path d="M69.8236 165.072L71.7636 172.291C71.859 172.609 72.0816 172.721 72.3997 172.641C72.7177 172.546 72.8449 172.339 72.7813 172.021L70.8572 164.818C70.7618 164.468 70.5392 164.341 70.2053 164.436C69.8554 164.531 69.7282 164.754 69.8236 165.088V165.072Z" fill="#FF7F00"/>
<path d="M54.2422 115.128C56.0549 113.792 58.0108 112.742 60.1257 111.995C60.7617 111.757 60.4755 110.739 59.8395 110.977C57.6451 111.757 55.5938 112.838 53.7174 114.221C53.4312 114.396 53.3676 114.635 53.5266 114.937C53.7015 115.239 53.94 115.303 54.2422 115.128Z" fill="#FF7F00"/>
<path d="M55.3984 120.069C57.2112 118.75 59.167 117.7 61.2819 116.953C61.918 116.73 61.6477 115.712 60.9957 115.935C58.8013 116.714 56.7659 117.795 54.8737 119.179C54.5874 119.37 54.5238 119.608 54.6828 119.91C54.8737 120.212 55.1122 120.276 55.4143 120.101L55.3984 120.069Z" fill="#FF7F00"/>
<path d="M56.5664 125.04C58.3791 123.704 60.335 122.654 62.4499 121.907C63.086 121.668 62.8156 120.651 62.1796 120.873C59.9693 121.668 57.9339 122.75 56.0416 124.133C55.7554 124.308 55.6918 124.547 55.8508 124.849C56.0416 125.151 56.2801 125.215 56.5823 125.04H56.5664Z" fill="#FF7F00"/>
<path d="M110.583 84.1069C114.987 82.8348 119.774 81.8966 124.274 83.2482C125.816 83.7093 128.011 84.7429 127.693 86.7147C127.645 87.0486 127.518 87.3508 127.311 87.6211C127.216 87.7324 126.595 88.2094 126.516 88.0345C126.405 87.796 127.2 87.2077 127.343 87.0804C127.74 86.7147 128.186 86.4603 128.71 86.3331C129.823 86.1582 130.587 87.2554 130.841 88.1935C130.921 88.4798 131.461 90.9127 130.905 90.9445L131.27 91.1035C131.143 90.9604 131.111 90.8173 131.159 90.6424C131.207 90.4515 131.302 90.3402 131.477 90.2766C132.081 90.0222 132.702 90.7219 132.94 91.183C133.576 92.4074 133.481 93.8703 134.546 94.9039C135.039 95.381 135.786 94.6336 135.293 94.1566C134.641 93.5364 134.514 92.6141 134.276 91.7873C134.053 90.9604 133.703 90.1335 132.972 89.6247C132.288 89.084 131.573 89.0204 130.809 89.4498C130.205 89.8632 129.951 90.4356 130.094 91.1671C130.253 91.8986 130.984 92.2802 131.604 91.7714C132.113 91.342 132.193 90.5788 132.161 89.9586C132.034 88.2412 131.62 86.19 129.855 85.4585C129.028 85.1564 128.249 85.22 127.502 85.6811C126.754 86.0627 126.134 86.6193 125.673 87.319C125.276 87.9709 125.371 88.9091 126.246 89.0999C126.929 89.243 127.677 88.8137 128.09 88.3049C128.535 87.7006 128.758 87.0486 128.742 86.3013C128.726 85.5698 128.504 84.9019 128.042 84.3295C126.977 82.962 125.196 82.3577 123.574 81.9761C119.169 80.9584 114.574 81.8489 110.296 83.0892C109.978 83.1846 109.867 83.4072 109.947 83.7252C110.042 84.0433 110.249 84.1705 110.583 84.1069Z" fill="#EDEDED"/>
<path d="M138.165 98.11C138.483 98.0941 138.642 97.9192 138.642 97.5853C138.642 97.2673 138.483 97.0764 138.165 97.0605C137.831 97.0764 137.672 97.2673 137.672 97.5853C137.672 97.9192 137.831 98.0941 138.165 98.11Z" fill="#EDEDED"/>
<path d="M139.738 98.5394V99.1118C139.738 99.1914 139.754 99.255 139.786 99.3186C139.802 99.3822 139.834 99.4458 139.881 99.4935C139.929 99.5412 139.993 99.573 140.056 99.6048C140.12 99.6366 140.184 99.6525 140.263 99.6525L140.406 99.6207C140.486 99.6048 140.565 99.5571 140.645 99.4935C140.74 99.3822 140.788 99.2709 140.788 99.1277V98.5394C140.788 98.4758 140.772 98.3963 140.74 98.3327C140.692 98.2055 140.597 98.1101 140.47 98.0624C140.406 98.0306 140.343 98.0146 140.263 98.0146H140.12C140.025 98.0305 139.961 98.0783 139.881 98.1419C139.786 98.2532 139.738 98.3645 139.738 98.5076V98.5394Z" fill="#EDEDED"/>
<path d="M139.31 102.729C139.66 102.729 139.835 102.539 139.835 102.189C139.835 101.839 139.66 101.664 139.31 101.664C138.96 101.664 138.785 101.839 138.785 102.189C138.785 102.539 138.96 102.729 139.31 102.729Z" fill="#EDEDED"/>
<path d="M127.039 116.294C126.594 115.515 126.022 114.863 125.29 114.338C121.712 112.001 113.571 117.089 111.249 120.413C109.134 123.45 109.945 127.966 111.201 131.591C111.949 133.754 112.887 135.933 114.445 137.38C117.276 139.956 121.283 139.351 124.813 138.652C126.196 138.365 127.659 138.047 128.725 136.982C130.331 135.36 130.569 132.546 130.506 130.049C130.379 125.183 129.504 120.19 127.039 116.294Z" fill="white"/>
<path d="M127.5 116.013C126.832 114.979 126.053 113.993 124.876 113.532C124.065 113.23 123.222 113.134 122.364 113.23C120.281 113.437 118.261 114.311 116.448 115.361C114.636 116.378 112.998 117.65 111.567 119.161C109.929 120.974 109.309 123.28 109.404 125.697C109.531 128.479 110.374 131.246 111.455 133.79C112.552 136.319 114.254 138.561 116.989 139.372C119.517 140.119 122.221 139.674 124.749 139.181C126.021 138.927 127.357 138.64 128.438 137.877C129.487 137.082 130.203 136.033 130.553 134.76C130.903 133.456 131.062 132.137 131.03 130.785C131.03 129.322 130.95 127.859 130.775 126.412C130.505 123.439 129.742 120.608 128.517 117.905C128.215 117.237 127.866 116.617 127.484 115.997C127.118 115.424 126.212 115.949 126.562 116.537C127.977 118.859 128.899 121.371 129.36 124.059C129.901 126.698 130.076 129.37 129.933 132.057C129.901 133.282 129.615 134.442 129.09 135.54C128.47 136.653 127.563 137.384 126.339 137.718C125.178 138.052 123.986 138.306 122.777 138.465C121.6 138.672 120.408 138.736 119.215 138.688C118.038 138.64 116.925 138.322 115.876 137.75C114.779 137.082 113.92 136.192 113.284 135.063C112.616 133.886 112.075 132.661 111.662 131.373C111.249 130.197 110.931 128.988 110.708 127.764C110.279 125.426 110.247 122.771 111.646 120.719C112.616 119.32 114.063 118.191 115.447 117.237C117.084 116.076 118.865 115.202 120.774 114.613C122.252 114.2 124.097 113.945 125.353 115.059C125.83 115.488 126.244 115.997 126.578 116.553C126.943 117.126 127.866 116.601 127.5 116.013Z" fill="white"/>
<path d="M130.5 130.04C130.373 125.174 129.499 120.181 127.018 116.285C126.573 115.506 126 114.854 125.285 114.329C124.203 113.614 122.677 113.614 121.023 114.011C120.642 114.218 120.292 114.472 119.99 114.774C118.368 116.396 118.145 119.195 118.209 121.692C118.336 126.541 119.21 131.55 121.675 135.446C122.12 136.21 122.709 136.862 123.424 137.402C124.506 138.118 126.032 138.118 127.67 137.72C128.052 137.513 128.401 137.259 128.719 136.957C130.341 135.335 130.564 132.536 130.5 130.04Z" fill="#EDEDED"/>
<path d="M131.045 130.039C130.917 125.698 130.266 121.261 128.278 117.397C127.371 115.632 126.163 113.692 124.08 113.31C123.603 113.231 123.126 113.199 122.633 113.231C122.044 113.247 121.472 113.342 120.9 113.501C120.057 113.819 119.309 114.662 118.848 115.425C117.862 117.079 117.688 119.13 117.688 121.007C117.688 123.169 117.878 125.332 118.244 127.463C118.61 129.594 119.214 131.645 120.105 133.601C120.9 135.35 121.997 137.465 123.873 138.196C124.954 138.641 126.211 138.562 127.34 138.339C128.405 138.133 129.248 137.322 129.82 136.431C130.997 134.571 131.092 132.17 131.045 130.023C131.029 129.339 129.963 129.339 129.979 130.023C130.027 131.756 129.979 133.617 129.264 135.207C128.93 135.986 128.421 136.606 127.721 137.083C127.308 137.29 126.863 137.401 126.401 137.417C125.909 137.481 125.416 137.465 124.923 137.401C123.078 137.083 122.076 135.239 121.297 133.68C120.454 131.947 119.85 130.15 119.468 128.258C119.071 126.334 118.832 124.378 118.769 122.406C118.689 120.641 118.673 118.812 119.23 117.127C119.453 116.348 119.85 115.68 120.423 115.091C120.741 114.757 121.138 114.535 121.583 114.424C122.076 114.328 122.569 114.265 123.078 114.265C123.984 114.249 124.795 114.535 125.463 115.155C126.131 115.839 126.672 116.602 127.101 117.461C129.2 121.261 129.852 125.745 129.979 130.039C129.995 130.723 131.061 130.723 131.045 130.039Z" fill="white"/>
<path d="M128.064 128.795C127.73 125.297 127.03 121.735 125.679 119.016C125.456 118.507 125.154 118.062 124.772 117.664C124.232 117.203 123.532 117.235 122.801 117.585C122.626 117.76 122.483 117.967 122.371 118.173C121.719 119.414 121.783 121.433 121.942 123.23C122.292 126.728 122.975 130.29 124.327 133.009C124.55 133.518 124.852 133.963 125.233 134.361C125.774 134.822 126.474 134.79 127.205 134.44C127.38 134.266 127.523 134.059 127.635 133.852C128.287 132.612 128.239 130.592 128.064 128.795Z" fill="white"/>
<path d="M128.588 128.807C128.302 125.849 127.825 122.844 126.727 120.077C126.282 118.98 125.726 117.374 124.501 116.929C123.849 116.706 123.213 116.77 122.609 117.12C122.084 117.39 121.782 118.121 121.607 118.662C121.21 119.966 121.273 121.381 121.369 122.717C121.496 124.227 121.687 125.722 121.973 127.217C122.227 128.648 122.593 130.047 123.07 131.415C123.309 132.051 123.563 132.671 123.865 133.291C124.135 133.927 124.549 134.468 125.09 134.913C125.742 135.327 126.425 135.374 127.141 135.056C127.841 134.786 128.19 134.07 128.397 133.387C128.858 131.94 128.731 130.302 128.588 128.807C128.524 128.123 127.475 128.123 127.538 128.807C127.697 130 127.697 131.192 127.538 132.401C127.475 132.862 127.332 133.307 127.093 133.721C126.934 133.975 126.696 134.118 126.409 134.182C126.107 134.229 125.853 134.166 125.598 133.991C125.201 133.609 124.915 133.148 124.708 132.623C124.454 132.099 124.231 131.542 124.04 130.986C123.643 129.841 123.325 128.68 123.086 127.503C122.832 126.247 122.657 125.007 122.514 123.735C122.37 122.574 122.323 121.397 122.386 120.22C122.466 119.298 122.704 117.692 123.976 117.883C124.517 117.962 124.835 118.567 125.058 119.012C125.328 119.537 125.567 120.077 125.773 120.634C126.775 123.242 127.22 126.04 127.491 128.807C127.602 129.475 128.651 129.491 128.588 128.807Z" fill="white"/>
<path d="M123.362 120.043C123.712 120.536 123.983 121.045 124.173 121.617C124.412 122.189 124.619 122.778 124.81 123.366C125.191 124.559 125.493 125.767 125.732 126.976C125.859 127.644 126.877 127.373 126.749 126.705C126.511 125.386 126.161 124.098 125.748 122.825C125.334 121.601 124.905 120.297 124.11 119.279C123.855 119.041 123.617 119.041 123.362 119.279C123.124 119.534 123.124 119.788 123.362 120.027V120.043Z" fill="#FF7F00"/>
<path d="M126.13 129.103C126.178 129.326 126.21 129.565 126.257 129.787L126.273 129.946C126.305 130.121 126.273 129.835 126.273 130.01C126.273 130.121 126.305 130.232 126.321 130.344C126.353 130.805 126.384 131.25 126.4 131.695C126.4 132.045 126.575 132.22 126.925 132.22C127.275 132.22 127.466 132.045 127.466 131.695C127.434 130.725 127.323 129.771 127.148 128.833C127.036 128.499 126.83 128.372 126.496 128.467C126.162 128.563 126.051 128.785 126.13 129.119V129.103Z" fill="#FF7F00"/>
<path d="M151.005 110.023C150.56 109.26 149.972 108.608 149.256 108.083C145.678 105.73 137.521 110.834 135.215 114.158C133.1 117.179 133.895 121.711 135.168 125.336C135.915 127.499 136.853 129.662 138.411 131.109C141.242 133.685 145.249 133.096 148.763 132.381C150.163 132.095 151.61 131.776 152.675 130.711C154.297 129.089 154.536 126.275 154.488 123.778C154.345 118.928 153.47 113.919 151.005 110.023Z" fill="white"/>
<path d="M151.441 109.775C150.789 108.741 150.01 107.74 148.817 107.278C148.006 106.976 147.179 106.881 146.321 106.992C144.222 107.199 142.218 108.074 140.405 109.123C138.593 110.141 136.971 111.397 135.539 112.923C133.886 114.72 133.281 117.026 133.377 119.459C133.504 122.242 134.347 124.993 135.428 127.537C136.525 130.081 138.211 132.307 140.962 133.134C143.474 133.882 146.193 133.436 148.706 132.927C149.994 132.673 151.314 132.403 152.395 131.624C153.46 130.828 154.16 129.795 154.51 128.507C154.86 127.219 155.019 125.899 154.987 124.547C154.987 123.084 154.907 121.622 154.732 120.175C154.446 117.217 153.699 114.37 152.474 111.667C152.172 111.015 151.822 110.379 151.441 109.759C151.075 109.187 150.169 109.711 150.519 110.3C151.934 112.637 152.856 115.15 153.317 117.837C153.858 120.477 154.049 123.132 153.906 125.835C153.874 127.06 153.588 128.221 153.047 129.318C152.443 130.431 151.536 131.146 150.312 131.48C149.151 131.814 147.958 132.069 146.75 132.228C145.573 132.434 144.381 132.514 143.204 132.45C142.011 132.403 140.898 132.101 139.849 131.512C138.752 130.844 137.893 129.954 137.257 128.825C136.589 127.648 136.064 126.424 135.651 125.152C135.221 123.975 134.903 122.766 134.681 121.542C134.251 119.189 134.22 116.533 135.619 114.482C136.589 113.082 138.036 111.969 139.419 110.999C141.057 109.839 142.838 108.964 144.746 108.376C146.225 107.946 148.07 107.708 149.326 108.805C149.803 109.25 150.216 109.759 150.55 110.316C150.9 110.872 151.822 110.347 151.441 109.775Z" fill="white"/>
<path d="M154.473 123.778C154.346 118.928 153.471 113.919 151.006 110.023C150.561 109.26 149.973 108.608 149.257 108.083C148.176 107.352 146.649 107.352 145.011 107.749C144.63 107.956 144.28 108.21 143.962 108.512C142.356 110.134 142.117 112.949 142.181 115.446C142.308 120.295 143.183 125.288 145.663 129.184C146.109 129.964 146.681 130.615 147.397 131.14C148.478 131.856 150.004 131.856 151.658 131.474C152.04 131.267 152.39 131.013 152.692 130.695C154.314 129.073 154.536 126.274 154.473 123.778Z" fill="#EDEDED"/>
<path d="M154.986 123.777C154.859 119.452 154.207 114.999 152.219 111.119C151.313 109.37 150.12 107.43 148.021 107.049C147.544 106.969 147.067 106.937 146.59 106.969C146.002 106.969 145.413 107.065 144.857 107.24C143.998 107.542 143.251 108.384 142.805 109.148C141.819 110.801 141.645 112.853 141.645 114.745C141.645 116.908 141.819 119.07 142.201 121.201C142.551 123.332 143.171 125.383 144.062 127.339C144.857 129.088 145.954 131.203 147.83 131.95C148.911 132.38 150.168 132.3 151.297 132.078C152.346 131.871 153.205 131.076 153.761 130.169C154.938 128.309 155.049 125.908 154.986 123.777C154.97 123.093 153.905 123.093 153.936 123.777C153.968 125.494 153.936 127.355 153.205 128.961C152.887 129.74 152.378 130.36 151.678 130.821C151.265 131.044 150.82 131.155 150.359 131.155C149.866 131.219 149.373 131.219 148.88 131.139C147.019 130.821 146.033 128.977 145.254 127.418C144.411 125.701 143.807 123.888 143.425 122.012C143.028 120.072 142.805 118.116 142.742 116.144C142.662 114.379 142.646 112.567 143.203 110.865C143.425 110.086 143.823 109.418 144.395 108.83C144.714 108.496 145.095 108.273 145.556 108.162C146.049 108.066 146.542 108.003 147.051 108.019C147.957 107.987 148.752 108.273 149.436 108.893C150.104 109.577 150.645 110.34 151.074 111.199C153.173 114.999 153.825 119.484 153.952 123.777C153.952 124.461 155.002 124.461 154.986 123.777Z" fill="white"/>
<path d="M152.016 122.538C151.682 119.056 150.998 115.478 149.647 112.759C149.424 112.266 149.122 111.805 148.74 111.423C148.2 110.946 147.5 110.994 146.768 111.344C146.594 111.519 146.45 111.709 146.339 111.932C145.687 113.156 145.735 115.176 145.91 116.989C146.244 120.471 146.943 124.049 148.295 126.768C148.518 127.261 148.82 127.706 149.201 128.104C149.742 128.581 150.442 128.549 151.173 128.183C151.348 128.008 151.491 127.818 151.603 127.595C152.254 126.371 152.191 124.335 152.016 122.538Z" fill="white"/>
<path d="M152.56 122.534C152.273 119.576 151.796 116.587 150.699 113.804C150.254 112.707 149.697 111.117 148.473 110.656C147.821 110.449 147.185 110.513 146.581 110.846C146.04 111.133 145.754 111.848 145.579 112.405C145.181 113.693 145.229 115.124 145.34 116.444C145.468 117.954 145.658 119.465 145.929 120.944C146.183 122.375 146.565 123.774 147.042 125.142C147.264 125.794 147.535 126.414 147.837 127.018C148.107 127.67 148.505 128.211 149.045 128.64C149.713 129.054 150.397 129.101 151.097 128.783C151.796 128.513 152.146 127.813 152.369 127.114C152.814 125.667 152.703 124.029 152.56 122.534C152.496 121.866 151.431 121.85 151.494 122.534C151.653 123.727 151.653 124.935 151.494 126.128C151.446 126.605 151.287 127.05 151.065 127.463C150.89 127.702 150.667 127.861 150.365 127.909C150.079 127.956 149.809 127.893 149.57 127.718C149.173 127.336 148.87 126.875 148.68 126.366C148.425 125.826 148.203 125.285 147.996 124.728C147.598 123.584 147.28 122.423 147.058 121.23C146.803 119.99 146.612 118.734 146.485 117.477C146.326 116.301 146.294 115.124 146.358 113.947C146.438 113.025 146.676 111.419 147.948 111.61C148.489 111.689 148.791 112.294 149.014 112.739C149.3 113.264 149.538 113.82 149.745 114.377C150.731 116.984 151.176 119.783 151.462 122.534C151.558 123.202 152.623 123.218 152.56 122.534Z" fill="white"/>
<path d="M147.323 113.777C147.657 114.27 147.928 114.795 148.134 115.351C148.357 115.94 148.564 116.528 148.755 117.116C149.152 118.293 149.454 119.502 149.693 120.726C149.82 121.394 150.838 121.108 150.71 120.44C150.456 119.136 150.122 117.832 149.693 116.576C149.279 115.351 148.866 114.047 148.071 113.03C147.816 112.775 147.562 112.775 147.323 113.03C147.085 113.268 147.085 113.523 147.323 113.777Z" fill="#FF7F00"/>
<path d="M150.097 122.849C150.145 123.072 150.177 123.294 150.209 123.517L150.241 123.676C150.241 123.692 150.241 123.724 150.241 123.74C150.241 123.851 150.256 123.978 150.272 124.089C150.32 124.535 150.352 124.98 150.368 125.425C150.384 125.759 150.574 125.918 150.892 125.918C151.21 125.918 151.385 125.759 151.417 125.425C151.401 124.455 151.29 123.501 151.099 122.547C151.004 122.213 150.781 122.086 150.447 122.181C150.129 122.293 150.002 122.499 150.097 122.833V122.849Z" fill="#FF7F00"/>
<path d="M110.289 147.664C110.909 146.678 112.452 146.965 113.294 147.76C114.153 148.539 114.646 149.652 115.552 150.367C117.349 151.767 119.925 151.099 122.104 150.415C130.961 147.601 140.041 145.502 149.025 143.116C150.265 142.798 151.553 142.449 152.587 141.701C153.636 140.954 154.431 139.714 154.304 138.441C154.845 139.841 155.226 141.272 155.449 142.751C155.545 143.419 155.815 145.47 155.529 146.09C154.479 148.443 151.442 148.968 149.248 149.716C143.348 151.687 137.258 153.134 131.263 154.772C127.24 155.853 123.042 157.364 118.812 157.189C118.192 157.189 117.588 157.062 117.031 156.792C115.282 155.853 115.314 153.389 114.662 151.496C113.946 149.525 112.595 148.221 110.607 147.569C110.766 147.458 110.925 147.458 111.1 147.537C111.275 147.617 111.37 147.76 111.386 147.95" fill="white"/>
<path d="M110.744 147.896C111.062 147.467 111.683 147.499 112.128 147.658C112.748 147.896 113.257 148.31 113.607 148.866C114.513 150.043 115.34 151.172 116.851 151.538C118.282 151.903 119.776 151.617 121.16 151.235C122.814 150.774 124.451 150.218 126.105 149.725C133.054 147.674 140.114 145.972 147.127 144.143C148.908 143.682 150.864 143.348 152.47 142.394C153.853 141.567 154.966 140.089 154.839 138.419L153.79 138.562C154.473 140.311 154.903 142.124 155.078 144C155.125 144.589 155.252 145.336 155.03 145.893C154.68 146.592 154.171 147.133 153.487 147.515C152.183 148.326 150.657 148.659 149.21 149.137C147.016 149.852 144.821 150.536 142.595 151.156C138.19 152.396 133.738 153.462 129.349 154.718C127.171 155.402 124.96 155.942 122.718 156.356C121.589 156.547 120.46 156.642 119.331 156.642C118.377 156.642 117.375 156.578 116.707 155.831C116.151 155.227 115.928 154.352 115.737 153.573C115.578 152.683 115.324 151.808 115.022 150.949C114.195 148.993 112.764 147.674 110.744 147.022L110.872 147.992C110.872 147.992 110.872 147.928 110.872 147.912C110.951 148.58 112.001 148.596 111.937 147.912C111.905 147.515 111.714 147.228 111.38 147.053C111.031 146.863 110.697 146.879 110.363 147.069C110.156 147.197 110.076 147.371 110.108 147.594C110.14 147.833 110.267 147.976 110.49 148.039C112.35 148.659 113.607 149.9 114.227 151.776C114.72 153.319 114.767 155.115 115.833 156.419C117.153 158.057 119.681 157.787 121.541 157.58C123.847 157.294 126.121 156.801 128.347 156.117C132.959 154.813 137.602 153.653 142.229 152.365C144.519 151.728 146.809 151.061 149.067 150.297C150.641 149.788 152.295 149.407 153.758 148.612C154.569 148.182 155.221 147.594 155.745 146.831C156.143 146.131 156.302 145.384 156.207 144.573C156.079 142.394 155.618 140.295 154.823 138.26C154.632 137.751 153.742 137.751 153.79 138.403C153.901 139.961 152.708 141.122 151.404 141.742C149.91 142.474 148.192 142.76 146.602 143.189C143.151 144.08 139.685 144.954 136.234 145.845C132.784 146.751 129.285 147.689 125.835 148.707C124.197 149.184 122.591 149.725 120.953 150.186C119.617 150.552 118.107 150.886 116.755 150.409C115.181 149.836 114.688 148.087 113.4 147.133C112.319 146.338 110.665 146.163 109.838 147.371C109.456 147.928 110.363 148.453 110.744 147.896Z" fill="white"/>
<path d="M155.086 154.733C157.137 165.037 159.077 175.357 160.906 185.693C161.16 187.076 161.462 188.476 161.621 189.875C161.701 190.59 161.796 191.878 160.954 192.181L161.542 192.419C161.462 192.228 161.494 192.053 161.606 191.878C161.717 191.704 161.876 191.624 162.083 191.624L161.574 191.242C161.78 191.847 161.844 192.483 161.78 193.135C161.749 193.437 161.669 193.739 161.574 194.041C161.526 194.184 161.462 194.343 161.399 194.486C161.367 194.55 161.335 194.598 161.303 194.661C161.828 195.075 161.796 195.313 161.224 195.361L160.906 195.122C160.874 194.995 160.858 195.011 160.874 195.186V195.472C160.874 195.663 160.874 195.854 160.842 196.045C160.826 196.426 160.779 196.808 160.699 197.174C160.556 197.937 160.333 198.668 160.047 199.384C159.427 200.815 158.552 202.055 157.408 203.105C156.915 203.566 157.662 204.313 158.155 203.852C160.079 202.071 161.287 199.893 161.765 197.317C161.86 196.744 162.432 193.977 161.176 194.327C160.954 194.407 160.795 194.55 160.715 194.773C160.62 194.995 160.636 195.202 160.731 195.409C161.081 195.997 161.812 195.727 162.146 195.297C163.021 194.136 163.021 192.276 162.607 190.94C162.528 190.702 162.369 190.559 162.098 190.559C161.812 190.559 161.558 190.638 161.303 190.781C161.065 190.924 160.858 191.115 160.715 191.354C160.572 191.592 160.492 191.863 160.477 192.149C160.477 192.419 160.524 192.689 160.651 192.944C160.795 193.182 161.001 193.262 161.256 193.182C163.355 192.435 162.703 189.684 162.416 188.046C161.939 185.343 161.447 182.64 160.969 179.937C159.984 174.482 158.966 169.028 157.916 163.59C157.328 160.537 156.74 157.484 156.12 154.447C155.992 153.779 154.975 154.065 155.102 154.733H155.086Z" fill="#EDEDED"/>
<path d="M154.989 206.2C155.307 206.168 155.482 205.993 155.482 205.675C155.482 205.341 155.307 205.167 154.989 205.135C154.671 205.167 154.512 205.341 154.512 205.675C154.512 205.993 154.671 206.168 154.989 206.2Z" fill="#EDEDED"/>
<path d="M152.88 206.469H152.689C152.625 206.469 152.562 206.485 152.498 206.516C152.434 206.548 152.371 206.58 152.323 206.628C152.228 206.739 152.18 206.85 152.164 206.993L152.18 207.137C152.212 207.232 152.259 207.296 152.323 207.375L152.434 207.455C152.514 207.502 152.593 207.518 152.689 207.518H152.88C153.023 207.518 153.15 207.455 153.245 207.375C153.341 207.264 153.388 207.153 153.404 207.009L153.388 206.866C153.357 206.771 153.309 206.691 153.245 206.628L153.134 206.548C153.055 206.501 152.959 206.469 152.864 206.469H152.88Z" fill="#EDEDED"/>
<path d="M150.208 208.882C150.541 208.85 150.7 208.675 150.7 208.341C150.7 208.023 150.541 207.848 150.208 207.816C149.889 207.848 149.73 208.023 149.73 208.341C149.73 208.675 149.889 208.85 150.208 208.882Z" fill="#EDEDED"/>
<path d="M115.114 156.252C115.687 157.381 116.609 158.08 117.833 158.366C119.28 158.748 120.759 158.478 122.159 158.144C125.323 157.396 128.471 156.601 131.604 155.822C137.853 154.264 144.087 152.642 150.209 150.622C151.64 150.145 153.151 149.7 154.454 148.889C155.265 148.38 157.348 146.774 155.901 145.82C155.329 145.439 154.82 146.361 155.361 146.742C155.218 146.647 155.313 146.679 155.218 146.838C155.154 146.933 155.075 147.029 154.979 147.124C154.772 147.331 154.566 147.522 154.327 147.697C153.818 148.062 153.278 148.364 152.689 148.603C151.449 149.112 150.193 149.557 148.905 149.923C146.186 150.797 143.435 151.608 140.668 152.372C135.055 153.914 129.41 155.282 123.765 156.665C121.443 157.222 117.372 158.621 116.005 155.711C115.703 155.091 114.796 155.631 115.082 156.252H115.114Z" fill="#EDEDED"/>
<mask id="mask1_1143_10587" style="mask-type:luminance" maskUnits="userSpaceOnUse" x="215" y="0" width="131" height="96">
<path d="M215.375 0.655273H345.003V95.1098H215.375V0.655273Z" fill="white"/>
</mask>
<g mask="url(#mask1_1143_10587)">
<path d="M339.192 8.11311C336.489 3.45399 331.193 1.92745 326.153 1.40271C323.275 1.11648 320.365 1.08468 317.47 1.02107C313.781 0.909762 310.076 0.846158 306.387 0.798453C291.44 0.655341 276.493 1.05287 261.609 2.69072C254.517 3.40629 247.472 4.50349 240.492 5.96642C234.672 7.22263 228.709 9.1785 224.336 13.4242C219.534 18.0833 217.928 24.8573 217.355 31.2974C216.703 38.8029 217.435 46.3401 217.228 53.8615C217.069 60.2221 216.799 67.0438 220.997 72.3072C222.682 74.3902 224.733 75.9963 227.166 77.1412C229.583 78.302 232.128 78.8586 234.815 78.8586C236.103 78.8268 237.359 78.6518 238.599 78.3179L238.011 77.5387C235.483 81.9116 232.939 86.2845 230.41 90.6256C230.315 90.8005 230.315 90.9754 230.41 91.1504C230.506 91.3253 230.665 91.4207 230.871 91.4207C236.135 91.373 239.776 87.016 243.879 84.3445C246.407 82.7226 249.158 81.8639 252.147 81.7526C255.137 81.5777 258.126 81.8798 261.116 82.0865C271.913 82.8021 282.758 83.3587 293.602 83.4541C299.136 83.5018 304.686 83.4541 310.219 83.136C315.292 82.8657 320.412 82.4205 325.389 81.4028C328.268 80.7985 331.193 79.8603 333.61 78.1112C335.868 76.4097 337.618 74.2789 338.858 71.7347C340.082 69.1905 341.021 66.5508 341.688 63.7999C342.579 60.3811 343.279 56.9146 343.756 53.4004C344.694 46.5946 344.9 39.7569 344.392 32.9034C344.137 29.4369 343.708 26.0022 343.135 22.5834C342.611 19.1646 341.879 15.7776 340.973 12.4383C340.559 10.9277 339.971 9.48063 339.208 8.09721C338.89 7.50886 337.967 8.0336 338.301 8.63786C339.923 11.5478 340.559 14.903 341.243 18.131C341.959 21.518 342.515 24.9368 342.913 28.3874C343.724 35.1614 343.835 41.9513 343.247 48.7572C342.945 52.2078 342.436 55.6266 341.736 59.0295C341.148 62.0984 340.337 65.1197 339.303 68.0933C338.349 70.6693 337.093 73.2135 335.216 75.2648C333.261 77.4433 330.7 78.8108 327.934 79.6536C325.246 80.4169 322.511 80.9416 319.729 81.2438C317.359 81.5459 314.958 81.7685 312.573 81.9275C307.166 82.2933 301.792 82.4046 296.385 82.4046C285.604 82.4046 274.807 81.8957 264.042 81.1961C261.482 81.037 258.906 80.8303 256.33 80.7031C253.276 80.5441 250.128 80.5918 247.186 81.5459C244.706 82.3569 242.591 83.8834 240.539 85.4735C238.584 87.0001 236.628 88.6697 234.322 89.6238C233.225 90.1009 232.08 90.3394 230.887 90.3553L231.348 91.1504C233.877 86.7934 236.421 82.4364 238.949 78.0794C239.061 77.8727 239.045 77.6818 238.902 77.491C238.758 77.3002 238.584 77.2366 238.361 77.3002C233.336 78.62 227.834 77.1253 223.922 73.7701C221.839 72.0209 220.345 69.8583 219.422 67.2823C218.309 64.0702 218.182 60.6673 218.23 57.3121C218.293 53.782 218.405 50.2519 218.325 46.7218C218.261 43.0644 218.118 39.4071 218.214 35.7498C218.373 29.2461 219.136 22.1223 222.984 16.6522C226.451 11.6909 232.239 9.1626 237.9 7.66787C240.921 6.8728 243.99 6.31625 247.075 5.7756C250.653 5.17134 254.262 4.6307 257.872 4.18546C272.167 2.4045 286.574 1.83205 300.965 1.83205C307.977 1.83205 314.99 1.95926 322.002 2.19778C326.725 2.35679 332.227 2.67482 335.996 5.87101C336.934 6.66608 337.697 7.58836 338.301 8.63786C338.492 8.82868 338.715 8.86047 338.953 8.71736C339.192 8.57425 339.271 8.38343 339.192 8.11311Z" fill="#A2A8A8"/>
</g>
<path d="M317.994 111.154C316.674 107.115 312.031 105.89 308.373 105.032C293.14 101.454 277.223 98.369 261.544 98.1623C257.219 98.1146 252.544 98.3531 248.902 100.977C246.517 102.694 244.99 105.366 243.973 108.133C242.223 112.839 241.762 117.928 240.681 122.841C239.981 125.99 239.011 129.202 239.616 132.382C240.506 137.073 245.197 140.699 249.952 140.397C247.916 142.686 245.881 144.976 243.845 147.266C247.312 147.966 250.349 144.928 253.8 144.149C256.535 143.513 259.365 144.356 262.084 145.103C272.134 147.87 288.481 152.068 298.896 152.625C301.552 152.768 304.319 152.8 306.704 151.639C309.518 150.255 311.315 147.425 312.699 144.626C317.374 135.133 319.027 124.94 318.566 114.429C318.519 113.316 318.328 112.219 317.994 111.154Z" fill="#EDEDED"/>
<path d="M318.515 111.014C317.466 107.929 314.62 106.323 311.678 105.369C310.072 104.845 308.402 104.495 306.748 104.113C304.538 103.604 302.344 103.111 300.133 102.634C291.229 100.726 282.228 99.1359 273.149 98.2932C268.76 97.8479 264.355 97.6412 259.935 97.6571C256.166 97.7048 252.191 98.15 248.994 100.281C245.782 102.428 243.97 106.101 242.856 109.742C241.568 113.956 241.107 118.345 240.169 122.638C239.279 126.645 238.007 130.939 239.883 134.882C240.63 136.393 241.68 137.681 243.016 138.715C244.351 139.748 245.862 140.432 247.516 140.782C248.311 140.925 249.122 140.988 249.933 140.941L249.567 140.034C247.532 142.324 245.512 144.614 243.477 146.904C243.334 147.047 243.286 147.206 243.334 147.413C243.397 147.603 243.508 147.731 243.699 147.794C247.198 148.446 249.996 145.902 253.129 144.9C256.738 143.724 260.571 145.266 264.053 146.204C270.509 147.953 276.997 149.591 283.532 150.927C286.84 151.611 290.147 152.199 293.487 152.644C294.965 152.835 296.444 153.01 297.923 153.105C299.72 153.28 301.501 153.296 303.282 153.137C305.111 152.978 306.78 152.374 308.275 151.324C309.658 150.275 310.803 149.003 311.694 147.508C312.648 145.966 313.475 144.36 314.19 142.674C314.969 140.877 315.669 139.033 316.273 137.156C317.45 133.451 318.261 129.667 318.706 125.803C319.199 121.859 319.311 117.916 319.056 113.956C318.993 112.954 318.818 111.968 318.531 111.014C318.325 110.362 317.291 110.649 317.514 111.301C318.118 113.209 318.086 115.26 318.102 117.248C318.118 119.172 318.07 121.08 317.927 123.004C317.657 126.836 317.021 130.605 316.019 134.326C315.033 138.031 313.666 141.593 311.916 145.012C310.358 148.017 308.259 150.895 304.824 151.786C302.996 152.263 301.072 152.231 299.195 152.135C297.796 152.056 296.397 151.945 294.997 151.77C291.785 151.404 288.605 150.847 285.441 150.227C278.905 148.955 272.433 147.349 265.993 145.632C264.594 145.266 263.194 144.884 261.795 144.487C259.887 143.962 257.931 143.421 255.927 143.406C254.083 143.39 252.413 143.93 250.759 144.725C249.297 145.425 247.85 146.284 246.259 146.681C245.496 146.872 244.733 146.904 243.97 146.761L244.208 147.651C246.243 145.361 248.263 143.072 250.298 140.782C250.457 140.623 250.505 140.432 250.41 140.225C250.33 140.003 250.171 139.891 249.949 139.875C248.342 139.939 246.8 139.621 245.353 138.921C243.906 138.222 242.697 137.22 241.759 135.916C240.726 134.533 240.137 132.99 239.994 131.273C239.819 129.11 240.265 126.948 240.758 124.849C241.219 122.797 241.648 120.762 242.014 118.711C242.379 116.659 242.729 114.529 243.238 112.445C244.097 108.836 245.369 104.988 248.12 102.348C250.871 99.7084 254.639 98.9451 258.249 98.7702C262.352 98.5635 266.486 98.8179 270.557 99.12C279.287 99.8038 287.953 101.203 296.54 102.968C300.674 103.811 304.793 104.717 308.895 105.703C311.598 106.355 314.667 107.198 316.48 109.44C316.941 109.997 317.275 110.617 317.498 111.301C317.704 111.937 318.722 111.666 318.5 111.014H318.515Z" fill="#EDEDED"/>
<path d="M318.515 111.014C317.466 107.929 314.62 106.323 311.678 105.369C310.072 104.845 308.402 104.495 306.748 104.113C304.538 103.604 302.344 103.111 300.133 102.634C291.229 100.726 282.228 99.1359 273.149 98.2932C268.76 97.8479 264.355 97.6412 259.935 97.6571C256.166 97.7048 252.191 98.15 248.994 100.281C245.782 102.428 243.97 106.101 242.856 109.742C241.568 113.956 241.107 118.345 240.169 122.638C239.279 126.645 238.007 130.939 239.883 134.882C240.63 136.393 241.68 137.681 243.016 138.715C244.351 139.748 245.862 140.432 247.516 140.782C248.311 140.925 249.122 140.988 249.933 140.941L249.567 140.034C247.532 142.324 245.512 144.614 243.477 146.904C243.334 147.047 243.286 147.206 243.334 147.413C243.397 147.603 243.508 147.731 243.699 147.794C247.198 148.446 249.996 145.902 253.129 144.9C256.738 143.724 260.571 145.266 264.053 146.204C270.509 147.953 276.997 149.591 283.532 150.927C286.84 151.611 290.147 152.199 293.487 152.644C294.965 152.835 296.444 153.01 297.923 153.105C299.72 153.28 301.501 153.296 303.282 153.137C305.111 152.978 306.78 152.374 308.275 151.324C309.658 150.275 310.803 149.003 311.694 147.508C312.648 145.966 313.475 144.36 314.19 142.674C314.969 140.877 315.669 139.033 316.273 137.156C317.45 133.451 318.261 129.667 318.706 125.803C319.199 121.859 319.311 117.916 319.056 113.956C318.993 112.954 318.818 111.968 318.531 111.014C318.325 110.362 317.291 110.649 317.514 111.301C318.118 113.209 318.086 115.26 318.102 117.248C318.118 119.172 318.07 121.08 317.927 123.004C317.657 126.836 317.021 130.605 316.019 134.326C315.033 138.031 313.666 141.593 311.916 145.012C310.358 148.017 308.259 150.895 304.824 151.786C302.996 152.263 301.072 152.231 299.195 152.135C297.796 152.056 296.397 151.945 294.997 151.77C291.785 151.404 288.605 150.847 285.441 150.227C278.905 148.955 272.433 147.349 265.993 145.632C264.594 145.266 263.194 144.884 261.795 144.487C259.887 143.962 257.931 143.421 255.927 143.406C254.083 143.39 252.413 143.93 250.759 144.725C249.297 145.425 247.85 146.284 246.259 146.681C245.496 146.872 244.733 146.904 243.97 146.761L244.208 147.651C246.243 145.361 248.263 143.072 250.298 140.782C250.457 140.623 250.505 140.432 250.41 140.225C250.33 140.003 250.171 139.891 249.949 139.875C248.342 139.939 246.8 139.621 245.353 138.921C243.906 138.222 242.697 137.22 241.759 135.916C240.726 134.533 240.137 132.99 239.994 131.273C239.819 129.11 240.265 126.948 240.758 124.849C241.219 122.797 241.648 120.762 242.014 118.711C242.379 116.659 242.729 114.529 243.238 112.445C244.097 108.836 245.369 104.988 248.12 102.348C250.871 99.7084 254.639 98.9451 258.249 98.7702C262.352 98.5635 266.486 98.8179 270.557 99.12C279.287 99.8038 287.953 101.203 296.54 102.968C300.674 103.811 304.793 104.717 308.895 105.703C311.598 106.355 314.667 107.198 316.48 109.44C316.941 109.997 317.275 110.617 317.498 111.301C317.704 111.937 318.722 111.666 318.5 111.014H318.515Z" fill="#FF7F00"/>
<path d="M272.023 33.6367C271.943 32.3805 271.975 31.1243 272.134 29.8681L271.975 30.9971C272.134 29.8204 272.436 28.6914 272.881 27.5783L272.452 28.596C272.834 27.7055 273.311 26.8786 273.899 26.1153L273.231 26.974C273.788 26.2585 274.44 25.6065 275.155 25.0499L274.297 25.7019C275.203 25.0181 276.189 24.4457 277.238 24.0005L276.221 24.4298C277.222 24.0164 278.272 23.7301 279.337 23.5552L278.224 23.7142C279.194 23.587 280.18 23.587 281.166 23.7142L280.037 23.5552C280.959 23.6983 281.866 23.9368 282.74 24.3026L281.722 23.8732C282.613 24.2549 283.44 24.7319 284.219 25.3203L283.36 24.6524C284.219 25.3362 284.982 26.0994 285.65 26.974L284.998 26.1153C285.698 27.0376 286.27 28.0394 286.731 29.1048L286.302 28.103C286.811 29.3115 287.161 30.5677 287.336 31.8717L287.193 30.7586C287.352 32.0148 287.352 33.2869 287.193 34.559L287.336 33.43C287.161 34.718 286.827 35.9583 286.318 37.1509L286.747 36.1491C286.302 37.1668 285.746 38.1209 285.078 39.0114L285.746 38.1527C284.839 39.2817 283.821 40.2835 282.677 41.1581L283.535 40.4902C281.881 41.7146 280.18 42.8277 278.399 43.8295C275.394 45.6105 272.961 48.5523 272.961 52.2096C272.977 53.3704 273.39 54.3722 274.201 55.1991C275.028 56.0259 276.03 56.4394 277.191 56.4394C279.48 56.344 281.436 54.5789 281.42 52.2096C281.42 52.0188 281.436 51.8439 281.452 51.6689L281.293 52.7979C281.357 52.4481 281.436 52.0983 281.579 51.7802L281.15 52.782C281.325 52.3686 281.548 51.987 281.834 51.6212L281.166 52.4799C281.532 52.0029 281.961 51.5894 282.438 51.2078L281.579 51.8757C282.518 51.2237 283.472 50.6194 284.458 50.0788C285.364 49.5222 286.27 48.9498 287.129 48.3137C289.355 46.7713 291.247 44.8949 292.822 42.6846C294.332 40.3948 295.255 37.8665 295.573 35.1315C295.938 32.5395 295.763 29.9794 295.048 27.467C294.285 24.9227 293.044 22.6329 291.327 20.5975C290.484 19.6276 289.53 18.7689 288.496 18.0215C287.733 17.4491 286.922 16.9561 286.064 16.5745C284.871 16.0179 283.631 15.6204 282.343 15.3978C281.023 15.1593 279.687 15.0957 278.335 15.2388C276.904 15.366 275.521 15.684 274.169 16.1929C272.818 16.7017 271.53 17.3537 270.337 18.1805C268.206 19.7389 266.33 21.6788 265.249 24.1277C264.692 25.3203 264.263 26.5765 263.976 27.8645C263.706 29.232 263.563 30.5995 263.531 31.983C263.531 32.5395 263.531 33.0961 263.579 33.6526C263.611 34.7975 264.024 35.7993 264.819 36.6421C265.217 37.0396 265.678 37.3418 266.187 37.5644C266.712 37.7711 267.252 37.8824 267.809 37.8824C268.365 37.8824 268.906 37.7711 269.431 37.5644C269.955 37.3418 270.401 37.0396 270.798 36.6421C271.53 35.847 272.118 34.7657 272.039 33.6526L272.023 33.6367Z" fill="#A2A8A8"/>
<path d="M276.824 69.8036C277.984 69.7877 278.986 69.3742 279.829 68.5633C280.64 67.7364 281.053 66.7346 281.053 65.5579C280.958 63.2681 279.209 61.3281 276.824 61.3281C275.663 61.344 274.677 61.7575 273.834 62.5684C273.023 63.3953 272.61 64.3971 272.594 65.5579C272.705 67.8636 274.454 69.8036 276.824 69.8036Z" fill="#A2A8A8"/>
<path d="M274.985 119.209C275.08 118.589 275.208 117.985 275.398 117.381C275.446 117.254 275.494 117.11 275.541 116.999C275.573 116.92 275.605 116.856 275.621 116.776C275.621 116.808 275.398 117.269 275.541 116.967C275.7 116.665 275.812 116.427 275.971 116.172C276.034 116.061 276.114 115.95 276.193 115.838C276.448 115.441 275.923 116.125 276.162 115.87C276.352 115.647 276.543 115.425 276.766 115.234C276.925 115.091 277.291 114.9 276.766 115.202C276.877 115.139 276.988 115.043 277.1 114.98C277.354 114.805 277.64 114.677 277.911 114.518C278.181 114.375 277.481 114.693 277.736 114.598C277.799 114.598 277.847 114.55 277.911 114.534C278.07 114.471 278.229 114.423 278.388 114.375C278.722 114.28 279.056 114.248 279.374 114.169C279.342 114.169 278.817 114.216 279.167 114.185H279.342C279.485 114.185 279.612 114.169 279.755 114.169C280.042 114.169 280.344 114.2 280.63 114.216C279.978 114.216 280.391 114.185 280.598 114.216C280.725 114.232 280.837 114.264 280.964 114.296C281.075 114.328 281.202 114.359 281.33 114.407L281.52 114.471C281.87 114.598 281.155 114.296 281.33 114.391C281.52 114.503 281.791 114.614 282.013 114.757C282.109 114.821 282.204 114.884 282.3 114.948C282.395 115.011 282.411 115.027 282.459 115.059C282.665 115.202 282.061 114.725 282.315 114.948C282.49 115.107 282.665 115.25 282.824 115.425C282.92 115.52 282.999 115.616 283.095 115.727C283.126 115.775 283.174 115.822 283.222 115.87C283.19 115.854 282.904 115.457 283.063 115.679C283.365 116.124 283.619 116.57 283.858 117.047C283.969 117.269 283.683 116.586 283.762 116.824C283.778 116.888 283.81 116.967 283.826 117.031C283.858 117.094 283.906 117.254 283.953 117.365C284.033 117.635 284.096 117.905 284.16 118.176C284.176 118.303 284.192 118.414 284.224 118.542C284.271 118.796 284.16 118.033 284.192 118.303C284.192 118.367 284.192 118.43 284.208 118.51C284.24 118.796 284.24 119.082 284.24 119.368C284.24 119.639 284.176 119.909 284.176 120.179C284.176 120.211 284.271 119.655 284.224 119.877C284.224 119.957 284.192 120.02 284.176 120.1C284.16 120.243 284.128 120.386 284.096 120.529C284.033 120.8 283.953 121.07 283.858 121.34C283.81 121.483 283.747 121.61 283.699 121.77C283.699 121.77 283.906 121.308 283.794 121.531C283.731 121.626 283.699 121.738 283.635 121.849C283.492 122.135 283.333 122.421 283.142 122.692L283.031 122.851C282.84 123.137 283.111 122.755 283.142 122.724C283.015 122.851 282.904 123.01 282.777 123.137C282.57 123.36 282.363 123.566 282.141 123.757C282.093 123.805 282.045 123.837 281.997 123.868C281.807 124.059 282.363 123.614 282.141 123.757C281.997 123.853 281.854 123.964 281.711 124.059C281.139 124.425 280.519 124.664 279.914 124.997L280.073 124.934L279.851 125.029L279.326 125.22C278.992 125.347 278.658 125.475 278.308 125.586C277.386 125.856 276.511 126.27 275.732 126.826C274.81 127.478 274.222 128.353 273.935 129.45C273.713 130.531 274.269 131.787 275.414 132.058C276.496 132.296 277.768 131.74 278.022 130.579C278.022 130.499 278.07 130.404 278.086 130.324C278.149 130.006 278.054 130.452 278.006 130.499C277.958 130.531 278.133 130.293 278.133 130.277C278.165 130.388 277.831 130.643 278.038 130.42C278.102 130.34 278.372 130.15 278.388 130.054C278.34 130.229 278.038 130.293 278.276 130.165C278.388 130.086 278.499 130.022 278.61 129.959L278.785 129.879C279.024 129.736 278.372 130.022 278.642 129.927L279.119 129.768L280.153 129.402C281.552 128.957 282.872 128.321 284.112 127.51C285.432 126.572 286.482 125.395 287.245 123.964C287.992 122.549 288.406 121.022 288.437 119.4C288.517 116.713 287.436 113.819 285.384 112.038C284.462 111.243 283.397 110.654 282.236 110.305C281.059 109.955 279.851 109.859 278.642 110.002C277.418 110.161 276.289 110.543 275.239 111.163C274.174 111.799 273.299 112.61 272.584 113.612C271.661 114.964 271.105 116.458 270.898 118.096C270.755 118.669 270.835 119.209 271.105 119.718C271.407 120.211 271.821 120.545 272.377 120.704C273.379 120.927 274.81 120.386 274.969 119.209H274.985Z" fill="#A2A8A8"/>
<path d="M274.232 139.469C274.82 139.469 275.313 139.263 275.727 138.833C276.14 138.42 276.347 137.927 276.347 137.339C276.347 136.75 276.14 136.257 275.727 135.844C275.313 135.43 274.82 135.224 274.232 135.224C273.644 135.224 273.151 135.43 272.737 135.844C272.324 136.257 272.117 136.75 272.117 137.339C272.117 137.927 272.324 138.42 272.737 138.833C273.151 139.247 273.644 139.453 274.232 139.469Z" fill="#A2A8A8"/>
<mask id="mask2_1143_10587" style="mask-type:luminance" maskUnits="userSpaceOnUse" x="0" y="70" width="37" height="50">
<path d="M0 70.6826H36.2553V119.532H0V70.6826Z" fill="white"/>
</mask>
<g mask="url(#mask2_1143_10587)">
<path d="M5.53194 71.6803C3.28984 75.6556 1.95412 79.9013 1.50888 84.4491C1.07954 88.981 1.57248 93.4175 3.01951 97.7427C3.71917 99.8894 4.65736 101.909 5.84996 103.817C7.02667 105.662 8.58501 107.379 10.5727 108.349C12.5763 109.319 14.8502 109.573 16.8856 108.699C18.9209 107.824 20.2408 105.98 21.2107 104.071C22.8486 100.732 23.596 95.4688 19.9068 93.179C19.6047 93.02 19.3662 93.0836 19.1913 93.3698C16.7583 96.6614 16.2972 101.13 17.5534 104.994C18.8096 108.905 21.8309 112.006 25.4723 113.787C27.619 114.821 29.877 115.425 32.2463 115.584C32.9301 115.632 32.9301 114.582 32.2463 114.535C28.2392 114.28 24.7727 112.754 21.8468 109.987C20.4793 108.651 19.4616 107.093 18.7778 105.312C18.0941 103.515 17.8237 101.67 17.951 99.7622C18.0941 97.6155 18.8096 95.6596 20.0817 93.9104L19.3503 94.1013C22.2761 95.914 21.7196 100.176 20.5747 102.879C19.8432 104.644 18.7301 106.473 17.0446 107.458C15.2795 108.492 13.0533 108.333 11.2405 107.49C9.42778 106.647 7.94895 105.089 6.83585 103.404C5.70685 101.623 4.78457 99.7304 4.11671 97.7268C2.74918 93.7832 2.20854 89.7125 2.47886 85.5463C2.76509 80.7918 4.08491 76.3553 6.43832 72.2209C6.58143 71.9347 6.51782 71.7121 6.2316 71.5371C5.94538 71.3781 5.70685 71.4258 5.53194 71.6962V71.6803Z" fill="#FF7F00"/>
</g>
<path d="M33.8407 45.0093L48.3905 66.1582L52.5249 72.1689C52.9065 72.7255 53.8288 72.2007 53.4313 71.6283L38.8974 50.4794L34.763 44.4845C34.3813 43.9121 33.4591 44.4527 33.8407 45.0093Z" fill="#FF7F00"/>
<path d="M74.2584 25.507C75.133 33.9507 76.739 42.2512 79.0925 50.4246C79.7603 52.7303 80.4759 55.0201 81.255 57.294C81.4777 57.9459 82.4954 57.6597 82.2727 57.0237C79.5377 49.057 77.5182 40.9155 76.2143 32.5991C75.8486 30.2457 75.5464 27.8763 75.292 25.4911C75.2284 24.8233 74.163 24.8233 74.2425 25.4911L74.2584 25.507Z" fill="#FF7F00"/>
<path d="M123.825 14.4221C121.933 24.2492 119.834 34.0286 117.513 43.7602C116.861 46.4953 116.193 49.2462 115.509 51.9813C115.35 52.6332 116.368 52.9195 116.527 52.2516C118.96 42.5517 121.186 32.8042 123.189 23.0089C123.762 20.242 124.302 17.4752 124.843 14.7083C124.97 14.0405 123.953 13.7543 123.825 14.4221Z" fill="#FF7F00"/>
<path d="M158.95 15.6671C163.37 13.7748 168.777 16.0169 171.289 19.9128C174.295 24.5083 173.786 30.5985 171.242 35.2735C169.906 37.6747 168.205 39.7895 166.137 41.5864C165.136 42.5087 164.07 43.3515 162.941 44.1147C161.955 44.7985 160.429 45.9116 159.236 45.1165C158.473 44.6077 158.346 43.5423 158.473 42.6995C158.664 41.65 159.157 40.7913 159.968 40.1076C161.621 38.6605 164.022 38.2153 166.153 38.581C171.305 39.4874 173.993 44.719 174.342 49.553C174.501 52.2086 174.136 54.8005 173.245 57.3129C172.355 59.8253 171.019 62.0674 169.222 64.0233C167.425 65.9951 164.977 68.0464 162.226 68.3644C160.938 68.5552 159.777 68.2372 158.775 67.4103C157.98 66.7107 157.376 65.6771 157.439 64.5958C157.598 62.0992 161.112 61.336 163.068 61.0338C165.263 60.6681 167.712 60.7794 169.715 61.8448C170.701 62.3537 171.48 63.0851 172.069 64.0392C172.768 65.2954 173.086 66.647 173.054 68.0941C173.07 70.7814 172.45 73.5006 171.639 76.0607C169.556 82.6121 165.835 88.0345 160.476 92.312C159.952 92.7413 160.699 93.4887 161.224 93.0752C165.915 89.2748 169.397 84.5998 171.671 79.0025C172.8 76.2674 173.563 73.4211 173.945 70.4793C174.311 67.5852 174.136 64.3731 171.957 62.1787C170.176 60.366 167.553 59.7458 165.088 59.7776C163.8 59.7935 162.512 59.9685 161.256 60.3024C159.968 60.6363 158.616 61.1134 157.614 62.0515C155.515 63.9756 156.422 67.0128 158.521 68.5075C161.081 70.3521 164.499 69.1277 166.837 67.5057C171.623 64.1505 174.724 58.585 175.344 52.781C175.901 47.4858 174.152 40.9344 169 38.3902C166.646 37.1976 164.197 37.0386 161.701 37.8814C159.459 38.6923 157.519 40.521 157.376 43.0175C157.312 44.0988 157.646 45.2278 158.521 45.9116C159.777 46.8339 161.367 46.3409 162.575 45.6095C165.167 44.0352 167.441 42.0793 169.397 39.7577C173.277 35.2258 175.456 29.1197 173.865 23.1885C173.166 20.4057 171.671 18.1318 169.397 16.3667C167.25 14.7289 164.833 13.9179 162.13 13.9338C160.842 13.9656 159.618 14.236 158.425 14.7448C157.805 15.0151 158.346 15.9215 158.966 15.6671H158.95Z" fill="#FF7F00"/>
</svg>
