<svg width="28" height="28" viewBox="0 0 28 28" fill="none" xmlns="http://www.w3.org/2000/svg">
<g clip-path="url(#clip0_1983_10517)">
<path d="M14 17.5C16.4162 17.5 18.375 15.5412 18.375 13.125C18.375 10.7088 16.4162 8.75 14 8.75C11.5838 8.75 9.625 10.7088 9.625 13.125C9.625 15.5412 11.5838 17.5 14 17.5Z" stroke="black" stroke-width="2" stroke-linecap="round" stroke-linejoin="round"/>
<path d="M11.375 3.82737C13.0965 3.38046 14.9035 3.38046 16.625 3.82737" stroke="black" stroke-width="2" stroke-linecap="round" stroke-linejoin="round"/>
<path d="M3.88184 11.1863C4.35582 9.47238 5.25933 7.90781 6.50684 6.64062" stroke="black" stroke-width="2" stroke-linecap="round" stroke-linejoin="round"/>
<path d="M16.625 24.1719C14.9035 24.6188 13.0965 24.6188 11.375 24.1719" stroke="black" stroke-width="2" stroke-linecap="round" stroke-linejoin="round"/>
<path d="M21.4932 6.64062C22.741 7.90842 23.6445 9.47378 24.1182 11.1884" stroke="black" stroke-width="2" stroke-linecap="round" stroke-linejoin="round"/>
<path d="M24.1196 16.8125C23.5837 18.7385 22.5091 20.4714 21.0221 21.8077C20.3638 20.5109 19.3592 19.4218 18.1198 18.6611C16.8804 17.9003 15.4545 17.4976 14.0002 17.4976C12.546 17.4976 11.1201 17.9003 9.88067 18.6611C8.64125 19.4218 7.6367 20.5109 6.97836 21.8077C5.49139 20.4714 4.41678 18.7385 3.88086 16.8125" stroke="black" stroke-width="2" stroke-linecap="round" stroke-linejoin="round"/>
</g>
<defs>
<clipPath id="clip0_1983_10517">
<rect width="28" height="28" fill="white"/>
</clipPath>
</defs>
</svg>
