<svg xmlns="http://www.w3.org/2000/svg" viewBox="0 0 1271.61 287.75"><circle cx="143.88" cy="143.88" r="143.88" style="fill:#24b2b4"/><path d="M232.81,146.75c-9.48-13.88-26.26-14.94-28.41-15l-57.33.08,22.37-27.33h-24.6a19.82,19.82,0,0,0-15.35,7.29l-26.16,32.13L129.49,176a19.82,19.82,0,0,0,15.35,7.29h24.6L147,155.87c31.64,0,53.82.1,57.24.17a10.5,10.5,0,0,1,4.68,1.1,10.22,10.22,0,0,1,3.86,3.4,9.94,9.94,0,0,1,1.14,9.3,73.07,73.07,0,0,1-67.86,46.67A72.63,72.63,0,1,1,191.25,87h0a21.26,21.26,0,0,0-8.6-32.92A97.11,97.11,0,0,0,49.12,141.53a97,97,0,0,0,187.5,37C238.58,173.44,241.34,159.24,232.81,146.75Z" style="fill:#fff"/><path d="M419.6,125.22a20.9,20.9,0,0,0-8.91-8.75,29.19,29.19,0,0,0-13.67-3q-13.57,0-21.76,8.92t-8.18,23.81q0,15.87,8.59,24.79t23.64,8.91q10.32,0,17.43-5.23t10.39-15.06H391.62V139h60.87v26a54.72,54.72,0,0,1-10.55,19.47A55.71,55.71,0,0,1,423,199a58.43,58.43,0,0,1-25.85,5.56q-17,0-30.36-7.44a53.16,53.16,0,0,1-20.78-20.7q-7.44-13.26-7.44-30.27t7.44-30.36A53.16,53.16,0,0,1,366.75,95Q380,87.59,397,87.59q20.63,0,34.77,10t18.74,27.65Z" style="fill:#24b2b4"/><path d="M553.61,164.82H490.29q.65,8.51,5.48,13a16.74,16.74,0,0,0,11.86,4.5q10.47,0,14.57-8.84H552A41.16,41.16,0,0,1,528.74,201a48,48,0,0,1-20.12,4.09,48.94,48.94,0,0,1-23.89-5.73A40.67,40.67,0,0,1,468.36,183q-5.88-10.64-5.89-24.87t5.81-24.87a40.21,40.21,0,0,1,16.28-16.36,53,53,0,0,1,47.62-.17,40,40,0,0,1,16.12,15.87q5.81,10.32,5.8,24.06A70.8,70.8,0,0,1,553.61,164.82Zm-28.14-15.55a14.41,14.41,0,0,0-4.91-11.45,18.09,18.09,0,0,0-12.27-4.25,17.69,17.69,0,0,0-11.86,4.09q-4.83,4.09-6,11.61Z" style="fill:#24b2b4"/><path d="M654.41,164.82H591.08q.66,8.51,5.48,13a16.77,16.77,0,0,0,11.87,4.5q10.47,0,14.56-8.84h29.78a40.92,40.92,0,0,1-8.26,16.2,41.43,41.43,0,0,1-15,11.29,48.06,48.06,0,0,1-20.13,4.09,48.94,48.94,0,0,1-23.89-5.73A40.64,40.64,0,0,1,569.16,183q-5.89-10.64-5.89-24.87t5.81-24.87a40.15,40.15,0,0,1,16.28-16.36,53,53,0,0,1,47.61-.17,40,40,0,0,1,16.12,15.87q5.8,10.32,5.81,24.06A73.11,73.11,0,0,1,654.41,164.82Zm-28.15-15.55a14.37,14.37,0,0,0-4.91-11.45,18.09,18.09,0,0,0-12.27-4.25,17.7,17.7,0,0,0-11.86,4.09q-4.83,4.09-6,11.61Z" style="fill:#24b2b4"/><path d="M725.42,203.76l-27.81-38.29v38.29h-28V82.68h28V149.6l27.65-37.14h34.52l-38,45.81,38.29,45.49Z" style="fill:#24b2b4"/><path d="M808.05,115.81A52.63,52.63,0,0,1,828.59,95a59.63,59.63,0,0,1,29.86-7.44q20.44,0,35,10.8t19.47,29.45H882.17a24.82,24.82,0,0,0-9.73-11,27.39,27.39,0,0,0-14.32-3.77q-12.93,0-20.94,9t-8,24.06q0,15,8,24.05t20.94,9a27.39,27.39,0,0,0,14.32-3.76,24.85,24.85,0,0,0,9.73-11h30.77q-4.92,18.66-19.47,29.37t-35,10.72a59.63,59.63,0,0,1-29.86-7.44,52.82,52.82,0,0,1-20.54-20.7q-7.37-13.26-7.36-30.27T808.05,115.81Z" style="fill:#24b2b4"/><path d="M958.1,82.68V203.76h-28V82.68Z" style="fill:#24b2b4"/><path d="M978.14,133.24a39.63,39.63,0,0,1,14.48-16.36,37.81,37.81,0,0,1,20.46-5.73,35.1,35.1,0,0,1,16.93,3.93,28.88,28.88,0,0,1,11.21,10.31V112.46h28v91.3h-28V190.84a30.21,30.21,0,0,1-11.37,10.3,35.14,35.14,0,0,1-16.94,3.93,37.06,37.06,0,0,1-20.29-5.81,40.09,40.09,0,0,1-14.48-16.52Q972.83,172,972.82,158T978.14,133.24Zm57.27,8.34a19.67,19.67,0,0,0-28.31-.08q-5.8,6-5.81,16.45t5.81,16.61a19.5,19.5,0,0,0,28.31.08q5.8-6.06,5.81-16.53T1035.41,141.58Z" style="fill:#24b2b4"/><path d="M1105.36,201a36.23,36.23,0,0,1-14.73-11.21,29.4,29.4,0,0,1-6.05-16h27.65a10.63,10.63,0,0,0,4.42,7.69,15.64,15.64,0,0,0,9.65,2.94q5.23,0,8.1-2a6.27,6.27,0,0,0,2.87-5.32c0-2.62-1.37-4.55-4.09-5.81a83.63,83.63,0,0,0-13.26-4.17,123.45,123.45,0,0,1-16.36-4.83,28.29,28.29,0,0,1-11.29-8q-4.76-5.49-4.75-14.81a25.16,25.16,0,0,1,4.34-14.32,29.17,29.17,0,0,1,12.76-10.23q8.43-3.76,20.05-3.76,17.17,0,27.08,8.51t11.37,22.58h-25.85a11.17,11.17,0,0,0-4.18-7.53,14.47,14.47,0,0,0-9.24-2.78q-4.9,0-7.53,1.88a6,6,0,0,0-2.62,5.16c0,2.61,1.4,4.58,4.18,5.89a66.92,66.92,0,0,0,13,3.92,143,143,0,0,1,16.52,5.16,28.51,28.51,0,0,1,11.21,8.18q4.83,5.64,5,15.14a24,24,0,0,1-4.5,14.31,29.79,29.79,0,0,1-12.92,9.9,49.47,49.47,0,0,1-19.56,3.6A52.44,52.44,0,0,1,1105.36,201Z" style="fill:#24b2b4"/><path d="M1262.11,121.87q9.5,10.4,9.5,28.55v53.34h-27.82V154.18q0-9.15-4.75-14.23t-12.76-5.07q-8,0-12.76,5.07t-4.75,14.23v49.58h-28V82.68h28v42.05a30,30,0,0,1,11.62-9.65,37.14,37.14,0,0,1,16.53-3.6Q1252.63,111.48,1262.11,121.87Z" style="fill:#24b2b4"/></svg>