<svg viewBox="124 800 1752 400" xmlns="http://www.w3.org/2000/svg" style="max-height: 500px" width="1752" height="400"><path style="fill:#24b2b4;stroke:#000;stroke-miterlimit:10;stroke-width:1.8330480881556575px" d="M478.49,827.68c-21-13.09-84.05,44.85-90.76,38.45-5.58-5.33,40.16-43.38,31.12-57.67-8.15-12.88-59.73,2.85-162.56,34.84C209.11,858,184.79,866.1,164,887.09c-7.24,7.32-30.27,30.6-34.08,64.7-.38,3.33-.49,6.1-.53,8v133.47c0,56.77,52.9,102.78,118.15,102.78H401c9.39.06,48.79-.66,81.84-28.56,3.24-2.74,37.88-32.82,38.6-74.64,0-.6,0-1.1,0-1.42q0-57.8,0-115.6c0-1.14.19-3.87,0-7.51-.46-8.63-2.45-16.22-5.64-24.56-3.33-8.7-8-16.79-17.34-33-4.15-7.19-10-16.9-11.32-19-1.9-3-1.94-2.93-2.64-4.66C471.74,855.6,488.21,833.73,478.49,827.68Z"/><path style="fill:#fffeff;stroke:#000;stroke-miterlimit:10;stroke-width:1.8330480881556575px" d="M472.09,1049.78c-12.26-51.78-63.24-46.33-63.24-46.33s-25,1-40.86,20.24c-8.31,10.09-10.55,21.35-12.09,29.27-5.58,28.74,6.27,42.28-3.17,52.81-6.44,7.18-17.8,7.41-27,7.59s-19.78.41-26.47-6c-10.17-9.76-.27-24-7.05-54.38-2.15-9.65-4.35-19.88-12.08-29.27-15.87-19.26-40.86-20.24-40.86-20.24s-51-5.45-63.24,46.33c-4.11,17.38-6.86,20.89-13,27.34-9.31,9.73-23,12.63-33.35,13.53A89.46,89.46,0,0,0,132,1114.5a99.26,99.26,0,0,0,16.79,35.09,108.65,108.65,0,0,0,17.46,18.59A116.65,116.65,0,0,0,207.49,1190a144.59,144.59,0,0,0,32.67,5.86c4,.26,6.12.22,19.33.2,10.9,0,21.79,0,32.68,0,27.42-.13,41.14-.2,48.8-.15,19,.13,38.1,0,57.15.15a146.07,146.07,0,0,0,21.57-1.27,128.14,128.14,0,0,0,23.11-5.27l1.54-.52a135.63,135.63,0,0,0,33.28-17.36,108.47,108.47,0,0,0,18.73-18c5.1-6.06,14.34-17.21,20.06-34.11a92.49,92.49,0,0,0,4.85-29c-6.24.22-23.07,0-34.67-10.28C483.56,1077.53,478.17,1075.47,472.09,1049.78Z"/><circle r="27.24" cy="1051.7" cx="237.69"/><circle r="27.24" cy="1051.7" cx="413.2"/><path style="fill:#fbcc18;stroke:#000;stroke-miterlimit:10;stroke-width:1.7468067306480617px" d="M325.46,1146.24a17.59,17.59,0,0,1-11.32-4.13c-13.47-11.3-24.84-29.46-30.42-39.28a17.69,17.69,0,0,1,1.91-20.31,69,69,0,0,1,36-22.14h0a17.43,17.43,0,0,1,7.74,0,69,69,0,0,1,36,22.14,17.68,17.68,0,0,1,1.9,20.31c-5.58,9.82-16.94,28-30.42,39.28A17.59,17.59,0,0,1,325.46,1146.24Z"/><path d="M325.46,1101.92c-18.63-3.13-30-9.26-30-9.26,8.17,18.39,30,34,30,34s21.88-15.63,30.06-34C355.52,1092.66,344.1,1098.79,325.46,1101.92Z"/><path d="M764.56,943l-32.34,161.7H694.56L641.2,1016l-17.78,88.7H578.6L610.94,943h37.65l53.6,88.47L719.74,943Z"/><path d="M901.77,1052.92H809.83c1.62,13.86,11.09,20.33,28.42,20.33,11.08,0,21.94-3.47,30.26-10.17l18.25,27.49c-15.71,11.55-34.42,16.17-53.37,16.17-40.19,0-66.52-22.17-66.52-57.06,0-41.58,30.72-72.3,75.76-72.3,38.12,0,61.68,22.18,61.68,55A94.25,94.25,0,0,1,901.77,1052.92Zm-89.4-23.1h51.52c.23-13.4-9.24-21.25-23.33-21.25C825.77,1008.57,816.53,1017.34,812.37,1029.82Z"/><path d="M1000.87,1042.52l33.95,62.14H988.16l-17.09-32.8-30.26,32.8H891.14l62.6-64.22-33-61h46l16.63,31.88,29.8-31.88h48.28Z"/><path style="fill:#24b2b4" d="M1122.6,978.3l-7.16,35.58h71.38l-7.16,35.34h-71.15l-11.09,55.44h-45.74L1084,943h126.59l-7.16,35.34Z"/><path style="fill:#24b2b4" d="M1334.2,1052.92h-91.94c1.62,13.86,11.09,20.33,28.41,20.33,11.09,0,21.95-3.47,30.26-10.17l18.25,27.49c-15.7,11.55-34.42,16.17-53.36,16.17-40.19,0-66.53-22.17-66.53-57.06,0-41.58,30.73-72.3,75.77-72.3,38.12,0,61.68,22.18,61.68,55A94.87,94.87,0,0,1,1334.2,1052.92Zm-89.4-23.1h51.51c.24-13.4-9.24-21.25-23.33-21.25C1258.2,1008.57,1249,1017.34,1244.8,1029.82Z"/><path style="fill:#24b2b4" d="M1376.7,933.26h43.89l-34.19,171.4h-43.89Z"/><path style="fill:#24b2b4" d="M1449,933.26h43.89l-34.19,171.4h-43.89Z"/><path style="fill:#24b2b4" d="M1491,1049.68c0-41.35,32.11-72.3,76.92-72.3,40,0,65.61,22.41,65.61,56.83,0,41.58-32.11,72.53-76.93,72.53C1516.68,1106.74,1491,1084.1,1491,1049.68Zm97.94-13.16c0-14.56-8.54-24-23.56-24-17.56,0-29.8,14.09-29.8,35.11,0,14.56,8.55,23.8,23.56,23.8C1576.74,1071.4,1589,1057.31,1589,1036.52Z"/><path style="fill:#24b2b4" d="M1871.49,979.46l-68.37,125.2h-43.43l-11.78-68.14-36.73,68.14h-43L1647,979.46h40.19l11.32,75.31,41.35-75.31h37.66l11.55,75.31,41.35-75.31Z"/></svg>