<svg width="24" height="29" viewBox="0 0 24 29" fill="none" xmlns="http://www.w3.org/2000/svg">
<path fill-rule="evenodd" clip-rule="evenodd" d="M20.7487 19.6875V12.3958C20.7487 7.91875 18.3715 4.17083 14.1862 3.17917V2.1875C14.1862 0.977083 13.2092 0 11.9987 0C10.7882 0 9.8112 0.977083 9.8112 2.1875V3.17917C5.64036 4.17083 3.2487 7.90417 3.2487 12.3958V19.6875L0.332031 22.6042V24.0625H23.6654V22.6042L20.7487 19.6875ZM11.9987 28.4375C13.6029 28.4375 14.9154 27.125 14.9154 25.5208H9.08203C9.08203 27.125 10.3945 28.4375 11.9987 28.4375ZM6.16536 21.1458H17.832V12.3958C17.832 8.77917 15.63 5.83333 11.9987 5.83333C8.36745 5.83333 6.16536 8.77917 6.16536 12.3958V21.1458Z" fill="black"/>
</svg>
