<svg width="24" height="25" viewBox="0 0 24 25" fill="none" xmlns="http://www.w3.org/2000/svg">
<path d="M4 11.5V15.5C4 18.7998 4 20.4497 5.02513 21.4749C6.05025 22.5 7.70017 22.5 11 22.5H13C16.2998 22.5 17.9497 22.5 18.9749 21.4749C20 20.4497 20 18.7998 20 15.5V11.5" stroke="#24B2B4" stroke-width="2" stroke-linecap="round" stroke-linejoin="round"/>
<path d="M3 9.5C3 8.75231 3 8.37846 3.20096 8.1C3.33261 7.91758 3.52197 7.76609 3.75 7.66077C4.09808 7.5 4.56538 7.5 5.5 7.5H18.5C19.4346 7.5 19.9019 7.5 20.25 7.66077C20.478 7.76609 20.6674 7.91758 20.799 8.1C21 8.37846 21 8.75231 21 9.5C21 10.2477 21 10.6215 20.799 10.9C20.6674 11.0824 20.478 11.2339 20.25 11.3392C19.9019 11.5 19.4346 11.5 18.5 11.5H5.5C4.56538 11.5 4.09808 11.5 3.75 11.3392C3.52197 11.2339 3.33261 11.0824 3.20096 10.9C3 10.6215 3 10.2477 3 9.5Z" stroke="#24B2B4" stroke-width="2" stroke-linejoin="round"/>
<path d="M6 4.28571C6 3.29949 6.79949 2.5 7.78571 2.5H8.14286C10.2731 2.5 12 4.2269 12 6.35714V7.5H9.21429C7.43908 7.5 6 6.06091 6 4.28571Z" stroke="#24B2B4" stroke-width="2" stroke-linejoin="round"/>
<path d="M18 4.28571C18 3.29949 17.2005 2.5 16.2143 2.5H15.8571C13.7269 2.5 12 4.2269 12 6.35714V7.5H14.7857C16.5609 7.5 18 6.06091 18 4.28571Z" stroke="#24B2B4" stroke-width="2" stroke-linejoin="round"/>
<path d="M12 11.5V22.5" stroke="#24B2B4" stroke-width="2" stroke-linecap="round" stroke-linejoin="round"/>
</svg>
