<svg width="428" height="491" viewBox="0 0 428 491" fill="none" xmlns="http://www.w3.org/2000/svg">
<g clip-path="url(#clip0_5538_9193)">
<path d="M13.2068 199.702C13.2068 199.702 -4.34319 274.582 44.5043 339.88C93.3518 405.178 178.458 430.508 246.914 452.879C315.371 475.249 379.417 449.427 403.449 391.922C427.48 334.416 378.937 303.458 368.232 228.356C357.526 153.253 366.067 131.632 316.132 74.4421C266.196 17.2524 163.704 18.6331 94.4165 77.332C25.1291 136.031 13.2068 199.702 13.2068 199.702Z" fill="#24B2B4"/>
<path opacity="0.7" d="M13.2068 199.702C13.2068 199.702 -4.34319 274.582 44.5043 339.88C93.3518 405.178 178.458 430.508 246.914 452.879C315.371 475.249 379.417 449.427 403.449 391.922C427.48 334.416 378.937 303.458 368.232 228.356C357.526 153.253 366.067 131.632 316.132 74.4421C266.196 17.2524 163.704 18.6331 94.4165 77.332C25.1291 136.031 13.2068 199.702 13.2068 199.702Z" fill="white"/>
<path d="M399.412 256.48C399.412 256.48 399.412 251.589 392.556 244.78C385.7 237.97 381.312 234.016 381.312 234.016C381.312 234.016 377.884 245.259 384.237 252.116C388.931 256.934 394.019 261.352 399.447 265.325L399.412 256.48Z" fill="#24B2B4"/>
<path d="M389.468 287.038C389.468 287.038 389.468 282.148 382.624 275.338C375.779 268.529 371.368 264.574 371.368 264.574C371.368 264.574 367.94 275.748 374.305 282.639C378.997 287.46 384.085 291.878 389.515 295.848L389.468 287.038Z" fill="#24B2B4"/>
<path d="M398.98 264.823C398.98 264.823 399.495 259.955 407.03 253.86C414.564 247.764 419.42 244.348 419.42 244.348C419.42 244.348 421.631 255.907 414.588 262.038C409.429 266.338 403.919 270.197 398.114 273.574L398.98 264.823Z" fill="#24B2B4"/>
<path d="M386.976 300.904C386.976 300.904 387.994 296.119 396.125 290.854C404.257 285.589 409.393 282.664 409.393 282.664C409.393 282.664 410.376 294.364 402.724 299.758C397.154 303.484 391.284 306.74 385.174 309.492L386.976 300.904Z" fill="#24B2B4"/>
<path d="M389.233 340.253C389.233 340.253 389.233 335.362 396.078 328.553C402.922 321.744 407.333 317.789 407.333 317.789C407.333 317.789 410.761 329.044 404.397 335.901C399.702 340.718 394.614 345.136 389.187 349.11L389.233 340.253Z" fill="#24B2B4"/>
<path d="M389.118 349.859C389.118 349.859 389.808 345.015 384.005 337.258C378.201 329.501 374.399 325.008 374.399 325.008C374.399 325.008 369.403 335.655 374.726 343.342C378.674 348.77 383.069 353.857 387.866 358.552L389.118 349.859Z" fill="#24B2B4"/>
<path d="M382.366 378.316C382.366 378.316 382.366 373.425 389.211 366.616C396.055 359.806 400.466 355.852 400.466 355.852C400.466 355.852 403.894 367.107 397.529 373.951C392.838 378.773 387.75 383.191 382.319 387.161L382.366 378.316Z" fill="#24B2B4"/>
<path d="M386.929 404.122C386.929 404.122 385.701 399.383 390.591 391.03C395.482 382.676 398.781 377.762 398.781 377.762C398.781 377.762 404.947 387.777 400.525 396.025C397.223 401.872 393.435 407.43 389.199 412.639L386.929 404.122Z" fill="#24B2B4"/>
<path d="M400.034 255.227C399.689 260.327 399.064 265.405 398.162 270.437C395.448 284.418 388.685 293.45 385.971 306.086C383.256 318.722 391.037 334.997 388.954 351.237C386.872 367.476 380.554 376.485 382.367 387.32C384.181 398.154 393.681 427.474 393.681 427.474" stroke="#263238" stroke-width="0.585" stroke-linecap="round" stroke-linejoin="round"/>
<path d="M398.91 268.073L406.293 262.398" stroke="#263238" stroke-width="0.585" stroke-linecap="round" stroke-linejoin="round"/>
<path d="M399.262 261.546L396.173 256.047" stroke="#263238" stroke-width="0.585" stroke-linecap="round" stroke-linejoin="round"/>
<path d="M386.38 305.493C386.38 305.493 392.557 300.813 398.911 296.227" stroke="#263238" stroke-width="0.585" stroke-linecap="round" stroke-linejoin="round"/>
<path d="M389.469 295.852C389.469 295.852 384.321 285.755 378.482 279.062" stroke="#263238" stroke-width="0.585" stroke-linecap="round" stroke-linejoin="round"/>
<path d="M389.468 347.214C392.999 340.725 397.452 334.782 402.689 329.57" stroke="#263238" stroke-width="0.585" stroke-linecap="round" stroke-linejoin="round"/>
<path d="M388.275 354.142C386.393 349.729 384.151 345.479 381.571 341.436C377.967 336.112 377.452 335.422 377.452 335.422" stroke="#263238" stroke-width="0.585" stroke-linecap="round" stroke-linejoin="round"/>
<path d="M382.365 387.307C383.925 383.417 385.783 379.654 387.923 376.051C390.061 372.708 392.476 369.55 395.142 366.609" stroke="#263238" stroke-width="0.585" stroke-linecap="round" stroke-linejoin="round"/>
<path d="M389.165 412.64C388.806 408.928 389.444 405.188 391.013 401.806C393.587 396.821 396.512 390.305 397.717 387.766" stroke="#263238" stroke-width="0.585" stroke-linecap="round" stroke-linejoin="round"/>
<path d="M354.556 321.849C354.556 321.849 354.029 318.784 357.575 313.741C361.12 308.698 363.425 305.773 363.425 305.773C363.425 305.773 366.794 312.454 363.553 317.473C361.147 321.006 358.447 324.329 355.48 327.407L354.556 321.849Z" fill="#24B2B4"/>
<path d="M364.103 339.935C364.103 339.935 363.576 336.858 367.133 331.827C370.69 326.796 372.983 323.848 372.983 323.848C372.983 323.848 376.353 330.54 373.1 335.548C370.691 339.078 367.99 342.401 365.027 345.481L364.103 339.935Z" fill="#24B2B4"/>
<path d="M355.725 327.03C355.725 327.03 354.883 324.035 349.489 321.028C344.096 318.021 340.726 316.406 340.726 316.406C340.726 316.406 340.597 323.894 345.675 326.936C349.381 329.074 353.259 330.898 357.27 332.388L355.725 327.03Z" fill="#24B2B4"/>
<path d="M367.179 348.357C367.179 348.357 366.009 345.467 360.347 343.045C354.684 340.623 351.139 339.359 351.139 339.359C351.139 339.359 351.794 346.824 357.176 349.351C361.083 351.089 365.13 352.494 369.274 353.551L367.179 348.357Z" fill="#24B2B4"/>
<path d="M370.034 373.27C370.034 373.27 369.508 370.204 364.465 366.647C359.423 363.091 356.275 361.125 356.275 361.125C356.275 361.125 355.351 368.554 360.078 372.158C363.537 374.67 367.2 376.889 371.029 378.792L370.034 373.27Z" fill="#24B2B4"/>
<path d="M371.145 379.281C371.145 379.281 370.186 376.321 372.982 370.822C375.778 365.323 377.662 362.094 377.662 362.094C377.662 362.094 381.944 368.236 379.441 373.63C377.557 377.47 375.353 381.145 372.853 384.616L371.145 379.281Z" fill="#24B2B4"/>
<path d="M379.745 404.026C379.745 404.026 380.096 400.937 384.928 397.1C389.76 393.262 392.826 391.109 392.826 391.109C392.826 391.109 394.171 398.48 389.655 402.341C386.355 405.05 382.832 407.477 379.125 409.595L379.745 404.026Z" fill="#24B2B4"/>
<path d="M378.471 396.398C378.471 396.398 377.944 393.333 372.901 389.776C367.859 386.219 364.711 384.242 364.711 384.242C364.711 384.242 363.787 391.672 368.526 395.287C371.98 397.801 375.639 400.02 379.465 401.921L378.471 396.398Z" fill="#24B2B4"/>
<path d="M378.47 413.073C378.47 413.073 378.727 409.973 374.749 405.258C370.771 400.543 368.197 397.828 368.197 397.828C368.197 397.828 365.424 404.778 369.086 409.528C371.794 412.835 374.773 415.911 377.99 418.724L378.47 413.073Z" fill="#24B2B4"/>
<path d="M354.028 321.133C354.798 324.303 355.743 327.428 356.86 330.493C360.077 338.964 365.295 343.889 368.373 351.553C371.45 359.216 368.373 370.273 371.391 380.194C374.41 390.116 379.406 395.112 379.452 402.108C379.499 409.105 376.738 428.515 376.738 428.515" stroke="#263238" stroke-width="0.585" stroke-linecap="round" stroke-linejoin="round"/>
<path d="M356.123 329.054L350.882 326.305" stroke="#263238" stroke-width="0.585" stroke-linecap="round" stroke-linejoin="round"/>
<path d="M355.198 325.006L356.544 321.227" stroke="#263238" stroke-width="0.585" stroke-linecap="round" stroke-linejoin="round"/>
<path d="M368.045 351.169C368.045 351.169 363.67 348.934 359.177 346.711" stroke="#263238" stroke-width="0.585" stroke-linecap="round" stroke-linejoin="round"/>
<path d="M365.062 345.458C366.347 341.395 368.044 337.475 370.128 333.758" stroke="#263238" stroke-width="0.585" stroke-linecap="round" stroke-linejoin="round"/>
<path d="M370.642 377.668C367.722 373.974 364.281 370.722 360.428 368.016" stroke="#263238" stroke-width="0.585" stroke-linecap="round" stroke-linejoin="round"/>
<path d="M372.141 381.846C372.836 378.875 373.779 375.967 374.96 373.153C376.645 369.421 376.891 368.93 376.891 368.93" stroke="#263238" stroke-width="0.585" stroke-linecap="round" stroke-linejoin="round"/>
<path d="M379.208 407.337C380.916 405.229 382.803 403.271 384.847 401.487C386.153 400.528 387.377 399.463 388.509 398.305" stroke="#263238" stroke-width="0.585" stroke-linecap="round" stroke-linejoin="round"/>
<path d="M379.453 402.04C378.061 399.77 376.497 397.611 374.773 395.582C373.068 393.721 371.214 392.003 369.228 390.445" stroke="#263238" stroke-width="0.585" stroke-linecap="round" stroke-linejoin="round"/>
<path d="M377.931 418.664C377.756 416.295 376.948 414.016 375.591 412.065C373.439 409.222 370.911 405.443 369.87 403.969" stroke="#263238" stroke-width="0.585" stroke-linecap="round" stroke-linejoin="round"/>
<path d="M362.745 425.062H407.556V458.642C407.556 459.572 407.186 460.465 406.528 461.123C405.87 461.782 404.977 462.152 404.046 462.152H366.302C365.371 462.152 364.478 461.782 363.82 461.123C363.162 460.465 362.792 459.572 362.792 458.642V425.062H362.745Z" fill="#263238"/>
<path d="M407.158 430.903H362.698C361.768 430.903 360.875 430.533 360.217 429.875C359.558 429.217 359.188 428.324 359.188 427.393C359.188 426.462 359.558 425.569 360.217 424.911C360.875 424.253 361.768 423.883 362.698 423.883H407.158C408.089 423.883 408.982 424.253 409.64 424.911C410.299 425.569 410.668 426.462 410.668 427.393C410.668 428.324 410.299 429.217 409.64 429.875C408.982 430.533 408.089 430.903 407.158 430.903Z" fill="#263238"/>
<path d="M321.925 118.583C343.894 118.583 361.705 100.773 361.705 78.8034C361.705 56.8335 343.894 39.0234 321.925 39.0234C299.955 39.0234 282.145 56.8335 282.145 78.8034C282.145 100.773 299.955 118.583 321.925 118.583Z" fill="#263238"/>
<path d="M334.889 110.773C352.547 103.61 361.055 83.4882 353.892 65.8301C346.729 48.172 326.608 39.664 308.949 46.827C291.291 53.9901 282.783 74.1116 289.946 91.7697C297.109 109.428 317.231 117.936 334.889 110.773Z" fill="white"/>
<path d="M299.543 85.1428L321.925 78.8014V47.4922" stroke="#263238" stroke-width="2.34" stroke-miterlimit="10"/>
<path d="M128.91 256.645H85.2336L28.0557 103.188H71.7318L128.91 256.645Z" fill="#263238"/>
<path d="M60.0668 140.672H48.8348C48.0689 140.627 47.332 140.363 46.7104 139.914C46.0887 139.464 45.6081 138.847 45.3248 138.133L40.9841 126.492C40.8335 126.225 40.7578 125.923 40.7651 125.617C40.7724 125.311 40.8624 125.013 41.0255 124.754C41.1886 124.494 41.4188 124.284 41.6917 124.145C41.9645 124.007 42.2699 123.944 42.5753 123.965H53.8073C54.5711 124.012 55.3058 124.275 55.9269 124.722C56.5479 125.169 57.0299 125.783 57.3173 126.492L61.658 138.133C62.1728 139.537 61.4708 140.672 60.0668 140.672Z" fill="#263238"/>
<path d="M74.6217 110.945H30.9456L28.0557 103.188H71.7318L74.6217 110.945Z" fill="#263238"/>
<path d="M45.875 112.219L47.1269 115.588" stroke="#263238" stroke-width="1.17" stroke-linecap="round" stroke-linejoin="round"/>
<path d="M47.5596 112.219L48.8115 115.588" stroke="#263238" stroke-width="1.17" stroke-linecap="round" stroke-linejoin="round"/>
<path d="M49.2324 112.219L50.496 115.588" stroke="#263238" stroke-width="1.17" stroke-linecap="round" stroke-linejoin="round"/>
<path d="M50.918 112.219L52.1699 115.588" stroke="#263238" stroke-width="1.17" stroke-linecap="round" stroke-linejoin="round"/>
<path d="M52.6025 112.219L53.8544 115.588" stroke="#263238" stroke-width="1.17" stroke-linecap="round" stroke-linejoin="round"/>
<path d="M54.2871 112.219L55.539 115.588" stroke="#263238" stroke-width="1.17" stroke-linecap="round" stroke-linejoin="round"/>
<path d="M55.9727 112.219L57.2246 115.588" stroke="#263238" stroke-width="1.17" stroke-linecap="round" stroke-linejoin="round"/>
<path d="M57.6562 112.219L58.9081 115.588" stroke="#263238" stroke-width="1.17" stroke-linecap="round" stroke-linejoin="round"/>
<path d="M59.3301 112.219L60.5937 115.588" stroke="#263238" stroke-width="1.17" stroke-linecap="round" stroke-linejoin="round"/>
<path d="M61.0146 112.219L62.2665 115.588" stroke="#263238" stroke-width="1.17" stroke-linecap="round" stroke-linejoin="round"/>
<path d="M56.4283 133.368L45.8983 126.664C45.8002 126.587 45.682 126.539 45.5576 126.527C45.4332 126.514 45.3079 126.538 45.1963 126.594C45.1066 126.662 45.0458 126.761 45.0263 126.872C45.0068 126.982 45.0299 127.097 45.091 127.191L49.9348 137.639C49.9983 137.771 50.0898 137.887 50.203 137.98C50.3161 138.073 50.4482 138.141 50.59 138.177H50.7538C50.8408 138.184 50.9274 138.161 50.9997 138.112C51.0719 138.063 51.1255 137.991 51.1516 137.908L52.3216 134.468H56.5336C56.5882 134.473 56.6432 134.467 56.695 134.449C56.7468 134.431 56.7942 134.402 56.8341 134.364C56.8739 134.327 56.9053 134.281 56.9261 134.23C56.9469 134.18 56.9567 134.125 56.9548 134.07C56.9321 133.919 56.8721 133.776 56.7802 133.653C56.6883 133.53 56.5674 133.433 56.4283 133.368Z" fill="white"/>
<path d="M56.2174 133.841L45.6406 127.137L50.4844 137.585L51.6895 133.888L56.2174 133.841Z" fill="#263238"/>
<path d="M75.9792 133.841L65.4023 127.137L70.2578 137.585L71.4512 133.888L75.9792 133.841Z" fill="white"/>
<path d="M81.3959 139.786L80.4482 137.633L79.1963 139.446L81.3959 139.786Z" fill="white"/>
<path d="M106.949 208.368L106.001 206.215L104.749 208.028L106.949 208.368Z" fill="white"/>
<path d="M114.799 229.418L113.84 227.266L112.6 229.067L114.799 229.418Z" fill="white"/>
<path d="M122.837 250.993L121.878 248.84L120.638 250.653L122.837 250.993Z" fill="white"/>
<path d="M77.8041 184.067L76.8447 181.914L75.6045 183.716L77.8041 184.067Z" fill="white"/>
<path d="M86.8597 208.368L85.9004 206.215L84.6602 208.028L86.8597 208.368Z" fill="white"/>
<path d="M94.6986 229.418L93.7509 227.266L92.499 229.067L94.6986 229.418Z" fill="white"/>
<path d="M102.748 250.993L101.789 248.84L100.549 250.653L102.748 250.993Z" fill="white"/>
<path d="M56.4277 162.882L58.2646 164.063L63.319 153.522L61.4821 152.328L56.4277 162.882Z" fill="white"/>
<path d="M58.6979 152.547C56.0186 150.464 55.8314 150.043 56.4866 147.68C55.106 149.575 54.6965 149.61 51.8066 148.066C54.4859 150.16 54.6731 150.581 54.0179 152.945C55.3517 151.049 55.7612 151.014 58.6979 152.547Z" fill="white"/>
<path d="M67.5205 153.683C65.8708 152.396 65.7538 152.138 66.1516 150.676C65.2975 151.846 65.0518 151.846 63.2383 150.921C64.888 152.208 65.005 152.466 64.5955 153.928C65.4496 152.758 65.707 152.735 67.5205 153.683Z" fill="white"/>
<path d="M67.0176 158.645C65.8476 157.721 65.754 157.545 66.0465 156.504C65.4381 157.335 65.2509 157.346 63.9639 156.668C65.1339 157.592 65.2158 157.779 64.935 158.821C65.5434 157.978 65.7189 157.966 67.0176 158.645Z" fill="white"/>
<path d="M93.5293 205.413L94.6642 206.22L99.7186 195.667L98.5837 194.859L93.5293 205.413Z" fill="white"/>
<path d="M89.2937 160.155L79.9688 154.246L84.2393 163.466L85.3039 160.201L89.2937 160.155Z" fill="white"/>
<path d="M82.2736 160.7C78.8572 160.7 75.3238 158.676 74.3995 156.196C73.4752 153.716 75.511 151.727 78.9508 151.727C82.3906 151.727 85.9006 153.751 86.8249 156.219C87.7492 158.688 85.7017 160.7 82.2736 160.7ZM79.1263 152.241C76.0024 152.241 74.1304 154.02 74.9377 156.196C75.745 158.372 78.9508 160.151 82.0747 160.151C85.1986 160.151 87.0823 158.384 86.2633 156.196C85.4443 154.008 82.2502 152.241 79.1263 152.241Z" fill="white"/>
<path d="M78.1671 159.802C77.7093 159.768 77.2702 159.607 76.8998 159.336C76.5295 159.065 76.2428 158.695 76.0728 158.269C75.982 158.108 75.9364 157.925 75.9407 157.74C75.945 157.555 75.9991 157.375 76.0973 157.218C76.1955 157.061 76.3341 156.933 76.4986 156.849C76.6632 156.764 76.8475 156.725 77.0322 156.736C77.4899 156.769 77.9291 156.931 78.2994 157.202C78.6698 157.473 78.9564 157.843 79.1265 158.269C79.2172 158.43 79.2629 158.613 79.2585 158.798C79.2542 158.983 79.2001 159.163 79.1019 159.32C79.0038 159.477 78.8651 159.605 78.7006 159.689C78.5361 159.774 78.3518 159.813 78.1671 159.802ZM77.2311 157.286C77.1117 157.276 76.9918 157.299 76.8846 157.353C76.7774 157.406 76.6869 157.488 76.623 157.59C76.5591 157.691 76.5241 157.808 76.522 157.928C76.5199 158.047 76.5507 158.165 76.611 158.269C76.7193 158.547 76.9045 158.788 77.1449 158.964C77.3852 159.14 77.6708 159.244 77.9682 159.263C78.5064 159.263 78.7872 158.819 78.5883 158.269C78.4759 157.995 78.2893 157.758 78.0495 157.584C77.8098 157.411 77.5263 157.308 77.2311 157.286Z" fill="white"/>
<path d="M78.3187 161.409L77.9443 160.894C78.219 160.824 78.4677 160.677 78.6606 160.469C78.8536 160.262 78.9827 160.003 79.0324 159.724C79.0478 159.255 78.9079 158.795 78.6346 158.414L79.0792 158.227C79.4395 158.731 79.6244 159.339 79.6057 159.958C79.5519 160.298 79.4021 160.614 79.1741 160.871C78.9461 161.129 78.6493 161.315 78.3187 161.409Z" fill="white"/>
<path d="M72.4688 176.614L65.9519 171.875L64.5713 174.075L71.0882 178.813L72.4688 176.614Z" fill="white"/>
<path d="M62.0322 182.757L63.0969 183.529L65.4369 179.738C65.3108 179.63 65.2224 179.484 65.1845 179.322C65.1467 179.16 65.1613 178.99 65.2263 178.837C65.4018 178.545 65.8815 178.545 66.2793 178.837C66.4585 178.938 66.5966 179.099 66.6693 179.291C66.742 179.484 66.7448 179.696 66.6771 179.89C66.5731 180.009 66.4302 180.088 66.2737 180.111C66.1172 180.135 65.9575 180.102 65.823 180.019L63.483 183.81L64.4775 184.535L70.3275 182.885L70.6902 179.375L64.2669 174.695L61.4004 176.298L62.0322 182.757Z" fill="white"/>
<path d="M55.8789 167.867H93.471" stroke="#263238" stroke-width="1.17" stroke-linecap="round" stroke-linejoin="round"/>
<path d="M88.5681 171.875L87.1875 174.075L93.7044 178.813L95.085 176.614L88.5681 171.875Z" fill="white"/>
<path d="M83.959 176.302L84.6493 182.749L85.714 183.521L88.054 179.73C87.9279 179.622 87.8395 179.476 87.8016 179.314C87.7637 179.152 87.7784 178.982 87.8434 178.829C88.0189 178.537 88.4986 178.537 88.8964 178.829C89.0756 178.93 89.2137 179.091 89.2864 179.284C89.3591 179.476 89.3618 179.688 89.2942 179.882C89.1902 180.002 89.0472 180.08 88.8908 180.104C88.7343 180.127 88.5746 180.094 88.4401 180.011L86.1001 183.802L87.0946 184.527L92.9446 182.878L93.3073 179.368L86.884 174.688L83.959 176.302Z" fill="white"/>
<path d="M82.343 178.209C82.4132 177.753 82.4717 177.261 82.5185 176.711C82.5713 176.185 82.5166 175.653 82.3577 175.148C82.1988 174.643 81.9391 174.176 81.5942 173.775C80.8321 172.924 79.841 172.31 78.7394 172.008C78.5639 172.008 78.4235 172.008 78.4469 172.218C78.4639 172.308 78.506 172.39 78.5681 172.456C78.6303 172.523 78.7099 172.57 78.7979 172.593C79.6929 172.854 80.5011 173.351 81.1379 174.032C81.4164 174.366 81.6251 174.752 81.7517 175.168C81.8783 175.584 81.9202 176.021 81.875 176.454C81.875 176.992 81.758 177.483 81.6995 177.928C81.3836 180.268 81.1964 181.672 85.0808 184C85.1423 184.044 85.2157 184.069 85.2914 184.071C85.3323 184.072 85.373 184.062 85.4083 184.042C85.4436 184.021 85.4721 183.99 85.4903 183.954C85.5044 183.867 85.4904 183.778 85.4504 183.7C85.4104 183.623 85.3465 183.56 85.268 183.521C81.9101 181.497 82.0388 180.537 82.343 178.209Z" fill="white"/>
<path d="M65.7061 193.851L65.9401 194.46C66.2729 195.4 66.6637 196.318 67.1101 197.209L68.1982 196.94C67.894 196.332 67.6245 195.707 67.3909 195.068H72.0708L75.9553 205.505H74.212L74.6683 206.675H79.3482L78.892 205.505H77.1604L73.2526 195.021H77.7805L78.5878 197.221H79.8163L78.775 194.413L78.5409 193.805L65.7061 193.851Z" fill="white"/>
<path opacity="0.44" d="M90.1358 222.77C91.142 225.461 88.9658 227.637 85.2218 227.637C81.4778 227.637 77.687 225.461 76.6925 222.77C75.698 220.079 77.8625 217.914 81.6065 217.914C85.3505 217.914 89.1413 220.09 90.1358 222.77Z" fill="white"/>
<path d="M90.1358 222.77C91.142 225.461 88.9658 227.637 85.2218 227.637C81.4778 227.637 77.687 225.461 76.6925 222.77C75.698 220.079 77.8625 217.914 81.6065 217.914C85.3505 217.914 89.1413 220.09 90.1358 222.77Z" stroke="white" stroke-width="1.17" stroke-miterlimit="10"/>
<path d="M103.977 222.916L108.387 214.902C108.452 214.812 108.534 214.737 108.629 214.68C108.723 214.623 108.828 214.586 108.938 214.57C109.047 214.555 109.158 214.562 109.265 214.591C109.371 214.62 109.471 214.67 109.557 214.738C109.814 214.845 110.03 215.031 110.175 215.268C110.32 215.506 110.386 215.783 110.365 216.06L108.025 224.917L103.977 222.916Z" fill="white"/>
<path d="M103.252 223.594C104.983 223.36 108.376 224.846 108.47 227.104C108.455 227.352 108.375 227.59 108.237 227.796C108.099 228.002 107.909 228.167 107.686 228.274C106.139 228.972 104.439 229.262 102.749 229.117C102.967 228.947 103.129 228.716 103.215 228.453C103.3 228.191 103.305 227.908 103.228 227.643C102.995 226.996 102.725 226.364 102.421 225.747C102.105 224.846 102.269 223.641 103.252 223.571" fill="white"/>
<path d="M94.0666 241.176C93.7027 240.339 93.1595 239.592 92.4754 238.988L91.1416 241.106C91.9303 241.786 92.5578 242.634 92.9785 243.586C93.3626 244.433 93.8084 245.25 94.3123 246.032L95.611 243.949C95.0173 243.071 94.5005 242.143 94.0666 241.176Z" fill="white"/>
<path d="M92.5343 243.621C92.1606 242.787 91.6143 242.041 90.9315 241.434L89.5977 243.563C90.3881 244.244 91.0191 245.091 91.4462 246.043C91.8253 246.89 92.2672 247.708 92.7683 248.489L94.0787 246.406C93.4766 245.529 92.9595 244.597 92.5343 243.621Z" fill="white"/>
<path d="M94.5244 241.142C94.9034 241.989 95.3453 242.807 95.8465 243.588L97.7653 240.522L93.4714 237.387L92.6758 238.65C93.4632 239.339 94.0936 240.189 94.5244 241.142Z" fill="white"/>
<path d="M90.9897 246.079C90.6258 245.242 90.0826 244.495 89.3985 243.891L88.2285 245.669L88.4274 249.706C88.4358 249.777 88.4589 249.846 88.4951 249.909C88.5314 249.971 88.5801 250.026 88.6383 250.068C88.6965 250.111 88.7628 250.142 88.8332 250.158C88.9036 250.174 88.9766 250.175 89.0475 250.162L92.4639 248.816C91.895 247.948 91.4017 247.032 90.9897 246.079ZM89.4804 248.84L89.3751 246.687L91.329 248.114L89.4804 248.84Z" fill="white"/>
<path d="M107.85 243.08L106.388 245.42L113.946 250.931L115.408 248.591L115.865 248.93L119.375 243.42L110.892 237.242L107.441 242.753L107.85 243.08ZM113.443 249.597L107.721 245.42L108.763 243.747L114.496 247.924L113.443 249.597Z" fill="white"/>
<path d="M36.4915 105.242L36.7723 105.979L35.7193 107.266L37.7317 108.553L38.0008 109.302L34.8418 107.266L36.4915 105.242Z" fill="white"/>
<path d="M33.847 105.242L34.1278 105.979L33.0748 107.266L35.0872 108.553L35.368 109.302L32.1973 107.266L33.847 105.242Z" fill="white"/>
<path d="M213.501 195.22H123.166L95.5537 118.188H185.889L213.501 195.22Z" fill="#263238"/>
<path d="M207.089 191.019H126.558L101.965 122.398H182.496L207.089 191.019Z" fill="#24B2B4"/>
<path d="M191.774 148.301L178.46 138.496L167.941 165.804L140.669 158.105L126.559 191.017H207.09L191.774 148.301Z" fill="white"/>
<path d="M136.28 137.094C134.408 131.876 128.664 127.641 123.41 127.641C118.157 127.641 115.478 131.876 117.35 137.094C119.222 142.312 124.967 146.548 130.22 146.548C135.473 146.548 138.164 142.371 136.28 137.094Z" fill="white"/>
<path d="M222.861 181.962H132.525L104.913 104.93H195.249L222.861 181.962Z" fill="#263238"/>
<path d="M216.449 177.761H135.918L111.324 109.129H191.855L216.449 177.761Z" fill="#24B2B4"/>
<path d="M201.135 135.047L187.82 125.242L177.302 152.55L150.029 144.851L135.919 177.763H216.45L201.135 135.047Z" fill="white"/>
<path d="M145.641 123.836C143.769 118.618 138.024 114.383 132.771 114.383C127.517 114.383 124.838 118.618 126.71 123.836C128.582 129.055 134.327 133.29 139.58 133.29C144.834 133.29 147.524 129.055 145.641 123.836Z" fill="white"/>
<path d="M223.27 92.8437L225.435 98.1087H224.815C224.484 97.4001 224.072 96.7326 223.586 96.1197C223.063 95.5227 222.422 95.0407 221.703 94.704C220.94 94.3833 220.119 94.2277 219.292 94.2477H216.122L222.405 111.412C222.666 112.368 223.142 113.253 223.797 113.997C224.423 114.478 225.196 114.726 225.985 114.699H226.769L226.991 115.308H217.467L217.245 114.699H218.041C218.988 114.699 219.55 114.407 219.737 113.833C219.768 112.996 219.591 112.164 219.222 111.412L212.939 94.2477H210.248C209.523 94.2083 208.796 94.2873 208.096 94.4817C207.848 94.5879 207.627 94.748 207.449 94.9504C207.271 95.1528 207.14 95.3924 207.066 95.6517C206.88 96.4526 206.932 97.2907 207.218 98.0619H206.586L204.925 92.7969L223.27 92.8437Z" fill="black"/>
<path d="M236.947 103.43H243.815" stroke="#263238" stroke-width="0.585" stroke-miterlimit="10"/>
<path d="M243.593 121.639H209.008L196.196 86.6094H230.781L243.593 121.639Z" stroke="#263238" stroke-width="0.585" stroke-miterlimit="10"/>
<path d="M204.082 104.719H201.485L200.537 102.133H203.135L204.082 104.719Z" fill="white" stroke="#263238" stroke-width="0.585" stroke-miterlimit="10"/>
<path d="M238.714 104.719H236.117L235.169 102.133H237.766L238.714 104.719Z" fill="white" stroke="#263238" stroke-width="0.585" stroke-miterlimit="10"/>
<path d="M197.998 88.0935H195.413L194.465 85.5078H197.051L197.998 88.0935Z" fill="white" stroke="#263238" stroke-width="0.585" stroke-miterlimit="10"/>
<path d="M232.63 88.0935H230.044L229.097 85.5078H231.682L232.63 88.0935Z" fill="white" stroke="#263238" stroke-width="0.585" stroke-miterlimit="10"/>
<path d="M215.326 88.0935H212.741L211.793 85.5078H214.379L215.326 88.0935Z" fill="white" stroke="#263238" stroke-width="0.585" stroke-miterlimit="10"/>
<path d="M210.669 122.726H208.072L207.124 120.141H209.721L210.669 122.726Z" fill="white" stroke="#263238" stroke-width="0.585" stroke-miterlimit="10"/>
<path d="M245.302 122.726H242.705L241.757 120.141H244.354L245.302 122.726Z" fill="white" stroke="#263238" stroke-width="0.585" stroke-miterlimit="10"/>
<path d="M226.5 122.258L229.016 129.137" stroke="#263238" stroke-width="0.585" stroke-miterlimit="10"/>
<path d="M227.997 122.726H225.4L224.452 120.141H227.05L227.997 122.726Z" fill="white" stroke="#263238" stroke-width="0.585" stroke-miterlimit="10"/>
<path d="M230.817 130.433H228.219L227.271 127.836H229.869L230.817 130.433Z" fill="#263238"/>
<path d="M206.937 115.07H235.988" stroke="#263238" stroke-width="0.585" stroke-miterlimit="10"/>
<path d="M245.184 103.433C245.035 103.053 244.781 102.722 244.451 102.48C244.122 102.238 243.731 102.093 243.323 102.064C243.158 102.054 242.993 102.089 242.846 102.164C242.699 102.239 242.574 102.353 242.486 102.493C242.397 102.633 242.348 102.794 242.343 102.959C242.338 103.124 242.378 103.288 242.458 103.433C242.607 103.812 242.862 104.141 243.191 104.381C243.52 104.622 243.911 104.763 244.318 104.79C244.483 104.803 244.648 104.771 244.796 104.697C244.944 104.623 245.069 104.511 245.158 104.371C245.247 104.232 245.296 104.071 245.301 103.906C245.305 103.741 245.265 103.577 245.184 103.433Z" fill="#263238"/>
<path opacity="0.2" d="M84.834 289.194L116.178 316.057L86.3082 462.202H88.3323L121.56 318.737L152.004 344.266L109.018 462.027L111.709 461.582L156.929 346.957L282.751 461.582H359.316L269.764 286.059L84.834 289.194Z" fill="black"/>
<path d="M88.3327 462.203H86.3086L83.2783 286.691H91.363L88.3327 462.203Z" fill="#263238" stroke="#263238" stroke-width="1.17" stroke-linecap="round" stroke-linejoin="round"/>
<path d="M262.499 462.203H260.475L257.444 286.691H265.529L262.499 462.203Z" fill="#263238" stroke="#263238" stroke-width="1.17" stroke-linecap="round" stroke-linejoin="round"/>
<path d="M274.831 283.977H80.1895V288.528H274.831V283.977Z" fill="white" stroke="#263238" stroke-width="1.17" stroke-linecap="round" stroke-linejoin="round"/>
<path d="M36.2444 378.211L32.7344 385.676C32.7344 385.676 37.0634 390.356 39.029 390.356C40.9946 390.356 41.7785 388.39 44.1419 387.595C46.5053 386.799 50.4248 379.346 50.4248 379.346C50.4248 379.346 48.0848 375.415 45.7448 375.017C43.4048 374.619 39.8948 373.449 37.8824 373.052C35.87 372.654 36.2444 378.211 36.2444 378.211Z" fill="white" stroke="#263238" stroke-width="1.17" stroke-linecap="round" stroke-linejoin="round"/>
<path d="M36.2451 378.209L38.5851 382.14V385.65C38.5851 385.65 40.9251 386.82 41.7324 385.65C42.5397 384.48 46.0614 380.537 46.0614 380.537L44.4819 377.027" stroke="#263238" stroke-width="1.17" stroke-linecap="round" stroke-linejoin="round"/>
<path d="M38.5966 385.675L34.2793 384.891" stroke="#263238" stroke-width="1.17" stroke-linecap="round" stroke-linejoin="round"/>
<path d="M103.988 448.912L96.0436 451.252C96.0436 451.252 95.3533 457.617 96.652 459.091C97.9507 460.565 99.9514 459.863 102.093 461.115C104.234 462.367 112.447 460.378 112.447 460.378C112.447 460.378 113.851 456.014 112.587 453.99C111.324 451.966 109.873 448.514 108.867 446.783C107.861 445.051 103.988 448.912 103.988 448.912Z" fill="white" stroke="#263238" stroke-width="1.17" stroke-linecap="round" stroke-linejoin="round"/>
<path d="M103.989 448.914L102.596 453.29L99.9404 455.63C99.9404 455.63 100.607 458.18 102.011 457.97C103.415 457.759 108.715 457.841 108.715 457.841L110.33 454.331" stroke="#263238" stroke-width="1.17" stroke-linecap="round" stroke-linejoin="round"/>
<path d="M99.9397 455.642L97.6699 451.875" stroke="#263238" stroke-width="1.17" stroke-linecap="round" stroke-linejoin="round"/>
<path d="M23.6557 376.633C23.6557 376.633 16.975 380.962 18.1567 383.325C19.3384 385.689 20.1223 387.256 21.304 388.005C22.4857 388.754 25.984 389.971 27.154 389.175C28.324 388.38 31.0852 386.426 31.4713 383.325C31.8574 380.225 33.0508 379.815 31.8691 378.212C30.6874 376.609 23.6557 376.633 23.6557 376.633Z" fill="white" stroke="#263238" stroke-width="1.17" stroke-linecap="round" stroke-linejoin="round"/>
<path d="M18.1094 383.322L22.7894 386.47L26.7206 386.072L28.2884 381.743C28.2884 381.122 28.0418 380.527 27.603 380.088C27.1642 379.649 26.569 379.403 25.9484 379.403C24.6746 379.35 23.4257 379.766 22.4384 380.573L23.234 382.913" stroke="#263238" stroke-width="1.17" stroke-linecap="round" stroke-linejoin="round"/>
<path d="M52.7543 371.133C52.7543 371.133 46.9043 376.632 47.6414 380.563C48.3785 384.494 55.9016 387.642 55.9016 387.642L64.9457 382.54L62.1845 375.52L56.3345 372.373L52.7543 371.133Z" fill="white" stroke="#263238" stroke-width="1.17" stroke-linecap="round" stroke-linejoin="round"/>
<path d="M47.6406 380.564L53.9352 382.928L61.0137 380.564L58.2525 374.281" stroke="#263238" stroke-width="1.17" stroke-linecap="round" stroke-linejoin="round"/>
<path d="M52.7533 371.133L52.3555 379.393L57.0823 380.961" stroke="#263238" stroke-width="1.17" stroke-linecap="round" stroke-linejoin="round"/>
<path d="M70.4437 445.039C70.4437 445.039 64.5937 450.55 65.3308 454.481C66.0679 458.412 73.591 461.559 73.591 461.559L82.6351 456.447L79.8856 449.368L73.9771 446.221L70.4437 445.039Z" fill="white" stroke="#263238" stroke-width="1.17" stroke-linecap="round" stroke-linejoin="round"/>
<path d="M65.3311 454.482L71.6257 456.834L78.7041 454.482L75.9547 448.188" stroke="#263238" stroke-width="1.17" stroke-linecap="round" stroke-linejoin="round"/>
<path d="M70.4437 445.043L70.0459 453.303L74.7727 454.883" stroke="#263238" stroke-width="1.17" stroke-linecap="round" stroke-linejoin="round"/>
<path d="M31.1322 365.234C31.1322 365.234 25.2822 370.733 26.0193 374.665C26.7564 378.596 34.2795 381.685 34.2795 381.685L43.3119 376.572L40.5624 369.552L34.7124 366.404L31.1322 365.234Z" fill="white" stroke="#263238" stroke-width="1.17" stroke-linecap="round" stroke-linejoin="round"/>
<path d="M26.0186 374.666L32.3132 377.029L39.38 374.666L36.6305 368.383" stroke="#263238" stroke-width="1.17" stroke-linecap="round" stroke-linejoin="round"/>
<path d="M31.1322 365.234L30.7344 373.495L35.4495 375.062" stroke="#263238" stroke-width="1.17" stroke-linecap="round" stroke-linejoin="round"/>
<path d="M64.1142 462.204H17.4546L10.458 384.855H71.1108L64.1142 462.204Z" fill="#263238" stroke="#263238" stroke-width="1.17" stroke-linecap="round" stroke-linejoin="round"/>
<path d="M33.0979 449.367C33.0979 449.367 26.4055 453.696 27.5872 456.048C28.7689 458.4 29.5528 459.979 30.7345 460.728C31.9162 461.477 35.4145 462.694 36.5845 461.898C37.7545 461.102 40.5157 459.148 40.9135 456.048C41.3113 452.947 42.4813 452.538 41.2996 450.935C40.1179 449.332 33.0979 449.367 33.0979 449.367Z" fill="white" stroke="#263238" stroke-width="1.17" stroke-linecap="round" stroke-linejoin="round"/>
<path d="M27.5859 456.05L32.2659 459.197L36.1971 458.811L37.7649 454.482C37.7649 453.861 37.5184 453.266 37.0796 452.827C36.6407 452.388 36.0456 452.142 35.4249 452.142C34.1505 452.085 32.9001 452.501 31.9149 453.312L32.6988 455.652" stroke="#263238" stroke-width="1.17" stroke-linecap="round" stroke-linejoin="round"/>
<path d="M156.802 230.499C156.886 231.028 156.805 231.57 156.571 232.053C156.337 232.535 155.961 232.934 155.493 233.195C155.025 233.457 154.489 233.569 153.955 233.516C153.422 233.463 152.918 233.248 152.51 232.9C152.103 232.552 151.812 232.087 151.677 231.568C151.542 231.049 151.57 230.502 151.756 229.999C151.942 229.496 152.277 229.063 152.717 228.757C153.157 228.451 153.68 228.287 154.216 228.287C154.852 228.242 155.479 228.449 155.963 228.863C156.447 229.276 156.748 229.864 156.802 230.499Z" fill="#808080" stroke="#263238" stroke-width="1.17" stroke-linecap="round" stroke-linejoin="round"/>
<path d="M159.294 237.237C159.378 237.766 159.298 238.309 159.063 238.791C158.829 239.273 158.453 239.672 157.985 239.934C157.518 240.195 156.981 240.307 156.447 240.255C155.914 240.202 155.41 239.987 155.002 239.638C154.595 239.29 154.304 238.825 154.169 238.306C154.034 237.788 154.062 237.24 154.248 236.737C154.434 236.235 154.769 235.801 155.209 235.495C155.649 235.189 156.173 235.025 156.709 235.026C157.344 234.98 157.971 235.187 158.455 235.601C158.939 236.015 159.241 236.602 159.294 237.237Z" fill="#808080" stroke="#263238" stroke-width="1.17" stroke-linecap="round" stroke-linejoin="round"/>
<path d="M161.775 243.975C161.859 244.505 161.778 245.047 161.544 245.529C161.31 246.011 160.934 246.41 160.466 246.672C159.998 246.934 159.461 247.046 158.928 246.993C158.395 246.94 157.89 246.725 157.483 246.377C157.076 246.028 156.785 245.563 156.65 245.045C156.515 244.526 156.542 243.978 156.728 243.475C156.914 242.973 157.25 242.539 157.69 242.233C158.13 241.927 158.653 241.763 159.189 241.764C159.824 241.719 160.452 241.925 160.936 242.339C161.42 242.753 161.721 243.341 161.775 243.975Z" fill="#808080" stroke="#263238" stroke-width="1.17" stroke-linecap="round" stroke-linejoin="round"/>
<path d="M164.266 250.717C164.35 251.246 164.269 251.788 164.036 252.27C163.802 252.752 163.427 253.151 162.96 253.413C162.493 253.675 161.957 253.787 161.424 253.735C160.891 253.684 160.386 253.47 159.979 253.123C159.571 252.775 159.279 252.312 159.143 251.794C159.007 251.276 159.032 250.729 159.216 250.226C159.4 249.723 159.734 249.289 160.173 248.981C160.611 248.674 161.133 248.508 161.669 248.506C162.305 248.461 162.934 248.667 163.42 249.081C163.905 249.494 164.209 250.082 164.266 250.717Z" fill="#808080" stroke="#263238" stroke-width="1.17" stroke-linecap="round" stroke-linejoin="round"/>
<path d="M129.213 283.543H111.5L108.832 254.164H131.881L129.213 283.543Z" fill="#263238" stroke="#263238" stroke-width="1.17" stroke-linecap="round" stroke-linejoin="round"/>
<path d="M131.003 263.828L110.645 274.194L111.499 283.543H120.976L130.172 272.978L131.003 263.828Z" fill="#24B2B4" stroke="#263238" stroke-width="1.17" stroke-linecap="round" stroke-linejoin="round"/>
<path d="M133.928 250.656H106.784V257.044H133.928V250.656Z" fill="#24B2B4" stroke="#263238" stroke-width="1.17" stroke-linecap="round" stroke-linejoin="round"/>
<path d="M181.652 283.942H149.77C149.221 283.972 148.671 283.889 148.155 283.699C147.639 283.509 147.167 283.216 146.768 282.838C146.368 282.46 146.05 282.004 145.833 281.499C145.616 280.994 145.504 280.45 145.504 279.9C145.504 279.35 145.616 278.806 145.833 278.3C146.05 277.795 146.368 277.34 146.768 276.961C147.167 276.583 147.639 276.29 148.155 276.1C148.671 275.911 149.221 275.828 149.77 275.857H181.652C182.201 275.828 182.751 275.911 183.267 276.1C183.783 276.29 184.255 276.583 184.654 276.961C185.053 277.34 185.371 277.795 185.589 278.3C185.806 278.806 185.918 279.35 185.918 279.9C185.918 280.45 185.806 280.994 185.589 281.499C185.371 282.004 185.053 282.46 184.654 282.838C184.255 283.216 183.783 283.509 183.267 283.699C182.751 283.889 182.201 283.972 181.652 283.942Z" fill="#263238" stroke="#263238" stroke-width="1.17" stroke-linecap="round" stroke-linejoin="round"/>
<path d="M266.455 283.976H168.303L144.892 220.258H243.043L266.455 283.976Z" fill="#263238" stroke="#263238" stroke-width="1.17" stroke-linecap="round" stroke-linejoin="round"/>
<path d="M260.229 277.358H176.41L156.427 222.953H240.234L260.229 277.358Z" fill="#808080" stroke="#263238" stroke-width="1.17" stroke-linecap="round" stroke-linejoin="round"/>
<path d="M276.681 306.736C274.405 310.083 271.828 313.216 268.982 316.096C259.999 324.212 252.274 333.62 246.062 344.012C237.263 358.929 231.133 374.174 225.306 387.372C219.479 400.57 208.926 424.929 203.649 432.347C198.373 439.765 194.804 443.731 194.804 443.731C194.804 443.731 186.088 443.93 175.768 443.017C165.449 442.105 161.178 440.244 161.05 442.935C160.921 445.626 168.07 453.009 173.147 454.296C178.225 455.583 184.847 457.549 186.392 459.081C187.936 460.614 189.902 462.369 192.499 461.246C195.097 460.123 202.83 449.3 211.477 441.847C220.123 434.394 230.442 427.012 239.779 409.637C249.115 392.263 249.607 382.329 256.159 375.801C262.711 369.272 269.614 359.035 277.968 353.641C286.321 348.247 311.254 338.255 319.222 327.901C327.19 317.546 323.036 304.875 315.373 300.347C307.709 295.819 282.694 294.182 276.681 306.736Z" fill="#263238" stroke="#263238" stroke-width="1.17" stroke-linecap="round" stroke-linejoin="round"/>
<path d="M209.826 421.395C208.025 425.186 205.965 428.849 203.66 432.357C198.325 439.764 194.815 443.742 194.815 443.742C194.815 443.742 186.098 443.94 175.779 443.028C165.46 442.115 161.189 440.255 161.06 442.946C160.932 445.637 168.08 453.02 173.158 454.307C178.236 455.594 184.858 457.559 186.403 459.092C187.947 460.625 189.913 462.38 192.51 461.256C195.107 460.133 202.841 449.311 211.487 441.858C215.512 438.348 219.9 434.92 224.357 430.474C218.686 429.035 213.606 425.861 209.826 421.395Z" fill="white" stroke="#263238" stroke-width="1.17" stroke-linecap="round" stroke-linejoin="round"/>
<path d="M192.51 461.255C193.906 460.321 195.15 459.177 196.195 457.862C189.175 456.47 185.595 452.948 182.389 452.012C179.463 451.149 176.665 449.898 174.071 448.292L177.581 443.132L175.802 442.98C165.483 442.067 161.212 440.207 161.084 442.898C160.955 445.589 168.104 452.972 173.182 454.259C178.259 455.546 184.882 457.511 186.426 459.044C187.97 460.577 189.971 462.379 192.51 461.255Z" fill="#24B2B4" stroke="#263238" stroke-width="1.17" stroke-linecap="round" stroke-linejoin="round"/>
<path d="M204.643 339.679C206.006 345.544 208.019 351.238 210.645 356.656C214.786 364.94 223.901 373.633 230.535 378.605C237.169 383.578 258.486 402.625 269.051 417.742C270.373 419.637 265.319 426.025 259.106 431.618C252.893 437.211 250.202 439.281 253.514 440.311C256.825 441.341 264.699 440.931 272.573 434.309C280.447 427.687 285.618 423.334 288.099 417.929C289.339 415.238 282.506 411.915 278.364 408.405C274.222 404.895 258.896 381.694 254.134 370.965C249.372 360.236 237.368 344.874 228.464 339.492" fill="#263238"/>
<path d="M204.643 339.679C206.006 345.544 208.019 351.238 210.645 356.656C214.786 364.94 223.901 373.633 230.535 378.605C237.169 383.578 258.486 402.625 269.051 417.742C270.373 419.637 265.319 426.025 259.106 431.618C252.893 437.211 250.202 439.281 253.514 440.311C256.825 441.341 264.699 440.931 272.573 434.309C280.447 427.687 285.618 423.334 288.099 417.929C289.339 415.238 282.506 411.915 278.364 408.405C274.222 404.895 258.896 381.694 254.134 370.965C249.372 360.236 237.367 344.874 228.464 339.492" stroke="#263238" stroke-width="1.17" stroke-linecap="round" stroke-linejoin="round"/>
<path d="M288.088 417.958C289.328 415.267 282.495 411.944 278.354 408.434C274.844 405.474 263.483 388.602 257.118 376.914L243.078 389.363C251.841 397.471 262.547 408.364 269.099 417.747C270.421 419.642 265.367 426.031 259.154 431.623C252.941 437.216 250.25 439.287 253.561 440.316C256.872 441.346 264.747 440.936 272.621 434.314C280.495 427.692 285.608 423.34 288.088 417.958Z" fill="white" stroke="#263238" stroke-width="1.17" stroke-linecap="round" stroke-linejoin="round"/>
<path d="M283.829 412.453C282.717 414.115 281.266 416.373 279.593 419.192C275.662 425.815 264.898 434.309 263.447 432.858C262.574 431.872 261.842 430.769 261.271 429.582C260.569 430.261 259.844 430.951 259.095 431.618C252.882 437.21 250.191 439.281 253.502 440.311C256.813 441.34 264.687 440.931 272.562 434.309C280.436 427.687 285.607 423.334 288.087 417.929C288.836 416.314 286.613 414.454 283.829 412.453Z" fill="#24B2B4" stroke="#263238" stroke-width="1.17" stroke-linecap="round" stroke-linejoin="round"/>
<path d="M340.059 431.41H269.66V434.721H340.059V431.41Z" fill="white" stroke="#263238" stroke-width="1.17" stroke-linecap="round" stroke-linejoin="round"/>
<path d="M276.072 342.586L263.81 460.358C263.797 460.49 263.812 460.624 263.854 460.75C263.895 460.876 263.963 460.991 264.052 461.09C264.142 461.188 264.251 461.266 264.372 461.319C264.494 461.373 264.625 461.4 264.758 461.399C264.985 461.399 265.204 461.317 265.376 461.169C265.547 461.021 265.66 460.816 265.694 460.592L284.005 342.586H276.072Z" fill="white" stroke="#263238" stroke-width="1.17" stroke-linecap="round" stroke-linejoin="round"/>
<path d="M332.396 342.586L344.716 460.358C344.731 460.49 344.717 460.623 344.677 460.749C344.637 460.875 344.57 460.991 344.482 461.089C344.393 461.188 344.285 461.266 344.164 461.32C344.043 461.373 343.912 461.4 343.78 461.399C343.552 461.402 343.332 461.321 343.16 461.172C342.987 461.024 342.875 460.817 342.844 460.592L324.533 342.586H332.396Z" fill="white" stroke="#263238" stroke-width="1.17" stroke-linecap="round" stroke-linejoin="round"/>
<path d="M310.036 342.586L310.609 460.452C310.606 460.702 310.506 460.941 310.329 461.119C310.151 461.296 309.912 461.396 309.662 461.399C309.419 461.4 309.187 461.306 309.012 461.138C308.837 460.97 308.735 460.741 308.726 460.499L302.139 342.586H310.036Z" fill="white" stroke="#263238" stroke-width="1.17" stroke-linecap="round" stroke-linejoin="round"/>
<path d="M336.315 324.773H271.123C267.911 324.773 265.308 327.377 265.308 330.588V338.006C265.308 341.218 267.911 343.821 271.123 343.821H336.315C339.526 343.821 342.13 341.218 342.13 338.006V330.588C342.13 327.377 339.526 324.773 336.315 324.773Z" fill="#24B2B4"/>
<mask id="mask0_5538_9193" style="mask-type:luminance" maskUnits="userSpaceOnUse" x="265" y="324" width="78" height="20">
<path d="M336.316 324.773H271.123C267.912 324.773 265.309 327.377 265.309 330.588V338.006C265.309 341.218 267.912 343.821 271.123 343.821H336.316C339.527 343.821 342.131 341.218 342.131 338.006V330.588C342.131 327.377 339.527 324.773 336.316 324.773Z" fill="white"/>
</mask>
<g mask="url(#mask0_5538_9193)">
<path opacity="0.2" d="M336.351 324.773H272.609L270.714 328.751C270.714 328.751 329.542 329.781 329.542 333.174C329.542 336.567 330.56 341.001 319.012 341.001C309.652 341.001 278.237 341.446 266.607 341.61C267.072 342.192 267.644 342.681 268.292 343.049L271.709 343.821H336.351C337.903 343.821 339.391 343.205 340.488 342.108C341.585 341.011 342.201 339.523 342.201 337.971V330.553C342.183 329.014 341.558 327.544 340.463 326.462C339.368 325.38 337.891 324.773 336.351 324.773Z" fill="black"/>
</g>
<path d="M336.315 324.773H271.123C267.911 324.773 265.308 327.377 265.308 330.588V338.006C265.308 341.218 267.911 343.821 271.123 343.821H336.315C339.526 343.821 342.13 341.218 342.13 338.006V330.588C342.13 327.377 339.526 324.773 336.315 324.773Z" stroke="#263238" stroke-width="1.17" stroke-linecap="round" stroke-linejoin="round"/>
<path d="M206.293 347.125C204.843 342.363 198.841 332.839 227.623 312.961C242.833 302.431 275.873 294.323 275.873 294.323L278.974 290.812C278.974 290.812 287.878 300.173 305.275 299.517C322.673 298.862 333.437 291.234 335.508 291.854C337.579 292.474 337.778 297.856 336.959 308C336.14 318.144 335.087 323.327 327.014 325.807C318.941 328.288 301.134 329.118 288.299 328.919C281.932 328.901 275.57 328.553 269.239 327.878C269.239 327.878 241.709 345.276 224.522 346.516" fill="#263238"/>
<path d="M206.293 347.125C204.843 342.363 198.841 332.839 227.623 312.961C242.833 302.431 275.873 294.323 275.873 294.323L278.974 290.812C278.974 290.812 287.878 300.173 305.275 299.517C322.673 298.862 333.437 291.234 335.508 291.854C337.579 292.474 337.778 297.856 336.959 308C336.14 318.144 335.087 323.327 327.014 325.807C318.941 328.288 301.134 329.118 288.299 328.919C281.932 328.901 275.57 328.553 269.239 327.878C269.239 327.878 241.709 345.276 224.522 346.516" stroke="#263238" stroke-width="1.17" stroke-linecap="round" stroke-linejoin="round"/>
<path d="M270.069 233.05C268.817 233.436 230.933 240.913 227.622 240.292C224.311 239.672 215.617 232.219 212.505 232.418C209.393 232.617 203.145 233.67 202.572 235.32C201.999 236.97 204.023 242.574 204.023 242.574C204.023 242.574 201.952 245.674 202.981 247.125C204.011 248.576 210.001 245.054 210.001 245.054C210.001 245.054 216.834 250.027 219.935 248.986C223.035 247.944 226.358 246.716 226.358 246.716C226.358 246.716 275.018 249.606 275.638 249.816C276.259 250.027 282.261 251.267 282.881 242.574C283.501 233.881 277.323 230.769 270.069 233.05Z" fill="white" stroke="#263238" stroke-width="1.17" stroke-linecap="round" stroke-linejoin="round"/>
<path d="M204.023 242.575L212.506 235.531" stroke="#263238" stroke-width="1.17" stroke-linecap="round" stroke-linejoin="round"/>
<path d="M207.123 239.458L211.674 225.172L213.546 225.581L211.265 235.936L207.123 239.458Z" fill="#263238"/>
<path d="M240.41 248.164C240.41 248.164 190.1 262.029 182.027 261.034C173.954 260.04 171.497 256.471 169.602 256.471C167.707 256.471 162.582 258.963 160.242 258.753C157.902 258.542 155.281 257.922 155.281 259.373C155.281 260.823 157.352 263.105 158.592 263.105C159.833 263.105 164.805 262.894 164.805 262.894C164.805 262.894 155.071 265.796 154.649 267.656C154.56 268.093 154.56 268.542 154.648 268.979C154.737 269.416 154.912 269.83 155.165 270.197C155.417 270.564 155.741 270.876 156.117 271.115C156.492 271.354 156.913 271.515 157.352 271.587C158.342 271.767 159.269 272.198 160.043 272.839C160.463 274.466 161.164 276.006 162.114 277.391C163.354 278.841 167.075 279.462 171.217 278.631C175.358 277.8 182.612 274.08 184.262 273.038C185.912 271.997 236.234 267.446 239.966 266.627C243.698 265.808 248.249 265.796 249.7 263.304C251.151 260.812 240.41 248.164 240.41 248.164Z" fill="white"/>
<mask id="mask1_5538_9193" style="mask-type:luminance" maskUnits="userSpaceOnUse" x="154" y="248" width="96" height="31">
<path d="M240.409 248.16C240.409 248.16 190.099 262.025 182.026 261.03C173.953 260.036 171.496 256.467 169.601 256.467C167.706 256.467 162.581 258.959 160.241 258.749C157.901 258.538 155.28 257.918 155.28 259.369C155.28 260.82 157.351 263.101 158.591 263.101C159.832 263.101 164.804 262.89 164.804 262.89C164.804 262.89 155.07 265.792 154.648 267.652C154.559 268.089 154.559 268.539 154.647 268.975C154.736 269.412 154.911 269.826 155.164 270.193C155.416 270.56 155.74 270.872 156.116 271.111C156.492 271.35 156.912 271.511 157.351 271.584C158.341 271.763 159.268 272.194 160.042 272.835C160.462 274.462 161.163 276.002 162.113 277.387C163.353 278.838 167.074 279.458 171.216 278.627C175.357 277.796 182.611 274.076 184.261 273.034C185.911 271.993 236.233 267.442 239.965 266.623C243.697 265.804 248.248 265.792 249.699 263.3C251.15 260.808 240.409 248.16 240.409 248.16Z" fill="white"/>
</mask>
<g mask="url(#mask1_5538_9193)">
<path d="M179.57 271.069C170.923 271.069 172.842 262.423 169.964 263.874C167.449 265.126 157.632 266.377 154.848 269.548C155.072 270.072 155.42 270.533 155.863 270.891C156.305 271.25 156.828 271.496 157.387 271.607C158.376 271.786 159.303 272.218 160.078 272.859C160.497 274.485 161.198 276.026 162.148 277.411C163.389 278.861 167.109 279.481 171.251 278.651C175.393 277.82 182.647 274.099 184.297 273.058C185.946 272.017 236.268 267.465 240 266.646C243.007 265.968 246.564 265.839 248.576 264.505L249.746 263.335L244.399 258.117C244.399 258.117 188.251 271.069 179.57 271.069Z" fill="#24B2B4"/>
<path opacity="0.5" d="M179.57 271.069C170.923 271.069 172.842 262.423 169.964 263.874C167.449 265.126 157.632 266.377 154.848 269.548C155.072 270.072 155.42 270.533 155.863 270.891C156.305 271.25 156.828 271.496 157.387 271.607C158.376 271.786 159.303 272.218 160.078 272.859C160.497 274.485 161.198 276.026 162.148 277.411C163.389 278.861 167.109 279.481 171.251 278.651C175.393 277.82 182.647 274.099 184.297 273.058C185.946 272.017 236.268 267.465 240 266.646C243.007 265.968 246.564 265.839 248.576 264.505L249.746 263.335L244.399 258.117C244.399 258.117 188.251 271.069 179.57 271.069Z" fill="white"/>
</g>
<path d="M240.41 248.164C240.41 248.164 190.1 262.029 182.027 261.034C173.954 260.04 171.497 256.471 169.602 256.471C167.707 256.471 162.582 258.963 160.242 258.753C157.902 258.542 155.281 257.922 155.281 259.373C155.281 260.823 157.352 263.105 158.592 263.105C159.833 263.105 164.805 262.894 164.805 262.894C164.805 262.894 155.071 265.796 154.649 267.656C154.56 268.093 154.56 268.542 154.648 268.979C154.737 269.416 154.912 269.83 155.165 270.197C155.417 270.564 155.741 270.876 156.117 271.115C156.492 271.354 156.913 271.515 157.352 271.587C158.342 271.767 159.269 272.198 160.043 272.839C160.463 274.466 161.164 276.006 162.114 277.391C163.354 278.841 167.075 279.462 171.217 278.631C175.358 277.8 182.612 274.08 184.262 273.038C185.912 271.997 236.234 267.446 239.966 266.627C243.698 265.808 248.249 265.796 249.7 263.304C251.151 260.812 240.41 248.164 240.41 248.164Z" stroke="#263238" stroke-width="1.17" stroke-linecap="round" stroke-linejoin="round"/>
<path d="M282.904 197.432C282.904 197.432 278.353 209.846 272.561 218.129C266.77 226.413 264.278 235.118 267.998 244.431C268.989 247.096 270.563 249.506 272.606 251.484C274.648 253.462 277.108 254.958 279.804 255.862C279.804 255.862 276.902 283.193 277.733 290.447C278.563 297.701 289.737 306.183 306.515 306.827C323.292 307.47 337.777 301.445 337.777 295.642C337.777 289.839 325.983 258.997 325.983 252.574C325.983 246.151 327.013 226.074 321.42 208.114C315.828 190.155 296.16 184.176 282.904 197.432Z" fill="#24B2B4"/>
<mask id="mask2_5538_9193" style="mask-type:luminance" maskUnits="userSpaceOnUse" x="266" y="190" width="72" height="117">
<path d="M282.903 197.432C282.903 197.432 278.352 209.846 272.56 218.129C266.769 226.413 264.277 235.118 267.997 244.431C268.988 247.096 270.562 249.506 272.605 251.484C274.647 253.462 277.107 254.958 279.803 255.862C279.803 255.862 276.901 283.193 277.732 290.447C278.562 297.701 289.736 306.183 306.514 306.827C323.291 307.47 337.776 301.445 337.776 295.642C337.776 289.839 325.982 258.997 325.982 252.574C325.982 246.151 327.012 226.074 321.419 208.114C315.827 190.155 296.159 184.176 282.903 197.432Z" fill="white"/>
</mask>
<g mask="url(#mask2_5538_9193)">
<path opacity="0.2" d="M321.419 207.984C318.412 198.285 311.311 192.13 303.331 190.586C299.482 191.44 288.964 193.897 286.343 194.517C285.117 195.391 283.967 196.365 282.903 197.43C282.903 197.43 278.352 209.844 272.56 218.128C268.664 223.685 266.277 229.43 266.242 235.409C281.522 239.024 304.852 244.909 302.512 245.564C299.154 246.524 284.752 238.837 289.069 243.645C293.386 248.454 316.447 270.555 309.719 268.613C302.992 266.671 288.109 250.841 291.959 258.528C295.808 266.215 306.361 278.699 303.004 278.699C299.646 278.699 281.873 260.926 288.109 271.491C294.346 282.057 322.683 298.869 313.557 301.268C308.292 302.649 297.118 302.286 290.637 303.374C295.669 305.463 301.043 306.609 306.49 306.755C323.256 307.375 337.753 301.373 337.753 295.57C337.753 289.767 325.959 258.926 325.959 252.502C325.959 246.079 326.989 226.002 321.419 207.984Z" fill="black"/>
</g>
<path d="M282.904 197.432C282.904 197.432 278.353 209.846 272.561 218.129C266.77 226.413 264.278 235.118 267.998 244.431C268.989 247.096 270.563 249.506 272.606 251.484C274.648 253.462 277.108 254.958 279.804 255.862C279.804 255.862 276.902 283.193 277.733 290.447C278.563 297.701 289.737 306.183 306.515 306.827C323.292 307.47 337.777 301.445 337.777 295.642C337.777 289.839 325.983 258.997 325.983 252.574C325.983 246.151 327.013 226.074 321.42 208.114C315.828 190.155 296.16 184.176 282.904 197.432Z" stroke="#263238" stroke-width="1.17" stroke-linecap="round" stroke-linejoin="round"/>
<path d="M285.455 247.672C285.455 247.672 300.665 272.242 322.895 279.262" stroke="#263238" stroke-width="1.17" stroke-linecap="round" stroke-linejoin="round"/>
<path d="M283.7 251.766C283.7 251.766 289.55 271.071 304.76 280.431" stroke="#263238" stroke-width="1.17" stroke-linecap="round" stroke-linejoin="round"/>
<path d="M286.835 236.301C286.835 236.301 300.582 230.31 306.222 226.438" stroke="#263238" stroke-width="1.17" stroke-linecap="round" stroke-linejoin="round"/>
<path d="M281.196 237.719C281.196 237.719 286.134 238.772 298.817 237.719" stroke="#263238" stroke-width="1.17" stroke-linecap="round" stroke-linejoin="round"/>
<path d="M281.664 200.531C278.471 202.567 275.55 205.001 272.971 207.774C268.209 212.746 245.219 247.554 245.219 247.554C245.219 247.554 252.052 261.851 254.122 262.26C256.193 262.67 292.229 231.84 295.54 228.096C298.852 224.352 300.922 217.566 299.893 214.63" fill="#24B2B4"/>
<mask id="mask3_5538_9193" style="mask-type:luminance" maskUnits="userSpaceOnUse" x="245" y="200" width="56" height="63">
<path d="M281.665 200.535C278.472 202.571 275.551 205.004 272.972 207.777C268.21 212.75 245.22 247.557 245.22 247.557C245.22 247.557 252.053 261.855 254.123 262.264C256.194 262.674 292.23 231.844 295.541 228.1C298.853 224.356 300.923 217.57 299.894 214.634" fill="white"/>
</mask>
<g mask="url(#mask3_5538_9193)">
<path opacity="0.2" d="M295.541 228.078C298.852 224.345 300.923 217.548 299.893 214.611L291.703 208.293L289.082 210.996C289.082 210.996 288.907 221.596 279.476 227.317C270.046 233.038 266.033 233.085 264.594 240.281C263.155 247.476 267.952 249.407 262.196 250.366C256.439 251.326 252.59 251.805 252.59 255.655C252.628 257.56 252.772 259.463 253.023 261.352C253.296 261.744 253.673 262.051 254.111 262.242C256.193 262.651 292.229 231.798 295.541 228.078Z" fill="black"/>
</g>
<path d="M281.664 200.531C278.471 202.567 275.55 205.001 272.971 207.774C268.209 212.746 245.219 247.554 245.219 247.554C245.219 247.554 252.052 261.851 254.122 262.26C256.193 262.67 292.229 231.84 295.54 228.096C298.852 224.352 300.922 217.566 299.893 214.63" stroke="#263238" stroke-width="1.17" stroke-linecap="round" stroke-linejoin="round"/>
<path d="M237.356 249.602C237.356 249.602 243.78 264.929 245.219 266.591C246.658 268.252 254.333 267.211 256.813 265.339C259.294 263.467 258.884 259.758 258.884 259.758C258.884 259.758 249.36 242.98 248.354 242.208C247.348 241.436 246.903 243.249 242.504 244.7C238.105 246.151 236.526 246.712 237.356 249.602Z" fill="white" stroke="#263238" stroke-width="1.17" stroke-linecap="round" stroke-linejoin="round"/>
<path d="M247.71 158.296C247.71 158.296 247.289 164.298 248.33 166.158C249.372 168.019 252.262 169.891 252.262 172.371C252.262 174.851 250.191 178.221 250.811 180.035C251.431 181.848 254.754 182.105 254.754 182.105C254.754 182.105 260.955 189.769 262.827 192.46C264.699 195.151 265.518 194.11 268.419 193.291C271.321 192.472 277.522 187.078 281.044 182.936C284.565 178.794 278.704 166.158 271.11 157.676C263.517 149.193 252.051 149.392 249.571 151.826C247.09 154.259 247.71 158.296 247.71 158.296Z" fill="white"/>
<mask id="mask4_5538_9193" style="mask-type:luminance" maskUnits="userSpaceOnUse" x="247" y="150" width="36" height="45">
<path d="M247.71 158.296C247.71 158.296 247.289 164.298 248.33 166.158C249.372 168.019 252.262 169.891 252.262 172.371C252.262 174.851 250.191 178.221 250.811 180.035C251.431 181.848 254.754 182.105 254.754 182.105C254.754 182.105 260.955 189.769 262.827 192.46C264.699 195.151 265.518 194.11 268.419 193.291C271.321 192.472 277.522 187.078 281.044 182.936C284.565 178.794 278.704 166.158 271.11 157.676C263.517 149.193 252.051 149.392 249.571 151.826C247.09 154.259 247.71 158.296 247.71 158.296Z" fill="white"/>
</mask>
<g mask="url(#mask4_5538_9193)">
<path d="M264.125 152.492C263.166 157.172 262.207 165.21 265.085 170.651C269.414 178.841 272.772 183.134 270.373 189.862C269.94 191.032 269.496 192.108 269.063 193.044C272.152 191.722 277.768 186.785 281.044 182.936C284.554 178.794 278.704 166.158 271.11 157.675C269.151 155.499 266.776 153.737 264.125 152.492Z" fill="#24B2B4"/>
<path opacity="0.5" d="M264.125 152.492C263.166 157.172 262.207 165.21 265.085 170.651C269.414 178.841 272.772 183.134 270.373 189.862C269.94 191.032 269.496 192.108 269.063 193.044C272.152 191.722 277.768 186.785 281.044 182.936C284.554 178.794 278.704 166.158 271.11 157.675C269.151 155.499 266.776 153.737 264.125 152.492Z" fill="white"/>
<path d="M252.262 167.198C252.262 167.198 252.262 164.085 255.994 166.156" stroke="#263238" stroke-width="1.17" stroke-linecap="round" stroke-linejoin="round"/>
<path d="M254.917 170.078L255.408 172.945C255.408 172.945 257.678 173.729 259.351 170.768" stroke="#263238" stroke-width="1.17" stroke-linecap="round" stroke-linejoin="round"/>
</g>
<path d="M247.71 158.296C247.71 158.296 247.289 164.298 248.33 166.158C249.372 168.019 252.262 169.891 252.262 172.371C252.262 174.851 250.191 178.221 250.811 180.035C251.431 181.848 254.754 182.105 254.754 182.105C254.754 182.105 260.955 189.769 262.827 192.46C264.699 195.151 265.518 194.11 268.419 193.291C271.321 192.472 277.522 187.078 281.044 182.936C284.565 178.794 278.704 166.158 271.11 157.676C263.517 149.193 252.051 149.392 249.571 151.826C247.09 154.259 247.71 158.296 247.71 158.296Z" stroke="#263238" stroke-width="1.17" stroke-linecap="round" stroke-linejoin="round"/>
<path d="M241.287 149.182V150.013L240.912 160.157L252.086 161.607L254.578 157.255V162.017C258.025 161.728 261.493 162.224 264.722 163.468C270.104 165.539 276.936 180.245 276.527 186.248C276.117 192.25 270.934 193.49 271.554 202.628C272.175 211.765 286.039 220.821 296.569 215.03C307.099 209.238 308.796 201.773 313.136 203.224C317.477 204.675 324.111 213.579 328.253 200.943C332.394 188.307 330.534 180.245 320.8 169.891C311.065 159.536 303.414 160.367 302.162 152.084C300.91 143.8 298.23 132.615 289.292 126.344C280.353 120.072 267.553 119.721 256.532 124.483C245.51 129.245 241.287 143.8 241.287 149.182Z" fill="#263238"/>
<mask id="mask5_5538_9193" style="mask-type:luminance" maskUnits="userSpaceOnUse" x="240" y="121" width="91" height="96">
<path d="M241.287 149.182V150.013L240.912 160.157L252.086 161.607L254.578 157.255V162.017C258.025 161.728 261.493 162.224 264.722 163.468C270.104 165.539 276.936 180.245 276.527 186.248C276.117 192.25 270.934 193.49 271.554 202.628C272.175 211.765 286.039 220.821 296.569 215.03C307.099 209.238 308.796 201.773 313.136 203.224C317.477 204.675 324.111 213.579 328.253 200.943C332.394 188.307 330.534 180.245 320.8 169.891C311.065 159.536 303.414 160.367 302.162 152.084C300.91 143.8 298.23 132.615 289.292 126.344C280.353 120.072 267.553 119.721 256.532 124.483C245.51 129.245 241.287 143.8 241.287 149.182Z" fill="white"/>
</mask>
<g mask="url(#mask5_5538_9193)">
<path d="M247.511 153.933C247.438 153.944 247.363 153.944 247.289 153.933C246.119 153.664 245.932 151.593 245.815 146.562C245.815 145.251 245.756 143.906 245.674 142.829C245.674 142.724 245.674 142.63 245.674 142.56C244.68 143.73 242.574 148.703 240.994 153.09L239.895 152.692C244.13 140.899 245.511 141.074 245.955 141.145C246.762 141.25 246.844 142.315 246.879 142.712C246.961 143.812 246.996 145.181 247.02 146.491C247.02 148.574 247.149 151.99 247.581 152.704C248.147 152.122 248.593 151.434 248.892 150.68C250.062 148.246 251.232 147.17 252.308 147.17C253.689 147.17 254.414 149.065 254.929 150.411C255.054 150.743 255.198 151.067 255.362 151.382C255.877 151.522 257.702 149.662 258.673 148.656L259.527 147.79C259.723 147.534 259.974 147.326 260.262 147.18C260.55 147.034 260.866 146.955 261.189 146.948C261.844 147.053 262.16 147.661 262.499 148.293C262.809 148.976 263.259 149.586 263.821 150.083C264.195 150.376 264.383 150.329 264.465 150.317C265.307 150.107 266.325 147.837 267.507 145.216C267.776 144.596 268.068 143.953 268.384 143.274C268.7 142.595 269.297 141.46 270.162 141.542C271.251 141.624 271.754 143.332 272.502 145.918C272.959 147.982 273.75 149.958 274.842 151.768C275.112 152.096 275.474 152.47 275.814 152.435C276.726 152.283 277.732 149.58 278.341 147.966C278.61 147.159 278.947 146.376 279.347 145.626C279.436 145.437 279.576 145.277 279.752 145.165C279.929 145.053 280.133 144.994 280.341 144.994C281.207 144.994 281.804 146.164 282.611 147.755C283.22 148.925 284.05 150.575 284.741 150.844C284.881 150.902 284.928 150.844 284.963 150.844C285.419 150.61 285.805 149.101 286.133 147.895C286.409 146.539 286.89 145.234 287.56 144.023C287.733 143.739 287.964 143.495 288.239 143.307C288.513 143.12 288.824 142.993 289.152 142.935C290.684 142.689 292.392 144.011 293.527 144.9C293.469 144.304 293.34 143.485 293.235 142.771C292.65 138.875 292.486 136.991 293.457 136.453C293.913 136.207 294.452 136.348 295.06 136.886C296.113 137.882 297.113 138.932 298.055 140.033C300.196 142.443 303.449 146.07 304.759 145.719C305.122 145.626 305.321 145.064 305.415 144.619L306.585 144.853C306.339 146.023 305.836 146.655 305.087 146.854C303.203 147.346 300.641 144.666 297.201 140.817C296.268 139.722 295.276 138.679 294.229 137.693C294.145 137.612 294.05 137.541 293.949 137.482C293.868 139.173 293.997 140.867 294.335 142.525C294.756 145.275 294.838 146.035 294.335 146.351C294.218 146.428 294.082 146.468 293.943 146.468C293.803 146.468 293.667 146.428 293.551 146.351C293.352 146.211 293.094 146.023 292.814 145.789C291.889 145.076 290.345 143.894 289.304 144.046C289.135 144.077 288.976 144.144 288.836 144.243C288.697 144.342 288.581 144.471 288.496 144.619C287.907 145.722 287.481 146.904 287.233 148.129C286.776 149.861 286.39 151.359 285.466 151.827C285.283 151.912 285.083 151.957 284.881 151.957C284.679 151.957 284.479 151.912 284.296 151.827C283.196 151.394 282.366 149.756 281.558 148.188C281.239 147.46 280.847 146.766 280.388 146.117C280.025 146.82 279.72 147.552 279.476 148.305C278.61 150.645 277.627 153.266 276.024 153.511C275.612 153.538 275.201 153.45 274.838 153.255C274.474 153.061 274.171 152.769 273.965 152.412C272.773 150.499 271.914 148.399 271.426 146.199C271.168 144.966 270.718 143.782 270.092 142.689C269.858 143.019 269.659 143.372 269.496 143.742C269.18 144.409 268.887 145.064 268.618 145.672C267.156 148.937 266.184 151.09 264.78 151.429C264.489 151.488 264.188 151.477 263.901 151.398C263.615 151.318 263.351 151.173 263.131 150.973C262.445 150.378 261.894 149.644 261.516 148.82C261.396 148.553 261.238 148.305 261.048 148.083C261.048 148.083 260.861 148.083 260.405 148.586L259.562 149.452C257.62 151.441 256.38 152.634 255.315 152.552C255.138 152.535 254.966 152.478 254.814 152.385C254.662 152.291 254.533 152.165 254.438 152.014C254.217 151.642 254.033 151.251 253.888 150.844C253.56 149.978 252.928 148.375 252.297 148.352C252.109 148.352 251.325 148.527 249.957 151.207C248.95 153.114 248.237 153.933 247.511 153.933Z" fill="#575757"/>
<path d="M270.83 200.944C270.83 200.944 273.732 190.145 276.68 193.573C279.628 197.001 281.676 198.054 281.945 195.153C282.214 192.251 281.945 188.039 284.847 191.994C287.748 195.948 294.85 199.891 295.377 193.83C295.903 187.77 296.699 179.603 300.127 183.827C303.555 188.051 306.445 191.198 306.714 188.823C306.983 186.448 309.346 184.611 310.399 187.243C311.452 189.876 312.248 192.52 313.032 186.459C313.816 180.399 310.13 173.812 314.085 175.391C318.04 176.971 319.935 182.236 319.935 179.346C319.935 176.456 315.185 173.016 319.408 174.069C323.632 175.122 324.147 177.766 324.673 176.187C325.2 174.607 322.333 170.91 325.996 170.91" stroke="#575757" stroke-width="1.17" stroke-miterlimit="10"/>
</g>
<path d="M241.287 149.182V150.013L240.912 160.157L252.086 161.607L254.578 157.255V162.017C258.025 161.728 261.493 162.224 264.722 163.468C270.104 165.539 276.936 180.245 276.527 186.248C276.117 192.25 270.934 193.49 271.554 202.628C272.175 211.765 286.039 220.821 296.569 215.03C307.099 209.238 308.796 201.773 313.136 203.224C317.477 204.675 324.111 213.579 328.253 200.943C332.394 188.307 330.534 180.245 320.8 169.891C311.065 159.536 303.414 160.367 302.162 152.084C300.91 143.8 298.23 132.615 289.292 126.344C280.353 120.072 267.553 119.721 256.532 124.483C245.51 129.245 241.287 143.8 241.287 149.182Z" stroke="#263238" stroke-width="1.17" stroke-linecap="round" stroke-linejoin="round"/>
<path d="M-0.339844 462.199H427.81" stroke="#263238" stroke-width="1.17" stroke-miterlimit="10"/>
</g>
<defs>
<clipPath id="clip0_5538_9193">
<rect width="428" height="491" fill="white"/>
</clipPath>
</defs>
</svg>
