<svg width="50" height="50" viewBox="0 0 50 50" fill="none" xmlns="http://www.w3.org/2000/svg">
<rect width="50.002" height="50.002" rx="7.57605" fill="#CCD6FA"/>
<g clip-path="url(#clip0_2800_1835)">
<path d="M29.0312 35.6254H15.5312C14.1306 35.6254 13 34.4947 13 33.0941V16.0166C13 14.616 14.1306 13.4854 15.5312 13.4854H34.0938C35.4944 13.4854 36.625 14.616 36.625 16.0166V28.251C36.625 28.7235 36.2537 29.0947 35.7812 29.0947C35.3088 29.0947 34.9375 28.7235 34.9375 28.251V16.0166C34.9375 15.5441 34.5662 15.1729 34.0938 15.1729H15.5312C15.0587 15.1729 14.6875 15.5441 14.6875 16.0166V33.0941C14.6875 33.5666 15.0587 33.9379 15.5312 33.9379H29.0312C29.5037 33.9379 29.875 34.3091 29.875 34.7816C29.875 35.2541 29.5037 35.6254 29.0312 35.6254Z" fill="#4262D8"/>
<path d="M19.75 18.1087C19.2775 18.1087 18.9062 17.7375 18.9062 17.265V12.8438C18.9062 12.3713 19.2775 12 19.75 12C20.2225 12 20.5938 12.3713 20.5938 12.8438V17.265C20.5938 17.7375 20.2225 18.1087 19.75 18.1087ZM30.0775 18.1087C29.605 18.1087 29.2337 17.7375 29.2337 17.265V12.8438C29.2337 12.3713 29.605 12 30.0775 12C30.55 12 30.9212 12.3713 30.9212 12.8438V17.265C30.9212 17.7375 30.55 18.1087 30.0775 18.1087ZM35.7812 22.125H13.8438C13.3713 22.125 13 21.7537 13 21.2812C13 20.8088 13.3713 20.4375 13.8438 20.4375H35.7812C36.2537 20.4375 36.625 20.8088 36.625 21.2812C36.625 21.7537 36.2537 22.125 35.7812 22.125ZM34.0938 39C30.8369 39 28.1875 36.3506 28.1875 33.0938C28.1875 29.8369 30.8369 27.1875 34.0938 27.1875C37.3506 27.1875 40 29.8369 40 33.0938C40 36.3506 37.3506 39 34.0938 39ZM34.0938 28.875C32.9749 28.875 31.9018 29.3195 31.1106 30.1106C30.3195 30.9018 29.875 31.9749 29.875 33.0938C29.875 34.2126 30.3195 35.2857 31.1106 36.0769C31.9018 36.868 32.9749 37.3125 34.0938 37.3125C35.2126 37.3125 36.2857 36.868 37.0769 36.0769C37.868 35.2857 38.3125 34.2126 38.3125 33.0938C38.3125 31.9749 37.868 30.9018 37.0769 30.1106C36.2857 29.3195 35.2126 28.875 34.0938 28.875Z" fill="#4262D8"/>
<path d="M35.7813 35.625C35.6706 35.6263 35.5609 35.6045 35.4592 35.5609C35.3574 35.5173 35.266 35.4529 35.1906 35.3719L33.5031 33.6844C33.3441 33.5286 33.2532 33.3163 33.25 33.0938V30.5625C33.25 30.09 33.6213 29.7188 34.0938 29.7188C34.5663 29.7188 34.9375 30.09 34.9375 30.5625V32.7394L36.3719 34.1738C36.7094 34.5113 36.7094 35.0344 36.3719 35.3719C36.2031 35.5406 35.9838 35.625 35.7813 35.625Z" fill="#4262D8"/>
</g>
<defs>
<clipPath id="clip0_2800_1835">
<rect width="27" height="27" fill="white" transform="translate(13 12)"/>
</clipPath>
</defs>
</svg>
