<svg width="50" height="51" viewBox="0 0 50 51" fill="none" xmlns="http://www.w3.org/2000/svg">
<rect x="50" y="50.7266" width="50" height="50" rx="25" transform="rotate(-180 50 50.7266)" fill="white" fill-opacity="0.1"/>
<path d="M31.1346 24.3168L27.1154 20.2975C26.8333 20.0155 26.6982 19.6864 26.7099 19.3103C26.7217 18.9343 26.8568 18.6052 27.1154 18.3232C27.3974 18.0411 27.7324 17.8942 28.1202 17.8825C28.508 17.8707 28.8429 18.0059 29.125 18.2879L35.5769 24.7398C35.859 25.0219 36 25.3509 36 25.727C36 26.1031 35.859 26.4321 35.5769 26.7142L29.125 33.1661C28.8429 33.4482 28.508 33.5833 28.1202 33.5716C27.7324 33.5598 27.3974 33.4129 27.1154 33.1309C26.8568 32.8488 26.7217 32.5197 26.7099 32.1437C26.6982 31.7676 26.8333 31.4385 27.1154 31.1565L31.1346 27.1373L15.4103 27.1373C15.0107 27.1373 14.6757 27.0021 14.4054 26.7318C14.1351 26.4615 14 26.1266 14 25.727C14 25.3274 14.1351 24.9925 14.4054 24.7222C14.6757 24.4519 15.0107 24.3168 15.4103 24.3168L31.1346 24.3168Z" fill="white"/>
</svg>
