<svg width="49" height="49" viewBox="0 0 49 49" fill="none" xmlns="http://www.w3.org/2000/svg">
<path d="M39.2458 8.19107C37.306 6.98197 31.4822 12.3338 30.8624 11.7426C30.347 11.2503 34.5719 7.7357 33.7369 6.41576C32.9841 5.22606 28.2198 6.67901 18.7215 9.63387C14.3636 10.9917 12.1172 11.7399 10.1969 13.6787C9.52812 14.3548 7.40088 16.5051 7.04896 19.6549C7.01386 19.9625 7.00369 20.2183 7 20.3938V32.7222C7 37.966 11.8863 42.2158 17.9133 42.2158H32.0881C32.9555 42.2214 36.5948 42.1549 39.6476 39.5778C39.9468 39.3247 43.1465 36.5463 43.213 32.6834C43.213 32.628 43.213 32.5818 43.213 32.5523C43.213 28.993 43.213 25.4338 43.213 21.8745C43.213 21.7692 43.2305 21.517 43.213 21.1808C43.1705 20.3837 42.9867 19.6826 42.692 18.9123C42.3844 18.1087 41.9531 17.3614 41.0904 15.8641C40.707 15.2 40.1667 14.3031 40.0447 14.1091C39.8692 13.832 39.8655 13.8385 39.8009 13.6787C38.6223 10.77 40.1436 8.7499 39.2458 8.19107Z" fill="#24B2B4" stroke="black" stroke-width="0.169315" stroke-miterlimit="10"/>
<path d="M38.6511 28.709C37.5187 23.9261 32.8097 24.4295 32.8097 24.4295C32.8097 24.4295 30.5005 24.5219 29.0356 26.2991C28.268 27.2311 28.0611 28.2711 27.9188 29.0027C27.4034 31.6573 28.498 32.908 27.626 33.8806C27.0312 34.5439 25.9819 34.5651 25.1321 34.5817C24.2823 34.5983 23.305 34.6196 22.6871 34.0275C21.7477 33.126 22.6622 31.8107 22.0359 29.0045C21.8373 28.1132 21.6341 27.1682 20.9201 26.3009C19.4542 24.5219 17.1459 24.4314 17.1459 24.4314C17.1459 24.4314 12.4351 23.928 11.3046 28.7108C10.9249 30.3162 10.6709 30.6404 10.1038 31.2361C9.24382 32.1349 7.9793 32.4028 7.02329 32.4859C6.99577 33.2259 7.06784 33.9662 7.23758 34.687C7.5357 35.8591 8.06277 36.9607 8.78844 37.9282C9.25675 38.5619 9.79806 39.1383 10.4012 39.6454C11.5223 40.5668 12.8179 41.2524 14.2105 41.6608C15.1922 41.9565 16.2048 42.1381 17.2281 42.2021C17.5976 42.2261 17.7934 42.2224 19.0136 42.2206C20.0204 42.2206 21.0263 42.2206 22.0322 42.2206C24.5649 42.2086 25.8322 42.2021 26.5398 42.2067C28.2948 42.2187 30.059 42.2067 31.8186 42.2206C32.4847 42.2307 33.1507 42.1915 33.811 42.1033C34.5361 42.0073 35.2507 41.8444 35.9456 41.6165L36.0879 41.5685C37.1819 41.179 38.2165 40.6393 39.1619 39.9649C39.8031 39.482 40.3839 38.9238 40.892 38.3023C41.363 37.7426 42.2165 36.7127 42.7449 35.1516C43.0361 34.2883 43.1873 33.384 43.1928 32.473C42.6165 32.4933 41.0619 32.473 39.9904 31.5234C39.7106 31.2722 39.2127 31.0819 38.6511 28.709Z" fill="#FFFEFF" stroke="black" stroke-width="0.169315" stroke-miterlimit="10"/>
<path d="M17.0063 31.4047C18.396 31.4047 19.5225 30.2782 19.5225 28.8885C19.5225 27.4989 18.396 26.3724 17.0063 26.3724C15.6167 26.3724 14.4902 27.4989 14.4902 28.8885C14.4902 30.2782 15.6167 31.4047 17.0063 31.4047Z" fill="black"/>
<path d="M33.2134 31.4047C34.603 31.4047 35.7295 30.2782 35.7295 28.8885C35.7295 27.4989 34.603 26.3724 33.2134 26.3724C31.8238 26.3724 30.6973 27.4989 30.6973 28.8885C30.6973 30.2782 31.8238 31.4047 33.2134 31.4047Z" fill="black"/>
<path d="M25.1072 37.6234C24.7246 37.6233 24.3544 37.4882 24.0616 37.2419C22.8174 36.1981 21.7672 34.5207 21.2518 33.6137C21.0839 33.321 21.0107 32.9836 21.0423 32.6477C21.0739 32.3118 21.2087 31.9939 21.4282 31.7377C22.2954 30.725 23.4584 30.0097 24.7535 29.6927C24.9887 29.6391 25.2331 29.6391 25.4684 29.6927C26.7634 30.0097 27.9264 30.725 28.7936 31.7377C29.0131 31.9939 29.1478 32.3119 29.1792 32.6478C29.2107 32.9838 29.1373 33.3212 28.9691 33.6137C28.4537 34.5207 27.4044 36.2 26.1593 37.2419C25.8648 37.4896 25.492 37.6248 25.1072 37.6234Z" fill="#FBCC18" stroke="black" stroke-width="0.161349" stroke-miterlimit="10"/>
<path d="M25.107 33.5231C23.3862 33.2339 22.3359 32.6677 22.3359 32.6677C23.0906 34.3664 25.107 35.8082 25.107 35.8082C25.107 35.8082 27.128 34.3645 27.8836 32.6677C27.8836 32.6677 26.8287 33.2339 25.107 33.5231Z" fill="black"/>
</svg>
