<svg xmlns="http://www.w3.org/2000/svg" viewBox="0 0 1423.92 412.39"><circle cx="206.19" cy="206.19" r="206.19" style="fill:#24b2b4"/><path d="M333.65,210.32c-13.59-19.9-37.63-21.42-40.72-21.56l-82.16.11,32.06-39.17H207.58a28.37,28.37,0,0,0-22,10.46l-37.5,46,37.5,46a28.36,28.36,0,0,0,22,10.45h35.25l-32.17-39.3c45.33,0,77.12.15,82,.24a15.32,15.32,0,0,1,6.71,1.58,14.81,14.81,0,0,1,5.53,4.87,14.26,14.26,0,0,1,1.63,13.34,104.73,104.73,0,0,1-97.25,66.88A104.1,104.1,0,1,1,274.09,124.7h0a30.47,30.47,0,0,0-12.33-47.18A139.17,139.17,0,0,0,70.39,202.83a139,139,0,0,0,268.72,53C341.91,248.56,345.87,228.21,333.65,210.32Z" style="fill:#fff"/><path d="M571.92,187.54a20.87,20.87,0,0,0-8.92-8.75,29.12,29.12,0,0,0-13.66-3q-13.59,0-21.76,8.92t-8.18,23.8q0,15.89,8.59,24.79t23.64,8.92q10.3,0,17.43-5.24t10.39-15H543.94V201.28h60.87v26a54.89,54.89,0,0,1-10.55,19.47,55.84,55.84,0,0,1-18.9,14.57,58.58,58.58,0,0,1-25.86,5.56q-17,0-30.35-7.45a53,53,0,0,1-20.78-20.7q-7.44-13.25-7.44-30.27t7.44-30.35a53,53,0,0,1,20.7-20.78q13.26-7.44,30.27-7.45,20.63,0,34.77,10t18.74,27.65Z" style="fill:#24b2b4"/><path d="M705.93,227.14H642.61q.64,8.51,5.48,13a16.73,16.73,0,0,0,11.86,4.5q10.47,0,14.56-8.84h29.78A40.79,40.79,0,0,1,696,252a41.38,41.38,0,0,1-15,11.29,48.06,48.06,0,0,1-20.13,4.09A49,49,0,0,1,637,261.66a40.7,40.7,0,0,1-16.36-16.36q-5.89-10.63-5.89-24.87t5.81-24.87a40.23,40.23,0,0,1,16.28-16.37,49.4,49.4,0,0,1,24-5.72A48.85,48.85,0,0,1,684.5,179a39.94,39.94,0,0,1,16.11,15.87q5.8,10.31,5.81,24.06A70.94,70.94,0,0,1,705.93,227.14Zm-28.14-15.55a14.39,14.39,0,0,0-4.91-11.45,18.06,18.06,0,0,0-12.27-4.26A17.76,17.76,0,0,0,648.74,200q-4.83,4.09-6,11.62Z" style="fill:#24b2b4"/><path d="M806.72,227.14H743.4q.66,8.51,5.48,13a16.75,16.75,0,0,0,11.87,4.5q10.47,0,14.56-8.84h29.78a40.92,40.92,0,0,1-8.26,16.2,41.5,41.5,0,0,1-15,11.29,48,48,0,0,1-20.12,4.09,48.94,48.94,0,0,1-23.89-5.73,40.73,40.73,0,0,1-16.37-16.36q-5.88-10.63-5.89-24.87t5.81-24.87a40.23,40.23,0,0,1,16.28-16.37,49.41,49.41,0,0,1,24.06-5.72A48.81,48.81,0,0,1,785.29,179a40,40,0,0,1,16.12,15.87q5.8,10.31,5.81,24.06A71,71,0,0,1,806.72,227.14Zm-28.14-15.55a14.39,14.39,0,0,0-4.91-11.45,18,18,0,0,0-12.27-4.26A17.74,17.74,0,0,0,749.54,200q-4.83,4.09-6,11.62Z" style="fill:#24b2b4"/><path d="M877.74,266.08l-27.82-38.29v38.29h-28V145h28v66.92l27.66-37.14H912.1l-38,45.81,38.29,45.49Z" style="fill:#24b2b4"/><path d="M960.37,178.13a52.61,52.61,0,0,1,20.53-20.78,59.67,59.67,0,0,1,29.87-7.45q20.45,0,35,10.8t19.47,29.46h-30.76a24.91,24.91,0,0,0-9.73-11,27.48,27.48,0,0,0-14.32-3.76q-12.93,0-21,9t-8,24q0,15.06,8,24.06t21,9a27.39,27.39,0,0,0,14.32-3.77,24.88,24.88,0,0,0,9.73-11h30.76q-4.9,18.66-19.47,29.37t-35,10.72a59.57,59.57,0,0,1-29.87-7.45,52.73,52.73,0,0,1-20.53-20.7Q953,225.51,953,208.48T960.37,178.13Z" style="fill:#24b2b4"/><path d="M1110.42,145V266.08h-28V145Z" style="fill:#24b2b4"/><path d="M1130.46,195.56a39.66,39.66,0,0,1,14.48-16.37,37.88,37.88,0,0,1,20.45-5.72,35.25,35.25,0,0,1,16.94,3.92,29,29,0,0,1,11.21,10.31V174.78h28v91.3h-28V253.15a30.24,30.24,0,0,1-11.37,10.31,35.17,35.17,0,0,1-16.94,3.93,37.15,37.15,0,0,1-20.29-5.81,40.06,40.06,0,0,1-14.48-16.53q-5.32-10.71-5.32-24.79T1130.46,195.56Zm57.27,8.34a19.67,19.67,0,0,0-28.31-.08q-5.81,6-5.81,16.44t5.81,16.61a19.47,19.47,0,0,0,28.31.08q5.8-6,5.81-16.52T1187.73,203.9Z" style="fill:#24b2b4"/><path d="M1257.68,263.3A36.31,36.31,0,0,1,1243,252.09a29.4,29.4,0,0,1-6-16h27.65a10.65,10.65,0,0,0,4.42,7.69,15.64,15.64,0,0,0,9.65,2.94q5.24,0,8.1-2a6.27,6.27,0,0,0,2.86-5.32c0-2.62-1.36-4.55-4.09-5.81a83.09,83.09,0,0,0-13.25-4.17,125,125,0,0,1-16.36-4.83,28.14,28.14,0,0,1-11.29-8q-4.75-5.47-4.75-14.81a25.15,25.15,0,0,1,4.34-14.31,29.17,29.17,0,0,1,12.76-10.23q8.43-3.76,20-3.76,17.17,0,27.08,8.51t11.37,22.58h-25.86a11.1,11.1,0,0,0-4.17-7.53,14.49,14.49,0,0,0-9.24-2.78q-4.92,0-7.53,1.88a6,6,0,0,0-2.62,5.15c0,2.62,1.39,4.59,4.18,5.89a66.65,66.65,0,0,0,13,3.93,142.65,142.65,0,0,1,16.53,5.16,28.48,28.48,0,0,1,11.21,8.18q4.82,5.64,5,15.13a24,24,0,0,1-4.5,14.32,29.76,29.76,0,0,1-12.93,9.9,49.42,49.42,0,0,1-19.55,3.6A52.44,52.44,0,0,1,1257.68,263.3Z" style="fill:#24b2b4"/><path d="M1414.43,184.18q9.49,10.4,9.49,28.56v53.34h-27.81V216.5q0-9.17-4.75-14.23t-12.76-5.08q-8,0-12.77,5.08t-4.74,14.23v49.58h-28V145h28v42.05a29.91,29.91,0,0,1,11.62-9.66,37.24,37.24,0,0,1,16.52-3.6Q1405,173.79,1414.43,184.18Z" style="fill:#24b2b4"/></svg>