<svg width="24" height="25" viewBox="0 0 24 25" fill="none" xmlns="http://www.w3.org/2000/svg">
<path d="M5.075 12.3906H8C8.18333 12.3906 8.35833 12.4366 8.525 12.5286C8.69167 12.6206 8.81667 12.758 8.9 12.9406L10 15.1406L13.1 8.94063C13.2833 8.55729 13.5833 8.36562 14 8.36562C14.4167 8.36562 14.7167 8.55729 14.9 8.94063L16.625 12.3906H18.925C18.675 10.6906 17.9 9.26562 16.6 8.11562C15.3 6.96562 13.7667 6.39062 12 6.39062C10.2333 6.39062 8.7 6.96562 7.4 8.11562C6.1 9.26562 5.325 10.6906 5.075 12.3906ZM12 20.3906C13.7667 20.3906 15.3 19.8156 16.6 18.6656C17.9 17.5156 18.675 16.0906 18.925 14.3906H16C15.8167 14.3906 15.6417 14.345 15.475 14.2536C15.3083 14.1623 15.1833 14.0246 15.1 13.8406L14 11.6406L10.9 17.8406C10.7167 18.224 10.4167 18.4156 10 18.4156C9.58333 18.4156 9.28333 18.224 9.1 17.8406L7.375 14.3906H5.075C5.325 16.0906 6.1 17.5156 7.4 18.6656C8.7 19.8156 10.2333 20.3906 12 20.3906ZM12 22.3906C10.7667 22.3906 9.60433 22.1533 8.513 21.6786C7.42167 21.204 6.46733 20.558 5.65 19.7406C4.83267 18.9233 4.187 17.969 3.713 16.8776C3.239 15.7863 3.00133 14.624 3 13.3906H5C5 15.324 5.68333 16.974 7.05 18.3406C8.41667 19.7073 10.0667 20.3906 12 20.3906C13.9333 20.3906 15.5833 19.7073 16.95 18.3406C18.3167 16.974 19 15.324 19 13.3906H21C21 14.624 20.7627 15.7866 20.288 16.8786C19.8133 17.9706 19.1673 18.9246 18.35 19.7406C17.5327 20.5566 16.5783 21.2026 15.487 21.6786C14.3957 22.1546 13.2333 22.392 12 22.3906ZM3 13.3906C3 12.1573 3.23767 10.9946 3.713 9.90263C4.18833 8.81063 4.834 7.85663 5.65 7.04063C6.466 6.22463 7.42033 5.57896 8.513 5.10362C9.60567 4.62829 10.768 4.39062 12 4.39062C13.0333 4.39062 14.025 4.55729 14.975 4.89062C15.925 5.22396 16.8167 5.70729 17.65 6.34062L18.35 5.64062C18.5333 5.45729 18.7667 5.36562 19.05 5.36562C19.3333 5.36562 19.5667 5.45729 19.75 5.64062C19.9333 5.82396 20.025 6.05729 20.025 6.34062C20.025 6.62396 19.9333 6.85729 19.75 7.04063L19.05 7.74062C19.6833 8.57396 20.1667 9.46562 20.5 10.4156C20.8333 11.3656 21 12.3573 21 13.3906H19C19 11.4573 18.3167 9.80729 16.95 8.44063C15.5833 7.07396 13.9333 6.39062 12 6.39062C10.0667 6.39062 8.41667 7.07396 7.05 8.44063C5.68333 9.80729 5 11.4573 5 13.3906H3ZM10 3.39062C9.71667 3.39062 9.47933 3.29462 9.288 3.10262C9.09667 2.91062 9.00067 2.67329 9 2.39062C8.99933 2.10796 9.09533 1.87062 9.288 1.67862C9.48067 1.48662 9.718 1.39063 10 1.39062H14C14.2833 1.39062 14.521 1.48662 14.713 1.67862C14.905 1.87062 15.0007 2.10796 15 2.39062C14.9993 2.67329 14.9033 2.91096 14.712 3.10363C14.5207 3.29629 14.2833 3.39196 14 3.39062H10ZM12 20.3906C10.0667 20.3906 8.41667 19.7073 7.05 18.3406C5.68333 16.974 5 15.324 5 13.3906C5 11.4573 5.68333 9.80729 7.05 8.44063C8.41667 7.07396 10.0667 6.39062 12 6.39062C13.9333 6.39062 15.5833 7.07396 16.95 8.44063C18.3167 9.80729 19 11.4573 19 13.3906C19 15.324 18.3167 16.974 16.95 18.3406C15.5833 19.7073 13.9333 20.3906 12 20.3906Z" fill="#08AAA2"/>
</svg>
