<svg width="24" height="25" viewBox="0 0 24 25" fill="none" xmlns="http://www.w3.org/2000/svg">
<path d="M14.9993 22.3911L14.5833 23.0151C14.6963 23.0904 14.8275 23.1337 14.9631 23.1402C15.0987 23.1468 15.2335 23.1164 15.3532 23.0523C15.4729 22.9883 15.573 22.893 15.6427 22.7765C15.7125 22.6601 15.7493 22.5269 15.7493 22.3911H14.9993ZM11.9993 20.3911L12.4153 19.7671C12.2921 19.685 12.1474 19.6412 11.9993 19.6412C11.8513 19.6412 11.7065 19.685 11.5833 19.7671L11.9993 20.3911ZM8.99934 22.3911H8.24934C8.24935 22.5269 8.2862 22.6601 8.35596 22.7765C8.42572 22.893 8.52577 22.9883 8.64545 23.0523C8.76514 23.1164 8.89996 23.1468 9.03554 23.1402C9.17113 23.1337 9.30239 23.0904 9.41534 23.0151L8.99934 22.3911ZM15.4153 21.7671L12.4153 19.7671L11.5833 21.0151L14.5833 23.0151L15.4153 21.7671ZM11.5833 19.7671L8.58334 21.7671L9.41534 23.0151L12.4153 21.0151L11.5833 19.7671ZM12.9513 3.66714L12.9933 3.71714L14.1363 2.74514L14.0933 2.69514L12.9513 3.66714ZM15.3083 4.67614L15.3733 4.67014L15.2533 3.17514L15.1883 3.18114L15.3083 4.67614ZM16.7203 6.01614L16.7143 6.08214L18.2093 6.20214L18.2153 6.13714L16.7203 6.01614ZM17.6733 8.39614L17.7233 8.43914L18.6953 7.29714L18.6453 7.25414L17.6733 8.39614ZM17.7233 10.3431L17.6733 10.3851L18.6453 11.5281L18.6953 11.4851L17.7233 10.3431ZM16.7143 12.7001L16.7203 12.7651L18.2153 12.6451L18.2093 12.5801L16.7143 12.7001ZM15.3743 14.1121L15.3083 14.1061L15.1883 15.6011L15.2533 15.6071L15.3743 14.1121ZM12.9943 15.0651L12.9513 15.1151L14.0933 16.0871L14.1363 16.0371L12.9943 15.0651ZM11.0473 15.1151L11.0043 15.0651L9.86234 16.0371L9.90534 16.0871L11.0473 15.1151ZM8.69034 14.1061L8.62534 14.1111L8.74534 15.6071L8.81034 15.6021L8.69034 14.1061ZM7.27834 12.7661L7.28434 12.7001L5.78934 12.5801L5.78334 12.6451L7.27834 12.7661ZM6.32534 10.3861L6.27534 10.3431L5.30334 11.4851L5.35334 11.5281L6.32534 10.3861ZM6.27534 8.43914L6.32534 8.39614L5.35334 7.25414L5.30334 7.29714L6.27534 8.43914ZM7.28434 6.08214L7.27834 6.01714L5.78334 6.13714L5.78934 6.20214L7.28434 6.08214ZM8.62434 4.67014L8.69034 4.67614L8.81034 3.18114L8.74534 3.17514L8.62434 4.67014ZM11.0043 3.71714L11.0473 3.66714L9.90534 2.69514L9.86234 2.74514L11.0043 3.71714ZM8.69034 4.67614C9.12467 4.71097 9.56106 4.64209 9.96355 4.47518C10.366 4.30827 10.7231 4.04811 11.0053 3.71614L9.86234 2.74514C9.73404 2.89593 9.57177 3.01409 9.38887 3.08989C9.20597 3.16569 9.00769 3.19697 8.81034 3.18114L8.69034 4.67614ZM7.27834 6.01714C7.26399 5.83669 7.289 5.65428 7.35165 5.48445C7.4143 5.31462 7.51308 5.16042 7.64118 5.03252C7.76927 4.90461 7.92362 4.80606 8.09354 4.74366C8.26346 4.68127 8.44491 4.65652 8.62534 4.67114L8.74534 3.17614C8.34824 3.14414 7.94893 3.1988 7.57504 3.33634C7.20115 3.47388 6.86161 3.69101 6.57991 3.97271C6.29821 4.25441 6.08108 4.59395 5.94354 4.96784C5.806 5.34173 5.75134 5.74104 5.78334 6.13814L7.27834 6.01714ZM6.32534 8.39614C6.65699 8.11391 6.91687 7.75696 7.0836 7.35466C7.25032 6.95237 7.31912 6.51622 7.28434 6.08214L5.78934 6.20214C5.82134 6.60214 5.65934 6.99414 5.35334 7.25414L6.32534 8.39614ZM6.27534 10.3431C6.13743 10.2258 6.02666 10.0799 5.9507 9.91551C5.87474 9.75113 5.8354 9.57222 5.8354 9.39114C5.8354 9.21006 5.87474 9.03114 5.9507 8.86677C6.02666 8.70239 6.13743 8.55649 6.27534 8.43914L5.30334 7.29714C5.00007 7.5553 4.75651 7.87626 4.58948 8.23781C4.42244 8.59935 4.33594 8.99287 4.33594 9.39114C4.33594 9.7894 4.42244 10.1829 4.58948 10.5445C4.75651 10.906 5.00007 11.227 5.30334 11.4851L6.27534 10.3431ZM7.28434 12.7001C7.31916 12.2658 7.25029 11.8294 7.08338 11.4269C6.91647 11.0244 6.65631 10.6674 6.32434 10.3851L5.35334 11.5281C5.65934 11.7881 5.82134 12.1801 5.78934 12.5801L7.28434 12.7001ZM8.62434 14.1121C8.44381 14.1266 8.26229 14.1017 8.09233 14.0392C7.92238 13.9766 7.76805 13.8778 7.64004 13.7497C7.51202 13.6216 7.41337 13.4672 7.35092 13.2972C7.28847 13.1272 7.2637 12.9457 7.27834 12.7651L5.78334 12.6451C5.75134 13.0422 5.806 13.4415 5.94354 13.8154C6.08108 14.1893 6.29821 14.5289 6.57991 14.8106C6.86161 15.0923 7.20115 15.3094 7.57504 15.4469C7.94893 15.5845 8.34824 15.6391 8.74534 15.6071L8.62434 14.1121ZM12.9513 15.1151C12.834 15.253 12.6881 15.3638 12.5237 15.4398C12.3593 15.5157 12.1804 15.5551 11.9993 15.5551C11.8183 15.5551 11.6393 15.5157 11.475 15.4398C11.3106 15.3638 11.1647 15.253 11.0473 15.1151L9.90534 16.0871C10.1635 16.3904 10.4845 16.634 10.846 16.801C11.2076 16.968 11.6011 17.0545 11.9993 17.0545C12.3976 17.0545 12.7911 16.968 13.1527 16.801C13.5142 16.634 13.8352 16.3904 14.0933 16.0871L12.9513 15.1151ZM16.7203 12.7651C16.7348 12.9457 16.7099 13.1272 16.6474 13.2971C16.5848 13.4671 16.486 13.6214 16.3579 13.7494C16.2298 13.8775 16.0754 13.9761 15.9054 14.0386C15.7354 14.101 15.5539 14.1258 15.3733 14.1111L15.2533 15.6071C15.6504 15.6391 16.0497 15.5845 16.4236 15.4469C16.7975 15.3094 17.1371 15.0923 17.4188 14.8106C17.7005 14.5289 17.9176 14.1893 18.0551 13.8154C18.1927 13.4415 18.2473 13.0422 18.2153 12.6451L16.7203 12.7651ZM17.6733 10.3851C17.3415 10.6675 17.0816 11.0246 16.9148 11.4271C16.7481 11.8295 16.6794 12.2659 16.7143 12.7001L18.2093 12.5801C18.1773 12.1801 18.3393 11.7881 18.6453 11.5281L17.6733 10.3851ZM17.7233 8.43914C17.8612 8.55649 17.972 8.70239 18.048 8.86677C18.1239 9.03114 18.1633 9.21006 18.1633 9.39114C18.1633 9.57222 18.1239 9.75113 18.048 9.91551C17.972 10.0799 17.8612 10.2258 17.7233 10.3431L18.6953 11.4851C18.9986 11.227 19.2422 10.906 19.4092 10.5445C19.5762 10.1829 19.6627 9.7894 19.6627 9.39114C19.6627 8.99287 19.5762 8.59935 19.4092 8.23781C19.2422 7.87626 18.9986 7.5553 18.6953 7.29714L17.7233 8.43914ZM16.7143 6.08214C16.6795 6.51647 16.7484 6.95286 16.9153 7.35535C17.0822 7.75784 17.3424 8.11491 17.6743 8.39714L18.6453 7.25414C18.4945 7.12584 18.3764 6.96357 18.3006 6.78067C18.2248 6.59777 18.1935 6.39949 18.2093 6.20214L16.7143 6.08214ZM15.3743 4.67014C15.5549 4.65564 15.7364 4.68054 15.9063 4.74312C16.0763 4.8057 16.2306 4.90446 16.3586 5.03257C16.4867 5.16068 16.5853 5.31508 16.6478 5.48508C16.7102 5.65508 16.735 5.83562 16.7203 6.01614L18.2153 6.13714C18.2473 5.74004 18.1927 5.34073 18.0551 4.96684C17.9176 4.59295 17.7005 4.25341 17.4188 3.97171C17.1371 3.69001 16.7975 3.47288 16.4236 3.33534C16.0497 3.1978 15.6504 3.14314 15.2533 3.17514L15.3743 4.67014ZM12.9933 3.71714C13.2756 4.04879 13.6335 4.30867 14.0358 4.4754C14.4381 4.64212 14.8743 4.71092 15.3083 4.67614L15.1883 3.18114C14.991 3.19697 14.7927 3.16569 14.6098 3.08989C14.4269 3.01409 14.2646 2.89593 14.1363 2.74514L12.9933 3.71714ZM14.0943 2.69514C13.8362 2.39153 13.5151 2.14767 13.1534 1.98042C12.7916 1.81318 12.3979 1.72656 11.9993 1.72656C11.6008 1.72656 11.207 1.81318 10.8453 1.98042C10.4836 2.14767 10.1625 2.39153 9.90434 2.69514L11.0473 3.66714C11.1647 3.52923 11.3106 3.41846 11.475 3.3425C11.6393 3.26654 11.8183 3.2272 11.9993 3.2272C12.1804 3.2272 12.3593 3.26654 12.5237 3.3425C12.6881 3.41846 12.834 3.52923 12.9513 3.66714L14.0943 2.69514ZM11.0043 15.0651C10.7595 14.7775 10.4581 14.5433 10.1188 14.3773C9.77953 14.2113 9.40969 14.1169 9.03234 14.1001L8.96634 15.5991C9.31034 15.6141 9.63634 15.7711 9.86234 16.0371L11.0043 15.0651ZM9.03234 14.1001C8.91832 14.0956 8.80413 14.0976 8.69034 14.1061L8.81034 15.6011C8.86234 15.5971 8.91434 15.5965 8.96634 15.5991L9.03234 14.1001ZM9.74934 22.3911V14.8491H8.24934V22.3911H9.74934ZM15.3093 14.1061C15.1952 14.0976 15.0807 14.0956 14.9663 14.1001L15.0323 15.5991C15.0843 15.5965 15.1363 15.5971 15.1883 15.6011L15.3093 14.1061ZM14.9663 14.1001C14.5888 14.1168 14.2188 14.2111 13.8793 14.3771C13.5399 14.5431 13.2393 14.7774 12.9943 15.0651L14.1363 16.0371C14.2476 15.9065 14.3846 15.8003 14.5388 15.7249C14.6929 15.6496 14.8609 15.6067 15.0323 15.5991L14.9663 14.1001ZM14.2493 14.8501V22.3911H15.7493V14.8491L14.2493 14.8501Z" fill="#08AAA2"/>
<path d="M14 8.39062L11 11.3906L10 10.3906" stroke="#08AAA2" stroke-width="1.5" stroke-linecap="round" stroke-linejoin="round"/>
</svg>
