<svg width="49" height="49" viewBox="0 0 49 49" fill="none" xmlns="http://www.w3.org/2000/svg">
<path d="M0.501953 8.76172C0.501953 4.34344 4.08368 0.761719 8.50195 0.761719H40.502C44.9202 0.761719 48.502 4.34344 48.502 8.76172V40.7617C48.502 45.18 44.9202 48.7617 40.502 48.7617H8.50195C4.08368 48.7617 0.501953 45.18 0.501953 40.7617V8.76172Z" fill="#FEF2F2"/>
<path d="M24.502 34.7617C30.0248 34.7617 34.502 30.2846 34.502 24.7617C34.502 19.2389 30.0248 14.7617 24.502 14.7617C18.9791 14.7617 14.502 19.2389 14.502 24.7617C14.502 30.2846 18.9791 34.7617 24.502 34.7617Z" stroke="#DC2626" stroke-width="2" stroke-linecap="round" stroke-linejoin="round"/>
<path d="M27.502 21.7617L21.502 27.7617" stroke="#DC2626" stroke-width="2" stroke-linecap="round" stroke-linejoin="round"/>
<path d="M21.502 21.7617L27.502 27.7617" stroke="#DC2626" stroke-width="2" stroke-linecap="round" stroke-linejoin="round"/>
</svg>
