<svg width="49" height="49" viewBox="0 0 49 49" fill="none" xmlns="http://www.w3.org/2000/svg">
<path d="M0.919922 8.76172C0.919922 4.34344 4.50164 0.761719 8.91992 0.761719H40.9199C45.3382 0.761719 48.9199 4.34344 48.9199 8.76172V40.7617C48.9199 45.18 45.3382 48.7617 40.9199 48.7617H8.91992C4.50164 48.7617 0.919922 45.18 0.919922 40.7617V8.76172Z" fill="#F9FAFB"/>
<path d="M27.9199 14.7617H18.9199C18.3895 14.7617 17.8808 14.9724 17.5057 15.3475C17.1306 15.7226 16.9199 16.2313 16.9199 16.7617V32.7617C16.9199 33.2922 17.1306 33.8009 17.5057 34.1759C17.8808 34.551 18.3895 34.7617 18.9199 34.7617H30.9199C31.4504 34.7617 31.9591 34.551 32.3341 34.1759C32.7092 33.8009 32.9199 33.2922 32.9199 32.7617V19.7617L27.9199 14.7617Z" stroke="#4B5563" stroke-width="2" stroke-linecap="round" stroke-linejoin="round"/>
<path d="M26.9199 14.7617V18.7617C26.9199 19.2922 27.1306 19.8009 27.5057 20.1759C27.8808 20.551 28.3895 20.7617 28.9199 20.7617H32.9199" stroke="#4B5563" stroke-width="2" stroke-linecap="round" stroke-linejoin="round"/>
<path d="M22.9199 21.7617H20.9199" stroke="#4B5563" stroke-width="2" stroke-linecap="round" stroke-linejoin="round"/>
<path d="M28.9199 25.7617H20.9199" stroke="#4B5563" stroke-width="2" stroke-linecap="round" stroke-linejoin="round"/>
<path d="M28.9199 29.7617H20.9199" stroke="#4B5563" stroke-width="2" stroke-linecap="round" stroke-linejoin="round"/>
</svg>
