<svg width="10" height="13" viewBox="0 0 10 13" fill="none" xmlns="http://www.w3.org/2000/svg">
<path d="M8.78418 0.5H1.78418C1.51896 0.5 1.26461 0.605357 1.07707 0.792893C0.889536 0.98043 0.78418 1.23478 0.78418 1.5V12.5C0.784224 12.5892 0.808147 12.6768 0.853466 12.7537C0.898785 12.8306 0.963848 12.8939 1.0419 12.9371C1.11996 12.9804 1.20817 13.0019 1.29737 12.9996C1.38657 12.9972 1.47351 12.971 1.54918 12.9237L5.28418 10.5894L9.0198 12.9237C9.09546 12.9709 9.18234 12.9969 9.27145 12.9992C9.36055 13.0015 9.44865 12.9799 9.52661 12.9367C9.60456 12.8934 9.66955 12.8302 9.71484 12.7534C9.76013 12.6766 9.78407 12.5891 9.78418 12.5V1.5C9.78418 1.23478 9.67882 0.98043 9.49129 0.792893C9.30375 0.605357 9.0494 0.5 8.78418 0.5ZM8.78418 11.5981L5.54855 9.57625C5.46909 9.52658 5.37726 9.50025 5.28355 9.50025C5.18984 9.50025 5.09802 9.52658 5.01855 9.57625L1.78418 11.5981V1.5H8.78418V11.5981Z" fill="black"/>
</svg>
