<svg width="14" height="13" viewBox="0 0 14 13" fill="none" xmlns="http://www.w3.org/2000/svg">
<path d="M7.14107 1.54797e-07C6.01886 -0.000244726 4.9157 0.290055 3.93898 0.842643C2.96225 1.39523 2.14522 2.19128 1.56742 3.15331C0.989628 4.11534 0.670743 5.21058 0.64181 6.33241C0.612876 7.45425 0.874879 8.56446 1.40232 9.555L0.692942 11.6831C0.634183 11.8593 0.625655 12.0484 0.668316 12.2292C0.710976 12.4099 0.803139 12.5753 0.934474 12.7066C1.06581 12.8379 1.23113 12.9301 1.4119 12.9728C1.59267 13.0154 1.78175 13.0069 1.95794 12.9481L4.08607 12.2388C4.9578 12.7024 5.9237 12.9614 6.91046 12.996C7.89722 13.0306 8.8789 12.84 9.78098 12.4386C10.6831 12.0372 11.4819 11.4355 12.1167 10.6793C12.7515 9.92309 13.2058 9.03218 13.4449 8.07421C13.684 7.11624 13.7018 6.11638 13.4968 5.15052C13.2918 4.18467 12.8695 3.27821 12.2618 2.49995C11.6542 1.72169 10.8773 1.09208 9.99001 0.658909C9.10273 0.225743 8.12843 0.000405144 7.14107 1.54797e-07ZM7.14107 12C6.17418 12.0007 5.22425 11.746 4.38732 11.2619C4.32604 11.2263 4.25791 11.2042 4.18744 11.197C4.11698 11.1898 4.04578 11.1976 3.97857 11.22L1.64107 12L2.42044 9.6625C2.44291 9.59533 2.45085 9.52416 2.44374 9.45369C2.43663 9.38323 2.41463 9.31507 2.37919 9.25375C1.77292 8.20557 1.52951 6.98661 1.68671 5.78598C1.84391 4.58534 2.39294 3.47014 3.24862 2.61337C4.10431 1.7566 5.21881 1.20617 6.41925 1.04745C7.61969 0.888735 8.83895 1.13061 9.8879 1.73555C10.9368 2.3405 11.7568 3.27469 12.2207 4.39322C12.6845 5.51175 12.7662 6.75208 12.4532 7.92181C12.1402 9.09153 11.4499 10.1253 10.4894 10.8626C9.52893 11.6 8.35195 11.9998 7.14107 12Z" fill="black"/>
</svg>
