<svg width="17" height="16" viewBox="0 0 17 16" fill="none" xmlns="http://www.w3.org/2000/svg">
<path opacity="0.2" d="M13.2949 12.5C13.2949 12.8956 13.1776 13.2822 12.9579 13.6111C12.7381 13.94 12.4257 14.1964 12.0603 14.3478C11.6948 14.4991 11.2927 14.5387 10.9047 14.4616C10.5168 14.3844 10.1604 14.1939 9.88071 13.9142C9.601 13.6345 9.41052 13.2781 9.33335 12.8902C9.25618 12.5022 9.29579 12.1001 9.44716 11.7346C9.59854 11.3692 9.85488 11.0568 10.1838 10.8371C10.5127 10.6173 10.8994 10.5 11.2949 10.5C11.8254 10.5 12.3341 10.7107 12.7091 11.0858C13.0842 11.4609 13.2949 11.9696 13.2949 12.5ZM11.2949 5.5C11.6905 5.5 12.0772 5.3827 12.4061 5.16294C12.735 4.94318 12.9913 4.63082 13.1427 4.26537C13.2941 3.89992 13.3337 3.49778 13.2565 3.10982C13.1793 2.72186 12.9888 2.36549 12.7091 2.08579C12.4294 1.80608 12.0731 1.6156 11.6851 1.53843C11.2971 1.46126 10.895 1.50087 10.5296 1.65224C10.1641 1.80362 9.85175 2.05996 9.63198 2.38886C9.41222 2.71776 9.29492 3.10444 9.29492 3.5C9.29492 4.03043 9.50564 4.53914 9.88071 4.91422C10.2558 5.28929 10.7645 5.5 11.2949 5.5Z" fill="black"/>
<path d="M11.2951 9.9981C10.9615 9.99799 10.6314 10.0648 10.3241 10.1946C10.0169 10.3244 9.73877 10.5145 9.50632 10.7537L6.62507 8.90185C6.85171 8.32066 6.85171 7.67553 6.62507 7.09435L9.50632 5.24247C9.93911 5.6858 10.5211 5.95263 11.1394 5.99124C11.7578 6.02985 12.3684 5.83748 12.853 5.45144C13.3376 5.06539 13.6615 4.51317 13.7621 3.90184C13.8626 3.29051 13.7326 2.66361 13.3972 2.1427C13.0618 1.62179 12.5449 1.24397 11.9468 1.0825C11.3487 0.921028 10.7119 0.987402 10.1599 1.26876C9.60793 1.55011 9.18009 2.0264 8.95932 2.60528C8.73856 3.18416 8.74061 3.82439 8.96507 4.40185L6.08382 6.25372C5.73686 5.89752 5.29156 5.65287 4.80485 5.55106C4.31813 5.44925 3.81211 5.49489 3.35146 5.68216C2.89082 5.86942 2.49649 6.18981 2.21887 6.60235C1.94125 7.01489 1.79297 7.50084 1.79297 7.9981C1.79297 8.49535 1.94125 8.98131 2.21887 9.39385C2.49649 9.80639 2.89082 10.1268 3.35146 10.314C3.81211 10.5013 4.31813 10.5469 4.80485 10.4451C5.29156 10.3433 5.73686 10.0987 6.08382 9.74247L8.96507 11.5943C8.77205 12.0922 8.74349 12.6387 8.88357 13.154C9.02365 13.6692 9.325 14.1261 9.74351 14.4576C10.162 14.7892 10.6757 14.9781 11.2093 14.9966C11.7429 15.0151 12.2685 14.8623 12.7089 14.5605C13.1494 14.2588 13.4817 13.8239 13.6572 13.3196C13.8326 12.8153 13.842 12.2681 13.684 11.7581C13.5259 11.2481 13.2087 10.8021 12.7789 10.4854C12.349 10.1687 11.829 9.9979 11.2951 9.9981ZM11.2951 1.9981C11.5917 1.9981 11.8818 2.08607 12.1284 2.25089C12.3751 2.41571 12.5674 2.64998 12.6809 2.92407C12.7944 3.19816 12.8241 3.49976 12.7663 3.79073C12.7084 4.0817 12.5655 4.34898 12.3557 4.55876C12.146 4.76853 11.8787 4.9114 11.5877 4.96927C11.2967 5.02715 10.9951 4.99745 10.721 4.88392C10.447 4.77038 10.2127 4.57812 10.0479 4.33145C9.88305 4.08478 9.79507 3.79477 9.79507 3.4981C9.79507 3.10027 9.95311 2.71874 10.2344 2.43744C10.5157 2.15613 10.8972 1.9981 11.2951 1.9981ZM4.29507 9.4981C3.9984 9.4981 3.70839 9.41012 3.46172 9.2453C3.21504 9.08048 3.02278 8.84621 2.90925 8.57212C2.79572 8.29803 2.76602 7.99643 2.82389 7.70546C2.88177 7.41449 3.02463 7.14721 3.23441 6.93744C3.44419 6.72766 3.71147 6.5848 4.00244 6.52692C4.29341 6.46904 4.59501 6.49874 4.8691 6.61228C5.14319 6.72581 5.37745 6.91807 5.54228 7.16474C5.7071 7.41141 5.79507 7.70142 5.79507 7.9981C5.79507 8.39592 5.63704 8.77745 5.35573 9.05876C5.07443 9.34006 4.6929 9.4981 4.29507 9.4981ZM11.2951 13.9981C10.9984 13.9981 10.7084 13.9101 10.4617 13.7453C10.215 13.5805 10.0228 13.3462 9.90925 13.0721C9.79572 12.798 9.76602 12.4964 9.82389 12.2055C9.88177 11.9145 10.0246 11.6472 10.2344 11.4374C10.4442 11.2277 10.7115 11.0848 11.0024 11.0269C11.2934 10.969 11.595 10.9987 11.8691 11.1123C12.1432 11.2258 12.3775 11.4181 12.5423 11.6647C12.7071 11.9114 12.7951 12.2014 12.7951 12.4981C12.7951 12.8959 12.637 13.2775 12.3557 13.5588C12.0744 13.8401 11.6929 13.9981 11.2951 13.9981Z" fill="black"/>
</svg>
