<svg width="49" height="49" viewBox="0 0 49 49" fill="none" xmlns="http://www.w3.org/2000/svg">
<path d="M8.42479 28.7919C8.04632 28.7932 7.67525 28.687 7.3547 28.4858C7.03414 28.2846 6.77726 27.9966 6.61389 27.6552C6.45052 27.3138 6.38738 26.933 6.43179 26.5572C6.4762 26.1813 6.62635 25.8258 6.86479 25.5319L26.6648 5.13186C26.8133 4.96042 27.0157 4.84457 27.2388 4.80333C27.4618 4.76208 27.6922 4.79789 27.8923 4.90487C28.0923 5.01185 28.25 5.18365 28.3395 5.39208C28.429 5.6005 28.4449 5.83316 28.3848 6.05186L24.5448 18.0919C24.4316 18.3949 24.3935 18.7209 24.434 19.0419C24.4744 19.3628 24.5921 19.6692 24.777 19.9347C24.9618 20.2002 25.2083 20.4169 25.4953 20.5662C25.7823 20.7155 26.1013 20.7929 26.4248 20.7919H40.4248C40.8033 20.7906 41.1743 20.8967 41.4949 21.0979C41.8154 21.2991 42.0723 21.5871 42.2357 21.9285C42.3991 22.2699 42.4622 22.6507 42.4178 23.0265C42.3734 23.4024 42.2232 23.7579 41.9848 24.0519L22.1848 44.4519C22.0363 44.6233 21.8339 44.7391 21.6108 44.7804C21.3878 44.8216 21.1573 44.7858 20.9573 44.6789C20.7573 44.5719 20.5996 44.4001 20.5101 44.1916C20.4206 43.9832 20.4046 43.7506 20.4648 43.5319L24.3048 31.4919C24.418 31.1888 24.456 30.8628 24.4156 30.5418C24.3752 30.2209 24.2575 29.9145 24.0726 29.649C23.8877 29.3835 23.6412 29.1668 23.3542 29.0175C23.0672 28.8682 22.7483 28.7908 22.4248 28.7919H8.42479Z" stroke="#FB923C" stroke-width="4" stroke-linecap="round" stroke-linejoin="round"/>
</svg>
