<svg width="49" height="49" viewBox="0 0 49 49" fill="none" xmlns="http://www.w3.org/2000/svg">
<path d="M9.75391 33.7919C6.75391 36.3119 5.75391 43.7919 5.75391 43.7919C5.75391 43.7919 13.2339 42.7919 15.7539 39.7919C17.1739 38.1119 17.1539 35.5319 15.5739 33.9719C14.7965 33.2299 13.7725 32.8011 12.6984 32.7679C11.6242 32.7347 10.5757 33.0993 9.75391 33.7919Z" stroke="#22D3EE" stroke-width="4" stroke-linecap="round" stroke-linejoin="round"/>
<path d="M24.7539 30.7919L18.7539 24.7919C19.8182 22.0307 21.1583 19.384 22.7539 16.8919C25.0843 13.1659 28.3292 10.098 32.1799 7.98006C36.0307 5.86215 40.3592 4.76462 44.7539 4.79188C44.7539 10.2319 43.1939 19.7919 32.7539 26.7919C30.2277 28.3893 27.5476 29.7294 24.7539 30.7919Z" stroke="#22D3EE" stroke-width="4" stroke-linecap="round" stroke-linejoin="round"/>
<path d="M18.7539 24.7919H8.75391C8.75391 24.7919 9.85391 18.7319 12.7539 16.7919C15.9939 14.6319 22.7539 16.7919 22.7539 16.7919" stroke="#22D3EE" stroke-width="4" stroke-linecap="round" stroke-linejoin="round"/>
<path d="M24.7539 30.7919V40.7919C24.7539 40.7919 30.8139 39.6919 32.7539 36.7919C34.9139 33.5519 32.7539 26.7919 32.7539 26.7919" stroke="#22D3EE" stroke-width="4" stroke-linecap="round" stroke-linejoin="round"/>
</svg>
