<svg width="38" height="38" viewBox="0 0 38 38" fill="none" xmlns="http://www.w3.org/2000/svg">
<path d="M10.0337 6.40625H27.9056C27.9502 6.40622 27.9931 6.42355 28.0253 6.45457C28.0574 6.48558 28.0762 6.52787 28.0778 6.5725C28.1431 8.12219 28.3806 20.1516 20.359 23.6547V28.1553H17.6337V23.6547C17.6337 23.6547 10.0931 20.9056 9.85557 6.59031C9.85477 6.56643 9.85879 6.54262 9.86738 6.52032C9.87598 6.49802 9.88897 6.47768 9.90559 6.4605C9.92221 6.44333 9.94212 6.42967 9.96413 6.42035C9.98613 6.41103 10.0098 6.40624 10.0337 6.40625Z" stroke="black" stroke-width="2.3"/>
<path d="M28.1014 8.47656H29.8173C30.0938 8.47656 30.3676 8.53112 30.623 8.63712C30.8784 8.74312 31.1104 8.89848 31.3057 9.09429C31.5009 9.29009 31.6556 9.5225 31.7609 9.7782C31.8662 10.0339 31.92 10.3079 31.9192 10.5844V12.9594C31.9201 13.6492 31.751 14.3286 31.4269 14.9376C31.1027 15.5465 30.6335 16.0662 30.0607 16.4506L24.7764 20.0131" stroke="black" stroke-width="2.3"/>
<path d="M9.93392 8.47656H8.15266C7.87614 8.47656 7.60234 8.53112 7.34694 8.63712C7.09154 8.74312 6.85957 8.89848 6.66431 9.09429C6.46906 9.29009 6.31436 9.5225 6.20908 9.7782C6.1038 10.0339 6.05001 10.3079 6.05079 10.5844V12.9594C6.04985 13.6492 6.21893 14.3286 6.54308 14.9376C6.86722 15.5465 7.33644 16.0662 7.90923 16.4506L13.6567 20.2269" stroke="black" stroke-width="2.3"/>
<path d="M23.4599 28.1562H14.7793V31.5941H23.4599V28.1562Z" stroke="black" stroke-width="2.3"/>
</svg>
