<svg width="24" height="25" viewBox="0 0 24 25" fill="none" xmlns="http://www.w3.org/2000/svg">
<path fill-rule="evenodd" clip-rule="evenodd" d="M23.6654 12.5007C23.6654 18.944 18.442 24.1673 11.9987 24.1673C5.55538 24.1673 0.332031 18.944 0.332031 12.5007C0.332031 6.05733 5.55538 0.833984 11.9987 0.833984C18.442 0.833984 23.6654 6.05733 23.6654 12.5007ZM16.7008 8.96527C17.0425 9.30698 17.0425 9.86099 16.7008 10.2027L10.8674 16.036C10.5257 16.3777 9.97169 16.3777 9.62998 16.036L7.29665 13.7027C6.95494 13.361 6.95494 12.807 7.29665 12.4653C7.63836 12.1236 8.19237 12.1236 8.53408 12.4653L10.2487 14.1799L12.856 11.5726L15.4633 8.96527C15.805 8.62356 16.359 8.62356 16.7008 8.96527Z" fill="white"/>
<path fill-rule="evenodd" clip-rule="evenodd" d="M23.6654 12.5007C23.6654 18.944 18.442 24.1673 11.9987 24.1673C5.55538 24.1673 0.332031 18.944 0.332031 12.5007C0.332031 6.05733 5.55538 0.833984 11.9987 0.833984C18.442 0.833984 23.6654 6.05733 23.6654 12.5007ZM16.7008 8.96527C17.0425 9.30698 17.0425 9.86099 16.7008 10.2027L10.8674 16.036C10.5257 16.3777 9.97169 16.3777 9.62998 16.036L7.29665 13.7027C6.95494 13.361 6.95494 12.807 7.29665 12.4653C7.63836 12.1236 8.19237 12.1236 8.53408 12.4653L10.2487 14.1799L12.856 11.5726L15.4633 8.96527C15.805 8.62356 16.359 8.62356 16.7008 8.96527Z" fill="url(#paint0_linear_241_1288)"/>
<defs>
<linearGradient id="paint0_linear_241_1288" x1="11.9987" y1="0.833984" x2="11.9987" y2="24.1673" gradientUnits="userSpaceOnUse">
<stop stop-color="#56AFB2"/>
<stop offset="0.744134" stop-color="#08AAA2"/>
<stop offset="1" stop-color="#56AFB2"/>
</linearGradient>
</defs>
</svg>
