<svg width="50" height="51" viewBox="0 0 50 51" fill="none" xmlns="http://www.w3.org/2000/svg">
<rect y="0.726562" width="50" height="50" rx="25" fill="white" fill-opacity="0.1"/>
<path d="M18.8654 27.1364L22.8846 31.1556C23.1667 31.4377 23.3018 31.7667 23.2901 32.1428C23.2783 32.5188 23.1432 32.8479 22.8846 33.13C22.6026 33.412 22.2676 33.5589 21.8798 33.5707C21.492 33.5824 21.1571 33.4473 20.875 33.1652L14.4231 26.7133C14.141 26.4312 14 26.1022 14 25.7261C14 25.35 14.141 25.021 14.4231 24.7389L20.875 18.287C21.1571 18.005 21.492 17.8698 21.8798 17.8816C22.2676 17.8933 22.6026 18.0402 22.8846 18.3223C23.1432 18.6043 23.2783 18.9334 23.2901 19.3094C23.3018 19.6855 23.1667 20.0146 22.8846 20.2966L18.8654 24.3159H34.5897C34.9893 24.3159 35.3243 24.451 35.5946 24.7213C35.8649 24.9916 36 25.3265 36 25.7261C36 26.1257 35.8649 26.4606 35.5946 26.7309C35.3243 27.0012 34.9893 27.1364 34.5897 27.1364H18.8654Z" fill="white"/>
</svg>
