<svg width="21" height="17" viewBox="0 0 21 17" fill="none" xmlns="http://www.w3.org/2000/svg">
<path d="M8.06589 8.53874C8.82067 8.53874 9.5585 8.29075 10.1861 7.82613C10.8137 7.36152 11.3028 6.70114 11.5916 5.92851C11.8805 5.15588 11.956 4.3057 11.8088 3.48548C11.6615 2.66525 11.2981 1.91183 10.7644 1.32049C10.2307 0.729143 9.55068 0.326432 8.8104 0.16328C8.07012 0.00012783 7.3028 0.0838633 6.60548 0.403897C5.90815 0.723931 5.31213 1.26589 4.8928 1.96124C4.47347 2.65659 4.24965 3.4741 4.24965 4.31039C4.24965 5.43182 4.65171 6.50731 5.3674 7.30028C6.08308 8.09325 7.05376 8.53874 8.06589 8.53874ZM8.06589 1.77337C8.51876 1.77337 8.96145 1.92217 9.338 2.20094C9.71455 2.47971 10.008 2.87594 10.1813 3.33951C10.3546 3.80309 10.4 4.3132 10.3116 4.80533C10.2233 5.29746 10.0052 5.74952 9.68498 6.10432C9.36475 6.45913 8.95676 6.70076 8.51259 6.79865C8.06843 6.89654 7.60804 6.8463 7.18964 6.65428C6.77125 6.46226 6.41364 6.13708 6.16203 5.71987C5.91043 5.30267 5.77614 4.81216 5.77614 4.31039C5.77614 3.63753 6.01738 2.99223 6.44679 2.51645C6.8762 2.04067 7.45861 1.77337 8.06589 1.77337ZM0.94224 16.4317C1.14385 16.4287 1.33645 16.3387 1.47902 16.1807C1.62159 16.0228 1.70285 15.8094 1.70549 15.586C1.70549 13.3873 2.78421 11.9214 8.06589 11.9214C13.3476 11.9214 14.4263 13.3873 14.4263 15.586C14.4263 15.8103 14.5067 16.0254 14.6498 16.184C14.793 16.3426 14.9871 16.4317 15.1895 16.4317C15.392 16.4317 15.5861 16.3426 15.7292 16.184C15.8724 16.0254 15.9528 15.8103 15.9528 15.586C15.9528 10.2301 10.4269 10.2301 8.06589 10.2301C5.70491 10.2301 0.178993 10.2301 0.178993 15.586C0.181629 15.8094 0.262888 16.0228 0.405458 16.1807C0.548027 16.3387 0.740635 16.4287 0.94224 16.4317ZM13.8462 9.45206H14.1719C14.9816 9.36534 15.727 8.92578 16.2442 8.23008C16.7614 7.53438 17.008 6.63953 16.9297 5.74239C16.8515 4.84525 16.4547 4.0193 15.8269 3.44624C15.199 2.87319 14.3913 2.59997 13.5816 2.6867C13.4778 2.69164 13.376 2.72003 13.2824 2.77011C13.1888 2.82019 13.1055 2.89091 13.0375 2.97795C12.9694 3.06498 12.9181 3.16649 12.8868 3.27626C12.8554 3.38603 12.8446 3.50173 12.855 3.6163C12.8654 3.73086 12.8968 3.84185 12.9473 3.94249C12.9978 4.04312 13.0663 4.13127 13.1486 4.20154C13.231 4.2718 13.3254 4.3227 13.4261 4.35111C13.5268 4.37952 13.6316 4.38485 13.7343 4.36676C13.9329 4.34482 14.1335 4.36745 14.3241 4.43332C14.5147 4.49919 14.6914 4.60694 14.8435 4.75014C14.9981 4.88827 15.1263 5.0591 15.2206 5.25269C15.315 5.44628 15.3736 5.65875 15.3931 5.8777C15.4141 6.09939 15.3951 6.32351 15.3372 6.537C15.2793 6.75048 15.1836 6.94906 15.0558 7.12117C14.9279 7.29328 14.7704 7.43547 14.5924 7.53947C14.4145 7.64346 14.2196 7.70717 14.0192 7.7269C13.6879 7.75829 13.3563 7.67137 13.0728 7.47883C12.9001 7.36071 12.692 7.32345 12.4945 7.37526C12.297 7.42707 12.1261 7.56369 12.0195 7.75508C11.9129 7.94648 11.8793 8.17695 11.926 8.39581C11.9728 8.61467 12.0961 8.80399 12.2688 8.92211C12.7408 9.25566 13.2865 9.43899 13.8462 9.45206ZM19.2602 15.586C19.4618 15.5831 19.6544 15.493 19.797 15.3351C19.9395 15.1771 20.0208 14.9637 20.0234 14.7403C20.0234 11.6959 19.2907 9.6663 15.6984 9.6663C15.4959 9.6663 15.3018 9.7554 15.1587 9.91399C15.0155 10.0726 14.9351 10.2877 14.9351 10.512C14.9351 10.7363 15.0155 10.9514 15.1587 11.11C15.3018 11.2685 15.4959 11.3576 15.6984 11.3576C18.0899 11.3576 18.4969 12.2033 18.4969 14.7403C18.4996 14.9637 18.5808 15.1771 18.7234 15.3351C18.866 15.493 19.0586 15.5831 19.2602 15.586Z" fill="#6A6A6A"/>
</svg>
