<svg width="13" height="12" viewBox="0 0 13 12" fill="none" xmlns="http://www.w3.org/2000/svg">
<path d="M11.8695 5.18682L8.94531 8.1208C9.19469 8.8137 9.29804 9.97416 8.22398 11.4021C8.14886 11.5025 8.05296 11.5855 7.94281 11.6454C7.83267 11.7053 7.71088 11.7408 7.58578 11.7493C7.565 11.7493 7.54476 11.7493 7.52398 11.7493C7.409 11.7493 7.29515 11.7267 7.18893 11.6827C7.0827 11.6387 6.9862 11.5742 6.90492 11.4928L4.2657 8.85088L1.93437 11.1839C1.85228 11.2659 1.74094 11.3121 1.62484 11.3121C1.50874 11.3121 1.3974 11.2659 1.31531 11.1839C1.23322 11.1018 1.1871 10.9904 1.1871 10.8743C1.1871 10.7582 1.23322 10.6469 1.31531 10.5648L3.64828 8.23346L1.00687 5.59206C0.92005 5.50512 0.852508 5.40088 0.808644 5.28612C0.764779 5.17135 0.745575 5.04864 0.752281 4.92596C0.758988 4.80328 0.791455 4.68339 0.847569 4.57409C0.903682 4.46479 0.982185 4.36853 1.07797 4.29159C2.46812 3.16995 3.79867 3.39034 4.38109 3.57299L7.31234 0.631352C7.3936 0.55008 7.49006 0.48561 7.59624 0.441625C7.70241 0.397639 7.81621 0.375 7.93113 0.375C8.04605 0.375 8.15985 0.397639 8.26603 0.441625C8.3722 0.48561 8.46867 0.55008 8.54992 0.631352L11.8689 3.94979C12.0329 4.1138 12.1252 4.33623 12.1253 4.56819C12.1254 4.80016 12.0333 5.02267 11.8695 5.18682Z" fill="#6A6A6A"/>
</svg>
