<svg width="24" height="24" viewBox="0 0 24 24" fill="none" xmlns="http://www.w3.org/2000/svg">
<path d="M10.75 7.36328C10.75 7.63942 11.0298 7.86328 11.375 7.86328C11.7202 7.86328 12 7.63942 12 7.36328C12 7.08714 11.7202 6.86328 11.375 6.86328C11.0298 6.86328 10.75 7.08714 10.75 7.36328Z" stroke="black" stroke-linecap="round" stroke-linejoin="round"/>
<path d="M10.75 12.3633C10.75 12.6394 11.0298 12.8633 11.375 12.8633C11.7202 12.8633 12 12.6394 12 12.3633C12 12.0871 11.7202 11.8633 11.375 11.8633C11.0298 11.8633 10.75 12.0871 10.75 12.3633Z" stroke="black" stroke-linecap="round" stroke-linejoin="round"/>
<path d="M10.75 17.3633C10.75 17.6394 11.0298 17.8633 11.375 17.8633C11.7202 17.8633 12 17.6394 12 17.3633C12 17.0871 11.7202 16.8633 11.375 16.8633C11.0298 16.8633 10.75 17.0871 10.75 17.3633Z" stroke="black" stroke-linecap="round" stroke-linejoin="round"/>
</svg>
