<svg width="46" height="46" viewBox="0 0 46 46" fill="none" xmlns="http://www.w3.org/2000/svg">
<path d="M0.220703 7.82963C0.220703 3.64675 3.6116 0.255859 7.79447 0.255859H38.0896C42.2724 0.255859 45.6633 3.64675 45.6633 7.82963V38.1247C45.6633 42.3076 42.2724 45.6985 38.0896 45.6985H7.79447C3.61159 45.6985 0.220703 42.3076 0.220703 38.1247V7.82963Z" fill="#EFF6FF"/>
<path d="M22.9418 32.4442C28.1704 32.4442 32.409 28.2056 32.409 22.977C32.409 17.7484 28.1704 13.5098 22.9418 13.5098C17.7132 13.5098 13.4746 17.7484 13.4746 22.977C13.4746 28.2056 17.7132 32.4442 22.9418 32.4442Z" stroke="#2563EB" stroke-width="1.89344" stroke-linecap="round" stroke-linejoin="round"/>
<path d="M22.9422 13.5098C20.5112 16.0623 19.1553 19.4521 19.1553 22.977C19.1553 26.5019 20.5112 29.8917 22.9422 32.4442C25.3731 29.8917 26.729 26.5019 26.729 22.977C26.729 19.4521 25.3731 16.0623 22.9422 13.5098Z" stroke="#2563EB" stroke-width="1.89344" stroke-linecap="round" stroke-linejoin="round"/>
<path d="M13.4746 22.9775H32.409" stroke="#2563EB" stroke-width="1.89344" stroke-linecap="round" stroke-linejoin="round"/>
</svg>
