<svg width="30" height="31" viewBox="0 0 30 31" fill="none" xmlns="http://www.w3.org/2000/svg">
<path d="M15 0.875C12.1075 0.875 9.27986 1.73274 6.87479 3.33976C4.46972 4.94677 2.5952 7.23089 1.48827 9.90325C0.381337 12.5756 0.091713 15.5162 0.656022 18.3532C1.22033 21.1902 2.61323 23.7961 4.65857 25.8414C6.70391 27.8868 9.30984 29.2797 12.1468 29.844C14.9838 30.4083 17.9244 30.1187 20.5967 29.0117C23.2691 27.9048 25.5532 26.0303 27.1602 23.6252C28.7673 21.2201 29.625 18.3926 29.625 15.5C29.6209 11.6225 28.0788 7.90492 25.3369 5.16309C22.5951 2.42125 18.8775 0.879095 15 0.875ZM21.4209 16.2959L16.9209 20.7959C16.7098 21.007 16.4235 21.1256 16.125 21.1256C15.8265 21.1256 15.5402 21.007 15.3291 20.7959C15.118 20.5848 14.9994 20.2985 14.9994 20C14.9994 19.7015 15.118 19.4152 15.3291 19.2041L17.9095 16.625H9.37501C9.07664 16.625 8.79049 16.5065 8.57951 16.2955C8.36853 16.0845 8.25001 15.7984 8.25001 15.5C8.25001 15.2016 8.36853 14.9155 8.57951 14.7045C8.79049 14.4935 9.07664 14.375 9.37501 14.375H17.9095L15.3291 11.7959C15.118 11.5848 14.9994 11.2985 14.9994 11C14.9994 10.7015 15.118 10.4152 15.3291 10.2041C15.5402 9.99297 15.8265 9.87437 16.125 9.87437C16.4235 9.87437 16.7098 9.99297 16.9209 10.2041L21.4209 14.7041C21.5255 14.8085 21.6085 14.9326 21.6651 15.0692C21.7217 15.2058 21.7509 15.3522 21.7509 15.5C21.7509 15.6478 21.7217 15.7942 21.6651 15.9308C21.6085 16.0674 21.5255 16.1915 21.4209 16.2959Z" fill="white"/>
</svg>
