<svg width="33" height="33" viewBox="0 0 33 33" fill="none" xmlns="http://www.w3.org/2000/svg">
<path d="M25.8919 4.60156H7.45255C5.99773 4.60156 4.81836 5.78093 4.81836 7.23575V25.6751C4.81836 27.1299 5.99773 28.3093 7.45255 28.3093H25.8919C27.3467 28.3093 28.5261 27.1299 28.5261 25.6751V7.23575C28.5261 5.78093 27.3467 4.60156 25.8919 4.60156Z" stroke="#9CA3AF" stroke-width="2.63419" stroke-linecap="round" stroke-linejoin="round"/>
<path d="M12.7211 15.1375C14.1759 15.1375 15.3553 13.9582 15.3553 12.5033C15.3553 11.0485 14.1759 9.86914 12.7211 9.86914C11.2663 9.86914 10.0869 11.0485 10.0869 12.5033C10.0869 13.9582 11.2663 15.1375 12.7211 15.1375Z" stroke="#9CA3AF" stroke-width="2.63419" stroke-linecap="round" stroke-linejoin="round"/>
<path d="M28.526 20.4061L24.4614 16.3416C23.9674 15.8477 23.2975 15.5703 22.599 15.5703C21.9005 15.5703 21.2307 15.8477 20.7367 16.3416L8.76953 28.3087" stroke="#9CA3AF" stroke-width="2.63419" stroke-linecap="round" stroke-linejoin="round"/>
</svg>
