<svg width="29" height="29" viewBox="0 0 29 29" fill="none" xmlns="http://www.w3.org/2000/svg">
<rect width="29" height="29" rx="4" fill="#E1FFDC"/>
<path d="M23.9914 15.2117C23.924 15.2623 23.8473 15.2991 23.7657 15.32C23.6841 15.3409 23.5991 15.3455 23.5157 15.3336C23.4323 15.3217 23.3521 15.2934 23.2796 15.2505C23.2071 15.2076 23.1438 15.1508 23.0932 15.0834C22.7065 14.5636 22.2031 14.1418 21.6237 13.8521C21.0442 13.5624 20.4048 13.4127 19.7569 13.4153C19.6307 13.4152 19.5074 13.378 19.4023 13.3083C19.2971 13.2385 19.2149 13.1393 19.1658 13.0231C19.1325 12.9441 19.1154 12.8593 19.1154 12.7737C19.1154 12.688 19.1325 12.6032 19.1658 12.5242C19.2149 12.408 19.2971 12.3088 19.4023 12.239C19.5074 12.1693 19.6307 12.1321 19.7569 12.1321C20.1169 12.132 20.4697 12.031 20.7751 11.8406C21.0806 11.6501 21.3266 11.3778 21.485 11.0545C21.6435 10.7313 21.7081 10.3701 21.6716 10.012C21.6351 9.65383 21.4988 9.31312 21.2784 9.02853C21.0579 8.74394 20.7621 8.52688 20.4244 8.40201C20.0868 8.27713 19.7209 8.24945 19.3683 8.3221C19.0157 8.39475 18.6906 8.56483 18.4298 8.81301C18.169 9.06119 17.9831 9.37752 17.8931 9.72608C17.872 9.80771 17.8351 9.88438 17.7844 9.95173C17.7337 10.0191 17.6702 10.0758 17.5976 10.1186C17.525 10.1614 17.4447 10.1895 17.3612 10.2013C17.2777 10.2131 17.1928 10.2083 17.1111 10.1872C17.0295 10.1662 16.9528 10.1292 16.8855 10.0785C16.8181 10.0278 16.7614 9.96437 16.7186 9.89176C16.6758 9.81915 16.6477 9.73882 16.6359 9.65535C16.6241 9.57188 16.6289 9.48691 16.65 9.40529C16.7749 8.92194 17.0109 8.47441 17.3392 8.09832C17.6675 7.72223 18.0791 7.42795 18.5411 7.2389C19.0032 7.04986 19.503 6.97126 20.0008 7.00936C20.4985 7.04746 20.9805 7.20121 21.4084 7.45838C21.8363 7.71555 22.1983 8.06903 22.4655 8.49071C22.7328 8.91239 22.8979 9.39062 22.9478 9.88735C22.9977 10.3841 22.931 10.8856 22.753 11.352C22.5749 11.8184 22.2905 12.2368 21.9223 12.574C22.7947 12.9517 23.5531 13.5511 24.1222 14.3127C24.1727 14.3803 24.2094 14.4571 24.2302 14.5389C24.251 14.6207 24.2555 14.7058 24.2433 14.7893C24.2312 14.8728 24.2027 14.9531 24.1595 15.0256C24.1162 15.0981 24.0591 15.1613 23.9914 15.2117ZM19.6703 20.152C19.7167 20.225 19.7479 20.3067 19.7619 20.3921C19.776 20.4774 19.7726 20.5648 19.752 20.6488C19.7314 20.7329 19.6941 20.8119 19.6421 20.8811C19.5902 20.9503 19.5248 21.0084 19.4499 21.0517C19.375 21.095 19.2921 21.1227 19.2062 21.1331C19.1203 21.1435 19.0332 21.1365 18.9501 21.1124C18.867 21.0883 18.7896 21.0476 18.7226 20.9928C18.6557 20.938 18.6004 20.8703 18.5603 20.7936C18.1562 20.1092 17.5806 19.5421 16.8903 19.1481C16.2 18.7541 15.419 18.5468 14.6242 18.5468C13.8294 18.5468 13.0483 18.7541 12.358 19.1481C11.6678 19.5421 11.0921 20.1092 10.688 20.7936C10.6479 20.8703 10.5927 20.938 10.5257 20.9928C10.4587 21.0476 10.3813 21.0883 10.2982 21.1124C10.2151 21.1365 10.128 21.1435 10.0421 21.1331C9.95621 21.1227 9.8733 21.095 9.79839 21.0517C9.72347 21.0084 9.65809 20.9503 9.60617 20.8811C9.55426 20.8119 9.51689 20.7329 9.4963 20.6488C9.47571 20.5648 9.47234 20.4774 9.48638 20.3921C9.50043 20.3067 9.5316 20.225 9.57802 20.152C10.2 19.0832 11.1485 18.2422 12.2839 17.7524C11.645 17.2632 11.1755 16.5861 10.9412 15.8163C10.707 15.0464 10.72 14.2225 10.9782 13.4604C11.2365 12.6983 11.7271 12.0362 12.381 11.5674C13.035 11.0985 13.8195 10.8463 14.6242 10.8463C15.4288 10.8463 16.2133 11.0985 16.8673 11.5674C17.5212 12.0362 18.0118 12.6983 18.2701 13.4604C18.5283 14.2225 18.5413 15.0464 18.3071 15.8163C18.0729 16.5861 17.6033 17.2632 16.9644 17.7524C18.0998 18.2422 19.0483 19.0832 19.6703 20.152ZM14.6242 17.2648C15.1317 17.2648 15.6279 17.1143 16.05 16.8323C16.472 16.5503 16.8009 16.1495 16.9952 15.6805C17.1894 15.2116 17.2402 14.6956 17.1412 14.1978C17.0422 13.6999 16.7978 13.2427 16.4389 12.8837C16.0799 12.5248 15.6227 12.2804 15.1248 12.1814C14.627 12.0824 14.111 12.1332 13.642 12.3274C13.1731 12.5217 12.7723 12.8506 12.4903 13.2726C12.2083 13.6947 12.0578 14.1909 12.0578 14.6984C12.0578 15.3791 12.3282 16.0319 12.8095 16.5131C13.2907 16.9944 13.9435 17.2648 14.6242 17.2648ZM10.133 12.7737C10.133 12.6035 10.0654 12.4403 9.94508 12.32C9.82476 12.1997 9.66156 12.1321 9.4914 12.1321C9.13141 12.132 8.77864 12.031 8.47317 11.8406C8.16769 11.6501 7.92176 11.3778 7.76329 11.0545C7.60483 10.7313 7.54019 10.3701 7.57672 10.012C7.61325 9.65383 7.74949 9.31312 7.96995 9.02853C8.19041 8.74394 8.48626 8.52688 8.8239 8.40201C9.16154 8.27713 9.52744 8.24945 9.88002 8.3221C10.2326 8.39475 10.5578 8.56483 10.8185 8.81301C11.0793 9.06119 11.2652 9.37752 11.3552 9.72608C11.3978 9.89093 11.5041 10.0321 11.6507 10.1186C11.7973 10.2051 11.9723 10.2298 12.1372 10.1872C12.302 10.1447 12.4432 10.0384 12.5297 9.89176C12.6162 9.74512 12.6409 9.57013 12.5983 9.40529C12.4734 8.92194 12.2374 8.47441 11.9091 8.09832C11.5808 7.72223 11.1692 7.42795 10.7072 7.2389C10.2451 7.04986 9.74534 6.97126 9.24756 7.00936C8.74979 7.04746 8.26778 7.20121 7.83988 7.45838C7.41198 7.71555 7.05001 8.06903 6.78277 8.49071C6.51553 8.91239 6.35039 9.39062 6.30049 9.88735C6.25059 10.3841 6.31732 10.8856 6.49535 11.352C6.67339 11.8184 6.95782 12.2368 7.32602 12.574C6.45448 12.9521 5.69695 13.5514 5.12856 14.3127C5.02636 14.4488 4.98242 14.62 5.00641 14.7885C5.0304 14.957 5.12035 15.1091 5.25648 15.2113C5.39261 15.3135 5.56376 15.3575 5.73229 15.3335C5.90082 15.3095 6.05291 15.2195 6.15511 15.0834C6.54182 14.5636 7.04518 14.1418 7.62465 13.8521C8.20413 13.5624 8.84353 13.4127 9.4914 13.4153C9.66156 13.4153 9.82476 13.3477 9.94508 13.2273C10.0654 13.107 10.133 12.9438 10.133 12.7737Z" fill="#2AD60E"/>
</svg>
