<svg width="29" height="29" viewBox="0 0 29 29" fill="none" xmlns="http://www.w3.org/2000/svg">
<rect width="29" height="29" rx="4" fill="#FCF0CC"/>
<path d="M19.7518 12.3138C19.757 12.2171 19.7607 12.1197 19.7607 12.0186C19.7607 10.6876 19.2319 9.41108 18.2908 8.46991C17.3496 7.52874 16.0731 7 14.7421 7C13.4111 7 12.1346 7.52874 11.1934 8.46991C10.2522 9.41108 9.72349 10.6876 9.72349 12.0186C9.72349 12.1168 9.72349 12.2142 9.73235 12.3138C9.12674 12.6237 8.59046 13.0535 8.1561 13.5771C7.72173 14.1007 7.39836 14.7071 7.20562 15.3596C7.01288 16.012 6.95481 16.6968 7.03492 17.3724C7.11503 18.048 7.33166 18.7002 7.67164 19.2894C8.01162 19.8787 8.46786 20.3927 9.01263 20.8002C9.5574 21.2076 10.1793 21.5001 10.8406 21.6598C11.5019 21.8195 12.1888 21.843 12.8595 21.7291C13.5302 21.6151 14.1707 21.3659 14.7421 20.9967C15.3135 21.3659 15.954 21.6151 16.6247 21.7291C17.2954 21.843 17.9823 21.8195 18.6435 21.6598C19.3048 21.5001 19.9268 21.2076 20.4715 20.8002C21.0163 20.3927 21.4726 19.8787 21.8125 19.2894C22.1525 18.7002 22.3692 18.048 22.4493 17.3724C22.5294 16.6968 22.4713 16.012 22.2786 15.3596C22.0858 14.7071 21.7624 14.1007 21.3281 13.5771C20.8937 13.0535 20.3574 12.6237 19.7518 12.3138ZM14.7421 19.5074C14.0254 18.8226 13.6021 17.8866 13.5612 16.8962C14.3348 17.0842 15.142 17.0842 15.9156 16.8962C15.8767 17.8856 15.4561 18.8214 14.7421 19.5074ZM14.7421 15.8563C14.3907 15.8562 14.0411 15.8078 13.7029 15.7124C13.888 15.0514 14.2469 14.452 14.7421 13.9766C15.2373 14.452 15.5961 15.0514 15.7812 15.7124C15.4431 15.8078 15.0934 15.8562 14.7421 15.8563ZM12.6188 15.2135C11.8533 14.7038 11.2954 13.9371 11.046 13.0518C11.9502 12.7967 12.9165 12.8829 13.7612 13.2939C13.2414 13.8401 12.8509 14.4961 12.6188 15.2135ZM15.7229 13.2902C16.5681 12.8804 17.5345 12.7956 18.4381 13.0518C18.1896 13.9384 17.6316 14.7066 16.8654 15.2172C16.6342 14.4972 16.2437 13.8385 15.7229 13.2902ZM14.7421 8.18085C15.7334 8.18114 16.6863 8.5646 17.4015 9.25106C18.1167 9.93752 18.5389 10.8739 18.5798 11.8643C17.931 11.7065 17.2571 11.6803 16.5979 11.7873C15.9388 11.8943 15.3077 12.1323 14.7421 12.4872C14.1769 12.1328 13.5465 11.8951 12.888 11.7881C12.2296 11.6811 11.5563 11.707 10.908 11.8643C10.9489 10.8745 11.3706 9.9387 12.085 9.25234C12.7995 8.56597 13.7514 8.18209 14.7421 8.18085ZM8.24743 16.742C8.24775 16.1094 8.40444 15.4867 8.70355 14.9293C9.00266 14.3719 9.43493 13.897 9.96188 13.5471C10.3645 14.7918 11.2348 15.8315 12.3893 16.4468C12.3841 16.5435 12.3804 16.6409 12.3804 16.742C12.3799 18.0273 12.8744 19.2634 13.7612 20.1937C13.1762 20.4778 12.5286 20.6085 11.8793 20.5736C11.2299 20.5387 10.6 20.3393 10.0488 19.9942C9.49758 19.6492 9.04309 19.1697 8.728 18.6008C8.41291 18.0319 8.24754 17.3923 8.24743 16.742ZM17.399 20.5797C16.8182 20.5804 16.2449 20.4484 15.7229 20.1937C16.6098 19.2634 17.1043 18.0273 17.1038 16.742C17.1038 16.6438 17.1001 16.5464 17.0949 16.4468C18.25 15.8308 19.1204 14.7899 19.5223 13.5441C20.2094 14 20.7313 14.665 21.0109 15.4407C21.2905 16.2163 21.3128 17.0614 21.0746 17.8508C20.8364 18.6402 20.3503 19.3318 19.6883 19.8233C19.0262 20.3148 18.2235 20.5801 17.399 20.5797Z" fill="#EBB719"/>
</svg>
