<svg width="139" height="128" viewBox="0 0 139 128" fill="none" xmlns="http://www.w3.org/2000/svg">
<g clip-path="url(#clip0_1699_67850)">
<path d="M128.848 76.5533C116.779 119.155 83.7867 119.23 59.4395 118.687C29.1709 118.012 1.72266 92.3534 1.72266 59.604C1.72266 26.8547 15.9925 0.429688 56.1807 0.429688C96.3688 0.429688 146.521 14.1666 128.848 76.5533Z" fill="#24B2B4" fill-opacity="0.2"/>
<path d="M100.522 15.2145C100.522 15.2145 95.9067 22.6645 97.5821 23.8862C99.2576 25.1078 105.145 28.2274 105.867 27.6257C107.223 26.4966 110.125 20.3431 109.714 19.1058C109.079 17.1945 101.156 14.069 100.522 15.2145Z" fill="white"/>
<path d="M105.582 27.9094C103.849 27.9097 98.532 24.852 97.4525 24.0646C95.6671 22.763 99.8377 15.9033 100.333 15.1033C100.496 14.815 100.903 14.7054 101.572 14.7663C103.996 14.9902 109.371 17.376 109.923 19.0372C110.373 20.3928 107.416 26.6225 106.008 27.7957C105.914 27.8738 105.768 27.9094 105.582 27.9094ZM101.238 15.1895C100.911 15.1895 100.752 15.2545 100.714 15.3216L100.709 15.331C98.9662 18.1448 96.6113 22.907 97.7118 23.7094C99.8246 25.2506 105.216 27.8663 105.726 27.4578C107.113 26.303 109.867 20.266 109.505 19.1758C109.049 17.8005 103.956 15.4282 101.532 15.2042C101.421 15.1942 101.324 15.1895 101.238 15.1895Z" fill="#24B2B4" fill-opacity="0.2"/>
<path d="M107.556 19.3727C107.209 19.4901 102.057 22.9283 102.057 22.9283C102.057 22.9283 101.022 19.2293 101.012 19.125C101.012 19.125 99.878 19.239 99.6896 19.537C99.5013 19.835 100.577 24.3211 101.489 24.5113C102.402 24.7016 108.422 20.6056 108.422 20.6056L107.556 19.3727Z" fill="#24B2B4" fill-opacity="0.2"/>
<path d="M103.252 57.496C103.252 57.496 99.0531 48.8252 101.706 49.8498C104.359 50.8743 108.617 54.249 108.617 54.249L113.31 51.5855C114.323 51.0102 115.512 51.9879 115.144 53.0936L113.643 57.5957C113.643 57.5957 122.111 64.849 119.535 64.5969C116.959 64.3448 110.748 63.7366 110.748 63.7366C110.748 63.7366 112.433 73.0793 110.202 70.8722C107.971 68.6654 104.913 62.4004 104.913 62.4004C104.913 62.4004 93.9632 63.3168 97.0347 61.6292C100.106 59.9415 103.252 57.496 103.252 57.496Z" fill="white"/>
<path d="M18.0092 20.8128C18.0374 21.3854 18.7258 32.9955 18.7258 32.9955C18.7258 32.9955 7.11634 32.9955 10.556 35.7186C13.9957 38.4418 18.7258 42.7417 18.7258 42.7417C18.7258 42.7417 11.7824 49.3347 14.3225 49.3347C16.8626 49.3347 24.1724 48.0447 24.1724 48.0447C24.1724 48.0447 26.7522 61.6607 28.329 57.7909C29.9055 53.9211 31.1955 48.0447 31.1955 48.0447C31.1955 48.0447 50.4012 47.1847 46.5314 45.7513C42.6616 44.3179 34.3485 39.6478 34.3485 39.6478C34.3485 39.6478 43.0914 24.539 40.2249 24.9691C37.3584 25.3989 28.4827 31.5621 28.4827 31.5621C28.4827 31.5621 17.9468 19.5422 18.0092 20.8128Z" fill="white"/>
<path d="M67.3501 77.1878C67.3782 77.7604 68.0666 89.3708 68.0666 89.3708C68.0666 89.3708 56.4572 89.3708 59.8969 92.0939C63.3366 94.8171 68.0666 99.117 68.0666 99.117C68.0666 99.117 61.1232 105.71 63.6633 105.71C66.2034 105.71 73.5132 104.42 73.5132 104.42C73.5132 104.42 76.093 118.036 77.6698 114.166C79.2463 110.296 80.5363 104.42 80.5363 104.42C80.5363 104.42 99.7421 103.56 95.8722 102.127C92.0024 100.693 83.6893 96.0231 83.6893 96.0231C83.6893 96.0231 92.4322 80.9143 89.5657 81.3444C86.6992 81.7745 77.8235 87.9374 77.8235 87.9374C77.8235 87.9374 67.2876 75.9172 67.3501 77.1878Z" fill="white"/>
<path d="M17.0947 89.1847L18.918 83.6328L20.9886 89.1847C20.9886 89.1847 25.1252 89.8881 25.1733 90.2739C25.2205 90.6509 21.2141 91.8319 21.2141 91.8319C21.2141 91.8319 19.5327 97.2151 18.918 95.996C18.3032 94.7769 17.707 92.0781 17.707 92.0781C17.707 92.0781 12.498 90.9961 12.498 90.465C12.4977 89.8897 17.0947 89.1847 17.0947 89.1847Z" fill="white"/>
<path d="M74.4829 10.1535L75.8391 6.02344L77.3794 10.1535C77.3794 10.1535 80.4564 10.677 80.4924 10.9637C80.5273 11.2442 77.5471 12.1229 77.5471 12.1229C77.5471 12.1229 76.2964 16.1273 75.8391 15.2206C75.3818 14.3138 74.9383 12.3059 74.9383 12.3059C74.9383 12.3059 71.0635 11.501 71.0635 11.1058C71.0632 10.6776 74.4829 10.1535 74.4829 10.1535Z" fill="white"/>
<path d="M70.5649 43.5206L71.9212 39.3906L73.4614 43.5206C73.4614 43.5206 76.5385 44.0442 76.5744 44.3309C76.6094 44.6114 73.6292 45.4898 73.6292 45.4898C73.6292 45.4898 72.3785 49.4942 71.9212 48.5874C71.4639 47.6806 71.0203 45.6728 71.0203 45.6728C71.0203 45.6728 67.1455 44.8679 67.1455 44.4727C67.1455 44.0451 70.5649 43.5206 70.5649 43.5206Z" fill="white"/>
<path d="M123.738 52.0206L125.094 47.8906L126.634 52.0206C126.634 52.0206 129.711 52.5442 129.747 52.8309C129.782 53.1114 126.802 53.9898 126.802 53.9898C126.802 53.9898 125.551 57.9942 125.094 57.0874C124.637 56.1806 124.193 54.1728 124.193 54.1728C124.193 54.1728 120.318 53.3679 120.318 52.9727C120.318 52.5451 123.738 52.0206 123.738 52.0206Z" fill="white"/>
<path d="M33.5099 15.9112L34.2658 13.6094L35.1245 15.9112C35.1245 15.9112 36.8396 16.2029 36.8596 16.3628C36.8793 16.5193 35.2182 17.0088 35.2182 17.0088C35.2182 17.0088 34.521 19.2409 34.2661 18.7352C34.0112 18.2298 33.7641 17.1106 33.7641 17.1106C33.7641 17.1106 31.6045 16.6618 31.6045 16.4419C31.6039 16.2032 33.5099 15.9112 33.5099 15.9112Z" fill="white"/>
<path d="M110.01 78.2281C110.01 78.2281 110.512 86.4198 112.453 86.4473C114.395 86.4747 120.583 85.6745 120.809 84.8236C121.235 83.2271 120.124 76.9534 119.141 76.23C117.621 75.1127 109.874 77.0099 110.01 78.2281Z" fill="white"/>
<path d="M116.868 77.375C116.667 77.6524 113.601 84.4674 113.601 84.4674L114.684 85.124C115.314 84.3053 118.198 77.8492 118.198 77.8492L116.868 77.375Z" fill="#24B2B4" fill-opacity="0.2"/>
<path d="M112.229 79.6182C112.465 79.8672 118.604 84.1293 118.604 84.1293L119.447 83.1847C118.758 82.4157 112.939 78.3984 112.939 78.3984L112.229 79.6182Z" fill="#24B2B4" fill-opacity="0.2"/>
<path d="M46.7452 15.9096C46.7452 15.9096 45.9959 28.4658 48.9449 28.8665C51.8939 29.2673 61.4564 29.193 61.9584 27.9404C62.9005 25.5902 62.3707 15.8393 61.0076 14.5567C58.9026 12.5757 46.764 14.031 46.7452 15.9096Z" fill="white"/>
<path d="M53.756 29.2978C51.6804 29.2978 49.7997 29.2038 48.9148 29.0838C47.5729 28.9014 46.7667 26.6021 46.5193 22.2497C46.3428 19.1446 46.5165 16.0475 46.5249 15.901C46.5327 15.4653 46.9506 15.077 47.8021 14.7144C49.3308 14.0628 52.1364 13.5552 54.9492 13.4215C56.4292 13.3518 59.9988 13.305 61.158 14.3958C62.395 15.5596 63.3242 25.1225 62.1619 28.0215C61.7702 28.9998 57.4541 29.2978 53.756 29.2978ZM56.3461 13.8304C53.3431 13.8304 49.7222 14.3742 47.9746 15.1192C47.0662 15.5062 46.966 15.802 46.9647 15.9113L46.9644 15.9223C46.7595 19.3582 46.7211 28.342 48.9741 28.6481C53.8007 29.3034 61.4682 28.5719 61.754 27.8581C62.7242 25.438 62.0701 15.8582 60.8569 14.7165C60.1891 14.0884 58.4139 13.8304 56.3461 13.8304Z" fill="#24B2B4" fill-opacity="0.2"/>
<path d="M58.459 16.3594C58.1014 16.7439 53.9382 24.5994 53.9382 24.5994C53.9382 24.5994 50.1093 20.6331 50.0253 20.5081C50.0253 20.5081 48.6706 21.4255 48.6359 21.9303C48.6013 22.4354 53.0193 27.3669 54.3009 26.9855C55.5825 26.6041 60.3935 17.3258 60.3935 17.3258L58.459 16.3594Z" fill="#24B2B4" fill-opacity="0.2"/>
<path d="M109.794 19.5517C112.073 18.094 115.683 18.2052 118.927 19.1416C122.065 19.9609 126.307 21.6864 128.495 22.9127C130.832 24.2221 132.995 26.1035 133.827 28.6495C134.955 32.1017 133.555 35.8366 131.968 39.1033C130.696 41.7211 128.994 44.5174 126.181 45.2633C124.366 45.7443 122.449 45.2555 120.647 44.727C119.166 44.2928 117.694 43.8289 116.23 43.3395C114.162 45.0153 109.818 46.6355 109.686 45.7443C109.566 44.9409 111.48 43.4007 111.868 41.7902C111.433 41.6262 110.999 41.46 110.566 41.2913C108.491 40.4826 106.343 39.5474 104.977 37.7892C103.379 35.7335 103.149 32.9114 103.492 30.3303C104.058 26.0713 106.174 21.8663 109.794 19.5517Z" fill="#24B2B4"/>
<path d="M126.44 28.0282C125.798 28.2371 116.22 34.4671 116.22 34.4671C116.22 34.4671 114.392 27.6221 114.375 27.4297C114.375 27.4297 112.281 27.6155 111.927 28.1612C111.573 28.7069 113.461 37.0041 115.139 37.3749C116.817 37.7457 128.01 30.3209 128.01 30.3209L126.44 28.0282Z" fill="#A0D2F4"/>
<path d="M102.344 60.0019C101.85 57.8244 94.1106 56.9966 85.724 55.6341C77.3378 54.2716 70.668 55.7069 70.668 55.7069C70.668 55.7069 85.0506 89.4014 89.462 93.9432C93.8732 98.4849 108.256 98.8941 108.256 98.8941C108.256 98.8941 103.325 64.3277 102.344 60.0019Z" fill="#24B2B4"/>
<g opacity="0.3">
<path d="M74.5247 63.918C74.6578 63.8206 74.798 63.7172 74.9442 63.6094C75.2503 63.6591 75.5536 63.7078 75.8448 63.7553C76.3202 64.9932 74.4722 65.2159 74.5247 63.918ZM77.7767 70.5263C78.1115 70.6085 78.3383 70.4061 78.6363 70.2418C78.7456 68.4079 76.4948 69.5096 77.7767 70.5263ZM80.3268 75.1071C80.2768 75.327 80.2347 75.5144 80.1922 75.7027C80.3593 75.8839 80.518 76.0554 80.6944 76.2456C81.3866 75.9486 81.9676 75.4235 81.1205 74.9362C80.8366 74.9974 80.5751 75.0533 80.3268 75.1071ZM83.8518 77.7815C83.724 77.8496 83.6231 77.9036 83.5338 77.9508C83.3314 77.8921 83.3436 77.5625 83.0018 77.6509C82.9759 79.9468 85.2227 78.6961 83.8518 77.7815ZM81.5741 78.4687C81.4725 78.2797 81.3998 78.0751 81.2626 77.9152C80.721 77.8664 80.5411 77.8655 80.3952 78.0832L80.8363 78.9975C81.1355 79.0562 81.4316 78.9116 81.5741 78.4687ZM83.0209 75.5297C83.1943 76.2262 84.0292 76.2934 84.2919 75.8592C84.1404 75.5872 83.9883 75.3142 83.8355 75.0402C83.4966 74.9696 83.1302 75.1199 83.0209 75.5297ZM82.5889 80.3163C82.6086 80.0645 82.9541 79.9549 82.9119 79.5988C82.4496 78.9572 81.803 78.9647 81.5834 79.7909C81.9142 79.9674 82.0467 80.4665 82.5889 80.3163ZM87.9599 83.1544C88.1002 83.1781 88.2158 83.1609 88.3123 83.1213C88.1295 82.7886 87.9437 82.4503 87.7525 82.1033C87.4055 82.3944 87.3236 83.3359 87.9599 83.1544ZM84.5783 77.3482C84.7304 77.4979 84.9547 77.5129 85.1734 77.4435C85.0175 77.163 84.8604 76.8806 84.7026 76.597C84.5424 76.7769 84.4677 77.0446 84.5783 77.3482ZM72.1889 57.8898C71.2902 58.5907 71.8088 59.277 72.8049 58.8125C73.4718 58.5442 72.783 57.8077 72.1889 57.8898ZM75.7342 67.2419C75.9887 66.6662 75.33 66.4141 74.8415 66.5697L75.3625 67.6498C75.5149 67.6051 75.6517 67.4805 75.7342 67.2419ZM88.3854 85.8497C88.5887 85.5649 88.5868 85.2928 88.4934 85.0142C88.1755 84.9623 87.8928 84.9167 87.6141 84.8711C86.9426 85.4896 87.6332 86.3423 88.3854 85.8497ZM82.9903 81.2268C83.1965 81.3502 83.2652 81.4961 83.3751 81.6679C83.6484 81.8618 84.147 81.5654 84.276 81.3055C84.494 80.2563 83.2302 80.366 82.9903 81.2268ZM79.4063 71.9435C80.3287 71.7248 80.0426 70.427 79.2189 70.6413C78.7219 71.0686 78.7844 71.7214 79.4063 71.9435ZM88.9673 87.2819C89.1075 87.3294 89.2528 87.379 89.3877 87.425C89.7601 87.2463 89.7601 87.2463 90.0215 86.9386C90.0446 86.4085 89.6004 86.3745 89.2862 86.2121C88.7008 86.5354 88.6549 86.6928 88.9673 87.2819ZM82.7332 77.4851C83.1362 76.995 83.0578 76.4477 82.5496 76.483C82.2334 76.6564 81.7334 76.4177 81.6365 76.8731C81.8586 77.4672 82.096 77.6381 82.7332 77.4851ZM85.5513 79.9889C85.8106 79.5201 85.6051 79.2318 85.1603 79.0962C84.678 79.1705 84.637 79.5229 84.539 79.8534C84.5933 80.3894 85.4963 80.6549 85.5513 79.9889ZM92.1193 90.3324C92.0743 90.1953 91.9319 89.8898 91.7014 89.4322C91.6692 89.4978 91.6327 89.5796 91.5842 89.6889C91.7136 90.0166 91.8957 90.2787 92.1193 90.3324ZM80.8069 72.0063C80.6392 72.2109 80.4589 72.4311 80.2999 72.6247C80.3765 73.0917 80.7122 73.2157 81.1168 73.3772C81.2723 73.0708 81.4119 72.7959 81.5559 72.5123C81.3579 72.2662 81.1677 72.0509 80.8069 72.0063ZM81.9454 71.6552C81.8864 71.5496 81.8274 71.444 81.7683 71.3388C81.7399 71.389 81.7102 71.4406 81.6768 71.4968C81.7649 71.5643 81.8583 71.6077 81.9454 71.6552ZM89.2747 89.1076C89.2434 89.1089 89.215 89.1151 89.1869 89.1217C89.4124 89.2441 89.6332 89.3619 89.8466 89.4744C89.746 89.2788 89.5502 89.1208 89.2747 89.1076ZM77.4759 64.3375C77.6136 64.5859 77.8301 64.6983 78.0625 64.7498C78.0656 64.7486 78.0688 64.7473 78.0716 64.7458C77.9198 64.4756 77.7701 64.2095 77.6221 63.9461C77.5612 64.0517 77.5096 64.1798 77.4759 64.3375ZM75.7779 61.3142C75.6867 61.1462 75.5861 60.9612 75.4949 60.7932C74.8365 60.7173 74.6531 60.9981 74.5122 61.511C74.8896 62.1051 75.6736 62.0498 75.7779 61.3142ZM72.9145 61.5591C72.9692 60.9584 72.6 60.6301 72.0877 60.8613L72.585 61.8924C72.7143 61.8383 72.8327 61.7337 72.9145 61.5591ZM79.6249 76.4858L79.9235 77.1046C79.9517 76.9753 79.9616 76.8313 79.9976 76.6839C79.8589 76.5855 79.7377 76.5271 79.6249 76.4858ZM90.9695 88.9455C91.0588 88.8128 91.1507 88.6766 91.2416 88.5413C91.0923 88.2565 90.9273 87.9444 90.7462 87.6046C90.7149 87.579 90.6846 87.5518 90.6568 87.5184C90.247 87.9835 90.1393 88.9661 90.9695 88.9455ZM72.4725 56.4089C72.6784 56.1709 72.8533 55.9679 73.0185 55.7764C72.8711 55.5156 72.7914 55.375 72.7914 55.375L71.8009 55.5056C71.9012 55.7567 71.9924 55.9875 72.0946 56.2427C72.187 56.2833 72.3092 56.3371 72.4725 56.4089ZM82.1307 74.6698C82.4865 74.5561 82.8885 74.6139 82.9581 74.1344C82.5342 73.6262 82.3534 73.3135 81.7234 73.7164C81.645 74.1209 81.7827 74.4305 82.1307 74.6698ZM73.1981 59.9005C73.0879 60.4583 73.8831 60.5977 74.2245 60.3109C74.1593 60.1191 74.2961 59.986 74.3514 59.8264C74.3495 59.1677 73.1853 59.2261 73.1981 59.9005ZM77.3053 71.2769C77.276 70.8671 77.062 70.6828 76.8174 70.6662L77.2198 71.4999C77.2622 71.4368 77.2935 71.3637 77.3053 71.2769ZM80.1306 73.946C79.53 73.5906 79.53 73.5906 79.0496 73.6943C78.7628 73.9707 78.9209 74.2378 79.0658 74.5682C79.5793 74.5642 80.3555 74.725 80.1306 73.946ZM84.6867 82.1736C84.1788 82.9348 85.3217 83.6464 85.7219 82.723C85.6878 82.1199 85.1996 81.8031 84.6867 82.1736ZM73.2172 62.544C73.3134 62.7607 73.4137 62.9875 73.5136 63.2127C73.791 63.2127 74.0427 63.2127 74.3058 63.2127C74.3673 63.0572 74.4229 62.9157 74.4876 62.7504C74.2673 62.5174 74.0799 62.32 73.8966 62.1254C73.592 62.1498 73.3421 62.2266 73.2172 62.544ZM88.6384 88.2034C88.287 87.717 87.8653 87.5105 87.3786 87.9622C87.3842 88.0213 87.3942 88.0778 87.4071 88.1318C87.7294 88.3149 88.0593 88.5004 88.3888 88.6835C88.4938 88.5848 88.5831 88.4301 88.6384 88.2034ZM84.5693 85.4805C84.781 85.7626 84.9082 85.9319 85.0434 86.1124C85.4854 86.009 85.4854 86.009 85.6738 85.3331C85.4973 84.8074 84.5477 84.8318 84.5693 85.4805ZM73.1838 57.1989C73.5264 57.6474 73.84 57.7168 74.0571 57.6156C73.841 57.2323 73.6498 56.8937 73.4846 56.601C73.3837 56.8006 73.2847 56.9977 73.1838 57.1989ZM80.1466 68.6144C79.9173 68.3832 79.8664 68.0465 79.5059 67.9637C78.7288 68.1499 78.7244 68.9002 79.4987 69.101C79.7867 69.0326 79.952 68.8477 80.1466 68.6144ZM76.0734 65.5748C76.1565 65.7382 76.2233 65.87 76.3205 66.0605C78.1162 66.4157 76.5857 63.8409 76.0734 65.5748ZM70.872 56.517C70.584 56.5467 70.5646 56.8709 70.5034 57.1392C70.2748 57.4163 70.7733 57.6071 70.9732 57.5662C71.9221 57.6946 71.5714 56.3311 70.872 56.517ZM86.4662 86.3667C86.3672 86.7065 85.903 86.6184 85.8565 86.9967C86.0208 87.3859 86.4034 87.3141 86.7161 87.4243C86.9763 87.1994 87.2681 87.0205 87.0316 86.6684C86.9663 86.4354 86.6696 86.0684 86.4662 86.3667ZM78.7141 66.9742C78.6032 66.9289 78.4845 66.8801 78.368 66.832C78.3599 66.7524 78.3521 66.6793 78.3414 66.5793C78.1478 66.555 77.9672 66.5153 77.7836 66.46C77.5655 66.6734 77.5452 66.9457 77.4703 67.1694C77.767 67.8313 78.4908 67.6267 78.7141 66.9742ZM78.7016 72.7719C78.596 72.0103 78.025 72.1715 77.7017 72.4998L78.0588 73.2404C78.1397 73.2379 78.2234 73.2342 78.3246 73.2192C78.448 73.073 78.5717 72.9265 78.7016 72.7719ZM83.1608 83.6754C83.2021 83.7629 83.2158 83.8531 83.2227 83.945L83.5232 84.5681C84.6783 84.4932 84.2029 82.8842 83.1608 83.6754ZM86.5296 81.696C87.7753 81.9103 86.8373 80.0545 85.9871 80.9182C85.924 81.4445 86.2163 81.4648 86.5296 81.696ZM70.1108 55.7283L69.6416 55.7901L69.7947 56.1078C70.0217 56.0163 70.1161 55.8788 70.1108 55.7283ZM86.2479 83.6051C85.6881 84.4763 86.7158 85.0641 87.1334 84.0668C86.861 83.5123 86.861 83.5123 86.2479 83.6051ZM82.8425 82.7327C82.542 82.4844 82.7573 82.1373 82.4677 81.9112C82.4031 81.9346 82.3384 81.9565 82.2744 81.9793L82.7657 82.9982C82.8457 82.9557 82.8869 82.8776 82.8425 82.7327ZM81.1652 70.2605C80.9965 69.9591 80.8285 69.6592 80.661 69.3603C80.5967 69.399 80.5295 69.4543 80.4605 69.5283C79.9945 70.059 80.6748 70.4295 81.1652 70.2605ZM76.1468 62.5371C76.2577 62.8092 76.3576 63.054 76.4576 63.2992C76.8905 63.3564 76.9992 63.3577 77.1435 63.095C77.0042 62.8476 76.8674 62.6042 76.7328 62.3647C76.5341 62.3266 76.3214 62.3715 76.1468 62.5371ZM77.0133 68.8661C77.3394 68.3757 77.2004 68.3545 76.9087 68.1083C75.8473 67.5208 76.0815 69.2166 77.0133 68.8661Z" fill="#421B36"/>
</g>
<path d="M79.9003 59.0608C79.9003 59.0608 73.7272 67.041 80.3639 67.4723C87.0006 67.9037 101.746 58.8075 92.1358 56.6431C82.5257 54.4791 79.9003 59.0608 79.9003 59.0608Z" fill="#A0D2F4"/>
<path d="M80.8246 59.4427C80.8246 59.4427 76.7736 66.3399 81.3712 66.68C85.9688 67.0202 97.2384 59.6157 92.1373 56.6464C87.0365 53.6778 80.8246 59.4427 80.8246 59.4427Z" fill="#FFBFBF"/>
<path d="M10.3686 57.0982C10.3686 57.0982 35.6923 127.045 39.9094 125.674C49.9677 122.405 90.4258 105.496 90.3008 101.837C90.0719 95.1252 61.5075 36.4315 60.1035 34.5149C58.7644 32.6864 9.72175 54.5062 10.3686 57.0982Z" fill="#24B2B4"/>
<path d="M12.2157 58.5051C12.2157 58.5051 36.0631 124.759 40.2802 123.388C50.3385 120.119 90.1915 104.617 87.4359 98.4934C84.6803 92.3696 60.9491 39.9741 59.545 38.0571C58.2056 36.2292 11.5688 55.9132 12.2157 58.5051Z" fill="white"/>
<path d="M40.0968 123.645C39.1347 123.645 36.2576 121.34 24.4616 91.5413C18.0458 75.3336 12.0681 58.7451 12.0085 58.5796L12.0019 58.5583C11.9148 58.2088 11.6496 57.1455 24.2145 51.2553C30.9543 48.0958 39.5567 44.4281 46.6645 41.6843C58.9886 36.9268 59.5212 37.6533 59.722 37.9273C61.1429 39.867 84.9763 92.4927 87.6363 98.4035C87.8662 98.9145 87.8409 99.4946 87.5608 100.127C84.4562 107.138 49.1027 120.752 40.3482 123.598C40.2804 123.619 40.1992 123.645 40.0968 123.645ZM12.4283 58.4474C12.651 59.0656 18.548 75.4082 24.8708 91.3804C36.5175 120.802 39.4771 123.413 40.212 123.179C48.9287 120.346 84.1129 106.828 87.1584 99.9488C87.389 99.4281 87.4139 98.9814 87.235 98.5838C84.5771 92.677 60.7665 40.0976 59.3672 38.1872C57.8991 37.1145 24.1212 50.7184 14.3587 56.8453C12.4811 58.0236 12.4267 58.4012 12.4283 58.4474Z" fill="#421B36"/>
<path d="M11.7292 58.053C11.7292 58.053 37.0422 121.847 41.2594 120.476C51.3177 117.207 92.1109 102.029 89.3549 95.9056C86.5993 89.7818 61.082 38.1778 59.678 36.2609C58.3389 34.4329 11.0823 55.461 11.7292 58.053Z" fill="white"/>
<path d="M41.0704 120.734C40.0974 120.734 37.1453 118.481 24.7118 89.8657C17.9333 74.2656 11.5887 58.2931 11.5252 58.1338L11.5162 58.106C11.1626 56.6885 20.902 51.7904 29.1345 47.9312C38.6962 43.4491 58.7856 34.6696 59.8557 36.1308C61.2129 37.9841 86.6196 89.2904 89.5558 95.8149C89.7801 96.3132 89.7566 96.8751 89.4867 97.4848C86.3044 104.673 48.2059 118.449 41.3278 120.685C41.2591 120.707 41.1766 120.734 41.0704 120.734ZM11.9426 57.9935C12.214 58.6766 18.4553 74.3643 25.1154 89.6915C37.4208 118.011 40.4594 120.502 41.1919 120.267C52.4871 116.595 86.2029 103.815 89.0847 97.3068C89.3049 96.8095 89.3278 96.3803 89.1547 95.9955C86.221 89.4769 60.8534 38.2371 59.5009 36.3907C58.0628 35.3959 24.5656 49.5998 14.2284 56.12C12.0338 57.504 11.9438 57.936 11.9426 57.9935Z" fill="#421B36"/>
<path d="M47.767 75.3746C54.6604 72.0623 61.5598 68.7604 68.3902 65.3194C68.7063 65.1601 68.4283 64.6856 68.1128 64.8446C61.2825 68.2859 54.3831 71.5879 47.4896 74.8998C47.1707 75.0532 47.4493 75.5273 47.767 75.3746Z" fill="#421B36"/>
<path d="M49.3185 78.9671C56.4644 76.0834 63.4097 72.723 70.2532 69.1877C70.5677 69.0253 70.2897 68.5508 69.9758 68.713C63.1748 72.2261 56.2738 75.5711 49.1726 78.4367C48.8484 78.5676 48.9899 79.0995 49.3185 78.9671Z" fill="#421B36"/>
<path d="M56.3646 95.1635C63.2581 91.8513 70.1575 88.5493 76.9879 85.1084C77.304 84.9491 77.026 84.4749 76.7105 84.6336C69.8801 88.0749 62.9807 91.3768 56.0873 94.6888C55.7683 94.8421 56.047 95.3163 56.3646 95.1635Z" fill="#421B36"/>
<path d="M57.9152 98.764C65.061 95.8803 72.0064 92.5199 78.8498 88.9846C79.1644 88.8222 78.8864 88.3477 78.5725 88.5098C71.7718 92.0229 64.8705 95.368 57.7693 98.2336C57.4451 98.3645 57.5866 98.8964 57.9152 98.764Z" fill="#421B36"/>
<path d="M59.6896 102.361C65.9493 99.4191 72.2093 96.477 78.469 93.5349C78.7888 93.3843 78.5102 92.9105 78.1916 93.0601C71.9319 96.0022 65.6719 98.9443 59.4122 101.886C59.0921 102.037 59.371 102.511 59.6896 102.361Z" fill="#421B36"/>
<path d="M27.9129 81.2684C27.9129 81.2684 32.2894 94.0217 35.3761 93.2165C38.4629 92.4112 47.9127 88.4389 47.8995 86.9924C47.8752 84.2783 43.3744 74.8278 41.5005 74.1119C38.6062 73.0065 27.1657 79.3983 27.9129 81.2684Z" fill="white"/>
<path d="M35.0955 93.4729C33.7611 93.4729 32.1462 91.5144 30.2892 87.6399C28.8474 84.6316 27.7566 81.4886 27.7069 81.3449C27.5395 80.9163 27.7941 80.3666 28.4853 79.6647C31.0295 77.0809 39.1537 72.9802 41.5791 73.9073C42.9266 74.4218 44.991 78.4768 45.5917 79.7069C46.8405 82.2654 48.1065 85.5099 48.1199 86.9908C48.1356 88.7475 38.0054 92.7582 35.4322 93.4295C35.3223 93.4582 35.2098 93.4729 35.0955 93.4729ZM40.653 74.2C37.7337 74.2 30.9886 77.749 28.7989 79.973C28.0502 80.7336 28.073 81.0756 28.1177 81.1872L28.1214 81.1975C29.3203 84.6912 32.9574 93.6094 35.3207 93.004C39.0084 92.0413 47.6901 88.129 47.6798 86.9949C47.6548 84.1971 43.0928 74.9559 41.422 74.3174C41.2127 74.2378 40.9528 74.2 40.653 74.2Z" fill="#24B2B4"/>
<g opacity="0.3">
<path d="M44.8343 48.735C44.77 48.4533 44.8831 48.1762 45.3179 48.2122C45.3179 48.0941 45.3179 47.9757 45.3179 47.8576C45.4491 47.8807 45.5802 47.9032 45.7464 47.932C45.7914 47.9841 45.8286 48.0413 45.862 48.1C45.5275 48.3093 45.1842 48.5214 44.8343 48.735ZM45.3179 45.1417C45.0286 45.255 44.8331 45.4425 44.8031 45.7423C44.9358 45.9691 45.1048 46.0244 45.3179 45.9682C45.3179 46.0469 45.3179 46.1259 45.3179 46.2046C46.2181 46.224 45.9516 45.3953 45.3179 45.1417ZM50.678 42.4094C50.5958 42.6534 50.5183 42.8852 50.4396 43.1185C51.2002 44.2046 52.3 42.828 51.2286 42.2074C51.0028 42.2904 50.8394 42.3507 50.678 42.4094ZM46.6129 46.6041C46.4458 46.815 46.3408 47.0377 46.274 47.2523C46.3421 47.4728 46.4705 47.5687 46.617 47.6224C46.9253 47.4256 47.2245 47.232 47.5141 47.0417C47.3632 46.7116 46.9793 46.6638 46.6129 46.6041ZM48.3321 45.0995C48.1553 45.1966 47.9882 45.2872 47.8392 45.3684C47.7636 46.1015 47.982 46.4595 48.6017 46.2968C48.7032 46.0584 48.9406 45.8442 48.8391 45.5024C48.6792 45.375 48.5149 45.2444 48.3321 45.0995ZM47.5178 38.7655C47.3469 38.0121 46.5179 37.9255 46.2893 38.6855C46.7656 39.319 47.0074 39.3343 47.5178 38.7655ZM48.8116 39.6563C48.5689 39.6323 48.3599 39.6116 48.1285 39.5892C48.0157 39.9025 47.7324 40.1402 47.8374 40.4931C48.4168 40.6506 49.0799 40.5066 48.8116 39.6563ZM48.999 44.3367C49.5681 45.1969 50.1263 44.7222 50.4096 43.9441C50.1348 43.8807 49.9033 43.8269 49.6812 43.776C49.4901 44.1605 49.49 44.1605 48.999 44.3367ZM48.7666 42.659C48.3993 42.243 48.0816 42.5803 47.8114 42.9111C48.0813 43.5861 48.3187 43.4131 48.8453 43.2341C49.1027 43.0873 48.9397 42.7999 48.7666 42.659ZM46.1534 44.2624C46.4567 44.4004 46.582 44.5204 46.6829 44.8496C48.2962 44.704 46.8275 43.1894 46.1534 44.2624ZM47.5187 41.5686C47.2304 41.1919 46.3964 41.1072 46.2209 41.5926C46.4889 42.0209 47.3192 42.0131 47.5187 41.5686ZM49.7712 40.9782C49.7212 41.0713 49.6765 41.1547 49.6178 41.264C48.3915 41.2409 49.8015 42.1043 50.4228 41.5311C50.216 41.2812 50.1188 40.9667 49.7712 40.9782ZM45.1314 39.6066C45.0455 39.86 44.9583 40.1161 44.8787 40.3501C45.0377 40.7315 45.0411 40.7305 45.3179 40.7724C45.3179 40.6937 45.3179 40.6153 45.3179 40.5365C45.4884 40.5812 45.6565 40.5981 45.797 40.5134C46.1537 39.9668 45.9385 39.6741 45.3179 39.71C45.3179 39.6707 45.3179 39.631 45.3179 39.592C45.2591 39.5967 45.201 39.601 45.1314 39.6066ZM44.789 42.6137C45.0389 42.9745 45.0389 42.9745 45.0945 43.345C45.1676 43.3531 45.2429 43.3618 45.3179 43.3703C45.5278 43.4337 45.6724 43.2866 45.8229 43.2335C45.8864 43.0467 45.9401 42.8861 45.9919 42.7327C45.8229 42.4879 45.5659 42.4045 45.3179 42.3076C45.3179 42.347 45.3179 42.3863 45.3179 42.4257C45.0895 42.2904 44.8784 42.3554 44.789 42.6137ZM28.8181 54.772C29.5159 54.1548 28.3808 53.228 27.7811 53.8568C27.3269 54.6315 28.1259 55.3261 28.8181 54.772ZM27.4668 56.0827C27.5474 55.6738 27.4618 55.3505 27.156 55.0547C26.834 55.0834 26.5454 55.1091 26.2377 55.1369C26.0065 56.0015 26.7218 56.7861 27.4668 56.0827ZM28.9977 52.0436C28.79 51.1724 29.261 50.7032 27.9185 50.8753C27.4446 51.7103 28.1197 52.4337 28.9977 52.0436ZM25.6083 56.4319C25.5221 56.4375 25.4474 56.4566 25.3787 56.4806C25.6223 56.7642 25.89 57.0007 26.183 57.1716C26.1933 56.8314 25.995 56.475 25.6083 56.4319ZM29.2154 47.6905C29.8308 47.8923 30.3483 47.6162 30.3268 47.072C29.9476 47.2832 29.5765 47.4897 29.2154 47.6905ZM30.4467 55.7497C30.4477 55.418 29.966 54.9626 29.6396 54.9997C29.306 55.0809 29.4119 55.4726 29.1935 55.6497C29.1379 55.6954 29.1426 55.8943 29.1945 55.9768C29.5028 56.5372 30.433 56.4519 30.4467 55.7497ZM43.9803 43.6198C43.1816 43.9291 43.096 44.7906 43.9769 45.0292C44.8262 44.8137 44.6956 43.9772 43.9803 43.6198ZM25.6255 54.9651C25.8201 54.6667 26.4948 54.4097 26.0731 53.9939C25.7092 53.6544 25.0495 53.501 24.7974 54.0567C25.0173 54.4306 25.0751 54.9676 25.6255 54.9651ZM27.6402 52.8519C27.4928 52.4215 27.1492 52.3475 26.8821 52.1416C26.3583 52.5155 26.0799 53.0481 26.635 53.5323C27.2194 53.6494 27.2838 53.0681 27.6402 52.8519ZM42.3567 45.0907C42.0165 45.2647 42.0846 45.7073 41.7907 45.9129C42.6722 47.1948 44.0278 45.4884 42.3567 45.0907ZM34.1357 52.1569C34.3322 52.0229 34.5043 51.9061 34.6889 51.7806C34.6236 51.4969 34.5764 51.293 34.529 51.0871C34.3478 50.9694 34.1726 50.8557 34.0095 50.7504C33.6412 50.9428 33.2652 51.3286 33.481 51.7643C33.7718 51.7181 33.9411 51.9455 34.1357 52.1569ZM28.3524 56.4256C28.1197 56.6865 27.7108 56.807 27.6845 57.1844C27.7142 57.2468 27.752 57.3009 27.7936 57.3515C28.1306 57.2687 28.5376 57.1385 29.0033 56.9676C28.9974 56.942 28.9946 56.9179 28.9861 56.8911C28.7566 56.7227 28.5548 56.5746 28.3524 56.4256ZM24.6843 50.2147C24.4119 50.3665 24.1733 50.4999 23.9728 50.6117C24.347 50.8588 24.6087 50.5717 24.6843 50.2147ZM34.0055 45.0733C32.5455 45.5359 34.2663 47.1826 34.7023 45.747C34.4827 45.4862 34.2794 45.255 34.0055 45.0733ZM27.7467 48.8134C28.02 49.3688 28.6835 49.1308 29.0214 48.7404C28.9755 48.384 28.7622 48.1625 28.5214 48.0763C28.2543 48.225 27.9935 48.3702 27.7405 48.5111C27.7273 48.6001 27.7264 48.6997 27.7467 48.8134ZM36.8295 52.1285C37.6082 51.7552 37.6382 51.3904 36.9276 50.845C35.9902 50.9016 36.1061 51.8349 36.8295 52.1285ZM23.7198 52.3044C23.6845 52.4462 23.6507 52.5821 23.6289 52.7214C23.6832 52.9191 23.7448 53.1268 23.8119 53.3402C25.0885 53.5448 25.1001 51.9567 23.7198 52.3044ZM30.2806 52.5549C29.9535 52.1519 29.4656 52.2154 29.2101 52.6542C29.2838 53.0241 29.3682 53.3583 29.7052 53.5329C29.8932 53.5198 29.9969 53.4461 30.1847 53.3801C30.1484 53.0547 30.3927 52.8232 30.2806 52.5549ZM32.6639 50.5798C32.8532 50.3809 33.1208 50.3443 33.2252 50.1079C32.97 48.508 30.9409 50.3381 32.6639 50.5798ZM30.0201 50.6932C30.6298 49.8305 30.0978 49.2517 29.1745 49.7327C29.0068 50.3846 29.4234 50.642 30.0201 50.6932ZM27.4309 49.6668C27.3066 49.5865 27.1613 49.4935 27.0383 49.4141C25.062 50.2306 27.7967 51.4582 27.4309 49.6668ZM40.0496 48.0332C39.3252 47.8701 39.046 48.3955 39.3015 49.0299C40.0593 49.5025 40.505 48.6648 40.0496 48.0332ZM30.6276 48.8016C30.9746 49.2948 31.6103 49.3104 31.8092 48.6816C31.6834 47.9235 30.2025 47.9651 30.6276 48.8016ZM34.0938 47.956C33.674 48.1241 33.674 48.1241 33.446 48.5539C33.8411 49.9898 35.2474 48.6382 34.0938 47.956ZM31.2892 54.8476C31.6068 54.6833 31.6721 54.4019 31.8417 54.1913C31.7268 54.0049 31.6268 53.8424 31.5381 53.6984C30.7091 53.7775 30.3199 53.8815 30.8419 54.7017C30.994 54.7402 31.1374 54.7873 31.2892 54.8476ZM31.9183 55.7203C31.9192 55.7241 31.9214 55.7263 31.9223 55.73C32.215 55.5945 32.5155 55.4526 32.8235 55.3052C32.5236 55.0094 32.0366 55.1515 31.9183 55.7203ZM40.8008 41.9771C41.6798 42.1421 41.7648 41.523 41.339 40.9685C41.1023 41.0988 40.863 41.2309 40.6184 41.3659C40.6187 41.5789 40.6871 41.8116 40.8008 41.9771ZM38.7933 49.8414C38.5297 49.6537 38.5297 49.6537 38.0989 49.57C37.8319 49.7655 37.5598 49.9642 37.686 50.4137C38.3657 50.7891 38.6212 50.6529 38.7933 49.8414ZM25.2406 51.9955C25.9128 51.9061 26.0037 51.833 26.158 51.2673C25.9891 50.8775 25.5861 51.0162 25.2759 50.8632C24.9942 51.118 24.9783 51.3689 25.2222 51.6362C25.2906 51.7515 25.0604 51.8849 25.2406 51.9955ZM37.9734 52.389C37.6844 52.4393 37.6191 52.6314 37.6741 52.8291C37.9262 52.6939 38.1789 52.5574 38.4322 52.4196C38.2938 52.3547 38.1345 52.3325 37.9734 52.389ZM30.875 50.8691C30.7588 51.2174 30.5548 51.51 30.7822 51.833C31.0349 51.8215 31.2295 51.8721 31.4197 52.0161C31.7896 51.6887 31.7874 51.6897 31.6037 51.3476C31.5031 50.9619 31.297 50.7688 30.875 50.8691ZM37.6794 47.0474C37.7891 47.39 37.7475 47.7811 38.1926 47.8558C39.4489 47.5834 38.37 46.268 37.6794 47.0474ZM43.44 47.1126C43.2019 48.1116 44.84 47.4347 44.5073 46.9196C44.1375 46.6479 43.3681 46.3243 43.44 47.1126ZM43.0417 40.3626C43.0186 40.257 42.9989 40.1592 42.9774 40.0671C42.7284 40.2039 42.471 40.3454 42.2077 40.49C42.3761 40.5934 42.6597 40.5668 43.0417 40.3626ZM23.3306 51.4769C23.3671 51.3636 23.3456 51.2714 23.2725 51.178C23.2862 51.2536 23.3059 51.3557 23.3306 51.4769ZM35.4589 49.4566C35.442 49.3585 35.393 49.3123 35.3061 49.3404C35.2618 49.3545 35.1955 49.4307 35.2049 49.4575C35.273 49.9208 34.5258 49.9361 35.0453 50.4668C35.2718 50.4668 35.5026 50.4668 35.739 50.4668C35.8668 50.2778 35.9861 50.1029 36.1139 49.9142C35.9593 49.461 35.4692 49.9482 35.4589 49.4566ZM42.4891 48.0472C42.1355 48.1147 41.776 48.542 41.9712 48.9097C42.4763 49.1092 42.8034 49.1005 43.0351 48.5508C42.9542 48.2321 42.7575 48.0997 42.4891 48.0472ZM44.223 40.9401C43.9522 40.9307 43.7098 40.8908 43.6427 41.1891C43.1704 41.3821 43.3634 41.6435 43.6492 41.9837C44.4707 42.1449 44.4454 41.5542 44.223 40.9401ZM40.2136 45.8657C40.0396 45.5024 40.0396 45.5024 39.6898 45.3291C39.1634 45.4306 38.8395 45.5961 39.3177 46.1871C39.4974 46.2409 39.6991 46.3014 39.9262 46.3699C40.0327 46.1824 40.1274 46.0163 40.2136 45.8657ZM32.8291 53.3548C32.8075 53.2833 32.7857 53.2112 32.7494 53.0896C34.2191 52.4174 31.9567 52.1904 32.007 53.1112C32.0782 53.3776 32.6439 53.601 32.8291 53.3548ZM33.575 53.8581C33.4195 54.2145 33.6662 54.4837 33.6706 54.8336C33.7031 54.8423 33.7306 54.8439 33.7609 54.8495C33.9761 54.7436 34.1935 54.6352 34.4137 54.5249C34.5196 54.1345 34.1944 53.5872 33.575 53.8581ZM40.059 42.5825C39.4399 42.4822 38.8686 42.8186 39.3018 43.4599C39.5045 43.4787 39.7132 43.4974 39.9247 43.5171C40.039 43.359 40.1399 43.22 40.2389 43.0835C40.1817 42.9255 40.1305 42.7808 40.059 42.5825ZM36.0024 44.2099C35.9552 44.1262 35.9033 44.0606 35.8499 44.004C35.5404 44.1758 35.2305 44.3476 34.9207 44.5194C34.9363 44.6103 34.9678 44.7059 35.0203 44.804C35.4286 44.8262 35.7712 44.6078 36.0024 44.2099ZM38.3719 43.6636C38.2467 43.6223 38.0677 43.7079 38.0283 43.8991C37.988 44.2299 37.6947 44.1658 37.5613 44.3839C37.7622 44.4442 37.8746 44.5813 37.9968 44.7331C38.5999 45.1835 39.0066 43.8382 38.3719 43.6636ZM37.2253 49.0015C37.2499 48.7819 37.2727 48.5754 37.2987 48.3471C35.8902 47.6993 35.9808 49.5653 37.2253 49.0015ZM33.1602 47.2832C32.9113 47.0018 32.533 47.0202 32.3246 46.7447C32.1316 46.8409 31.996 46.9964 31.8623 47.1917C32.2759 47.7761 32.8222 48.0369 33.1602 47.2832ZM35.67 53.189C35.9808 52.871 35.77 52.623 35.6844 52.3778C34.5611 52.1135 34.5027 53.4757 35.67 53.189ZM42.9664 43.1532C43.3141 42.6297 42.6744 42.3742 42.2211 42.4747C41.6633 43.1251 42.447 43.5508 42.9664 43.1532ZM40.7865 44.0259C40.5335 44.2842 40.6237 44.7862 41.0239 44.8121C42.1165 44.6488 41.5261 43.5536 40.7865 44.0259ZM40.7843 47.6293C42.7543 47.2969 40.6809 45.9057 40.5631 47.4309C40.6322 47.4928 40.7162 47.5681 40.7843 47.6293ZM36.1404 45.7654C36.4359 46.2277 36.3859 46.1047 37.0859 46.0297C37.7544 45.2279 36.3841 45.1479 36.1404 45.7654ZM41.7626 50.1272C41.4602 49.6171 41.0345 49.4019 40.6228 49.9801C40.7618 50.6564 41.443 50.5558 41.7626 50.1272ZM39.5898 50.9778C39.3284 51.0384 39.1559 51.173 39.0957 51.4623C39.219 51.6659 39.3896 51.7671 39.5589 51.8005C39.7657 51.6859 39.9725 51.5703 40.1789 51.4544C40.1733 51.2958 40.0124 51.1146 39.5898 50.9778ZM35.8737 47.1948C35.5113 46.7478 35.4133 46.7038 34.9844 46.784C34.9369 46.9243 34.8882 47.0695 34.8263 47.2526C35.084 47.4375 35.3214 47.6409 35.6 47.6009C35.6881 47.4697 35.7834 47.3285 35.8737 47.1948Z" fill="#421B36"/>
</g>
<path d="M26.8455 53.388C26.3011 53.388 22.405 47.8043 24.2192 45.9898C26.0337 44.1753 45.523 34.6124 46.9312 36.073C48.4324 37.6301 49.8876 43.0461 49.8876 43.0461L26.8455 53.388Z" fill="#24B2B4"/>
<path d="M36.8289 99.4871C36.8289 99.4871 41.2054 112.24 44.2922 111.435C47.3789 110.63 56.8287 106.658 56.8156 105.211C56.7912 102.497 52.2904 93.0465 50.4166 92.3306C47.522 91.2255 36.0815 97.617 36.8289 99.4871Z" fill="white"/>
<path d="M44.0115 111.691C42.6771 111.691 41.0622 109.733 39.2052 105.858C37.7634 102.85 36.6726 99.7072 36.6229 99.5638C36.4555 99.1352 36.7101 98.5855 37.4013 97.8836C39.9455 95.2998 48.0694 91.1985 50.4951 92.1262C51.8427 92.6407 53.907 96.6957 54.5077 97.9258C55.7568 100.484 57.0225 103.729 57.036 105.21C57.0519 106.966 46.9214 110.977 44.3479 111.648C44.238 111.677 44.1258 111.691 44.0115 111.691ZM49.569 92.4186C46.6497 92.4186 39.9046 95.9676 37.715 98.1916C36.9662 98.9522 36.989 99.2942 37.0337 99.4057L37.0375 99.4161C38.2363 102.91 41.8737 111.832 44.2367 111.223C47.9247 110.261 56.6061 106.348 56.5958 105.214C56.5709 102.416 52.0092 93.1751 50.338 92.5363C50.1284 92.4564 49.8686 92.4186 49.569 92.4186Z" fill="#24B2B4"/>
<path d="M18.5057 62.2605C18.5057 62.2605 22.8821 75.0138 25.9689 74.2086C29.0556 73.4033 38.5054 69.431 38.4923 67.9845C38.468 65.2704 33.9672 55.82 32.0933 55.104C29.199 53.9989 17.7585 60.3904 18.5057 62.2605Z" fill="white"/>
<path d="M25.6882 74.4651C24.3535 74.4651 22.7389 72.5066 20.882 68.6321C19.4401 65.6238 18.3493 62.4805 18.2997 62.3371C18.1322 61.9082 18.3871 61.3582 19.0784 60.6563C21.6229 58.0725 29.7455 53.9734 32.1719 54.8992C33.5194 55.414 35.5838 59.4684 36.1844 60.6991C37.4333 63.2576 38.6996 66.5021 38.7127 67.983C38.7283 69.7397 28.5982 73.7504 26.0246 74.4217C25.9147 74.4504 25.8026 74.4651 25.6882 74.4651ZM31.2451 55.1922C28.3261 55.1922 21.5816 58.7409 19.3917 60.9646C18.6426 61.7255 18.6654 62.0672 18.7101 62.1791L18.7139 62.1894C19.873 65.5666 23.3049 74.0259 25.6732 74.0268C25.7548 74.0268 25.8347 74.0165 25.9134 73.9962C29.6008 73.0342 38.2826 69.1212 38.2726 67.9871C38.2476 65.1893 33.6856 55.9481 32.0148 55.31C31.8052 55.2297 31.545 55.1922 31.2451 55.1922Z" fill="#24B2B4"/>
<path d="M30.3027 57.9297C30.105 58.457 29.1804 67.9417 29.1804 67.9417C29.1804 67.9417 23.7675 65.5709 23.6332 65.4813C23.6332 65.4813 22.6643 66.9431 22.8358 67.4576C23.0073 67.9724 29.3978 71.0603 30.5129 70.1595C31.6281 69.259 32.6145 58.0993 32.6145 58.0993L30.3027 57.9297Z" fill="#24B2B4"/>
<path d="M49.0322 94.2031C48.8345 94.7304 47.9099 104.215 47.9099 104.215C47.9099 104.215 42.497 101.844 42.3627 101.755C42.3627 101.755 41.3938 103.217 41.5653 103.731C41.7368 104.246 48.1273 107.334 49.2424 106.433C50.3576 105.532 51.344 94.3727 51.344 94.3727L49.0322 94.2031Z" fill="#24B2B4"/>
<path d="M38.5404 55.7183C45.4339 52.4061 52.3333 49.1041 59.1636 45.6632C59.4797 45.5039 59.2017 45.0294 58.8863 45.1884C52.0559 48.6293 45.1565 51.9316 38.263 55.2435C37.9441 55.3969 38.2227 55.8711 38.5404 55.7183Z" fill="#421B36"/>
<path d="M40.089 59.3343C47.2349 56.4506 54.1802 53.0902 61.0237 49.5549C61.3382 49.3925 61.0605 48.918 60.7463 49.0801C53.9453 52.5933 47.0443 55.9383 39.9432 58.8039C39.6189 58.9348 39.7604 59.4667 40.089 59.3343Z" fill="#421B36"/>
<path d="M42.4922 62.777C48.5426 59.9332 54.593 57.0895 60.6434 54.2458C60.9633 54.0956 60.6846 53.6214 60.366 53.771C54.3156 56.6147 48.2652 59.4585 42.2148 62.3022C41.895 62.4527 42.1736 62.9269 42.4922 62.777Z" fill="#421B36"/>
<path d="M28.6816 45.5058C28.6816 45.5058 25.1157 43.1169 25.9853 40.8554C26.8549 38.5939 40.5971 32.8562 41.6407 34.3337C42.6843 35.8108 43.989 40.2826 43.989 40.2826L29.1164 45.5058" fill="#24B2B4"/>
<path d="M25.5912 41.1171C26.2121 43.4951 27.9467 45.4858 29.6212 47.2097C29.6852 47.2756 29.7993 47.3125 29.8886 47.2803C34.2913 45.6969 38.6943 44.1136 43.097 42.5302C43.7149 42.3081 44.3327 42.0857 44.9506 41.8637C45.0846 41.8156 45.1923 41.6753 45.1427 41.5254C44.2937 38.9696 43.1742 36.5164 41.797 34.2021C41.6161 33.8982 41.1407 34.1746 41.3222 34.4795C42.676 36.7538 43.778 39.1596 44.6126 41.6712C44.6766 41.5585 44.7407 41.4457 44.8047 41.3333C40.402 42.9166 35.999 44.5 31.5963 46.0833C30.9784 46.3054 30.3606 46.5278 29.7427 46.7499C29.8317 46.7733 29.9211 46.7971 30.0101 46.8205C28.4008 45.1634 26.7188 43.2571 26.1215 40.9703C26.0322 40.6289 25.5018 40.7738 25.5912 41.1171Z" fill="#421B36"/>
<path d="M26.7537 53.7112C34.4212 50.1678 42.089 46.6244 49.7565 43.081C50.0773 42.9326 49.7983 42.4588 49.4791 42.6062C41.8113 46.1496 34.1438 49.693 26.4763 53.2364C26.1552 53.3848 26.4341 53.859 26.7537 53.7112Z" fill="#421B36"/>
<path d="M31.1682 42.2208C31.1735 42.203 31.1748 42.1846 31.1769 42.1664C31.1791 42.1496 31.1829 42.1311 31.1829 42.1133C31.1826 42.0774 31.1779 42.0409 31.1682 42.0062C31.1588 41.9728 31.1445 41.9403 31.1279 41.91C31.1248 41.9047 31.1217 41.8994 31.1182 41.8947C31.1014 41.8713 31.0839 41.8475 31.0648 41.826C31.0417 41.8 31.0102 41.7788 30.9833 41.7594C30.9561 41.7398 30.9171 41.7266 30.8886 41.7154C30.883 41.7132 30.8774 41.711 30.8718 41.7095C30.8433 41.702 30.8131 41.7001 30.784 41.6966C30.7478 41.6926 30.7093 41.7013 30.6747 41.7073C30.6281 41.7204 30.5875 41.7438 30.5535 41.7779C30.5194 41.8122 30.4957 41.8525 30.4829 41.8991C30.4679 41.9706 30.4682 42.0071 30.4823 42.078C30.4888 42.1112 30.5032 42.1443 30.5226 42.1721C30.5363 42.1921 30.5554 42.2199 30.5753 42.2389C30.5775 42.2408 30.5797 42.2427 30.5819 42.2445C30.6016 42.2608 30.6225 42.2776 30.6438 42.292C30.6725 42.3117 30.7075 42.3236 30.74 42.3348C30.7734 42.3464 30.8162 42.3492 30.848 42.3526C30.8605 42.3539 30.8733 42.3542 30.8858 42.3529C30.9189 42.3495 30.9592 42.3473 30.9927 42.3354C31.0614 42.3111 31.0864 42.2958 31.1417 42.2495C31.1682 42.2273 31.1907 42.198 31.206 42.1671C31.2151 42.1489 31.2335 42.1124 31.2391 42.0849C31.2394 42.083 31.2397 42.0815 31.24 42.0796C31.2438 42.0555 31.2488 42.0271 31.2504 42.0028C31.2507 41.9987 31.2507 41.995 31.2504 41.9909C31.2472 42.0153 31.2438 42.0396 31.2407 42.064C31.2507 42.0331 31.2557 41.999 31.2532 41.9665C31.2479 41.8981 31.2407 41.8684 31.2091 41.8072C31.1819 41.7544 31.1273 41.7035 31.0764 41.6745C31.0489 41.6589 31.0189 41.6457 30.9883 41.6376C30.9861 41.637 30.9836 41.6367 30.9814 41.6361C30.9577 41.6314 30.9289 41.6282 30.9049 41.6257C30.9002 41.6251 30.8955 41.6248 30.8908 41.6251C30.8252 41.6286 30.7899 41.6389 30.7321 41.667C30.7278 41.6692 30.724 41.671 30.7203 41.6738C30.7009 41.6873 30.6784 41.7041 30.6609 41.7198C30.6591 41.7213 30.6575 41.7232 30.6559 41.7251C30.6291 41.7501 30.6103 41.7794 30.5991 41.8135C30.5819 41.8463 30.5741 41.8816 30.5753 41.9194C30.5738 41.9572 30.5819 41.9925 30.5991 42.0253C30.6103 42.0593 30.6291 42.089 30.6559 42.1137C30.6744 42.128 30.6931 42.1424 30.7115 42.1568C30.7543 42.1817 30.8006 42.1942 30.8502 42.1942C30.8746 42.1911 30.8989 42.1877 30.9233 42.1846C30.9699 42.1714 31.0105 42.148 31.0445 42.114C31.0473 42.1108 31.0501 42.1083 31.0533 42.1055C31.0348 42.1199 31.0161 42.1343 30.9977 42.1486C31.0014 42.1458 31.0055 42.1436 31.0095 42.1418C30.9877 42.1511 30.9658 42.1602 30.9439 42.1696C30.9489 42.1677 30.9539 42.1664 30.9592 42.1655C30.9349 42.1686 30.9105 42.1721 30.8861 42.1752C30.8924 42.1746 30.8983 42.1746 30.9046 42.1755C30.8802 42.1724 30.8558 42.1689 30.8315 42.1658C30.8396 42.1671 30.8471 42.1693 30.8546 42.1724C30.8327 42.163 30.8109 42.1539 30.789 42.1446C30.7965 42.148 30.8034 42.1521 30.8099 42.1571C30.7915 42.1427 30.7728 42.1283 30.7543 42.114C30.7599 42.1183 30.7653 42.1233 30.7696 42.129C30.7553 42.1105 30.7409 42.0918 30.7265 42.0734C30.7303 42.0784 30.7334 42.0837 30.7362 42.0893C30.7268 42.0674 30.7178 42.0456 30.7084 42.0237C30.7106 42.0287 30.7118 42.0337 30.7128 42.039C30.7097 42.0146 30.7062 41.9903 30.7031 41.9659C30.7037 41.9706 30.7037 41.975 30.7031 41.9796C30.7062 41.9553 30.7097 41.9309 30.7128 41.9066C30.7087 41.9356 30.7006 41.9615 30.7003 41.9934C30.7003 41.9978 30.7003 42.0025 30.6997 42.0068C30.7028 41.9825 30.7062 41.9581 30.7093 41.9337C30.7084 41.9409 30.7065 41.9475 30.704 41.954C30.7134 41.9322 30.7225 41.9103 30.7318 41.8884C30.7293 41.8941 30.7262 41.8991 30.7225 41.9041C30.7368 41.8856 30.7512 41.8669 30.7656 41.8485C30.7615 41.8538 30.7568 41.8581 30.7515 41.8622C30.7699 41.8478 30.7887 41.8335 30.8071 41.8191C30.8002 41.8241 30.7927 41.8285 30.7849 41.8316C30.8068 41.8222 30.8287 41.8132 30.8505 41.8038C30.8399 41.8082 30.8287 41.811 30.8174 41.8125C30.8418 41.8094 30.8662 41.806 30.8905 41.8029C30.8755 41.8047 30.8602 41.8047 30.8452 41.8029C30.8696 41.806 30.894 41.8094 30.9183 41.8125C30.9039 41.8107 30.8902 41.8069 30.8768 41.8013C30.8986 41.8104 30.9205 41.8197 30.9424 41.8291C30.933 41.825 30.9242 41.82 30.9164 41.8141C30.9349 41.8285 30.9536 41.8428 30.972 41.8572C30.9658 41.8522 30.9602 41.8469 30.9555 41.8406C30.9699 41.8591 30.9842 41.8778 30.9986 41.8962C30.9948 41.8913 30.992 41.8863 30.9895 41.8806C30.9986 41.9025 31.008 41.9244 31.0173 41.9462C31.0148 41.94 31.013 41.9334 31.012 41.9269C31.0155 41.9512 31.0186 41.9756 31.022 42C31.0214 41.9934 31.0214 41.9865 31.0223 41.98C31.0192 42.0043 31.0158 42.0287 31.0126 42.0531C31.013 42.0506 31.0136 42.0477 31.0139 42.0452C30.9499 42.1093 30.8858 42.1733 30.8218 42.2373C30.824 42.237 30.8259 42.2367 30.828 42.2364C30.8037 42.2395 30.7793 42.243 30.755 42.2461C30.7649 42.2448 30.7749 42.2452 30.7849 42.2464C30.7606 42.2433 30.7362 42.2398 30.7118 42.2367C30.7228 42.2383 30.7334 42.2414 30.7434 42.2455C30.7215 42.2361 30.6997 42.227 30.6778 42.2177C30.69 42.223 30.7012 42.2295 30.7115 42.2377C30.6931 42.2233 30.6744 42.2089 30.6559 42.1946C30.6666 42.203 30.6756 42.2124 30.684 42.2227C30.6697 42.2042 30.6553 42.1855 30.6409 42.1671C30.6491 42.1777 30.6556 42.1889 30.6609 42.2011C30.6516 42.1792 30.6425 42.1574 30.6331 42.1355C30.6378 42.1468 30.6413 42.1583 30.6428 42.1702C30.6397 42.1458 30.6363 42.1215 30.6331 42.0971C30.6347 42.108 30.6347 42.119 30.6334 42.1299C30.6366 42.1055 30.64 42.0812 30.6431 42.0568C30.6422 42.0627 30.6409 42.0687 30.6391 42.0746C30.6275 42.1112 30.6259 42.1477 30.6341 42.1842C30.6356 42.2208 30.6466 42.2548 30.6666 42.2864C30.6837 42.3186 30.7075 42.3442 30.7375 42.3635C30.764 42.3879 30.7952 42.4041 30.8309 42.4129C30.8552 42.416 30.8796 42.4195 30.9039 42.4226C30.9536 42.4226 30.9998 42.4101 31.0426 42.3851C31.0611 42.3707 31.0798 42.3564 31.0982 42.342C31.1317 42.3076 31.1551 42.2673 31.1682 42.2208Z" fill="#421B36"/>
<path d="M38.8279 38.0203C38.8204 38.0172 38.8129 38.0147 38.8051 38.0128C38.8017 38.0119 38.798 38.0116 38.7945 38.0109C38.7677 38.0066 38.7399 38.0019 38.7124 38.0003C38.7049 37.9997 38.6974 38 38.6902 38.0009C38.6599 38.0038 38.628 38.0066 38.5984 38.0144C38.5802 38.0191 38.5627 38.0278 38.5459 38.035C38.5287 38.0422 38.5106 38.0487 38.4943 38.0581C38.4878 38.0619 38.4815 38.0662 38.4753 38.0709C38.4512 38.0887 38.4262 38.1065 38.4041 38.1271C38.3763 38.1531 38.3538 38.1856 38.3319 38.2162C38.3225 38.2293 38.3147 38.2433 38.3082 38.2577C38.2929 38.2918 38.2747 38.328 38.2666 38.3652C38.2601 38.3955 38.2566 38.4273 38.2535 38.4579C38.2529 38.4654 38.2523 38.4729 38.2523 38.4807C38.2529 38.5188 38.2573 38.5582 38.2685 38.5947C38.2776 38.6232 38.2904 38.6513 38.3032 38.6781C38.3066 38.685 38.3104 38.6913 38.3147 38.6975C38.3319 38.7216 38.3497 38.7475 38.371 38.7684C38.3735 38.7712 38.3766 38.7737 38.3794 38.7762C38.3966 38.7912 38.4494 38.8275 38.4375 38.8212C38.4594 38.8306 38.4812 38.8396 38.5031 38.849C38.5274 38.8524 38.5518 38.8556 38.5762 38.859C38.5974 38.8593 38.6321 38.8521 38.653 38.8487C38.6555 38.8484 38.6583 38.8481 38.6608 38.8474C38.6652 38.8465 38.6696 38.8453 38.6739 38.844C38.6992 38.8359 38.7242 38.8237 38.7486 38.8131C38.7533 38.8109 38.758 38.809 38.7627 38.8065C38.7986 38.7868 38.8336 38.7606 38.8598 38.7291C38.8801 38.705 38.9013 38.68 38.9176 38.6525C38.9338 38.625 38.9454 38.5935 38.9563 38.5641C38.971 38.5248 38.9766 38.4798 38.976 38.4379C38.976 38.4326 38.9754 38.4276 38.9747 38.4226C38.9716 38.3955 38.9691 38.367 38.9632 38.3399C38.9623 38.3355 38.961 38.3311 38.9594 38.3267C38.9504 38.3014 38.9391 38.2749 38.9276 38.2508C38.9182 38.2312 38.9042 38.2152 38.8907 38.198C38.877 38.1802 38.8654 38.1634 38.8486 38.149C38.792 38.1006 38.7498 38.0756 38.6786 38.0512C38.6693 38.0481 38.6596 38.0459 38.6496 38.0444C38.6227 38.04 38.5809 38.0316 38.5487 38.0334C38.5203 38.035 38.4909 38.0397 38.4628 38.0447C38.4578 38.0456 38.4531 38.0466 38.4484 38.0478C38.4159 38.0566 38.3847 38.0709 38.3553 38.0869C38.3232 38.104 38.2976 38.1278 38.2782 38.1578C38.2538 38.1843 38.2376 38.2155 38.2288 38.2512C38.2173 38.2877 38.2157 38.3242 38.2238 38.3608C38.2254 38.3973 38.2363 38.4314 38.2563 38.4629C38.2941 38.5217 38.3507 38.5732 38.4206 38.5891C38.445 38.5922 38.4694 38.5957 38.4937 38.5991C38.5434 38.5988 38.5896 38.5863 38.6324 38.5616C38.6368 38.5591 38.6411 38.5573 38.6458 38.5551C38.624 38.5644 38.6021 38.5735 38.5802 38.5829C38.5905 38.5788 38.6012 38.5763 38.6124 38.5748C38.588 38.5782 38.5637 38.5813 38.5393 38.5844C38.5518 38.5832 38.564 38.5832 38.5762 38.5848C38.5518 38.5816 38.5274 38.5782 38.5031 38.5751C38.5168 38.5773 38.53 38.5807 38.5424 38.586C38.5206 38.5766 38.4987 38.5676 38.4768 38.5582C38.4893 38.5638 38.5012 38.5707 38.5121 38.5791C38.4937 38.5648 38.475 38.5504 38.4565 38.536C38.4653 38.5429 38.4731 38.5507 38.48 38.5595C38.4656 38.541 38.4512 38.5223 38.4369 38.5038C38.4437 38.5126 38.4494 38.5223 38.4537 38.5323C38.4447 38.5104 38.4353 38.4885 38.4259 38.4667C38.4297 38.4764 38.4325 38.486 38.4341 38.4964C38.4309 38.472 38.4275 38.4476 38.4244 38.4233C38.4259 38.4348 38.4259 38.4464 38.4244 38.4579C38.4275 38.4336 38.4309 38.4092 38.4341 38.3848C38.4322 38.3976 38.4287 38.4101 38.4237 38.4223C38.4328 38.4005 38.4422 38.3786 38.4515 38.3567C38.4462 38.3689 38.4397 38.3798 38.4322 38.3905C38.4465 38.372 38.4609 38.3533 38.4753 38.3349C38.4672 38.3452 38.4581 38.3545 38.4481 38.3627C38.4665 38.3483 38.4853 38.3339 38.5037 38.3196C38.4934 38.3274 38.4825 38.3339 38.4703 38.3389C38.4922 38.3296 38.514 38.3205 38.5359 38.3111C38.5262 38.3149 38.5162 38.3177 38.5059 38.3189C38.5303 38.3158 38.5546 38.3124 38.579 38.3092C38.5777 38.3096 38.5765 38.3096 38.5752 38.3096C38.6399 38.3364 38.7049 38.3633 38.7695 38.3902C38.7614 38.3833 38.7539 38.3758 38.7473 38.3677C38.7617 38.3861 38.7761 38.4048 38.7905 38.4233C38.7839 38.4145 38.7786 38.4048 38.7742 38.3948C38.7836 38.4167 38.7926 38.4386 38.802 38.4604C38.7976 38.4495 38.7948 38.4379 38.793 38.4264C38.7961 38.4507 38.7995 38.4751 38.8026 38.4995C38.8008 38.4845 38.8011 38.4695 38.803 38.4542C38.7998 38.4785 38.7964 38.5029 38.7933 38.5273C38.7961 38.5085 38.8011 38.4904 38.8086 38.4729C38.7992 38.4948 38.7901 38.5167 38.7808 38.5385C38.7889 38.5198 38.7992 38.5026 38.8117 38.4864C38.7973 38.5048 38.783 38.5235 38.7686 38.542C38.7798 38.5279 38.792 38.5151 38.8061 38.5042C38.7876 38.5185 38.7689 38.5329 38.7505 38.5473C38.7627 38.5379 38.7755 38.5301 38.7895 38.5242C38.7677 38.5335 38.7458 38.5426 38.7239 38.552C38.7358 38.547 38.7483 38.5438 38.7611 38.542C38.7367 38.5451 38.7124 38.5485 38.688 38.5516C38.6989 38.5504 38.7099 38.5504 38.7208 38.552C38.6964 38.5488 38.6721 38.5454 38.6477 38.542C38.6593 38.5438 38.6702 38.547 38.6811 38.5513C38.7177 38.5629 38.7542 38.5644 38.7908 38.5563C38.8273 38.5548 38.8614 38.5438 38.8929 38.5238C38.9251 38.5067 38.9507 38.4829 38.9701 38.4529C38.9944 38.4264 39.0107 38.3952 39.0194 38.3595C39.0225 38.3352 39.026 38.3108 39.0291 38.2864C39.0288 38.2368 39.0163 38.1906 38.9916 38.1478C38.9772 38.1293 38.9629 38.1106 38.9485 38.0922C38.9148 38.0569 38.8745 38.0331 38.8279 38.0203Z" fill="#421B36"/>
<path d="M10.2557 66.9333C10.2557 66.9333 8.43093 65.335 8.44342 63.8634C8.45967 61.9568 10.9214 57.4766 12.8211 57.169C14.7209 56.8613 15.4247 59.1428 14.8187 59.9917C14.2127 60.8404 12.3373 62.6162 11.9806 63.5873C11.6573 64.4672 12.1855 64.8124 12.1855 64.8124C12.1855 64.8124 15.6952 60.9051 17.648 61.5732C19.6012 62.2414 18.7625 63.95 18.7625 63.95C18.7625 63.95 21.7565 64.714 19.922 67.7095C19.922 67.7095 20.8107 69.0474 20.1928 70.4271C19.575 71.8068 17.2214 73.9673 17.2214 73.9673C17.2214 73.9673 18.1241 76.7055 17.7583 76.9982C16.537 77.9755 12.0662 75.4389 12.4519 73.5419C12.4519 73.5419 10.8995 71.9957 11.0632 70.5186L11.2287 69.8164C11.2287 69.8164 9.51825 68.3602 10.2557 66.9333Z" fill="#FFBFBF"/>
<path d="M20.0655 67.6604C19.4886 67.0938 18.692 67.324 18.0826 67.7076C17.3067 68.1961 16.5721 68.7662 15.8764 69.3618C14.4889 70.5501 13.3117 71.9388 12.2559 73.4247C12.09 73.658 12.4823 73.8698 12.6466 73.6383C13.5444 72.3755 14.5377 71.1826 15.6787 70.1312C16.2588 69.5967 16.8726 69.101 17.512 68.6397C18.0739 68.2345 19.0891 67.3253 19.7597 67.984C19.964 68.1849 20.2701 67.8616 20.0655 67.6604Z" fill="#421B36"/>
<path d="M11.2797 69.9761C12.3695 68.7594 13.5093 67.5887 14.7013 66.4717C15.2866 65.9229 15.8826 65.3841 16.4936 64.8637C17.019 64.4161 17.7661 63.7832 18.5017 64.095C18.7635 64.2059 18.9796 63.816 18.7154 63.7042C18.1088 63.4471 17.5162 63.6111 16.9718 63.9444C16.2446 64.3895 15.6152 65.0317 14.9874 65.6027C13.5739 66.8881 12.2305 68.2475 10.9557 69.6706C10.7649 69.8833 11.0876 70.1904 11.2797 69.9761Z" fill="#421B36"/>
<path d="M10.4986 67.1202C11.048 65.9488 11.9011 64.9411 12.9728 64.2149C13.2092 64.0547 12.9769 63.6745 12.7385 63.836C11.6056 64.6035 10.6894 65.6668 10.1081 66.9062C9.98663 67.1648 10.3765 67.3804 10.4986 67.1202Z" fill="#421B36"/>
<path d="M11.1146 58.4876C11.4026 58.9795 11.9923 59.2875 12.5624 59.2119C13.1499 59.1342 13.6413 58.7044 13.804 58.1355C13.883 57.8591 13.4504 57.7526 13.3717 58.0278C13.263 58.4082 12.9191 58.7193 12.523 58.7709C12.1119 58.8243 11.7006 58.6072 11.4935 58.2536C11.3488 58.0062 10.9693 58.2399 11.1146 58.4876Z" fill="#421B36"/>
<path d="M16.1184 69.5239C16.7337 70.0996 17.6286 70.3376 18.4464 70.1189C19.2654 69.9 19.9126 69.2346 20.1566 68.4313C20.24 68.1561 19.8074 68.0502 19.7243 68.3235C19.5253 68.9798 18.9858 69.5133 18.3211 69.6916C17.6549 69.8703 16.924 69.6676 16.4242 69.2003C16.2149 69.0044 15.9082 69.3274 16.1184 69.5239Z" fill="#421B36"/>
<path d="M15.1744 65.6973C15.7448 66.3448 16.7315 66.4163 17.4865 66.079C18.3861 65.677 18.9102 64.763 19.2263 63.8728C19.3226 63.6023 18.8893 63.4973 18.794 63.765C18.5292 64.5109 18.0909 65.2903 17.3525 65.6529C16.7443 65.9515 15.9438 65.8997 15.4802 65.3733C15.2909 65.1588 14.9861 65.4833 15.1744 65.6973Z" fill="#421B36"/>
<path d="M14.6134 63.1563C15.1326 63.5331 15.8095 63.6636 16.4332 63.5184C17.0726 63.3694 17.6243 62.9149 17.9148 62.3298C18.0422 62.0734 17.6518 61.8588 17.524 62.1162C17.2819 62.6038 16.8412 62.9671 16.308 63.0911C15.792 63.2113 15.251 63.0733 14.8271 62.7659C14.729 62.6947 14.5785 62.759 14.5247 62.8543C14.4601 62.9699 14.5166 63.0864 14.6134 63.1563Z" fill="#421B36"/>
<path d="M64.9302 65.1323L45.96 82.8584L45.7001 83.0998L45.6726 83.127C45.6726 83.127 44.301 83.7102 42.9432 84.2115C41.8678 84.6035 40.8061 84.9452 40.4462 84.904C40.0223 84.8584 40.4415 83.5962 40.9794 82.343C41.4807 81.1854 42.0777 80.0328 42.2051 79.8413C42.2142 79.8232 42.237 79.8004 42.2688 79.7685C42.3144 79.7138 42.3919 79.6226 42.5059 79.5086C44.6478 77.2849 57.4205 65.2185 61.4942 61.4727C62.6562 60.4063 64.5291 60.6252 65.3538 61.9649C65.3675 61.9831 65.3766 62.0015 65.3856 62.0196C65.9875 63.027 65.7823 64.3211 64.9302 65.1323Z" fill="#24B2B4"/>
<path d="M43.8057 80.4267C48.641 75.6648 53.7481 71.1899 58.6574 66.5058C59.9453 65.2773 61.2185 64.0335 62.4623 62.7603C62.7097 62.507 62.3214 62.1181 62.0734 62.3714C57.3965 67.158 52.3568 71.576 47.4759 76.1496C46.1087 77.4309 44.7518 78.7228 43.4168 80.0375C43.1644 80.2868 43.5533 80.6754 43.8057 80.4267Z" fill="white"/>
<path d="M45.6854 81.495C51.6478 75.6239 58.0764 70.2389 63.9263 64.2525C64.1737 63.9992 63.7854 63.6103 63.5374 63.8636C57.6876 69.85 51.2589 75.235 45.2966 81.1062C45.0445 81.3551 45.4331 81.7437 45.6854 81.495Z" fill="white"/>
<path d="M45.9574 82.8647L45.6979 83.1062C45.6979 83.1062 41.2824 84.9791 40.4712 84.8835C39.66 84.7923 41.9611 80.2172 42.2301 79.8208C42.2619 79.7752 42.3531 79.6706 42.5034 79.5156C43.6654 79.7708 45.2465 80.5589 45.9574 82.8647Z" fill="#A0D2F4"/>
<path d="M42.9442 84.2123C41.8687 84.6043 40.807 84.946 40.4472 84.9048C40.0233 84.8592 40.4425 83.5969 40.9804 82.3438C40.9851 82.3438 40.9894 82.3438 40.9941 82.3481C41.4727 82.4303 42.6484 82.8176 42.9398 84.1935C42.9442 84.1985 42.9442 84.2076 42.9442 84.2123Z" fill="#24B2B4"/>
<path d="M42.6691 79.787C43.9451 80.3189 44.9803 81.4141 45.4513 82.7116C45.5019 82.8512 45.6381 82.9452 45.7896 82.9037C45.9242 82.8668 46.0326 82.7057 45.9817 82.5654C45.4382 81.068 44.284 79.8691 42.8156 79.2569C42.6785 79.1997 42.5132 79.3187 42.4773 79.449C42.4336 79.6074 42.5317 79.7298 42.6691 79.787Z" fill="#421B36"/>
<path d="M61.3469 62.2007C62.6229 62.7327 63.658 63.8278 64.1291 65.1254C64.1797 65.265 64.3158 65.359 64.4673 65.3175C64.602 65.2806 64.7104 65.1194 64.6594 64.9795C64.1156 63.482 62.9618 62.2832 61.4934 61.671C61.3562 61.6138 61.191 61.7325 61.1551 61.8631C61.1113 62.0211 61.2091 62.1436 61.3469 62.2007Z" fill="#421B36"/>
<path d="M47.901 75.0835C46.6072 76.0568 44.6937 75.2287 44.6371 73.6104C44.6365 73.5935 44.6362 73.577 44.6359 73.5598C44.6184 72.4247 46.263 70.3081 50.6707 68.1475C53.6587 66.6829 59.368 70.28 59.368 70.28L79.9 86.7417L71.8105 93.0979L67.2457 86.5105C65.5081 87.1196 63.5858 86.4721 62.5475 84.9515C62.3254 84.6264 62.1446 84.408 62.0634 84.4149C61.7538 84.4405 58.5168 86.7332 56.5205 83.316C56.5205 83.316 52.7435 82.8497 53.0027 80.3361C53.0027 80.3361 50.3214 79.9351 51.2123 77.5249C52.1031 75.1147 55.5079 72.9638 55.5079 72.9638C55.5079 72.9638 52.6145 71.9571 51.4828 72.3622C50.6457 72.6615 49.3538 73.9905 47.901 75.0835Z" fill="#FFBFBF"/>
<path d="M57.1521 83.0987C57.5931 81.3638 58.7648 79.8739 60.3447 79.033C60.6571 78.8665 60.3797 78.392 60.0673 78.5582C58.3684 79.4628 57.0962 81.0874 56.622 82.9525C56.5345 83.2958 57.0646 83.442 57.1521 83.0987Z" fill="#421B36"/>
<path d="M61.8153 84.4348C62.5172 84.2246 63.0335 83.5918 63.0976 82.8621C63.1607 82.1431 62.7071 81.404 62.049 81.1176C61.9131 81.0582 61.7541 81.0776 61.6729 81.2163C61.6048 81.3325 61.6348 81.5327 61.7716 81.5924C62.2561 81.8035 62.5822 82.2874 62.5506 82.8221C62.5216 83.3185 62.1374 83.7645 61.6688 83.9048C61.3312 84.006 61.4752 84.5367 61.8153 84.4348Z" fill="#421B36"/>
<path d="M53.3524 80.558C54.1174 78.5089 55.7148 76.8315 57.7033 75.9316C58.025 75.786 57.7461 75.3122 57.4259 75.4568C55.3034 76.4173 53.6357 78.2334 52.8223 80.4118C52.6983 80.7438 53.2293 80.8869 53.3524 80.558Z" fill="#421B36"/>
<path d="M45.9802 75.3228C46.5949 74.8905 46.9934 74.2271 47.069 73.4771C47.1443 72.7287 46.836 71.9618 46.2972 71.4452C46.0417 71.2003 45.6525 71.5883 45.9083 71.8338C46.7851 72.6747 46.7098 74.1399 45.7028 74.8481C45.4154 75.0502 45.6897 75.5268 45.9802 75.3228Z" fill="#421B36"/>
<path d="M53.7196 74.72C54.747 73.6761 55.9808 72.8421 57.3402 72.2942C57.4789 72.2383 57.5732 72.1115 57.5323 71.9562C57.4976 71.825 57.3317 71.7088 57.194 71.7641C55.744 72.3485 54.428 73.216 53.3307 74.3314C53.0824 74.5838 53.471 74.9727 53.7196 74.72Z" fill="#421B36"/>
<path d="M100.756 58.6386C102.346 59.1586 106.436 60.876 109.299 68.1515C111.817 74.5526 115.288 100.857 110.773 107.625C108.232 111.434 101.207 112.868 97.8634 112.467C94.5199 112.066 69.2597 103.173 69.2959 96.753C69.3322 90.3334 76.623 81.9646 76.623 81.9646L96.0564 92.3809C96.0564 92.3809 94.7623 80.9701 93.4251 74.6842C92.0876 68.3985 93.0774 56.1278 100.756 58.6386Z" fill="#24B2B4"/>
<path d="M86.3028 87.3438C86.1066 87.8804 79.8994 106.027 79.8994 106.027C79.8994 106.027 94.9049 112.254 95.9509 112.013C98.8581 111.345 98.1984 93.6116 98.1984 93.6116L86.3028 87.3438Z" fill="#A0D2F4"/>
<path d="M93.0514 71.9067C95.7377 67.6749 99.1474 64.0946 103.614 61.7575C103.909 61.6032 103.65 61.1784 103.356 61.3161C98.7557 63.4714 95.3685 67.4843 92.7809 71.7486C92.6756 71.9217 92.9436 72.0763 93.0514 71.9067Z" fill="#421B36"/>
<path d="M76.3511 82.5866C84.2688 86.6532 92.2084 90.7355 100.219 94.6159C100.493 94.749 100.735 94.346 100.46 94.203C92.561 90.097 84.5418 86.1688 76.5488 82.2486C76.3243 82.1384 76.1259 82.471 76.3511 82.5866Z" fill="#421B36"/>
<path d="M96.0021 92.4046C98.0905 92.1038 100.16 91.6755 102.257 91.39C102.564 91.3482 102.481 90.8612 102.185 90.8596C100.126 90.8481 97.7378 91.2098 95.8496 92.0429C95.6257 92.1416 95.8018 92.4333 96.0021 92.4046Z" fill="#421B36"/>
<path d="M104.252 91.5748C104.591 91.5748 104.592 91.0469 104.252 91.0469C103.912 91.0469 103.912 91.5748 104.252 91.5748Z" fill="#421B36"/>
<path d="M93.3392 77.4984C94.1791 82.5087 95.0334 87.5189 95.9867 92.5089C96.0601 92.8931 96.6383 92.7285 96.5711 92.3477C95.6919 87.3503 94.7132 82.3691 93.7209 77.3932C93.6706 77.1411 93.2976 77.2507 93.3392 77.4984Z" fill="#421B36"/>
<path d="M101.035 35.6317C100.712 34.5085 99.4248 33.8584 99.1343 32.7264C98.9809 32.1292 99.1352 31.4936 99.0418 30.8842C98.875 29.7921 97.9223 28.9522 96.8784 28.5911C95.8342 28.23 94.7016 28.2578 93.5971 28.29C93.614 25.6499 91.7592 23.336 89.6173 21.7923C88.5209 21.002 87.2952 20.3373 85.9583 20.139C84.6214 19.9409 83.1574 20.2686 82.2069 21.2291C81.0459 20.0618 79.3348 19.4668 77.7002 19.6614C76.0653 19.856 74.5419 20.8359 73.687 22.2427C72.009 21.2688 69.6063 21.867 68.5808 23.5137C67.5554 25.1608 68.0789 27.581 69.6935 28.6567C68.5149 29.2221 68.0323 30.773 68.4209 32.0211C68.8095 33.269 69.8912 34.2052 71.0882 34.7309C72.2848 35.2566 73.6017 35.4299 74.898 35.598L90.8721 53.4977C95.4469 50.6871 98.8247 42.8091 100.476 40.0154C101.069 39.0114 101.357 36.7524 101.035 35.6317Z" fill="#421B36"/>
<path d="M92.7339 28.9537C94.6843 27.3197 96.7156 26.5594 99.116 25.8494C99.4106 25.7623 99.3715 25.2575 99.0404 25.2906C96.5956 25.5343 94.2176 27.0286 92.5852 28.805C92.4924 28.9062 92.6311 29.0399 92.7339 28.9537Z" fill="#421B36"/>
<path d="M91.9414 29.6295C93.1678 27.6479 94.0596 25.8231 94.5375 23.5145C94.6246 23.0931 93.9612 22.9272 93.9012 23.3392C93.5979 25.4298 92.9285 27.7491 91.8309 29.5652C91.7884 29.6358 91.8983 29.6995 91.9414 29.6295Z" fill="#421B36"/>
<path d="M94.2084 34.7578C93.039 32.0344 91.0208 30.0852 88.6241 28.9442C83.9515 26.7196 77.8683 27.591 74.0213 31.8338C73.8607 32.0172 73.7002 32.1949 73.5568 32.3842C72.3242 33.9266 71.3381 35.9389 70.5525 38.513C70.2658 39.476 70.0021 40.5196 69.7669 41.6432C69.721 41.8381 69.681 42.0389 69.6407 42.2395C69.5548 42.6924 69.4746 43.1281 69.4343 43.5523C68.1099 53.5284 78.1541 57.0968 80.4131 57.4573L83.7763 64.0475L92.8297 58.5934C92.8297 58.5934 90.8022 53.7002 90.8709 53.4997C90.8765 53.4941 90.8765 53.4881 90.8824 53.4825C91.0889 52.9265 91.5359 51.7168 92.0578 50.1571C92.0578 50.1515 92.0635 50.1456 92.0635 50.14C92.1781 49.7845 92.3043 49.4119 92.4246 49.022C92.482 48.8443 92.5392 48.6722 92.5907 48.5001C92.8316 47.7204 93.0724 46.9064 93.3017 46.0634C93.3991 45.7366 93.485 45.4155 93.5653 45.0829C93.5768 45.0485 93.5825 45.0026 93.5996 44.9682C93.8061 44.1539 94.001 43.3399 94.1728 42.5374C94.1844 42.4684 94.2016 42.3997 94.2072 42.3366C94.2531 42.1417 94.2875 41.9468 94.3218 41.7634C94.5111 40.7889 94.6429 39.8487 94.7173 38.9656C94.8332 37.6415 94.7245 35.9676 94.2084 34.7578Z" fill="#FFBFBF"/>
<path d="M80.1577 57.262C81.2844 59.4663 82.2883 61.749 83.554 63.8806C83.7286 64.1748 84.135 63.9174 84.0026 63.6185C83.0002 61.3526 81.5434 59.3114 80.4032 57.1183C80.3186 56.9559 80.0743 57.0993 80.1577 57.262Z" fill="#421B36"/>
<path d="M76.2934 36.9074C76.1853 37.3572 76.4265 37.8011 76.8322 37.8985C77.238 37.996 77.6543 37.7102 77.7624 37.2601C77.8705 36.8103 77.6294 36.3664 77.2236 36.269C76.8178 36.1718 76.4015 36.4576 76.2934 36.9074Z" fill="#421B36"/>
<path d="M84.2338 38.4153C84.1257 38.8651 84.3672 39.309 84.7726 39.4065C85.1781 39.5039 85.5947 39.2181 85.7028 38.768C85.8109 38.3179 85.5698 37.8743 85.164 37.7769C84.7583 37.6794 84.3419 37.9652 84.2338 38.4153Z" fill="#421B36"/>
<path d="M89.4668 35.3747C88.8424 34.7597 87.9088 34.2968 87.0879 34.0219C86.2567 33.7436 85.4586 33.8113 84.6134 33.7005C84.1523 33.6402 84.038 33.0198 84.5153 32.869C86.515 32.2364 88.5935 33.613 89.8086 35.0445C90.0053 35.2766 89.6864 35.5915 89.4668 35.3747Z" fill="#421B36"/>
<path d="M76.5762 31.6241C78.3064 30.4325 80.6272 31.2852 81.1973 33.2718C82.005 36.0878 79.8791 39.7552 77.8763 41.5872C77.5233 41.9101 76.8636 41.4469 77.19 41.0384C78.3988 39.5259 79.6236 38.0113 80.1784 36.1128C80.5604 34.8062 80.7322 33.4062 79.6067 32.471C78.8393 31.8334 77.6926 31.7113 76.7105 31.959C76.5009 32.0118 76.4122 31.7372 76.5762 31.6241Z" fill="#421B36"/>
<path d="M77.5087 57.5696C77.5212 57.5699 77.5275 57.5762 77.54 57.5765C78.2765 57.7018 79.0327 57.7652 79.784 57.7405C81.2621 57.6908 82.7145 57.3091 83.9124 56.4408C84.077 56.3246 84.2357 56.2024 84.3881 56.0672C84.42 56.0366 84.3769 55.9982 84.3454 56.01C82.2082 56.8996 79.9017 57.0914 77.6215 56.8331C77.559 56.8259 77.5091 56.8312 77.4585 56.8553C77.1811 56.9755 77.153 57.5072 77.5087 57.5696Z" fill="#421B36"/>
<path d="M78.4282 44.3075C79.989 44.3094 81.2113 44.1385 82.3383 42.974C82.8631 42.4314 83.639 43.2576 83.1454 43.8096C81.9934 45.0977 79.757 45.6691 78.3873 44.4021C78.3504 44.3681 78.3819 44.3075 78.4282 44.3075Z" fill="#421B36"/>
<path d="M93.4473 42.5176C94.7845 41.9838 96.4675 42.5104 96.9754 43.1183C97.483 43.7262 97.6951 44.5395 97.7004 45.3317C97.7088 46.6483 97.1266 48.0023 96.0349 48.7383C94.9432 49.4745 92.6008 49.448 91.6406 48.5468L93.4473 42.5176Z" fill="#FFBFBF"/>
<path d="M95.5388 46.2035C95.3545 46.0036 94.8725 45.8065 94.6176 45.7434C94.1981 45.6397 93.8958 45.7849 93.5419 45.9911C93.1596 46.2141 92.7822 45.6869 93.0868 45.3795C93.49 44.9725 94.156 44.831 94.7042 44.9791C94.9675 45.0503 95.2414 45.199 95.4235 45.4054C95.6303 45.6403 95.6031 45.8521 95.6625 46.1339C95.6772 46.2032 95.5906 46.2597 95.5388 46.2035Z" fill="#421B36"/>
<path d="M88.4922 27.9343C90.8133 27.5089 94.1868 29.453 95.7795 31.1941L94.9927 38.4346C94.978 39.3991 94.8365 40.4424 94.5292 41.5704C94.5292 41.5704 93.4753 44.9898 92.1815 44.6202C91.2038 44.341 91.8241 37.7986 91.8241 37.7986C91.0226 36.9268 88.4531 38.9968 88.6303 28.7255C88.6303 28.7255 88.733 28.7711 88.9045 28.8586L88.4922 27.9343Z" fill="#421B36"/>
<path d="M89.2059 28.7668C89.2012 28.755 89.2003 28.7416 89.1953 28.7301C89.2034 28.7155 89.214 28.7021 89.2217 28.6875L89.2059 28.7668Z" fill="#421B36"/>
<path d="M88.9238 30.1928L89.2074 28.7812C89.398 29.2629 89.3271 29.8708 88.9238 30.1928Z" fill="#421B36"/>
<path d="M73.123 29.4264C72.067 28.9098 70.7988 28.9307 69.9498 29.8234C69.0967 30.7205 69.2111 32.0608 69.936 32.9951C70.1584 33.2815 69.7974 33.6789 69.5253 33.4059C68.4455 32.322 68.392 30.6149 69.445 29.4842C70.4511 28.4037 72.1226 28.3244 73.1833 29.348C73.2261 29.3892 73.1721 29.4504 73.123 29.4264Z" fill="#421B36"/>
<path d="M71.5488 31.5736C73.1169 32.4836 75.0529 32.7366 76.8021 32.2602C78.5513 31.7839 80.0915 30.5838 80.9815 29.0042C83.764 30.3539 87.188 30.293 89.9203 28.8446C88.8876 27.8222 87.5076 27.2019 86.0885 26.8892C84.6695 26.5765 83.2026 26.5534 81.7502 26.5925C79.9291 26.6415 78.0881 26.7911 76.3638 27.3783C74.6396 27.9659 73.0257 29.032 72.0758 30.5863C72.1954 30.6016 72.3154 30.6169 72.435 30.6322" fill="#421B36"/>
<path d="M82.7667 21.7984C81.9636 19.3783 79.4975 17.8174 76.9381 18.1042C73.9085 18.4434 71.8878 21.3143 71.9712 24.2292C71.985 24.7134 72.7331 24.7165 72.7259 24.2292C72.6865 21.6223 74.4048 19.1918 77.0818 18.8163C79.4248 18.4877 81.5185 19.8818 82.6952 21.8284C82.7173 21.8656 82.7811 21.8419 82.7667 21.7984Z" fill="#421B36"/>
</g>
<defs>
<clipPath id="clip0_1699_67850">
<rect width="139" height="127.443" fill="white" transform="translate(0 0.28125)"/>
</clipPath>
</defs>
</svg>
