<svg width="14" height="14" viewBox="0 0 14 14" fill="none" xmlns="http://www.w3.org/2000/svg">
<path d="M9 0.875V2.23611H12.2929L8 8.07929L5.8535 5.15774C5.80709 5.09451 5.75199 5.04436 5.69133 5.01014C5.63067 4.97592 5.56566 4.95831 5.5 4.95831C5.43434 4.95831 5.36933 4.97592 5.30867 5.01014C5.24801 5.04436 5.19291 5.09451 5.1465 5.15774L0 12.1626L0.70705 13.125L5.5 6.60126L7.6465 9.52282C7.69291 9.58604 7.74801 9.6362 7.80867 9.67041C7.86932 9.70463 7.93434 9.72225 8 9.72225C8.06566 9.72225 8.13068 9.70463 8.19133 9.67041C8.25199 9.6362 8.30709 9.58604 8.3535 9.52282L13 3.19848V7.68056H14V0.875H9Z" fill="#0FDA00"/>
</svg>
