<svg width="39" height="39" viewBox="0 0 39 39" fill="none" xmlns="http://www.w3.org/2000/svg">
<rect x="0.556641" y="0.554688" width="37.9435" height="37.9435" rx="18.9717" stroke="#D3F0F0"/>
<path d="M22.1596 26.8375C20.5236 27.3881 18.7551 27.4055 17.1086 26.8873C15.4621 26.3691 14.0224 25.3419 12.9967 23.9535C11.971 22.5651 11.4121 20.8871 11.4006 19.161C11.389 17.4349 11.9253 15.7496 12.9324 14.3476C13.9394 12.9456 15.3652 11.8992 17.0046 11.359C18.6441 10.8188 20.4127 10.8125 22.0559 11.3412C23.6991 11.8699 25.1322 12.9062 26.1491 14.3011C27.166 15.6959 27.7142 17.3774 27.7148 19.1036C27.6884 19.7652 27.6083 20.4236 27.4752 21.0723" stroke="#24B2B4" stroke-width="0.984375"/>
<path d="M21.4795 25.3203C20.8926 25.987 20.2493 26.6018 19.5566 27.1578" stroke="#24B2B4" stroke-width="0.984375"/>
<path d="M19.5566 10.8516C21.7585 12.7753 23.121 15.4838 23.353 18.3984C23.4007 18.9275 23.4106 19.4593 23.3826 19.9898" stroke="#24B2B4" stroke-width="0.984375"/>
<path d="M19.5565 10.8516C18.3618 11.8929 17.402 13.1761 16.7408 14.6164C16.0795 16.0566 15.7318 17.6209 15.7207 19.2056C15.7207 24.5212 18.1095 26.0962 19.5466 27.1594" stroke="#24B2B4" stroke-width="0.984375"/>
<path d="M12.459 15.0859H26.693" stroke="#24B2B4" stroke-width="0.984375"/>
<path d="M19.5566 10.8477V27.1588" stroke="#24B2B4" stroke-width="0.984375"/>
<path d="M12.6816 23.4766H21.2096" stroke="#24B2B4" stroke-width="0.984375"/>
<path d="M11.4004 19.208L27.7148 19.0078" stroke="#24B2B4" stroke-width="0.984375"/>
<path d="M26.6325 27.2562L28.0861 25.7993L25.4611 23.1743L26.9541 22.2195C26.9758 22.2066 26.9932 22.1874 27.0038 22.1645C27.0144 22.1416 27.0178 22.1159 27.0135 22.091C27.0092 22.0661 26.9975 22.0431 26.9799 22.025C26.9622 22.0069 26.9395 21.9946 26.9147 21.9898L21.8977 20.8151C21.8769 20.8109 21.8555 20.8118 21.8352 20.8179C21.815 20.824 21.7966 20.835 21.7816 20.85C21.7667 20.8649 21.7557 20.8834 21.7496 20.9036C21.7435 20.9239 21.7425 20.9453 21.7467 20.966L22.8361 26.0782C22.8413 26.1031 22.8538 26.1258 22.872 26.1435C22.8902 26.1612 22.9133 26.1731 22.9383 26.1777C22.9632 26.1823 22.989 26.1793 23.0123 26.1692C23.0356 26.1591 23.0554 26.1422 23.0691 26.1209L24.0075 24.6312L26.6325 27.2562Z" stroke="#24B2B4" stroke-width="0.984375"/>
</svg>
