<svg width="1440" height="443" viewBox="0 0 1440 443" fill="none" xmlns="http://www.w3.org/2000/svg">
<g clip-path="url(#clip0_1143_10167)">
<rect width="1440" height="442" transform="translate(0 0.726562)" fill="#00181F"/>
<g clip-path="url(#clip1_1143_10167)">
<path fill-rule="evenodd" clip-rule="evenodd" d="M1354.55 117.69C1354.02 116.928 1353.25 117.205 1353.73 113.911C1355.52 108.516 1353.23 114.924 1353.45 114.008C1353.71 115.6 1354.69 114.824 1355.29 114.739C1355.11 115.453 1354.86 116.604 1354.55 117.69Z" fill="#081F25"/>
<path fill-rule="evenodd" clip-rule="evenodd" d="M1405.71 453.387C1412.89 446.993 1419.2 440.914 1425.34 435.064C1432.51 444.662 1439.87 454.899 1447.04 464.997C1441.57 471.987 1435.52 479.135 1429.3 487.033C1421.4 475.619 1413.83 464.554 1405.71 453.387Z" fill="#081F25"/>
<path fill-rule="evenodd" clip-rule="evenodd" d="M1428.31 432.374C1433.97 427.427 1439.39 422.406 1444.47 417.741C1450.83 426.148 1457.42 434.315 1464.1 443.026C1459.45 448.759 1454.71 454.811 1449.65 461.618C1442.53 451.815 1435.33 441.703 1428.31 432.374H1428.31Z" fill="#081F25"/>
<path fill-rule="evenodd" clip-rule="evenodd" d="M1313.99 462.601C1325.15 454.747 1335.58 447.226 1345.24 440.333C1353.34 452.372 1361.36 464.367 1369.35 477.103C1359.97 485.771 1350.38 495.421 1339.41 504.791C1331 490.034 1322.26 476.259 1313.99 462.601Z" fill="#081F25"/>
<path fill-rule="evenodd" clip-rule="evenodd" d="M1349.86 437.118C1359.12 431.77 1367.3 425.871 1375.27 420.379C1382.61 430.201 1390.2 440.498 1397.54 451.242C1390.07 458.232 1382.41 465.365 1373.82 473.548C1365.64 460.731 1357.99 448.656 1349.86 437.118Z" fill="#081F25"/>
<path fill-rule="evenodd" clip-rule="evenodd" d="M1378.89 417.459C1386.56 412.526 1393.55 407.527 1400.29 403.327C1407.03 411.734 1414.21 421.265 1421.05 430.987C1414.78 436.488 1408.1 441.855 1400.89 448.018C1393.83 437.753 1386.29 427.552 1378.89 417.459Z" fill="#081F25"/>
<path fill-rule="evenodd" clip-rule="evenodd" d="M1403.5 401.278C1409.92 397.477 1415.72 393.43 1421.47 390.125C1427.86 397.63 1433.99 405.433 1440.52 413.818C1435.39 418.286 1429.74 422.843 1424.07 427.906C1417.29 419.028 1410.26 409.624 1403.5 401.278Z" fill="#081F25"/>
<path fill-rule="evenodd" clip-rule="evenodd" d="M1037.36 360.17C1060.24 355.359 1081.28 350.617 1101.08 346.104C1108.72 358.398 1116.51 370.138 1123.81 382.737C1104.59 388.076 1083.39 394.958 1059.92 401.967C1052.28 387.459 1044.88 373.734 1037.35 360.17H1037.36Z" fill="#081F25"/>
<path fill-rule="evenodd" clip-rule="evenodd" d="M1169.35 346.287C1185.33 342.749 1199.39 339.261 1213.38 336.623C1220.25 345.902 1227.72 355.513 1235.17 365.59C1221.52 369.731 1207.19 374.177 1191.79 379.096C1184.61 368.045 1176.8 356.696 1169.35 346.284V346.287Z" fill="#081F25"/>
<path fill-rule="evenodd" clip-rule="evenodd" d="M1188.15 274.067C1200.88 273.557 1212.79 272.788 1224.28 272.179C1230.74 279.227 1237.07 286.1 1243.15 293.242C1232.01 294.253 1220.17 295.537 1207.58 297.375C1201.3 289.325 1195.03 281.53 1188.15 274.067Z" fill="#081F25"/>
<path fill-rule="evenodd" clip-rule="evenodd" d="M1235.11 444.014C1249.73 436.85 1263.22 430.195 1275.62 423.599C1283.61 435.71 1292.12 448.709 1299.8 462.121C1287.72 470.476 1274.73 479.049 1260.45 488.284C1252.2 472.815 1243.58 458.445 1235.11 444.014Z" fill="#081F25"/>
<path fill-rule="evenodd" clip-rule="evenodd" d="M1282.41 421.761C1294.48 415.593 1305.49 410.201 1315.92 405.049C1323.12 415.258 1330.71 425.822 1338.34 436.565C1328.32 443.381 1317.35 450.894 1305.79 458.797C1297.87 445.465 1290.22 433.672 1282.41 421.758V421.761Z" fill="#081F25"/>
<path fill-rule="evenodd" clip-rule="evenodd" d="M1322.36 401.292C1332 396.852 1341.11 392.522 1349.73 388.215C1356.61 397.021 1363.52 406.314 1370.45 415.861C1362.28 421.506 1353.74 426.898 1344.41 432.282C1337.19 422.073 1329.71 411.626 1322.36 401.295V401.292Z" fill="#081F25"/>
<path fill-rule="evenodd" clip-rule="evenodd" d="M1354.72 385.693C1362.56 381.27 1370.06 378.006 1377.5 374.772C1383.98 383.005 1390.63 391.418 1397.46 399.919C1390.42 403.864 1383.06 408.442 1375.64 413.528C1368.77 404.119 1361.59 394.687 1354.72 385.693Z" fill="#081F25"/>
<path fill-rule="evenodd" clip-rule="evenodd" d="M1380.76 373.867C1387.38 370.67 1393.91 367.663 1400.27 365.003C1405.9 372.095 1411.85 379.162 1417.73 386.233C1411.96 389.801 1405.85 393.643 1399.65 397.762C1393.27 389.668 1386.83 381.568 1380.77 373.867H1380.76Z" fill="#081F25"/>
<path fill-rule="evenodd" clip-rule="evenodd" d="M1422.78 354.415C1428.03 352.511 1432.62 350.376 1437.18 348.275C1442.08 353.79 1447.18 359.581 1451.88 365.037C1447.74 367.703 1443.71 370.574 1438.77 373.101C1433.59 366.881 1428.24 360.597 1422.78 354.413V354.415Z" fill="#081F25"/>
<path fill-rule="evenodd" clip-rule="evenodd" d="M1439.6 347.289C1444.02 345.197 1448.02 343.112 1451.95 341.57C1456.52 346.517 1460.74 351.334 1465.47 356.682C1461.87 359.021 1458.16 361.28 1454.33 363.868C1449.31 358.252 1444.59 352.724 1439.6 347.289Z" fill="#081F25"/>
<path fill-rule="evenodd" clip-rule="evenodd" d="M1250.32 307.371C1260.97 305.91 1271.12 304.661 1280.97 303.122C1287.12 310.483 1293.31 317.581 1299.82 324.969C1290.43 326.945 1280.44 328.811 1269.79 331.436C1263.25 323.203 1256.7 315.277 1250.31 307.371H1250.32Z" fill="#081F25"/>
<path fill-rule="evenodd" clip-rule="evenodd" d="M1256.03 237.905C1265.22 238.384 1273.94 238.805 1282.25 239.198C1287.37 244.269 1292.44 249.413 1297.67 254.324C1289.36 254.373 1281.04 254.257 1272.1 254.135C1266.91 248.643 1261.41 243.273 1256.03 237.905H1256.03Z" fill="#081F25"/>
<path fill-rule="evenodd" clip-rule="evenodd" d="M1077.65 449.345C1101.03 439.806 1122.47 431.371 1142.87 423.573C1150.82 438.234 1159.33 453.988 1167.09 470.866C1147.06 481.313 1126.08 491.921 1102.62 503.271C1094.69 484.931 1086.13 466.76 1077.65 449.345H1077.65Z" fill="#081F25"/>
<path fill-rule="evenodd" clip-rule="evenodd" d="M1210.02 397.369C1224.81 391.882 1238.89 387.002 1251.94 382.199C1259.55 393.053 1267.3 404.561 1274.83 416.196C1262.35 422.568 1248.61 429.041 1234.57 435.587C1226.38 422.77 1218.22 409.577 1210.02 397.372L1210.02 397.369Z" fill="#081F25"/>
<path fill-rule="evenodd" clip-rule="evenodd" d="M1299.78 366.592C1310 363.14 1319.33 359.987 1328.21 356.74C1334.64 364.652 1341.38 373.247 1347.84 382.083C1339.39 386.158 1330.13 390.482 1320.79 394.95C1314.03 385.134 1306.75 375.514 1299.78 366.592H1299.78Z" fill="#081F25"/>
<path fill-rule="evenodd" clip-rule="evenodd" d="M1333.28 355.17C1341.74 352.336 1349.67 349.83 1357.27 347.541C1363.64 355.04 1369.82 362.653 1376.18 370.224C1368.95 373.305 1361.59 376.4 1353.62 380.25C1346.71 371.409 1340.1 362.894 1333.28 355.17Z" fill="#081F25"/>
<path fill-rule="evenodd" clip-rule="evenodd" d="M1360.55 346.708C1367.59 344.441 1374.43 342.21 1381.14 339.942C1386.73 346.553 1392.32 353.05 1398.03 359.791C1391.85 362.551 1385.33 365.648 1378.69 368.632C1372.47 361.155 1366.34 353.767 1360.55 346.705L1360.55 346.708Z" fill="#081F25"/>
<path fill-rule="evenodd" clip-rule="evenodd" d="M1385.57 338.599C1391.58 336.792 1397.47 335.053 1402.85 333.323C1408.47 339.571 1413.8 345.384 1419.07 351.632C1414.02 353.617 1408.59 355.868 1402.65 358.702C1397.04 351.591 1391.13 344.928 1385.57 338.599Z" fill="#081F25"/>
<path fill-rule="evenodd" clip-rule="evenodd" d="M1405.49 332.765C1410.95 331.262 1415.85 329.54 1420.77 328.128C1425.6 333.324 1430.51 338.91 1435.09 344.322C1430.65 346.263 1426.08 348.419 1420.77 350.216C1415.84 344.599 1410.61 338.517 1405.49 332.765H1405.49Z" fill="#081F25"/>
<path fill-rule="evenodd" clip-rule="evenodd" d="M1423.39 327.286C1428.1 326.021 1432.54 324.925 1436.72 323.704C1441.14 328.513 1445.69 333.243 1449.88 337.952C1446.05 339.406 1441.85 341.119 1437.68 343.176C1433.02 337.725 1428.22 332.54 1423.39 327.286Z" fill="#081F25"/>
<path fill-rule="evenodd" clip-rule="evenodd" d="M1438.65 323.101C1442.64 322.004 1446.46 320.842 1450.12 319.568C1454.2 323.956 1458.32 328.33 1462.17 332.596C1458.96 334.135 1455.4 335.663 1451.76 337.094C1447.4 332.488 1443.09 327.751 1438.65 323.101H1438.65Z" fill="#081F25"/>
<path fill-rule="evenodd" clip-rule="evenodd" d="M1318.77 299.249C1326.76 298.436 1334.44 297.818 1341.81 297.013C1347.26 302.868 1352.82 308.864 1358.36 314.776C1351.25 315.967 1344.15 317.392 1336.18 319.004C1330.36 312.291 1324.61 305.614 1318.77 299.249Z" fill="#081F25"/>
<path fill-rule="evenodd" clip-rule="evenodd" d="M1345.16 296.482C1352.11 295.61 1358.9 295.02 1364.99 294.209C1370.33 299.679 1375.62 305.274 1380.57 310.752C1374.54 311.92 1368.31 313.099 1361.58 314.173C1356.24 308.435 1350.61 302.317 1345.16 296.482Z" fill="#081F25"/>
<path fill-rule="evenodd" clip-rule="evenodd" d="M1368.02 293.874C1374.36 293.265 1380.04 292.725 1385.55 292.196C1390.33 297.035 1395.34 302.223 1400.1 307.192C1394.8 308.188 1389.32 309.196 1383.55 310.417C1378.52 304.764 1373.22 299.183 1368.02 293.874Z" fill="#081F25"/>
<path fill-rule="evenodd" clip-rule="evenodd" d="M1388.15 291.897C1393.55 291.382 1398.67 291.069 1403.56 290.618C1408.04 295.13 1412.81 300.122 1417.13 304.562C1412.47 305.345 1407.59 305.927 1402.59 306.713C1398.02 301.954 1392.93 296.766 1388.15 291.897H1388.15Z" fill="#081F25"/>
<path fill-rule="evenodd" clip-rule="evenodd" d="M1405.96 290.443C1410.68 289.92 1415.09 289.281 1419.52 289.106C1423.68 293.239 1427.94 297.541 1432.15 301.987C1428.18 302.671 1423.95 303.454 1419.4 304.299C1415.01 299.626 1410.36 294.947 1405.96 290.443Z" fill="#081F25"/>
<path fill-rule="evenodd" clip-rule="evenodd" d="M1421.57 289.035C1425.7 288.642 1429.5 288.279 1433.36 288.024C1437.42 291.941 1441.5 295.972 1445.03 299.715C1441.65 300.39 1438.02 301.088 1434.02 301.589C1429.95 297.251 1425.9 293.154 1421.57 289.035H1421.57Z" fill="#081F25"/>
<path fill-rule="evenodd" clip-rule="evenodd" d="M1435.1 287.894C1438.8 287.517 1442.4 287.277 1445.63 286.928C1449.36 290.554 1453.03 294.294 1456.66 297.907C1453.62 298.618 1450.14 298.981 1446.86 299.462C1443.03 295.678 1439.24 291.811 1435.1 287.897V287.894Z" fill="#081F25"/>
<path fill-rule="evenodd" clip-rule="evenodd" d="M1440.76 265.596C1435.12 265.108 1429.42 265.122 1423.21 264.84C1422.05 264.732 1420.73 264.635 1419.37 264.223C1425.85 264.84 1431.79 264.702 1437.52 265.045C1438.87 265.546 1439.9 265.366 1440.76 265.598V265.596Z" fill="#081F25"/>
<path fill-rule="evenodd" clip-rule="evenodd" d="M1327.79 277.292C1334.98 276.835 1342.11 276.58 1348.55 276.165C1353.71 281.322 1358.82 286.568 1363.79 291.908C1357.42 292.547 1350.64 293.165 1343.88 293.948C1338.55 288.201 1333.04 282.499 1327.79 277.289L1327.79 277.292Z" fill="#081F25"/>
<path fill-rule="evenodd" clip-rule="evenodd" d="M1351.68 275.986C1358.11 275.883 1364.22 275.753 1369.95 275.507C1374.61 280.274 1379.72 285.265 1384.23 290.023C1378.81 290.555 1372.91 290.967 1366.83 291.463C1361.9 286.267 1356.71 281.016 1351.68 275.989V275.986Z" fill="#081F25"/>
<path fill-rule="evenodd" clip-rule="evenodd" d="M1372.72 275.484C1378.4 275.346 1383.74 275.354 1389 275.229C1393.47 279.479 1397.93 283.999 1402.26 288.655C1397.32 288.924 1392.2 289.281 1386.87 289.904C1382.43 285.167 1377.39 280.154 1372.71 275.481L1372.72 275.484Z" fill="#081F25"/>
<path fill-rule="evenodd" clip-rule="evenodd" d="M1391.45 275.078C1396.47 274.975 1401.14 275.064 1405.68 274.917C1409.97 279.022 1414.14 283.114 1418.2 287.175C1413.92 287.363 1409.45 287.9 1404.66 288.418C1400.3 283.972 1395.84 279.379 1391.45 275.078Z" fill="#081F25"/>
<path fill-rule="evenodd" clip-rule="evenodd" d="M1407.87 274.814C1412.36 274.9 1416.28 274.69 1420.38 274.728C1424.42 278.623 1428.35 282.372 1432.16 286.186C1428.37 286.527 1424.43 286.848 1420.25 287.108C1416.19 282.975 1412.07 279.066 1407.87 274.814Z" fill="#081F25"/>
<path fill-rule="evenodd" clip-rule="evenodd" d="M1422.25 274.59C1426.27 274.545 1429.9 274.531 1433.53 274.401C1437.26 277.989 1440.86 281.535 1444.48 285.153C1441.23 285.779 1437.71 285.937 1434.03 286.191C1430.08 282.274 1426.37 278.49 1422.25 274.59H1422.25Z" fill="#081F25"/>
<path fill-rule="evenodd" clip-rule="evenodd" d="M1435.23 274.443C1438.62 274.443 1442.06 274.596 1445 274.515C1448.4 277.691 1451.89 281.09 1455.33 284.345C1452.37 284.52 1449.33 284.766 1446.11 285.145C1442.64 281.549 1438.88 278.025 1435.23 274.443Z" fill="#081F25"/>
<path fill-rule="evenodd" clip-rule="evenodd" d="M1309.78 258.163C1317.34 258.243 1324.64 258.351 1331.45 258.52C1336.43 263.497 1341.39 268.284 1346.29 273.22C1339.58 273.444 1332.53 273.779 1325.45 274.083C1320.14 268.729 1314.81 263.301 1309.78 258.166V258.163Z" fill="#081F25"/>
<path fill-rule="evenodd" clip-rule="evenodd" d="M1334.64 258.745C1341.29 258.767 1347.74 259.058 1353.73 259.254C1358.44 263.825 1363.18 268.395 1367.75 272.935C1361.92 272.877 1355.68 272.971 1349.38 273.262C1344.57 268.212 1339.66 263.482 1334.64 258.745Z" fill="#081F25"/>
<path fill-rule="evenodd" clip-rule="evenodd" d="M1356.75 259.304C1362.65 259.42 1368.37 259.653 1373.76 259.893C1378.07 264.021 1382.44 268.278 1386.83 272.755C1381.66 272.791 1376.24 272.893 1370.65 272.979C1366.09 268.372 1361.34 263.716 1356.76 259.304H1356.75Z" fill="#081F25"/>
<path fill-rule="evenodd" clip-rule="evenodd" d="M1376.24 259.921C1381.61 260.225 1386.25 260.32 1391.14 260.596C1395.49 264.63 1399.44 268.502 1403.62 272.533C1398.95 272.555 1394.2 272.505 1389.12 272.605C1385.01 268.32 1380.63 264.062 1376.24 259.921Z" fill="#081F25"/>
<path fill-rule="evenodd" clip-rule="evenodd" d="M1393.65 260.807C1398.11 260.892 1402.48 261.017 1406.83 261.272C1410.85 265.144 1414.7 268.821 1418.44 272.439C1414.54 272.635 1410.35 272.663 1405.79 272.563C1401.76 268.516 1397.73 264.724 1393.65 260.807Z" fill="#081F25"/>
<path fill-rule="evenodd" clip-rule="evenodd" d="M1408.96 261.339C1413.21 261.63 1416.95 261.79 1420.54 261.934C1424.34 265.428 1428.22 268.952 1431.7 272.368C1428.15 272.426 1424.44 272.542 1420.37 272.439C1416.63 268.835 1412.85 265.167 1408.96 261.339Z" fill="#081F25"/>
<path fill-rule="evenodd" clip-rule="evenodd" d="M1422.77 262.354C1426.55 262.667 1429.9 262.842 1433.3 263.044C1436.78 266.327 1440.41 269.712 1443.77 273.101C1440.57 272.854 1437.19 272.81 1433.67 272.666C1430.17 269.389 1426.7 266.114 1422.77 262.357V262.354Z" fill="#081F25"/>
<path fill-rule="evenodd" clip-rule="evenodd" d="M1318.61 242.78C1325.53 243.173 1332.08 243.442 1338.41 243.957C1343.11 248.425 1347.64 252.749 1352.22 257.405C1345.97 256.984 1339.72 256.94 1332.95 256.743C1328.35 252.079 1323.55 247.423 1318.61 242.78H1318.61Z" fill="#081F25"/>
<path fill-rule="evenodd" clip-rule="evenodd" d="M1341.58 244.402C1347.78 244.685 1353.48 245.216 1359.23 245.82C1363.59 249.831 1367.82 253.92 1372.16 258.083C1366.57 257.618 1361.14 257.604 1355.1 257.416C1350.55 252.976 1345.98 248.458 1341.58 244.402Z" fill="#081F25"/>
<path fill-rule="evenodd" clip-rule="evenodd" d="M1361.88 246.044C1367.34 246.465 1372.4 247.002 1377.52 247.555C1381.67 251.304 1385.67 255.207 1389.84 259.121C1384.9 258.62 1380.06 258.518 1374.63 258.119C1370.56 254.196 1366.24 250.149 1361.88 246.044Z" fill="#081F25"/>
<path fill-rule="evenodd" clip-rule="evenodd" d="M1380.01 247.735C1384.84 248.164 1389.38 248.425 1393.9 248.854C1397.79 252.486 1401.58 256.076 1405.44 259.758C1401.1 259.534 1396.82 259.343 1392.01 259.127C1387.9 255.262 1384.09 251.506 1380.01 247.735Z" fill="#081F25"/>
<path fill-rule="evenodd" clip-rule="evenodd" d="M1396.14 249.125C1400.22 249.394 1404.28 249.778 1408.45 250.368C1412.12 253.709 1415.79 257.192 1419.35 260.525C1415.56 260.342 1411.62 259.965 1407.57 259.863C1403.63 256.178 1399.84 252.685 1396.14 249.125Z" fill="#081F25"/>
<path fill-rule="evenodd" clip-rule="evenodd" d="M1420.92 252.968C1424.51 253.411 1427.94 253.818 1431.09 254.094C1434.33 257.065 1437.79 260.212 1441.12 263.338C1437.95 263.055 1434.69 262.98 1431.43 262.778C1428.12 259.537 1424.55 256.262 1420.92 252.971V252.968Z" fill="#081F25"/>
<path fill-rule="evenodd" clip-rule="evenodd" d="M1433.03 254.26C1436.1 254.528 1439.03 254.725 1441.87 255.082C1444.85 257.944 1447.85 260.618 1450.71 263.414C1448.2 263.378 1445.33 263.173 1442.59 263.088C1439.53 260.239 1436.21 257.136 1433.03 254.26Z" fill="#081F25"/>
<path fill-rule="evenodd" clip-rule="evenodd" d="M1326.1 230.11C1332.33 230.844 1338.33 231.55 1344.38 232.27C1348.67 236.25 1352.85 240.109 1357.25 244.156C1351.32 243.387 1345.75 243.052 1339.39 242.368C1335.05 238.177 1330.54 234.229 1326.1 230.11Z" fill="#081F25"/>
<path fill-rule="evenodd" clip-rule="evenodd" d="M1347.16 232.56C1352.7 233.164 1358.27 233.947 1363.56 234.609C1367.49 238.307 1371.58 242.042 1375.68 245.87C1370.5 245.297 1365.49 244.896 1359.9 244.431C1355.5 240.32 1351.31 236.497 1347.16 232.558V232.56Z" fill="#081F25"/>
<path fill-rule="evenodd" clip-rule="evenodd" d="M1366.1 234.904C1371.02 235.463 1375.85 236.125 1380.8 236.867C1384.57 240.399 1388.18 243.633 1392.11 247.251C1387.61 246.822 1383 246.459 1378.16 246.138C1374.14 242.287 1369.98 238.464 1366.1 234.904Z" fill="#081F25"/>
<path fill-rule="evenodd" clip-rule="evenodd" d="M1382.95 237.202C1387.32 237.869 1391.69 238.445 1395.84 239.004C1399.44 242.304 1403.21 245.615 1406.79 248.865C1402.68 248.444 1398.63 248.001 1394.36 247.519C1390.41 243.951 1386.67 240.574 1382.95 237.202Z" fill="#081F25"/>
<path fill-rule="evenodd" clip-rule="evenodd" d="M1409.21 241.845C1412.97 242.448 1416.45 242.863 1419.72 243.284C1423.1 246.371 1426.5 249.41 1429.71 252.519C1426.49 252.184 1423.2 251.852 1419.55 251.387C1416.15 248.234 1412.77 245.139 1409.21 241.847V241.845Z" fill="#081F25"/>
<path fill-rule="evenodd" clip-rule="evenodd" d="M1422.14 244.212C1425.47 244.655 1428.44 245.12 1431.46 245.679C1434.6 248.475 1437.69 251.243 1440.99 254.222C1438.15 253.851 1435.09 253.618 1432.02 253.364C1428.8 250.296 1425.54 247.26 1422.14 244.209L1422.14 244.212Z" fill="#081F25"/>
<path fill-rule="evenodd" clip-rule="evenodd" d="M1312.74 215.402C1319.3 216.429 1325.5 217.345 1331.46 218.372C1335.74 221.927 1339.8 225.581 1344.2 229.584C1338.19 228.668 1332.12 228.014 1325.93 227.214C1321.51 223.139 1317.15 219.272 1312.74 215.399L1312.74 215.402Z" fill="#081F25"/>
<path fill-rule="evenodd" clip-rule="evenodd" d="M1334.29 218.669C1340.15 219.677 1345.76 220.463 1351.25 221.412C1355.06 224.936 1359.05 228.336 1363.09 232.028C1357.76 231.259 1352.25 230.583 1346.69 229.739C1342.61 226.041 1338.53 222.437 1334.29 218.669Z" fill="#081F25"/>
<path fill-rule="evenodd" clip-rule="evenodd" d="M1319.1 205.572C1325.06 206.621 1330.78 207.773 1336.37 208.814C1340.39 212.366 1344.33 215.773 1348.27 219.192C1342.99 218.29 1337.26 217.418 1331.25 216.399C1327.28 212.875 1323.14 209.232 1319.09 205.572H1319.1Z" fill="#081F25"/>
<path fill-rule="evenodd" clip-rule="evenodd" d="M1254.18 209.302C1262.77 210.484 1270.76 211.583 1278.37 212.372C1283.43 216.721 1288.06 221.183 1292.54 225.369C1285.16 224.751 1277.3 223.865 1268.97 222.971C1264.22 218.456 1259.29 213.88 1254.19 209.305L1254.18 209.302Z" fill="#081F25"/>
<path fill-rule="evenodd" clip-rule="evenodd" d="M1437.39 303.427C1441.25 302.832 1444.8 302.162 1448.18 301.45C1452.41 305.73 1456.36 309.841 1460.06 313.736C1456.95 314.621 1453.59 315.726 1450.14 316.764C1445.81 312.194 1441.8 307.994 1437.39 303.424V303.427Z" fill="#081F25"/>
<path fill-rule="evenodd" clip-rule="evenodd" d="M1423.21 306.397C1427.6 305.65 1431.68 304.806 1435.66 304C1439.91 308.512 1444.14 312.856 1448.4 317.346C1444.76 318.53 1440.86 319.685 1436.87 320.847C1432.36 315.942 1427.67 311.026 1423.21 306.397Z" fill="#081F25"/>
<path fill-rule="evenodd" clip-rule="evenodd" d="M1405.28 308.991C1410.32 307.988 1415.15 307.238 1419.64 306.585C1424.24 311.164 1428.91 316.174 1433.49 321.066C1429.24 322.076 1424.66 323.164 1420.09 324.67C1415.06 319.156 1410.27 314.034 1405.28 308.991H1405.28Z" fill="#081F25"/>
<path fill-rule="evenodd" clip-rule="evenodd" d="M1386.85 312.247C1392.53 311.142 1398.12 309.894 1403.02 308.928C1408.05 314.196 1413.14 319.389 1417.95 324.773C1413.1 326.249 1407.98 327.86 1402.39 329.177C1397.27 323.494 1392.1 317.98 1386.85 312.25V312.247Z" fill="#081F25"/>
<path fill-rule="evenodd" clip-rule="evenodd" d="M1364.93 316.15C1371.51 315.009 1378.03 314.021 1383.66 312.401C1388.97 318.237 1394.39 324.122 1399.42 329.852C1393.83 331.466 1387.95 333.108 1381.74 334.669C1376.05 328.305 1370.61 322.281 1364.93 316.15H1364.93Z" fill="#081F25"/>
<path fill-rule="evenodd" clip-rule="evenodd" d="M1340.1 321.387C1347.83 319.796 1354.93 318.373 1361.61 316.861C1367.34 323.145 1373.14 329.424 1378.79 335.97C1371.83 337.894 1365.4 340.294 1358.02 342.174C1351.93 335.184 1345.91 328.225 1340.1 321.387Z" fill="#081F25"/>
<path fill-rule="evenodd" clip-rule="evenodd" d="M1311.4 327.94C1320.44 326.173 1328.45 324.504 1336.52 322.752C1342.55 329.653 1348.56 336.679 1354.58 343.547C1347.04 346.033 1339.05 348.466 1330.68 350.957C1324.05 342.899 1317.75 335.323 1311.4 327.94Z" fill="#081F25"/>
<path fill-rule="evenodd" clip-rule="evenodd" d="M1012.69 288.046C1018.37 283.512 1023.94 278.936 1029.03 274.759C1037.25 279.401 1045.44 283.725 1053.71 288.628C1049.09 293.431 1044.53 298.466 1039 303.618C1030.09 298.364 1021.18 293.14 1012.69 288.046H1012.69Z" fill="#081F25"/>
<path fill-rule="evenodd" clip-rule="evenodd" d="M1291.73 278.74C1293.99 276.467 1296.2 274.352 1298.5 272.542C1301.7 274.779 1305.04 277.162 1308.33 279.429C1306.29 281.58 1304.35 283.892 1302.28 286.491C1298.73 283.847 1295.2 281.223 1291.72 278.74H1291.73Z" fill="#081F25"/>
<path fill-rule="evenodd" clip-rule="evenodd" d="M1381.29 194.777C1382.17 193.437 1382.98 192.042 1383.72 190.644C1386.6 193.021 1389.68 195.596 1392.7 198.104C1392.23 199.712 1391.57 201.182 1390.81 202.757C1387.65 200.108 1384.44 197.415 1381.29 194.777H1381.29Z" fill="#081F25"/>
<path fill-rule="evenodd" clip-rule="evenodd" d="M913.427 427.208C920.537 421.658 927.243 416.34 933.757 411.659C942.238 414.261 950.561 417.342 959.293 420.282C952.961 425.398 946.728 430.926 940.323 436.883C931.215 433.467 921.897 430.389 913.424 427.206L913.427 427.208Z" fill="#081F25"/>
<path fill-rule="evenodd" clip-rule="evenodd" d="M1360.99 212.781C1361.69 212.014 1362.24 211.267 1362.79 210.547C1364.67 211.903 1366.55 213.235 1368.37 214.564C1367.95 215.386 1367.52 216.352 1367.03 217.16C1365.01 215.707 1363.07 214.265 1360.99 212.778V212.781Z" fill="#081F25"/>
<path fill-rule="evenodd" clip-rule="evenodd" d="M1296.45 177.699C1298.14 176.982 1299.74 176.348 1301.32 175.764C1303.71 177.383 1306.1 179.058 1308.54 180.824C1307.21 181.624 1305.74 182.335 1304.08 183.255C1301.59 181.32 1299.02 179.512 1296.45 177.701V177.699Z" fill="#081F25"/>
<path fill-rule="evenodd" clip-rule="evenodd" d="M937.224 243.392C943.919 240.646 950.143 238.249 956.057 235.99C963.705 239.152 970.946 242.18 977.875 245.391C972.532 248.051 966.905 250.775 960.608 254.125C952.526 250.368 944.671 246.642 937.224 243.392Z" fill="#081F25"/>
<path fill-rule="evenodd" clip-rule="evenodd" d="M1323.83 173.42C1324.85 172.941 1325.61 172.312 1326.42 171.839C1328.37 173.107 1330.22 174.538 1332.09 175.919C1331.41 176.525 1330.78 177.242 1329.95 177.796C1328.08 176.376 1325.96 174.873 1323.83 173.42Z" fill="#081F25"/>
<path fill-rule="evenodd" clip-rule="evenodd" d="M1366.39 162.961C1366.93 162.568 1367.52 162.266 1368.06 161.903C1369.46 162.986 1370.99 164.104 1372.34 165.137C1371.87 165.557 1371.47 165.984 1371.05 166.471C1369.52 165.317 1367.92 164.14 1366.39 162.961Z" fill="#081F25"/>
<path fill-rule="evenodd" clip-rule="evenodd" d="M908.286 333.506C913.052 331.234 916.909 329.088 920.979 327.034C926.954 328.72 932.676 330.245 938.379 331.895C934.881 334.002 930.92 336.457 926.729 338.783C920.483 337.088 914.365 335.245 908.286 333.506Z" fill="#081F25"/>
<path fill-rule="evenodd" clip-rule="evenodd" d="M1259.02 166.703C1260.69 166.211 1262.4 165.873 1263.85 165.369C1266.18 166.883 1268.63 168.456 1270.84 169.915C1269.43 170.529 1268.12 171.052 1266.57 171.628C1264.26 170.042 1261.55 168.292 1259.02 166.703Z" fill="#081F25"/>
<path fill-rule="evenodd" clip-rule="evenodd" d="M1320.64 129.272C1321.71 129.075 1322.77 128.906 1323.81 128.854C1325.56 129.961 1327.23 131.226 1328.9 132.438C1327.91 132.61 1326.91 132.798 1325.91 133.017C1324.12 131.71 1322.38 130.467 1320.64 129.272Z" fill="#081F25"/>
<path fill-rule="evenodd" clip-rule="evenodd" d="M1347.09 175.128C1348.05 174.823 1349 174.607 1349.89 174.336C1351.39 175.41 1353.08 176.589 1354.65 177.652C1353.76 177.968 1352.93 178.261 1352.03 178.582C1350.34 177.409 1348.77 176.304 1347.08 175.128H1347.09Z" fill="#081F25"/>
<path fill-rule="evenodd" clip-rule="evenodd" d="M1369.81 199.826C1370.77 199.51 1371.68 199.148 1372.56 198.915C1373.97 199.87 1375.52 200.894 1377.01 201.847C1376.12 202.162 1375.22 202.494 1374.39 202.871C1372.91 201.866 1371.36 200.856 1369.81 199.826Z" fill="#081F25"/>
<path fill-rule="evenodd" clip-rule="evenodd" d="M1219.77 213.036C1221.87 212.49 1223.87 211.934 1225.8 211.419C1228.34 212.784 1230.81 214.082 1233.49 215.51C1231.51 215.962 1229.57 216.579 1227.62 217.152C1225.1 215.746 1222.33 214.351 1219.77 213.036Z" fill="#081F25"/>
<path fill-rule="evenodd" clip-rule="evenodd" d="M1393.16 221.442C1394.05 221.13 1394.96 220.717 1395.78 220.388C1397.16 221.31 1398.41 222.154 1399.73 223.054C1398.98 223.402 1398.22 223.795 1397.39 224.216C1396.01 223.258 1394.61 222.422 1393.16 221.44V221.442Z" fill="#081F25"/>
<path fill-rule="evenodd" clip-rule="evenodd" d="M1381.81 184.8C1382.59 184.597 1383.36 184.52 1384.13 184.376C1385.27 185.151 1386.47 186.018 1387.62 186.746C1386.98 186.884 1386.2 187.083 1385.54 187.305C1384.28 186.433 1383.08 185.591 1381.81 184.802V184.8Z" fill="#081F25"/>
<path fill-rule="evenodd" clip-rule="evenodd" d="M807.001 384.511C813.361 382.601 820.086 380.333 826.884 378.365C833.18 379.711 839.981 380.668 846.375 381.845C840.263 383.711 833.643 385.898 827.528 388.065C820.385 386.866 813.776 385.762 807.001 384.513V384.511Z" fill="#081F25"/>
<path fill-rule="evenodd" clip-rule="evenodd" d="M1295.8 140.686C1297.2 140.741 1298.46 140.755 1299.73 140.766C1301.21 141.704 1302.75 142.684 1304.34 143.733C1303.09 143.675 1301.94 143.78 1300.67 143.769C1299.07 142.723 1297.48 141.666 1295.8 140.686H1295.8Z" fill="#081F25"/>
<path fill-rule="evenodd" clip-rule="evenodd" d="M1121.12 261.223C1124.29 260.453 1127.68 259.993 1130.91 259.296C1134.09 260.4 1136.99 261.367 1139.84 262.502C1136.9 263.039 1133.73 263.794 1130.42 264.55C1127.32 263.409 1124.14 262.313 1121.13 261.223H1121.12Z" fill="#081F25"/>
<path fill-rule="evenodd" clip-rule="evenodd" d="M1131.93 318.575C1134.79 316.795 1137.61 315.023 1140.46 313.481C1144.44 315.007 1148.5 316.801 1152.58 318.531C1149.94 320.289 1147.31 322.002 1144.65 324.001C1140.22 321.997 1136.03 320.316 1131.93 318.572V318.575Z" fill="#081F25"/>
<path fill-rule="evenodd" clip-rule="evenodd" d="M1201.11 247.752C1203.68 246.285 1206.06 244.975 1208.26 243.699C1211.65 245.573 1215.18 247.564 1218.71 249.59C1216.49 250.949 1214.51 252.582 1212.04 253.986C1208.29 251.885 1204.71 249.795 1201.11 247.752Z" fill="#081F25"/>
</g>
<g clip-path="url(#clip2_1143_10167)">
<path fill-rule="evenodd" clip-rule="evenodd" d="M118.536 139.388C118.951 138.793 119.552 139.009 119.178 136.434C117.779 132.216 119.561 137.226 119.395 136.51C119.189 137.754 118.425 137.148 117.957 137.081C118.101 137.639 118.294 138.54 118.536 139.388Z" fill="#081F25"/>
<path fill-rule="evenodd" clip-rule="evenodd" d="M29.6831 397.46C26.4475 392.083 23.8081 386.168 21.2187 380.893C19.8414 383.018 15.8943 406.27 10.4414 442.727H22.2392C25.8121 415.965 28.4689 399.369 29.6831 397.46Z" fill="#081F25"/>
<path fill-rule="evenodd" clip-rule="evenodd" d="M19.5805 382.035C16.9651 377.043 14.5346 372.288 12.0758 368.677C10.7376 370.614 5.96145 399.113 -0.605469 442.727H10.0587C14.8305 406.928 18.2989 384.084 19.5805 382.035Z" fill="#081F25"/>
<path fill-rule="evenodd" clip-rule="evenodd" d="M10.8997 367.226C8.69549 364.086 6.59138 361.104 4.51338 358.27C2.05241 372.498 -0.439013 386.538 -2.83035 400.491C-5.26302 414.661 -7.66306 428.76 -10 442.696L-9.84333 442.724H-0.256236C3.31662 417.927 7.11143 392.675 10.8997 367.224V367.226Z" fill="#081F25"/>
<path fill-rule="evenodd" clip-rule="evenodd" d="M3.64789 356.794C1.80706 353.858 0.0510921 351.246 -1.62001 348.785C-4.78815 364.405 -7.95194 379.854 -10.9982 395.006C-14.0728 410.312 -17.0908 425.443 -20 440.279V440.887C-17.2366 441.409 -14.397 441.926 -11.4813 442.398C-9.103 428.351 -6.58764 414.084 -4.05051 399.693C-1.55691 385.545 1.09771 371.26 3.64789 356.794Z" fill="#081F25"/>
<path fill-rule="evenodd" clip-rule="evenodd" d="M120.498 442.727C114.224 436.633 108.262 430.963 102.605 425.177C99.1235 430.896 95.4832 436.797 91.8516 442.727H120.498Z" fill="#081F25"/>
<path fill-rule="evenodd" clip-rule="evenodd" d="M99.3774 422.253C92.9019 415.45 86.8942 409.81 81.2411 404.602C74.8548 413.4 68.9363 421.942 62.6914 431.409C65.4831 434.828 68.3336 438.667 71.3168 442.729H86.5743C90.8739 435.703 95.1387 428.91 99.3774 422.253Z" fill="#081F25"/>
<path fill-rule="evenodd" clip-rule="evenodd" d="M78.5948 401.812C72.994 396.813 68.0612 392.061 63.272 387.488C57.6734 394.991 51.9289 402.993 46.3281 410.888C50.6038 416.352 55.3234 421.939 60.1778 428.113C66.3488 419.191 72.2585 410.541 78.5948 401.812Z" fill="#081F25"/>
<path fill-rule="evenodd" clip-rule="evenodd" d="M60.951 385.385C56.5338 381.518 52.2995 377.593 48.335 373.946C43.3717 380.518 38.2235 386.902 33.0078 393.712C36.6394 398.194 40.3428 402.924 44.2899 408.246C49.8494 400.583 55.4698 392.678 60.9531 385.385H60.951Z" fill="#081F25"/>
<path fill-rule="evenodd" clip-rule="evenodd" d="M34.5747 360.532C31.5349 357.522 28.543 354.836 25.6534 352.239C21.5562 357.089 17.0803 362.423 12.9961 367.58C15.3113 370.692 17.9985 374.016 20.6771 377.803C25.3292 371.713 29.8725 366.403 34.5747 360.532Z" fill="#081F25"/>
<path fill-rule="evenodd" clip-rule="evenodd" d="M23.975 351.347C21.3922 348.82 18.7789 346.526 16.5073 343.964C12.843 348.285 9.00037 352.739 5.42969 357.06C7.37713 359.98 9.5487 362.905 11.816 366.024C15.7784 361.168 20.0018 356.102 23.975 351.347Z" fill="#081F25"/>
<path fill-rule="evenodd" clip-rule="evenodd" d="M14.8607 342.488C12.7609 340.166 10.7482 338.051 8.82034 335.95C5.4716 339.761 2.01842 343.788 -1.15625 347.543C0.382125 349.951 2.19902 352.392 4.10295 355.08C7.67145 350.804 11.4467 346.521 14.8629 342.488H14.8607Z" fill="#081F25"/>
<path fill-rule="evenodd" clip-rule="evenodd" d="M7.609 334.779C5.7747 332.979 4.14276 331.105 2.39985 329.367C-0.500649 332.633 -3.55999 335.978 -6.46484 339.244C-5.24198 341.596 -3.8124 343.907 -2.49814 346.394C0.870179 342.611 4.38429 338.601 7.609 334.779Z" fill="#081F25"/>
<path fill-rule="evenodd" clip-rule="evenodd" d="M1.72397 328.459C0.189948 326.806 -1.20699 324.886 -2.41027 323.177C-5.11059 326.09 -7.64989 328.959 -10.5352 332.06C-9.34928 334.15 -8.15035 336.126 -6.88179 338.273C-4.04657 335.109 -1.1156 331.826 1.72615 328.459H1.72397Z" fill="#081F25"/>
<path fill-rule="evenodd" clip-rule="evenodd" d="M6.45215 266.965C8.2277 266.01 9.89446 265.112 11.7222 264.381C11.7201 264.643 11.7744 264.801 11.9398 264.783C9.9989 265.692 7.94266 266.895 6.32812 267.759C6.33465 267.406 6.33465 267.304 6.45215 266.965Z" fill="#081F25"/>
<path fill-rule="evenodd" clip-rule="evenodd" d="M184.989 432.647C174.029 425.27 164.54 418.282 154.637 411.859C148.732 421.879 142.594 431.783 136.395 442.729H179.595C181.377 439.331 183.175 435.971 184.989 432.647Z" fill="#081F25"/>
<path fill-rule="evenodd" clip-rule="evenodd" d="M150.199 409.014C141.488 402.874 133.342 396.995 125.802 391.606C119.479 401.018 113.217 410.394 106.98 420.351C114.3 427.126 121.792 434.67 130.354 441.995C136.919 430.459 143.743 419.691 150.199 409.014Z" fill="#081F25"/>
<path fill-rule="evenodd" clip-rule="evenodd" d="M122.194 389.094C114.97 384.913 108.577 380.301 102.36 376.008C96.6247 383.686 90.6997 391.736 84.9727 400.134C90.8041 405.598 96.7857 411.175 103.49 417.572C109.878 407.552 115.849 398.113 122.194 389.094Z" fill="#081F25"/>
<path fill-rule="evenodd" clip-rule="evenodd" d="M99.5306 373.725C93.5425 369.869 88.0831 365.961 82.8239 362.678C77.5603 369.25 71.9595 376.7 66.6133 384.3C71.5091 388.6 76.727 392.796 82.3582 397.613C87.8698 389.589 93.7557 381.615 99.5306 373.725Z" fill="#081F25"/>
<path fill-rule="evenodd" clip-rule="evenodd" d="M80.3163 361.076C75.3074 358.105 70.7815 354.941 66.2925 352.357C61.301 358.224 56.5161 364.324 51.418 370.879C55.426 374.372 59.8366 377.934 64.2624 381.892C69.5543 374.952 75.0397 367.601 80.3163 361.076Z" fill="#081F25"/>
<path fill-rule="evenodd" clip-rule="evenodd" d="M20.6178 261.035C19.4537 260.916 18.4006 260.79 17.4606 260.608C15.5327 262.506 13.7637 264.276 11.875 266.077C12.8172 266.207 13.7049 266.514 14.7059 266.748C16.6511 264.913 18.529 263.004 20.6178 261.035Z" fill="#081F25"/>
<path fill-rule="evenodd" clip-rule="evenodd" d="M50.5944 341.771C47.0499 339.653 43.8404 337.409 40.5417 335.349C36.4553 340.205 32.2471 345.084 28.1172 350.047C31.0612 352.416 34.114 355.039 37.3997 357.675C41.7493 352.325 46.112 347.093 50.5944 341.771Z" fill="#081F25"/>
<path fill-rule="evenodd" clip-rule="evenodd" d="M38.7022 334.689C35.7625 332.627 32.7968 330.77 29.9768 328.872C26.467 332.917 22.7963 337.147 19.2734 341.419C21.6713 343.81 24.2193 346.076 26.8696 348.541C30.7623 344.042 34.7268 339.357 38.7022 334.689Z" fill="#081F25"/>
<path fill-rule="evenodd" clip-rule="evenodd" d="M28.221 327.749C25.5729 326.141 23.4405 324.261 21.0862 322.729C17.7418 326.459 14.3669 330.151 11.2031 333.832C13.131 335.849 15.2699 337.818 17.5633 340.028C21.208 335.587 24.7656 331.592 28.2188 327.749H28.221Z" fill="#081F25"/>
<path fill-rule="evenodd" clip-rule="evenodd" d="M19.7541 321.705C17.5477 320.16 15.5436 318.593 13.4374 317.384C10.5151 320.548 7.44488 323.841 4.33984 327.544C6.01965 329.288 7.77997 330.991 9.74482 332.973C12.9717 329.32 16.4097 325.352 19.7541 321.705Z" fill="#081F25"/>
<path fill-rule="evenodd" clip-rule="evenodd" d="M12.6914 316.719C10.8462 315.254 9.07504 314.02 7.55625 312.601C4.87987 315.498 2.11863 318.502 -0.546875 321.324C0.843537 322.964 2.24483 324.777 3.90723 326.554C6.82078 323.146 9.76698 319.932 12.6914 316.717V316.719Z" fill="#081F25"/>
<path fill-rule="evenodd" clip-rule="evenodd" d="M6.47388 311.63C4.85282 310.574 3.54509 309.165 2.24389 307.955C-0.308465 310.612 -2.88475 313.408 -5.42188 316.254C-4.06193 317.487 -3.00443 319.134 -1.75328 320.634C0.914401 317.676 3.79967 314.551 6.47388 311.632V311.63Z" fill="#081F25"/>
<path fill-rule="evenodd" clip-rule="evenodd" d="M1.52708 307.574C0.114909 306.546 -0.807681 305.176 -1.96527 304.001C-4.14989 306.273 -6.41067 308.693 -8.50391 310.999C-7.47252 312.289 -6.56081 313.73 -5.52072 315.219C-3.1729 312.663 -0.842495 310.101 1.52708 307.574Z" fill="#081F25"/>
<path fill-rule="evenodd" clip-rule="evenodd" d="M366.161 328.942C348.292 325.181 331.872 321.474 316.408 317.946C310.448 327.557 304.365 336.734 298.668 346.583C313.669 350.757 330.219 356.137 348.544 361.616C354.506 350.274 360.286 339.545 366.163 328.942H366.161Z" fill="#081F25"/>
<path fill-rule="evenodd" clip-rule="evenodd" d="M263.114 318.089C250.64 315.323 239.664 312.596 228.741 310.534C223.384 317.788 217.551 325.301 211.734 333.178C222.392 336.416 233.578 339.891 245.6 343.736C251.201 335.098 257.298 326.225 263.114 318.087V318.089Z" fill="#081F25"/>
<path fill-rule="evenodd" clip-rule="evenodd" d="M248.437 261.632C238.502 261.234 229.206 260.632 220.237 260.156C215.191 265.666 210.252 271.039 205.504 276.622C214.203 277.412 223.442 278.416 233.271 279.853C238.175 273.56 243.071 267.466 248.437 261.632Z" fill="#081F25"/>
<path fill-rule="evenodd" clip-rule="evenodd" d="M301.225 442.726C288.489 435.972 276.571 429.584 265.348 423.428C262.141 429.731 258.927 436.161 255.75 442.726H301.222H301.225Z" fill="#081F25"/>
<path fill-rule="evenodd" clip-rule="evenodd" d="M257.722 419.474C243.1 411.699 230.217 404.203 217.612 397.494C210.999 408.933 204.225 421.235 197.484 433.514C201.61 436.565 205.809 439.625 210.116 442.726H246.373C250.213 434.78 253.989 427.057 257.722 419.474Z" fill="#081F25"/>
<path fill-rule="evenodd" clip-rule="evenodd" d="M211.783 394.485C200.37 388.884 189.834 383.682 180.156 378.525C173.919 387.993 167.276 398.155 161.277 408.64C170.706 415.171 180.848 421.872 191.999 429.092C198.442 416.999 205.168 405.766 211.783 394.485Z" fill="#081F25"/>
<path fill-rule="evenodd" clip-rule="evenodd" d="M174.856 377.088C165.427 372.267 156.835 368.052 148.688 364.024C143.072 372.005 137.147 380.263 131.191 388.662C139.014 393.989 147.578 399.862 156.597 406.041C162.786 395.619 168.754 386.4 174.856 377.086V377.088Z" fill="#081F25"/>
<path fill-rule="evenodd" clip-rule="evenodd" d="M143.662 361.088C136.134 357.617 129.025 354.232 122.293 350.865C116.92 357.749 111.524 365.013 106.121 372.477C112.494 376.89 119.164 381.105 126.444 385.314C132.086 377.333 137.92 369.166 143.662 361.09V361.088Z" fill="#081F25"/>
<path fill-rule="evenodd" clip-rule="evenodd" d="M118.403 348.893C112.284 345.435 106.427 342.884 100.615 340.356C95.5579 346.792 90.3683 353.369 85.0352 360.014C90.5315 363.098 96.2781 366.677 102.07 370.652C107.436 363.297 113.041 355.924 118.403 348.893Z" fill="#081F25"/>
<path fill-rule="evenodd" clip-rule="evenodd" d="M98.0702 339.649C92.9067 337.149 87.8085 334.799 82.8452 332.72C78.4499 338.264 73.8 343.789 69.2109 349.315C73.7173 352.105 78.4891 355.108 83.3283 358.329C88.3068 352.001 93.3332 345.669 98.068 339.649H98.0702Z" fill="#081F25"/>
<path fill-rule="evenodd" clip-rule="evenodd" d="M65.2691 324.442C61.1675 322.953 57.5859 321.285 54.0283 319.643C50.2009 323.953 46.2211 328.48 42.5547 332.746C45.7859 334.83 48.9279 337.074 52.7837 339.049C56.8265 334.187 61.0043 329.275 65.2691 324.44V324.442Z" fill="#081F25"/>
<path fill-rule="evenodd" clip-rule="evenodd" d="M52.1344 318.872C48.679 317.236 45.5588 315.607 42.4885 314.401C38.9244 318.268 35.6257 322.034 31.9375 326.215C34.7488 328.043 37.6428 329.809 40.6347 331.832C44.5535 327.442 48.2351 323.12 52.1344 318.872Z" fill="#081F25"/>
<path fill-rule="evenodd" clip-rule="evenodd" d="M40.9618 313.8C38.1614 312.482 35.6199 311.114 32.9827 309.972C29.6339 313.555 26.307 317.072 23.3281 320.621C25.5019 322.222 28.0586 323.756 30.5783 325.403C34.1555 321.445 37.5782 317.611 40.9596 313.8H40.9618Z" fill="#081F25"/>
<path fill-rule="evenodd" clip-rule="evenodd" d="M31.0587 309.471C28.5042 308.324 26.2129 307.245 23.9935 306.007C21.3389 308.874 18.1882 312.243 15.4922 315.327C17.4157 316.719 19.6003 318.104 21.8089 319.673C24.7942 316.208 28.0015 312.795 31.0587 309.471Z" fill="#081F25"/>
<path fill-rule="evenodd" clip-rule="evenodd" d="M22.7668 305.382C20.6343 304.434 18.5085 303.497 16.6372 302.543C14.0348 305.304 11.5325 308.035 8.94531 310.734C10.5838 311.972 12.4747 313.114 14.2589 314.642C17.0767 311.461 19.8119 308.423 22.7668 305.384V305.382Z" fill="#081F25"/>
<path fill-rule="evenodd" clip-rule="evenodd" d="M16.0921 302.015C14.2317 301.129 12.6215 300.141 10.8438 299.34C8.59171 301.647 6.2069 304.185 3.80469 306.678C5.28866 307.79 6.72259 309.045 8.34365 310.324C10.8677 307.548 13.4897 304.832 16.0921 302.015Z" fill="#081F25"/>
<path fill-rule="evenodd" clip-rule="evenodd" d="M10.0753 298.561C8.66098 297.515 7.25751 296.533 5.8584 295.795C3.55192 298.214 1.46522 300.413 -0.636719 302.655C0.46212 303.836 1.68716 304.933 2.97966 306.102C5.38187 303.523 7.7645 301.064 10.0753 298.558V298.561Z" fill="#081F25"/>
<path fill-rule="evenodd" clip-rule="evenodd" d="M5.04479 295.267C3.77188 294.574 2.56424 293.847 1.53503 292.938C-0.418942 295.005 -2.2032 296.875 -4.30078 299.112C-3.3956 300.119 -2.48389 301.101 -1.45033 302.116C0.649434 299.935 2.73396 297.788 5.04479 295.267Z" fill="#081F25"/>
<path fill-rule="evenodd" clip-rule="evenodd" d="M199.909 287.667C191.592 286.525 183.668 285.549 175.976 284.346C171.178 290.1 166.345 295.648 161.258 301.424C168.588 302.969 176.391 304.428 184.703 306.479C189.808 300.043 194.926 293.848 199.911 287.667H199.909Z" fill="#081F25"/>
<path fill-rule="evenodd" clip-rule="evenodd" d="M45.5811 258.042C43.3182 258.06 41.1727 258.064 39.1448 258.098C36.7687 260.479 34.3186 262.801 32.0273 265.112C34.0074 265.077 35.7242 265.408 37.8914 265.486C40.3937 262.987 42.9374 260.494 45.5833 258.04L45.5811 258.042Z" fill="#081F25"/>
<path fill-rule="evenodd" clip-rule="evenodd" d="M45.2226 250.647C43.1707 250.896 41.2254 251.085 39.3411 251.238C37.0346 253.402 34.8304 255.482 32.6719 257.525C34.4061 257.535 36.1969 257.514 38.0442 257.44C40.3594 255.237 42.8204 252.913 45.2226 250.647Z" fill="#081F25"/>
<path fill-rule="evenodd" clip-rule="evenodd" d="M439.331 442.727C433.267 440.171 427.342 437.654 421.563 435.168C420.592 437.65 419.639 440.171 418.699 442.727H439.333H439.331Z" fill="#081F25"/>
<path fill-rule="evenodd" clip-rule="evenodd" d="M195.446 233.364C188.274 233.739 181.463 234.068 174.977 234.375C170.978 238.339 167.02 242.36 162.938 246.199C169.426 246.238 175.919 246.147 182.904 246.052C186.955 241.758 191.244 237.56 195.444 233.364H195.446Z" fill="#081F25"/>
<path fill-rule="evenodd" clip-rule="evenodd" d="M334.706 398.653C316.454 391.196 299.717 384.602 283.789 378.506C277.584 389.966 270.941 402.282 264.883 415.476C280.519 423.643 296.897 431.935 315.207 440.807C321.398 426.471 328.085 412.266 334.704 398.653H334.706Z" fill="#081F25"/>
<path fill-rule="evenodd" clip-rule="evenodd" d="M231.371 358.021C219.823 353.732 208.83 349.917 198.638 346.162C192.702 354.647 186.653 363.643 180.77 372.738C190.511 377.72 201.241 382.779 212.205 387.897C218.594 377.878 224.969 367.564 231.368 358.023L231.371 358.021Z" fill="#081F25"/>
<path fill-rule="evenodd" clip-rule="evenodd" d="M161.293 333.961C153.314 331.263 146.034 328.798 139.101 326.26C134.075 332.444 128.815 339.164 123.77 346.071C130.371 349.257 137.597 352.637 144.893 356.129C150.168 348.456 155.849 340.936 161.295 333.961H161.293Z" fill="#081F25"/>
<path fill-rule="evenodd" clip-rule="evenodd" d="M135.141 325.033C128.532 322.817 122.342 320.859 116.408 319.069C111.438 324.932 106.614 330.883 101.645 336.801C107.289 339.21 113.04 341.629 119.261 344.639C124.651 337.727 129.814 331.071 135.141 325.033Z" fill="#081F25"/>
<path fill-rule="evenodd" clip-rule="evenodd" d="M113.85 318.418C108.349 316.645 103.012 314.901 97.7742 313.129C93.4115 318.297 89.0466 323.375 84.5859 328.645C89.4099 330.802 94.5038 333.224 99.6868 335.557C104.539 329.712 109.33 323.936 113.848 318.416L113.85 318.418Z" fill="#081F25"/>
<path fill-rule="evenodd" clip-rule="evenodd" d="M94.3182 312.08C89.6247 310.667 85.027 309.308 80.8275 307.955C76.4408 312.839 72.2761 317.384 68.168 322.268C72.1064 323.819 76.3451 325.579 80.9863 327.795C85.3643 322.235 89.9772 317.027 94.3182 312.08Z" fill="#081F25"/>
<path fill-rule="evenodd" clip-rule="evenodd" d="M78.7689 307.517C74.5019 306.342 70.6788 304.996 66.8361 303.893C63.0718 307.954 59.2335 312.321 55.6562 316.552C59.1268 318.069 62.6953 319.755 66.8383 321.159C70.6853 316.768 74.7695 312.014 78.7667 307.517H78.7689Z" fill="#081F25"/>
<path fill-rule="evenodd" clip-rule="evenodd" d="M64.7893 303.235C61.112 302.246 57.6501 301.389 54.3819 300.435C50.9331 304.193 47.3841 307.892 44.1094 311.573C47.1013 312.709 50.3804 314.048 53.6355 315.656C57.2759 311.395 61.0228 307.342 64.7893 303.235Z" fill="#081F25"/>
<path fill-rule="evenodd" clip-rule="evenodd" d="M52.876 299.963C49.7601 299.106 46.7791 298.198 43.9265 297.202C40.7388 300.632 37.5206 304.051 34.5156 307.386C37.0266 308.589 39.7988 309.784 42.6449 310.902C46.0502 307.302 49.4163 303.599 52.8782 299.963H52.876Z" fill="#081F25"/>
<path fill-rule="evenodd" clip-rule="evenodd" d="M41.972 296.858C39.2129 296.023 36.7628 295.081 34.3954 294.337C31.4645 297.273 28.5792 300.284 25.7266 303.203C27.8263 304.503 30.2329 305.678 32.8375 306.73C35.9077 303.367 38.893 300.126 41.9741 296.858H41.972Z" fill="#081F25"/>
<path fill-rule="evenodd" clip-rule="evenodd" d="M32.6539 294.194C30.3605 293.404 28.0801 292.74 25.8694 292.132C23.452 294.659 20.7843 297.421 18.332 300.106C20.3186 300.924 22.2574 301.855 24.3854 302.764C27.0618 299.957 29.8383 297.135 32.6539 294.192V294.194Z" fill="#081F25"/>
<path fill-rule="evenodd" clip-rule="evenodd" d="M25.2672 291.67C23.3589 290.891 21.4658 290.171 19.5206 289.53C17.2097 291.921 14.714 294.596 12.4336 297.011C14.1526 297.875 15.8193 298.794 17.6145 299.682C20.1255 297.024 22.7387 294.41 25.2693 291.673L25.2672 291.67Z" fill="#081F25"/>
<path fill-rule="evenodd" clip-rule="evenodd" d="M18.6324 288.992C16.8764 288.338 15.301 287.76 13.6734 287.265C11.417 289.496 9.20628 291.677 7.03906 294.001C8.49258 294.7 9.89604 295.546 11.3648 296.472C13.7648 294.014 16.1475 291.469 18.6302 288.992H18.6324Z" fill="#081F25"/>
<path fill-rule="evenodd" clip-rule="evenodd" d="M146.463 281.318C140.231 280.682 134.232 280.199 128.479 279.569C124.225 284.146 119.886 288.833 115.559 293.456C121.109 294.386 126.651 295.501 132.875 296.76C137.414 291.512 141.905 286.293 146.463 281.318Z" fill="#081F25"/>
<path fill-rule="evenodd" clip-rule="evenodd" d="M125.868 279.155C120.444 278.473 115.143 278.012 110.382 277.378C106.213 281.654 102.09 286.027 98.2188 290.31C102.932 291.223 107.795 292.145 113.048 292.985C117.217 288.499 121.612 283.716 125.868 279.155Z" fill="#081F25"/>
<path fill-rule="evenodd" clip-rule="evenodd" d="M108.02 277.116C103.072 276.64 98.6349 276.218 94.3309 275.805C90.6036 279.587 86.6935 283.643 82.9727 287.527C87.1113 288.306 91.3913 289.094 95.8976 290.048C99.8186 285.629 103.955 281.267 108.02 277.116Z" fill="#081F25"/>
<path fill-rule="evenodd" clip-rule="evenodd" d="M92.3005 275.57C88.088 275.168 84.0886 274.923 80.2699 274.57C76.7732 278.098 73.0545 281.999 69.6797 285.47C73.3156 286.083 77.1279 286.537 81.0336 287.152C84.6 283.432 88.5754 279.377 92.3027 275.57H92.3005Z" fill="#081F25"/>
<path fill-rule="evenodd" clip-rule="evenodd" d="M78.4002 274.435C74.7142 274.026 71.2697 273.526 67.8122 273.39C64.5636 276.621 61.2366 279.983 57.9531 283.459C61.0516 283.993 64.3503 284.606 67.908 285.266C71.3307 281.613 74.9601 277.956 78.4002 274.435Z" fill="#081F25"/>
<path fill-rule="evenodd" clip-rule="evenodd" d="M66.2092 273.333C62.9889 273.026 60.0187 272.742 57.0051 272.543C53.8348 275.605 50.6492 278.756 47.8945 281.682C50.5361 282.21 53.3648 282.755 56.4894 283.147C59.6684 279.756 62.8322 276.553 66.2071 273.333H66.2092Z" fill="#081F25"/>
<path fill-rule="evenodd" clip-rule="evenodd" d="M55.6498 272.442C52.7623 272.147 49.9489 271.959 47.4291 271.687C44.5156 274.521 41.6477 277.445 38.8125 280.269C41.1864 280.825 43.9085 281.109 46.4652 281.485C49.4549 278.527 52.4163 275.504 55.6498 272.444V272.442Z" fill="#081F25"/>
<path fill-rule="evenodd" clip-rule="evenodd" d="M45.9789 271.732C43.4178 271.505 41.033 271.277 38.7722 271.067C36.296 273.63 33.6871 276.207 31.0586 278.717C33.2193 279.081 35.5105 279.633 37.693 280.119C40.415 277.291 43.1241 274.606 45.9789 271.732Z" fill="#081F25"/>
<path fill-rule="evenodd" clip-rule="evenodd" d="M37.3857 270.918C35.1967 270.764 33.2406 270.509 31.2366 270.411C28.8496 272.677 26.4517 275.033 24.043 277.425C25.8925 277.767 27.6332 278.18 29.6046 278.504C32.1766 275.988 34.8464 273.415 37.3857 270.915V270.918Z" fill="#081F25"/>
<path fill-rule="evenodd" clip-rule="evenodd" d="M30.0891 270.208C28.2047 269.981 26.551 269.778 24.7929 269.624C22.5103 271.851 20.2147 274.008 17.9648 276.326C19.5097 276.7 21.1721 276.973 22.8977 277.41C25.252 275.002 27.7064 272.576 30.0912 270.208H30.0891Z" fill="#081F25"/>
<path fill-rule="evenodd" clip-rule="evenodd" d="M24.0499 269.583C22.4615 269.321 21.1037 268.986 19.6937 268.72C17.631 270.782 15.5029 272.872 13.5859 274.809C14.8306 275.179 16.2493 275.536 17.5592 275.973C19.6959 273.838 21.9349 271.669 24.0499 269.583Z" fill="#081F25"/>
<path fill-rule="evenodd" clip-rule="evenodd" d="M18.795 268.538C17.5591 268.293 16.2144 268.22 15.0959 267.919C13.142 269.845 11.1749 271.754 9.37109 273.593C10.3785 273.933 11.3903 274.303 12.574 274.621C14.5454 272.691 16.6778 270.691 18.7972 268.538H18.795Z" fill="#081F25"/>
<path fill-rule="evenodd" clip-rule="evenodd" d="M4.74541 269.698C4.36462 269.373 4.04476 268.869 3.77277 268.51C2.47375 269.884 1.17472 271.094 0.0911167 272.31C0.0715335 272.907 0.280422 273.435 0.543708 273.946C1.96676 272.537 3.27449 271.191 4.74323 269.698H4.74541Z" fill="#081F25"/>
<path fill-rule="evenodd" clip-rule="evenodd" d="M30.0781 258.479C33.1853 257.821 36.2382 257.161 39.7436 256.469C40.5682 256.049 41.345 255.856 42.3373 255.486C38.6164 256.395 35.2307 257.116 31.9581 257.888C31.1922 258.406 30.6809 258.168 30.0781 258.479Z" fill="#081F25"/>
<path fill-rule="evenodd" clip-rule="evenodd" d="M51.2344 255.011C55.6341 254.63 60.086 254.641 64.9318 254.42C65.8413 254.336 66.8684 254.26 67.9302 253.938C62.869 254.42 58.2321 254.312 53.7584 254.58C52.7053 254.972 51.9024 254.831 51.2344 255.013V255.011Z" fill="#081F25"/>
<path fill-rule="evenodd" clip-rule="evenodd" d="M139.427 264.153C133.815 263.796 128.247 263.597 123.218 263.272C119.188 267.304 115.207 271.405 111.32 275.579C116.292 276.079 121.591 276.562 126.867 277.174C131.028 272.682 135.332 268.224 139.424 264.151L139.427 264.153Z" fill="#081F25"/>
<path fill-rule="evenodd" clip-rule="evenodd" d="M120.77 263.132C115.748 263.052 110.98 262.95 106.504 262.758C102.873 266.484 98.8778 270.386 95.3594 274.106C99.5937 274.521 104.194 274.844 108.944 275.231C112.791 271.169 116.844 267.064 120.77 263.134V263.132Z" fill="#081F25"/>
<path fill-rule="evenodd" clip-rule="evenodd" d="M104.35 262.74C99.9154 262.632 95.7485 262.638 91.6382 262.541C88.148 265.863 84.6665 269.397 81.2852 273.036C85.1452 273.246 89.138 273.525 93.3006 274.012C96.7646 270.31 100.705 266.391 104.352 262.738L104.35 262.74Z" fill="#081F25"/>
<path fill-rule="evenodd" clip-rule="evenodd" d="M89.7217 262.422C85.8072 262.342 82.1582 262.412 78.6158 262.297C75.2671 265.506 72.0097 268.704 68.8438 271.879C72.1794 272.026 75.6696 272.446 79.4078 272.851C82.8153 269.375 86.2946 265.785 89.7217 262.422Z" fill="#081F25"/>
<path fill-rule="evenodd" clip-rule="evenodd" d="M76.9102 262.216C73.4004 262.283 70.3454 262.119 67.1446 262.149C63.9896 265.194 60.9215 268.124 57.9492 271.106C60.9019 271.372 63.983 271.623 67.2469 271.827C70.4107 268.596 73.6289 265.54 76.9102 262.216Z" fill="#081F25"/>
<path fill-rule="evenodd" clip-rule="evenodd" d="M65.6789 262.041C62.5456 262.006 59.706 261.995 56.8708 261.894C53.9638 264.698 51.1525 267.47 48.3281 270.299C50.8609 270.788 53.6091 270.911 56.4856 271.11C59.5711 268.048 62.4672 265.09 65.6811 262.041H65.6789Z" fill="#081F25"/>
<path fill-rule="evenodd" clip-rule="evenodd" d="M55.546 261.927C52.9001 261.927 50.2107 262.046 47.9173 261.983C45.2626 264.465 42.5427 267.123 39.8555 269.667C42.1641 269.804 44.5402 269.996 47.0491 270.293C49.7624 267.482 52.6934 264.727 55.546 261.927Z" fill="#081F25"/>
<path fill-rule="evenodd" clip-rule="evenodd" d="M153.485 249.2C147.582 249.263 141.885 249.347 136.563 249.479C132.679 253.37 128.806 257.112 124.98 260.97C130.216 261.145 135.723 261.407 141.252 261.645C145.397 257.46 149.555 253.217 153.485 249.202V249.2Z" fill="#081F25"/>
<path fill-rule="evenodd" clip-rule="evenodd" d="M134.08 249.654C128.884 249.672 123.856 249.899 119.178 250.052C115.5 253.625 111.797 257.198 108.23 260.747C112.78 260.702 117.657 260.775 122.57 261.002C126.325 257.055 130.164 253.357 134.08 249.654Z" fill="#081F25"/>
<path fill-rule="evenodd" clip-rule="evenodd" d="M116.81 250.092C112.204 250.183 107.743 250.364 103.531 250.553C100.173 253.779 96.7548 257.107 93.332 260.607C97.3684 260.635 101.601 260.715 105.965 260.782C109.523 257.181 113.226 253.541 116.808 250.092H116.81Z" fill="#081F25"/>
<path fill-rule="evenodd" clip-rule="evenodd" d="M101.596 250.574C97.4054 250.812 93.7869 250.886 89.9638 251.102C86.5694 254.255 83.4883 257.283 80.2266 260.433C83.8691 260.451 87.5746 260.412 91.5435 260.49C94.7508 257.14 98.1757 253.812 101.596 250.574Z" fill="#081F25"/>
<path fill-rule="evenodd" clip-rule="evenodd" d="M88.0045 251.267C84.523 251.334 81.1134 251.431 77.7211 251.63C74.5791 254.658 71.572 257.531 68.6562 260.36C71.696 260.513 74.9664 260.535 78.5262 260.457C81.6748 257.293 84.8255 254.329 88.0045 251.267Z" fill="#081F25"/>
<path fill-rule="evenodd" clip-rule="evenodd" d="M76.0541 251.682C72.7358 251.909 69.8179 252.034 67.0175 252.147C64.0517 254.878 61.0185 257.633 58.3008 260.303C61.0729 260.348 63.9712 260.439 67.1502 260.359C70.0681 257.542 73.023 254.674 76.0541 251.682Z" fill="#081F25"/>
<path fill-rule="evenodd" clip-rule="evenodd" d="M65.2706 252.477C62.32 252.721 59.7089 252.857 57.0478 253.015C54.3344 255.582 51.497 258.228 48.875 260.877C51.3795 260.685 54.0145 260.65 56.7649 260.537C59.4913 257.975 62.2025 255.415 65.2706 252.479V252.477Z" fill="#081F25"/>
<path fill-rule="evenodd" clip-rule="evenodd" d="M146.591 237.175C141.188 237.482 136.075 237.692 131.131 238.095C127.467 241.587 123.929 244.967 120.352 248.607C125.23 248.278 130.108 248.244 135.396 248.09C138.988 244.444 142.74 240.804 146.589 237.175H146.591Z" fill="#081F25"/>
<path fill-rule="evenodd" clip-rule="evenodd" d="M128.657 238.442C123.817 238.663 119.37 239.079 114.883 239.55C111.473 242.686 108.17 245.882 104.789 249.137C109.147 248.773 113.39 248.762 118.104 248.615C121.655 245.144 125.223 241.613 128.657 238.442Z" fill="#081F25"/>
<path fill-rule="evenodd" clip-rule="evenodd" d="M112.811 239.726C108.551 240.055 104.602 240.474 100.602 240.907C97.3646 243.837 94.2378 246.888 90.9805 249.948C94.8362 249.557 98.6223 249.477 102.857 249.165C106.031 246.099 109.406 242.935 112.811 239.726Z" fill="#081F25"/>
<path fill-rule="evenodd" clip-rule="evenodd" d="M98.6539 241.048C94.8852 241.383 91.3362 241.587 87.8134 241.922C84.7715 244.761 81.8188 247.568 78.8008 250.446C82.1909 250.271 85.5352 250.121 89.2887 249.953C92.496 246.932 95.4683 243.995 98.6539 241.048Z" fill="#081F25"/>
<path fill-rule="evenodd" clip-rule="evenodd" d="M86.0642 242.135C82.883 242.345 79.7149 242.645 76.4553 243.106C73.594 245.718 70.7283 248.441 67.9453 251.046C70.9089 250.903 73.9813 250.609 77.1407 250.529C80.2197 247.649 83.1811 244.918 86.0642 242.135Z" fill="#081F25"/>
<path fill-rule="evenodd" clip-rule="evenodd" d="M66.7181 245.139C63.9199 245.485 61.2391 245.803 58.7782 246.019C56.2498 248.341 53.5516 250.802 50.9492 253.245C53.4232 253.024 55.9712 252.966 58.5127 252.808C61.0955 250.274 63.8872 247.714 66.7181 245.141V245.139Z" fill="#081F25"/>
<path fill-rule="evenodd" clip-rule="evenodd" d="M57.2671 246.148C54.8693 246.358 52.5824 246.512 50.363 246.791C48.0391 249.029 45.6956 251.119 43.4609 253.305C45.4236 253.277 47.6648 253.117 49.8037 253.049C52.1929 250.823 54.7844 248.397 57.2671 246.148Z" fill="#081F25"/>
<path fill-rule="evenodd" clip-rule="evenodd" d="M140.744 227.27C135.883 227.843 131.196 228.395 126.472 228.957C123.126 232.069 119.86 235.086 116.422 238.25C121.057 237.648 125.406 237.386 130.365 236.852C133.753 233.575 137.274 230.49 140.744 227.27Z" fill="#081F25"/>
<path fill-rule="evenodd" clip-rule="evenodd" d="M124.304 229.185C119.976 229.657 115.628 230.269 111.496 230.786C108.43 233.677 105.236 236.596 102.035 239.589C106.082 239.141 109.99 238.828 114.357 238.464C117.789 235.25 121.066 232.262 124.304 229.183V229.185Z" fill="#081F25"/>
<path fill-rule="evenodd" clip-rule="evenodd" d="M109.519 231.019C105.676 231.456 101.907 231.973 98.043 232.553C95.099 235.314 92.2855 237.842 89.2109 240.67C92.7294 240.335 96.3218 240.051 100.101 239.8C103.241 236.79 106.488 233.801 109.519 231.019Z" fill="#081F25"/>
<path fill-rule="evenodd" clip-rule="evenodd" d="M96.3606 232.814C92.9488 233.336 89.5391 233.786 86.3014 234.223C83.4879 236.803 80.5461 239.391 77.75 241.931C80.9617 241.602 84.1233 241.256 87.4568 240.88C90.54 238.09 93.458 235.45 96.3606 232.814Z" fill="#081F25"/>
<path fill-rule="evenodd" clip-rule="evenodd" d="M75.8633 236.443C72.9279 236.915 70.2102 237.24 67.6579 237.569C65.0207 239.981 62.3595 242.358 59.8594 244.788C62.3704 244.526 64.9401 244.266 67.7906 243.903C70.443 241.438 73.0846 239.019 75.8633 236.446V236.443Z" fill="#081F25"/>
<path fill-rule="evenodd" clip-rule="evenodd" d="M65.7665 238.293C63.1685 238.639 60.8533 239.003 58.4924 239.44C56.038 241.626 53.6292 243.79 51.0508 246.118C53.2659 245.828 55.6616 245.646 58.0572 245.447C60.5661 243.05 63.1163 240.676 65.7687 238.291L65.7665 238.293Z" fill="#081F25"/>
<path fill-rule="evenodd" clip-rule="evenodd" d="M151.175 215.773C146.05 216.576 141.211 217.292 136.559 218.095C133.217 220.873 130.046 223.73 126.617 226.859C131.306 226.143 136.041 225.632 140.878 225.006C144.327 221.821 147.732 218.798 151.172 215.771L151.175 215.773Z" fill="#081F25"/>
<path fill-rule="evenodd" clip-rule="evenodd" d="M134.349 218.326C129.769 219.114 125.395 219.728 121.104 220.471C118.132 223.225 115.018 225.883 111.863 228.77C116.026 228.168 120.323 227.64 124.669 226.98C127.852 224.089 131.033 221.271 134.349 218.326Z" fill="#081F25"/>
<path fill-rule="evenodd" clip-rule="evenodd" d="M146.215 208.088C141.556 208.908 137.091 209.808 132.726 210.622C129.586 213.398 126.516 216.062 123.441 218.735C127.56 218.029 132.032 217.348 136.723 216.551C139.822 213.797 143.055 210.949 146.217 208.088H146.215Z" fill="#081F25"/>
<path fill-rule="evenodd" clip-rule="evenodd" d="M196.888 211.003C190.186 211.927 183.946 212.786 178.01 213.403C174.061 216.802 170.444 220.291 166.945 223.563C172.707 223.08 178.843 222.388 185.349 221.689C189.05 218.159 192.9 214.582 196.886 211.005L196.888 211.003Z" fill="#081F25"/>
<path fill-rule="evenodd" clip-rule="evenodd" d="M16.0321 276.966C14.609 276.574 13.3057 276.159 12.061 275.823C10.1288 277.732 8.13133 279.679 6.23828 281.822C7.20004 282.322 8.33369 282.923 9.53045 283.469C11.5976 281.385 13.8214 279.106 16.0321 276.966Z" fill="#081F25"/>
<path fill-rule="evenodd" clip-rule="evenodd" d="M21.364 278.313C19.695 277.921 18.148 277.495 16.6618 277.109C14.3923 279.403 12.2251 281.608 10.1602 283.703C11.3613 284.361 12.6842 284.976 14.129 285.605C16.479 283.169 18.9291 280.676 21.364 278.313Z" fill="#081F25"/>
<path fill-rule="evenodd" clip-rule="evenodd" d="M27.5596 279.717C25.6448 279.377 23.904 278.905 22.2264 278.427C19.6806 281 17.2305 283.436 14.9414 285.817C16.5081 286.323 18.0834 286.918 19.9525 287.39C22.4657 284.824 25.079 282.244 27.5617 279.717H27.5596Z" fill="#081F25"/>
<path fill-rule="evenodd" clip-rule="evenodd" d="M35.4704 281.294C33.2314 280.812 31.0576 280.301 28.8991 279.959C26.3598 282.476 23.6987 285.298 21.1289 287.961C23.072 288.489 24.9672 289.262 26.9277 290.028C29.7173 287.029 32.6635 284.179 35.4704 281.292V281.294Z" fill="#081F25"/>
<path fill-rule="evenodd" clip-rule="evenodd" d="M44.0613 282.714C41.4437 282.322 38.8391 281.931 36.6458 281.431C33.7823 284.27 30.8383 287.157 27.9922 290.132C30.2051 290.853 32.5399 291.478 34.9508 292.16C37.836 289.07 40.8736 285.947 44.0613 282.714Z" fill="#081F25"/>
<path fill-rule="evenodd" clip-rule="evenodd" d="M53.8608 284.583C50.8472 284.118 48.0794 283.594 45.4378 283.038C42.1391 286.384 39.0493 289.597 36.1641 292.642C38.588 293.334 41.2122 294.198 43.906 295.009C47.2895 291.437 50.4185 288.154 53.8608 284.581V284.583Z" fill="#081F25"/>
<path fill-rule="evenodd" clip-rule="evenodd" d="M64.9255 286.905C61.4984 286.321 58.3151 285.661 55.21 285.031C51.8896 288.559 48.5865 291.954 45.2617 295.464C48.1078 296.39 51.1476 297.292 54.2613 298.201C57.782 294.367 61.4484 290.523 64.9255 286.905Z" fill="#081F25"/>
<path fill-rule="evenodd" clip-rule="evenodd" d="M78.9244 288.933C74.9903 288.15 71.2238 287.563 67.7206 287.053C64.126 290.632 60.4791 294.549 56.9062 298.373C60.2202 299.162 63.7974 300.013 67.3659 301.19C71.2956 296.879 75.036 292.876 78.9266 288.933H78.9244Z" fill="#081F25"/>
<path fill-rule="evenodd" clip-rule="evenodd" d="M93.3158 291.478C88.8834 290.615 84.5186 289.639 80.6889 288.884C76.7636 293.002 72.7903 297.062 69.0391 301.271C72.8186 302.424 76.818 303.683 81.1829 304.713C85.1822 300.271 89.2142 295.96 93.3158 291.481V291.478Z" fill="#081F25"/>
<path fill-rule="evenodd" clip-rule="evenodd" d="M110.427 294.53C105.294 293.638 100.202 292.866 95.8044 291.6C91.6636 296.161 87.4314 300.762 83.5039 305.241C87.8688 306.503 92.4535 307.786 97.3079 309.007C101.747 304.032 105.996 299.323 110.429 294.53H110.427Z" fill="#081F25"/>
<path fill-rule="evenodd" clip-rule="evenodd" d="M129.812 298.624C123.78 297.38 118.234 296.267 113.02 295.086C108.544 299.998 104.023 304.906 99.6055 310.024C105.045 311.528 110.063 313.404 115.82 314.874C120.577 309.409 125.279 303.969 129.812 298.624Z" fill="#081F25"/>
<path fill-rule="evenodd" clip-rule="evenodd" d="M152.219 303.746C145.165 302.365 138.913 301.06 132.609 299.69C127.905 305.085 123.212 310.578 118.512 315.946C124.398 317.89 130.632 319.792 137.172 321.739C142.347 315.44 147.264 309.517 152.219 303.746Z" fill="#081F25"/>
<path fill-rule="evenodd" clip-rule="evenodd" d="M385.424 272.56C380.983 269.015 376.635 265.438 372.662 262.173C366.243 265.802 359.852 269.182 353.398 273.014C357 276.769 360.566 280.705 364.876 284.733C371.835 280.625 378.789 276.542 385.421 272.56H385.424Z" fill="#081F25"/>
<path fill-rule="evenodd" clip-rule="evenodd" d="M167.581 265.285C165.814 263.508 164.089 261.855 162.294 260.439C159.794 262.188 157.189 264.051 154.617 265.823C156.214 267.505 157.722 269.312 159.343 271.344C162.111 269.277 164.872 267.226 167.583 265.285H167.581Z" fill="#081F25"/>
<path fill-rule="evenodd" clip-rule="evenodd" d="M97.6604 199.649C96.9728 198.601 96.3418 197.511 95.7608 196.418C93.5109 198.277 91.1087 200.289 88.75 202.25C89.1177 203.507 89.6378 204.656 90.2253 205.888C92.6928 203.817 95.2016 201.711 97.6582 199.649H97.6604Z" fill="#081F25"/>
<path fill-rule="evenodd" clip-rule="evenodd" d="M462.912 381.347C457.362 377.008 452.126 372.851 447.041 369.191C440.42 371.226 433.923 373.634 427.105 375.932C432.049 379.931 436.915 384.253 441.915 388.91C449.026 386.239 456.3 383.833 462.915 381.344L462.912 381.347Z" fill="#081F25"/>
<path fill-rule="evenodd" clip-rule="evenodd" d="M113.502 213.723C112.956 213.123 112.525 212.539 112.096 211.977C110.634 213.037 109.163 214.078 107.742 215.117C108.071 215.759 108.41 216.514 108.791 217.146C110.364 216.01 111.879 214.883 113.502 213.721V213.723Z" fill="#081F25"/>
<path fill-rule="evenodd" clip-rule="evenodd" d="M163.89 186.299C162.571 185.738 161.323 185.243 160.087 184.786C158.222 186.052 156.359 187.361 154.453 188.742C155.493 189.367 156.636 189.923 157.935 190.642C159.876 189.129 161.884 187.716 163.89 186.301V186.299Z" fill="#081F25"/>
<path fill-rule="evenodd" clip-rule="evenodd" d="M444.333 237.653C439.107 235.506 434.248 233.632 429.631 231.866C423.66 234.337 418.007 236.705 412.598 239.215C416.769 241.295 421.162 243.424 426.077 246.043C432.388 243.106 438.519 240.193 444.333 237.653Z" fill="#081F25"/>
<path fill-rule="evenodd" clip-rule="evenodd" d="M142.514 182.953C141.718 182.579 141.122 182.088 140.491 181.718C138.972 182.709 137.525 183.828 136.062 184.908C136.598 185.381 137.092 185.942 137.738 186.375C139.194 185.265 140.852 184.09 142.514 182.953Z" fill="#081F25"/>
<path fill-rule="evenodd" clip-rule="evenodd" d="M109.288 174.778C108.866 174.471 108.405 174.235 107.989 173.951C106.894 174.797 105.696 175.672 104.645 176.479C105.008 176.808 105.323 177.141 105.648 177.522C106.847 176.619 108.091 175.7 109.288 174.778Z" fill="#081F25"/>
<path fill-rule="evenodd" clip-rule="evenodd" d="M29.0655 258.105C28.8871 257.65 28.6521 257.196 28.5303 256.759C27.6555 257.356 26.8396 258.038 25.9648 258.661C26.0323 259.189 26.1541 259.689 26.276 260.189C27.2617 259.49 28.1386 258.797 29.0655 258.105Z" fill="#081F25"/>
<path fill-rule="evenodd" clip-rule="evenodd" d="M466.927 308.098C463.206 306.321 460.195 304.644 457.018 303.038C452.353 304.356 447.886 305.548 443.434 306.838C446.164 308.485 449.256 310.404 452.529 312.222C457.405 310.898 462.181 309.456 466.927 308.098Z" fill="#081F25"/>
<path fill-rule="evenodd" clip-rule="evenodd" d="M193.11 177.703C191.805 177.318 190.471 177.054 189.342 176.66C187.525 177.844 185.606 179.073 183.887 180.213C184.981 180.694 186.006 181.103 187.216 181.553C189.024 180.313 191.139 178.945 193.11 177.703Z" fill="#081F25"/>
<path fill-rule="evenodd" clip-rule="evenodd" d="M145.002 148.442C144.173 148.288 143.344 148.156 142.53 148.115C141.164 148.981 139.862 149.97 138.555 150.918C139.329 151.052 140.108 151.199 140.889 151.37C142.286 150.348 143.644 149.377 145.002 148.442Z" fill="#081F25"/>
<path fill-rule="evenodd" clip-rule="evenodd" d="M124.361 184.289C123.608 184.051 122.866 183.882 122.172 183.67C121.003 184.51 119.68 185.431 118.453 186.262C119.152 186.509 119.796 186.738 120.498 186.989C121.821 186.072 123.042 185.209 124.363 184.289H124.361Z" fill="#081F25"/>
<path fill-rule="evenodd" clip-rule="evenodd" d="M106.623 203.596C105.87 203.349 105.165 203.066 104.473 202.884C103.372 203.63 102.162 204.431 101 205.175C101.698 205.422 102.397 205.682 103.048 205.976C104.203 205.191 105.415 204.401 106.623 203.596Z" fill="#081F25"/>
<path fill-rule="evenodd" clip-rule="evenodd" d="M223.749 213.923C222.115 213.497 220.548 213.062 219.042 212.659C217.06 213.726 215.13 214.741 213.039 215.858C214.586 216.21 216.105 216.693 217.622 217.141C219.593 216.042 221.751 214.951 223.749 213.923Z" fill="#081F25"/>
<path fill-rule="evenodd" clip-rule="evenodd" d="M88.3908 220.494C87.6923 220.25 86.9873 219.927 86.3454 219.67C85.264 220.391 84.2892 221.051 83.2578 221.754C83.8453 222.027 84.4372 222.334 85.0856 222.663C86.1692 221.914 87.2572 221.26 88.3908 220.492V220.494Z" fill="#081F25"/>
<path fill-rule="evenodd" clip-rule="evenodd" d="M97.2555 191.85C96.6441 191.692 96.0457 191.631 95.4386 191.519C94.5487 192.124 93.6152 192.802 92.7188 193.371C93.2192 193.479 93.8285 193.635 94.3376 193.808C95.3255 193.126 96.2633 192.469 97.2555 191.852V191.85Z" fill="#081F25"/>
<path fill-rule="evenodd" clip-rule="evenodd" d="M546.001 347.969C541.035 346.476 535.785 344.704 530.478 343.165C525.563 344.217 520.253 344.965 515.262 345.885C520.034 347.344 525.201 349.053 529.975 350.748C535.552 349.811 540.711 348.947 546.001 347.971V347.969Z" fill="#081F25"/>
<path fill-rule="evenodd" clip-rule="evenodd" d="M164.402 157.364C163.307 157.408 162.322 157.418 161.336 157.427C160.181 158.161 158.975 158.927 157.73 159.747C158.712 159.701 159.61 159.784 160.601 159.775C161.845 158.957 163.092 158.13 164.4 157.364H164.402Z" fill="#081F25"/>
<path fill-rule="evenodd" clip-rule="evenodd" d="M5.72089 278.116C5.3858 277.867 5.05071 277.609 4.83094 277.371C4.20646 277.769 3.52322 278.224 2.95312 278.587C3.17289 278.853 3.44924 279.081 3.72558 279.366C4.40882 278.905 5.03766 278.52 5.72089 278.118V278.116Z" fill="#081F25"/>
<path fill-rule="evenodd" clip-rule="evenodd" d="M300.769 251.591C298.297 250.99 295.649 250.63 293.127 250.085C290.643 250.948 288.382 251.704 286.16 252.591C288.449 253.011 290.928 253.601 293.515 254.192C295.932 253.301 298.415 252.444 300.767 251.591H300.769Z" fill="#081F25"/>
<path fill-rule="evenodd" clip-rule="evenodd" d="M292.328 296.425C290.098 295.034 287.892 293.649 285.672 292.443C282.565 293.636 279.397 295.038 276.207 296.39C278.272 297.765 280.324 299.104 282.398 300.667C285.855 299.1 289.13 297.786 292.328 296.423V296.425Z" fill="#081F25"/>
<path fill-rule="evenodd" clip-rule="evenodd" d="M238.325 241.062C236.315 239.915 234.461 238.891 232.74 237.894C230.094 239.359 227.337 240.914 224.582 242.499C226.314 243.561 227.861 244.838 229.791 245.935C232.72 244.293 235.516 242.659 238.325 241.062Z" fill="#081F25"/>
</g>
</g>
<defs>
<clipPath id="clip0_1143_10167">
<rect width="1440" height="442" fill="white" transform="translate(0 0.726562)"/>
</clipPath>
<clipPath id="clip1_1143_10167">
<rect width="725" height="394" fill="white" transform="matrix(-1 0 0 1 1532 111.727)"/>
</clipPath>
<clipPath id="clip2_1143_10167">
<rect width="566" height="308" fill="white" transform="translate(-20 134.727)"/>
</clipPath>
</defs>
</svg>
