<svg width="34" height="35" viewBox="0 0 34 35" fill="none" xmlns="http://www.w3.org/2000/svg">
<rect x="0.6" y="1.1" width="32.3328" height="32.8" rx="3.4" stroke="#6A6A6A" stroke-width="1.2"/>
<path d="M9.21793 22.9832C9.52384 23.135 9.85143 23.2116 10.191 23.2116C11.0309 23.2116 11.7837 22.745 12.1566 21.9934C12.6043 21.0912 12.3688 20.0278 11.6524 19.3866L16.4959 12.8281C16.6597 12.8668 16.8278 12.8865 16.9993 12.8865C17.6015 12.8865 18.1564 12.6434 18.5614 12.2298L21.5481 14.509C21.4846 14.6 21.4261 14.6953 21.3754 14.7971C20.9154 15.7234 21.176 16.8204 21.938 17.4551L20.4507 22.1429C20.3407 22.1255 20.2296 22.1142 20.1165 22.1142C19.277 22.1142 18.5242 22.5808 18.1513 23.3325C17.6138 24.4163 18.0584 25.7341 19.1415 26.2715C19.447 26.4229 19.775 26.5 20.1146 26.5C20.9545 26.5 21.7069 26.0334 22.0802 25.2818C22.5398 24.3551 22.2796 23.2585 21.5175 22.6238L23.0049 17.936C23.1148 17.9534 23.226 17.9647 23.3394 17.9647C24.1786 17.9647 24.9317 17.4981 25.3046 16.7465C25.8421 15.6638 25.3976 14.3452 24.3145 13.8078C24.0082 13.656 23.6806 13.5789 23.341 13.5789C23.0362 13.5789 22.7439 13.642 22.4767 13.7563L19.1314 11.2033C19.3637 10.2321 18.9068 9.19159 17.9751 8.72885C17.6684 8.57706 17.3412 8.5 17.0016 8.5C16.1621 8.5 15.4093 8.967 15.0361 9.71861C14.6035 10.5907 14.808 11.6149 15.4698 12.2616L10.5926 18.8654C10.4617 18.8414 10.3289 18.8251 10.1937 18.8251C9.35423 18.8251 8.60145 19.2925 8.22855 20.0441C7.69069 21.1272 8.13484 22.4457 9.21793 22.9832ZM21.0385 24.766C20.8631 25.1195 20.5084 25.3391 20.113 25.3391C19.9543 25.3391 19.8001 25.3027 19.6557 25.2314C19.1469 24.979 18.9378 24.359 19.191 23.8494C19.3661 23.4963 19.72 23.2763 20.1157 23.2763C20.2749 23.2763 20.429 23.3131 20.5727 23.3843C21.0823 23.6364 21.2914 24.256 21.0385 24.766ZM23.7975 14.8482C24.3063 15.1011 24.5154 15.7211 24.263 16.2299C24.0879 16.5834 23.7332 16.803 23.3379 16.803C23.1787 16.803 23.0242 16.7666 22.8806 16.6953C22.3714 16.4429 22.1626 15.8229 22.4147 15.3137C22.5901 14.9602 22.9448 14.7406 23.3402 14.7406C23.5001 14.7402 23.6531 14.7766 23.7975 14.8482Z" fill="#6A6A6A"/>
</svg>
