<svg width="24" height="25" viewBox="0 0 24 25" fill="none" xmlns="http://www.w3.org/2000/svg">
<path d="M21.3113 4.86641C21.1803 4.80696 21.0351 4.7864 20.8928 4.80718C20.7505 4.82795 20.6172 4.88919 20.5087 4.9836C17.8837 7.25422 15.66 6.1536 13.0828 4.87766C10.4128 3.55485 7.38562 2.05766 4.00875 4.9836C3.92806 5.05353 3.86324 5.13989 3.81862 5.2369C3.774 5.33391 3.7506 5.43932 3.75 5.5461V21.2961C3.75 21.495 3.82902 21.6858 3.96967 21.8264C4.11032 21.9671 4.30109 22.0461 4.5 22.0461C4.69891 22.0461 4.88968 21.9671 5.03033 21.8264C5.17098 21.6858 5.25 21.495 5.25 21.2961V17.1495C7.76156 15.1658 9.92531 16.2355 12.4172 17.4692C15.0881 18.7902 18.1144 20.2873 21.4913 17.3633C21.5719 17.2933 21.6368 17.207 21.6814 17.11C21.726 17.013 21.7494 16.9076 21.75 16.8008V5.5461C21.7495 5.40272 21.7079 5.26249 21.6301 5.14202C21.5524 5.02156 21.4417 4.92591 21.3113 4.86641ZM20.25 7.0086V10.8195C18.9375 11.8564 17.7188 12.0589 16.5 11.8395V7.73422C17.7964 7.93674 19.1228 7.68008 20.25 7.0086ZM15 7.3611V11.3923C14.3756 11.142 13.7409 10.8298 13.0828 10.5036C12.2559 10.0939 11.3953 9.66828 10.5 9.36172V5.33047C11.1244 5.57985 11.7591 5.89297 12.4172 6.21922C13.2441 6.62891 14.1056 7.05454 15 7.3611ZM9 4.88141V8.98579C7.70353 8.78363 6.37716 9.04062 5.25 9.71235V5.90047C6.5625 4.8636 7.78125 4.66204 9 4.88141ZM8.11688 14.5461C7.10769 14.5479 6.11753 14.8208 5.25 15.3364V11.5255C6.5625 10.4886 7.78125 10.2861 9 10.5055V14.6117C8.70758 14.5687 8.41244 14.5467 8.11688 14.5461ZM10.5 14.9839V10.9527C11.1244 11.202 11.7591 11.5152 12.4172 11.8414C13.2441 12.2511 14.1047 12.6758 15 12.9823V17.0136C14.3756 16.7633 13.7409 16.4511 13.0828 16.1248C12.2559 15.7152 11.3944 15.2905 10.5 14.9839ZM16.5 17.4636V13.3573C16.7924 13.401 17.0875 13.4236 17.3831 13.4248C18.3926 13.4217 19.3827 13.1475 20.25 12.6308V16.4445C18.9375 17.4814 17.7188 17.683 16.5 17.4636Z" fill="black"/>
</svg>
