<svg width="24" height="25" viewBox="0 0 24 25" fill="none" xmlns="http://www.w3.org/2000/svg">
<path d="M21.3113 7.17509L17.1216 2.98634C16.9823 2.84701 16.8169 2.73649 16.6349 2.66109C16.4529 2.58568 16.2578 2.54688 16.0608 2.54688C15.8638 2.54688 15.6687 2.58568 15.4867 2.66109C15.3047 2.73649 15.1393 2.84701 15 2.98634L3.43969 14.5466C3.2998 14.6854 3.18889 14.8506 3.11341 15.0327C3.03792 15.2147 2.99938 15.4099 3.00001 15.607V19.7966C3.00001 20.1945 3.15804 20.576 3.43935 20.8573C3.72065 21.1386 4.10218 21.2966 4.50001 21.2966H20.25C20.4489 21.2966 20.6397 21.2176 20.7803 21.077C20.921 20.9363 21 20.7456 21 20.5466C21 20.3477 20.921 20.157 20.7803 20.0163C20.6397 19.8757 20.4489 19.7966 20.25 19.7966H10.8113L21.3113 9.29665C21.4506 9.15736 21.5611 8.99198 21.6365 8.80997C21.7119 8.62796 21.7507 8.43288 21.7507 8.23587C21.7507 8.03886 21.7119 7.84377 21.6365 7.66176C21.5611 7.47975 21.4506 7.31438 21.3113 7.17509ZM12.75 7.35696L14.3147 8.92165L6.37501 16.8613L4.81032 15.2966L12.75 7.35696ZM4.50001 19.7966V17.107L7.18969 19.7966H4.50001ZM9.00001 19.4863L7.43626 17.9216L15.375 9.98196L16.9397 11.5466L9.00001 19.4863ZM18 10.4863L13.8113 6.29665L16.0613 4.04665L20.25 8.23634L18 10.4863Z" fill="black"/>
</svg>
