<svg width="24" height="25" viewBox="0 0 24 25" fill="none" xmlns="http://www.w3.org/2000/svg">
<path d="M12 4.04688C10.22 4.04688 8.47991 4.57472 6.99987 5.56365C5.51983 6.55258 4.36628 7.95819 3.68509 9.60273C3.0039 11.2473 2.82567 13.0569 3.17294 14.8027C3.5202 16.5485 4.37737 18.1522 5.63604 19.4108C6.89472 20.6695 8.49836 21.5267 10.2442 21.8739C11.99 22.2212 13.7996 22.043 15.4442 21.3618C17.0887 20.6806 18.4943 19.5271 19.4832 18.047C20.4722 16.567 21 14.8269 21 13.0469C20.9973 10.6608 20.0482 8.37317 18.361 6.68593C16.6737 4.99869 14.3861 4.0496 12 4.04688ZM12 20.5469C10.5166 20.5469 9.0666 20.107 7.83323 19.2829C6.59986 18.4588 5.63856 17.2874 5.07091 15.917C4.50325 14.5466 4.35473 13.0386 4.64411 11.5837C4.9335 10.1288 5.64781 8.79247 6.6967 7.74357C7.7456 6.69468 9.08197 5.98037 10.5368 5.69099C11.9917 5.4016 13.4997 5.55012 14.8701 6.11778C16.2406 6.68544 17.4119 7.64673 18.236 8.8801C19.0601 10.1135 19.5 11.5635 19.5 13.0469C19.4978 15.0353 18.7069 16.9417 17.3008 18.3477C15.8948 19.7537 13.9884 20.5446 12 20.5469ZM16.2806 8.76625C16.3504 8.83591 16.4057 8.91862 16.4434 9.00967C16.4812 9.10072 16.5006 9.19831 16.5006 9.29688C16.5006 9.39544 16.4812 9.49303 16.4434 9.58408C16.4057 9.67513 16.3504 9.75785 16.2806 9.8275L12.5306 13.5775C12.4609 13.6472 12.3782 13.7025 12.2872 13.7402C12.1961 13.7779 12.0986 13.7973 12 13.7973C11.9015 13.7973 11.8039 13.7779 11.7128 13.7402C11.6218 13.7025 11.5391 13.6472 11.4694 13.5775C11.3997 13.5078 11.3444 13.4251 11.3067 13.334C11.269 13.243 11.2496 13.1454 11.2496 13.0469C11.2496 12.9483 11.269 12.8507 11.3067 12.7597C11.3444 12.6687 11.3997 12.5859 11.4694 12.5163L15.2194 8.76625C15.289 8.69652 15.3718 8.6412 15.4628 8.60346C15.5538 8.56571 15.6514 8.54629 15.75 8.54629C15.8486 8.54629 15.9462 8.56571 16.0372 8.60346C16.1283 8.6412 16.211 8.69652 16.2806 8.76625ZM9 1.79688C9 1.59796 9.07902 1.4072 9.21967 1.26654C9.36033 1.12589 9.55109 1.04688 9.75 1.04688H14.25C14.4489 1.04688 14.6397 1.12589 14.7803 1.26654C14.921 1.4072 15 1.59796 15 1.79688C15 1.99579 14.921 2.18655 14.7803 2.32721C14.6397 2.46786 14.4489 2.54688 14.25 2.54688H9.75C9.55109 2.54688 9.36033 2.46786 9.21967 2.32721C9.07902 2.18655 9 1.99579 9 1.79688Z" fill="black"/>
</svg>
