<svg width="24" height="25" viewBox="0 0 24 25" fill="none" xmlns="http://www.w3.org/2000/svg">
<path d="M19.5 3.29688H17.25V2.54688C17.25 2.34796 17.171 2.1572 17.0303 2.01654C16.8897 1.87589 16.6989 1.79688 16.5 1.79688C16.3011 1.79688 16.1103 1.87589 15.9697 2.01654C15.829 2.1572 15.75 2.34796 15.75 2.54688V3.29688H8.25V2.54688C8.25 2.34796 8.17098 2.1572 8.03033 2.01654C7.88968 1.87589 7.69891 1.79688 7.5 1.79688C7.30109 1.79688 7.11032 1.87589 6.96967 2.01654C6.82902 2.1572 6.75 2.34796 6.75 2.54688V3.29688H4.5C4.10218 3.29688 3.72064 3.45491 3.43934 3.73621C3.15804 4.01752 3 4.39905 3 4.79688V19.7969C3 20.1947 3.15804 20.5762 3.43934 20.8575C3.72064 21.1388 4.10218 21.2969 4.5 21.2969H19.5C19.8978 21.2969 20.2794 21.1388 20.5607 20.8575C20.842 20.5762 21 20.1947 21 19.7969V4.79688C21 4.39905 20.842 4.01752 20.5607 3.73621C20.2794 3.45491 19.8978 3.29688 19.5 3.29688ZM6.75 4.79688V5.54688C6.75 5.74579 6.82902 5.93655 6.96967 6.0772C7.11032 6.21786 7.30109 6.29688 7.5 6.29688C7.69891 6.29688 7.88968 6.21786 8.03033 6.0772C8.17098 5.93655 8.25 5.74579 8.25 5.54688V4.79688H15.75V5.54688C15.75 5.74579 15.829 5.93655 15.9697 6.0772C16.1103 6.21786 16.3011 6.29688 16.5 6.29688C16.6989 6.29688 16.8897 6.21786 17.0303 6.0772C17.171 5.93655 17.25 5.74579 17.25 5.54688V4.79688H19.5V7.79688H4.5V4.79688H6.75ZM19.5 19.7969H4.5V9.29688H19.5V19.7969ZM15.9056 11.7662C15.9754 11.8359 16.0307 11.9186 16.0684 12.0097C16.1062 12.1007 16.1256 12.1983 16.1256 12.2969C16.1256 12.3954 16.1062 12.493 16.0684 12.5841C16.0307 12.6751 15.9754 12.7578 15.9056 12.8275L11.4056 17.3275C11.336 17.3972 11.2533 17.4526 11.1622 17.4903C11.0712 17.528 10.9736 17.5475 10.875 17.5475C10.7764 17.5475 10.6788 17.528 10.5878 17.4903C10.4967 17.4526 10.414 17.3972 10.3444 17.3275L8.09437 15.0775C7.95364 14.9368 7.87458 14.7459 7.87458 14.5469C7.87458 14.3479 7.95364 14.157 8.09437 14.0162C8.23511 13.8755 8.42598 13.7965 8.625 13.7965C8.82402 13.7965 9.01489 13.8755 9.15563 14.0162L10.875 15.7366L14.8444 11.7662C14.914 11.6965 14.9967 11.6412 15.0878 11.6035C15.1788 11.5657 15.2764 11.5463 15.375 11.5463C15.4736 11.5463 15.5712 11.5657 15.6622 11.6035C15.7533 11.6412 15.836 11.6965 15.9056 11.7662Z" fill="black"/>
</svg>
