<svg width="39" height="39" viewBox="0 0 39 39" fill="none" xmlns="http://www.w3.org/2000/svg">
<rect x="0.556641" y="0.554688" width="37.9435" height="37.9435" rx="18.9717" stroke="#D3F0F0"/>
<path d="M23.7022 22.3094C23.2383 22.3093 22.7791 22.4022 22.3518 22.5827C21.9244 22.7632 21.5377 23.0277 21.2144 23.3604L17.207 20.7847C17.5222 19.9764 17.5222 19.0791 17.207 18.2708L21.2144 15.6951C21.8163 16.3117 22.6257 16.6828 23.4857 16.7365C24.3458 16.7902 25.1951 16.5227 25.869 15.9857C26.543 15.4488 26.9936 14.6808 27.1334 13.8305C27.2733 12.9802 27.0924 12.1083 26.626 11.3838C26.1595 10.6593 25.4406 10.1338 24.6087 9.90924C23.7768 9.68466 22.8911 9.77697 22.1234 10.1683C21.3557 10.5596 20.7606 11.222 20.4536 12.0272C20.1465 12.8323 20.1494 13.7228 20.4616 14.5259L16.4542 17.1016C15.9717 16.6062 15.3523 16.2659 14.6754 16.1243C13.9984 15.9827 13.2946 16.0462 12.6539 16.3066C12.0133 16.5671 11.4648 17.0127 11.0787 17.5865C10.6926 18.1602 10.4863 18.8361 10.4863 19.5277C10.4863 20.2193 10.6926 20.8952 11.0787 21.469C11.4648 22.0428 12.0133 22.4884 12.6539 22.7488C13.2946 23.0093 13.9984 23.0728 14.6754 22.9312C15.3523 22.7895 15.9717 22.4493 16.4542 21.9539L20.4616 24.5295C20.1931 25.2219 20.1534 25.9821 20.3482 26.6987C20.543 27.4153 20.9622 28.0507 21.5443 28.5119C22.1263 28.9731 22.8408 29.2358 23.5829 29.2615C24.3251 29.2873 25.056 29.0747 25.6687 28.655C26.2813 28.2353 26.7435 27.6305 26.9875 26.9291C27.2316 26.2277 27.2446 25.4666 27.0248 24.7573C26.805 24.0479 26.3638 23.4276 25.7659 22.9871C25.1681 22.5466 24.4448 22.3091 23.7022 22.3094ZM23.7022 11.1827C24.1148 11.1827 24.5182 11.305 24.8613 11.5343C25.2044 11.7635 25.4718 12.0894 25.6297 12.4706C25.7876 12.8518 25.8289 13.2713 25.7484 13.676C25.6679 14.0806 25.4692 14.4524 25.1774 14.7442C24.8857 15.0359 24.5139 15.2346 24.1092 15.3151C23.7045 15.3956 23.2851 15.3543 22.9038 15.1964C22.5226 15.0385 22.1968 14.7711 21.9676 14.428C21.7383 14.0849 21.616 13.6816 21.616 13.2689C21.616 12.7156 21.8358 12.185 22.227 11.7937C22.6183 11.4025 23.1489 11.1827 23.7022 11.1827ZM13.9664 21.614C13.5537 21.614 13.1504 21.4916 12.8073 21.2624C12.4642 21.0331 12.1968 20.7073 12.0389 20.3261C11.881 19.9449 11.8397 19.5254 11.9202 19.1207C12.0007 18.716 12.1994 18.3443 12.4911 18.0525C12.7829 17.7607 13.1546 17.562 13.5593 17.4815C13.964 17.4011 14.3835 17.4424 14.7647 17.6003C15.1459 17.7582 15.4718 18.0256 15.701 18.3687C15.9303 18.7117 16.0526 19.1151 16.0526 19.5277C16.0526 20.081 15.8328 20.6117 15.4416 21.0029C15.0503 21.3942 14.5197 21.614 13.9664 21.614ZM23.7022 27.8728C23.2896 27.8728 22.8862 27.7504 22.5432 27.5212C22.2001 27.2919 21.9327 26.9661 21.7748 26.5849C21.6169 26.2037 21.5756 25.7842 21.6561 25.3795C21.7366 24.9748 21.9352 24.6031 22.227 24.3113C22.5188 24.0195 22.8905 23.8208 23.2952 23.7403C23.6999 23.6598 24.1194 23.7011 24.5006 23.859C24.8818 24.0169 25.2076 24.2844 25.4369 24.6274C25.6661 24.9705 25.7885 25.3739 25.7885 25.7865C25.7885 26.3398 25.5687 26.8705 25.1774 27.2617C24.7862 27.653 24.2555 27.8728 23.7022 27.8728Z" fill="#24B2B4"/>
</svg>
