<svg width="286" height="305" viewBox="0 0 286 305" fill="none" xmlns="http://www.w3.org/2000/svg">
<mask id="mask0_2889_10992" style="mask-type:luminance" maskUnits="userSpaceOnUse" x="166" y="263" width="28" height="14">
<path d="M166.883 270.965L192.129 263.776L193.713 269.336L168.466 276.525L166.883 270.965Z" fill="white"/>
</mask>
<g mask="url(#mask0_2889_10992)">
<mask id="mask1_2889_10992" style="mask-type:luminance" maskUnits="userSpaceOnUse" x="166" y="263" width="27" height="12">
<path d="M189.134 270.25C183.855 272.275 178.395 273.83 172.841 274.89C170.297 275.378 167.618 273.543 166.895 270.962C175.685 269.472 183.856 267.149 192.116 263.78C192.865 266.354 191.557 269.324 189.134 270.25Z" fill="white"/>
</mask>
<g mask="url(#mask1_2889_10992)">
<mask id="mask2_2889_10992" style="mask-type:luminance" maskUnits="userSpaceOnUse" x="166" y="263" width="27" height="12">
<path d="M189.134 270.25C183.855 272.275 178.395 273.83 172.841 274.89C170.297 275.378 167.618 273.544 166.895 270.963C175.685 269.472 183.856 267.149 192.116 263.781C192.865 266.355 191.557 269.324 189.134 270.25Z" fill="white"/>
</mask>
<g mask="url(#mask2_2889_10992)">
<path d="M166.887 270.966L168.47 276.526L193.717 269.337L192.133 263.777L166.887 270.966Z" fill="url(#paint0_linear_2889_10992)"/>
</g>
</g>
</g>
<path d="M195.103 262.611C184.857 267.163 174.842 270.015 163.735 271.543C157.811 272.31 152.296 267.275 150.555 262.018C148.527 254.652 146.499 247.286 144.47 239.917C162.457 238.738 178.908 234.053 194.821 225.579C196.978 232.912 199.132 240.242 201.288 247.572C203.056 253.168 200.09 259.842 195.103 262.611Z" fill="#454F5E"/>
<mask id="mask3_2889_10992" style="mask-type:luminance" maskUnits="userSpaceOnUse" x="145" y="230" width="54" height="23">
<path d="M145.746 245.118L196.486 230.669L198.637 238.221L147.896 252.67L145.746 245.118Z" fill="white"/>
</mask>
<g mask="url(#mask3_2889_10992)">
<mask id="mask4_2889_10992" style="mask-type:luminance" maskUnits="userSpaceOnUse" x="144" y="225" width="58" height="47">
<path d="M195.115 262.611C184.869 267.164 174.854 270.016 163.747 271.543C157.823 272.31 152.307 267.275 150.567 262.019C148.539 254.653 146.511 247.287 144.482 239.917C162.469 238.738 178.92 234.054 194.832 225.579C196.99 232.912 199.143 240.243 201.3 247.572C203.068 253.168 200.101 259.842 195.115 262.611Z" fill="white"/>
</mask>
<g mask="url(#mask4_2889_10992)">
<path d="M147.399 251C147.004 249.829 146.807 249.247 146.415 248.087C164.601 246.09 180.908 240.314 196.485 230.741C196.884 231.857 197.086 232.418 197.489 233.536C181.93 243.212 165.623 249.027 147.399 251Z" fill="white"/>
</g>
</g>
<mask id="mask5_2889_10992" style="mask-type:luminance" maskUnits="userSpaceOnUse" x="147" y="238" width="54" height="23">
<path d="M147.965 252.908L198.705 238.459L200.925 246.254L150.184 260.703L147.965 252.908Z" fill="white"/>
</mask>
<g mask="url(#mask5_2889_10992)">
<mask id="mask6_2889_10992" style="mask-type:luminance" maskUnits="userSpaceOnUse" x="144" y="225" width="58" height="47">
<path d="M195.115 262.611C184.869 267.163 174.854 270.015 163.747 271.543C157.823 272.31 152.307 267.275 150.567 262.018C148.539 254.652 146.511 247.286 144.482 239.917C162.469 238.738 178.92 234.053 194.832 225.579C196.99 232.912 199.143 240.242 201.3 247.572C203.068 253.168 200.101 259.842 195.115 262.611Z" fill="white"/>
</mask>
<g mask="url(#mask6_2889_10992)">
<path d="M149.58 258.921C149.18 257.732 148.98 257.14 148.585 255.954C166.879 254.103 183.207 248.298 198.773 238.523C199.178 239.66 199.382 240.228 199.788 241.369C184.248 251.245 167.918 257.089 149.58 258.921Z" fill="white"/>
</g>
</g>
<mask id="mask7_2889_10992" style="mask-type:luminance" maskUnits="userSpaceOnUse" x="150" y="246" width="54" height="23">
<path d="M150.215 260.826L200.955 246.377L203.243 254.411L152.503 268.86L150.215 260.826Z" fill="white"/>
</mask>
<g mask="url(#mask7_2889_10992)">
<mask id="mask8_2889_10992" style="mask-type:luminance" maskUnits="userSpaceOnUse" x="144" y="225" width="58" height="47">
<path d="M195.115 262.611C184.869 267.163 174.854 270.015 163.747 271.543C157.823 272.31 152.307 267.275 150.567 262.018C148.539 254.652 146.511 247.286 144.482 239.917C162.469 238.738 178.92 234.053 194.832 225.579C196.99 232.912 199.143 240.242 201.3 247.572C203.068 253.168 200.101 259.842 195.115 262.611Z" fill="white"/>
</mask>
<g mask="url(#mask8_2889_10992)">
<path d="M151.802 266.989C151.394 265.775 151.192 265.172 150.786 263.966C169.198 262.256 185.549 256.421 201.1 246.445C201.51 247.6 201.718 248.179 202.133 249.34C186.603 259.418 170.25 265.3 151.802 266.989Z" fill="white"/>
</g>
</g>
<path d="M77.8539 157.311C67.6061 121.323 88.4158 83.8516 124.335 73.6232C160.255 63.3948 197.687 84.2816 207.935 120.269C212.705 137.02 210.742 154.088 203.664 168.582L203.665 168.585C197.165 181.855 196.822 202.586 200.427 219.549C200.991 222.207 199.532 224.427 196.796 225.585C196.796 225.585 185.805 231.309 170.634 235.629C155.467 239.948 142.952 240.918 142.952 240.918C139.946 240.962 137.607 240.256 136.69 237.699C130.832 221.431 119.516 204.09 107.046 196.203C107.019 196.188 106.99 196.169 106.966 196.152C93.2976 187.559 82.627 174.073 77.8539 157.311Z" fill="#F3BC4B"/>
<mask id="mask9_2889_10992" style="mask-type:luminance" maskUnits="userSpaceOnUse" x="88" y="136" width="70" height="115">
<path d="M88.668 147.812L128.76 136.396L157.886 238.677L117.793 250.094L88.668 147.812Z" fill="white"/>
</mask>
<g mask="url(#mask9_2889_10992)">
<mask id="mask10_2889_10992" style="mask-type:luminance" maskUnits="userSpaceOnUse" x="75" y="71" width="136" height="170">
<path d="M77.8529 157.312C67.6051 121.325 88.4158 83.8565 124.335 73.6281C160.255 63.3996 197.682 84.2839 207.93 120.271C212.7 137.023 210.741 154.09 203.663 168.583L203.664 168.587C197.16 181.857 196.821 202.587 200.426 219.551C200.989 222.208 199.527 224.43 196.795 225.587C196.795 225.587 185.804 231.31 170.633 235.63C155.462 239.95 142.951 240.919 142.951 240.919C139.945 240.963 137.606 240.257 136.689 237.7C130.831 221.433 119.515 204.091 107.045 196.204C107.018 196.189 106.989 196.17 106.965 196.154C93.2966 187.56 82.626 174.074 77.8529 157.312Z" fill="white"/>
</mask>
<g mask="url(#mask10_2889_10992)">
<path d="M157.571 238.757C156.879 238.893 156.201 239.02 155.547 239.141C155.142 237.636 154.728 236.034 154.3 234.382C151.144 222.2 146.824 205.521 137.826 191.338C131.171 180.852 121.239 175.239 111.634 169.81C101.405 164.025 91.7447 158.566 88.6953 147.857L90.6726 147.294C93.4898 157.188 102.367 162.205 112.645 168.014C122.012 173.31 132.631 179.312 139.561 190.237C148.733 204.692 153.101 221.553 156.29 233.865C156.729 235.569 157.156 237.217 157.571 238.757Z" fill="#FAE4B7"/>
</g>
</g>
<mask id="mask11_2889_10992" style="mask-type:luminance" maskUnits="userSpaceOnUse" x="157" y="125" width="67" height="106">
<path d="M157.559 136.229L196.453 125.153L223.428 219.883L184.534 230.959L157.559 136.229Z" fill="white"/>
</mask>
<g mask="url(#mask11_2889_10992)">
<mask id="mask12_2889_10992" style="mask-type:luminance" maskUnits="userSpaceOnUse" x="75" y="71" width="136" height="170">
<path d="M77.8646 157.311C67.6168 121.324 88.4276 83.8556 124.347 73.6271C160.267 63.3987 197.694 84.2829 207.942 120.27C212.712 137.022 210.753 154.089 203.674 168.582L203.675 168.586C197.172 181.856 196.833 202.587 200.438 219.55C201.001 222.207 199.539 224.429 196.807 225.586C196.807 225.586 185.816 231.309 170.645 235.629C155.474 239.949 142.963 240.918 142.963 240.918C139.957 240.962 137.618 240.256 136.701 237.699C130.843 221.432 119.527 204.09 107.057 196.203C107.029 196.188 107.001 196.169 106.977 196.153C93.3083 187.559 82.6377 174.073 77.8646 157.311Z" fill="white"/>
</mask>
<g mask="url(#mask12_2889_10992)">
<path d="M184.873 230.832C184.378 229.202 183.837 227.478 183.278 225.693C179.388 213.294 174.062 196.315 174.855 179.116C175.13 173.186 176.37 166.682 178.545 159.782C180.28 154.282 182.608 148.517 185.463 142.648C190.326 132.658 195.118 125.716 195.164 125.649L196.852 126.823C196.806 126.894 192.092 133.729 187.295 143.583C182.889 152.638 177.508 166.173 176.907 179.212C176.131 196.047 181.397 212.827 185.24 225.076C185.784 226.807 186.307 228.483 186.79 230.069C186.173 230.319 185.534 230.574 184.873 230.832Z" fill="#FAE4B7"/>
</g>
</g>
<path d="M109.385 135.328C109.433 135.43 109.45 135.557 109.43 135.717C109.413 135.876 109.377 136.045 109.322 136.219C109.268 136.397 109.195 136.576 109.103 136.753C109.011 136.934 108.91 137.094 108.8 137.238C108.467 137.684 108.036 138.124 107.507 138.561C106.973 138.995 106.453 139.394 105.937 139.754C105.422 140.117 104.956 140.423 104.537 140.674C104.121 140.924 103.847 141.087 103.716 141.159C103.603 141.222 103.511 141.511 103.434 142.028C103.36 142.54 103.298 143.192 103.248 143.979C103.196 144.763 103.162 145.646 103.149 146.62C103.137 147.594 103.132 148.569 103.14 149.533C103.144 150.321 103.148 151.093 103.149 151.846C103.155 152.598 103.151 153.291 103.132 153.931C103.116 154.565 103.082 155.124 103.029 155.603C102.976 156.082 102.901 156.443 102.805 156.691C102.706 156.858 102.592 157.014 102.464 157.163C102.333 157.312 102.174 157.447 101.985 157.57C101.641 157.788 101.288 157.919 100.92 157.958C100.552 157.997 100.18 157.91 99.8071 157.688C99.362 157.428 98.8843 157.108 98.3781 156.742C97.8754 156.375 97.3528 155.978 96.8129 155.548C96.274 155.122 95.7306 154.666 95.1821 154.192C94.6335 153.718 94.0758 153.239 93.5181 152.76C92.6057 151.973 91.6949 151.177 90.7841 150.381C89.9263 149.636 89.1006 149.016 88.3008 148.529C88.1361 148.29 88.0689 148.027 88.1039 147.742C88.1343 147.455 88.2218 147.179 88.362 146.911C88.5032 146.647 88.6694 146.402 88.86 146.19C89.0486 145.97 89.2265 145.807 89.3818 145.701C89.5019 145.62 89.6404 145.55 89.8023 145.481C89.9642 145.411 90.1313 145.36 90.2978 145.32C90.4643 145.281 90.6241 145.258 90.7738 145.254C90.926 145.246 91.0511 145.264 91.1516 145.305C91.5263 145.508 91.8815 145.751 92.2198 146.029C92.5571 146.304 92.8918 146.611 93.2265 146.945C93.5648 147.277 93.901 147.63 94.2433 148.004C94.5821 148.379 94.9519 148.769 95.3417 149.16C95.6877 149.506 96.0621 149.898 96.4616 150.337C96.8565 150.774 97.2723 151.216 97.6972 151.663C98.1258 152.109 98.5513 152.545 98.9748 152.973C99.4018 153.4 99.8146 153.778 100.217 154.104C100.235 153.801 100.228 153.409 100.198 152.926C100.169 152.443 100.13 151.925 100.076 151.368C100.025 150.811 99.9668 150.24 99.9076 149.665C99.8474 149.087 99.7998 148.54 99.7651 148.024C99.6904 146.975 99.6157 145.98 99.5267 145.042C99.4422 144.108 99.4496 143.251 99.5473 142.481C99.6098 142.267 99.6611 141.985 99.6971 141.65C99.7357 141.311 99.8127 140.956 99.9243 140.588C100.036 140.22 100.204 139.859 100.428 139.506C100.654 139.147 100.977 138.855 101.399 138.614C101.718 138.431 102.028 138.285 102.328 138.168C102.627 138.052 102.938 137.937 103.258 137.826C103.578 137.712 103.919 137.58 104.283 137.434C104.644 137.289 105.045 137.097 105.478 136.865C105.76 136.716 106.053 136.536 106.36 136.324C106.667 136.113 106.959 135.903 107.23 135.702C107.5 135.497 107.746 135.315 107.963 135.153C108.177 134.995 108.339 134.887 108.444 134.834C108.684 134.712 108.87 134.701 109 134.803C109.133 134.905 109.26 135.081 109.385 135.328Z" fill="white"/>
<path d="M109.448 123.776C109.601 124.111 109.694 124.452 109.72 124.8C109.751 125.151 109.72 125.504 109.633 125.865C109.463 126.598 108.946 127.17 108.081 127.594C107.772 127.744 107.449 127.875 107.108 127.979C106.764 128.089 106.444 128.161 106.149 128.195C105.85 128.233 105.585 128.224 105.352 128.166C105.117 128.114 104.955 127.993 104.865 127.814C104.708 127.507 104.63 127.139 104.634 126.705C104.639 126.274 104.709 125.841 104.844 125.404C104.983 124.97 105.174 124.568 105.418 124.205C105.663 123.841 105.945 123.583 106.261 123.431C106.655 123.238 107.015 123.093 107.339 122.993C107.665 122.892 107.958 122.848 108.22 122.858C108.483 122.872 108.718 122.952 108.923 123.099C109.131 123.248 109.305 123.477 109.448 123.776ZM125.093 131.981C125.187 132.217 125.214 132.557 125.174 132.997C125.133 133.438 125.042 133.947 124.906 134.527C124.765 135.104 124.581 135.737 124.357 136.427C124.131 137.113 123.875 137.832 123.6 138.575C123.302 139.387 122.965 140.213 122.587 141.044C122.206 141.879 121.786 142.71 121.326 143.54C120.874 144.353 120.381 145.054 119.855 145.637C119.333 146.218 118.78 146.654 118.199 146.932C117.523 147.259 116.88 147.431 116.265 147.444C115.651 147.46 115.065 147.356 114.506 147.133C113.949 146.913 113.424 146.602 112.933 146.197C112.439 145.792 111.977 145.336 111.543 144.83C111.109 144.324 110.713 143.787 110.354 143.22C109.996 142.654 109.677 142.107 109.399 141.575C109.289 141.367 109.141 141.05 108.956 140.619C108.768 140.189 108.583 139.728 108.402 139.242C108.22 138.753 108.049 138.276 107.891 137.814C107.735 137.349 107.628 136.973 107.574 136.687C107.48 136.126 107.599 135.474 107.947 134.753C108.278 134.055 108.787 133.535 109.468 133.198C110.156 132.859 110.694 133.081 111.075 133.862C111.254 134.232 111.413 134.639 111.544 135.089C111.68 135.537 111.8 135.986 111.916 136.421C112.126 137.212 112.37 137.919 112.605 138.528C112.84 139.138 113.072 139.667 113.293 140.115C113.543 140.627 113.818 141.105 114.112 141.555C114.41 142.004 114.705 142.387 115.004 142.704C115.304 143.025 115.594 143.255 115.879 143.402C116.168 143.548 116.428 143.563 116.666 143.449C116.965 143.305 117.259 143.129 117.552 142.922C117.844 142.715 118.157 142.386 118.496 141.934C119.221 140.951 119.863 139.84 120.398 138.745C120.62 138.303 120.868 137.791 121.145 137.202C121.422 136.613 121.701 136.019 121.973 135.412C122.246 134.809 122.5 134.223 122.736 133.653C122.969 133.088 123.147 132.612 123.265 132.227C123.274 132.162 123.293 132.08 123.322 131.978C123.348 131.878 123.383 131.772 123.424 131.659C123.466 131.547 123.521 131.442 123.588 131.35C123.658 131.257 123.732 131.193 123.818 131.157C123.992 131.088 124.128 131.061 124.225 131.076C124.325 131.09 124.471 131.207 124.66 131.396C124.871 131.607 125.023 131.803 125.093 131.981Z" fill="white"/>
<path d="M123.586 127.402C123.661 127.11 123.778 126.803 123.93 126.481C124.082 126.159 124.258 125.854 124.454 125.563C124.646 125.276 124.845 125.022 125.051 124.809C125.256 124.592 125.444 124.454 125.608 124.391C125.856 124.298 126.106 124.253 126.358 124.255C126.613 124.256 126.853 124.296 127.076 124.375C127.303 124.45 127.501 124.564 127.674 124.708C127.842 124.853 127.963 125.02 128.033 125.209C128.121 125.45 128.14 125.723 128.096 126.029C128.048 126.337 127.971 126.649 127.857 126.967C127.744 127.289 127.613 127.605 127.458 127.916C127.308 128.229 127.169 128.516 127.041 128.784C126.912 129.053 126.809 129.287 126.726 129.485C126.647 129.681 126.624 129.819 126.656 129.903C126.703 130.029 126.896 130.175 127.228 130.339C127.561 130.503 127.962 130.675 128.432 130.858C128.904 131.037 129.412 131.221 129.961 131.397C130.511 131.577 131.024 131.736 131.506 131.869C131.932 131.991 132.311 132.131 132.645 132.283C132.979 132.439 133.213 132.624 133.347 132.837C133.632 132.396 133.887 132.003 134.102 131.659C134.318 131.316 134.542 130.935 134.774 130.517C135.004 130.104 135.269 129.607 135.568 129.027C135.864 128.452 136.236 127.708 136.688 126.799C136.932 126.312 137.169 125.854 137.392 125.415C137.616 124.981 137.835 124.597 138.046 124.267C138.254 123.937 138.463 123.665 138.66 123.45C138.858 123.235 139.048 123.1 139.227 123.049C139.508 122.965 139.733 123.009 139.904 123.173C140.071 123.338 140.2 123.576 140.289 123.887C140.322 124.005 140.3 124.239 140.217 124.588C140.138 124.931 140.018 125.34 139.862 125.81C139.706 126.279 139.52 126.793 139.31 127.347C139.102 127.905 138.887 128.453 138.667 128.999C138.448 129.545 138.233 130.054 138.023 130.535C137.814 131.012 137.62 131.415 137.442 131.741C137.411 131.796 137.342 131.931 137.228 132.142C137.113 132.352 136.98 132.603 136.827 132.894C136.678 133.183 136.511 133.494 136.335 133.826C136.16 134.162 135.995 134.479 135.842 134.782C135.685 135.086 135.549 135.356 135.431 135.591C135.314 135.821 135.231 135.988 135.185 136.086C135.151 136.158 135.076 136.326 134.964 136.586C134.853 136.849 134.721 137.158 134.576 137.516C134.43 137.874 134.271 138.252 134.104 138.655C133.936 139.059 133.781 139.435 133.64 139.796C133.502 140.153 133.374 140.464 133.261 140.732C133.147 140.996 133.069 141.173 133.033 141.26C132.656 142.002 132.266 142.654 131.863 143.221C131.459 143.784 130.972 144.178 130.391 144.405C130.117 144.514 129.847 144.584 129.585 144.615C129.327 144.646 129.086 144.642 128.862 144.601C128.641 144.556 128.447 144.472 128.28 144.349C128.114 144.227 127.987 144.054 127.899 143.839C127.754 143.479 127.735 143.101 127.847 142.706C127.96 142.315 128.142 141.911 128.391 141.508C128.643 141.103 128.938 140.699 129.268 140.299C129.604 139.902 129.917 139.523 130.212 139.161C130.683 138.563 130.981 137.979 131.104 137.407C131.224 136.835 131.204 136.319 131.034 135.857C130.912 135.525 130.575 135.223 130.021 134.959C129.463 134.697 128.603 134.447 127.429 134.221C126.958 134.127 126.515 133.998 126.098 133.834C125.679 133.668 125.307 133.487 124.977 133.292C124.646 133.092 124.365 132.882 124.138 132.653C123.911 132.428 123.757 132.213 123.675 132.004C123.52 131.623 123.405 131.273 123.331 130.946C123.258 130.623 123.217 130.287 123.207 129.942C123.203 129.599 123.231 129.224 123.297 128.818C123.361 128.417 123.458 127.945 123.586 127.402Z" fill="white"/>
<path d="M141.971 112.064C142.065 112.42 142.092 112.772 142.056 113.122C142.02 113.469 141.924 113.813 141.774 114.153C141.475 114.841 140.861 115.306 139.937 115.562C139.607 115.652 139.266 115.718 138.911 115.761C138.556 115.804 138.23 115.812 137.935 115.795C137.636 115.776 137.38 115.718 137.162 115.617C136.941 115.522 136.803 115.376 136.748 115.182C136.65 114.851 136.643 114.474 136.723 114.049C136.804 113.628 136.953 113.215 137.166 112.81C137.381 112.409 137.639 112.053 137.947 111.737C138.254 111.429 138.575 111.226 138.912 111.134C139.331 111.018 139.711 110.941 140.053 110.906C140.39 110.868 140.686 110.876 140.939 110.935C141.193 110.998 141.408 111.119 141.585 111.304C141.76 111.486 141.888 111.744 141.971 112.064ZM155.828 123.015C155.877 123.268 155.841 123.603 155.723 124.031C155.601 124.456 155.418 124.941 155.177 125.481C154.934 126.026 154.634 126.614 154.288 127.246C153.94 127.882 153.555 128.541 153.153 129.22C152.712 129.964 152.229 130.712 151.704 131.461C151.179 132.209 150.613 132.95 150.013 133.678C149.417 134.396 148.809 134.991 148.188 135.469C147.565 135.944 146.95 136.266 146.329 136.435C145.604 136.63 144.942 136.68 144.337 136.578C143.733 136.479 143.178 136.27 142.672 135.946C142.168 135.626 141.709 135.223 141.302 134.732C140.893 134.245 140.521 133.714 140.19 133.135C139.859 132.553 139.567 131.952 139.317 131.331C139.071 130.71 138.857 130.109 138.683 129.537C138.615 129.313 138.525 128.971 138.423 128.517C138.32 128.059 138.22 127.573 138.132 127.061C138.04 126.546 137.96 126.047 137.891 125.561C137.823 125.077 137.789 124.689 137.784 124.4C137.796 123.829 138.03 123.213 138.502 122.565C138.952 121.946 139.549 121.528 140.275 121.325C141.012 121.116 141.497 121.434 141.728 122.272C141.836 122.667 141.917 123.1 141.965 123.565C142.016 124.03 142.052 124.495 142.086 124.942C142.149 125.759 142.256 126.502 142.376 127.14C142.497 127.782 142.626 128.344 142.76 128.828C142.916 129.375 143.095 129.896 143.302 130.394C143.512 130.887 143.733 131.322 143.965 131.689C144.201 132.055 144.443 132.338 144.697 132.536C144.95 132.731 145.203 132.794 145.458 132.725C145.778 132.638 146.097 132.524 146.421 132.374C146.747 132.227 147.115 131.96 147.528 131.579C148.42 130.745 149.252 129.77 149.979 128.794C150.274 128.405 150.61 127.945 150.994 127.419C151.374 126.893 151.755 126.359 152.133 125.811C152.512 125.27 152.871 124.739 153.204 124.226C153.541 123.713 153.801 123.28 153.985 122.922C154.01 122.861 154.042 122.782 154.088 122.688C154.135 122.593 154.187 122.493 154.247 122.391C154.311 122.288 154.382 122.198 154.466 122.116C154.549 122.038 154.639 121.99 154.727 121.972C154.91 121.936 155.049 121.935 155.143 121.966C155.238 122.001 155.359 122.14 155.511 122.364C155.678 122.61 155.794 122.828 155.828 123.015Z" fill="white"/>
<path d="M158.635 129.873C159.51 129.713 160.243 129.342 160.841 128.754C161.439 128.166 161.913 127.444 162.264 126.583C162.61 125.722 162.842 124.771 162.953 123.723C163.061 122.676 163.197 121.323 162.896 120.55C162.847 120.417 162.65 120.242 162.468 120.092C162.289 119.938 162.09 119.81 161.873 119.701C161.657 119.593 161.437 119.512 161.217 119.459C160.996 119.402 160.799 119.389 160.626 119.419C160.352 119.462 160.067 119.616 159.781 119.875C159.497 120.138 159.236 120.402 158.999 120.67C158.766 120.938 158.544 121.272 158.342 121.677C158.136 122.08 157.964 122.519 157.818 122.997C157.672 123.476 157.548 123.979 157.45 124.501C157.35 125.021 157.283 125.531 157.237 126.035C157.197 126.533 157.181 127.017 157.195 127.477C157.211 127.94 157.253 128.346 157.318 128.694C157.353 128.87 157.411 129.035 157.497 129.188C157.583 129.342 157.683 129.476 157.801 129.589C157.918 129.702 158.05 129.785 158.192 129.837C158.335 129.889 158.481 129.902 158.635 129.873ZM176.758 116.398C176.771 116.607 176.713 116.836 176.583 117.086C176.453 117.335 176.285 117.588 176.075 117.841C175.866 118.098 175.625 118.352 175.354 118.607C175.082 118.862 174.809 119.098 174.535 119.315C174.265 119.535 174.002 119.726 173.76 119.892C173.513 120.059 173.308 120.191 173.14 120.281C172.843 120.431 172.456 120.58 171.982 120.734C171.503 120.886 171.005 121.024 170.482 121.154C169.962 121.283 169.453 121.397 168.964 121.497C168.475 121.601 168.063 121.673 167.722 121.712C167.64 121.723 167.53 121.728 167.384 121.731C167.241 121.733 167.085 121.727 166.915 121.713C166.748 121.699 166.577 121.682 166.407 121.653C166.236 121.625 166.088 121.578 165.962 121.517C166.122 121.754 166.23 122.024 166.285 122.326C166.344 122.626 166.39 122.926 166.432 123.223C166.457 123.432 166.467 123.685 166.461 123.976C166.456 124.268 166.433 124.568 166.4 124.875C166.369 125.185 166.322 125.481 166.257 125.77C166.197 126.062 166.124 126.307 166.038 126.509C165.829 127.021 165.593 127.498 165.34 127.937C165.082 128.377 164.792 128.796 164.461 129.196C164.133 129.591 163.755 129.973 163.327 130.346C162.899 130.715 162.398 131.102 161.827 131.485C161.216 131.89 160.588 132.209 159.948 132.445C159.31 132.677 158.643 132.859 157.943 132.993C157.423 133.094 156.938 133.047 156.479 132.849C156.021 132.651 155.602 132.349 155.23 131.937C154.854 131.526 154.531 131.03 154.254 130.452C153.981 129.873 153.77 129.252 153.631 128.588C153.596 128.425 153.565 128.221 153.54 127.969C153.514 127.717 153.5 127.462 153.495 127.201C153.494 126.938 153.494 126.683 153.508 126.432C153.517 126.178 153.533 125.965 153.553 125.789C153.611 125.301 153.727 124.731 153.902 124.082C154.076 123.433 154.302 122.758 154.586 122.059C154.871 121.363 155.206 120.668 155.596 119.973C155.987 119.282 156.426 118.651 156.913 118.083C157.403 117.511 157.935 117.03 158.512 116.638C159.085 116.247 159.691 116.001 160.326 115.897C160.596 115.855 160.817 115.843 160.987 115.868C161.16 115.892 161.308 115.939 161.423 116.003C161.543 116.069 161.654 116.149 161.757 116.24C161.86 116.33 161.974 116.418 162.091 116.5C162.17 116.466 162.255 116.438 162.34 116.414C162.426 116.389 162.514 116.372 162.61 116.356C162.974 116.303 163.348 116.382 163.735 116.6C164.124 116.814 164.522 117.057 164.928 117.328C165.109 117.45 165.295 117.571 165.482 117.699C165.668 117.824 165.84 117.938 165.995 118.036C166.15 118.132 166.285 118.213 166.405 118.268C166.526 118.326 166.607 118.353 166.656 118.347C166.954 118.308 167.282 118.265 167.636 118.219C167.989 118.168 168.345 118.117 168.707 118.057C169.073 117.999 169.423 117.938 169.762 117.865C170.101 117.795 170.409 117.723 170.683 117.652C170.717 117.635 170.865 117.585 171.125 117.496C171.387 117.409 171.704 117.3 172.076 117.171C172.445 117.039 172.846 116.901 173.283 116.75C173.715 116.6 174.121 116.465 174.495 116.339C174.869 116.213 175.191 116.11 175.466 116.028C175.736 115.947 175.895 115.905 175.941 115.904C176.178 115.883 176.368 115.898 176.513 115.946C176.657 115.99 176.739 116.141 176.758 116.398Z" fill="white"/>
<path d="M197.256 124.712C197.355 124.719 197.435 124.782 197.492 124.901C197.549 125.02 197.567 125.219 197.553 125.498C197.53 125.93 197.363 126.391 197.054 126.881C196.746 127.374 196.307 127.828 195.744 128.251C195.179 128.671 194.492 129.013 193.683 129.282C192.876 129.555 191.957 129.681 190.921 129.667C189.946 129.651 189.076 129.489 188.3 129.176C187.522 128.861 186.854 128.374 186.291 127.715C185.732 127.055 185.285 126.204 184.953 125.174C184.577 124.017 184.388 122.66 184.362 121.442C183.856 121.88 183.348 122.403 182.837 123.013C182.325 123.63 181.849 124.253 181.407 124.885C180.964 125.514 180.572 126.108 180.227 126.659C179.886 127.212 179.624 127.638 179.443 127.937C179.18 128.387 178.971 128.764 178.81 129.068C178.65 129.377 178.489 129.624 178.332 129.819C178.179 130.014 177.999 130.157 177.799 130.257C177.599 130.353 177.325 130.411 176.982 130.44C176.667 130.46 176.377 130.434 176.11 130.351C175.844 130.273 175.608 130.162 175.406 130.022C175.204 129.883 175.045 129.719 174.924 129.537C174.805 129.351 174.734 129.158 174.716 128.959C174.701 128.77 174.696 128.547 174.692 128.289C174.693 128.034 174.702 127.768 174.719 127.501C174.734 127.23 174.747 126.963 174.766 126.703C174.783 126.439 174.8 126.198 174.813 125.986C174.837 125.704 174.856 125.405 174.883 125.092C174.909 124.775 174.934 124.428 174.968 124.047C174.995 123.665 175.024 123.239 175.051 122.775C175.076 122.308 175.091 121.79 175.107 121.221C175.121 120.552 175.136 119.898 175.15 119.268C175.163 118.638 175.189 117.981 175.234 117.311C175.258 116.922 175.312 116.555 175.379 116.219C175.447 115.886 175.561 115.595 175.722 115.348C175.88 115.102 176.099 114.904 176.376 114.752C176.649 114.597 177.014 114.509 177.462 114.478C177.869 114.455 178.192 114.478 178.434 114.553C178.676 114.63 178.862 114.74 178.988 114.882C179.113 115.024 179.196 115.194 179.236 115.387C179.275 115.581 179.304 115.777 179.314 115.976C179.32 116.09 179.321 116.19 179.322 116.275C179.322 116.368 179.311 116.452 179.305 116.527C179.3 116.699 179.288 116.926 179.256 117.183C179.221 117.44 179.17 117.803 179.094 118.269C179.022 118.738 178.922 119.361 178.791 120.137C178.717 120.583 178.633 121.048 178.547 121.521C178.461 121.993 178.381 122.445 178.313 122.871C178.242 123.301 178.185 123.684 178.139 124.026C178.091 124.372 178.066 124.638 178.054 124.827C178.302 124.501 178.592 124.094 178.926 123.612C179.261 123.13 179.597 122.64 179.935 122.146C180.274 121.651 180.606 121.178 180.93 120.726C181.255 120.278 181.534 119.916 181.764 119.638C182.139 119.203 182.512 118.788 182.876 118.398C183.24 118.004 183.622 117.664 184.026 117.371C184.428 117.074 184.856 116.84 185.311 116.672C185.765 116.501 186.273 116.414 186.828 116.407C187.143 116.402 187.396 116.434 187.585 116.5C187.774 116.566 187.92 116.66 188.019 116.775C188.122 116.892 188.187 117.025 188.214 117.175C188.245 117.325 188.259 117.483 188.26 117.649C188.26 117.758 188.264 117.811 188.263 117.915C188.263 117.985 188.246 118.144 188.22 118.391C188.191 118.643 188.156 118.912 188.118 119.201C188.077 119.491 188.043 119.764 188.02 120.022C187.992 120.277 187.977 120.443 187.976 120.521C187.981 121.378 188.054 122.18 188.193 122.925C188.332 123.671 188.547 124.317 188.832 124.869C189.119 125.418 189.483 125.852 189.926 126.174C190.37 126.496 190.899 126.658 191.525 126.669C191.956 126.678 192.337 126.658 192.659 126.621C192.982 126.575 193.301 126.5 193.61 126.392C193.92 126.285 194.238 126.14 194.572 125.956C194.903 125.773 195.284 125.552 195.724 125.292C195.885 125.176 196.057 125.073 196.227 124.979C196.374 124.898 196.539 124.828 196.718 124.777C196.896 124.722 197.076 124.702 197.256 124.712Z" fill="white"/>
<mask id="mask13_2889_10992" style="mask-type:luminance" maskUnits="userSpaceOnUse" x="0" y="0" width="270" height="246">
<path d="M0.96875 61.562L216.526 0.18012L269.007 184.48L53.4499 245.862L0.96875 61.562Z" fill="white"/>
</mask>
<g mask="url(#mask13_2889_10992)">
<path d="M158.26 30.3079C158.268 30.2011 158.27 30.1 158.266 29.9928C158.227 28.3729 156.883 27.0895 155.267 27.1284C153.651 27.1673 152.371 28.5097 152.411 30.1296C152.523 34.6087 152.242 39.1763 151.889 43.7877C151.54 48.3982 151.118 53.0642 150.984 57.7677C150.965 58.4883 151.491 59.1271 152.215 59.2263C152.997 59.3362 153.718 58.7869 153.823 58.0031C154.446 53.4578 155.348 48.9413 156.203 44.3568C157.055 39.7734 157.858 35.1149 158.259 30.3196L158.26 30.3079ZM197.751 43.3451C197.794 43.2517 197.832 43.1557 197.865 43.0536C198.379 41.5196 197.549 39.8541 196.015 39.34C194.481 38.826 192.822 39.6538 192.308 41.1879C189.421 49.8339 185.316 58.2505 181.417 66.7822C181.12 67.4351 181.354 68.2304 181.987 68.6068C182.662 69.0098 183.542 68.7864 183.94 68.1086C186.326 64.0933 188.767 60.0934 191.119 56.0026C193.473 51.9153 195.745 47.7314 197.749 43.3533L197.751 43.3451ZM229.641 67.4294C230.685 66.193 230.532 64.3387 229.294 63.2917C228.057 62.2448 226.211 62.3995 225.167 63.6359L225.139 63.6711L222.743 66.5103L222.144 67.218L221.526 67.912L220.279 69.3147C218.601 71.1996 216.937 73.0957 215.286 75.0077C211.98 78.8327 208.743 82.7231 205.647 86.728C205.208 87.3016 205.258 88.1299 205.793 88.6385C206.366 89.1828 207.267 89.1581 207.811 88.5856L207.815 88.5846C211.244 84.9604 214.804 81.4574 218.429 78.0208C220.247 76.301 222.072 74.5944 223.916 72.8981L225.306 71.6171L226.011 70.9681L226.699 70.3044L229.443 67.6406C229.509 67.5753 229.581 67.5008 229.641 67.4294ZM245.494 112.377C247.041 111.902 247.906 110.257 247.429 108.707C246.953 107.157 245.311 106.291 243.765 106.766L243.758 106.768C236.236 109.088 228.869 111.7 221.505 114.222C220.832 114.452 220.42 115.149 220.565 115.862C220.727 116.635 221.48 117.132 222.251 116.978C229.904 115.414 237.516 113.776 245.129 112.466C245.247 112.444 245.377 112.414 245.494 112.377ZM242.47 152.77C244.073 153.021 245.571 151.93 245.821 150.324C246.072 148.722 244.979 147.217 243.376 146.965L243.352 146.961C239.678 146.384 236.082 146.205 232.585 146.007C229.086 145.813 225.666 145.584 222.32 144.937L222.315 144.934C221.628 144.801 220.93 145.189 220.695 145.871C220.44 146.616 220.834 147.432 221.577 147.692C225.021 148.884 228.574 149.634 232.035 150.33C235.499 151.025 238.885 151.692 242.06 152.674C242.187 152.712 242.336 152.747 242.47 152.77ZM233.351 190.585C234.587 191.273 236.141 190.827 236.825 189.592C237.506 188.358 237.063 186.803 235.827 186.115C229.364 182.517 222.739 179.641 216.301 176.469C215.743 176.195 215.055 176.371 214.708 176.903C214.332 177.482 214.497 178.254 215.072 178.628C221.149 182.595 227.389 186.264 233.09 190.416C233.169 190.475 233.267 190.536 233.351 190.585ZM92.3627 230.331C91.7682 231.61 92.3245 233.129 93.6031 233.723C94.8828 234.321 96.3984 233.766 96.993 232.487L96.9919 232.484C100.348 225.239 103.27 217.948 106.726 210.918C106.999 210.357 106.817 209.663 106.278 209.318C105.702 208.949 104.934 209.117 104.562 209.698C100.287 216.405 96.5378 223.41 92.4962 230.08C92.4455 230.16 92.3995 230.243 92.3627 230.331ZM56.5392 205.128C56.4564 205.191 56.3757 205.26 56.2995 205.332C55.1194 206.441 55.0642 208.297 56.1697 209.478C57.2799 210.662 59.132 210.718 60.3131 209.612C63.5381 206.576 67.2116 203.825 70.924 201.021C74.6318 198.214 78.4107 195.344 81.8386 192.029C82.3492 191.528 82.4199 190.704 81.969 190.125C81.4859 189.501 80.5919 189.389 79.9679 189.872L79.9654 189.876C76.3868 192.662 72.4715 195.025 68.4919 197.407C64.5123 199.789 60.4402 202.185 56.5525 205.121L56.5392 205.128ZM34.1538 167.131C34.068 167.156 33.9786 167.181 33.8948 167.213C32.3726 167.759 31.5827 169.437 32.1292 170.963C32.6748 172.485 34.3506 173.279 35.8729 172.734C45.7383 169.194 55.8556 166.213 66.0793 163.564C66.7841 163.379 67.2479 162.686 67.1321 161.954C67.0067 161.174 66.2723 160.645 65.496 160.769C55.0046 162.45 44.5363 164.484 34.161 167.129L34.1538 167.131ZM30.768 124.509C29.1606 124.321 27.7057 125.47 27.5189 127.081C27.3311 128.688 28.4844 130.146 30.0883 130.334L30.0954 130.332C35.6993 130.994 41.2525 131.206 46.7568 131.355C52.2575 131.505 57.7179 131.581 63.1505 131.913C63.8781 131.957 64.5343 131.438 64.6468 130.706C64.7649 129.926 64.2324 129.197 63.4528 129.079C57.9828 128.236 52.4953 127.657 47.066 127.011C41.6332 126.367 36.2525 125.661 31.0309 124.55C30.9457 124.536 30.8558 124.519 30.768 124.509ZM43.7023 83.6247C42.2383 82.9361 40.4949 83.5601 39.8063 85.0241C39.1186 86.4916 39.7437 88.2386 41.2087 88.9308C46.3376 91.3589 51.5487 93.3423 56.7066 95.3022C59.2861 96.2839 61.8518 97.258 64.3945 98.2734C66.9265 99.2918 69.4845 100.361 72.0328 101.409L72.0455 101.414C72.7194 101.689 73.5004 101.405 73.8426 100.747C74.2078 100.048 73.9354 99.1862 73.2361 98.8209C70.7861 97.5472 68.3601 96.2628 65.8758 94.9911C63.3982 93.7292 60.9067 92.5136 58.429 91.3058C53.4727 88.8865 48.5582 86.4785 43.9391 83.7505C43.861 83.7071 43.7829 83.6636 43.7023 83.6247ZM77.0505 50.4526C75.9966 49.2221 74.1497 49.0754 72.9191 50.1293C71.6921 51.1822 71.55 53.0317 72.6014 54.2669L72.6116 54.2756L74.925 56.9836L75.502 57.6659L76.0473 58.3726C76.3972 58.8412 76.8022 59.3404 77.1888 59.8295C78.7497 61.7816 80.3786 63.6331 82.0075 65.4576C85.269 69.1056 88.5601 72.6137 91.5207 76.3589L91.5283 76.3722C91.9777 76.9323 92.789 77.08 93.4068 76.6838C94.0715 76.2626 94.2684 75.3793 93.8472 74.7146C91.1964 70.5371 88.2161 66.6274 85.3885 62.7245C83.9772 60.7685 82.5904 58.817 81.3145 56.834C80.9978 56.3328 80.6883 55.8566 80.3604 55.316L79.8729 54.5271L79.3492 53.7602L77.2352 50.6938C77.1776 50.6136 77.1153 50.5308 77.0505 50.4526ZM116.015 31.6417L116.888 35.6838C117.035 36.3493 117.183 36.9796 117.353 37.6426L117.87 39.6484L120.034 47.6559C121.451 53.0237 122.758 58.4572 123.612 63.993C123.719 64.6815 123.181 65.3566 122.405 65.4964C121.669 65.6285 120.989 65.2347 120.832 64.6029L120.83 64.5957C119.537 59.2817 117.805 54.0811 115.951 48.8999L113.111 41.1119L112.389 39.1605C112.145 38.5071 111.904 37.8104 111.68 37.1474L110.377 33.1932C109.928 31.8365 110.816 30.339 112.353 29.8435C113.895 29.3541 115.504 30.0516 115.952 31.4083C115.978 31.4859 115.997 31.5656 116.015 31.6417Z" fill="#F2BB4D"/>
</g>
<defs>
<linearGradient id="paint0_linear_2889_10992" x1="167.679" y1="273.746" x2="192.924" y2="266.558" gradientUnits="userSpaceOnUse">
<stop stop-color="#5B636D"/>
<stop offset="0.015625" stop-color="#5B636D"/>
<stop offset="0.0234375" stop-color="#5B636D"/>
<stop offset="0.03125" stop-color="#5A626C"/>
<stop offset="0.0390625" stop-color="#5A626C"/>
<stop offset="0.046875" stop-color="#59616C"/>
<stop offset="0.0625" stop-color="#59606C"/>
<stop offset="0.078125" stop-color="#58606B"/>
<stop offset="0.09375" stop-color="#57606B"/>
<stop offset="0.101562" stop-color="#575F6A"/>
<stop offset="0.109375" stop-color="#565E6A"/>
<stop offset="0.117188" stop-color="#565E6A"/>
<stop offset="0.125" stop-color="#555E69"/>
<stop offset="0.140625" stop-color="#555E69"/>
<stop offset="0.148438" stop-color="#555D69"/>
<stop offset="0.15625" stop-color="#545C68"/>
<stop offset="0.171875" stop-color="#535C68"/>
<stop offset="0.1875" stop-color="#535C68"/>
<stop offset="0.203125" stop-color="#525B67"/>
<stop offset="0.21875" stop-color="#525B67"/>
<stop offset="0.226562" stop-color="#515A66"/>
<stop offset="0.234375" stop-color="#515966"/>
<stop offset="0.242188" stop-color="#515966"/>
<stop offset="0.25" stop-color="#505965"/>
<stop offset="0.265625" stop-color="#505965"/>
<stop offset="0.28125" stop-color="#4F5865"/>
<stop offset="0.289062" stop-color="#4F5865"/>
<stop offset="0.296875" stop-color="#4E5764"/>
<stop offset="0.304688" stop-color="#4E5764"/>
<stop offset="0.3125" stop-color="#4D5664"/>
<stop offset="0.320312" stop-color="#4D5664"/>
<stop offset="0.328125" stop-color="#4D5663"/>
<stop offset="0.34375" stop-color="#4D5563"/>
<stop offset="0.359375" stop-color="#4C5563"/>
<stop offset="0.375" stop-color="#4B5462"/>
<stop offset="0.390625" stop-color="#4B5462"/>
<stop offset="0.398438" stop-color="#4B5462"/>
<stop offset="0.40625" stop-color="#4A5362"/>
<stop offset="0.414062" stop-color="#4A5362"/>
<stop offset="0.421875" stop-color="#4A5361"/>
<stop offset="0.4375" stop-color="#495361"/>
<stop offset="0.453125" stop-color="#495261"/>
<stop offset="0.46875" stop-color="#485260"/>
<stop offset="0.484375" stop-color="#485260"/>
<stop offset="0.5" stop-color="#475160"/>
<stop offset="0.515625" stop-color="#475160"/>
<stop offset="0.53125" stop-color="#47505F"/>
<stop offset="0.546875" stop-color="#47505F"/>
<stop offset="0.5625" stop-color="#464F5F"/>
<stop offset="0.578125" stop-color="#464F5F"/>
<stop offset="0.59375" stop-color="#454E5E"/>
<stop offset="0.609375" stop-color="#454E5E"/>
<stop offset="0.625" stop-color="#444E5D"/>
<stop offset="0.640625" stop-color="#444E5D"/>
<stop offset="0.65625" stop-color="#434D5D"/>
<stop offset="0.6875" stop-color="#434C5D"/>
<stop offset="0.703125" stop-color="#434C5D"/>
<stop offset="0.71875" stop-color="#424C5C"/>
<stop offset="0.734375" stop-color="#424C5C"/>
<stop offset="0.75" stop-color="#424B5C"/>
<stop offset="0.78125" stop-color="#424B5C"/>
<stop offset="0.8125" stop-color="#414B5B"/>
<stop offset="0.84375" stop-color="#414B5B"/>
<stop offset="0.875" stop-color="#404A5B"/>
<stop offset="0.9375" stop-color="#404A5B"/>
<stop offset="1" stop-color="#3F495A"/>
</linearGradient>
</defs>
</svg>
