<svg width="51" height="50" viewBox="0 0 51 50" fill="none" xmlns="http://www.w3.org/2000/svg">
<rect x="0.50293" width="50.002" height="50.002" rx="7.57605" fill="#F2B200" fill-opacity="0.2"/>
<path d="M18.421 15.0586H32.5304C32.5656 15.0586 32.5995 15.0722 32.6249 15.0967C32.6502 15.1212 32.6651 15.1546 32.6663 15.1898C32.7179 16.4133 32.9054 25.9102 26.5725 28.6758V32.2289H24.421V28.6758C24.421 28.6758 18.4679 26.5055 18.2804 15.2039C18.2797 15.185 18.2829 15.1663 18.2897 15.1487C18.2965 15.131 18.3067 15.115 18.3198 15.1014C18.333 15.0879 18.3487 15.0771 18.3661 15.0697C18.3834 15.0624 18.4021 15.0586 18.421 15.0586Z" stroke="#F2B200" stroke-width="1.2"/>
<path d="M32.6851 16.6875H34.0397C34.2581 16.6875 34.4742 16.7306 34.6758 16.8143C34.8775 16.8979 35.0606 17.0206 35.2148 17.1752C35.3689 17.3298 35.491 17.5132 35.5742 17.7151C35.6573 17.917 35.6997 18.1333 35.6991 18.3516V20.2266C35.6999 20.7712 35.5664 21.3076 35.3105 21.7883C35.0546 22.269 34.6841 22.6793 34.2319 22.9828L30.0601 25.7953" stroke="#F2B200" stroke-width="1.2"/>
<path d="M18.3413 16.6875H16.935C16.7167 16.6875 16.5005 16.7306 16.2989 16.8143C16.0973 16.8979 15.9141 17.0206 15.76 17.1752C15.6059 17.3298 15.4837 17.5132 15.4006 17.7151C15.3175 17.917 15.275 18.1333 15.2756 18.3516V20.2266C15.2749 20.7712 15.4084 21.3076 15.6643 21.7883C15.9202 22.269 16.2906 22.6793 16.7428 22.9828L21.2803 25.9641" stroke="#F2B200" stroke-width="1.2"/>
<path d="M29.0194 32.2266H22.1663V34.9406H29.0194V32.2266Z" stroke="#F2B200" stroke-width="1.2"/>
</svg>
