<svg width="56" height="56" viewBox="0 0 56 56" fill="none" xmlns="http://www.w3.org/2000/svg">
<circle cx="28" cy="28" r="26" fill="black" stroke="white" stroke-width="4"/>
<path d="M37.2409 22.1692C37.7764 21.6038 38.0653 20.8488 38.0442 20.0703C38.023 19.2918 37.6935 18.5536 37.1281 18.0181C36.5627 17.4826 35.8077 17.1936 35.0292 17.2148C34.2507 17.2359 33.5125 17.5655 32.977 18.1309L19.4595 32.4103C19.2243 32.6579 19.0536 32.9596 18.9625 33.2887L17.7106 37.8579C17.6862 37.9487 17.6868 38.0444 17.7123 38.1349C17.7379 38.2254 17.7874 38.3073 17.8557 38.3719C17.9241 38.4365 18.0086 38.4813 18.1004 38.5018C18.1922 38.5222 18.2878 38.5174 18.377 38.4879L22.8722 36.9897C23.1956 36.8816 23.4875 36.6958 23.7223 36.4486L37.2409 22.1692Z" stroke="white" stroke-width="2.08333" stroke-linecap="round" stroke-linejoin="round"/>
</svg>
