<svg width="219" height="247" viewBox="0 0 219 247" fill="none" xmlns="http://www.w3.org/2000/svg">
<path d="M179.247 146.479H41.9169L10.9998 159.901H207.647L179.247 146.479Z" fill="#DBFBF9" fill-opacity="0.933333" stroke="#E5FFFE" stroke-width="0.719424"/>
<rect x="11.115" y="160.537" width="196.885" height="86.463" fill="url(#paint0_linear_5506_8801)"/>
<line x1="17.4705" y1="204.062" x2="200.829" y2="204.062" stroke="#EEEEEE" stroke-opacity="0.1" stroke-width="0.719424"/>
<g opacity="0.15" filter="url(#filter0_f_5506_8801)">
<ellipse cx="109.502" cy="100.972" rx="73.3383" ry="64.4952" fill="#24B2B4"/>
</g>
<path fill-rule="evenodd" clip-rule="evenodd" d="M108.303 19L110.379 22.3379L114.601 23.1888L111.667 26.0031L112.168 29.9956L108.303 28.2284L104.367 29.9956L104.94 26.0031L102.006 23.1888L106.228 22.3379L108.303 19ZM131.201 43.8445L124.823 48.406C121.096 51.0981 115.936 49.6025 114.073 45.34L109.2 34.497C108.77 33.5997 107.552 33.5997 107.194 34.497L102.464 45.2653C100.529 49.6773 95.226 51.0981 91.4996 48.2564L85.3366 43.5453C84.4767 42.8723 83.2584 43.7697 83.6168 44.8914L90.0664 58.7256C90.138 58.9499 90.353 59.0247 90.4963 59.0247H126.112C126.327 59.0247 126.471 58.8751 126.542 58.7256L132.849 45.2653C133.279 44.1436 132.06 43.2462 131.201 43.8445ZM84.4037 40.5564C84.4037 41.8367 83.4091 42.8746 82.1822 42.8746C80.9553 42.8746 79.9607 41.8367 79.9607 40.5564C79.9607 39.2762 80.9553 38.2383 82.1822 38.2383C83.4091 38.2383 84.4037 39.2762 84.4037 40.5564ZM136.431 40.5564C136.431 41.8367 135.437 42.8746 134.21 42.8746C132.983 42.8746 131.988 41.8367 131.988 40.5564C131.988 39.2762 132.983 38.2383 134.21 38.2383C135.437 38.2383 136.431 39.2762 136.431 40.5564Z" fill="url(#paint1_linear_5506_8801)"/>
<path fill-rule="evenodd" clip-rule="evenodd" d="M108 133.364C128.658 133.364 145.403 116.625 145.403 95.9806C145.403 75.3359 128.658 58.5971 108 58.5971C87.3411 58.5971 70.5969 75.3359 70.5969 95.9806C70.5969 116.625 87.3411 133.364 108 133.364ZM108 136.961C130.643 136.961 149 118.614 149 95.9806C149 73.3476 130.643 55 108 55C85.3561 55 66.9998 73.3476 66.9998 95.9806C66.9998 118.614 85.3561 136.961 108 136.961Z" fill="url(#paint2_linear_5506_8801)"/>
<path d="M145.561 96.4269C145.561 117.161 128.745 133.97 108 133.97C87.2547 133.97 70.4386 117.161 70.4386 96.4269C70.4386 75.6932 87.2547 58.8842 108 58.8842C128.745 58.8842 145.561 75.6932 145.561 96.4269Z" stroke="#423F55" stroke-width="2.87769"/>
<path d="M57.7877 131.095C56.8391 129.66 57.868 127.746 59.5881 127.746H156.401C158.121 127.746 159.15 129.66 158.201 131.095L150.571 142.637C150.171 143.241 149.495 143.605 148.77 143.605H67.2185C66.4939 143.605 65.8177 143.241 65.4181 142.637L57.7877 131.095Z" fill="black"/>
<path d="M57.7877 133.6C56.8391 132.166 57.868 130.252 59.5881 130.252H156.401C158.121 130.252 159.15 132.166 158.201 133.6L150.571 145.143C150.171 145.747 149.495 146.111 148.77 146.111H67.2185C66.4939 146.111 65.8177 145.747 65.4181 145.143L57.7877 133.6Z" fill="url(#paint3_linear_5506_8801)"/>
<ellipse opacity="0.5" cx="43.3545" cy="60.0473" rx="3.59502" ry="3.27387" fill="#24B2B4"/>
<ellipse opacity="0.5" cx="174.934" cy="27.9643" rx="2.15701" ry="1.96432" fill="#24B2B4"/>
<ellipse opacity="0.8" cx="172.416" cy="66.924" rx="1.79751" ry="1.63693" fill="#24B2B4"/>
<defs>
<filter id="filter0_f_5506_8801" x="0.192631" y="0.505375" width="218.619" height="200.933" filterUnits="userSpaceOnUse" color-interpolation-filters="sRGB">
<feFlood flood-opacity="0" result="BackgroundImageFix"/>
<feBlend mode="normal" in="SourceGraphic" in2="BackgroundImageFix" result="shape"/>
<feGaussianBlur stdDeviation="17.9856" result="effect1_foregroundBlur_5506_8801"/>
</filter>
<linearGradient id="paint0_linear_5506_8801" x1="109.557" y1="160.537" x2="109.557" y2="247" gradientUnits="userSpaceOnUse">
<stop stop-color="#DBFBF9"/>
<stop offset="1" stop-color="white"/>
</linearGradient>
<linearGradient id="paint1_linear_5506_8801" x1="74.4905" y1="58.9731" x2="151.62" y2="58.9731" gradientUnits="userSpaceOnUse">
<stop offset="0.106383" stop-color="#24B2B4"/>
<stop offset="0.888889" stop-color="#1C756F"/>
</linearGradient>
<linearGradient id="paint2_linear_5506_8801" x1="59.8486" y1="136.814" x2="160.68" y2="136.814" gradientUnits="userSpaceOnUse">
<stop offset="0.106383" stop-color="#24B2B4"/>
<stop offset="0.888889" stop-color="#1C756B"/>
</linearGradient>
<linearGradient id="paint3_linear_5506_8801" x1="46.4309" y1="146.111" x2="175.348" y2="146.111" gradientUnits="userSpaceOnUse">
<stop offset="0.106383" stop-color="#24B2B4"/>
<stop offset="0.888889" stop-color="#036D69"/>
</linearGradient>
</defs>
</svg>
