<svg width="38" height="38" viewBox="0 0 38 38" fill="none" xmlns="http://www.w3.org/2000/svg">
<mask id="mask0_1066_27499" style="mask-type:luminance" maskUnits="userSpaceOnUse" x="3" y="3" width="32" height="32">
<path d="M35 3H3V35H35V3Z" fill="white"/>
</mask>
<g mask="url(#mask0_1066_27499)">
<path d="M15.6664 28.3307C14.8605 28.3307 12.3496 28.3307 10.4893 28.3307C9.49809 28.3307 8.85464 27.2877 9.29791 26.4011L10.4367 24.1235C10.807 23.383 10.9998 22.5673 10.9998 21.7393C10.9998 20.713 10.9998 19.1886 10.9998 17.6641C10.9998 14.9974 12.3331 9.66406 18.9998 9.66406C25.6664 9.66406 26.9998 14.9974 26.9998 17.6641C26.9998 19.1886 26.9998 20.713 26.9998 21.7393C26.9998 22.5673 27.1926 23.383 27.5628 24.1235L28.7016 26.4011C29.1448 27.2877 28.5002 28.3307 27.5091 28.3307H22.3331M15.6664 28.3307C15.6664 30.9974 16.9998 32.3307 18.9998 32.3307C20.9998 32.3307 22.3331 30.9974 22.3331 28.3307M15.6664 28.3307C17.7492 28.3307 22.3331 28.3307 22.3331 28.3307" stroke="black" stroke-width="2" stroke-linejoin="round"/>
<path d="M19 9.66667V7" stroke="black" stroke-width="2" stroke-linecap="round" stroke-linejoin="round"/>
</g>
<mask id="path-5-inside-1_1066_27499" fill="white">
<path d="M17.913 16.9565C17.913 17.4754 17.7069 17.9731 17.34 18.34C16.9731 18.7069 16.4754 18.913 15.9565 18.913C15.4376 18.913 14.94 18.7069 14.5731 18.34C14.2061 17.9731 14 17.4754 14 16.9565L14.9783 16.9565C14.9783 17.216 15.0813 17.4648 15.2648 17.6483C15.4482 17.8317 15.6971 17.9348 15.9565 17.9348C16.216 17.9348 16.4648 17.8317 16.6483 17.6483C16.8317 17.4648 16.9348 17.216 16.9348 16.9565H17.913Z"/>
</mask>
<path d="M17.913 16.9565C17.913 17.4754 17.7069 17.9731 17.34 18.34C16.9731 18.7069 16.4754 18.913 15.9565 18.913C15.4376 18.913 14.94 18.7069 14.5731 18.34C14.2061 17.9731 14 17.4754 14 16.9565L14.9783 16.9565C14.9783 17.216 15.0813 17.4648 15.2648 17.6483C15.4482 17.8317 15.6971 17.9348 15.9565 17.9348C16.216 17.9348 16.4648 17.8317 16.6483 17.6483C16.8317 17.4648 16.9348 17.216 16.9348 16.9565H17.913Z" stroke="black" stroke-width="3" mask="url(#path-5-inside-1_1066_27499)"/>
<mask id="path-6-inside-2_1066_27499" fill="white">
<path d="M24 16.9565C24 17.4754 23.7938 17.9731 23.4269 18.34C23.06 18.7069 22.5623 18.913 22.0434 18.913C21.5245 18.913 21.0269 18.7069 20.66 18.34C20.293 17.9731 20.0869 17.4754 20.0869 16.9565L21.0652 16.9565C21.0652 17.216 21.1682 17.4648 21.3517 17.6483C21.5352 17.8317 21.784 17.9348 22.0434 17.9348C22.3029 17.9348 22.5517 17.8317 22.7352 17.6483C22.9186 17.4648 23.0217 17.216 23.0217 16.9565H24Z"/>
</mask>
<path d="M24 16.9565C24 17.4754 23.7938 17.9731 23.4269 18.34C23.06 18.7069 22.5623 18.913 22.0434 18.913C21.5245 18.913 21.0269 18.7069 20.66 18.34C20.293 17.9731 20.0869 17.4754 20.0869 16.9565L21.0652 16.9565C21.0652 17.216 21.1682 17.4648 21.3517 17.6483C21.5352 17.8317 21.784 17.9348 22.0434 17.9348C22.3029 17.9348 22.5517 17.8317 22.7352 17.6483C22.9186 17.4648 23.0217 17.216 23.0217 16.9565H24Z" stroke="black" stroke-width="3" mask="url(#path-6-inside-2_1066_27499)"/>
<circle cx="19" cy="22" r="0.782609" fill="black" stroke="black" stroke-width="0.434783"/>
</svg>
