<svg width="88" height="88" viewBox="0 0 88 88" fill="none" xmlns="http://www.w3.org/2000/svg">
<path fill-rule="evenodd" clip-rule="evenodd" d="M1.23958 7.64179C0.628922 6.96941 0.235471 6.14602 0.105863 5.26922C-0.0237441 4.39242 0.115924 3.49896 0.508316 2.69472C0.900707 1.89048 1.52937 1.20919 2.3198 0.73159C3.11023 0.253986 4.02929 9.2555e-05 4.96805 0H65.625C68.4977 -4.03672e-08 71.3422 0.533577 73.9962 1.57027C76.6502 2.60696 79.0617 4.12645 81.093 6.04201C83.1242 7.95756 84.7355 10.2316 85.8349 12.7344C86.9342 15.2372 87.5 17.9197 87.5 20.6287C87.5 23.3377 86.9342 26.0202 85.8349 28.523C84.7355 31.0257 83.1242 33.2998 81.093 35.2154C79.0617 37.1309 76.6502 38.6504 73.9962 39.6871C71.3422 40.7238 68.4977 41.2574 65.625 41.2574H4.96805C4.02929 41.2573 3.11023 41.0034 2.3198 40.5258C1.52937 40.0482 0.900707 39.3669 0.508316 38.5627C0.115924 37.7584 -0.0237441 36.865 0.105863 35.9882C0.235471 35.1114 0.628922 34.288 1.23958 33.6156L4.90486 29.5816C7.17073 27.0889 8.41623 23.9141 8.41623 20.631C8.41623 17.3479 7.17073 14.173 4.90486 11.6804L1.23958 7.64179ZM14.8847 9.16831C17.018 12.6527 18.1411 16.6053 18.1411 20.6287C18.1411 24.6521 17.018 28.6047 14.8847 32.0891H65.625C68.8481 32.0891 71.9392 30.8817 74.2183 28.7324C76.4974 26.5832 77.7778 23.6682 77.7778 20.6287C77.7778 17.5892 76.4974 14.6742 74.2183 12.525C71.9392 10.3757 68.8481 9.16831 65.625 9.16831H14.8847ZM0 66.4702C0 60.9992 2.30468 55.7522 6.40704 51.8836C10.5094 48.0149 16.0734 45.8416 21.875 45.8416H82.532C83.4707 45.8416 84.3898 46.0955 85.1802 46.5731C85.9706 47.0507 86.5993 47.732 86.9917 48.5363C87.3841 49.3405 87.5237 50.234 87.3941 51.1108C87.2645 51.9876 86.8711 52.811 86.2604 53.4833L82.5903 57.5174C80.3244 60.01 79.0789 63.1848 79.0789 66.468C79.0789 69.7511 80.3244 72.9259 82.5903 75.4185L86.2604 79.4526C86.8726 80.1248 87.2673 80.9487 87.3978 81.8262C87.5282 82.7038 87.3889 83.5982 86.9963 84.4033C86.6037 85.2084 85.9744 85.8903 85.1831 86.3681C84.3917 86.846 83.4716 87.0996 82.532 87.0989H21.875C16.0734 87.0989 10.5094 84.9256 6.40704 81.0569C2.30468 77.1883 0 71.9413 0 66.4702ZM21.875 55.0099C18.6519 55.0099 15.5608 56.2173 13.2817 58.3665C11.0026 60.5158 9.72222 63.4308 9.72222 66.4702C9.72222 69.5097 11.0026 72.4247 13.2817 74.574C15.5608 76.7232 18.6519 77.9306 21.875 77.9306H72.6153C70.482 74.4462 69.359 70.4937 69.359 66.4702C69.359 62.4468 70.482 58.4943 72.6153 55.0099H21.875Z" fill="white" fill-opacity="0.78"/>
</svg>
