<svg width="200" height="203" viewBox="0 0 200 203" fill="none" xmlns="http://www.w3.org/2000/svg">
<path d="M28.5714 29.077C28.5714 21.3891 31.5816 14.0161 36.9398 8.57995C42.298 3.1438 49.5652 0.0898032 57.1429 0.0898032C64.7205 0.0898032 71.9877 3.1438 77.3459 8.57995C82.7041 14.0161 85.7143 21.3891 85.7143 29.077C85.7143 36.7649 82.7041 44.1379 77.3459 49.574C71.9877 55.0102 64.7205 58.0641 57.1429 58.0641C49.5652 58.0641 42.298 55.0102 36.9398 49.574C31.5816 44.1379 28.5714 36.7649 28.5714 29.077ZM57.1429 14.5834C53.354 14.5834 49.7204 16.1104 47.0413 18.8285C44.3622 21.5465 42.8571 25.233 42.8571 29.077C42.8571 32.9209 44.3622 36.6074 47.0413 39.3255C49.7204 42.0436 53.354 43.5706 57.1429 43.5706C60.9317 43.5706 64.5653 42.0436 67.2444 39.3255C69.9235 36.6074 71.4286 32.9209 71.4286 29.077C71.4286 25.233 69.9235 21.5465 67.2444 18.8285C64.5653 16.1104 60.9317 14.5834 57.1429 14.5834ZM125.414 52.0348C122.421 49.7186 119.909 46.8253 118.022 43.521C116.134 40.2167 114.909 36.5665 114.417 32.7804C113.924 28.9942 114.174 25.1465 115.151 21.4586C116.129 17.7706 117.815 14.315 120.113 11.2903C122.412 8.26557 125.276 5.7314 128.543 3.83338C131.809 1.93536 135.413 0.710907 139.147 0.230378C142.882 -0.250151 146.673 0.0227164 150.303 1.0333C153.933 2.04389 157.33 3.77227 160.3 6.11913C166.147 10.8644 169.924 17.7487 170.819 25.2908C171.714 32.8329 169.655 40.43 165.085 46.4475C160.515 52.4649 153.799 56.4218 146.383 57.4668C138.966 58.5117 131.428 56.5611 125.414 52.0348ZM142.857 14.5834C139.068 14.5834 135.435 16.1104 132.756 18.8285C130.077 21.5465 128.571 25.233 128.571 29.077C128.571 32.9209 130.077 36.6074 132.756 39.3255C135.435 42.0436 139.068 43.5706 142.857 43.5706C146.646 43.5706 150.28 42.0436 152.959 39.3255C155.638 36.6074 157.143 32.9209 157.143 29.077C157.143 25.233 155.638 21.5465 152.959 18.8285C150.28 16.1104 146.646 14.5834 142.857 14.5834ZM21.4286 72.5577H59.5714C58 77.0942 57.1429 81.9786 57.1429 87.0513H21.4286C19.5342 87.0513 17.7174 87.8148 16.3778 89.1739C15.0383 90.5329 14.2857 92.3761 14.2857 94.2981C14.2857 106.139 18.9286 114.922 26.2571 120.894C29.6286 123.648 33.6714 125.865 38.2429 127.488C34.8858 131.109 32.2989 135.391 30.6429 140.069C25.8447 138.121 21.354 135.469 17.3143 132.199C6.57143 123.43 0 110.473 0 94.2981C0 88.5322 2.25765 83.0024 6.27628 78.9253C10.2949 74.8482 15.7454 72.5577 21.4286 72.5577ZM75.2571 72.5577C71.4683 79.2193 70.443 87.135 72.4068 94.5635C74.3706 101.992 79.1626 108.325 85.7286 112.169C92.2946 116.013 100.097 117.053 107.419 115.061C114.741 113.068 120.983 108.206 124.771 101.545C128.56 94.8834 129.586 86.9677 127.622 79.5392C125.658 72.1107 120.866 65.7779 114.3 61.9339C107.734 58.09 99.9318 57.0498 92.6099 59.0421C85.2879 61.0345 79.046 65.8962 75.2571 72.5577ZM96.8 72.9201C98.8931 72.4404 101.066 72.4437 103.157 72.93C105.249 73.4162 107.206 74.3728 108.885 75.7293C110.563 77.0857 111.92 78.8073 112.855 80.767C113.79 82.7266 114.279 84.8743 114.286 87.0513C114.286 88.1721 114.167 89.2543 113.929 90.2979C113.355 92.8185 112.128 95.1375 110.373 97.0143C108.619 98.8911 106.401 100.257 103.95 100.971C101.499 101.685 98.9052 101.72 96.4365 101.073C93.9678 100.426 91.7148 99.1212 89.9111 97.2928C88.1075 95.4645 86.819 93.1797 86.1795 90.6756C85.5399 88.1716 85.5725 85.5395 86.274 83.0525C86.9755 80.5656 88.3202 78.3144 90.1686 76.5327C92.017 74.751 94.3161 73.5036 96.8 72.9201ZM173.729 120.894C170.357 123.648 166.314 125.865 161.743 127.488C165.095 131.11 167.677 135.392 169.329 140.069C174.186 138.054 178.686 135.431 182.671 132.199C193.429 123.43 200 110.473 200 94.2981C200 88.5322 197.742 83.0024 193.724 78.9253C189.705 74.8482 184.255 72.5577 178.571 72.5577H140.429C142 77.0942 142.857 81.9786 142.857 87.0513H178.571C180.466 87.0513 182.283 87.8148 183.622 89.1739C184.962 90.5329 185.714 92.3761 185.714 94.2981C185.714 106.139 181.057 114.922 173.729 120.894ZM135.714 130.532C141.397 130.532 146.848 132.823 150.867 136.9C154.885 140.977 157.143 146.507 157.143 152.272C157.143 168.447 150.586 181.405 139.829 190.173C129.243 198.797 115.043 203 100 203C84.9571 203 70.7571 198.797 60.1714 190.173C49.4286 181.405 42.8571 168.447 42.8571 152.272C42.8496 149.415 43.3987 146.585 44.4729 143.944C45.5472 141.303 47.1253 138.903 49.1166 136.883C51.1079 134.862 53.4732 133.261 56.0764 132.171C58.6797 131.082 61.4696 130.524 64.2857 130.532H135.714ZM135.714 145.026H64.2857C62.3913 145.026 60.5745 145.789 59.235 147.148C57.8954 148.507 57.1429 150.35 57.1429 152.272C57.1429 164.114 61.7857 172.897 69.1143 178.868C76.6286 184.984 87.4286 188.506 100 188.506C112.571 188.506 123.371 184.984 130.886 178.868C138.214 172.897 142.857 164.114 142.857 152.272C142.857 150.35 142.105 148.507 140.765 147.148C139.426 145.789 137.609 145.026 135.714 145.026Z" fill="white" fill-opacity="0.77"/>
</svg>
