<svg width="100" height="100" viewBox="0 0 100 100" fill="none" xmlns="http://www.w3.org/2000/svg">
<path d="M50 90C56.25 90 61.5633 87.8133 65.94 83.44C70.3167 79.0667 72.5033 73.7533 72.5 67.5C72.4967 61.2467 70.31 55.935 65.94 51.565C61.57 47.195 56.2567 45.0067 50 45C43.7433 44.9933 38.4317 47.1817 34.065 51.565C29.6983 55.9483 27.51 61.26 27.5 67.5C27.49 73.74 29.6783 79.0533 34.065 83.44C38.4517 87.8266 43.7633 90.0133 50 90ZM35.375 38.5C37.0417 37.5833 38.8133 36.855 40.69 36.315C42.5667 35.775 44.4617 35.42 46.375 35.25L33.75 10H21.25L35.375 38.5ZM64.625 38.5L78.875 10H66.25L55.625 31.25L58 36C59.1667 36.3333 60.2917 36.6883 61.375 37.065C62.4583 37.4417 63.5417 37.92 64.625 38.5ZM22 84C20.5833 81.5833 19.4783 78.98 18.685 76.19C17.8917 73.4 17.4967 70.5033 17.5 67.5C17.5033 64.4967 17.9 61.6017 18.69 58.815C19.48 56.0283 20.5833 53.4233 22 51C18.5 52.1667 15.625 54.23 13.375 57.19C11.125 60.15 10 63.5867 10 67.5C10 71.4133 11.125 74.8517 13.375 77.815C15.625 80.7783 18.5 82.84 22 84ZM78 84C81.5 82.8333 84.375 80.7717 86.625 77.815C88.875 74.8583 90 71.42 90 67.5C90 63.58 88.875 60.1433 86.625 57.19C84.375 54.2367 81.5 52.1733 78 51C79.4167 53.4167 80.5217 56.0217 81.315 58.815C82.1083 61.6083 82.5033 64.5033 82.5 67.5C82.4967 70.4967 82.1 73.3933 81.31 76.19C80.52 78.9867 79.4167 81.59 78 84ZM50 100C46.6667 100 43.48 99.52 40.44 98.56C37.4 97.6 34.5867 96.29 32 94.63C31.25 94.7967 30.5 94.9016 29.75 94.945C29 94.9883 28.2083 95.0066 27.375 95C19.7917 95 13.3333 92.3333 8 87C2.66667 81.6666 0 75.2083 0 67.625C0 60.375 2.41667 54.1667 7.25 49C12.0833 43.8333 18.0417 40.9583 25.125 40.375L5 0H40L50 20L60 0H95L75 40.125C82.0833 40.7917 88.0217 43.7083 92.815 48.875C97.6083 54.0417 100.003 60.25 100 67.5C100 75.1666 97.3333 81.6666 92 87C86.6667 92.3333 80.1667 95 72.5 95C71.75 95 70.98 94.98 70.19 94.94C69.4 94.9 68.6283 94.795 67.875 94.625C65.2917 96.2916 62.5 97.605 59.5 98.565C56.5 99.525 53.3333 100.003 50 100ZM40.75 81.25L44.25 69.875L35 63.25H46.375L50 51.25L53.625 63.25H65L55.75 69.875L59.25 81.25L50 74.25L40.75 81.25Z" fill="white" fill-opacity="0.62"/>
</svg>
