<svg width="64" height="65" viewBox="0 0 64 65" fill="none" xmlns="http://www.w3.org/2000/svg">
<path d="M31.9937 13.1694C22.2312 13.1694 14.3125 21.0819 14.3125 30.8507C14.3125 37.3382 17.8062 43.0132 23.0187 46.0882V51.7007C23.0187 51.7819 23.0187 51.8569 23.025 51.9382C23.0312 52.1382 23.0437 52.3382 23.0625 52.5382C23.4875 57.0882 27.35 60.6819 32.0062 60.6819C34.475 60.6819 36.7187 59.6694 38.35 58.0444C39.7875 56.6069 40.7438 54.6819 40.95 52.5507C40.9688 52.3507 40.9812 52.1507 40.9875 51.9507C40.9875 51.8694 40.9938 51.7819 40.9938 51.7007V46.0757L41.0312 46.0569C46.2125 42.9757 49.6875 37.3194 49.6875 30.8507C49.675 21.0819 41.7625 13.1694 31.9937 13.1694ZM38.2313 51.7007C38.2313 52.0632 38.2 52.4194 38.1375 52.7632C38.0688 53.1694 37.9563 53.5632 37.8063 53.9444C37.4938 54.7382 37.0187 55.4757 36.3937 56.1007C35.2125 57.2819 33.65 57.9319 31.9937 57.9319C30.3375 57.9319 28.775 57.2819 27.5938 56.1007C26.9688 55.4757 26.4875 54.7382 26.175 53.9382C26.025 53.5569 25.9188 53.1632 25.85 52.7569C25.7875 52.4132 25.7625 52.0569 25.7625 51.7007V51.1507H38.225V51.7007H38.2313ZM38.2313 50.1507H25.7687V47.1694H38.2313V50.1507ZM42.55 41.4069C42.0625 41.8944 41.5562 42.3382 41.0187 42.7444C40.1625 43.3944 39.2437 43.9507 38.2687 44.4007L38.2313 44.4194V44.4257H25.7687C24.8062 43.9819 23.9 43.4444 23.0562 42.8132C22.4875 42.3882 21.95 41.9194 21.4375 41.4069C20.0625 40.0319 18.9875 38.4382 18.2375 36.6632C17.4562 34.8257 17.0625 32.8694 17.0625 30.8507C17.0625 28.8319 17.4562 26.8819 18.2375 25.0382C18.9875 23.2632 20.0687 21.6632 21.4375 20.2882C22.8125 18.9132 24.4062 17.8382 26.1875 17.0882C28.025 16.3132 29.9812 15.9194 32 15.9194C34.0187 15.9194 35.975 16.3132 37.8125 17.0882C39.5875 17.8382 41.1875 18.9194 42.5625 20.2882C43.9375 21.6632 45.0125 23.2569 45.7625 25.0382C46.5375 26.8757 46.9375 28.8319 46.9375 30.8507C46.9375 32.8694 46.5438 34.8194 45.7625 36.6632C45 38.4382 43.925 40.0319 42.55 41.4069Z" fill="#37E743"/>
<path d="M31.9922 27.7129C29.5109 27.7129 27.4922 29.7316 27.4922 32.2129C27.4922 34.5441 29.2797 36.4691 31.5547 36.6941V44.4254H32.4297V36.6941C34.7047 36.4754 36.4922 34.5504 36.4922 32.2129C36.4922 29.7316 34.4734 27.7129 31.9922 27.7129ZM31.9922 35.7129C30.0609 35.7129 28.4922 34.1441 28.4922 32.2129C28.4922 30.2816 30.0609 28.7129 31.9922 28.7129C33.9234 28.7129 35.4922 30.2816 35.4922 32.2129C35.4922 34.1441 33.9234 35.7129 31.9922 35.7129Z" fill="#37E743"/>
<path d="M29.5391 7.16953C29.5391 7.82263 29.7985 8.44897 30.2603 8.91078C30.7221 9.37259 31.3485 9.63203 32.0016 9.63203C32.6547 9.63203 33.281 9.37259 33.7428 8.91078C34.2046 8.44897 34.4641 7.82263 34.4641 7.16953C34.4641 6.51644 34.2046 5.89009 33.7428 5.42828C33.281 4.96647 32.6547 4.70703 32.0016 4.70703C31.3485 4.70703 30.7221 4.96647 30.2603 5.42828C29.7985 5.89009 29.5391 6.51644 29.5391 7.16953Z" fill="#37E743"/>
<path d="M12.8008 14.1007C12.8008 14.4241 12.8645 14.7443 12.9882 15.043C13.112 15.3418 13.2934 15.6133 13.522 15.8419C13.7507 16.0706 14.0222 16.252 14.3209 16.3757C14.6197 16.4995 14.9399 16.5632 15.2633 16.5632C15.5867 16.5632 15.9069 16.4995 16.2056 16.3757C16.5044 16.252 16.7759 16.0706 17.0045 15.8419C17.2332 15.6133 17.4146 15.3418 17.5383 15.043C17.6621 14.7443 17.7258 14.4241 17.7258 14.1007C17.7258 13.4476 17.4663 12.8212 17.0045 12.3594C16.5427 11.8976 15.9164 11.6382 15.2633 11.6382C14.6102 11.6382 13.9838 11.8976 13.522 12.3594C13.0602 12.8212 12.8008 13.4476 12.8008 14.1007Z" fill="#37E743"/>
<path d="M5.86719 30.8316C5.86719 31.155 5.93088 31.4752 6.05463 31.774C6.17839 32.0728 6.35977 32.3442 6.58844 32.5729C6.8171 32.8016 7.08857 32.9829 7.38733 33.1067C7.68609 33.2304 8.00631 33.2941 8.32969 33.2941C8.65307 33.2941 8.97328 33.2304 9.27205 33.1067C9.57081 32.9829 9.84227 32.8016 10.0709 32.5729C10.2996 32.3442 10.481 32.0728 10.6047 31.774C10.7285 31.4752 10.7922 31.155 10.7922 30.8316C10.7922 30.1785 10.5327 29.5522 10.0709 29.0904C9.60913 28.6286 8.98278 28.3691 8.32969 28.3691C7.67659 28.3691 7.05025 28.6286 6.58844 29.0904C6.12663 29.5522 5.86719 30.1785 5.86719 30.8316Z" fill="#37E743"/>
<path d="M53.207 30.8316C53.207 31.155 53.2707 31.4752 53.3945 31.774C53.5182 32.0728 53.6996 32.3442 53.9283 32.5729C54.1569 32.8016 54.4284 32.9829 54.7272 33.1067C55.0259 33.2304 55.3462 33.2941 55.6695 33.2941C55.9929 33.2941 56.3131 33.2304 56.6119 33.1067C56.9107 32.9829 57.1821 32.8016 57.4108 32.5729C57.6394 32.3442 57.8208 32.0728 57.9446 31.774C58.0683 31.4752 58.132 31.155 58.132 30.8316C58.132 30.5083 58.0683 30.188 57.9446 29.8893C57.8208 29.5905 57.6394 29.3191 57.4108 29.0904C57.1821 28.8617 56.9107 28.6803 56.6119 28.5566C56.3131 28.4328 55.9929 28.3691 55.6695 28.3691C55.3462 28.3691 55.0259 28.4328 54.7272 28.5566C54.4284 28.6803 54.1569 28.8617 53.9283 29.0904C53.6996 29.3191 53.5182 29.5905 53.3945 29.8893C53.2707 30.188 53.207 30.5083 53.207 30.8316Z" fill="#37E743"/>
<path d="M46.2734 14.1007C46.2734 14.7538 46.5329 15.3801 46.9947 15.8419C47.4565 16.3037 48.0828 16.5632 48.7359 16.5632C49.389 16.5632 50.0154 16.3037 50.4772 15.8419C50.939 15.3801 51.1984 14.7538 51.1984 14.1007C51.1984 13.4476 50.939 12.8212 50.4772 12.3594C50.0154 11.8976 49.389 11.6382 48.7359 11.6382C48.0828 11.6382 47.4565 11.8976 46.9947 12.3594C46.5329 12.8212 46.2734 13.4476 46.2734 14.1007Z" fill="#37E743"/>
</svg>
