<svg width="64" height="53" viewBox="0 0 64 53" fill="none" xmlns="http://www.w3.org/2000/svg">
<path d="M10.8454 24.362C5.24214 23.1828 -2.4788 27.4977 0.771733 34.7744C4.95522 44.1336 20.4378 40.9775 20.4378 40.9775C20.4378 40.9775 30.9151 29.1452 24.8971 20.8467C20.2268 14.3901 12.6262 18.9179 10.8454 24.362Z" fill="#FF2424"/>
<path d="M42.4485 38.9505C41.2323 36.396 38.5538 34.5005 36.0029 34.5005C34.7201 34.5005 32.8635 34.954 31.2974 37.1105C26.7419 43.4024 34.0926 51.8361 34.4073 52.1915L34.6479 52.4617L35.0052 52.5339C35.0792 52.5506 36.8507 52.906 39.1683 52.906C44.4754 52.906 48.0888 51.0975 49.6159 47.684C50.5119 45.6793 50.4286 43.6838 49.379 42.0641C48.0406 40.0075 45.1918 38.7284 42.4485 38.9505ZM47.6223 46.7974C45.4602 51.6454 37.5986 50.755 35.7975 50.4625C34.659 49.0613 29.9073 42.7379 33.0597 38.3878C33.8797 37.2531 34.8701 36.6774 35.9992 36.6774C37.9133 36.6774 40.0346 38.3841 40.7214 40.487L41.025 41.4144L41.9801 41.2126C44.0071 40.7887 46.5487 41.7124 47.5501 43.2525C48.2017 44.2595 48.2276 45.4516 47.6223 46.7974Z" fill="#FF2424"/>
<path d="M61.6403 8.0316C59.519 5.54002 56.1296 4.11097 52.3478 4.11097C51.0724 4.11097 49.8174 4.27387 48.6234 4.59411C46.0985 2.06735 42.537 0.480957 39.1143 0.480957C34.6346 0.480957 31.0824 3.05769 29.3664 7.55032C24.6516 19.8805 39.9325 30.1634 40.5859 30.5928L41.4967 31.1963L42.5851 31.1278C43.3681 31.0834 61.744 29.8191 63.8246 16.7818C64.5151 12.4779 63.0194 9.64947 61.6403 8.0316ZM57.3736 15.7525C56.3443 22.1962 46.615 24.0436 43.2922 24.486C40.6303 22.4461 33.1315 16.0136 35.4732 9.8827C36.2099 7.95201 37.402 7.01535 39.118 7.01535C41.1838 7.01535 43.6513 8.40367 44.8564 10.2511L46.4558 12.7038L49.0677 11.3802C50.0006 10.9082 51.1668 10.6472 52.3478 10.6472C54.1841 10.6472 55.7983 11.2544 56.6701 12.2725C57.3847 13.111 57.6161 14.2495 57.3736 15.7525Z" fill="#FF2424"/>
</svg>
