<svg width="64" height="65" viewBox="0 0 64 65" fill="none" xmlns="http://www.w3.org/2000/svg">
<path d="M31.3885 46.6655L20.0726 62.932L17.171 55.0927H9.43359L19.2988 41.472C21.2332 42.6479 23.2642 42.8439 24.715 43.1379C25.1986 43.2359 25.7789 43.3339 26.0691 43.3339C26.2625 43.4319 26.7461 43.8238 27.0362 44.1178C28.1969 44.9017 29.6476 46.0776 31.3885 46.6655ZM49.8616 41.472C47.9273 42.6479 45.8962 42.8439 44.4454 43.1379C43.9619 43.2359 43.2848 43.3339 42.9947 43.3339C42.8012 43.4319 42.3177 43.8238 42.0275 44.1178C40.9636 44.9017 39.6096 46.0776 37.7719 46.6655L49.0879 62.932L51.9894 55.0927H59.7269L49.8616 41.472ZM34.5802 15.8965C30.8082 15.8965 27.81 18.9343 27.81 22.7559C27.81 26.5775 30.8082 29.6152 34.5802 29.6152C38.3522 29.6152 41.3505 26.5775 41.3505 22.7559C41.3505 18.9343 38.3522 15.8965 34.5802 15.8965ZM52.9566 22.7559C52.9566 25.1076 50.442 26.9695 49.5715 29.0273C48.701 31.1831 49.1846 34.3188 47.5404 35.8866C45.9929 37.4544 42.898 37.0625 40.7702 37.9444C38.7391 38.8263 36.9015 41.3741 34.5802 41.3741C32.259 41.3741 30.4214 38.8263 28.3903 37.9444C26.2625 37.0625 23.1675 37.5524 21.62 35.8866C20.0726 34.3188 20.4594 31.1831 19.589 29.0273C18.7185 26.9695 16.2038 25.1076 16.2038 22.7559C16.2038 20.4041 18.7185 18.5423 19.589 16.4845C20.4594 14.3287 19.9758 11.193 21.62 9.62516C23.1675 8.05731 26.2625 8.44927 28.3903 7.56736C30.4214 6.68545 32.259 4.1377 34.5802 4.1377C36.9015 4.1377 38.7391 6.68545 40.7702 7.56736C42.898 8.44927 45.9929 7.95932 47.5404 9.62516C49.0879 11.193 48.701 14.3287 49.5715 16.4845C50.442 18.5423 52.9566 20.4041 52.9566 22.7559ZM47.1535 22.7559C47.1535 15.7006 41.5439 10.0171 34.5802 10.0171C27.6165 10.0171 22.0069 15.7006 22.0069 22.7559C22.0069 29.8112 27.6165 35.4946 34.5802 35.4946C41.5439 35.4946 47.1535 29.8112 47.1535 22.7559Z" fill="#FD73FF"/>
</svg>
