<svg width="54" height="60" viewBox="0 0 54 60" fill="none" xmlns="http://www.w3.org/2000/svg">
<path d="M23.3976 0.694336L23.4023 6.5959C20.1916 7.08759 17.0684 8.17062 14.1726 9.84746C8.07018 13.3819 3.70889 19.0807 1.89289 25.8943C-0.622313 35.3343 2.33197 44.9666 8.79757 51.4146C11.9672 54.5755 15.9798 56.9709 20.6054 58.2037C27.419 60.0197 34.5327 59.0733 40.6351 55.5381C46.7367 52.0037 51.0972 46.3056 52.9132 39.4912C55.498 29.792 52.3079 19.8914 45.4663 13.449L44.3288 14.5881C44.5136 14.7609 44.7035 14.9292 44.8819 15.1068C50.9555 21.1636 53.7303 30.2123 51.3679 39.0787C49.6623 45.4803 45.5647 50.8329 39.8335 54.1537C34.0999 57.4737 27.4187 58.3624 21.0179 56.6568C7.80269 53.1344 -0.081037 39.5196 3.43976 26.3068C5.14536 19.9052 9.24294 14.5526 14.9741 11.2318C17.6218 9.6988 20.4726 8.69177 23.4038 8.21309L23.4085 13.4943L33.0163 7.09434L23.3976 0.694336ZM19.1398 11.9381C18.9276 11.9381 18.7241 12.0224 18.5741 12.1724C18.424 12.3224 18.3398 12.5259 18.3398 12.7381C18.3398 12.9503 18.424 13.1537 18.5741 13.3038C18.7241 13.4538 18.9276 13.5381 19.1398 13.5381C19.3519 13.5381 19.5554 13.4538 19.7054 13.3038C19.8555 13.1537 19.9398 12.9503 19.9398 12.7381C19.9398 12.5259 19.8555 12.3224 19.7054 12.1724C19.5554 12.0224 19.3519 11.9381 19.1398 11.9381ZM15.4054 13.935C15.1932 13.935 14.9897 14.0192 14.8397 14.1693C14.6897 14.3193 14.6054 14.5228 14.6054 14.735C14.6054 14.9471 14.6897 15.1506 14.8397 15.3006C14.9897 15.4507 15.1932 15.535 15.4054 15.535C15.6176 15.535 15.821 15.4507 15.9711 15.3006C16.1211 15.1506 16.2054 14.9471 16.2054 14.735C16.2054 14.5228 16.1211 14.3193 15.9711 14.1693C15.821 14.0192 15.6176 13.935 15.4054 13.935ZM12.1304 16.6209C11.9182 16.6209 11.7147 16.7052 11.5647 16.8552C11.4147 17.0052 11.3304 17.2087 11.3304 17.4209C11.3304 17.6331 11.4147 17.8366 11.5647 17.9866C11.7147 18.1366 11.9182 18.2209 12.1304 18.2209C12.3426 18.2209 12.546 18.1366 12.6961 17.9866C12.8461 17.8366 12.9304 17.6331 12.9304 17.4209C12.9304 17.2087 12.8461 17.0052 12.6961 16.8552C12.546 16.7052 12.3426 16.6209 12.1304 16.6209ZM42.6773 16.6209C42.4651 16.6209 42.2616 16.7052 42.1116 16.8552C41.9615 17.0052 41.8773 17.2087 41.8773 17.4209C41.8773 17.6331 41.9615 17.8366 42.1116 17.9866C42.2616 18.1366 42.4651 18.2209 42.6773 18.2209C42.8894 18.2209 43.0929 18.1366 43.2429 17.9866C43.393 17.8366 43.4773 17.6331 43.4773 17.4209C43.4773 17.2087 43.393 17.0052 43.2429 16.8552C43.0929 16.7052 42.8894 16.6209 42.6773 16.6209ZM9.44601 19.8943C9.23384 19.8943 9.03035 19.9786 8.88033 20.1287C8.7303 20.2787 8.64601 20.4822 8.64601 20.6943C8.64601 20.9065 8.7303 21.11 8.88033 21.26C9.03035 21.4101 9.23384 21.4943 9.44601 21.4943C9.65819 21.4943 9.86167 21.4101 10.0117 21.26C10.1617 21.11 10.246 20.9065 10.246 20.6943C10.246 20.4822 10.1617 20.2787 10.0117 20.1287C9.86167 19.9786 9.65819 19.8943 9.44601 19.8943ZM45.3616 19.8943C45.1495 19.8943 44.946 19.9786 44.7959 20.1287C44.6459 20.2787 44.5616 20.4822 44.5616 20.6943C44.5616 20.9065 44.6459 21.11 44.7959 21.26C44.946 21.4101 45.1495 21.4943 45.3616 21.4943C45.5738 21.4943 45.7773 21.4101 45.9273 21.26C46.0773 21.11 46.1616 20.9065 46.1616 20.6943C46.1616 20.4822 46.0773 20.2787 45.9273 20.1287C45.7773 19.9786 45.5738 19.8943 45.3616 19.8943ZM7.44914 23.6287C7.23696 23.6287 7.03348 23.713 6.88345 23.863C6.73342 24.0131 6.64914 24.2165 6.64914 24.4287C6.64914 24.6409 6.73342 24.8444 6.88345 24.9944C7.03348 25.1444 7.23696 25.2287 7.44914 25.2287C7.66131 25.2287 7.86479 25.1444 8.01482 24.9944C8.16485 24.8444 8.24914 24.6409 8.24914 24.4287C8.24914 24.2165 8.16485 24.0131 8.01482 23.863C7.86479 23.713 7.66131 23.6287 7.44914 23.6287ZM47.3585 23.6287C47.1463 23.6287 46.9429 23.713 46.7928 23.863C46.6428 24.0131 46.5585 24.2165 46.5585 24.4287C46.5585 24.6409 46.6428 24.8444 46.7928 24.9944C46.9429 25.1444 47.1463 25.2287 47.3585 25.2287C47.5707 25.2287 47.7742 25.1444 47.9242 24.9944C48.0742 24.8444 48.1585 24.6409 48.1585 24.4287C48.1585 24.2165 48.0742 24.0131 47.9242 23.863C47.7742 23.713 47.5707 23.6287 47.3585 23.6287ZM32.8429 25.5709C29.7021 25.5709 27.8366 28.177 27.8366 32.649C27.8366 37.149 29.6829 39.7561 32.8429 39.7553C35.9925 39.7553 37.8304 37.1582 37.8304 32.6678C37.8304 28.187 35.9645 25.5709 32.8429 25.5709ZM21.0835 25.899L17.521 28.4115V30.5584L20.9148 28.1584H21.0741V39.4272H23.1741V25.899H21.0835ZM32.8429 27.4084C34.6621 27.4084 35.7116 29.2554 35.7116 32.649C35.7116 36.0802 34.6805 37.9178 32.8429 37.9178C31.0053 37.9178 29.9554 36.0706 29.9554 32.649C29.9554 29.2642 31.0237 27.4084 32.8429 27.4084ZM6.21945 27.6803C6.00728 27.6803 5.80379 27.7646 5.65376 27.9146C5.50374 28.0646 5.41945 28.2681 5.41945 28.4803C5.41945 28.6924 5.50374 28.8959 5.65376 29.046C5.80379 29.196 6.00728 29.2803 6.21945 29.2803C6.43162 29.2803 6.63511 29.196 6.78513 29.046C6.93516 28.8959 7.01945 28.6924 7.01945 28.4803C7.01945 28.2681 6.93516 28.0646 6.78513 27.9146C6.63511 27.7646 6.43162 27.6803 6.21945 27.6803ZM48.5882 27.6803C48.376 27.6803 48.1725 27.7646 48.0225 27.9146C47.8725 28.0646 47.7882 28.2681 47.7882 28.4803C47.7882 28.6924 47.8725 28.8959 48.0225 29.046C48.1725 29.196 48.376 29.2803 48.5882 29.2803C48.8004 29.2803 49.0039 29.196 49.1539 29.046C49.3039 28.8959 49.3882 28.6924 49.3882 28.4803C49.3882 28.2681 49.3039 28.0646 49.1539 27.9146C49.0039 27.7646 48.8004 27.6803 48.5882 27.6803ZM5.80382 31.8943C5.59165 31.8943 5.38817 31.9786 5.23814 32.1287C5.08811 32.2787 5.00382 32.4822 5.00382 32.6943C5.00382 32.9065 5.08811 33.11 5.23814 33.26C5.38817 33.41 5.59165 33.4943 5.80382 33.4943C6.016 33.4943 6.21948 33.41 6.36951 33.26C6.51954 33.11 6.60382 32.9065 6.60382 32.6943C6.60382 32.4822 6.51954 32.2787 6.36951 32.1287C6.21948 31.9786 6.016 31.8943 5.80382 31.8943ZM49.0038 31.8943C48.7916 31.8943 48.5882 31.9786 48.4381 32.1287C48.2881 32.2787 48.2038 32.4822 48.2038 32.6943C48.2038 32.9065 48.2881 33.11 48.4381 33.26C48.5882 33.41 48.7916 33.4943 49.0038 33.4943C49.216 33.4943 49.4195 33.41 49.5695 33.26C49.7195 33.11 49.8038 32.9065 49.8038 32.6943C49.8038 32.4822 49.7195 32.2787 49.5695 32.1287C49.4195 31.9786 49.216 31.8943 49.0038 31.8943ZM6.21945 36.1084C6.00728 36.1084 5.80379 36.1927 5.65376 36.3427C5.50374 36.4927 5.41945 36.6962 5.41945 36.9084C5.41945 37.1206 5.50374 37.3241 5.65376 37.4741C5.80379 37.6241 6.00728 37.7084 6.21945 37.7084C6.43162 37.7084 6.63511 37.6241 6.78513 37.4741C6.93516 37.3241 7.01945 37.1206 7.01945 36.9084C7.01945 36.6962 6.93516 36.4927 6.78513 36.3427C6.63511 36.1927 6.43162 36.1084 6.21945 36.1084ZM48.5898 36.1084C48.3776 36.1084 48.1741 36.1927 48.0241 36.3427C47.874 36.4927 47.7898 36.6962 47.7898 36.9084C47.7898 37.1206 47.874 37.3241 48.0241 37.4741C48.1741 37.6241 48.3776 37.7084 48.5898 37.7084C48.8019 37.7084 49.0054 37.6241 49.1554 37.4741C49.3055 37.3241 49.3898 37.1206 49.3898 36.9084C49.3898 36.6962 49.3055 36.4927 49.1554 36.3427C49.0054 36.1927 48.8019 36.1084 48.5898 36.1084ZM7.44914 40.16C7.23696 40.16 7.03348 40.2442 6.88345 40.3943C6.73342 40.5443 6.64914 40.7478 6.64914 40.96C6.64914 41.1721 6.73342 41.3756 6.88345 41.5256C7.03348 41.6757 7.23696 41.76 7.44914 41.76C7.66131 41.76 7.86479 41.6757 8.01482 41.5256C8.16485 41.3756 8.24914 41.1721 8.24914 40.96C8.24914 40.7478 8.16485 40.5443 8.01482 40.3943C7.86479 40.2442 7.66131 40.16 7.44914 40.16ZM47.3616 40.16C47.1495 40.16 46.946 40.2442 46.7959 40.3943C46.6459 40.5443 46.5616 40.7478 46.5616 40.96C46.5616 41.1721 46.6459 41.3756 46.7959 41.5256C46.946 41.6757 47.1495 41.76 47.3616 41.76C47.5738 41.76 47.7773 41.6757 47.9273 41.5256C48.0773 41.3756 48.1616 41.1721 48.1616 40.96C48.1616 40.7478 48.0773 40.5443 47.9273 40.3943C47.7773 40.2442 47.5738 40.16 47.3616 40.16ZM45.3663 43.8943C45.1541 43.8943 44.9507 43.9786 44.8006 44.1287C44.6506 44.2787 44.5663 44.4822 44.5663 44.6943C44.5663 44.9065 44.6506 45.11 44.8006 45.26C44.9507 45.41 45.1541 45.4943 45.3663 45.4943C45.5785 45.4943 45.782 45.41 45.932 45.26C46.082 45.11 46.1663 44.9065 46.1663 44.6943C46.1663 44.4822 46.082 44.2787 45.932 44.1287C45.782 43.9786 45.5785 43.8943 45.3663 43.8943ZM9.44601 43.8959C9.23384 43.8959 9.03035 43.9802 8.88033 44.1302C8.7303 44.2802 8.64601 44.4837 8.64601 44.6959C8.64601 44.9081 8.7303 45.1116 8.88033 45.2616C9.03035 45.4116 9.23384 45.4959 9.44601 45.4959C9.65819 45.4959 9.86167 45.4116 10.0117 45.2616C10.1617 45.1116 10.246 44.9081 10.246 44.6959C10.246 44.4837 10.1617 44.2802 10.0117 44.1302C9.86167 43.9802 9.65819 43.8959 9.44601 43.8959ZM12.1304 47.1678C11.9182 47.1678 11.7147 47.2521 11.5647 47.4021C11.4147 47.5521 11.3304 47.7556 11.3304 47.9678C11.3304 48.1799 11.4147 48.3834 11.5647 48.5335C11.7147 48.6835 11.9182 48.7678 12.1304 48.7678C12.3426 48.7678 12.546 48.6835 12.6961 48.5335C12.8461 48.3834 12.9304 48.1799 12.9304 47.9678C12.9304 47.7556 12.8461 47.5521 12.6961 47.4021C12.546 47.2521 12.3426 47.1678 12.1304 47.1678ZM42.6773 47.1678C42.4651 47.1678 42.2616 47.2521 42.1116 47.4021C41.9615 47.5521 41.8773 47.7556 41.8773 47.9678C41.8773 48.1799 41.9615 48.3834 42.1116 48.5335C42.2616 48.6835 42.4651 48.7678 42.6773 48.7678C42.8894 48.7678 43.0929 48.6835 43.2429 48.5335C43.393 48.3834 43.4773 48.1799 43.4773 47.9678C43.4773 47.7556 43.393 47.5521 43.2429 47.4021C43.0929 47.2521 42.8894 47.1678 42.6773 47.1678ZM39.4069 49.8537C39.1948 49.8537 38.9913 49.938 38.8413 50.088C38.6912 50.2381 38.6069 50.4415 38.6069 50.6537C38.6069 50.8659 38.6912 51.0694 38.8413 51.2194C38.9913 51.3694 39.1948 51.4537 39.4069 51.4537C39.6191 51.4537 39.8226 51.3694 39.9726 51.2194C40.1227 51.0694 40.2069 50.8659 40.2069 50.6537C40.2069 50.4415 40.1227 50.2381 39.9726 50.088C39.8226 49.938 39.6191 49.8537 39.4069 49.8537ZM15.4069 49.8553C15.1948 49.8553 14.9913 49.9396 14.8413 50.0896C14.6912 50.2396 14.6069 50.4431 14.6069 50.6553C14.6069 50.8674 14.6912 51.0709 14.8413 51.221C14.9913 51.371 15.1948 51.4553 15.4069 51.4553C15.6191 51.4553 15.8226 51.371 15.9726 51.221C16.1227 51.0709 16.2069 50.8674 16.2069 50.6553C16.2069 50.4431 16.1227 50.2396 15.9726 50.0896C15.8226 49.9396 15.6191 49.8553 15.4069 49.8553ZM19.1398 51.8506C18.9276 51.8506 18.7241 51.9349 18.5741 52.0849C18.424 52.2349 18.3398 52.4384 18.3398 52.6506C18.3398 52.8628 18.424 53.0662 18.5741 53.2163C18.7241 53.3663 18.9276 53.4506 19.1398 53.4506C19.3519 53.4506 19.5554 53.3663 19.7054 53.2163C19.8555 53.0662 19.9398 52.8628 19.9398 52.6506C19.9398 52.4384 19.8555 52.2349 19.7054 52.0849C19.5554 51.9349 19.3519 51.8506 19.1398 51.8506ZM35.6726 51.8506C35.4604 51.8506 35.2569 51.9349 35.1069 52.0849C34.9569 52.2349 34.8726 52.4384 34.8726 52.6506C34.8726 52.8628 34.9569 53.0662 35.1069 53.2163C35.2569 53.3663 35.4604 53.4506 35.6726 53.4506C35.8847 53.4506 36.0882 53.3663 36.2383 53.2163C36.3883 53.0662 36.4726 52.8628 36.4726 52.6506C36.4726 52.4384 36.3883 52.2349 36.2383 52.0849C36.0882 51.9349 35.8847 51.8506 35.6726 51.8506ZM23.1913 53.0787C22.9792 53.0787 22.7757 53.163 22.6256 53.313C22.4756 53.4631 22.3913 53.6665 22.3913 53.8787C22.3913 54.0909 22.4756 54.2944 22.6256 54.4444C22.7757 54.5944 22.9792 54.6787 23.1913 54.6787C23.4035 54.6787 23.607 54.5944 23.757 54.4444C23.907 54.2944 23.9913 54.0909 23.9913 53.8787C23.9913 53.6665 23.907 53.4631 23.757 53.313C23.607 53.163 23.4035 53.0787 23.1913 53.0787ZM31.6194 53.0803C31.4073 53.0803 31.2038 53.1646 31.0538 53.3146C30.9037 53.4646 30.8194 53.6681 30.8194 53.8803C30.8194 54.0924 30.9037 54.2959 31.0538 54.446C31.2038 54.596 31.4073 54.6803 31.6194 54.6803C31.8316 54.6803 32.0351 54.596 32.1851 54.446C32.3352 54.2959 32.4194 54.0924 32.4194 53.8803C32.4194 53.6681 32.3352 53.4646 32.1851 53.3146C32.0351 53.1646 31.8316 53.0803 31.6194 53.0803ZM27.4038 53.4943C27.1916 53.4943 26.9882 53.5786 26.8381 53.7286C26.6881 53.8787 26.6038 54.0822 26.6038 54.2943C26.6038 54.5065 26.6881 54.71 26.8381 54.86C26.9882 55.0101 27.1916 55.0943 27.4038 55.0943C27.616 55.0943 27.8195 55.0101 27.9695 54.86C28.1195 54.71 28.2038 54.5065 28.2038 54.2943C28.2038 54.0822 28.1195 53.8787 27.9695 53.7286C27.8195 53.5786 27.616 53.4943 27.4038 53.4943Z" fill="#FF9341"/>
<path d="M46.0919 13.6024C50.3991 17.9096 53.1233 23.5467 53.8218 29.5978C54.5204 35.6489 53.1524 41.7584 49.9399 46.9337C46.7275 52.109 41.8594 56.046 36.1267 58.105C30.394 60.164 24.1334 60.2241 18.3623 58.2754C12.5911 56.3267 7.64846 52.4838 4.33736 47.371C1.02626 42.2582 -0.458717 36.1761 0.123706 30.1127C0.706129 24.0493 3.32172 18.3611 7.54552 13.9721C11.7693 9.58308 17.3531 6.75129 23.3897 5.9368L23.8393 9.26872C18.5544 9.98179 13.6659 12.461 9.96804 16.3034C6.2702 20.1459 3.98031 25.1258 3.47041 30.4342C2.96051 35.7425 4.26057 41.0673 7.15937 45.5434C10.0582 50.0195 14.3853 53.3839 19.4379 55.09C24.4904 56.796 29.9713 56.7434 34.9902 54.9408C40.0091 53.1382 44.271 49.6915 47.0834 45.1606C49.8958 40.6297 51.0935 35.281 50.4819 29.9834C49.8703 24.6858 47.4854 19.7507 43.7145 15.9798L46.0919 13.6024Z" fill="#FF9341"/>
</svg>
