<svg width="1440" height="925" viewBox="0 0 1440 925" fill="none" xmlns="http://www.w3.org/2000/svg">
<mask id="mask0_1287_13935" style="mask-type:alpha" maskUnits="userSpaceOnUse" x="-330" y="-155" width="1856" height="1349">
<path d="M758.162 295.828C758.162 443.088 660.797 562.465 540.691 562.465C420.586 562.465 -329.82 45.9679 -329.82 -101.292C-329.82 -248.552 748.367 -45.8213 868.473 -45.8213C988.578 -45.8213 758.162 148.568 758.162 295.828Z" fill="url(#paint0_linear_1287_13935)"/>
<path d="M842.628 926.853C842.628 1074.11 745.263 1193.49 625.158 1193.49C505.052 1193.49 -164.039 1159.17 -164.039 1011.91C-164.039 864.645 -114.581 515.821 5.52478 515.821C125.63 515.821 842.628 779.593 842.628 926.853Z" fill="url(#paint1_radial_1287_13935)"/>
<path d="M1030.83 441.167C1348.44 739.51 1200.73 590.677 1451.96 607.001C1492.17 618.438 1559.28 624.986 1506.02 559.685C1439.44 478.059 1453.86 426.065 1371.76 336.252C1289.65 246.439 1236.62 157.988 1112.06 15.6981C987.507 -126.592 988.612 -18.6526 860.632 -40.662C732.652 -62.6714 792.073 -40.9649 633.977 134.287C475.88 309.539 713.228 142.824 1030.83 441.167Z" fill="#D9D9D9"/>
<path d="M783.373 656.614C349.693 707.672 558.969 691.913 381.21 906.232C346.121 933.547 296.996 989.059 381.21 992.589C486.478 997.002 516.105 1051.21 637.762 1048.06C759.419 1044.91 860.906 1066.97 1050.01 1066.97C1239.11 1066.97 1157.17 982.504 1258.03 884.169C1358.88 785.835 1303.41 822.395 1275.68 540.629C1247.94 258.864 1217.05 605.555 783.373 656.614Z" fill="#D9D9D9"/>
</mask>
<g mask="url(#mask0_1287_13935)">
<line x1="-32.293" y1="924.286" x2="1479.28" y2="924.286" stroke="white" stroke-opacity="0.09" stroke-width="1.2607"/>
<line x1="-32.293" y1="278.81" x2="1479.28" y2="278.81" stroke="white" stroke-opacity="0.09" stroke-width="1.2607"/>
<line x1="-32.293" y1="440.178" x2="1479.28" y2="440.178" stroke="white" stroke-opacity="0.09" stroke-width="1.2607"/>
<line x1="-32.293" y1="762.916" x2="1479.28" y2="762.916" stroke="white" stroke-opacity="0.09" stroke-width="1.2607"/>
<line x1="-32.293" y1="117.439" x2="1479.28" y2="117.439" stroke="white" stroke-opacity="0.09" stroke-width="1.2607"/>
<line x1="-32.293" y1="520.863" x2="1479.28" y2="520.863" stroke="white" stroke-opacity="0.09" stroke-width="1.2607"/>
<line x1="-32.293" y1="843.601" x2="1479.28" y2="843.601" stroke="white" stroke-opacity="0.09" stroke-width="1.2607"/>
<line x1="-32.293" y1="198.125" x2="1479.28" y2="198.125" stroke="white" stroke-opacity="0.09" stroke-width="1.2607"/>
<line x1="-32.293" y1="359.492" x2="1479.28" y2="359.492" stroke="white" stroke-opacity="0.09" stroke-width="1.2607"/>
<line x1="-32.293" y1="682.233" x2="1479.28" y2="682.233" stroke="white" stroke-opacity="0.09" stroke-width="1.2607"/>
<line x1="-32.293" y1="36.7544" x2="1479.28" y2="36.7544" stroke="white" stroke-opacity="0.09" stroke-width="1.2607"/>
<line x1="14.9819" y1="-242.295" x2="14.9819" y2="925.111" stroke="white" stroke-opacity="0.09" stroke-width="1.2607"/>
<line x1="660.462" y1="-242.295" x2="660.462" y2="925.111" stroke="white" stroke-opacity="0.09" stroke-width="1.2607"/>
<line x1="337.724" y1="-242.295" x2="337.724" y2="925.111" stroke="white" stroke-opacity="0.09" stroke-width="1.2607"/>
<line x1="983.201" y1="-242.295" x2="983.201" y2="925.111" stroke="white" stroke-opacity="0.09" stroke-width="1.2607"/>
<line x1="1305.94" y1="-242.295" x2="1305.94" y2="925.111" stroke="white" stroke-opacity="0.09" stroke-width="1.2607"/>
<line x1="176.349" y1="-242.295" x2="176.349" y2="925.111" stroke="white" stroke-opacity="0.09" stroke-width="1.2607"/>
<line x1="821.826" y1="-242.295" x2="821.826" y2="925.111" stroke="white" stroke-opacity="0.09" stroke-width="1.2607"/>
<line x1="499.091" y1="-242.295" x2="499.091" y2="925.111" stroke="white" stroke-opacity="0.09" stroke-width="1.2607"/>
<line x1="1144.57" y1="-242.295" x2="1144.57" y2="925.111" stroke="white" stroke-opacity="0.09" stroke-width="1.2607"/>
<line x1="95.6694" y1="-242.295" x2="95.6694" y2="925.111" stroke="white" stroke-opacity="0.09" stroke-width="1.2607"/>
<line x1="741.146" y1="-242.295" x2="741.146" y2="925.111" stroke="white" stroke-opacity="0.09" stroke-width="1.2607"/>
<line x1="418.404" y1="-242.295" x2="418.404" y2="925.111" stroke="white" stroke-opacity="0.09" stroke-width="1.2607"/>
<line x1="1063.89" y1="-242.295" x2="1063.89" y2="925.111" stroke="white" stroke-opacity="0.09" stroke-width="1.2607"/>
<line x1="1386.62" y1="-242.295" x2="1386.62" y2="925.111" stroke="white" stroke-opacity="0.09" stroke-width="1.2607"/>
<line x1="257.037" y1="-242.295" x2="257.037" y2="925.111" stroke="white" stroke-opacity="0.09" stroke-width="1.2607"/>
<line x1="902.513" y1="-242.295" x2="902.513" y2="925.111" stroke="white" stroke-opacity="0.09" stroke-width="1.2607"/>
<line x1="579.775" y1="-242.295" x2="579.775" y2="925.111" stroke="white" stroke-opacity="0.09" stroke-width="1.2607"/>
<line x1="1225.25" y1="-242.295" x2="1225.25" y2="925.111" stroke="white" stroke-opacity="0.09" stroke-width="1.2607"/>
<g opacity="0.7">
<rect x="821.883" y="762.859" width="80.2262" height="80.2262" fill="#264141" fill-opacity="0.36"/>
<rect x="418.227" y="763" width="80.2262" height="80.2262" fill="#979998" fill-opacity="0.11"/>
<rect x="1145.08" y="198.983" width="80.2262" height="79.0801" fill="#24613D" fill-opacity="0.11"/>
<path d="M499 117H580V199H499V117Z" fill="#979998" fill-opacity="0.24"/>
<rect x="1063.71" y="279.209" width="80.2262" height="79.0801" fill="#24613D" fill-opacity="0.11"/>
<path d="M416.5 199H499.5V278H416.5V199Z" fill="#979998" fill-opacity="0.23"/>
<rect x="1063.71" y="198.983" width="80.2262" height="79.0801" fill="#24613D" fill-opacity="0.11"/>
<path d="M417 118H499V198H417V118Z" fill="#979998" fill-opacity="0.2"/>
<rect x="338" y="763" width="80.2262" height="80.2262" fill="#979998" fill-opacity="0.11"/>
<rect x="338.234" y="843.085" width="80.2262" height="81.3723" fill="#979998" fill-opacity="0.11"/>
<rect x="176.637" y="682.633" width="80.2262" height="80.2262" fill="#24613D" fill-opacity="0.21"/>
<path d="M983 37H1023.28H1064V118H983V37Z" fill="#4B514C" fill-opacity="0.51"/>
<rect x="903" y="-48" width="80" height="84" fill="#1E2E30"/>
<rect x="902" y="37" width="81" height="81" fill="#4B514C" fill-opacity="0.51"/>
<rect x="176.641" y="116.465" width="81.3723" height="82.5184" fill="#979998" fill-opacity="0.24"/>
<rect x="95.2656" y="36.2385" width="81.3723" height="80.2262" fill="#979998" fill-opacity="0.24"/>
<rect x="15.0391" y="37.3845" width="81.3723" height="80.2262" fill="#979998" fill-opacity="0.24"/>
<rect x="95.2656" y="116.465" width="81.3723" height="82.5184" fill="#979998" fill-opacity="0.24"/>
<rect x="176.641" y="278.063" width="80.2262" height="81.3723" fill="#979998" fill-opacity="0.24"/>
<rect x="1145.08" y="682.633" width="80.2262" height="80.2262" fill="#255354" fill-opacity="0.26"/>
<rect x="1225.31" y="762.859" width="80.2262" height="80.2262" fill="#24B2B4" fill-opacity="0.18"/>
</g>
</g>
<defs>
<linearGradient id="paint0_linear_1287_13935" x1="189.587" y1="-27.5411" x2="644.069" y2="214.513" gradientUnits="userSpaceOnUse">
<stop stop-color="white"/>
<stop offset="1" stop-color="white" stop-opacity="0"/>
</linearGradient>
<radialGradient id="paint1_radial_1287_13935" cx="0" cy="0" r="1" gradientUnits="userSpaceOnUse" gradientTransform="translate(154.917 933.112) rotate(-29.3932) scale(777.019 1335.47)">
<stop stop-color="white"/>
<stop offset="1" stop-color="white" stop-opacity="0"/>
</radialGradient>
</defs>
</svg>
