<svg width="24" height="25" viewBox="0 0 24 25" fill="none" xmlns="http://www.w3.org/2000/svg">
<path opacity="0.1" d="M17.7218 8.58382L14.7218 5.79811C13.4309 4.59937 12.7854 4 12 4C11.2146 4 10.5691 4.59937 9.2782 5.79811L6.2782 8.58382C5.64836 9.16867 5.33345 9.46109 5.16672 9.84342C5 10.2257 5 10.6555 5 11.515V17.4999C5 19.3856 5 20.3284 5.58579 20.9142C6.17157 21.4999 7.11438 21.4999 9 21.4999H9.75V17.4999C9.75 16.2573 10.7574 15.2499 12 15.2499C13.2426 15.2499 14.25 16.2573 14.25 17.4999V21.4999H15C16.8856 21.4999 17.8284 21.4999 18.4142 20.9142C19 20.3284 19 19.3856 19 17.4999V11.515C19 10.6555 19 10.2257 18.8333 9.84342C18.6666 9.46109 18.3516 9.16866 17.7218 8.58382Z" fill="#24B2B4"/>
<path d="M19 9.5V17.5C19 19.3856 19 20.3284 18.4142 20.9142C17.8284 21.5 16.8856 21.5 15 21.5H14H10H9C7.11438 21.5 6.17157 21.5 5.58579 20.9142C5 20.3284 5 19.3856 5 17.5V9.5" stroke="#24B2B4" stroke-width="2" stroke-linejoin="round"/>
<path d="M3 11.4999L7.5 7.49987L10.6713 4.68096C11.429 4.00739 12.571 4.00739 13.3287 4.68096L16.5 7.49987L21 11.4999" stroke="#24B2B4" stroke-width="2" stroke-linecap="round" stroke-linejoin="round"/>
<path d="M10 21.5V17.5C10 16.3954 10.8954 15.5 12 15.5C13.1046 15.5 14 16.3954 14 17.5V21.5" stroke="#24B2B4" stroke-width="2" stroke-linecap="round" stroke-linejoin="round"/>
</svg>
