<svg width="20" height="22" viewBox="0 0 20 22" fill="none" xmlns="http://www.w3.org/2000/svg">
<path d="M19.9377 10.9927C19.9384 11.2711 19.8647 11.5446 19.7243 11.785C19.5838 12.0254 19.3817 12.2238 19.1388 12.3599L2.7404 21.7359C2.50508 21.8693 2.23941 21.9399 1.96892 21.941C1.71969 21.9396 1.47439 21.8787 1.25352 21.7632C1.03264 21.6478 0.842581 21.4812 0.699214 21.2773C0.555846 21.0734 0.463327 20.8382 0.42938 20.5913C0.395433 20.3444 0.421043 20.0929 0.504072 19.858L3.14079 12.0503C3.16656 11.974 3.2153 11.9075 3.28034 11.8599C3.34537 11.8124 3.42352 11.7861 3.50407 11.7847H10.5627C10.6698 11.7849 10.7758 11.7632 10.8741 11.7207C10.9724 11.6782 11.061 11.616 11.1342 11.5379C11.2075 11.4598 11.2639 11.3674 11.3 11.2666C11.3361 11.1657 11.351 11.0586 11.3439 10.9517C11.3262 10.7508 11.2332 10.564 11.0837 10.4287C10.9341 10.2935 10.7389 10.2197 10.5373 10.2222H3.50602C3.4243 10.2222 3.34463 10.1966 3.27823 10.1489C3.21184 10.1013 3.16206 10.034 3.13591 9.95658L0.499189 2.14994C0.394242 1.85072 0.382821 1.52664 0.466441 1.22077C0.550062 0.914899 0.724767 0.641708 0.967348 0.437491C1.20993 0.233274 1.5089 0.107697 1.82455 0.0774421C2.1402 0.0471873 2.45758 0.113687 2.73454 0.268107L19.1408 9.63236C19.3823 9.76811 19.5834 9.96563 19.7234 10.2047C19.8634 10.4437 19.9374 10.7157 19.9377 10.9927Z" fill="white"/>
</svg>
