<svg width="293" height="64" viewBox="0 0 293 64" fill="none" xmlns="http://www.w3.org/2000/svg">
<path d="M53.1059 9.13715C50.3282 7.40571 41.9884 15.0696 41.1009 14.223C40.3628 13.518 46.413 8.48505 45.2172 6.59488C44.1392 4.89122 37.3166 6.97185 23.715 11.2032C17.4744 13.1476 14.2576 14.2191 11.5076 16.9954C10.55 17.9637 7.50375 21.043 6.99979 25.5535C6.94953 25.9939 6.93498 26.3603 6.92969 26.6116V44.266C6.92969 51.7751 13.9269 57.861 22.5577 57.861H42.8561C44.0982 57.8689 49.3097 57.7736 53.6813 54.0833C54.1099 53.7208 58.6918 49.7421 58.787 44.2104C58.787 44.1311 58.787 44.065 58.787 44.0226C58.787 38.9257 58.787 33.8289 58.787 28.732C58.787 28.5812 58.8121 28.2201 58.787 27.7386C58.7262 26.5971 58.4629 25.5931 58.041 24.49C57.6005 23.3392 56.9828 22.2691 55.7474 20.125C55.1985 19.174 54.4247 17.8896 54.2501 17.6118C53.9988 17.215 53.9935 17.2243 53.9009 16.9954C52.2131 12.8302 54.3916 9.9374 53.1059 9.13715Z" fill="#24B2B4" stroke="black" stroke-width="0.242461" stroke-miterlimit="10"/>
<path d="M52.2604 38.5186C50.6388 31.6696 43.8955 32.3905 43.8955 32.3905C43.8955 32.3905 40.5887 32.5227 38.4909 35.0676C37.3917 36.4023 37.0954 37.8916 36.8917 38.9392C36.1537 42.7407 37.7211 44.5317 36.4724 45.9245C35.6206 46.8743 34.118 46.9047 32.9011 46.9285C31.6842 46.9523 30.2847 46.9827 29.3998 46.1349C28.0546 44.8439 29.3641 42.9603 28.4673 38.9419C28.1829 37.6655 27.8919 36.3123 26.8695 35.0703C24.7703 32.5227 21.4648 32.3931 21.4648 32.3931C21.4648 32.3931 14.7189 31.6722 13.0999 38.5213C12.5563 40.8202 12.1925 41.2844 11.3804 42.1376C10.1489 43.4246 8.33813 43.8082 6.96911 43.9272C6.9297 44.9869 7.03292 46.0471 7.27598 47.0793C7.70289 48.7578 8.45767 50.3352 9.49683 51.7207C10.1675 52.6282 10.9426 53.4535 11.8063 54.1797C13.4117 55.4992 15.2671 56.4809 17.2612 57.0658C18.6671 57.4892 20.1171 57.7493 21.5825 57.8409C22.1116 57.8753 22.3921 57.8701 24.1394 57.8674C25.5811 57.8674 27.0216 57.8674 28.462 57.8674C32.0889 57.8502 33.9037 57.841 34.9169 57.8476C37.4301 57.8648 39.9565 57.8476 42.4763 57.8674C43.4301 57.8819 44.3838 57.8258 45.3294 57.6994C46.3677 57.562 47.391 57.3286 48.3862 57.0023L48.5899 56.9336C50.1566 56.3759 51.6381 55.6031 52.9919 54.6373C53.9101 53.9458 54.7419 53.1464 55.4694 52.2564C56.144 51.4548 57.3661 49.98 58.1227 47.7446C58.5398 46.5084 58.7563 45.2134 58.7643 43.9087C57.9389 43.9378 55.7127 43.9087 54.1784 42.549C53.7776 42.1892 53.0647 41.9167 52.2604 38.5186Z" fill="#FFFEFF" stroke="black" stroke-width="0.242461" stroke-miterlimit="10"/>
<path d="M21.2535 42.3795C23.2434 42.3795 24.8566 40.7664 24.8566 38.7764C24.8566 36.7865 23.2434 35.1733 21.2535 35.1733C19.2636 35.1733 17.6504 36.7865 17.6504 38.7764C17.6504 40.7664 19.2636 42.3795 21.2535 42.3795Z" fill="black"/>
<path d="M44.4703 42.3795C46.4602 42.3795 48.0734 40.7664 48.0734 38.7764C48.0734 36.7865 46.4602 35.1733 44.4703 35.1733C42.4804 35.1733 40.8672 36.7865 40.8672 38.7764C40.8672 40.7664 42.4804 42.3795 44.4703 42.3795Z" fill="black"/>
<path d="M32.8644 51.2831C32.3166 51.283 31.7863 51.0895 31.3671 50.7368C29.5854 49.2421 28.0815 46.8401 27.3434 45.5411C27.103 45.1221 26.9982 44.6389 27.0435 44.1578C27.0887 43.6768 27.2817 43.2216 27.596 42.8547C28.8379 41.4045 30.5033 40.3803 32.3578 39.9262C32.6948 39.8495 33.0447 39.8495 33.3816 39.9262C35.2361 40.3803 36.9015 41.4045 38.1434 42.8547C38.4577 43.2217 38.6506 43.677 38.6956 44.158C38.7406 44.6391 38.6355 45.1223 38.3947 45.5411C37.6567 46.8401 36.1541 49.2448 34.371 50.7368C33.9494 51.0916 33.4155 51.2851 32.8644 51.2831Z" fill="#FBCC18" stroke="black" stroke-width="0.231054" stroke-miterlimit="10"/>
<path d="M32.8647 45.4119C30.4004 44.9978 28.8965 44.187 28.8965 44.187C29.9771 46.6195 32.8647 48.6843 32.8647 48.6843C32.8647 48.6843 35.7588 46.6169 36.8408 44.187C36.8408 44.187 35.3302 44.9978 32.8647 45.4119Z" fill="black"/>
<path d="M106.521 19.5835L101.273 45.8203H95.1629L86.5049 31.4282L83.62 45.8203H76.3477L81.595 19.5835H87.704L96.4009 33.9383L99.2485 19.5835H106.521Z" fill="white"/>
<path d="M128.783 37.4126H113.865C114.128 39.6615 115.664 40.7112 118.476 40.7112C120.274 40.7112 122.036 40.1482 123.386 39.0611L126.347 43.5215C123.798 45.3956 120.763 46.1452 117.688 46.1452C111.167 46.1452 106.895 42.548 106.895 36.8869C106.895 30.1403 111.879 25.1558 119.187 25.1558C125.372 25.1558 129.195 28.7546 129.195 34.0798C129.18 35.2025 129.042 36.3202 128.783 37.4126ZM114.277 33.6645H122.637C122.674 31.4902 121.137 30.2165 118.851 30.2165C116.451 30.2165 114.952 31.6395 114.277 33.6645Z" fill="white"/>
<path d="M144.863 35.7288L150.372 45.8114H142.801L140.028 40.4894L135.118 45.8114H127.059L137.216 35.3913L131.861 25.4937H139.325L142.023 30.6664L146.859 25.4937H154.692L144.863 35.7288Z" fill="white"/>
<path d="M164.613 25.3111L163.451 31.0842H175.033L173.871 36.8183H162.326L160.527 45.8138H153.105L158.35 19.5835H178.89L177.728 25.3176L164.613 25.3111Z" fill="#24B2B4"/>
<path d="M198.95 37.4126H184.033C184.296 39.6615 185.832 40.7112 188.642 40.7112C190.442 40.7112 192.204 40.1482 193.552 39.0611L196.513 43.5215C193.966 45.3956 190.929 46.1452 187.855 46.1452C181.334 46.1452 177.061 42.548 177.061 36.8869C177.061 30.1403 182.047 25.1558 189.355 25.1558C195.54 25.1558 199.363 28.7546 199.363 34.0798C199.347 35.2025 199.209 36.32 198.95 37.4126ZM184.445 33.6645H192.803C192.842 31.4902 191.303 30.2165 189.017 30.2165C186.619 30.2165 185.126 31.6395 184.445 33.6645Z" fill="#24B2B4"/>
<path d="M205.842 17.9995H212.964L207.416 45.8102H200.295L205.842 17.9995Z" fill="#24B2B4"/>
<path d="M217.579 17.9995H224.7L219.153 45.8102H212.031L217.579 17.9995Z" fill="#24B2B4"/>
<path d="M224.391 36.8869C224.391 30.1776 229.601 25.1558 236.871 25.1558C243.362 25.1558 247.517 28.7919 247.517 34.3768C247.517 41.1234 242.307 46.1452 235.035 46.1452C228.557 46.1452 224.391 42.4717 224.391 36.8869ZM240.282 34.7516C240.282 32.3891 238.896 30.8574 236.459 30.8574C233.61 30.8574 231.624 33.1436 231.624 36.5542C231.624 38.9167 233.011 40.416 235.447 40.416C238.302 40.4111 240.292 38.1249 240.292 34.7516H240.282Z" fill="#24B2B4"/>
<path d="M286.128 25.4937L275.035 45.8081H267.988L266.076 34.752L260.117 45.8081H253.14L249.703 25.4937H256.224L258.061 37.7132L264.77 25.4937H270.881L272.755 37.7132L279.464 25.4937H286.128Z" fill="#24B2B4"/>
</svg>
