<svg width="25" height="17" viewBox="0 0 25 17" fill="none" xmlns="http://www.w3.org/2000/svg">
<g clip-path="url(#clip0_1165_6491)">
<path d="M5.82647 14.0584C7.11672 14.7202 8.60095 14.8995 10.0117 14.5639C11.4224 14.2283 12.6669 13.3998 13.5209 12.2278C14.3748 11.0558 14.7821 9.61733 14.6693 8.17161C14.5565 6.72589 13.9311 5.36798 12.9057 4.3426C11.8803 3.31721 10.5224 2.69177 9.07671 2.57899C7.63099 2.4662 6.19252 2.87348 5.02052 3.72745C3.84852 4.58141 3.02006 5.82589 2.68443 7.23663C2.3488 8.64737 2.52808 10.1316 3.18995 11.4219L1.83789 15.4104L5.82647 14.0584Z" stroke="#94A3B8" stroke-width="1.35206" stroke-linecap="round" stroke-linejoin="round"/>
</g>
<defs>
<clipPath id="clip0_1165_6491">
<rect width="16.2247" height="16.2247" fill="white" transform="translate(0.484375 0.537598)"/>
</clipPath>
</defs>
</svg>
