<svg width="40" height="39" viewBox="0 0 40 39" fill="none" xmlns="http://www.w3.org/2000/svg">
<rect x="0.613281" y="0.554688" width="37.9435" height="37.9435" rx="18.9717" stroke="#D3F0F0"/>
<path d="M22.2162 26.8375C20.5803 27.3881 18.8118 27.4055 17.1652 26.8873C15.5187 26.3691 14.079 25.3419 13.0533 23.9535C12.0276 22.5651 11.4688 20.8871 11.4572 19.161C11.4457 17.4349 11.982 15.7496 12.989 14.3476C13.996 12.9456 15.4218 11.8992 17.0613 11.359C18.7007 10.8188 20.4693 10.8125 22.1125 11.3412C23.7557 11.8699 25.1889 12.9062 26.2057 14.3011C27.2226 15.6959 27.7708 17.3774 27.7714 19.1036C27.745 19.7652 27.6649 20.4236 27.5319 21.0723" stroke="#24B2B4" stroke-width="0.984375"/>
<path d="M21.5361 25.3203C20.9493 25.987 20.3059 26.6018 19.6133 27.1578" stroke="#24B2B4" stroke-width="0.984375"/>
<path d="M19.6133 10.8516C21.8152 12.7753 23.1776 15.4838 23.4097 18.3984C23.4573 18.9275 23.4672 19.4593 23.4392 19.9898" stroke="#24B2B4" stroke-width="0.984375"/>
<path d="M19.6131 10.8516C18.4185 11.8929 17.4587 13.1761 16.7974 14.6164C16.1361 16.0566 15.7884 17.6209 15.7773 19.2056C15.7773 24.5212 18.1661 26.0962 19.6033 27.1594" stroke="#24B2B4" stroke-width="0.984375"/>
<path d="M12.5156 15.0859H26.7497" stroke="#24B2B4" stroke-width="0.984375"/>
<path d="M19.6133 10.8477V27.1588" stroke="#24B2B4" stroke-width="0.984375"/>
<path d="M12.7383 23.4766H21.2663" stroke="#24B2B4" stroke-width="0.984375"/>
<path d="M11.457 19.208L27.7714 19.0078" stroke="#24B2B4" stroke-width="0.984375"/>
<path d="M26.693 27.2562L28.1466 25.7993L25.5216 23.1743L27.0146 22.2195C27.0364 22.2066 27.0537 22.1874 27.0643 22.1645C27.0749 22.1416 27.0783 22.1159 27.0741 22.091C27.0698 22.0661 27.0581 22.0431 27.0404 22.025C27.0228 22.0069 27 21.9946 26.9752 21.9898L21.9582 20.8151C21.9375 20.8109 21.916 20.8118 21.8958 20.8179C21.8755 20.824 21.8571 20.835 21.8422 20.85C21.8272 20.8649 21.8162 20.8834 21.8101 20.9036C21.804 20.9239 21.803 20.9453 21.8073 20.966L22.8966 26.0782C22.9019 26.1031 22.9144 26.1258 22.9326 26.1435C22.9508 26.1612 22.9738 26.1731 22.9988 26.1777C23.0238 26.1823 23.0496 26.1793 23.0729 26.1692C23.0962 26.1591 23.1159 26.1422 23.1296 26.1209L24.068 24.6312L26.693 27.2562Z" stroke="#24B2B4" stroke-width="0.984375"/>
</svg>
