<svg width="39" height="38" viewBox="0 0 39 38" fill="none" xmlns="http://www.w3.org/2000/svg">
<g filter="url(#filter0_d_241_1439)">
<path d="M25.9134 23.5663L29.5657 12.6097C30.4885 9.84158 31.1189 7.95033 31.1638 6.64272C31.1789 6.20225 30.6815 6.05594 30.3699 6.36758L13.5013 23.2362C13.2291 23.5084 13.2938 23.9671 13.6643 24.0719C13.7007 24.0822 13.7374 24.0918 13.7743 24.1009C14.3576 24.2436 15.1197 24.1402 16.6439 23.9333L16.7272 23.922C17.1569 23.8637 17.3717 23.8345 17.578 23.847C17.9525 23.8696 18.3141 23.9915 18.6258 24.2003C18.7975 24.3153 18.9508 24.4686 19.2574 24.7752L19.5505 25.0683C21.3125 26.8303 22.1935 27.7112 23.1281 27.6653C23.3857 27.6527 23.6389 27.5929 23.875 27.489C24.7314 27.1121 25.1254 25.9302 25.9134 23.5663Z" fill="url(#paint0_radial_241_1439)" shape-rendering="crispEdges"/>
<path d="M22.89 5.93425L12.0036 9.56293C9.57478 10.3725 8.36038 10.7773 7.99177 11.6678C7.90513 11.8771 7.85275 12.099 7.83663 12.3249C7.76806 13.2863 8.67322 14.1914 10.4835 16.0017L10.8133 16.3314C11.1104 16.6285 11.259 16.7771 11.3713 16.9425C11.5928 17.2687 11.7185 17.6503 11.7343 18.0443C11.7422 18.2441 11.711 18.4518 11.6487 18.8674C11.4204 20.3885 11.3062 21.149 11.4407 21.7342C11.4454 21.7546 11.4503 21.7749 11.4553 21.7952C11.5503 22.1743 12.0161 22.2465 12.2925 21.9701L29.1325 5.13016C29.4441 4.81851 29.2978 4.32118 28.8573 4.33627C27.5497 4.38109 25.6583 5.01152 22.89 5.93425Z" fill="url(#paint1_radial_241_1439)" shape-rendering="crispEdges"/>
<path d="M13.8931 23.6152C13.8767 23.6112 13.8604 23.607 13.8441 23.6027C13.8468 23.5986 13.8504 23.5942 13.8549 23.5897L30.6553 6.78927C30.6149 7.35406 30.4641 8.05661 30.2129 8.94211C29.9382 9.91107 29.554 11.0638 29.0914 12.4516L25.4391 23.4082C25.0408 24.603 24.7561 25.4541 24.4685 26.0577C24.1818 26.6593 23.9365 26.9157 23.6736 27.0314C23.4934 27.1107 23.3002 27.1563 23.1036 27.1659C22.8167 27.18 22.4825 27.0604 21.9571 26.6505C21.4299 26.2393 20.7946 25.6053 19.9041 24.7148L19.6109 24.4217C19.5992 24.4099 19.5876 24.3983 19.5762 24.3869C19.303 24.1136 19.1171 23.9276 18.9041 23.7849C18.5186 23.5267 18.0713 23.3758 17.6081 23.3479C17.3522 23.3325 17.0916 23.3679 16.7087 23.4199L16.66 23.4265L16.5767 23.4379C15.8084 23.5421 15.2544 23.6171 14.8191 23.6496C14.3851 23.682 14.1097 23.6682 13.8932 23.6152L13.7743 24.1009L13.8931 23.6152ZM30.7528 6.70134C30.7528 6.70138 30.7523 6.70151 30.7514 6.70156L30.7528 6.70134ZM11.7849 16.6616L11.3713 16.9425L11.7849 16.6616C11.6456 16.4564 11.4654 16.2762 11.2005 16.0115C11.1894 16.0005 11.1782 15.9892 11.1668 15.9778L10.8371 15.6481C9.92208 14.7332 9.27066 14.0804 8.85066 13.5386C8.43231 12.999 8.31428 12.6562 8.33537 12.3605C8.34767 12.1881 8.38764 12.0188 8.45375 11.859C8.56712 11.5852 8.82602 11.3313 9.44155 11.0357C10.0595 10.739 10.9341 10.4465 12.1617 10.0373L23.0481 6.4086C24.436 5.94599 25.5888 5.56185 26.5578 5.28708C27.4434 5.03597 28.146 4.88512 28.7108 4.84472L11.9389 21.6166C11.9354 21.6201 11.932 21.623 11.9287 21.6254C11.9285 21.6244 11.9282 21.6233 11.928 21.6223C11.8781 21.405 11.8682 21.1295 11.9067 20.696C11.9453 20.2611 12.0281 19.7083 12.1431 18.9416C12.1455 18.9257 12.1479 18.91 12.1502 18.8945C12.2059 18.5242 12.2437 18.2722 12.2339 18.0244C12.2144 17.5371 12.0589 17.065 11.7849 16.6616ZM28.7987 4.74729C28.7988 4.7473 28.7987 4.74778 28.7985 4.7487L28.7987 4.74729Z" stroke="url(#paint2_linear_241_1439)" shape-rendering="crispEdges"/>
</g>
<defs>
<filter id="filter0_d_241_1439" x="0.833008" y="0.335938" width="37.3311" height="37.3311" filterUnits="userSpaceOnUse" color-interpolation-filters="sRGB">
<feFlood flood-opacity="0" result="BackgroundImageFix"/>
<feColorMatrix in="SourceAlpha" type="matrix" values="0 0 0 0 0 0 0 0 0 0 0 0 0 0 0 0 0 0 127 0" result="hardAlpha"/>
<feOffset dy="3"/>
<feGaussianBlur stdDeviation="3.5"/>
<feComposite in2="hardAlpha" operator="out"/>
<feColorMatrix type="matrix" values="0 0 0 0 0.4 0 0 0 0 0.1 0 0 0 0 0 0 0 0 0.12 0"/>
<feBlend mode="normal" in2="BackgroundImageFix" result="effect1_dropShadow_241_1439"/>
<feBlend mode="normal" in="SourceGraphic" in2="effect1_dropShadow_241_1439" result="shape"/>
</filter>
<radialGradient id="paint0_radial_241_1439" cx="0" cy="0" r="1" gradientUnits="userSpaceOnUse" gradientTransform="translate(19.4986 3.22493) rotate(90) scale(40.5517 40.5517)">
<stop stop-color="white"/>
<stop offset="1" stop-color="white" stop-opacity="0"/>
</radialGradient>
<radialGradient id="paint1_radial_241_1439" cx="0" cy="0" r="1" gradientUnits="userSpaceOnUse" gradientTransform="translate(19.4986 3.22493) rotate(90) scale(40.5517 40.5517)">
<stop stop-color="white"/>
<stop offset="1" stop-color="white" stop-opacity="0"/>
</radialGradient>
<linearGradient id="paint2_linear_241_1439" x1="19.4986" y1="4.33594" x2="19.4986" y2="27.667" gradientUnits="userSpaceOnUse">
<stop offset="0.735221" stop-color="white" stop-opacity="0"/>
<stop offset="1" stop-color="white" stop-opacity="0.8"/>
</linearGradient>
</defs>
</svg>
