<svg width="64" height="65" viewBox="0 0 64 65" fill="none" xmlns="http://www.w3.org/2000/svg">
<path d="M24 16.6943C24 21.1126 27.5816 24.6943 32 24.6943C36.4184 24.6943 40 21.1126 40 16.6943C40 12.2761 36.4184 8.69434 32 8.69434C27.5816 8.69434 24 12.2761 24 16.6943Z" fill="#8BA5FF"/>
<path d="M6.66797 48.6943C6.66797 53.1127 10.2497 56.6943 14.668 56.6943C19.0862 56.6943 22.668 53.1127 22.668 48.6943C22.668 44.2759 19.0862 40.6943 14.668 40.6943C10.2497 40.6943 6.66797 44.2759 6.66797 48.6943Z" fill="#8BA5FF"/>
<path d="M49.332 56.6943C44.9136 56.6943 41.332 53.1127 41.332 48.6943C41.332 44.2759 44.9136 40.6943 49.332 40.6943C53.7504 40.6943 57.332 44.2759 57.332 48.6943C57.332 53.1127 53.7504 56.6943 49.332 56.6943Z" fill="#8BA5FF"/>
<path d="M19.2138 20.8604C20.0419 20.1294 20.1207 18.8656 19.3898 18.0374C18.6589 17.2093 17.395 17.1305 16.5668 17.8614C11.726 22.134 8.66797 28.3915 8.66797 35.3609C8.66797 36.4654 9.56341 37.3609 10.668 37.3609C11.7725 37.3609 12.668 36.4654 12.668 35.3609C12.668 29.5867 15.1967 24.4058 19.2138 20.8604Z" fill="#8BA5FF"/>
<path d="M47.4328 17.8614C46.6048 17.1305 45.3408 17.2093 44.6099 18.0374C43.8789 18.8656 43.9579 20.1294 44.7859 20.8604C48.8029 24.4058 51.3317 29.5867 51.3317 35.3609C51.3317 36.4654 52.2272 37.3609 53.3317 37.3609C54.4363 37.3609 55.3317 36.4654 55.3317 35.3609C55.3317 28.3915 52.2736 22.134 47.4328 17.8614Z" fill="#8BA5FF"/>
<path d="M27.1669 54.0856C26.0973 53.8102 25.0069 54.4542 24.7316 55.5238C24.4563 56.5936 25.1002 57.684 26.1699 57.9592C28.0362 58.4395 29.9906 58.6944 32.0018 58.6944C34.013 58.6944 35.9674 58.4395 37.8335 57.9592C38.9034 57.684 39.5474 56.5936 39.2719 55.5238C38.9967 54.4542 37.9063 53.8102 36.8367 54.0856C35.2935 54.4827 33.6738 54.6944 32.0018 54.6944C30.3298 54.6944 28.7101 54.4827 27.1669 54.0856Z" fill="#8BA5FF"/>
</svg>
