<svg width="64" height="65" viewBox="0 0 64 65" fill="none" xmlns="http://www.w3.org/2000/svg">
<path d="M31.9997 5.2998L8.26953 18.9908V46.3853L31.9997 60.0888L55.7299 46.3853V18.9908L31.9997 5.2998ZM49.4554 42.7712L31.9997 52.848L14.544 42.7712V22.6175L31.9997 12.5406L49.4554 22.6175V42.7712Z" fill="#31F0FA"/>
<path d="M20.5938 21.9775V36.9485C23.4675 46.423 32.0008 48.3806 32.0008 48.3806C32.0008 48.3806 40.5341 46.423 43.4079 36.9485V21.9775C43.4079 21.9775 36.7569 20.1704 32.0008 18.2881C27.2322 20.1704 20.5938 21.9775 20.5938 21.9775ZM40.8981 23.8849V36.572C39.48 40.9014 36.6941 43.3234 34.5106 44.6159C34.5106 44.6159 32.5906 45.6449 32.0008 45.8457V20.9987C32.8165 21.2999 33.6698 21.6136 34.5106 21.8897C36.92 22.7053 39.3169 23.4206 40.8981 23.8849Z" fill="#31F0FA"/>
</svg>
