<svg width="24" height="24" viewBox="0 0 24 24" fill="none" xmlns="http://www.w3.org/2000/svg">
<path d="M12 0C5.37281 0 0 5.37281 0 12C0 18.6272 5.37281 24 12 24C18.6272 24 24 18.6272 24 12C24 5.37281 18.6272 0 12 0Z" fill="white"/>
<path d="M16.6667 6C17.0203 6 17.3594 6.14048 17.6095 6.39052C17.8595 6.64057 18 6.97971 18 7.33333V16.6667C18 17.0203 17.8595 17.3594 17.6095 17.6095C17.3594 17.8595 17.0203 18 16.6667 18H7.33333C6.97971 18 6.64057 17.8595 6.39052 17.6095C6.14048 17.3594 6 17.0203 6 16.6667V7.33333C6 6.97971 6.14048 6.64057 6.39052 6.39052C6.64057 6.14048 6.97971 6 7.33333 6H16.6667ZM16.3333 16.3333V12.8C16.3333 12.2236 16.1044 11.6708 15.6968 11.2632C15.2892 10.8556 14.7364 10.6267 14.16 10.6267C13.5933 10.6267 12.9333 10.9733 12.6133 11.4933V10.7533H10.7533V16.3333H12.6133V13.0467C12.6133 12.5333 13.0267 12.1133 13.54 12.1133C13.7875 12.1133 14.0249 12.2117 14.2 12.3867C14.375 12.5617 14.4733 12.7991 14.4733 13.0467V16.3333H16.3333ZM8.58667 9.70667C8.88371 9.70667 9.16859 9.58867 9.37863 9.37863C9.58867 9.16859 9.70667 8.88371 9.70667 8.58667C9.70667 7.96667 9.20667 7.46 8.58667 7.46C8.28786 7.46 8.00128 7.5787 7.78999 7.78999C7.5787 8.00128 7.46 8.28786 7.46 8.58667C7.46 9.20667 7.96667 9.70667 8.58667 9.70667ZM9.51333 16.3333V10.7533H7.66667V16.3333H9.51333Z" fill="#10313E"/>
</svg>
