<svg width="24" height="24" viewBox="0 0 24 24" fill="none" xmlns="http://www.w3.org/2000/svg">
<g clip-path="url(#clip0_1044_951)">
<path d="M12 0C5.37281 0 0 5.37281 0 12C0 18.6272 5.37281 24 12 24C18.6272 24 24 18.6272 24 12C24 5.37281 18.6272 0 12 0Z" fill="white"/>
<path d="M15.5446 6.71875H17.4714L13.2624 11.6794L18.2145 18.4307H14.3376L11.2989 14.3369L7.82578 18.4307H5.89719L10.3987 13.1231L5.65039 6.71967H9.62603L12.3686 10.4609L15.5446 6.71875ZM14.8671 17.2418H15.935L9.0427 7.84583H7.89757L14.8671 17.2418Z" fill="#103540"/>
</g>
<defs>
<clipPath id="clip0_1044_951">
<rect width="24" height="24" fill="white"/>
</clipPath>
</defs>
</svg>
