<svg width="20" height="20" viewBox="0 0 20 20" fill="none" xmlns="http://www.w3.org/2000/svg">
<path d="M7 3.72656C7 5.38341 8.3431 6.72656 10 6.72656C11.6569 6.72656 13 5.38341 13 3.72656C13 2.06971 11.6569 0.726562 10 0.726562C8.3431 0.726562 7 2.06971 7 3.72656Z" fill="white"/>
<path d="M0.5 15.7266C0.5 17.3835 1.84315 18.7266 3.5 18.7266C5.15685 18.7266 6.5 17.3835 6.5 15.7266C6.5 14.0697 5.15685 12.7266 3.5 12.7266C1.84315 12.7266 0.5 14.0697 0.5 15.7266Z" fill="white"/>
<path d="M16.5 18.7266C14.8431 18.7266 13.5 17.3835 13.5 15.7266C13.5 14.0697 14.8431 12.7266 16.5 12.7266C18.1569 12.7266 19.5 14.0697 19.5 15.7266C19.5 17.3835 18.1569 18.7266 16.5 18.7266Z" fill="white"/>
<path d="M5.20468 5.28888C5.51523 5.01478 5.54478 4.54083 5.27069 4.23027C4.99659 3.91972 4.52264 3.89017 4.21208 4.16426C2.39676 5.76648 1.25 8.11307 1.25 10.7266C1.25 11.1408 1.58579 11.4766 2 11.4766C2.41421 11.4766 2.75 11.1408 2.75 10.7266C2.75 8.56127 3.69828 6.61844 5.20468 5.28888Z" fill="white"/>
<path d="M15.7893 4.16426C15.4788 3.89017 15.0048 3.91972 14.7307 4.23027C14.4566 4.54083 14.4862 5.01478 14.7967 5.28888C16.3031 6.61844 17.2514 8.56127 17.2514 10.7266C17.2514 11.1408 17.5872 11.4766 18.0014 11.4766C18.4156 11.4766 18.7514 11.1408 18.7514 10.7266C18.7514 8.11307 17.6046 5.76648 15.7893 4.16426Z" fill="white"/>
<path d="M8.18708 17.7485C7.78598 17.6452 7.3771 17.8867 7.27385 18.2878C7.17061 18.689 7.4121 19.0979 7.81324 19.2011C8.51308 19.3812 9.24598 19.4768 10.0002 19.4768C10.7544 19.4768 11.4873 19.3812 12.1871 19.2011C12.5883 19.0979 12.8298 18.689 12.7265 18.2878C12.6233 17.8867 12.2144 17.6452 11.8133 17.7485C11.2346 17.8974 10.6272 17.9768 10.0002 17.9768C9.37318 17.9768 8.76578 17.8974 8.18708 17.7485Z" fill="white"/>
</svg>
