<svg width="20" height="21" viewBox="0 0 20 21" fill="none" xmlns="http://www.w3.org/2000/svg">
<path fill-rule="evenodd" clip-rule="evenodd" d="M10 0.726714C10.6765 0.726714 11.3374 0.793898 11.9762 0.921959L10.1697 2.72848C10.1133 2.7273 10.0567 2.72671 10 2.72671C5.58172 2.72671 2 6.30844 2 10.7267C2 15.145 5.58172 18.7267 10 18.7267C14.4155 18.7201 17.9934 15.1423 18 10.7267C18 9.3969 17.6755 8.14287 17.1015 7.03948L18.5701 5.57087C19.4778 7.0764 20 8.84058 20 10.7267C19.9918 16.2461 15.5194 20.7185 10 20.7267C4.47715 20.7267 0 16.2496 0 10.7267C0 5.20387 4.47715 0.726714 10 0.726714ZM14 0.3125L18.2071 4.51961L16.7929 5.93382L15 4.14139L15 10.7267C15 12.8689 13.316 14.6178 11.1996 14.7218L7 14.7267V12.7267H11C12.0544 12.7267 12.9182 11.9108 12.9945 10.876L13 10.7267L13 4.14139L11.2071 5.93382L9.79289 4.51961L14 0.3125Z" fill="white"/>
</svg>
